<svg width="413" height="252" viewBox="0 0 413 252" fill="none" xmlns="http://www.w3.org/2000/svg">
<g clip-path="url(#clip0_7620_7869)">
<path d="M74.955 143.77C79.5084 133.492 83.8526 123.124 88.3071 112.803C89.0915 112.818 89.8776 112.808 90.6637 112.811C95.3408 123.742 100.008 134.677 104.683 145.608C105.361 147.315 106.982 148.563 108.752 148.966C109.408 149.144 110.082 149.253 110.763 149.303C110.766 149.927 110.771 150.55 110.753 151.175C104.958 151.162 99.1641 151.178 93.3698 151.167C93.3714 150.539 93.3648 149.911 93.3813 149.285C94.7574 149.191 96.145 149.059 97.4799 148.691C97.9133 148.535 98.4505 148.383 98.6631 147.93C98.7093 147.508 98.645 147.076 98.4934 146.681C97.3266 143.828 96.1285 140.988 94.9766 138.129C90.0919 138.09 85.2039 138.126 80.3192 138.111C79.4853 139.97 78.752 141.872 78.0813 143.793C77.7517 144.817 77.4056 145.858 77.3792 146.943C77.366 147.632 77.984 148.098 78.5559 148.348C80.0984 148.993 81.7794 149.233 83.4405 149.296C83.4389 149.914 83.4373 150.534 83.4488 151.153C78.1917 151.188 72.9329 151.168 67.6758 151.163C67.6791 150.54 67.6774 149.917 67.6807 149.296C68.8442 149.143 70.0308 148.968 71.1168 148.502C71.9161 148.088 72.6379 147.52 73.2592 146.872C74.0074 145.951 74.4771 144.845 74.955 143.77ZM81.341 135.728C85.5401 135.713 89.7392 135.759 93.9383 135.705C91.8058 130.84 89.7046 125.964 87.6116 121.082C85.4725 125.942 83.4373 130.85 81.341 135.728Z" fill="#AE1C3F"/>
<path d="M125.125 114.169C128.942 112.793 133.106 112.518 137.106 113.101C139.48 113.488 141.793 114.271 143.923 115.387C144.354 114.807 144.739 114.194 145.164 113.609C145.936 113.615 146.709 113.61 147.482 113.613C147.575 117.89 147.669 122.167 147.76 126.445H145.337C144.543 123.941 143.657 121.397 142.033 119.296C140.303 116.954 137.546 115.413 134.652 115.123C131.613 114.81 128.383 115.268 125.799 116.989C123.216 118.721 121.367 121.422 120.41 124.357C119.299 127.738 119.057 131.376 119.451 134.902C119.896 138.121 120.914 141.377 123.025 143.907C124.789 146.119 127.287 147.735 130.034 148.413C132.509 149.011 135.138 149.022 137.615 148.424C138.984 148.029 140.398 147.617 141.544 146.732C141.86 144.897 141.821 143.025 141.84 141.17C141.831 139.957 141.946 138.68 141.428 137.544C141.01 136.735 140.074 136.437 139.255 136.211C137.811 135.876 136.326 135.774 134.855 135.641C134.84 135.016 134.845 134.393 134.845 133.768C140.954 133.765 147.061 133.767 153.17 133.767C153.17 134.39 153.17 135.011 153.172 135.634C151.7 135.904 150.09 135.855 148.79 136.694C147.961 137.219 147.722 138.274 147.716 139.192C147.722 142.119 147.681 145.049 147.861 147.971C144.921 149.128 141.878 150.038 138.764 150.575C134.92 151.249 130.922 151.484 127.104 150.547C122.625 149.462 118.304 147.065 115.609 143.243C113.829 140.772 112.603 137.877 112.284 134.836C111.883 131.308 112.282 127.646 113.726 124.383C114.897 121.786 116.685 119.482 118.862 117.649C120.705 116.107 122.862 114.965 125.125 114.169Z" fill="#AE1C3F"/>
<path d="M159.516 112.81C166.005 112.811 172.493 112.805 178.981 112.813C181.896 112.869 184.906 113.258 187.504 114.668C189.159 115.517 190.589 116.878 191.357 118.589C192.178 120.509 192.172 122.704 191.684 124.71C191.135 126.911 189.581 128.761 187.656 129.916C185.84 131.005 183.839 131.753 181.804 132.315C185.233 136.404 188.528 140.601 191.885 144.749C192.71 145.783 193.602 146.791 194.714 147.526C195.553 148.077 196.417 148.644 197.412 148.863C198.353 149.059 199.306 149.216 200.268 149.275C200.268 149.908 200.278 150.541 200.255 151.175C196.494 151.159 192.734 151.178 188.974 151.163C184.836 145.148 180.397 139.339 175.64 133.797C174.23 133.802 172.817 133.8 171.407 133.798C171.41 137.963 171.389 142.127 171.418 146.292C171.408 147.305 171.931 148.367 172.948 148.693C174.317 149.105 175.766 149.168 177.186 149.272C177.188 149.904 177.195 150.539 177.176 151.173C171.296 151.172 165.416 151.155 159.538 151.18C159.497 150.542 159.516 149.904 159.516 149.267C160.728 149.136 161.957 149.103 163.15 148.836C164.451 148.574 165.182 147.202 165.108 145.951C165.111 136.78 165.108 127.609 165.11 118.437C165.103 117.744 165.069 117.009 164.727 116.387C164.332 115.731 163.562 115.474 162.865 115.283C161.768 115.006 160.645 114.817 159.515 114.753C159.513 114.105 159.513 113.457 159.515 112.81H159.516ZM171.41 115.036C171.397 120.517 171.41 125.998 171.405 131.48C173.002 131.463 174.601 131.521 176.198 131.442C178.867 131.285 181.542 130.064 183.155 127.887C184.566 126.008 184.935 123.536 184.65 121.251C184.446 119.622 183.673 118.062 182.43 116.976C180.97 115.624 178.935 115.117 176.992 115.052C175.131 115.021 173.271 115.052 171.41 115.036Z" fill="#AE1C3F"/>
<path d="M204.323 112.81C210.603 112.808 216.882 112.808 223.163 112.81C223.163 113.377 223.163 113.944 223.164 114.511C221.46 114.661 219.702 114.703 218.094 115.348C217.217 115.707 216.841 116.727 216.866 117.615C216.871 127.222 216.864 136.829 216.869 146.437C216.846 147.172 217.192 147.907 217.813 148.316C218.54 148.896 219.489 148.957 220.363 149.155C221.284 149.341 222.223 149.437 223.163 149.475C223.164 150.04 223.168 150.607 223.15 151.174C216.894 151.154 210.638 151.188 204.382 151.157C204.234 150.636 204.362 150.027 204.323 149.473C205.335 149.451 206.342 149.343 207.352 149.283C208.232 149.227 209.151 149.043 209.857 148.482C210.406 148.037 210.64 147.307 210.618 146.619C210.618 137.39 210.622 128.159 210.615 118.931C210.57 118.049 210.567 117.136 210.279 116.294C209.849 115.694 209.097 115.452 208.423 115.244C207.077 114.898 205.704 114.656 204.325 114.509C204.32 113.944 204.32 113.377 204.323 112.81Z" fill="#AE1C3F"/>
<path d="M230.205 112.811C235.325 112.81 240.445 112.811 245.567 112.811C249.275 112.831 253.021 112.698 256.686 113.377C259.636 113.968 262.632 115.14 264.674 117.437C266.574 119.482 267.336 122.516 266.555 125.204C265.862 127.635 263.918 129.542 261.668 130.593C260.877 131.01 260.005 131.226 259.193 131.587C261.907 132.2 264.799 133.031 266.701 135.199C268.664 137.274 269.303 140.422 268.435 143.126C267.464 146.168 264.935 148.547 261.995 149.694C258.773 150.959 255.251 151.058 251.835 151.159C244.62 151.172 237.405 151.19 230.191 151.15C230.196 150.817 230.201 150.486 230.208 150.155C231.867 150.153 233.733 150.308 235.121 149.211C236.286 148.359 236.273 146.755 236.381 145.458C236.434 141.778 236.39 138.097 236.404 134.415C236.394 129.202 236.424 123.99 236.391 118.777C236.297 117.538 236.34 116.13 235.538 115.105C234.158 113.681 232.022 113.82 230.203 113.831C230.201 113.492 230.201 113.152 230.203 112.811H230.205ZM242.517 115.31C242.512 120.222 242.518 125.135 242.514 130.048C244.552 130.4 246.625 130.46 248.689 130.46C250.62 130.443 252.568 130.333 254.453 129.875C255.637 129.591 256.759 129.042 257.698 128.266C259.786 126.521 260.752 123.518 259.963 120.9C259.414 119.031 257.99 117.541 256.363 116.536C254.256 115.272 251.765 114.845 249.343 114.738C247.057 114.659 244.748 114.781 242.517 115.31ZM242.512 132.691C242.52 137.925 242.51 143.161 242.518 148.397C243.74 148.642 244.972 148.851 246.213 148.983C249.313 149.29 252.528 149.338 255.524 148.37C257.876 147.61 260.075 145.976 261.029 143.64C262.296 140.438 260.823 136.524 257.94 134.73C255.246 133.022 251.99 132.508 248.853 132.421C246.739 132.413 244.606 132.345 242.512 132.691Z" fill="#AE1C3F"/>
<path d="M295.02 112.811H296.137C301.238 123.437 306.327 134.068 311.434 144.689C312.153 146.102 312.93 147.524 314.071 148.645C315.257 149.726 316.92 150.027 318.473 150.131C318.469 150.474 318.471 150.818 318.478 151.163C312.832 151.169 307.186 151.183 301.541 151.156C301.541 150.813 301.544 150.472 301.549 150.131C302.724 150.055 303.998 150.055 305.018 149.388C305.668 148.981 306.014 148.178 305.846 147.425C305.567 145.84 304.796 144.401 304.114 142.962C303.395 141.515 302.733 140.039 301.978 138.612C296.457 138.653 290.936 138.617 285.415 138.628C284.47 140.56 283.532 142.493 282.588 144.424C282.068 145.48 281.516 146.573 281.452 147.768C281.422 148.645 282.184 149.307 282.939 149.6C284.043 149.996 285.231 150.055 286.393 150.13C286.389 150.476 286.389 150.822 286.393 151.169C281.881 151.158 277.37 151.192 272.859 151.153C272.863 150.81 272.869 150.469 272.876 150.128C274.262 149.853 275.888 149.747 276.874 148.599C278.413 146.893 279.415 144.797 280.419 142.753C285.285 132.771 290.152 122.791 295.02 112.811ZM286.396 136.583C291.305 136.586 296.215 136.586 301.126 136.583C298.713 131.529 296.269 126.487 293.871 121.425C291.347 126.461 288.889 131.532 286.396 136.583Z" fill="#AE1C3F"/>
<path d="M318.336 112.811C322.212 112.804 326.088 112.823 329.964 112.803C338.399 121.842 346.787 130.924 355.205 139.98C355.541 140.346 355.869 140.722 356.243 141.056C356.252 134.009 356.243 126.962 356.247 119.916C356.235 118.493 356.26 117.025 355.772 115.67C355.494 114.892 354.724 114.441 353.987 114.176C352.755 113.727 351.423 113.826 350.138 113.816C350.134 113.482 350.134 113.146 350.138 112.811C355.126 112.811 360.116 112.809 365.105 112.811C365.101 113.146 365.101 113.48 365.105 113.816C363.488 113.821 361.693 113.671 360.317 114.688C359.002 115.578 359.091 117.353 359.004 118.757C358.992 129.555 358.981 140.352 359.009 151.15C358.625 151.171 358.244 151.175 357.867 151.167C348.439 141.028 339.022 130.88 329.576 120.758C329.569 128.167 329.576 135.575 329.572 142.984C329.569 144.591 329.564 146.216 329.91 147.795C330.034 148.355 330.231 148.963 330.762 149.27C332.169 150.283 333.984 150.174 335.63 150.166C335.629 150.497 335.63 150.83 335.637 151.165C330.663 151.181 325.691 151.16 320.719 151.175C320.706 150.832 320.711 150.489 320.737 150.146C322.413 150.193 324.325 150.295 325.683 149.128C326.334 148.629 326.462 147.773 326.584 147.019C326.863 145.031 326.748 143.02 326.774 141.021C326.766 133.249 326.787 125.478 326.762 117.707C325.783 116.737 324.808 115.728 323.606 115.031C321.996 114.161 320.16 113.755 318.335 113.815C318.331 113.48 318.331 113.146 318.335 112.811H318.336Z" fill="#AE1C3F"/>
<path d="M366.697 112.811C372.805 112.811 378.914 112.81 385.023 112.811C385.018 113.152 385.018 113.492 385.023 113.833C383.889 113.835 382.727 113.767 381.636 114.125C380.728 114.395 379.74 114.843 379.356 115.774C378.944 116.824 378.955 117.976 378.917 119.087C378.907 123.171 378.916 127.254 378.914 131.336C383.675 127.31 388.634 123.499 393.1 119.135C393.998 118.189 395.038 117.246 395.409 115.951C395.635 115.27 395.261 114.528 394.633 114.225C393.702 113.737 392.611 113.851 391.599 113.831C391.594 113.49 391.594 113.151 391.599 112.811H407.358C407.354 113.151 407.354 113.489 407.358 113.83C406.775 113.873 406.197 113.907 405.625 113.999C404.298 114.199 403.092 114.825 401.915 115.435C399.727 116.677 397.851 118.38 395.977 120.039C392.348 123.354 388.693 126.64 385.025 129.908C390.265 134.56 395.506 139.216 400.747 143.868C402.271 145.214 403.835 146.529 405.546 147.635C407.767 149.084 410.359 149.941 413.001 150.158V151.17C406.193 151.172 399.387 151.17 392.579 151.172C392.576 150.834 392.574 150.498 392.579 150.16C393.395 150.124 394.252 150.099 395 149.726C395.458 149.486 395.887 149.089 396.004 148.565C396.089 147.907 395.89 147.207 395.422 146.729C394.466 145.702 393.39 144.799 392.345 143.866C387.869 139.909 383.393 135.951 378.916 131.996C378.911 136.157 378.914 140.318 378.914 144.479C378.93 145.634 378.93 146.811 379.225 147.938C379.459 148.833 380.328 149.334 381.127 149.662C382.35 150.219 383.716 150.166 385.03 150.155C385.008 150.496 385.021 150.839 385.008 151.18C378.906 151.159 372.803 151.172 366.701 151.173C366.696 150.832 366.694 150.491 366.701 150.152C368.359 150.153 370.211 150.293 371.612 149.23C372.253 148.802 372.541 148.047 372.653 147.312C372.937 145.61 372.831 143.876 372.854 142.159C372.853 134.58 372.854 127.001 372.853 119.421C372.83 118.273 372.833 117.103 372.54 115.984C372.287 115.056 371.338 114.589 370.521 114.253C369.309 113.749 367.978 113.831 366.699 113.833C366.694 113.492 366.694 113.152 366.699 112.811H366.697Z" fill="#AE1C3F"/>
<path d="M3.3863 98H55.1352C56.1619 98.1121 57.1095 98.824 57.4209 99.821C57.6121 100.401 57.5429 101.022 57.5561 101.622C57.5528 117.773 57.5544 133.925 57.5561 150.075C57.5379 150.838 57.6533 151.651 57.2957 152.359C56.91 153.2 56.0564 153.752 55.1516 153.867H3.41762C2.18326 153.747 1.13019 152.728 1 151.489V100.391C1.12195 99.1569 2.16184 98.1417 3.3863 98ZM6.44334 100.8C5.18427 101.12 4.1345 102.158 3.83126 103.424C3.67306 104.022 3.71755 104.645 3.71096 105.258C3.71426 114.882 3.70602 124.508 3.71096 134.134C4.02902 133.918 4.29435 133.64 4.56133 133.368C10.6375 127.362 16.7186 121.36 22.7932 115.353C22.8591 115.965 23.0519 116.555 23.3057 117.114C16.778 123.575 10.2535 130.037 3.7159 136.487C3.69778 139.973 3.7159 143.46 3.70602 146.947C3.70602 147.445 3.69613 147.953 3.83126 148.437C4.14438 149.696 5.18262 150.734 6.4351 151.062C7.02179 151.232 7.63814 151.199 8.24131 151.204C11.6378 151.202 15.036 151.202 18.4342 151.204C23.1376 146.572 27.8245 141.921 32.5295 137.288C32.3746 137.928 32.2955 138.582 32.3252 139.24C31.3166 139.647 30.252 140.024 29.4494 140.789C28.5298 141.624 28.0206 142.844 27.9497 144.071C27.6745 144.325 27.4076 144.589 27.1554 144.866C26.0166 145.153 24.8054 145.362 23.8215 146.044C22.6069 147.046 21.9889 148.613 21.8406 150.151C21.4336 150.462 21.0842 150.84 20.7266 151.204C30.8585 151.197 40.9887 151.209 51.1206 151.199C52.6681 151.212 54.148 150.161 54.6408 148.694C54.9028 147.976 54.8319 147.203 54.8418 146.454C54.8418 136.799 54.8451 127.145 54.8468 117.491C49.3128 122.951 43.7854 128.42 38.2514 133.88C38.197 133.231 37.3994 132.57 37.9234 131.96C43.5563 126.382 49.1991 120.81 54.8435 115.241C54.8484 111.578 54.855 107.916 54.8435 104.253C54.8385 102.362 53.1576 100.706 51.2755 100.681C47.4983 100.663 43.7195 100.686 39.9406 100.671C35.7332 104.818 31.5358 108.976 27.3383 113.134C27.2576 112.626 27.0944 112.135 26.8621 111.677C28.2332 110.924 29.6093 109.847 29.9801 108.244C30.4432 107.807 30.8947 107.356 31.3413 106.904C32.167 106.551 32.9877 106.172 33.7375 105.675C34.7807 105.022 35.3344 103.831 35.6195 102.675C36.3018 102.015 36.9791 101.349 37.6449 100.67C27.8492 100.67 18.0535 100.671 8.25779 100.67C7.65298 100.675 7.03498 100.632 6.44499 100.8H6.44334Z" fill="white"/>
<path d="M6.44211 100.8C7.0321 100.632 7.6501 100.674 8.25491 100.669C18.0506 100.671 27.8463 100.669 37.6421 100.669C36.9763 101.348 36.2989 102.014 35.6167 102.675C35.7139 102.146 35.7271 101.606 35.7238 101.068C33.6572 101.109 31.4769 101.597 29.8833 102.99C29.0032 103.743 28.4693 104.809 28.1825 105.915C26.5213 106.467 24.8915 107.492 24.1548 109.145C23.6884 110.063 23.6571 111.105 23.6291 112.11C23.11 113.11 22.6255 114.19 22.7903 115.353C16.7157 121.36 10.6346 127.362 4.55845 133.367C4.29147 133.639 4.02615 133.918 3.70808 134.134C3.70479 124.508 3.71303 114.882 3.70808 105.257C3.71467 104.644 3.67018 104.021 3.82839 103.423C4.13162 102.158 5.18139 101.119 6.44047 100.8H6.44211Z" fill="#053E2B"/>
<path d="M30.0672 107.41C30.4891 107.239 30.9159 107.074 31.3378 106.904C30.8912 107.356 30.4397 107.807 29.9766 108.244C30.0128 107.967 30.0392 107.689 30.0672 107.41Z" fill="#053E2B"/>
<path d="M38.2514 133.88C43.7854 128.42 49.3128 122.95 54.8468 117.49C54.8468 127.144 54.8418 136.798 54.8418 146.454C54.8319 147.202 54.9028 147.975 54.6408 148.693C54.148 150.16 52.6681 151.212 51.1206 151.198C40.9887 151.208 30.8585 151.197 20.7266 151.203C21.0842 150.839 21.4336 150.462 21.8406 150.15C21.834 150.409 21.8307 150.666 21.8274 150.925C22.8624 150.592 23.8792 150.191 24.9471 149.966C26.3924 149.7 27.8723 149.239 28.96 148.202C29.9109 147.347 30.3459 146.067 30.3723 144.812C31.6858 144.278 33.1871 143.975 34.1924 142.897C35.0675 142.009 35.4284 140.772 35.6129 139.568C36.3265 139.018 37.0846 138.474 37.5559 137.685C38.2975 136.581 38.581 135.177 38.2514 133.88Z" fill="#053E2B"/>
<path d="M27.1523 144.867C27.4045 144.59 27.6715 144.326 27.9467 144.072C27.9434 144.29 27.9384 144.509 27.9368 144.727C27.6748 144.773 27.4127 144.817 27.1523 144.867Z" fill="#053E2B"/>
<path d="M39.9379 100.672C43.7167 100.687 47.4956 100.664 51.2728 100.682C53.1548 100.706 54.8358 102.363 54.8407 104.253C54.8523 107.916 54.8457 111.578 54.8407 115.242C49.1963 120.81 43.5536 126.382 37.9207 131.961C37.3966 132.571 38.1943 133.231 38.2487 133.881C38.5783 135.178 38.2948 136.582 37.5532 137.686C37.0819 138.475 36.3238 139.019 35.6102 139.57C35.4256 140.773 35.0647 142.01 34.1896 142.899C33.1844 143.976 31.683 144.28 30.3696 144.814C30.3432 146.068 29.9081 147.348 28.9572 148.203C27.8696 149.24 26.3897 149.702 24.9444 149.967C23.8765 150.193 22.8596 150.593 21.8247 150.926C21.828 150.667 21.8313 150.41 21.8379 150.151C21.9862 148.614 22.6042 147.047 23.8188 146.045C24.8026 145.362 26.0139 145.153 27.1527 144.866C27.4131 144.817 27.6751 144.772 27.9371 144.726C27.9388 144.509 27.9437 144.289 27.947 144.072C28.0179 142.844 28.5271 141.625 29.4467 140.789C30.2493 140.024 31.3139 139.647 32.3225 139.24C32.2928 138.582 32.3719 137.928 32.5268 137.289C27.8218 141.921 23.1349 146.572 18.4315 151.204C15.0333 151.203 11.6351 151.203 8.23858 151.204C7.63541 151.2 7.01906 151.233 6.43237 151.063C5.17989 150.735 4.14165 149.697 3.82853 148.438C3.6934 147.953 3.70329 147.445 3.70329 146.948C3.71317 143.461 3.69505 139.973 3.71317 136.488C10.2508 130.038 16.7752 123.576 23.3029 117.114C23.0492 116.555 22.8563 115.965 22.7904 115.354C22.6256 114.19 23.1101 113.111 23.6293 112.111C23.6573 111.105 23.6886 110.064 24.155 109.146C24.8916 107.493 26.5215 106.468 28.1827 105.916C28.4694 104.81 29.0034 103.744 29.8834 102.991C31.477 101.598 33.6573 101.11 35.7239 101.069C35.7272 101.606 35.714 102.147 35.6168 102.676C35.3317 103.831 34.778 105.023 33.7348 105.675C32.9849 106.173 32.1642 106.552 31.3386 106.905C30.9167 107.074 30.4899 107.239 30.068 107.411C30.04 107.689 30.0136 107.968 29.9773 108.244C29.6065 109.848 28.2305 110.924 26.8593 111.677C27.0917 112.135 27.2549 112.626 27.3356 113.134C31.5331 108.976 35.7305 104.818 39.9379 100.672ZM29.806 103.571C28.7793 104.624 28.3887 106.132 28.4068 107.569C30.0845 107.053 31.7457 106.43 33.2701 105.553C34.7219 104.757 35.3597 103.015 35.3762 101.437C33.3706 101.537 31.2364 102.073 29.806 103.571ZM24.7664 108.767C23.9704 110.009 23.8715 111.572 24.1649 112.987C25.2921 112.139 26.5495 111.491 27.7229 110.711C28.7842 109.991 29.6593 108.856 29.7203 107.532C29.1715 107.715 28.6227 107.907 28.0657 108.063C28.0475 107.48 28.0657 106.896 28.1151 106.316C26.8033 106.797 25.5146 107.547 24.7664 108.767ZM23.9984 113.681C23.9177 113.37 23.86 113.043 23.6622 112.781C23.2107 113.663 22.9931 114.682 23.1991 115.664C23.4348 117.102 24.4928 118.203 25.4816 119.194C25.9397 118.317 26.154 117.333 26.4935 116.407C27.006 114.97 27.3241 113.271 26.5462 111.868C25.6596 112.416 24.7219 112.913 23.9984 113.681ZM25.7436 119.713C25.3597 119.505 25.0119 119.238 24.6774 118.961C24.6724 119.569 24.7268 120.204 25.0515 120.735C25.6003 121.69 26.6154 122.233 27.5993 122.643C28.6128 123.05 29.5719 123.571 30.5212 124.111C30.6646 122.824 30.4866 121.448 29.7301 120.367C28.9441 119.199 27.6603 118.492 26.3567 118.045C26.1194 118.587 25.9447 119.156 25.7436 119.713ZM30.8079 124.703C30.2987 124.408 29.7944 124.103 29.2704 123.838C29.539 124.784 30.0647 125.751 30.9942 126.183C32.4543 126.923 33.9803 127.524 35.4273 128.292C35.5509 127.117 35.4207 125.871 34.7697 124.858C33.9111 123.434 32.3768 122.625 30.864 122.07C30.9315 122.948 30.953 123.831 30.8079 124.703ZM35.6168 128.91C34.9675 128.492 34.3132 128.047 33.565 127.829C33.0756 130.173 34.7203 132.107 35.5163 134.159C35.6316 134.342 35.6152 134.662 35.8508 134.743C37.0572 133.775 37.7114 132.167 37.4494 130.633C37.3324 129.421 36.5974 128.409 35.8541 127.496C35.8063 127.973 35.7355 128.447 35.6168 128.91ZM37.5417 133.034C37.1132 134.011 36.4062 134.853 35.5047 135.427C35.4438 135.105 35.4125 134.767 35.2213 134.492C34.4451 135.207 33.5321 135.855 33.1003 136.855C32.4905 138.174 32.629 139.697 33.0591 141.046C33.6507 140.687 34.1451 140.193 34.7121 139.799C35.6531 139.047 36.7572 138.409 37.3554 137.322C38.1498 136.054 38.2965 134.35 37.5417 133.034ZM29.3017 141.462C28.4183 142.49 28.158 143.917 28.3392 145.234C29.7944 144.571 31.3435 144.143 32.7987 143.485C34.1748 142.829 34.9708 141.371 35.1867 139.909C34.3973 140.451 33.654 141.056 32.9652 141.722C32.6488 141.059 32.484 140.343 32.3389 139.627C31.2298 140.041 30.068 140.514 29.3017 141.462ZM28.097 145.812C28.0574 145.575 28.0179 145.339 27.9783 145.104C26.6797 145.339 25.33 145.57 24.1731 146.237C22.8662 147.192 22.2697 148.856 22.1905 150.423C23.2304 150.061 24.2786 149.715 25.3613 149.504C26.6154 149.273 27.8613 148.774 28.7809 147.867C29.5703 147.113 29.9592 146.028 30.0054 144.95C29.3429 145.176 28.6969 145.451 28.097 145.812Z" fill="#AE1C3F"/>
<path d="M29.806 103.57C31.2365 102.072 33.3706 101.536 35.3762 101.436C35.3598 103.014 34.722 104.756 33.2701 105.552C31.7457 106.429 30.0845 107.052 28.4069 107.568C28.3887 106.131 28.7793 104.623 29.806 103.57Z" fill="#FFDD00"/>
<path d="M24.7685 108.767C25.5167 107.547 26.8054 106.798 28.1172 106.316C28.0678 106.897 28.0496 107.48 28.0678 108.063C28.6248 107.907 29.1736 107.716 29.7223 107.533C29.6614 108.856 28.7863 109.991 27.725 110.712C26.5516 111.491 25.2942 112.139 24.1669 112.988C23.8736 111.572 23.9725 110.01 24.7685 108.767Z" fill="#FFDD00"/>
<path d="M23.9985 113.68C24.722 112.912 25.6597 112.414 26.5463 111.867C27.3242 113.27 27.0061 114.969 26.4936 116.406C26.1541 117.332 25.9398 118.316 25.4817 119.193C24.4929 118.202 23.4349 117.101 23.1992 115.663C22.9932 114.68 23.2108 113.662 23.6623 112.78C23.8601 113.042 23.9177 113.369 23.9985 113.68Z" fill="#FFDD00"/>
<path d="M25.7462 119.713C25.9473 119.156 26.122 118.587 26.3593 118.045C27.6629 118.492 28.9467 119.199 29.7328 120.367C30.4892 121.448 30.6672 122.824 30.5238 124.111C29.5745 123.571 28.6154 123.05 27.6019 122.643C26.618 122.232 25.6029 121.69 25.0541 120.734C24.7294 120.204 24.675 119.569 24.68 118.961C25.0145 119.238 25.3623 119.505 25.7462 119.713Z" fill="#FFDD00"/>
<path d="M30.811 124.702C30.956 123.83 30.9346 122.947 30.8671 122.068C32.3799 122.624 33.9142 123.433 34.7728 124.857C35.4238 125.87 35.554 127.116 35.4304 128.291C33.9834 127.523 32.4574 126.922 30.9972 126.182C30.0678 125.75 29.5421 124.783 29.2734 123.837C29.7975 124.102 30.3018 124.407 30.811 124.702Z" fill="#FFDD00"/>
<path d="M35.6177 128.91C35.7363 128.447 35.8072 127.972 35.855 127.496C36.5982 128.409 37.3332 129.421 37.4502 130.632C37.7123 132.167 37.058 133.775 35.8517 134.742C35.616 134.662 35.6325 134.342 35.5171 134.159C34.7211 132.107 33.0764 130.172 33.5659 127.829C34.3141 128.047 34.9683 128.491 35.6177 128.91Z" fill="#FFDD00"/>
<path d="M37.5442 133.033C38.299 134.35 38.1523 136.054 37.3579 137.321C36.7597 138.409 35.6556 139.047 34.7146 139.798C34.1476 140.192 33.6532 140.687 33.0616 141.046C32.6315 139.696 32.4931 138.173 33.1028 136.855C33.5346 135.855 34.4476 135.207 35.2238 134.492C35.415 134.767 35.4463 135.105 35.5072 135.426C36.4087 134.853 37.1157 134.01 37.5442 133.033Z" fill="#FFDD00"/>
<path d="M29.3019 141.461C30.0682 140.514 31.2301 140.041 32.3392 139.627C32.4842 140.342 32.649 141.059 32.9654 141.722C33.6543 141.056 34.3975 140.451 35.1869 139.909C34.971 141.371 34.1751 142.829 32.799 143.485C31.3438 144.142 29.7947 144.571 28.3395 145.233C28.1582 143.917 28.4186 142.49 29.3019 141.461Z" fill="#FFDD00"/>
<path d="M28.0978 145.811C28.6977 145.45 29.3437 145.175 30.0062 144.949C29.9601 146.027 29.5712 147.111 28.7818 147.866C27.8622 148.773 26.6163 149.272 25.3622 149.503C24.2794 149.714 23.2313 150.06 22.1914 150.422C22.2705 148.855 22.8671 147.19 24.174 146.236C25.3308 145.569 26.6806 145.338 27.9792 145.102C28.0187 145.338 28.0583 145.574 28.0978 145.811Z" fill="#FFDD00"/>
</g>
<defs>
<clipPath id="clip0_7620_7869">
<rect width="412" height="55.8672" fill="white" transform="translate(1 98)"/>
</clipPath>
</defs>
</svg>
