<svg width="54" height="54" viewBox="0 0 54 54" fill="none" xmlns="http://www.w3.org/2000/svg">
<rect x="0.285714" y="0.285714" width="53.4286" height="53.4286" rx="26.7143" stroke="black" stroke-opacity="0.15" stroke-width="0.571429"/>
<circle cx="27.0011" cy="26.7628" r="21.5195" stroke="#1E1E1E" stroke-width="1.14286"/>
<path d="M36.5312 25.72L27.5312 16.72C27.4616 16.6502 27.3788 16.5949 27.2878 16.5572C27.1967 16.5194 27.0992 16.5 27.0006 16.5C26.902 16.5 26.8044 16.5194 26.7134 16.5572C26.6223 16.5949 26.5396 16.6502 26.47 16.72L17.47 25.72C17.365 25.8249 17.2934 25.9585 17.2644 26.1041C17.2355 26.2497 17.2503 26.4006 17.3071 26.5377C17.3639 26.6748 17.4602 26.792 17.5836 26.8744C17.707 26.9568 17.8522 27.0007 18.0006 27.0006H21.7506V29.2506C21.7506 29.4495 21.8296 29.6403 21.9703 29.7809C22.1109 29.9216 22.3017 30.0006 22.5006 30.0006H31.5006C31.6995 30.0006 31.8903 29.9216 32.0309 29.7809C32.1716 29.6403 32.2506 29.4495 32.2506 29.2506V27.0006H36.0006C36.149 27.0007 36.2941 26.9568 36.4176 26.8744C36.541 26.792 36.6372 26.6748 36.6941 26.5377C36.7509 26.4006 36.7657 26.2497 36.7367 26.1041C36.7078 25.9585 36.6362 25.8249 36.5312 25.72ZM31.5006 25.5006C31.3017 25.5006 31.1109 25.5796 30.9703 25.7203C30.8296 25.8609 30.7506 26.0517 30.7506 26.2506V28.5006H23.2506V26.2506C23.2506 26.0517 23.1716 25.8609 23.0309 25.7203C22.8903 25.5796 22.6995 25.5006 22.5006 25.5006H19.8109L27.0006 18.3109L34.1903 25.5006H31.5006ZM32.2506 35.2506C32.2506 35.4495 32.1716 35.6403 32.0309 35.7809C31.8903 35.9216 31.6995 36.0006 31.5006 36.0006H22.5006C22.3017 36.0006 22.1109 35.9216 21.9703 35.7809C21.8296 35.6403 21.7506 35.4495 21.7506 35.2506C21.7506 35.0517 21.8296 34.8609 21.9703 34.7203C22.1109 34.5796 22.3017 34.5006 22.5006 34.5006H31.5006C31.6995 34.5006 31.8903 34.5796 32.0309 34.7203C32.1716 34.8609 32.2506 35.0517 32.2506 35.2506ZM32.2506 32.2506C32.2506 32.4495 32.1716 32.6403 32.0309 32.7809C31.8903 32.9216 31.6995 33.0006 31.5006 33.0006H22.5006C22.3017 33.0006 22.1109 32.9216 21.9703 32.7809C21.8296 32.6403 21.7506 32.4495 21.7506 32.2506C21.7506 32.0517 21.8296 31.8609 21.9703 31.7203C22.1109 31.5796 22.3017 31.5006 22.5006 31.5006H31.5006C31.6995 31.5006 31.8903 31.5796 32.0309 31.7203C32.1716 31.8609 32.2506 32.0517 32.2506 32.2506Z" fill="#1E1E1E"/>
</svg>
