<svg width="54" height="54" viewBox="0 0 54 54" fill="none" xmlns="http://www.w3.org/2000/svg">
<rect x="0.285714" y="0.285714" width="53.4286" height="53.4286" rx="26.7143" stroke="black" stroke-opacity="0.15" stroke-width="0.571429"/>
<circle cx="27.0011" cy="26.7628" r="21.5195" stroke="#1E1E1E" stroke-width="1.14286"/>
<path d="M24.7292 32.4327C24.6926 32.578 23.7785 36.0008 18.7507 36.0008C18.5518 36.0008 18.361 35.9218 18.2204 35.7811C18.0797 35.6405 18.0007 35.4497 18.0007 35.2508C18.0007 30.223 21.4235 29.3089 21.5688 29.2723C21.7619 29.2241 21.9662 29.2545 22.1369 29.3569C22.3075 29.4594 22.4305 29.6254 22.4787 29.8184C22.5269 30.0115 22.4965 30.2158 22.3941 30.3865C22.2917 30.5571 22.1257 30.68 21.9326 30.7283C21.8482 30.7517 19.8307 31.3414 19.5363 34.4652C22.6601 34.1708 23.2507 32.157 23.2751 32.0633C23.3248 31.8705 23.4491 31.7053 23.6206 31.6041C23.7921 31.5029 23.9968 31.474 24.1896 31.5237C24.3824 31.5735 24.5476 31.6978 24.6488 31.8693C24.75 32.0408 24.7789 32.2455 24.7292 32.4383V32.4327ZM33.4479 26.1139L33.0007 26.5611V32.0295C33.0018 32.2273 32.9636 32.4233 32.8883 32.6061C32.813 32.7889 32.7021 32.955 32.562 33.0945L29.3445 36.3102C29.2057 36.4499 29.0407 36.5608 28.8588 36.6364C28.677 36.712 28.482 36.7509 28.2851 36.7508C28.1226 36.7507 27.9611 36.7245 27.807 36.673C27.5423 36.5854 27.3074 36.4256 27.1288 36.2116C26.9502 35.9975 26.8351 35.7378 26.7963 35.4617L26.2929 31.8533L22.1482 27.7086L18.5417 27.2052C18.2652 27.1664 18.0051 27.0512 17.7905 26.8727C17.576 26.6942 17.4155 26.4593 17.3271 26.1945C17.2388 25.9297 17.2261 25.6455 17.2904 25.3739C17.3547 25.1023 17.4936 24.854 17.6913 24.657L20.907 21.4395C21.0465 21.2994 21.2126 21.1885 21.3954 21.1132C21.5782 21.0379 21.7742 20.9997 21.972 21.0008H27.4404L27.8876 20.5536C30.3888 18.0533 33.4029 17.9455 34.5823 18.0158C34.948 18.038 35.2929 18.1933 35.552 18.4524C35.811 18.7114 35.9663 19.0563 35.9885 19.422C36.057 20.5986 35.9492 23.6127 33.4488 26.1139H33.4479ZM18.7507 25.7202L22.2335 26.2058L25.9404 22.5008H21.972L18.7507 25.7202ZM23.562 27.0008L27.0007 30.4395L32.3867 25.0536C33.1125 24.3326 33.6756 23.4647 34.0381 22.5081C34.4007 21.5514 34.5543 20.5283 34.4885 19.5073C33.4682 19.4441 32.446 19.5992 31.4904 19.9625C30.5348 20.3258 29.6677 20.8888 28.947 21.6139L23.562 27.0008ZM31.5007 28.0611L27.7948 31.767L28.2823 35.2508L31.5007 32.0295V28.0611Z" fill="#1E1E1E"/>
</svg>
