<svg width="54" height="54" viewBox="0 0 54 54" fill="none" xmlns="http://www.w3.org/2000/svg">
<rect x="0.285714" y="0.285714" width="53.4286" height="53.4286" rx="26.7143" stroke="black" stroke-opacity="0.15" stroke-width="0.571429"/>
<circle cx="27.0011" cy="26.7628" r="21.5195" stroke="#1E1E1E" stroke-width="1.14286"/>
<path d="M37.2806 24.97L29.7806 17.47C29.6757 17.365 29.5421 17.2935 29.3967 17.2645C29.2512 17.2355 29.1004 17.2502 28.9633 17.3069C28.8262 17.3636 28.709 17.4597 28.6265 17.583C28.5441 17.7063 28.5 17.8513 28.4999 17.9997V21.7825C26.0681 21.9906 23.3821 23.1812 21.1724 25.0553C18.5118 27.3128 16.8553 30.2218 16.5074 33.2462C16.4803 33.4813 16.5279 33.7191 16.6437 33.9255C16.7594 34.132 16.9373 34.2967 17.1521 34.3962C17.3669 34.4957 17.6076 34.5249 17.8399 34.4797C18.0723 34.4345 18.2844 34.3171 18.4462 34.1443C19.4774 33.0465 23.1468 29.575 28.4999 29.2693V32.9997C28.5 33.148 28.5441 33.293 28.6265 33.4163C28.709 33.5396 28.8262 33.6357 28.9633 33.6924C29.1004 33.7491 29.2512 33.7638 29.3967 33.7348C29.5421 33.7058 29.6757 33.6343 29.7806 33.5293L37.2806 26.0293C37.4208 25.8887 37.4996 25.6983 37.4996 25.4997C37.4996 25.3011 37.4208 25.1106 37.2806 24.97ZM29.9999 31.1893V28.4997C29.9999 28.3007 29.9209 28.11 29.7803 27.9693C29.6396 27.8287 29.4489 27.7497 29.2499 27.7497C26.6174 27.7497 24.0534 28.4368 21.629 29.7934C20.3943 30.4874 19.2438 31.3216 18.2006 32.2797C18.7443 30.0447 20.1149 27.9193 22.1428 26.199C24.3196 24.3531 26.9765 23.2497 29.2499 23.2497C29.4489 23.2497 29.6396 23.1706 29.7803 23.03C29.9209 22.8893 29.9999 22.6986 29.9999 22.4997V19.8109L35.6896 25.4997L29.9999 31.1893Z" fill="#1E1E1E"/>
</svg>
