<svg width="413" height="252" viewBox="0 0 413 252" fill="none" xmlns="http://www.w3.org/2000/svg">
<g clip-path="url(#clip0_7620_7985)">
<path d="M81.9836 154.429C67.0913 154.429 53.26 140.981 53.5159 125.833C53.6363 116.118 59.5134 108.796 67.9943 108.796C81.3214 108.796 89.9603 123.034 89.9603 137.52C89.9603 143.111 88.8917 147.92 87.2888 151.757C86.5062 153.895 85.8139 154.429 81.9836 154.429ZM57.0903 171.835C71.8622 171.835 79.4326 165.453 86.6341 158.131C89.2755 154.956 94.6184 151.502 97.7864 148.83C105.643 142.577 109.887 132.613 110.045 122.244C110.293 98.5545 90.3441 79.1621 65.7368 79.1621C36.6369 79.1621 18.125 100.692 18.125 128.091C18.125 151.63 34.6202 171.835 57.0903 171.835ZM275.064 110.218L261.301 142.833L247.5 110.218H240.381V151.735H246.311V120.882L259.359 151.742H263.25L276.299 120.882V151.742H282.228V110.218H275.064ZM176.515 127.873C176.643 127.15 176.703 126.458 176.703 124.765V123.199H170.585V151.735H176.703V136.496C176.703 131.417 179.525 127.873 183.573 127.873C187.772 127.873 188.653 131.319 188.653 134.239V151.735H194.771V133.298C194.771 126.842 190.82 122.665 184.89 122.665C181.256 122.665 178.366 124.298 176.643 127.873H176.515ZM357.315 127.873C357.442 127.15 357.503 126.458 357.503 124.765V123.199H351.385V151.735H357.503V136.496C357.503 131.417 360.325 127.873 364.373 127.873C368.572 127.873 369.453 131.319 369.453 134.239V151.735H375.571V133.298C375.571 126.842 371.62 122.665 365.69 122.665C362.055 122.665 359.166 124.298 357.442 127.873H357.315ZM302.08 122.665C293.614 122.665 287.594 128.873 287.594 137.467C287.594 146.031 293.614 152.269 302.08 152.269C310.576 152.269 316.566 146.031 316.566 137.467C316.573 128.873 310.583 122.665 302.08 122.665ZM339.292 147.062C339.164 147.784 339.104 148.476 339.104 150.17V151.735H345.222V123.199H339.104V138.408C339.104 143.517 336.282 147.062 332.233 147.062C328.064 147.062 327.184 143.615 327.184 140.695V123.199H321.066V141.516C321.066 147.972 325.016 152.269 330.946 152.269C334.43 152.269 336.778 150.892 339.164 147.062H339.292ZM302.08 147.19C297.06 147.19 293.674 143.051 293.674 137.467C293.674 131.883 297.06 127.745 302.08 127.745C307.099 127.745 310.485 131.883 310.485 137.467C310.485 143.051 307.099 147.19 302.08 147.19ZM145.029 146.505C136.88 146.505 131.386 140.169 131.386 130.913C131.386 121.664 136.88 115.29 145.029 115.29C153.149 115.29 158.612 121.664 158.612 130.913C158.612 140.169 153.149 146.505 145.029 146.505ZM145.029 109.526C133.365 109.526 124.9 118.586 124.9 130.913C124.9 143.239 133.365 152.269 145.029 152.269C156.663 152.269 165.099 143.239 165.099 130.913C165.099 118.586 156.663 109.526 145.029 109.526ZM205.509 134.773C205.886 130.574 209.024 127.752 213.697 127.752C218.182 127.752 221.538 130.386 221.974 134.773H205.509ZM227.588 136.775C227.588 128.715 221.658 122.665 213.697 122.665C205.321 122.665 199.707 129.031 199.707 137.467C199.707 145.933 205.321 152.269 213.697 152.269C219.657 152.269 224.578 149.507 226.587 144.368L221.538 143.081C220.281 145.843 217.745 147.19 213.697 147.19C208.993 147.19 206.013 144.149 205.509 139.537H227.49C227.588 138.438 227.588 137.813 227.588 136.775ZM395.001 146.753C393.744 146.941 392.931 147.002 392.081 147.002C390.23 147.002 389.635 146.844 389.635 143.555V128.219H394.685V123.199H389.635V115.614H383.645V123.207H378.942V128.226H383.645V144.782C383.645 150.99 387.28 152.277 390.327 152.277C392.209 152.277 393.623 152.089 395.001 151.772V146.753Z" fill="black"/>
</g>
<defs>
<clipPath id="clip0_7620_7985">
<rect width="376.876" height="92.6725" fill="white" transform="translate(18.125 79.1621)"/>
</clipPath>
</defs>
</svg>
