<svg width="413" height="252" viewBox="0 0 413 252" fill="none" xmlns="http://www.w3.org/2000/svg">
<g clip-path="url(#clip0_7620_7536)">
<path d="M116.356 124.932H113.993C111.785 124.932 110 123.153 110 120.953C110 118.753 111.785 116.975 113.993 116.975H116.356C118.564 116.975 120.349 118.761 120.349 120.953C120.349 123.153 118.564 124.932 116.356 124.932Z" fill="#E11F26"/>
<path d="M115.178 164.209C112.324 164.209 110 161.902 110 159.05V134.841C110 131.997 112.316 129.682 115.178 129.682C118.033 129.682 120.357 131.989 120.357 134.841V159.05C120.349 161.894 118.033 164.209 115.178 164.209Z" fill="#E11F26"/>
<path d="M158.902 144.598C158.902 137.201 156.509 130.362 148.552 129.243C140.596 128.124 136.764 132.831 135.864 133.728C135.371 134.219 134.986 134.303 134.733 134.28C134.448 131.697 132.255 129.688 129.593 129.688C126.738 129.688 124.414 131.995 124.414 134.847V159.057C124.414 161.908 126.73 164.216 129.593 164.216C132.447 164.216 134.771 161.908 134.771 159.057V141.126C134.771 136.135 138.564 133.391 142.504 133.674C146.444 133.958 148.552 136.756 148.552 139.715V141.885V143.87V159.057C148.552 161.908 150.868 164.216 153.731 164.216C156.593 164.216 158.909 161.908 158.909 159.057V145.227C158.909 145.158 158.902 145.089 158.902 145.02C158.894 144.882 158.902 144.744 158.902 144.598Z" fill="#E11F26"/>
<path d="M36.7717 131.679C40.1728 132.829 43.5123 134.194 46.9824 135.045C49.0754 135.558 51.4377 135.62 53.5461 135.275C56.9393 134.723 58.3015 132.208 57.6628 128.505C57.024 124.795 55.4467 121.376 53.4923 118.095C48.3907 109.501 41.7886 102.004 34.3787 95.1276C29.7465 90.8346 24.8527 86.8331 19.3741 83.529C19.2125 83.4293 19.0663 83.299 19.0586 83C41.5886 88.8263 58.486 101.598 69.7588 121.322C69.8895 121.261 70.0126 121.2 70.1434 121.138C70.028 120.41 69.9126 119.69 69.8125 118.961C68.1584 106.688 68.7277 94.6829 73.8061 83.345C79.6386 70.3281 90.3727 62.8614 104.708 59.7413C115.319 57.4262 126.114 57.6485 136.964 59.0744C140.773 59.5727 144.566 60.2013 148.36 60.7993C149.145 60.9219 149.914 61.1749 150.691 61.3665C150.684 61.4969 150.684 61.6195 150.676 61.7498C150.137 61.7268 149.606 61.7268 149.076 61.6732C141.381 60.9143 133.832 61.2439 126.676 63.9423C117.466 67.4227 110.81 73.3255 107.309 82.3408C104.5 89.5776 103.607 97.1362 103.731 104.825C103.862 113.403 104.531 121.982 104.862 130.568C105.116 137.275 105.616 144.021 104.046 150.584C103.208 154.095 102.161 157.575 99.2909 160.205C95.3667 163.8 90.5959 164.758 85.279 163.93C80.6697 163.21 76.4532 161.331 72.3595 159.193C61.0637 153.298 51.0761 145.708 41.8117 137.206C40.1882 135.719 38.6107 134.186 37.018 132.668C36.8179 132.477 36.6948 132.216 36.5332 131.986C36.6101 131.886 36.6871 131.779 36.7717 131.679Z" fill="#E11F26"/>
<path d="M336.521 97.852C336.521 97.852 323.717 97.1161 323.625 109.78C323.532 122.445 323.625 126.048 323.625 126.048C323.625 126.048 322.979 136.642 336.897 136.703C350.818 136.765 381.159 136.703 381.159 136.703L381.341 151.928H334.205L334.112 144.07L320.747 147.03C320.747 147.03 316.854 163.948 333.736 164.133C350.625 164.316 381.897 164.133 381.897 164.133C381.897 164.133 394.794 164.968 394.886 152.296C394.976 139.632 394.886 136.703 394.886 136.703C394.886 136.703 396.646 124.008 380.227 124.101C363.799 124.192 336.889 124.101 336.889 124.101L336.982 109.313H380.227L380.412 116.71L394.055 113.567C394.055 113.567 398.232 98.036 379.766 97.852C373.609 97.7906 366.753 97.7676 360.35 97.7676C347.533 97.7676 336.521 97.852 336.521 97.852Z" fill="url(#paint0_linear_7620_7536)"/>
<path d="M257.74 97.852C257.74 97.852 244.936 97.1161 244.844 109.78C244.751 122.445 244.844 126.048 244.844 126.048C244.844 126.048 244.197 136.642 258.117 136.711C272.037 136.772 302.377 136.711 302.377 136.711L302.562 151.936H255.424L255.332 144.078L241.966 147.037C241.966 147.037 238.073 163.956 254.955 164.14C271.844 164.324 303.108 164.14 303.108 164.14C303.108 164.14 316.004 164.976 316.097 152.311C316.189 139.647 316.097 136.719 316.097 136.719C316.097 136.719 317.86 124.024 301.437 124.116C285.018 124.208 258.109 124.116 258.109 124.116L258.202 109.313H301.437L301.623 116.71L315.266 113.567C315.266 113.567 319.443 98.036 300.977 97.852C294.82 97.7906 287.964 97.7676 281.563 97.7676C268.743 97.7676 257.74 97.852 257.74 97.852Z" fill="url(#paint1_linear_7620_7536)"/>
<path d="M178.952 97.756C178.952 97.756 165.032 97.0969 164.894 110.413C164.755 123.721 164.894 152.009 164.894 152.009C164.894 152.009 163.224 164.213 180.622 164.213H223.211C223.211 164.213 237.67 162.963 237.331 151.043C237.2 146.527 237.17 144.312 237.185 143.315L222.234 146.742L222.373 151.318H180.198L180.337 109.439L221.672 109.163L221.95 119.704L237.262 117.35V109.999C237.262 109.999 239.209 97.8635 221.534 97.7637C215.64 97.733 208.946 97.7177 202.636 97.7177C190.024 97.71 178.952 97.756 178.952 97.756Z" fill="url(#paint2_linear_7620_7536)"/>
<path d="M171.269 178.75L170 187.696C170 187.842 170.03 187.964 170.1 188.072C170.138 188.125 170.231 188.217 170.384 188.34C170.492 188.409 170.569 188.47 170.615 188.532C170.661 188.593 170.685 188.677 170.685 188.777C170.685 188.991 170.607 189.145 170.446 189.244C170.292 189.337 170.107 189.39 169.915 189.39H167.106C166.86 189.39 166.691 189.367 166.591 189.321C166.422 189.244 166.337 189.084 166.337 188.846C166.337 188.754 166.352 188.685 166.383 188.631C166.414 188.578 166.506 188.493 166.668 188.363C166.829 188.233 166.952 188.118 167.045 188.01C167.137 187.903 167.199 187.788 167.253 187.665L168.553 178.857L168.584 178.52C168.584 178.298 168.414 178.182 168.084 178.182C167.914 178.182 167.753 178.198 167.599 178.236C167.445 178.267 167.276 178.32 167.106 178.382C166.937 178.443 166.776 178.535 166.637 178.642C166.491 178.757 166.299 178.964 166.052 179.271C165.937 179.394 165.814 179.516 165.691 179.639C165.567 179.754 165.429 179.815 165.283 179.815C165.152 179.815 165.052 179.769 164.983 179.685C164.906 179.601 164.875 179.47 164.875 179.302C164.875 179.156 164.944 178.857 165.075 178.412C165.206 177.968 165.314 177.654 165.383 177.47C165.46 177.286 165.56 177.163 165.698 177.094C165.837 177.025 166.006 176.994 166.199 176.994H174.093C174.239 176.994 174.386 176.994 174.524 176.994C174.662 176.994 174.755 177.002 174.809 177.025C174.855 177.071 174.893 177.147 174.917 177.255C174.94 177.362 174.955 177.47 174.955 177.569L175.016 178.788C175.016 179.026 174.963 179.217 174.847 179.371C174.732 179.524 174.57 179.601 174.37 179.601C174.162 179.601 173.978 179.463 173.809 179.194C173.732 179.033 173.639 178.888 173.539 178.757C173.439 178.619 173.331 178.512 173.216 178.42C173.077 178.343 172.893 178.282 172.654 178.244C172.416 178.205 172.2 178.182 172 178.182C171.854 178.182 171.731 178.19 171.638 178.205C171.546 178.221 171.469 178.267 171.408 178.351C171.339 178.466 171.3 178.604 171.269 178.75Z" fill="black"/>
<path d="M176.996 189.385H175.634C175.519 189.385 175.441 189.377 175.411 189.369C175.28 189.316 175.218 189.193 175.218 189.017L175.988 183.881C175.988 183.658 175.965 183.49 175.926 183.382C175.888 183.275 175.788 183.183 175.634 183.099C175.465 182.983 175.364 182.915 175.341 182.899C175.241 182.807 175.195 182.692 175.195 182.562C175.195 182.37 175.326 182.186 175.58 182.018C175.757 181.918 175.872 181.849 175.934 181.811L177.734 181.098C177.958 181.098 178.119 181.228 178.204 181.489C178.265 181.657 178.296 181.903 178.296 182.217C178.296 182.508 178.273 182.815 178.219 183.129C178.165 183.443 178.135 183.674 178.119 183.804C178.373 183.037 178.673 182.432 179.02 181.994C179.481 181.397 180.012 181.098 180.597 181.098C181.182 181.098 181.482 181.473 181.482 182.217C181.482 182.615 181.405 182.976 181.243 183.321C181.043 183.742 180.789 183.949 180.474 183.949C180.22 183.949 179.981 183.765 179.766 183.405C179.658 183.221 179.543 183.137 179.412 183.137C179.02 183.137 178.627 183.904 178.227 185.437C178.05 186.134 177.85 187.123 177.635 188.411C177.588 188.656 177.542 188.902 177.504 189.139C177.442 189.3 177.273 189.385 176.996 189.385Z" fill="black"/>
<path d="M182.322 186.096L182.592 184.509C182.669 184.195 182.707 183.904 182.707 183.635C182.707 183.344 182.538 183.122 182.192 182.96C182.022 182.884 181.938 182.769 181.938 182.623C181.938 182.447 182.022 182.286 182.192 182.148C182.268 182.079 182.422 181.987 182.653 181.88C183.138 181.657 183.484 181.496 183.7 181.404C184.2 181.205 184.562 181.098 184.777 181.098C184.954 181.098 185.085 181.19 185.162 181.381C185.239 181.573 185.277 181.788 185.277 182.041C185.277 182.301 185.239 182.669 185.154 183.145C185.069 183.62 184.992 184.072 184.923 184.502L184.685 185.95C184.662 186.088 184.639 186.28 184.592 186.541C184.554 186.801 184.531 186.985 184.531 187.1C184.531 187.66 184.769 187.943 185.239 187.943C185.862 187.943 186.408 187.246 186.893 185.851C187.209 184.915 187.447 183.881 187.601 182.738C187.632 182.478 187.67 182.209 187.724 181.918C187.778 181.634 187.847 181.443 187.924 181.351C187.962 181.305 188.024 181.274 188.109 181.251C188.193 181.228 188.278 181.22 188.37 181.22H189.786C190.04 181.22 190.171 181.312 190.171 181.489C190.171 181.565 190.156 181.703 190.117 181.895C190.086 182.087 190.063 182.209 190.048 182.271L189.548 185.345C189.524 185.49 189.494 185.759 189.448 186.157C189.401 186.548 189.371 186.809 189.371 186.932C189.371 187.269 189.586 187.522 190.009 187.69C190.217 187.767 190.317 187.89 190.317 188.043C190.317 188.181 190.256 188.311 190.14 188.449C190.048 188.526 189.848 188.649 189.517 188.802C189.309 188.902 189.086 189.009 188.84 189.124L188.07 189.461C187.932 189.515 187.824 189.561 187.755 189.592C187.678 189.622 187.616 189.63 187.57 189.63C187.362 189.63 187.224 189.5 187.147 189.247C187.07 188.994 187.039 188.71 187.039 188.411L187.101 187.338L187.132 187.039C186.816 187.806 186.431 188.403 185.977 188.84C185.439 189.369 184.846 189.63 184.208 189.63C183.654 189.63 183.184 189.454 182.792 189.093C182.361 188.702 182.138 188.197 182.138 187.576C182.138 187.338 182.161 187.092 182.199 186.84C182.245 186.594 182.284 186.341 182.322 186.096Z" fill="black"/>
<path d="M193.576 189.638C193.168 189.638 192.806 189.599 192.476 189.53C192.145 189.454 191.821 189.331 191.506 189.162C191.191 188.986 190.937 188.787 190.737 188.549C190.498 188.266 190.383 187.959 190.383 187.622C190.383 187.33 190.467 187.085 190.637 186.901C190.806 186.709 191.014 186.617 191.275 186.617C191.545 186.617 191.745 186.717 191.883 186.916C191.983 187.054 192.076 187.292 192.168 187.629C192.26 187.974 192.391 188.197 192.568 188.319C192.745 188.434 192.999 188.496 193.322 188.496C193.676 188.496 193.984 188.404 194.238 188.227C194.53 188.013 194.684 187.721 194.684 187.353C194.684 186.97 194.107 186.525 192.953 186.019C191.798 185.513 191.221 184.808 191.221 183.911C191.221 183.52 191.314 183.129 191.506 182.754C191.698 182.378 191.953 182.072 192.268 181.841C192.583 181.611 192.945 181.427 193.345 181.305C193.753 181.174 194.161 181.113 194.584 181.113C194.969 181.113 195.33 181.159 195.669 181.244C196.008 181.328 196.315 181.466 196.592 181.658C196.815 181.803 197.016 181.987 197.177 182.217C197.339 182.447 197.423 182.685 197.423 182.945C197.423 183.214 197.346 183.428 197.185 183.589C197.031 183.75 196.831 183.827 196.592 183.827C196.208 183.827 195.923 183.559 195.738 183.03C195.554 182.501 195.215 182.232 194.73 182.232C194.446 182.232 194.192 182.317 193.969 182.486C193.745 182.654 193.638 182.892 193.638 183.214C193.638 183.597 194.23 184.042 195.423 184.548C196.615 185.053 197.208 185.759 197.208 186.656C197.208 187.108 197.108 187.522 196.9 187.898C196.692 188.273 196.408 188.595 196.054 188.864C195.692 189.132 195.307 189.331 194.899 189.462C194.492 189.592 194.045 189.638 193.576 189.638Z" fill="black"/>
<path d="M202.015 181.227V181.297H202.784C203.077 181.297 203.285 181.35 203.392 181.442C203.5 181.542 203.554 181.68 203.554 181.856C203.554 182.101 203.492 182.278 203.377 182.4C203.215 182.569 202.954 182.646 202.577 182.646H202.253H201.784L201.161 186.54C201.13 186.732 201.107 186.893 201.092 187.015C201.076 187.138 201.069 187.207 201.069 187.215C201.069 187.529 201.199 187.69 201.453 187.69C201.615 187.69 201.815 187.621 202.077 187.483C202.33 187.345 202.5 187.276 202.577 187.276C202.707 187.276 202.8 187.33 202.861 187.437C202.923 187.544 202.954 187.682 202.954 187.851C202.954 188.112 202.784 188.342 202.453 188.541C202.43 188.549 202.169 188.664 201.646 188.878C201.13 189.093 200.707 189.246 200.384 189.346C199.791 189.538 199.368 189.629 199.114 189.629C198.929 189.629 198.775 189.538 198.66 189.354C198.545 189.17 198.491 188.97 198.491 188.756C198.491 188.51 198.552 188.05 198.668 187.383C198.714 187.115 198.768 186.839 198.814 186.555L199.491 182.638H199.314H199.076C198.875 182.638 198.714 182.6 198.591 182.523C198.46 182.446 198.398 182.293 198.398 182.071C198.398 181.78 198.498 181.573 198.691 181.45C198.822 181.373 199.045 181.312 199.368 181.266C199.691 181.22 199.93 181.105 200.084 180.921C200.237 180.737 200.384 180.438 200.522 180.024C200.599 179.763 200.684 179.503 200.776 179.234C200.961 178.751 201.284 178.514 201.738 178.514C201.938 178.514 202.084 178.537 202.184 178.583C202.284 178.629 202.33 178.744 202.33 178.92C202.33 179.035 202.315 179.188 202.284 179.388C202.253 179.587 202.23 179.771 202.207 179.94L202.015 181.227Z" fill="black"/>
<path d="M206.371 186.295C206.371 186.916 206.525 187.392 206.841 187.737C207.148 188.082 207.587 188.25 208.148 188.25C208.595 188.25 209.049 188.12 209.526 187.852C209.626 187.798 209.872 187.629 210.28 187.353C210.434 187.231 210.549 187.154 210.603 187.116C210.749 187.024 210.873 186.985 210.957 186.985C211.065 186.985 211.165 187.024 211.242 187.108C211.327 187.192 211.365 187.3 211.365 187.422C211.365 187.637 211.219 187.882 210.934 188.166C210.757 188.342 210.534 188.526 210.272 188.703C209.849 188.994 209.388 189.224 208.88 189.392C208.38 189.561 207.872 189.646 207.372 189.646C206.387 189.646 205.571 189.362 204.917 188.787C204.186 188.143 203.824 187.277 203.824 186.173C203.824 185.506 203.978 184.854 204.278 184.203C204.555 183.605 204.932 183.076 205.417 182.6C206.402 181.611 207.564 181.113 208.903 181.113C209.257 181.113 209.595 181.159 209.926 181.236C210.249 181.32 210.549 181.451 210.811 181.634C211.08 181.818 211.288 182.025 211.45 182.263C211.611 182.501 211.688 182.784 211.688 183.099C211.688 184.134 210.988 184.939 209.587 185.513C208.864 185.805 207.787 186.065 206.371 186.295ZM206.371 185.169C207.002 185.169 207.648 185.008 208.31 184.678C209.126 184.271 209.534 183.758 209.534 183.137C209.534 182.853 209.449 182.639 209.28 182.486C209.11 182.332 208.903 182.255 208.641 182.255C208.148 182.255 207.656 182.6 207.164 183.29C206.717 183.919 206.448 184.548 206.371 185.169Z" fill="black"/>
<path d="M218.73 182.237L219.2 178.948C219.2 178.764 219.177 178.634 219.138 178.542C219.1 178.45 219.007 178.358 218.869 178.274C218.73 178.182 218.653 178.128 218.63 178.105C218.53 178.013 218.484 177.921 218.484 177.837C218.484 177.499 218.884 177.185 219.692 176.901C220.369 176.664 220.916 176.549 221.316 176.549C221.647 176.549 221.816 176.717 221.816 177.055L220.4 187.005C220.4 187.381 220.569 187.619 220.9 187.733C221.239 187.848 221.4 188.002 221.4 188.194C221.4 188.385 221.27 188.569 221 188.738C220.685 188.899 220.485 188.998 220.392 189.044C220.215 189.144 219.946 189.274 219.577 189.428C219.215 189.581 218.954 189.658 218.792 189.658C218.592 189.658 218.453 189.543 218.376 189.32C218.3 189.098 218.261 188.845 218.261 188.577L218.376 186.967C218.092 187.764 217.699 188.401 217.207 188.868C216.653 189.397 216.022 189.658 215.299 189.658C214.537 189.658 213.906 189.343 213.383 188.707C212.867 188.071 212.605 187.296 212.605 186.384C212.605 185.066 213.013 183.877 213.829 182.804C214.683 181.677 215.683 181.118 216.83 181.118C217.261 181.118 217.63 181.21 217.93 181.394C218.269 181.562 218.523 181.854 218.73 182.237ZM216.276 188.155C216.591 188.155 216.891 187.994 217.176 187.68C217.392 187.442 217.584 187.128 217.761 186.729C217.93 186.331 218.076 185.871 218.184 185.342C218.292 184.813 218.346 184.322 218.346 183.877C218.346 183.433 218.284 183.08 218.153 182.835C217.984 182.521 217.715 182.36 217.338 182.36C217.122 182.36 216.914 182.428 216.714 182.559C216.445 182.735 216.199 183.034 215.968 183.433C215.737 183.839 215.545 184.299 215.399 184.828C215.253 185.357 215.175 185.848 215.175 186.292C215.175 186.538 215.199 186.775 215.245 187.005C215.291 187.235 215.368 187.434 215.476 187.603C215.552 187.764 215.668 187.887 215.814 187.994C215.968 188.101 216.114 188.155 216.276 188.155Z" fill="black"/>
<path d="M239.038 178.72L238.954 179.739C238.954 180.146 238.907 180.475 238.823 180.736C238.684 181.135 238.461 181.326 238.161 181.326C237.976 181.326 237.846 181.257 237.769 181.112C237.691 180.974 237.638 180.767 237.599 180.514C237.522 180.1 237.445 179.793 237.376 179.601C237.268 179.31 237.099 179.034 236.868 178.773C236.637 178.513 236.361 178.321 236.037 178.198C235.714 178.076 235.368 178.014 234.998 178.014C233.744 178.014 232.736 178.735 231.951 180.176C231.282 181.426 230.943 182.813 230.943 184.339C230.943 184.822 230.99 185.29 231.089 185.734C231.19 186.179 231.344 186.57 231.559 186.907C231.828 187.321 232.167 187.643 232.582 187.865C232.998 188.088 233.444 188.195 233.929 188.195C234.529 188.195 235.121 188.026 235.699 187.689C236.16 187.421 236.66 187.007 237.207 186.447C237.307 186.332 237.369 186.271 237.399 186.248C237.484 186.179 237.584 186.148 237.676 186.148C237.823 186.148 237.953 186.21 238.069 186.324C238.184 186.44 238.238 186.585 238.238 186.754C238.238 187.061 238.046 187.421 237.661 187.85C237.376 188.164 237.053 188.44 236.699 188.678C235.706 189.33 234.614 189.659 233.421 189.659C231.898 189.659 230.635 189.199 229.635 188.272C228.55 187.267 228.012 185.918 228.012 184.209C228.012 182.154 228.727 180.383 230.166 178.896C231.567 177.455 233.175 176.734 234.983 176.734C235.552 176.734 236.083 176.803 236.568 176.934C237.053 177.072 237.553 177.294 238.053 177.608C238.23 177.708 238.377 177.8 238.484 177.877C238.661 177.999 238.8 178.13 238.892 178.268C238.992 178.398 239.038 178.551 239.038 178.72Z" fill="black"/>
<path d="M242.421 181.815L242.305 184.713C242.305 185.487 242.351 186.123 242.451 186.614C242.629 187.503 242.936 187.948 243.367 187.948C243.783 187.948 244.221 187.434 244.698 186.399C245.129 185.441 245.352 184.69 245.352 184.138C245.352 183.946 245.337 183.808 245.306 183.724C245.275 183.639 245.206 183.509 245.083 183.348C244.968 183.179 244.883 183.064 244.845 183.01C244.729 182.811 244.668 182.581 244.668 182.321C244.668 182.006 244.768 181.723 244.96 181.477C245.152 181.232 245.391 181.109 245.668 181.109C246.045 181.109 246.322 181.293 246.514 181.654C246.661 181.945 246.737 182.321 246.737 182.773C246.737 183.639 246.514 184.674 246.076 185.87C245.699 186.882 245.245 187.84 244.698 188.729C244.129 189.665 243.475 190.508 242.752 191.252C241.774 192.233 240.928 192.723 240.212 192.723C239.897 192.723 239.62 192.639 239.389 192.471C239.151 192.302 239.035 192.049 239.035 191.712C239.035 191.428 239.127 191.206 239.304 191.045C239.481 190.884 239.697 190.799 239.951 190.799C240.12 190.799 240.305 190.868 240.512 191.006C240.72 191.144 240.866 191.213 240.959 191.213C241.267 191.213 241.697 190.93 242.251 190.355C242.805 189.787 243.175 189.289 243.352 188.875C242.975 189.243 242.713 189.465 242.582 189.55C242.451 189.634 242.305 189.672 242.152 189.672C241.751 189.672 241.397 189.542 241.09 189.281C240.782 189.021 240.543 188.676 240.382 188.239C240.212 187.802 240.12 187.25 240.089 186.583C240.059 185.916 240.043 185.41 240.043 185.05V183.501C240.043 183.287 240.02 183.133 239.981 183.026C239.943 182.926 239.866 182.85 239.743 182.803C239.628 182.758 239.528 182.719 239.466 182.689C239.335 182.612 239.274 182.489 239.274 182.321C239.274 182.167 239.366 182.022 239.543 181.899C239.62 181.845 239.766 181.769 239.989 181.677C240.305 181.577 240.62 181.477 240.936 181.37C241.443 181.209 241.759 181.132 241.882 181.132C242.09 181.132 242.236 181.194 242.321 181.309C242.382 181.401 242.421 181.577 242.421 181.815Z" fill="black"/>
<path d="M247.895 188.523L249.403 178.879C249.403 178.619 249.303 178.419 249.11 178.289C248.911 178.151 248.818 178.013 248.818 177.867C248.818 177.653 248.911 177.476 249.095 177.346C249.226 177.254 249.38 177.177 249.557 177.116C249.734 177.055 250.011 176.963 250.38 176.855C251.042 176.656 251.411 176.549 251.504 176.549C251.881 176.549 252.065 176.756 252.065 177.162L251.211 182.528C251.504 182.091 251.858 181.739 252.265 181.486C252.673 181.233 253.119 181.102 253.604 181.102C254.428 181.102 255.089 181.432 255.582 182.084C256.074 182.735 256.32 183.548 256.32 184.514C256.32 185.142 256.205 185.771 255.967 186.392C255.728 187.013 255.413 187.565 255.005 188.048C254.604 188.523 254.112 188.914 253.543 189.205C252.973 189.497 252.389 189.642 251.796 189.642C251.419 189.642 251.057 189.558 250.703 189.382C250.349 189.213 250.065 188.96 249.849 188.638C249.634 188.86 249.395 189.067 249.141 189.251C248.795 189.504 248.518 189.635 248.318 189.635C248.002 189.635 247.849 189.443 247.849 189.06C247.833 188.929 247.856 188.753 247.895 188.523ZM252.65 182.697C252.342 182.697 252.05 182.85 251.765 183.164C251.542 183.41 251.342 183.717 251.18 184.084C251.019 184.452 250.873 184.912 250.742 185.48C250.611 186.047 250.549 186.522 250.549 186.905C250.549 187.358 250.634 187.718 250.811 188.002C250.98 188.285 251.265 188.423 251.642 188.423C252.265 188.423 252.788 187.933 253.227 186.944C253.589 186.116 253.773 185.303 253.773 184.521C253.773 183.992 253.704 183.586 253.566 183.295C253.381 182.896 253.073 182.697 252.65 182.697Z" fill="black"/>
<path d="M259.438 186.295C259.438 186.916 259.591 187.392 259.907 187.737C260.215 188.082 260.653 188.25 261.215 188.25C261.661 188.25 262.115 188.12 262.592 187.852C262.692 187.798 262.939 187.629 263.347 187.353C263.5 187.231 263.616 187.154 263.67 187.116C263.816 187.024 263.939 186.985 264.024 186.985C264.131 186.985 264.231 187.024 264.308 187.108C264.393 187.192 264.432 187.3 264.432 187.422C264.432 187.637 264.285 187.882 264.001 188.166C263.824 188.342 263.6 188.526 263.339 188.703C262.916 188.994 262.454 189.224 261.946 189.392C261.446 189.561 260.938 189.646 260.438 189.646C259.453 189.646 258.637 189.362 257.983 188.787C257.252 188.143 256.891 187.277 256.891 186.173C256.891 185.506 257.044 184.854 257.345 184.203C257.622 183.605 257.999 183.076 258.483 182.6C259.468 181.611 260.63 181.113 261.969 181.113C262.323 181.113 262.662 181.159 262.993 181.236C263.316 181.32 263.616 181.451 263.878 181.634C264.147 181.818 264.355 182.025 264.516 182.263C264.678 182.501 264.754 182.784 264.754 183.099C264.754 184.134 264.054 184.939 262.654 185.513C261.931 185.805 260.853 186.065 259.438 186.295ZM259.438 185.169C260.068 185.169 260.715 185.008 261.377 184.678C262.192 184.271 262.6 183.758 262.6 183.137C262.6 182.853 262.515 182.639 262.346 182.486C262.177 182.332 261.969 182.255 261.707 182.255C261.215 182.255 260.722 182.6 260.23 183.29C259.784 183.919 259.515 184.548 259.438 185.169Z" fill="black"/>
<path d="M267.988 189.385H266.626C266.511 189.385 266.434 189.377 266.403 189.369C266.272 189.316 266.211 189.193 266.211 189.017L266.98 183.881C266.98 183.658 266.957 183.49 266.918 183.382C266.88 183.275 266.78 183.183 266.626 183.099C266.457 182.983 266.357 182.915 266.334 182.899C266.234 182.807 266.188 182.692 266.188 182.562C266.188 182.37 266.318 182.186 266.572 182.018C266.749 181.918 266.865 181.849 266.926 181.811L268.727 181.098C268.95 181.098 269.111 181.228 269.196 181.489C269.258 181.657 269.281 181.903 269.281 182.217C269.281 182.508 269.258 182.815 269.204 183.129C269.15 183.443 269.119 183.674 269.104 183.804C269.358 183.037 269.658 182.432 270.004 181.994C270.466 181.397 270.997 181.098 271.581 181.098C272.166 181.098 272.466 181.473 272.466 182.217C272.466 182.615 272.389 182.976 272.228 183.321C272.028 183.742 271.774 183.949 271.458 183.949C271.204 183.949 270.966 183.765 270.75 183.405C270.643 183.221 270.527 183.137 270.396 183.137C270.004 183.137 269.611 183.904 269.212 185.437C269.034 186.134 268.834 187.123 268.619 188.411C268.573 188.656 268.527 188.902 268.488 189.139C268.434 189.3 268.265 189.385 267.988 189.385Z" fill="black"/>
<path d="M275.439 189.638C275.032 189.638 274.67 189.599 274.339 189.53C274.008 189.454 273.685 189.331 273.37 189.162C273.054 188.994 272.8 188.787 272.6 188.549C272.361 188.266 272.246 187.959 272.246 187.622C272.246 187.33 272.331 187.085 272.5 186.901C272.669 186.709 272.877 186.617 273.139 186.617C273.408 186.617 273.608 186.717 273.746 186.916C273.847 187.054 273.939 187.292 274.024 187.629C274.116 187.974 274.247 188.197 274.424 188.319C274.601 188.434 274.855 188.496 275.178 188.496C275.532 188.496 275.839 188.404 276.093 188.227C276.386 188.013 276.54 187.721 276.54 187.353C276.54 186.97 275.963 186.525 274.808 186.019C273.654 185.513 273.077 184.808 273.077 183.911C273.077 183.52 273.177 183.129 273.362 182.754C273.554 182.378 273.808 182.072 274.124 181.841C274.439 181.611 274.801 181.427 275.201 181.305C275.601 181.174 276.017 181.113 276.44 181.113C276.824 181.113 277.186 181.159 277.525 181.244C277.863 181.328 278.171 181.466 278.448 181.658C278.671 181.803 278.871 181.987 279.033 182.217C279.194 182.439 279.279 182.685 279.279 182.945C279.279 183.214 279.202 183.428 279.041 183.589C278.887 183.75 278.686 183.827 278.448 183.827C278.063 183.827 277.778 183.559 277.594 183.03C277.409 182.501 277.071 182.232 276.586 182.232C276.301 182.232 276.047 182.317 275.824 182.486C275.601 182.654 275.493 182.892 275.493 183.214C275.493 183.597 276.086 184.042 277.278 184.548C278.471 185.053 279.064 185.759 279.064 186.656C279.064 187.108 278.964 187.522 278.756 187.898C278.548 188.273 278.263 188.595 277.909 188.864C277.548 189.132 277.163 189.331 276.755 189.462C276.347 189.576 275.909 189.638 275.439 189.638Z" fill="black"/>
<path d="M282.289 186.295C282.289 186.916 282.443 187.392 282.759 187.737C283.066 188.082 283.505 188.25 284.066 188.25C284.514 188.25 284.966 188.12 285.443 187.852C285.543 187.798 285.789 187.629 286.197 187.353C286.351 187.231 286.467 187.154 286.52 187.116C286.668 187.024 286.79 186.985 286.875 186.985C286.983 186.985 287.084 187.024 287.161 187.108C287.245 187.192 287.282 187.3 287.282 187.422C287.282 187.637 287.137 187.882 286.851 188.166C286.676 188.342 286.451 188.526 286.189 188.703C285.768 188.994 285.305 189.224 284.797 189.392C284.296 189.561 283.788 189.646 283.289 189.646C282.305 189.646 281.489 189.362 280.835 188.787C280.104 188.143 279.742 187.277 279.742 186.173C279.742 185.506 279.896 184.854 280.196 184.203C280.473 183.605 280.85 183.076 281.335 182.6C282.32 181.611 283.482 181.113 284.821 181.113C285.175 181.113 285.514 181.159 285.845 181.236C286.168 181.32 286.467 181.451 286.729 181.634C286.999 181.818 287.206 182.025 287.367 182.263C287.529 182.501 287.605 182.784 287.605 183.099C287.605 184.134 286.906 184.939 285.506 185.513C284.781 185.805 283.705 186.065 282.289 186.295ZM282.289 185.169C282.92 185.169 283.566 185.008 284.228 184.678C285.043 184.271 285.451 183.758 285.451 183.137C285.451 182.853 285.366 182.639 285.196 182.486C285.027 182.332 284.821 182.255 284.559 182.255C284.066 182.255 283.574 182.6 283.082 183.29C282.635 183.919 282.366 184.548 282.289 185.169Z" fill="black"/>
<path d="M292.484 188.212C292.939 188.212 293.368 188.081 293.784 187.813C294.199 187.514 294.607 187.223 295.022 186.924C295.3 186.924 295.438 187.077 295.438 187.392C295.438 187.614 295.308 187.874 295.038 188.181C294.885 188.357 294.662 188.564 294.376 188.802C293.577 189.362 292.722 189.638 291.806 189.638C290.906 189.638 290.16 189.339 289.559 188.741C288.905 188.097 288.582 187.261 288.582 186.226C288.582 184.846 289.053 183.643 289.982 182.623C290.914 181.604 291.991 181.098 293.23 181.098C293.577 181.098 293.924 181.151 294.263 181.259C294.607 181.366 294.909 181.527 295.176 181.742C295.385 181.903 295.546 182.079 295.671 182.286C295.793 182.493 295.854 182.715 295.854 182.96C295.854 183.267 295.753 183.52 295.554 183.712C295.353 183.911 295.115 184.011 294.853 184.011C294.384 184.011 294.077 183.735 293.937 183.183C293.799 182.631 293.553 182.355 293.199 182.355C292.907 182.355 292.621 182.485 292.362 182.746C292.161 182.938 291.96 183.206 291.761 183.566C291.56 183.919 291.399 184.356 291.285 184.862C291.168 185.375 291.107 185.843 291.107 186.264C291.107 186.817 291.221 187.276 291.454 187.652C291.676 188.028 292.023 188.212 292.484 188.212Z" fill="black"/>
<path d="M297.336 186.096L297.606 184.509C297.682 184.195 297.72 183.904 297.72 183.635C297.72 183.344 297.55 183.122 297.203 182.96C297.034 182.884 296.949 182.769 296.949 182.623C296.949 182.447 297.034 182.286 297.203 182.148C297.28 182.079 297.436 181.987 297.667 181.88C298.151 181.657 298.498 181.496 298.712 181.404C299.212 181.205 299.575 181.098 299.79 181.098C299.967 181.098 300.097 181.19 300.173 181.381C300.253 181.573 300.29 181.788 300.29 182.041C300.29 182.301 300.253 182.669 300.168 183.145C300.083 183.62 300.004 184.072 299.935 184.502L299.697 185.95C299.673 186.088 299.652 186.28 299.604 186.541C299.567 186.801 299.543 186.985 299.543 187.1C299.543 187.66 299.782 187.943 300.253 187.943C300.875 187.943 301.42 187.246 301.904 185.851C302.222 184.915 302.46 183.881 302.614 182.738C302.646 182.478 302.683 182.209 302.736 181.918C302.791 181.634 302.86 181.443 302.937 181.351C302.977 181.305 303.037 181.274 303.122 181.251C303.207 181.228 303.292 181.22 303.384 181.22H304.798C305.052 181.22 305.184 181.312 305.184 181.489C305.184 181.565 305.168 181.703 305.129 181.895C305.092 182.087 305.076 182.209 305.06 182.271L304.56 185.345C304.538 185.49 304.507 185.759 304.462 186.157C304.414 186.556 304.385 186.809 304.385 186.932C304.385 187.269 304.599 187.522 305.023 187.69C305.229 187.767 305.33 187.89 305.33 188.043C305.33 188.181 305.269 188.311 305.152 188.449C305.06 188.526 304.861 188.649 304.53 188.802C304.321 188.902 304.099 189.009 303.853 189.124L303.082 189.461C302.945 189.515 302.836 189.561 302.767 189.592C302.691 189.622 302.63 189.63 302.582 189.63C302.376 189.63 302.235 189.5 302.159 189.247C302.082 188.994 302.053 188.71 302.053 188.411L302.114 187.338L302.145 187.039C301.828 187.806 301.444 188.403 300.991 188.84C300.451 189.369 299.858 189.63 299.22 189.63C298.667 189.63 298.196 189.454 297.804 189.093C297.373 188.702 297.158 188.197 297.158 187.576C297.158 187.338 297.182 187.092 297.219 186.84C297.259 186.594 297.296 186.341 297.336 186.096Z" fill="black"/>
<path d="M307.924 189.385H306.561C306.444 189.385 306.367 189.377 306.338 189.369C306.206 189.316 306.145 189.193 306.145 189.017L306.915 183.881C306.915 183.658 306.891 183.49 306.852 183.382C306.815 183.275 306.714 183.183 306.561 183.099C306.391 182.983 306.291 182.915 306.269 182.899C306.169 182.807 306.121 182.692 306.121 182.562C306.121 182.37 306.253 182.186 306.508 182.018C306.685 181.918 306.799 181.849 306.86 181.811L308.662 181.098C308.885 181.098 309.046 181.228 309.131 181.489C309.192 181.657 309.216 181.903 309.216 182.217C309.216 182.508 309.192 182.815 309.139 183.129C309.083 183.443 309.054 183.674 309.038 183.804C309.292 183.037 309.591 182.432 309.938 181.994C310.401 181.397 310.931 181.098 311.516 181.098C312.109 181.098 312.4 181.473 312.4 182.217C312.4 182.615 312.323 182.976 312.162 183.321C311.963 183.742 311.709 183.949 311.394 183.949C311.14 183.949 310.899 183.765 310.685 183.405C310.576 183.221 310.462 183.137 310.33 183.137C309.938 183.137 309.546 183.904 309.147 185.437C308.969 186.134 308.768 187.123 308.554 188.411C308.506 188.656 308.461 188.902 308.421 189.139C308.368 189.3 308.199 189.385 307.924 189.385Z" fill="black"/>
<path d="M312.84 188.828L313.61 183.584C313.61 183.323 313.441 183.116 313.094 182.955C312.925 182.879 312.84 182.756 312.84 182.603C312.84 182.388 312.964 182.189 313.21 182.012C313.319 181.936 313.517 181.828 313.817 181.691C314.11 181.552 314.41 181.43 314.719 181.315C315.14 181.154 315.45 181.077 315.648 181.077C315.834 181.077 315.971 181.146 316.072 181.292C316.165 181.43 316.212 181.621 316.212 181.859L316.149 182.403L315.381 187.271C315.381 187.486 315.511 187.647 315.781 187.746C316.043 187.846 316.18 187.992 316.18 188.184C316.18 188.421 316.056 188.621 315.81 188.774C315.741 188.82 315.535 188.912 315.172 189.058C314.934 189.157 314.627 189.28 314.24 189.418C313.856 189.556 313.586 189.633 313.425 189.633C313.226 189.633 313.078 189.556 312.98 189.41C312.887 189.272 312.84 189.073 312.84 188.828ZM315.14 180.203C314.433 180.203 314.079 179.828 314.079 179.084C314.079 178.701 314.195 178.386 314.433 178.133C314.672 177.888 314.957 177.758 315.288 177.758C315.603 177.758 315.865 177.842 316.072 178.003C316.281 178.164 316.379 178.425 316.379 178.777C316.379 179.191 316.265 179.536 316.035 179.805C315.802 180.073 315.503 180.203 315.14 180.203Z" fill="black"/>
<path d="M321.091 181.227V181.297H321.859C322.153 181.297 322.359 181.35 322.468 181.442C322.576 181.542 322.629 181.68 322.629 181.856C322.629 182.101 322.568 182.278 322.452 182.4C322.29 182.569 322.028 182.646 321.652 182.646H321.329H320.858L320.236 186.54C320.204 186.732 320.183 186.893 320.167 187.015C320.151 187.138 320.144 187.207 320.144 187.215C320.144 187.529 320.273 187.69 320.527 187.69C320.689 187.69 320.89 187.621 321.152 187.483C321.406 187.345 321.576 187.276 321.652 187.276C321.782 187.276 321.875 187.33 321.936 187.437C321.999 187.544 322.028 187.682 322.028 187.851C322.028 188.112 321.859 188.342 321.528 188.541C321.507 188.549 321.245 188.664 320.721 188.878C320.204 189.093 319.781 189.246 319.458 189.346C318.868 189.538 318.444 189.629 318.19 189.629C318.005 189.629 317.851 189.538 317.735 189.354C317.621 189.17 317.565 188.97 317.565 188.756C317.565 188.51 317.629 188.05 317.743 187.383C317.79 187.115 317.843 186.839 317.888 186.555L318.566 182.638H318.389H318.15C317.952 182.638 317.79 182.6 317.666 182.523C317.536 182.446 317.473 182.293 317.473 182.071C317.473 181.78 317.573 181.573 317.766 181.45C317.896 181.373 318.121 181.312 318.444 181.266C318.767 181.22 319.005 181.105 319.159 180.921C319.312 180.737 319.458 180.438 319.598 180.024C319.675 179.763 319.76 179.503 319.852 179.234C320.035 178.751 320.358 178.514 320.813 178.514C321.014 178.514 321.16 178.537 321.261 178.583C321.359 178.629 321.406 178.744 321.406 178.92C321.406 179.035 321.39 179.188 321.359 179.388C321.329 179.587 321.306 179.771 321.282 179.94L321.091 181.227Z" fill="black"/>
<path d="M326.214 181.815L326.097 184.713C326.097 185.487 326.145 186.123 326.243 186.614C326.42 187.503 326.73 187.948 327.159 187.948C327.574 187.948 328.014 187.434 328.49 186.399C328.922 185.441 329.144 184.69 329.144 184.138C329.144 183.946 329.131 183.808 329.099 183.724C329.067 183.639 328.998 183.509 328.877 183.348C328.76 183.179 328.675 183.064 328.638 183.01C328.522 182.811 328.461 182.581 328.461 182.321C328.461 182.006 328.559 181.723 328.752 181.477C328.945 181.232 329.184 181.109 329.462 181.109C329.838 181.109 330.115 181.293 330.306 181.654C330.454 181.945 330.531 182.321 330.531 182.773C330.531 183.639 330.306 184.674 329.869 185.87C329.491 186.882 329.038 187.84 328.49 188.729C327.921 189.665 327.267 190.508 326.545 191.252C325.568 192.233 324.721 192.723 324.006 192.723C323.688 192.723 323.413 192.639 323.183 192.471C322.942 192.302 322.828 192.049 322.828 191.712C322.828 191.428 322.921 191.206 323.098 191.045C323.273 190.884 323.49 190.799 323.744 190.799C323.913 190.799 324.096 190.868 324.305 191.006C324.512 191.144 324.66 191.213 324.753 191.213C325.06 191.213 325.491 190.93 326.044 190.355C326.598 189.787 326.968 189.289 327.145 188.875C326.767 189.243 326.505 189.465 326.375 189.55C326.243 189.634 326.097 189.672 325.944 189.672C325.544 189.672 325.189 189.542 324.882 189.281C324.575 189.021 324.337 188.676 324.175 188.239C324.006 187.802 323.913 187.25 323.882 186.583C323.85 185.916 323.837 185.41 323.837 185.05V183.501C323.837 183.287 323.813 183.133 323.773 183.026C323.736 182.926 323.659 182.85 323.535 182.803C323.421 182.758 323.32 182.719 323.26 182.689C323.127 182.612 323.066 182.489 323.066 182.321C323.066 182.167 323.159 182.022 323.336 181.899C323.413 181.845 323.559 181.769 323.781 181.677C324.096 181.577 324.414 181.477 324.729 181.37C325.237 181.209 325.552 181.132 325.674 181.132C325.883 181.132 326.028 181.194 326.113 181.309C326.166 181.401 326.214 181.577 326.214 181.815Z" fill="black"/>
<path d="M341.032 184.576L340.648 187.696C340.648 187.918 340.764 188.133 341.003 188.34C341.201 188.455 341.294 188.608 341.294 188.815C341.294 189.007 341.225 189.153 341.087 189.244C340.95 189.337 340.793 189.39 340.619 189.39H337.747C337.532 189.39 337.371 189.367 337.262 189.321C337.077 189.244 336.984 189.107 336.984 188.915C336.984 188.792 337.016 188.693 337.069 188.608C337.093 188.585 337.162 188.516 337.278 188.409L337.726 188.033C337.81 187.934 337.887 187.773 337.948 187.558C337.977 187.466 338.033 187.159 338.109 186.646L339.263 178.689C339.263 178.543 339.248 178.443 339.216 178.382C339.187 178.328 339.07 178.213 338.88 178.044C338.771 177.945 338.702 177.876 338.671 177.838C338.61 177.761 338.578 177.669 338.578 177.569C338.578 177.347 338.663 177.193 338.824 177.109C338.986 177.033 339.179 176.994 339.409 176.994H343.666C344.272 176.994 344.78 177.009 345.188 177.048C345.587 177.079 345.974 177.17 346.326 177.301C346.813 177.493 347.205 177.807 347.52 178.244C347.827 178.681 347.98 179.179 347.98 179.746C347.98 180.628 347.705 181.433 347.157 182.169C346.673 182.805 346.043 183.319 345.264 183.71C344.642 184.016 343.973 184.239 343.258 184.377C342.525 184.507 341.786 184.576 341.032 184.576ZM341.709 179.532L341.18 183.395C342.048 183.395 342.842 183.135 343.573 182.613C343.996 182.322 344.356 181.939 344.658 181.471C344.957 181.004 345.111 180.513 345.111 180.007C345.111 179.34 344.926 178.849 344.558 178.543C344.187 178.228 343.695 178.075 343.073 178.075C342.856 178.075 342.649 178.114 342.44 178.19C342.241 178.267 342.088 178.397 341.979 178.581C341.934 178.65 341.879 178.773 341.834 178.957C341.778 179.133 341.741 179.325 341.709 179.532Z" fill="black"/>
<path d="M347.977 188.828L348.744 183.584C348.744 183.323 348.577 183.116 348.231 182.955C348.061 182.879 347.977 182.756 347.977 182.603C347.977 182.388 348.098 182.189 348.345 182.012C348.453 181.936 348.654 181.828 348.953 181.691C349.244 181.552 349.546 181.43 349.853 181.315C350.277 181.154 350.584 181.077 350.785 181.077C350.97 181.077 351.108 181.146 351.209 181.292C351.301 181.43 351.346 181.621 351.346 181.859L351.285 182.403L350.515 187.271C350.515 187.486 350.645 187.647 350.915 187.746C351.177 187.846 351.314 187.992 351.314 188.184C351.314 188.421 351.193 188.621 350.947 188.774C350.878 188.82 350.669 188.912 350.309 189.058C350.068 189.157 349.761 189.28 349.377 189.418C348.993 189.556 348.723 189.633 348.562 189.633C348.36 189.633 348.215 189.556 348.114 189.41C348.022 189.272 347.977 189.073 347.977 188.828ZM350.277 180.203C349.57 180.203 349.215 179.828 349.215 179.084C349.215 178.701 349.329 178.386 349.57 178.133C349.808 177.888 350.092 177.758 350.422 177.758C350.737 177.758 350.999 177.842 351.209 178.003C351.415 178.164 351.516 178.425 351.516 178.777C351.516 179.191 351.399 179.536 351.169 179.805C350.939 180.073 350.647 180.203 350.277 180.203Z" fill="black"/>
<path d="M355.981 189.642C354.957 189.642 354.088 189.335 353.363 188.729C352.564 188.055 352.164 187.143 352.164 185.993C352.164 185.341 352.286 184.713 352.54 184.107C352.794 183.501 353.141 182.957 353.58 182.489C354.504 181.569 355.618 181.109 356.918 181.109C357.974 181.109 358.858 181.424 359.565 182.052C360.367 182.758 360.767 183.708 360.767 184.889C360.767 185.533 360.635 186.146 360.373 186.744C360.113 187.342 359.758 187.855 359.319 188.285C358.874 188.714 358.358 189.051 357.757 189.289C357.156 189.527 356.566 189.642 355.981 189.642ZM356.066 188.423C356.796 188.423 357.358 187.917 357.765 186.905C358.088 186.1 358.25 185.218 358.25 184.276C358.25 183.724 358.149 183.279 357.943 182.926C357.696 182.52 357.342 182.321 356.897 182.321C356.164 182.321 355.595 182.811 355.179 183.785C354.848 184.574 354.679 185.433 354.679 186.361C354.679 186.959 354.779 187.426 354.973 187.779C355.211 188.208 355.573 188.423 356.066 188.423Z" fill="black"/>
<path d="M366.693 187.419L367.109 184.927C367.133 184.827 367.156 184.613 367.201 184.299C367.241 183.976 367.265 183.785 367.265 183.716C367.265 183.424 367.201 183.179 367.08 182.987C366.955 182.796 366.77 182.704 366.524 182.704C365.926 182.704 365.393 183.287 364.941 184.444C364.655 185.18 364.425 186.062 364.247 187.096L364.009 188.584C363.977 188.745 363.948 188.89 363.916 189.044C363.848 189.281 363.731 189.396 363.562 189.396H361.762C361.6 189.396 361.523 189.297 361.523 189.09L361.555 188.821L362.177 185.341C362.201 185.203 362.23 184.942 362.278 184.544C362.323 184.153 362.355 183.885 362.355 183.747C362.355 183.386 362.185 183.133 361.838 182.987C361.669 182.911 361.584 182.781 361.584 182.596C361.584 182.436 361.677 182.29 361.87 182.137C361.984 182.045 362.14 181.96 362.323 181.884C362.815 181.623 363.218 181.431 363.533 181.301C363.84 181.171 364.046 181.109 364.163 181.109C364.372 181.109 364.525 181.247 364.623 181.516C364.695 181.707 364.724 181.953 364.724 182.259C364.724 182.52 364.708 182.75 364.679 182.965C364.618 183.279 364.578 183.517 364.546 183.67C364.925 182.888 365.325 182.29 365.764 181.884C366.301 181.37 366.918 181.109 367.596 181.109C368.157 181.109 368.649 181.309 369.065 181.707C369.48 182.106 369.695 182.635 369.695 183.302L369.073 187.181C369.073 187.472 369.226 187.671 369.533 187.771C369.84 187.871 369.994 188.017 369.994 188.193C369.994 188.385 369.864 188.561 369.594 188.729C369.549 188.76 369.356 188.86 369.017 189.013C368.678 189.174 368.326 189.312 367.948 189.442C367.572 189.573 367.265 189.634 367.04 189.634C366.855 189.634 366.717 189.55 366.632 189.381C366.548 189.212 366.511 189.013 366.511 188.791C366.511 188.599 366.54 188.308 366.608 187.917C366.648 187.664 366.688 187.495 366.693 187.419Z" fill="black"/>
<path d="M373.086 186.295C373.086 186.916 373.242 187.392 373.557 187.737C373.864 188.082 374.303 188.25 374.864 188.25C375.312 188.25 375.764 188.12 376.241 187.852C376.341 187.798 376.588 187.629 376.995 187.353C377.149 187.231 377.265 187.154 377.318 187.116C377.464 187.024 377.588 186.985 377.673 186.985C377.781 186.985 377.879 187.024 377.956 187.108C378.041 187.192 378.081 187.3 378.081 187.422C378.081 187.637 377.935 187.882 377.649 188.166C377.472 188.342 377.249 188.526 376.987 188.703C376.564 188.994 376.103 189.224 375.595 189.392C375.095 189.561 374.586 189.646 374.086 189.646C373.101 189.646 372.286 189.362 371.632 188.787C370.902 188.143 370.539 187.277 370.539 186.173C370.539 185.506 370.693 184.854 370.994 184.203C371.27 183.605 371.648 183.076 372.133 182.6C373.117 181.611 374.279 181.113 375.619 181.113C375.973 181.113 376.31 181.159 376.641 181.236C376.963 181.32 377.265 181.451 377.527 181.634C377.795 181.818 378.004 182.025 378.165 182.263C378.327 182.501 378.403 182.784 378.403 183.099C378.403 184.134 377.705 184.939 376.302 185.513C375.579 185.805 374.51 186.065 373.086 186.295ZM373.086 185.169C373.718 185.169 374.364 185.008 375.026 184.678C375.841 184.271 376.249 183.758 376.249 183.137C376.249 182.853 376.164 182.639 375.995 182.486C375.825 182.332 375.619 182.255 375.357 182.255C374.864 182.255 374.372 182.6 373.88 183.29C373.432 183.919 373.17 184.548 373.086 185.169Z" fill="black"/>
<path d="M381.906 186.295C381.906 186.916 382.062 187.392 382.377 187.737C382.684 188.082 383.123 188.25 383.685 188.25C384.132 188.25 384.585 188.12 385.061 187.852C385.162 187.798 385.408 187.629 385.816 187.353C385.969 187.231 386.086 187.154 386.138 187.116C386.284 187.024 386.408 186.985 386.493 186.985C386.602 186.985 386.7 187.024 386.779 187.108C386.861 187.192 386.901 187.3 386.901 187.422C386.901 187.637 386.755 187.882 386.469 188.166C386.292 188.342 386.07 188.526 385.808 188.703C385.384 188.994 384.923 189.224 384.415 189.392C383.915 189.561 383.407 189.646 382.906 189.646C381.922 189.646 381.106 189.362 380.453 188.787C379.722 188.143 379.359 187.277 379.359 186.173C379.359 185.506 379.513 184.854 379.815 184.203C380.09 183.605 380.468 183.076 380.953 182.6C381.938 181.611 383.1 181.113 384.439 181.113C384.794 181.113 385.13 181.159 385.461 181.236C385.786 181.32 386.086 181.451 386.348 181.634C386.615 181.818 386.824 182.025 386.986 182.263C387.139 182.508 387.224 182.784 387.224 183.099C387.224 184.134 386.525 184.939 385.125 185.513C384.399 185.805 383.33 186.065 381.906 186.295ZM381.906 185.169C382.538 185.169 383.184 185.008 383.846 184.678C384.661 184.271 385.069 183.758 385.069 183.137C385.069 182.853 384.984 182.639 384.815 182.486C384.646 182.332 384.439 182.255 384.177 182.255C383.685 182.255 383.192 182.6 382.7 183.29C382.253 183.919 381.985 184.548 381.906 185.169Z" fill="black"/>
<path d="M390.445 189.385H389.084C388.967 189.385 388.891 189.377 388.859 189.369C388.729 189.316 388.668 189.193 388.668 189.017L389.436 183.881C389.436 183.658 389.415 183.49 389.375 183.382C389.338 183.275 389.237 183.183 389.084 183.099C388.915 182.983 388.814 182.915 388.79 182.899C388.69 182.807 388.645 182.692 388.645 182.562C388.645 182.37 388.774 182.186 389.028 182.018C389.206 181.918 389.322 181.849 389.383 181.811L391.183 181.098C391.408 181.098 391.57 181.228 391.654 181.489C391.715 181.657 391.739 181.903 391.739 182.217C391.739 182.508 391.715 182.815 391.662 183.129C391.607 183.443 391.577 183.674 391.562 183.804C391.816 183.037 392.115 182.432 392.462 181.994C392.922 181.397 393.454 181.098 394.039 181.098C394.624 181.098 394.923 181.473 394.923 182.217C394.923 182.615 394.847 182.976 394.685 183.321C394.484 183.742 394.23 183.949 393.915 183.949C393.661 183.949 393.422 183.765 393.208 183.405C393.1 183.221 392.986 183.137 392.853 183.137C392.462 183.137 392.07 183.904 391.667 185.437C391.493 186.134 391.292 187.123 391.077 188.411C391.03 188.656 390.985 188.902 390.945 189.139C390.892 189.3 390.722 189.385 390.445 189.385Z" fill="black"/>
</g>
<defs>
<linearGradient id="paint0_linear_7620_7536" x1="320.356" y1="130.99" x2="394.939" y2="130.99" gradientUnits="userSpaceOnUse">
<stop stop-color="white"/>
<stop offset="0.0102" stop-color="white"/>
<stop offset="0.3756" stop-color="#818283"/>
<stop offset="0.4765" stop-color="#848586"/>
<stop offset="0.5869" stop-color="#8E8E8F"/>
<stop offset="0.7018" stop-color="#A09FA0"/>
<stop offset="0.8199" stop-color="#BBB9BA"/>
<stop offset="0.9393" stop-color="#E1E0DF"/>
<stop offset="1" stop-color="white"/>
</linearGradient>
<linearGradient id="paint1_linear_7620_7536" x1="241.574" y1="130.991" x2="316.155" y2="130.991" gradientUnits="userSpaceOnUse">
<stop stop-color="white"/>
<stop offset="0.0102" stop-color="white"/>
<stop offset="0.3756" stop-color="#818283"/>
<stop offset="0.4765" stop-color="#848586"/>
<stop offset="0.5869" stop-color="#8E8E8F"/>
<stop offset="0.7018" stop-color="#A09FA0"/>
<stop offset="0.8199" stop-color="#BBB9BA"/>
<stop offset="0.9393" stop-color="#E1E0DF"/>
<stop offset="1" stop-color="white"/>
</linearGradient>
<linearGradient id="paint2_linear_7620_7536" x1="164.835" y1="130.959" x2="237.341" y2="130.959" gradientUnits="userSpaceOnUse">
<stop stop-color="white"/>
<stop offset="0.0102" stop-color="white"/>
<stop offset="0.3756" stop-color="#818283"/>
<stop offset="0.4765" stop-color="#848586"/>
<stop offset="0.5869" stop-color="#8E8E8F"/>
<stop offset="0.7018" stop-color="#A09FA0"/>
<stop offset="0.8199" stop-color="#BBB9BA"/>
<stop offset="0.9393" stop-color="#E1E0DF"/>
<stop offset="1" stop-color="white"/>
</linearGradient>
<clipPath id="clip0_7620_7536">
<rect width="375.882" height="135" fill="white" transform="translate(19.0586 58)"/>
</clipPath>
</defs>
</svg>
