<svg width="413" height="252" viewBox="0 0 413 252" fill="none" xmlns="http://www.w3.org/2000/svg">
<path d="M273.446 101.301C273.446 138.066 243.642 167.869 206.877 167.869C170.112 167.869 140.309 138.066 140.309 101.301C140.309 64.5356 170.112 34.7324 206.877 34.7324C243.642 34.7324 273.446 64.5356 273.446 101.301Z" fill="#E32823"/>
<path d="M179.1 121.346C179.1 121.346 194.291 122.364 193.852 117.686C193.423 113.008 185.793 101.128 157.875 92.2014C157.875 92.2014 181.335 88.9697 198.391 105.876C198.391 105.876 184.447 77.2499 201.932 61.3608C219.416 45.4817 241.091 46.5888 241.091 46.5888C241.091 46.5888 219.057 50.5287 215.108 64.1935C211.168 77.8683 218.928 95.9716 224.842 108.41C230.747 120.848 229.401 133.285 212.893 132.418C196.396 131.56 183.609 123.58 179.1 121.346Z" fill="#F8EB00"/>
<path d="M206.904 142.295L208.71 147.851H214.555L209.827 151.292L211.632 156.847L206.904 153.416L202.176 156.847L203.982 151.292L199.254 147.851H205.099L206.904 142.295Z" fill="#F8EB00"/>
<path d="M227.854 139.184L231.365 143.862L236.891 141.966L233.539 146.744L237.05 151.412L231.465 149.706L228.103 154.484L228.014 148.639L222.418 146.924L227.944 145.029L227.854 139.184Z" fill="#F8EB00"/>
<path d="M185.376 138.877L181.865 143.545L176.339 141.65L179.691 146.427L176.18 151.105L181.775 149.39L185.127 154.168L185.226 148.333L190.812 146.617L185.286 144.712L185.376 138.877Z" fill="#F8EB00"/>
<path d="M244.738 130.525L249.695 133.637L254.173 129.887L252.757 135.552L257.704 138.664L251.869 139.063L250.443 144.728L248.269 139.302L242.434 139.701L246.922 135.951L244.738 130.525Z" fill="#F8EB00"/>
<path d="M169.037 130.404L164.08 133.516L159.601 129.766L161.028 135.431L156.07 138.543L161.905 138.942L163.332 144.607L165.506 139.181L171.341 139.58L166.853 135.83L169.037 130.404Z" fill="#F8EB00"/>
<path d="M56.1953 167.781H76.7025C76.7025 167.781 75.3559 169.956 76.0642 172.439C76.7623 174.933 86.6668 206.571 86.6668 206.571L97.6585 173.477C97.6585 173.477 98.4066 169.228 97.6585 167.781H108.451C108.451 167.781 106.216 172.05 105.698 173.477C101.758 184.388 90.6067 217.134 90.6067 217.134H72.3537L56.1953 167.781Z" fill="#E32823"/>
<path d="M108.445 184.137H123.636C123.636 184.137 121.99 186.481 121.99 188.466V214.349C121.99 215.516 123.227 217.581 123.227 217.581H108.944C108.944 217.581 109.902 215.416 109.902 213.691V188.256C109.902 187.189 108.904 184.516 108.445 184.137Z" fill="#E32823"/>
<path d="M126.836 184.137C126.836 184.137 128.651 186.221 128.651 189.114V214.159C128.651 215.287 127.484 216.982 127.484 217.581H134.975C134.975 217.581 133.988 215.097 133.988 214.209V191.338L146.615 217.581H161.676V188.017C161.676 186.8 163.501 185.443 163.501 184.925V184.137H155.412C155.412 184.137 155.183 185.394 155.642 185.633C156.11 185.862 156.39 186.281 156.39 187.548V209.621L144.51 184.137H126.836Z" fill="#E32823"/>
<path d="M167.246 191.558C167.246 189.004 168.493 184.137 174.557 184.137H196.66C197.728 184.137 199.333 184.195 199.393 186.989C199.453 189.782 199.393 191.089 199.393 191.089C199.393 191.089 198.137 189.892 195.763 189.892C193.389 189.892 183.105 189.841 181.739 189.841C180.372 189.841 179.365 190.968 179.365 193.043V209.8C179.365 211.107 179.844 212.114 181.45 212.114H186.736C187.863 212.114 188.631 211.346 188.631 209.441V203.207H184.182C183.055 203.207 181.739 203.795 181.739 204.274V197.681H201.767C201.767 197.681 200.341 199.287 200.341 201.481V214.498C200.341 215.565 201.767 216.812 201.767 216.812V217.879H192.91C192.91 217.879 190.716 218.118 190.716 215.445C190.716 215.445 190.037 215.525 189.968 215.934C189.888 216.333 189.608 217.889 185.539 217.889H172.902C171.076 217.889 167.246 216.014 167.246 210.857V191.558Z" fill="#94192E"/>
<path d="M281.904 184.137H296.886C296.886 184.137 296.886 185.374 296.088 186.171C295.29 186.959 295.599 208.843 295.599 210.429C295.599 212.025 296.756 211.955 297.674 211.955H309.473C310.75 211.955 311.059 211.287 311.059 208.723V188.246C311.059 187.269 310.69 185.493 309.832 185.194L309.774 184.137H317.843C317.843 184.137 318.142 185.134 317.354 185.802C316.556 186.481 316.556 187.578 316.556 188.615V210C316.556 212.204 315.15 217.89 309.165 217.89H290.154C286.983 217.89 282.883 215.077 282.883 207.985V189.224C282.883 187.698 281.725 186.082 281.904 184.137Z" fill="#94192E"/>
<path d="M234.807 203.507C234.807 203.507 235.695 203.507 236.383 203.507C237.061 203.507 239.485 203.277 239.485 199.258V189.892C239.485 188.885 237.57 184.137 231.675 184.137H204.645V185.274C204.645 185.274 205.911 185.583 205.911 188.695V214.518C205.911 215.606 205.253 216.374 204.645 216.982V217.89H219.606C219.606 217.89 219.486 216.773 219.137 216.553C218.798 216.334 218.06 215.257 218.06 213.352V203.417H221.561C221.561 203.417 227.147 216.553 227.386 217.89H241.609L234.807 203.507ZM227.436 195.757C227.436 197.363 226.807 197.782 225.97 197.782H217.781V189.942C217.781 189.942 223.725 189.842 225.371 189.842C227.017 189.842 227.436 190.929 227.436 191.907V195.757Z" fill="#94192E"/>
<path d="M270.224 184.137H251.642C246.096 184.137 242.984 189.214 242.984 191.987V208.374C242.984 215.775 247.692 217.89 250.635 217.89H270.134C276.947 217.89 277.785 211.576 277.785 208.793V192.405C277.785 186.69 273.077 184.137 270.224 184.137ZM265.776 209.222C265.776 210.788 264.499 212.055 262.933 212.055H258.115C256.549 212.055 255.273 210.788 255.273 209.222V192.715C255.273 191.149 256.549 189.882 258.115 189.882H262.933C264.499 189.882 265.776 191.149 265.776 192.715V209.222Z" fill="#94192E"/>
<path d="M348.464 184.137H322.242C322.242 184.137 322.122 185.194 322.671 185.493C323.219 185.802 323.528 187.149 323.528 189.104V214.648C323.528 215.566 322.222 216.723 322.232 217.89H337.463C337.463 217.89 337.093 216.234 336.236 215.685C335.378 215.137 335.627 205.791 335.627 205.791H352.065C353.9 205.791 357.262 203.766 357.262 199.677V189.832C357.262 188.007 354.449 184.137 348.464 184.137ZM345.033 198.22C345.033 199.447 344.036 200.445 342.809 200.445H335.587V189.942H342.809C344.036 189.942 345.033 190.939 345.033 192.166V198.22Z" fill="#94192E"/>
</svg>
