<svg width="413" height="252" viewBox="0 0 413 252" fill="none" xmlns="http://www.w3.org/2000/svg">
<g clip-path="url(#clip0_7620_7772)">
<path d="M169.159 139.392V115.038H185.936C185.936 109.085 181.065 105.026 175.383 105.026H169.429C169.429 92.849 158.605 93.1196 158.605 93.1196V139.392C158.605 152.651 167.806 159.416 185.936 159.416V148.592C179.171 148.592 174.571 147.781 172.135 145.886C169.971 144.533 169.159 142.369 169.159 139.392Z" fill="black"/>
<path d="M218.674 115.044C211.909 115.044 207.309 115.856 204.874 117.75C202.98 119.103 202.168 121.268 202.168 124.245V159.152H191.344V124.245C191.344 110.985 200.544 104.762 218.674 104.762V115.044Z" fill="black"/>
<path d="M223.562 104.477C229.516 109.347 234.386 104.477 234.386 104.477V159.408H223.562V104.477Z" fill="black"/>
<path d="M292.277 131.546C292.277 149.677 283.618 159.148 266.57 159.148H251.687V177.278C251.687 187.56 240.863 187.019 240.863 187.019V131.546C240.863 113.146 249.252 103.945 266.3 103.945C283.889 103.945 292.277 113.146 292.277 131.546ZM281.453 131.546C281.453 125.864 280.641 121.805 278.747 119.369C276.312 116.122 272.253 114.769 266.57 114.769C260.888 114.769 256.829 116.393 254.664 119.369C252.77 121.805 251.958 125.864 251.958 131.546V148.594H266.841C272.523 148.594 276.582 146.971 279.018 143.994C280.641 141.559 281.453 136.958 281.453 131.546Z" fill="black"/>
<path d="M221.407 91.5004C219.784 93.9358 197.324 80.6764 188.124 74.182C186.771 73.3702 185.688 72.2878 185.147 71.2054C184.335 69.8524 184.065 68.2289 184.606 66.8759C184.606 66.6053 184.876 66.3347 185.147 66.0641C185.418 65.7935 185.688 65.5229 185.959 65.2523C187.312 64.1699 188.935 63.8993 190.288 64.1699C191.641 64.4405 192.724 64.9817 194.077 66.0641C203.007 72.5584 223.031 89.065 221.407 91.5004Z" fill="#FAB516"/>
<path d="M221.378 96.9005C220.566 100.418 188.365 94.4651 174.835 90.9474C172.94 90.4062 171.317 89.5944 169.964 88.7826C168.34 87.7002 167.258 85.806 167.258 83.9118C167.258 83.3706 167.258 83.1 167.528 82.5588V82.2882C167.528 82.0176 167.799 81.4764 168.07 81.2058C169.152 79.3116 170.776 78.4998 172.67 78.2292C174.293 77.9586 176.188 78.2292 178.082 78.7704C191.612 82.5588 222.46 93.3828 221.378 96.9005Z" fill="#FAB516"/>
<path d="M149.944 159.148H139.12V131.546C139.12 125.864 138.308 121.805 136.414 119.369C134.249 116.393 130.19 114.769 124.508 114.769C118.825 114.769 114.766 116.393 112.331 119.369C110.437 121.805 109.625 125.864 109.625 131.546V159.418H98.8008V131.546C98.8008 113.146 107.46 103.945 124.508 103.945C141.555 103.945 149.944 113.146 149.944 131.546V159.148Z" fill="#FAB516"/>
<path d="M97.9781 105.032C88.5072 105.032 84.4482 110.174 82.8246 113.962C81.201 118.021 70.9182 143.457 70.9182 143.457L55.7647 105.032H44.1289L65.7768 159.423H76.3302L91.7544 120.456C97.1663 106.385 106.637 104.762 106.637 104.762H97.9781V105.032Z" fill="#FAB516"/>
<path d="M292.844 154.815C292.844 157.521 295.009 159.415 297.444 159.415C300.15 159.415 302.044 157.25 302.044 154.815C302.044 152.38 299.879 150.215 297.444 150.215C295.009 150.215 292.844 152.38 292.844 154.815Z" fill="#FAB516"/>
<path d="M361.844 159.162H355.35V141.844C355.35 138.326 354.809 135.89 353.726 134.537C352.373 132.643 349.938 131.831 346.42 131.831C342.902 131.831 340.467 132.643 339.114 134.537C338.032 136.161 337.49 138.596 337.49 141.844V159.162H330.996V141.844C330.996 130.749 336.137 125.066 346.691 125.066C356.974 125.066 362.115 130.749 362.115 141.844V159.162H361.844Z" fill="#FAB516"/>
<path d="M330.2 125.584C324.517 125.584 321.811 128.561 320.999 130.996C320.187 133.431 313.693 149.126 313.693 149.126L304.493 125.584H297.457L310.716 159.409H316.94L326.411 135.055C329.658 126.396 335.341 125.584 335.341 125.584H330.2Z" fill="#FAB516"/>
<path d="M223.02 96.3653C223.02 99.6125 225.726 102.318 228.973 102.318C232.22 102.318 234.926 99.6125 234.926 96.3653C234.926 93.1181 232.22 90.4121 228.973 90.4121C225.726 90.4121 223.02 93.1181 223.02 96.3653Z" fill="#FAB516"/>
<path d="M224.367 83.6432C224.367 86.3491 226.532 88.2433 228.967 88.2433C231.673 88.2433 233.568 86.0785 233.568 83.6432C233.568 80.9372 231.403 79.043 228.967 79.043C226.532 79.043 224.367 80.9372 224.367 83.6432Z" fill="#FAB516"/>
<path d="M236.58 91.5004C238.204 93.9358 260.664 80.6764 269.864 74.182C271.217 73.3702 272.299 72.2878 272.841 71.2054C273.923 70.123 274.194 68.4995 273.652 66.8759C273.652 66.6053 273.382 66.3347 273.111 66.0641C272.841 65.7935 272.57 65.5229 272.299 65.2523C270.946 64.1699 269.323 63.8993 267.97 64.1699C266.617 64.4405 265.534 64.9817 264.181 66.0641C255.252 72.5584 234.957 89.065 236.58 91.5004Z" fill="#FAB516"/>
<path d="M236.555 96.9005C237.367 100.418 269.568 94.4651 283.098 90.9474C284.992 90.4062 286.616 89.5944 287.969 88.7826C289.592 87.7002 290.675 85.806 290.675 83.9118C290.675 83.3706 290.675 83.1 290.404 82.5588V82.2882C290.404 82.0176 290.134 81.4764 289.863 81.2058C288.781 79.3116 287.157 78.4998 285.263 78.2292C283.639 77.9586 281.745 78.2292 279.851 78.7704C266.321 82.5588 235.743 93.3828 236.555 96.9005Z" fill="#FAB516"/>
<path d="M364.82 131.809C364.009 131.809 363.197 131.538 362.656 130.997C362.114 130.456 361.844 129.644 361.844 128.832C361.844 128.02 362.114 127.208 362.656 126.667C363.197 126.126 364.009 125.855 364.82 125.855C365.632 125.855 366.444 126.126 366.985 126.667C367.526 127.208 367.797 128.02 367.797 128.832C367.797 129.644 367.526 130.456 366.985 130.997C366.444 131.538 365.903 131.809 364.82 131.809ZM362.114 128.561C362.114 129.373 362.385 129.914 362.926 130.456C363.467 130.997 364.009 131.267 364.82 131.267C365.632 131.267 366.173 130.997 366.715 130.456C367.256 129.914 367.526 129.373 367.526 128.561C367.526 127.75 367.256 127.208 366.715 126.667C366.173 126.126 365.632 125.855 364.82 125.855C364.009 125.855 363.467 126.126 362.926 126.667C362.385 127.208 362.114 128.02 362.114 128.561Z" fill="#FAB516"/>
<path d="M363.449 126.932H365.073C365.343 126.932 365.614 126.932 365.614 126.932C365.885 127.202 366.155 127.473 366.155 127.743C366.155 128.014 366.155 128.014 366.155 128.285L365.885 128.555C365.885 128.555 366.155 128.555 366.155 128.826C366.155 128.826 366.155 129.096 366.155 129.367V129.908V130.179C366.155 130.179 366.155 130.449 366.426 130.449H365.885V130.179V129.638C365.885 129.367 365.885 129.367 365.614 129.096H365.343H364.261V130.449H363.449V126.932ZM365.073 128.555C365.343 128.555 365.343 128.555 365.614 128.555C365.614 128.555 365.885 128.285 365.885 128.014C365.885 127.743 365.885 127.743 365.614 127.473H365.343H364.261V128.555H365.073Z" fill="#FAB516"/>
</g>
<defs>
<clipPath id="clip0_7620_7772">
<rect width="324.719" height="127.182" fill="white" transform="translate(44.1289 62)"/>
</clipPath>
</defs>
</svg>
