<svg width="80" height="80" viewBox="0 0 80 80" fill="none" xmlns="http://www.w3.org/2000/svg">
<path d="M73.7498 25H75.6248C78.3348 25 80.4898 22.5025 79.9023 19.6963C79.4748 17.6525 77.5698 16.25 75.481 16.25H69.9998C68.6185 16.25 67.4998 15.1313 67.4998 13.75C67.4998 12.3687 68.6185 11.25 69.9998 11.25H70.481C72.5685 11.25 74.4748 9.8475 74.9023 7.80375C75.4898 4.9975 73.3348 2.5 70.6248 2.5H42.5073H40.6248H8.12477C5.71852 2.5 3.74977 4.46875 3.74977 6.875C3.74977 9.28125 5.71852 11.25 8.12477 11.25H9.99977C11.381 11.25 12.4998 12.3687 12.4998 13.75C12.4998 15.1313 11.381 16.25 9.99977 16.25H5.76852C3.68102 16.25 1.77477 17.6525 1.34727 19.6963C0.759768 22.5025 2.91477 25 5.62477 25H22.4998V41.25H4.51852C2.43102 41.25 0.524768 42.6525 0.0972676 44.6963C-0.490232 47.5025 1.66477 50 4.37477 50H6.24977C7.63102 50 8.74977 51.1188 8.74977 52.5C8.74977 53.8812 7.63102 55 6.24977 55H5.62477C2.91477 55 0.759768 57.4975 1.34727 60.3037C1.77477 62.3475 3.68102 63.75 5.76852 63.75H9.99977C11.381 63.75 12.4998 64.8688 12.4998 66.25C12.4998 67.6312 11.381 68.75 9.99977 68.75H8.26852C6.18102 68.75 4.27477 70.1525 3.84727 72.1963C3.25977 75.0025 5.41477 77.5 8.12477 77.5H38.7423H40.6248H70.6248C73.031 77.5 74.9998 75.5312 74.9998 73.125C74.9998 70.7188 73.031 68.75 70.6248 68.75H69.9998C68.6185 68.75 67.4998 67.6312 67.4998 66.25C67.4998 64.8688 68.6185 63.75 69.9998 63.75H75.481C77.5685 63.75 79.4748 62.3475 79.9023 60.3037C80.4898 57.4975 78.3348 55 75.6248 55H58.7498V38.75H74.231C76.3185 38.75 78.2248 37.3475 78.6523 35.3037C79.2398 32.4975 77.0848 30 74.3748 30H73.7498C72.3685 30 71.2498 28.8813 71.2498 27.5C71.2498 26.1187 72.3685 25 73.7498 25Z" fill="#E9F6FF"/>
<path d="M68.8 34.0037L62.4463 32.2937C62.1225 31.3512 61.7388 30.4375 61.3037 29.5525L64.3325 24.1475C65.46 22.1888 65.1337 19.7163 63.535 18.1175L61.8825 16.465C60.2838 14.8663 57.8112 14.54 55.8525 15.6675L50.4475 18.6962C49.5625 18.2612 48.6488 17.8775 47.7063 17.5538L45.9963 11.2C45.4088 9.0175 43.4288 7.5 41.1688 7.5H38.8325C36.5713 7.5 34.5925 9.0175 34.005 11.2L32.295 17.5538C31.3512 17.8775 30.4387 18.2612 29.5537 18.6962L24.1488 15.6675C22.19 14.54 19.7175 14.8663 18.1187 16.465L16.4663 18.1175C14.8675 19.7163 14.54 22.1888 15.6687 24.1475L18.6975 29.5525C18.2625 30.4375 17.8787 31.3512 17.555 32.2937L11.2 34.0037C9.0175 34.5912 7.5 36.5713 7.5 38.8313V41.1675C7.5 43.4287 9.0175 45.4075 11.2 45.995L17.5538 47.705C17.8775 48.6488 18.2612 49.5612 18.6962 50.4462L15.6675 55.8512C14.54 57.81 14.8663 60.2825 16.465 61.8813L18.1175 63.5337C19.7163 65.1325 22.1888 65.46 24.1475 64.3312L29.5525 61.3025C30.4375 61.7375 31.3512 62.1213 32.2937 62.445L34.0037 68.7988C34.5912 70.9813 36.5713 72.4987 38.8313 72.4987H41.1675C43.4287 72.4987 45.4075 70.9813 45.995 68.7988L47.705 62.445C48.6488 62.1213 49.5612 61.7375 50.4462 61.3025L55.8512 64.3312C57.81 65.4588 60.2825 65.1325 61.8813 63.5337L63.5337 61.8813C65.1325 60.2825 65.4588 57.81 64.3312 55.8512L61.3025 50.4462C61.7375 49.5612 62.1213 48.6475 62.445 47.705L68.7988 45.995C70.9813 45.4075 72.4987 43.4275 72.4987 41.1675V38.8313C72.5 36.5713 70.9825 34.5912 68.8 34.0037Z" fill="url(#paint0_linear_7626_8603)"/>
<path d="M40 27.5C36.6848 27.5 33.5054 28.817 31.1612 31.1612C28.817 33.5054 27.5 36.6848 27.5 40C27.5 43.3152 28.817 46.4946 31.1612 48.8388C33.5054 51.183 36.6848 52.5 40 52.5C43.3152 52.5 46.4946 51.183 48.8388 48.8388C51.183 46.4946 52.5 43.3152 52.5 40C52.5 36.6848 51.183 33.5054 48.8388 31.1612C46.4946 28.817 43.3152 27.5 40 27.5Z" fill="url(#paint1_linear_7626_8603)"/>
<path d="M40 35C38.6739 35 37.4021 35.5268 36.4645 36.4645C35.5268 37.4021 35 38.6739 35 40C35 41.3261 35.5268 42.5979 36.4645 43.5355C37.4021 44.4732 38.6739 45 40 45C41.3261 45 42.5979 44.4732 43.5355 43.5355C44.4732 42.5979 45 41.3261 45 40C45 38.6739 44.4732 37.4021 43.5355 36.4645C42.5979 35.5268 41.3261 35 40 35Z" fill="white"/>
<path d="M34.0053 11.2L32.8616 15.4475C33.3816 14.4437 34.4178 13.75 35.6266 13.75H41.8766C43.6028 13.75 45.0016 12.3513 45.0016 10.625C45.0016 9.7975 44.6741 9.05 44.1491 8.49125C43.3078 7.86625 42.2741 7.5 41.1703 7.5H38.8341C36.5728 7.5 34.5928 9.0175 34.0053 11.2ZM36.8766 20H35.6266C33.9003 20 32.5016 18.6012 32.5016 16.875C32.5016 16.8263 32.5141 16.78 32.5166 16.7325L32.2953 17.5538C31.3516 17.8775 30.4391 18.2612 29.5541 18.6962L24.1491 15.6675C22.1903 14.54 19.7178 14.8663 18.1191 16.465L16.4666 18.1175C14.8678 19.7163 14.5403 22.1888 15.6691 24.1475L18.6978 29.5525C18.2628 30.4375 17.8791 31.3512 17.5553 32.2937L11.2016 34.0037C9.04531 34.5837 7.54531 36.5238 7.50781 38.75H23.1266C24.8528 38.75 26.2516 37.3512 26.2516 35.625C26.2516 33.8988 24.8528 32.5 23.1266 32.5H21.8766C20.1503 32.5 18.7516 31.1012 18.7516 29.375C18.7516 27.6488 20.1503 26.25 21.8766 26.25H28.1266H36.8766C38.6028 26.25 40.0016 24.8512 40.0016 23.125C40.0016 21.3988 38.6028 20 36.8766 20ZM46.2516 21.25C45.5885 21.25 44.9526 21.5134 44.4838 21.9822C44.0149 22.4511 43.7516 23.087 43.7516 23.75C43.7516 24.413 44.0149 25.0489 44.4838 25.5178C44.9526 25.9866 45.5885 26.25 46.2516 26.25C46.9146 26.25 47.5505 25.9866 48.0193 25.5178C48.4882 25.0489 48.7516 24.413 48.7516 23.75C48.7516 23.087 48.4882 22.4511 48.0193 21.9822C47.5505 21.5134 46.9146 21.25 46.2516 21.25Z" fill="url(#paint2_linear_7626_8603)"/>
<defs>
<linearGradient id="paint0_linear_7626_8603" x1="39.9994" y1="83.8586" x2="39.9994" y2="18.1923" gradientUnits="userSpaceOnUse">
<stop stop-color="#0D94F6"/>
<stop offset="1" stop-color="#69C0FF"/>
</linearGradient>
<linearGradient id="paint1_linear_7626_8603" x1="40" y1="48.6781" x2="40" y2="28.9031" gradientUnits="userSpaceOnUse">
<stop stop-color="#2875E3"/>
<stop offset="0.014" stop-color="#2876E3"/>
<stop offset="0.588" stop-color="#2E88E7"/>
<stop offset="1" stop-color="#308EE8"/>
</linearGradient>
<linearGradient id="paint2_linear_7626_8603" x1="28.1297" y1="52.902" x2="28.1297" y2="9.2539" gradientUnits="userSpaceOnUse">
<stop stop-color="#2876E3"/>
<stop offset="1" stop-color="#308EE8" stop-opacity="0.14"/>
</linearGradient>
</defs>
</svg>
