<svg width="80" height="80" viewBox="0 0 80 80" fill="none" xmlns="http://www.w3.org/2000/svg">
<path d="M72.4991 51.25H75.3766C77.7453 51.25 79.8691 49.4762 79.9928 47.11C80.1253 44.5875 78.1178 42.5 75.6241 42.5H71.3603C70.1541 42.5 69.0341 41.6938 68.8003 40.51C68.4903 38.9425 69.6466 37.565 71.1428 37.5025C73.0403 37.4225 74.7491 36.095 74.9728 34.2088C75.2416 31.9325 73.4703 30 71.2491 30H68.3716C66.0028 30 62.6291 28.2262 62.5053 25.86C62.3728 23.3375 64.3803 21.25 66.8741 21.25H69.9991C72.3678 21.25 74.4916 19.4762 74.6153 17.11C74.7478 14.5875 72.7416 12.5 70.2466 12.5H59.9991H52.4991H22.4991V17.5H13.3716C11.0028 17.5 8.87909 19.2738 8.75533 21.64C8.62284 24.1625 10.6303 26.25 13.1241 26.25H22.4991V32.5H8.12409C5.71783 32.5 3.74908 34.4688 3.74908 36.875C3.74908 39.2812 5.71783 41.25 8.12409 41.25H11.2491H11.8741C13.6003 41.25 14.9991 42.6488 14.9991 44.375C14.9991 46.1012 13.6003 47.5 11.8741 47.5H3.96159C1.93159 47.5 0.110335 49.02 0.00533508 51.0488C-0.108415 53.2113 1.61159 55 3.74908 55H9.86534C11.1103 55 12.2653 55.8513 12.4653 57.08C12.7191 58.6463 11.5178 60 9.99909 60H8.96159C6.93159 60 5.11034 61.52 5.00534 63.5488C4.89159 65.7113 6.61159 67.5 8.74909 67.5H22.4991H32.4991H59.9991V66.25H72.3141C74.2916 66.25 76.0678 64.7975 76.2353 62.8275C76.4241 60.6025 74.6703 58.74 72.4828 58.75C71.1978 58.755 69.9416 58.2075 69.3178 57.0837C67.7066 54.1875 69.7591 51.25 72.4991 51.25Z" fill="#E9F6FF"/>
<path fill-rule="evenodd" clip-rule="evenodd" d="M26.25 72.5H58.75C62.8925 72.5 66.25 69.1425 66.25 65V15C66.25 10.8575 62.8925 7.5 58.75 7.5H26.25C22.1075 7.5 18.75 10.8575 18.75 15V36.2503H32.5V27.6365C32.5 25.3365 35.095 24.1428 36.685 25.7128L49.21 38.0765C50.2637 39.1165 50.2637 40.884 49.21 41.924L36.685 54.2878C35.095 55.8578 32.5 54.6653 32.5 52.364V43.7503H18.75V65C18.75 69.1425 22.1075 72.5 26.25 72.5Z" fill="url(#paint0_linear_7626_8593)"/>
<path d="M51.25 56.875C51.25 58.6013 52.6488 60 54.375 60H56.875C58.6012 60 60 61.3987 60 63.125C60 64.8512 58.6012 66.25 56.875 66.25H43.125C41.3987 66.25 40 67.6488 40 69.375C40 71.1012 41.3987 72.5 43.125 72.5H58.75C62.8925 72.5 66.25 69.1425 66.25 65V53.75H54.375C52.6488 53.75 51.25 55.1487 51.25 56.875Z" fill="url(#paint1_linear_7626_8593)"/>
<path d="M45.625 53.75C44.7962 53.75 44.0013 54.0792 43.4153 54.6653C42.8292 55.2513 42.5 56.0462 42.5 56.875C42.5 57.7038 42.8292 58.4987 43.4153 59.0847C44.0013 59.6708 44.7962 60 45.625 60C46.4538 60 47.2487 59.6708 47.8347 59.0847C48.4208 58.4987 48.75 57.7038 48.75 56.875C48.75 56.0462 48.4208 55.2513 47.8347 54.6653C47.2487 54.0792 46.4538 53.75 45.625 53.75Z" fill="url(#paint2_linear_7626_8593)"/>
<path d="M29.375 26.25H18.75V15C18.75 10.8575 22.1075 7.5 26.25 7.5H34.375C36.1012 7.5 37.5 8.89875 37.5 10.625C37.5 12.3513 36.1012 13.75 34.375 13.75H28.125C26.3987 13.75 25 15.1487 25 16.875C25 18.6012 26.3987 20 28.125 20H29.375C31.1012 20 32.5 21.3988 32.5 23.125C32.5 24.8512 31.1012 26.25 29.375 26.25ZM38.75 21.25C37.3687 21.25 36.25 22.3687 36.25 23.75C36.25 25.1313 37.3687 26.25 38.75 26.25C40.1313 26.25 41.25 25.1313 41.25 23.75C41.25 22.3687 40.1313 21.25 38.75 21.25Z" fill="url(#paint3_linear_7626_8593)"/>
<defs>
<linearGradient id="paint0_linear_7626_8593" x1="42.5" y1="83.8601" x2="42.5" y2="18.1925" gradientUnits="userSpaceOnUse">
<stop stop-color="#0D94F6"/>
<stop offset="1" stop-color="#69C0FF"/>
</linearGradient>
<linearGradient id="paint1_linear_7626_8593" x1="53.125" y1="80.9912" x2="53.125" y2="54.8023" gradientUnits="userSpaceOnUse">
<stop stop-color="#2876E3"/>
<stop offset="1" stop-color="#308EE8" stop-opacity="0.14"/>
</linearGradient>
<linearGradient id="paint2_linear_7626_8593" x1="53.125" y1="80.9912" x2="53.125" y2="54.8023" gradientUnits="userSpaceOnUse">
<stop stop-color="#2876E3"/>
<stop offset="1" stop-color="#308EE8" stop-opacity="0.14"/>
</linearGradient>
<linearGradient id="paint3_linear_7626_8593" x1="30" y1="34.7412" x2="30" y2="8.55234" gradientUnits="userSpaceOnUse">
<stop stop-color="#2876E3"/>
<stop offset="1" stop-color="#308EE8" stop-opacity="0.14"/>
</linearGradient>
</defs>
</svg>
