<svg width="20" height="21" viewBox="0 0 20 21" fill="none" xmlns="http://www.w3.org/2000/svg">
<path d="M10.8796 0.962703C10.6724 0.944635 10.4637 0.969849 10.2668 1.03674C10.0699 1.10364 9.88903 1.21075 9.73572 1.35127C9.58241 1.4918 9.45999 1.66267 9.37625 1.85304C9.29251 2.04341 9.24927 2.24911 9.24928 2.45708V6.26989C9.24669 6.62368 9.37034 6.96681 9.59802 7.23762C9.8257 7.50843 10.1425 7.68918 10.4915 7.74739C11.0491 7.84094 11.5689 8.09015 11.991 8.46629C12.4131 8.84244 12.7203 9.3302 12.8772 9.87337C13.0341 10.4165 13.0344 10.993 12.8779 11.5363C12.7214 12.0796 12.4146 12.5676 11.9928 12.9441C11.571 13.3206 11.0514 13.5703 10.4939 13.6643C9.93642 13.7583 9.36369 13.6928 8.84176 13.4755C8.31983 13.2581 7.86994 12.8977 7.54395 12.4358C7.21797 11.9738 7.02915 11.4292 6.99928 10.8646C6.96084 10.094 7.11834 9.45833 7.46803 8.9652C7.67354 8.67852 7.77045 8.3281 7.74142 7.97656C7.7124 7.62501 7.55934 7.29524 7.30959 7.04614L4.72021 4.39583C4.57262 4.24823 4.39584 4.13305 4.20119 4.05768C4.00653 3.9823 3.79829 3.94838 3.58978 3.95809C3.38127 3.96779 3.17708 4.02091 2.99027 4.11405C2.80346 4.20718 2.63815 4.33828 2.5049 4.49895C0.942066 6.37206 0.141327 8.76469 0.261875 11.2012C0.382423 13.6377 1.41543 15.9396 3.15553 17.6493C4.97502 19.4544 7.43624 20.4642 9.99928 20.4571H10.139C12.6745 20.4139 15.094 19.3874 16.8871 17.5942C18.6801 15.801 19.7064 13.3813 19.7493 10.8458C19.8196 5.7552 15.9233 1.41458 10.8796 0.962703ZM3.65428 5.45145L6.24271 8.09426V8.09989C5.8585 8.65127 5.61721 9.28943 5.54053 9.95708H1.78303C1.93323 8.29965 2.58611 6.72764 3.65428 5.45145ZM1.78396 11.4571H5.56209C5.71762 12.3786 6.15621 13.2288 6.81695 13.8897C7.47769 14.5506 8.3278 14.9894 9.24928 15.1452V18.9233C7.32838 18.7478 5.5297 17.9048 4.16585 16.5408C2.802 15.1768 1.95921 13.378 1.78396 11.4571ZM15.8249 16.5327C14.4664 17.9007 12.6693 18.7461 10.7493 18.9205V15.1452C11.6184 15.0005 12.4252 14.6016 13.0677 13.9986C13.682 13.4264 14.1239 12.6937 14.3435 11.8834C14.5631 11.0731 14.5517 10.2175 14.3105 9.41334C14.0693 8.6092 13.608 7.88857 12.9786 7.33291C12.3493 6.77724 11.5771 6.4087 10.7493 6.26895V2.45708C15.0168 2.83958 18.3121 6.51458 18.2493 10.8243C18.2198 12.9711 17.3493 15.0208 15.8249 16.5327Z" fill="currentColor"/>
</svg>
