<svg width="80" height="80" viewBox="0 0 80 80" fill="none" xmlns="http://www.w3.org/2000/svg">
<path d="M6.25 11.25C7.63125 11.25 8.75 12.3687 8.75 13.75C8.75 15.1313 7.63125 16.25 6.25 16.25H4.375C1.96875 16.25 0 18.2188 0 20.625C0 23.0312 1.96875 25 4.375 25H17.5C19.2262 25 20.625 26.3988 20.625 28.125C20.625 29.8512 19.2262 31.25 17.5 31.25H7.5C5.4375 31.25 3.75 32.9375 3.75 35C3.75 37.0625 5.4375 38.75 7.5 38.75H27.5V46.25H5C2.08125 46.25 -0.275 48.785 0.02625 51.7625C0.2875 54.3575 2.62875 56.25 5.23625 56.25H6.25C7.63125 56.25 8.75 57.3688 8.75 58.75C8.75 60.1312 7.63125 61.25 6.25 61.25H5.80375C4.16875 61.25 2.68 62.4263 2.51625 64.0525C2.32875 65.9238 3.7925 67.5 5.625 67.5H24.375C25.41 67.5 26.25 68.34 26.25 69.375C26.25 70.41 25.41 71.25 24.375 71.25H19.5537C17.9187 71.25 16.43 72.4263 16.2662 74.0525C16.0787 75.9238 17.5425 77.5 19.375 77.5H60.4462C62.0812 77.5 63.57 76.3237 63.7337 74.6975C63.9212 72.8262 62.4575 71.25 60.625 71.25H56.25C54.8688 71.25 53.75 70.1312 53.75 68.75C53.75 67.3688 54.8688 66.25 56.25 66.25H72.2637C74.8713 66.25 77.2113 64.3575 77.4737 61.7625C77.775 58.785 75.4187 56.25 72.5 56.25H69.375C66.9587 56.25 65 54.2912 65 51.875C65 49.4588 66.9587 47.5 69.375 47.5H73.5137C76.1213 47.5 78.4613 45.6075 78.7237 43.0125C79.025 40.035 76.6687 37.5 73.75 37.5H52.5V23.75H72.5C74.5625 23.75 76.25 22.0625 76.25 20C76.25 17.9375 74.5625 16.25 72.5 16.25C71.1188 16.25 70 15.1313 70 13.75C70 12.3687 71.1188 11.25 72.5 11.25H74.7637C77.3713 11.25 79.7113 9.3575 79.9737 6.7625C80.275 3.785 77.9187 1.25 75 1.25H6.48625C3.87875 1.25 1.53875 3.1425 1.27625 5.7375C0.975 8.715 3.33125 11.25 6.25 11.25Z" fill="#E9F6FF"/>
<path d="M62.5 11.25H17.5C14.7387 11.25 12.5 13.4887 12.5 16.25V57.5C12.5 60.2612 14.7387 62.5 17.5 62.5H32.5L38.025 70.235C38.48 70.8713 39.215 71.25 39.9975 71.25H40.0012C40.785 71.25 41.5188 70.8713 41.975 70.235L47.5 62.5H62.5C65.2612 62.5 67.5 60.2612 67.5 57.5V16.25C67.5 13.4887 65.2612 11.25 62.5 11.25Z" fill="url(#paint0_linear_7626_8568)"/>
<path d="M12.5 16.25V21.25H67.5V16.25C67.5 13.4887 65.2612 11.25 62.5 11.25H17.5C14.7387 11.25 12.5 13.4887 12.5 16.25Z" fill="url(#paint1_linear_7626_8568)"/>
<path d="M53.75 52.5H36.25C34.8687 52.5 33.75 51.3813 33.75 50C33.75 48.6187 34.8687 47.5 36.25 47.5H53.75C55.1313 47.5 56.25 48.6187 56.25 50C56.25 51.3813 55.1313 52.5 53.75 52.5ZM56.25 41.25C56.25 39.8687 55.1313 38.75 53.75 38.75H36.25C34.8687 38.75 33.75 39.8687 33.75 41.25C33.75 42.6313 34.8687 43.75 36.25 43.75H53.75C55.1313 43.75 56.25 42.6313 56.25 41.25ZM56.25 32.5C56.25 31.1187 55.1313 30 53.75 30H36.25C34.8687 30 33.75 31.1187 33.75 32.5C33.75 33.8812 34.8687 35 36.25 35H53.75C55.1313 35 56.25 33.8812 56.25 32.5ZM30 50C30 48.6187 28.8812 47.5 27.5 47.5H26.25C24.8687 47.5 23.75 48.6187 23.75 50C23.75 51.3813 24.8687 52.5 26.25 52.5H27.5C28.8812 52.5 30 51.3813 30 50ZM30 41.25C30 39.8687 28.8812 38.75 27.5 38.75H26.25C24.8687 38.75 23.75 39.8687 23.75 41.25C23.75 42.6313 24.8687 43.75 26.25 43.75H27.5C28.8812 43.75 30 42.6313 30 41.25ZM30 32.5C30 31.1187 28.8812 30 27.5 30H26.25C24.8687 30 23.75 31.1187 23.75 32.5C23.75 33.8812 24.8687 35 26.25 35H27.5C28.8812 35 30 33.8812 30 32.5Z" fill="white"/>
<defs>
<linearGradient id="paint0_linear_7626_8568" x1="40" y1="81.7362" x2="40" y2="21.12" gradientUnits="userSpaceOnUse">
<stop stop-color="#0D94F6"/>
<stop offset="1" stop-color="#69C0FF"/>
</linearGradient>
<linearGradient id="paint1_linear_7626_8568" x1="40" y1="19.7212" x2="40" y2="11.8112" gradientUnits="userSpaceOnUse">
<stop stop-color="#2875E3"/>
<stop offset="0.014" stop-color="#2876E3"/>
<stop offset="0.588" stop-color="#2E88E7"/>
<stop offset="1" stop-color="#308EE8"/>
</linearGradient>
</defs>
</svg>
