<svg width="80" height="80" viewBox="0 0 80 80" fill="none" xmlns="http://www.w3.org/2000/svg">
<g clip-path="url(#clip0_7626_8576)">
<path d="M3.75 80C5.82107 80 7.5 78.3211 7.5 76.25C7.5 74.1789 5.82107 72.5 3.75 72.5C1.67893 72.5 0 74.1789 0 76.25C0 78.3211 1.67893 80 3.75 80Z" fill="#E9F6FF"/>
<path d="M61.875 67.5H75C77.9275 67.5 80.2775 64.9713 79.9737 61.9938C79.7087 59.395 77.365 57.5 74.7525 57.5H66.475C66.3375 57.1125 66.25 56.6875 66.25 56.25V25.625C66.25 25.4125 66.275 25.2 66.3125 25C66.6 23.575 67.8625 22.5 69.375 22.5H69.7875C71.65 22.5 73.375 21.25 73.7 19.425C74.1125 17.05 72.2875 15 70 15H58.125C57.2625 15 56.475 14.65 55.9125 14.0875C55.3913 13.5663 55.0525 12.8525 55.0063 12.0638C54.8975 10.245 56.5025 8.75 58.325 8.75H62.875C65.375 8.75 67.5875 6.7125 67.5 4.2125C67.45 3.075 66.975 2.0375 66.2125 1.2875C65.425 0.4875 64.325 0 63.125 0H14.555C12.9175 0 11.4262 1.17875 11.2638 2.8075C11.0775 4.6775 12.5437 6.25 14.375 6.25H16.7C18.3787 6.25 19.9075 7.49125 20.0012 9.16625C20.055 10.1175 19.6938 10.9813 19.0875 11.5875C18.525 12.15 17.7375 12.5 16.875 12.5H7.7125C5.85 12.5 4.125 13.75 3.8 15.575C3.3875 17.95 5.2125 20 7.5 20H11.25C13.3212 20 15 21.6788 15 23.75V56.6375C15 56.9375 14.95 57.225 14.875 57.5H6.875C5.675 57.5 4.575 57.9875 3.7875 58.7875C2.9875 59.575 2.5 60.675 2.5 61.875C2.5 63.7125 3.65 65.3 5.2625 65.925L5.275 65.9375C5.775 66.1375 6.3125 66.25 6.875 66.25H19.375C21.1012 66.25 22.5 67.6488 22.5 69.375C22.5 71.1012 21.1012 72.5 19.375 72.5H13.75C11.675 72.5 10 74.175 10 76.25C10 76.3375 10 76.4375 10.0125 76.525C10.075 77.45 10.4875 78.2875 11.1 78.9C11.775 79.575 12.7125 80 13.75 80H71.875C73.8688 80 75.435 78.125 74.895 76.0675C74.525 74.6588 73.1437 73.75 71.6875 73.75H62.875C60.3875 73.75 58.8625 72.525 58.75 70.8625C58.6875 69.9 59.05 69.025 59.6625 68.4125C60.225 67.85 61.0125 67.5 61.875 67.5Z" fill="#E9F6FF"/>
<path d="M75.625 8.75C78.0412 8.75 80 6.79125 80 4.375C80 1.95875 78.0412 0 75.625 0C73.2088 0 71.25 1.95875 71.25 4.375C71.25 6.79125 73.2088 8.75 75.625 8.75Z" fill="#E9F6FF"/>
<path d="M40 63.75H38.75C33.2275 63.75 28.75 68.2275 28.75 73.75C28.75 75.1313 29.8687 76.25 31.25 76.25H47.5C48.8813 76.25 50 75.1313 50 73.75C50 68.2275 45.5225 63.75 40 63.75Z" fill="url(#paint0_linear_7626_8576)"/>
<path d="M31.25 53.6025C31.25 49.1163 34.8875 45 39.375 45C43.8625 45 47.5 49.1163 47.5 53.6025C47.5 58.09 43.8625 61.25 39.375 61.25C34.8875 61.25 31.25 58.09 31.25 53.6025Z" fill="url(#paint1_linear_7626_8576)"/>
<path d="M46.5812 43.235C42.1575 43.235 41.7037 41.25 37.735 41.25C34.4175 41.25 32.2062 43.0275 32.2062 45.22C32.2062 45.7212 32.3812 46.1987 32.6887 46.6412C31.8025 47.5425 31.25 48.795 31.25 50.1837V53.1612C32.4 53.1612 33.4288 52.42 33.8325 51.3025L34.9088 48.32C36.1388 48.8637 37.695 49.19 39.3925 49.19C41.1587 49.19 42.635 48.8275 43.8263 48.285L44.915 51.3013C45.3187 52.4188 46.3475 53.16 47.4975 53.16V50.1825C47.4975 48.8325 46.975 47.6137 46.1338 46.7188C47.7825 45.0825 47.9425 43.235 46.5812 43.235Z" fill="url(#paint2_linear_7626_8576)"/>
<path d="M40 26.25H38.75C33.2275 26.25 28.75 30.7275 28.75 36.25C28.75 37.6313 29.8687 38.75 31.25 38.75H47.5C48.8813 38.75 50 37.6313 50 36.25C50 30.7275 45.5225 26.25 40 26.25Z" fill="url(#paint3_linear_7626_8576)"/>
<path d="M31.25 16.1025C31.25 11.6163 34.8875 7.5 39.375 7.5C43.8625 7.5 47.5 11.6163 47.5 16.1025C47.5 20.5887 43.8625 23.75 39.375 23.75C34.8875 23.75 31.25 20.59 31.25 16.1025Z" fill="url(#paint4_linear_7626_8576)"/>
<path d="M46.5812 5.735C42.1587 5.735 41.705 3.75 37.735 3.75C34.4175 3.75 32.2062 5.5275 32.2062 7.72C32.2062 8.22125 32.3812 8.69875 32.6887 9.14125C31.8025 10.0425 31.25 11.295 31.25 12.6838V15.6613C32.4 15.6613 33.4288 14.92 33.8325 13.8025L34.9088 10.82C36.1388 11.3637 37.695 11.69 39.3925 11.69C41.1587 11.69 42.635 11.3275 43.8263 10.785L44.915 13.8013C45.3187 14.9188 46.3475 15.66 47.4975 15.66V12.6825C47.4975 11.3325 46.975 10.1137 46.1338 9.21875C47.7825 7.5825 47.9425 5.735 46.5812 5.735Z" fill="url(#paint5_linear_7626_8576)"/>
<path d="M15 45H13.75C8.2275 45 3.75 49.4775 3.75 55C3.75 56.3813 4.86875 57.5 6.25 57.5H22.5C23.8813 57.5 25 56.3813 25 55C25 49.4775 20.5225 45 15 45Z" fill="url(#paint6_linear_7626_8576)"/>
<path d="M6.25 34.8525C6.25 30.3663 9.8875 26.25 14.375 26.25C18.8625 26.25 22.5 30.3663 22.5 34.8525C22.5 39.3387 18.8625 42.5 14.375 42.5C9.8875 42.5 6.25 39.34 6.25 34.8525Z" fill="url(#paint7_linear_7626_8576)"/>
<path d="M21.5812 24.485C17.1575 24.485 16.7037 22.5 12.735 22.5C9.4175 22.5 7.20625 24.2775 7.20625 26.47C7.20625 26.9713 7.38125 27.4487 7.68875 27.8912C6.8025 28.7925 6.25 30.045 6.25 31.4337V34.4112C7.4 34.4112 8.42875 33.67 8.8325 32.5525L9.90875 29.57C11.1388 30.1137 12.695 30.44 14.3925 30.44C16.1587 30.44 17.635 30.0775 18.8263 29.535L19.915 32.5513C20.3188 33.6688 21.3475 34.41 22.4975 34.41V31.4325C22.4975 30.0825 21.975 28.8637 21.1337 27.9688C22.7825 26.3325 22.9425 24.485 21.5812 24.485Z" fill="url(#paint8_linear_7626_8576)"/>
<path d="M66.25 45H65C59.4775 45 55 49.4775 55 55C55 56.3813 56.1187 57.5 57.5 57.5H73.75C75.1313 57.5 76.25 56.3813 76.25 55C76.25 49.4775 71.7725 45 66.25 45Z" fill="url(#paint9_linear_7626_8576)"/>
<path d="M57.5 34.8525C57.5 30.3663 61.1375 26.25 65.625 26.25C70.1125 26.25 73.75 30.3663 73.75 34.8525C73.75 39.3387 70.1125 42.5 65.625 42.5C61.1375 42.5 57.5 39.34 57.5 34.8525Z" fill="url(#paint10_linear_7626_8576)"/>
<path d="M72.8312 24.485C68.4075 24.485 67.9537 22.5 63.985 22.5C60.6675 22.5 58.4562 24.2775 58.4562 26.47C58.4562 26.9713 58.6313 27.4487 58.9388 27.8912C58.0525 28.7925 57.5 30.045 57.5 31.4337V34.4112C58.65 34.4112 59.6788 33.67 60.0825 32.5525L61.1587 29.57C62.3887 30.1137 63.945 30.44 65.6425 30.44C67.4087 30.44 68.885 30.0775 70.0763 29.535L71.165 32.5513C71.5687 33.6688 72.5975 34.41 73.7475 34.41V31.4325C73.7475 30.0825 73.225 28.8637 72.3838 27.9688C74.0325 26.3325 74.1925 24.485 72.8312 24.485Z" fill="url(#paint11_linear_7626_8576)"/>
</g>
<defs>
<linearGradient id="paint0_linear_7626_8576" x1="39.375" y1="78.4346" x2="39.375" y2="65.8062" gradientUnits="userSpaceOnUse">
<stop stop-color="#0D94F6"/>
<stop offset="1" stop-color="#69C0FF"/>
</linearGradient>
<linearGradient id="paint1_linear_7626_8576" x1="39.375" y1="67.4325" x2="39.375" y2="48.64" gradientUnits="userSpaceOnUse">
<stop stop-color="#FFC662"/>
<stop offset="0.004" stop-color="#FFC662"/>
<stop offset="0.609" stop-color="#FFC582"/>
<stop offset="1" stop-color="#FFC491"/>
</linearGradient>
<linearGradient id="paint2_linear_7626_8576" x1="39.3738" y1="41.25" x2="39.3738" y2="59.3137" gradientUnits="userSpaceOnUse">
<stop stop-color="#FF8B67"/>
<stop offset="0.847" stop-color="#FFA76A"/>
<stop offset="1" stop-color="#FFAD6B"/>
</linearGradient>
<linearGradient id="paint3_linear_7626_8576" x1="39.375" y1="49.0162" x2="39.375" y2="23.1837" gradientUnits="userSpaceOnUse">
<stop stop-color="#FF634D"/>
<stop offset="0.204" stop-color="#FE6464"/>
<stop offset="0.521" stop-color="#FC6581"/>
<stop offset="0.794" stop-color="#FA6694"/>
<stop offset="0.989" stop-color="#FA669A"/>
<stop offset="1" stop-color="#FA669A"/>
</linearGradient>
<linearGradient id="paint4_linear_7626_8576" x1="39.375" y1="29.9325" x2="39.375" y2="11.14" gradientUnits="userSpaceOnUse">
<stop stop-color="#FFC662"/>
<stop offset="0.004" stop-color="#FFC662"/>
<stop offset="0.609" stop-color="#FFC582"/>
<stop offset="1" stop-color="#FFC491"/>
</linearGradient>
<linearGradient id="paint5_linear_7626_8576" x1="39.3738" y1="6.14375" x2="39.3738" y2="22.2988" gradientUnits="userSpaceOnUse">
<stop stop-color="#A4A4A4"/>
<stop offset="0.619" stop-color="#808080"/>
<stop offset="1" stop-color="#6F6F6F"/>
</linearGradient>
<linearGradient id="paint6_linear_7626_8576" x1="14.375" y1="57.5913" x2="14.375" y2="45.4812" gradientUnits="userSpaceOnUse">
<stop stop-color="#FEAA53"/>
<stop offset="0.612" stop-color="#FFCD49"/>
<stop offset="1" stop-color="#FFDE44"/>
</linearGradient>
<linearGradient id="paint7_linear_7626_8576" x1="14.375" y1="48.6825" x2="14.375" y2="29.89" gradientUnits="userSpaceOnUse">
<stop stop-color="#FFC662"/>
<stop offset="0.004" stop-color="#FFC662"/>
<stop offset="0.609" stop-color="#FFC582"/>
<stop offset="1" stop-color="#FFC491"/>
</linearGradient>
<linearGradient id="paint8_linear_7626_8576" x1="14.3737" y1="22.8375" x2="14.3737" y2="33.755" gradientUnits="userSpaceOnUse">
<stop offset="0.122" stop-color="#5E6D7B"/>
<stop offset="0.191" stop-color="#5D6B79"/>
<stop offset="1" stop-color="#515C69"/>
</linearGradient>
<linearGradient id="paint9_linear_7626_8576" x1="65.625" y1="44.7075" x2="65.625" y2="57.3463" gradientUnits="userSpaceOnUse">
<stop stop-color="#42D778"/>
<stop offset="0.996" stop-color="#34B171"/>
<stop offset="1" stop-color="#34B171"/>
</linearGradient>
<linearGradient id="paint10_linear_7626_8576" x1="65.625" y1="48.6825" x2="65.625" y2="29.89" gradientUnits="userSpaceOnUse">
<stop stop-color="#FFC662"/>
<stop offset="0.004" stop-color="#FFC662"/>
<stop offset="0.609" stop-color="#FFC582"/>
<stop offset="1" stop-color="#FFC491"/>
</linearGradient>
<linearGradient id="paint11_linear_7626_8576" x1="65.6025" y1="33.8675" x2="65.855" y2="22.3838" gradientUnits="userSpaceOnUse">
<stop stop-color="#E3714D"/>
<stop offset="0.25" stop-color="#E4754E"/>
<stop offset="1" stop-color="#E77B50"/>
</linearGradient>
<clipPath id="clip0_7626_8576">
<rect width="80" height="80" fill="white"/>
</clipPath>
</defs>
</svg>
