<svg width="80" height="80" viewBox="0 0 80 80" fill="none" xmlns="http://www.w3.org/2000/svg">
<g clip-path="url(#clip0_7752_3756)">
<path d="M77.5 25.625C77.5 22.5187 74.9812 20 71.875 20H55C52.2388 20 50 17.7612 50 15C50 12.2387 52.2388 10 55 10H57.5C60.2612 10 62.5 7.76125 62.5 5C62.5 2.23875 60.2612 0 57.5 0H27.5C24.7388 0 22.5 2.23875 22.5 5C22.5 7.76125 24.7388 10 27.5 10H30C32.0712 10 33.75 11.6788 33.75 13.75C33.75 15.8212 32.0712 17.5 30 17.5H13.125C10.7088 17.5 8.75 19.4587 8.75 21.875C8.75 24.2913 10.7088 26.25 13.125 26.25H16.25C18.3212 26.25 20 27.9288 20 30C20 32.0713 18.3212 33.75 16.25 33.75H10C6.54875 33.75 3.75 36.5488 3.75 40C3.75 43.4512 6.54875 46.25 10 46.25H16.875C19.2913 46.25 21.25 48.2088 21.25 50.625C21.25 53.0412 19.2913 55 16.875 55H11.25C8.48875 55 6.25 57.2388 6.25 60C6.25 62.7612 8.48875 65 11.25 65H21.875C23.6012 65 25 66.3988 25 68.125C25 69.8512 23.6012 71.25 21.875 71.25C19.4587 71.25 17.5 73.2087 17.5 75.625C17.5 78.0413 19.4587 80 21.875 80H59.375C61.7912 80 63.75 78.0413 63.75 75.625C63.75 73.2087 61.7912 71.25 59.375 71.25H58.75C57.3688 71.25 56.25 70.1312 56.25 68.75C56.25 67.3688 57.3688 66.25 58.75 66.25H67.5C70.2613 66.25 72.5 64.0113 72.5 61.25C72.5 58.4888 70.2613 56.25 67.5 56.25H59.375C57.6488 56.25 56.25 54.8512 56.25 53.125C56.25 51.3988 57.6488 50 59.375 50H60C62.7612 50 65 47.7612 65 45C65 42.2388 62.7612 40 60 40H58.125C55.7088 40 53.75 38.0412 53.75 35.625C53.75 33.2088 55.7088 31.25 58.125 31.25H71.875C74.9812 31.25 77.5 28.7313 77.5 25.625Z" fill="url(#paint0_radial_7752_3756)"/>
<path d="M17.5 5C17.5 7.76125 15.2612 10 12.5 10C9.73875 10 7.5 7.76125 7.5 5C7.5 2.23875 9.73875 0 12.5 0C15.2612 0 17.5 2.23875 17.5 5Z" fill="url(#paint1_radial_7752_3756)"/>
<path d="M13.75 75.625C13.75 78.0413 11.7913 80 9.375 80C6.95875 80 5 78.0413 5 75.625C5 73.2087 6.95875 71.25 9.375 71.25C11.7913 71.25 13.75 73.2087 13.75 75.625Z" fill="url(#paint2_radial_7752_3756)"/>
<path d="M68.75 45C68.75 47.7612 70.9887 50 73.75 50C76.5113 50 78.75 47.7612 78.75 45C78.75 42.2388 76.5113 40 73.75 40C70.9887 40 68.75 42.2388 68.75 45Z" fill="url(#paint3_radial_7752_3756)"/>
<path d="M40 7.5C31.025 7.5 23.75 14.775 23.75 23.75V36.25H30V23.75C30 18.2362 34.4862 13.75 40 13.75C45.5138 13.75 50 18.2362 50 23.75V36.25H56.25V23.75C56.25 14.775 48.975 7.5 40 7.5Z" fill="url(#paint4_linear_7752_3756)"/>
<path d="M61.25 71.25H18.75C16.6788 71.25 15 69.5713 15 67.5V43.75C15 36.8463 20.5963 31.25 27.5 31.25H52.5C59.4038 31.25 65 36.8463 65 43.75V67.5C65 69.5713 63.3213 71.25 61.25 71.25Z" fill="url(#paint5_linear_7752_3756)"/>
<path d="M51.25 53.75C51.25 55.8212 52.9288 57.5 55 57.5H55.625C57.3512 57.5 58.75 58.8988 58.75 60.625C58.75 62.3512 57.3512 63.75 55.625 63.75H50C47.9288 63.75 46.25 65.4288 46.25 67.5C46.25 69.5712 47.9288 71.25 50 71.25H61.25C63.3212 71.25 65 69.5712 65 67.5V50H55C52.9288 50 51.25 51.6788 51.25 53.75Z" fill="url(#paint6_linear_7752_3756)"/>
<path d="M28.75 46.875C28.75 45.1488 27.3512 43.75 25.625 43.75H24.375C22.6487 43.75 21.25 42.3512 21.25 40.625C21.25 38.8987 22.6487 37.5 24.375 37.5H30.625C32.3512 37.5 33.75 36.1013 33.75 34.375C33.75 32.6487 32.3512 31.25 30.625 31.25H27.5C20.5963 31.25 15 36.8463 15 43.75V50H25.625C27.3512 50 28.75 48.6012 28.75 46.875Z" fill="url(#paint7_linear_7752_3756)"/>
<path d="M40 47.5C39.0054 47.5 38.0516 47.8951 37.3483 48.5984C36.6451 49.3016 36.25 50.2554 36.25 51.25C36.25 52.2446 36.6451 53.1984 37.3483 53.9016C38.0516 54.6049 39.0054 55 40 55C40.9946 55 41.9484 54.6049 42.6516 53.9016C43.3549 53.1984 43.75 52.2446 43.75 51.25C43.75 50.2554 43.3549 49.3016 42.6516 48.5984C41.9484 47.8951 40.9946 47.5 40 47.5ZM52.5 47.5C51.5054 47.5 50.5516 47.8951 49.8484 48.5984C49.1451 49.3016 48.75 50.2554 48.75 51.25C48.75 52.2446 49.1451 53.1984 49.8484 53.9016C50.5516 54.6049 51.5054 55 52.5 55C53.4946 55 54.4484 54.6049 55.1516 53.9016C55.8549 53.1984 56.25 52.2446 56.25 51.25C56.25 50.2554 55.8549 49.3016 55.1516 48.5984C54.4484 47.8951 53.4946 47.5 52.5 47.5ZM27.5 47.5C26.5054 47.5 25.5516 47.8951 24.8483 48.5984C24.1451 49.3016 23.75 50.2554 23.75 51.25C23.75 52.2446 24.1451 53.1984 24.8483 53.9016C25.5516 54.6049 26.5054 55 27.5 55C28.4946 55 29.4484 54.6049 30.1517 53.9016C30.8549 53.1984 31.25 52.2446 31.25 51.25C31.25 50.2554 30.8549 49.3016 30.1517 48.5984C29.4484 47.8951 28.4946 47.5 27.5 47.5Z" fill="white"/>
</g>
<defs>
<radialGradient id="paint0_radial_7752_3756" cx="0" cy="0" r="1" gradientUnits="userSpaceOnUse" gradientTransform="translate(41.2504 40) scale(37.7988 39.6887)">
<stop stop-color="#F4E9C3"/>
<stop offset="0.219" stop-color="#F8EECD"/>
<stop offset="0.644" stop-color="#FDF4DC"/>
<stop offset="1" stop-color="#FFF6E1"/>
</radialGradient>
<radialGradient id="paint1_radial_7752_3756" cx="0" cy="0" r="1" gradientUnits="userSpaceOnUse" gradientTransform="translate(41.2504 40) scale(37.7988 39.6887)">
<stop stop-color="#F4E9C3"/>
<stop offset="0.219" stop-color="#F8EECD"/>
<stop offset="0.644" stop-color="#FDF4DC"/>
<stop offset="1" stop-color="#FFF6E1"/>
</radialGradient>
<radialGradient id="paint2_radial_7752_3756" cx="0" cy="0" r="1" gradientUnits="userSpaceOnUse" gradientTransform="translate(41.2504 40) scale(37.7988 39.6887)">
<stop stop-color="#F4E9C3"/>
<stop offset="0.219" stop-color="#F8EECD"/>
<stop offset="0.644" stop-color="#FDF4DC"/>
<stop offset="1" stop-color="#FFF6E1"/>
</radialGradient>
<radialGradient id="paint3_radial_7752_3756" cx="0" cy="0" r="1" gradientUnits="userSpaceOnUse" gradientTransform="translate(41.2504 40) scale(37.7988 39.6887)">
<stop stop-color="#F4E9C3"/>
<stop offset="0.219" stop-color="#F8EECD"/>
<stop offset="0.644" stop-color="#FDF4DC"/>
<stop offset="1" stop-color="#FFF6E1"/>
</radialGradient>
<linearGradient id="paint4_linear_7752_3756" x1="40" y1="7.5" x2="40" y2="36.25" gradientUnits="userSpaceOnUse">
<stop stop-color="#A4A4A4"/>
<stop offset="0.63" stop-color="#7F7F7F"/>
<stop offset="1" stop-color="#6F6F6F"/>
</linearGradient>
<linearGradient id="paint5_linear_7752_3756" x1="40" y1="31.25" x2="40" y2="71.25" gradientUnits="userSpaceOnUse">
<stop stop-color="#FFB55A"/>
<stop offset="0.525" stop-color="#FF9C23"/>
<stop offset="1" stop-color="#FF8C00"/>
</linearGradient>
<linearGradient id="paint6_linear_7752_3756" x1="55.625" y1="50" x2="55.625" y2="71.25" gradientUnits="userSpaceOnUse">
<stop stop-color="#FF9718"/>
<stop offset="1" stop-color="#F86B05"/>
</linearGradient>
<linearGradient id="paint7_linear_7752_3756" x1="24.375" y1="31.25" x2="24.375" y2="50" gradientUnits="userSpaceOnUse">
<stop stop-color="#FF9718"/>
<stop offset="1" stop-color="#F86B05"/>
</linearGradient>
<clipPath id="clip0_7752_3756">
<rect width="80" height="80" fill="white"/>
</clipPath>
</defs>
</svg>
