<svg width="80" height="80" viewBox="0 0 80 80" fill="none" xmlns="http://www.w3.org/2000/svg">
<path d="M63.7505 21.25H73.7505C76.0642 21.25 77.9017 19.135 77.4242 16.7463C77.068 14.965 75.3942 13.75 73.578 13.75L66.2442 13.7425C64.1767 13.7413 62.5005 12.065 62.5005 9.99625C62.5005 7.9275 64.178 6.25 66.2467 6.25H70.5067C71.9305 6.25 73.2642 5.35125 73.638 3.9775C74.2017 1.90125 72.6267 0 70.6255 0H9.49423C8.07048 0 6.73798 0.89875 6.36423 2.2725C5.79923 4.34875 7.37423 6.25 9.37548 6.25H13.1255C13.988 6.25 14.7755 6.6 15.338 7.1625C15.8592 7.68375 16.198 8.3975 16.2442 9.185C16.3542 11.005 14.7492 12.5 12.9255 12.5H5.16423C3.35048 12.5 1.67798 13.715 1.32548 15.4938C0.851727 17.8838 2.69048 20 5.00048 20H17.5005L12.5005 32.1513L16.2505 55H7.14048C4.20673 55 1.57423 57.13 1.27923 60.0475C0.940477 63.3975 3.59173 66.25 6.87548 66.25H7.94423C9.57923 66.25 11.0692 67.425 11.233 69.0513C11.423 70.9212 9.95673 72.5 8.12548 72.5H6.45673C4.42423 72.5 2.60798 74.0263 2.50548 76.055C2.39673 78.2188 4.11048 80 6.25048 80H73.5442C75.5767 80 77.393 78.4737 77.4955 76.445C77.6042 74.2812 75.8905 72.5 73.7505 72.5H72.0567C70.4217 72.5 68.9317 71.325 68.768 69.6987C68.578 67.8288 70.0442 66.25 71.8755 66.25H72.8605C75.7942 66.25 78.4267 64.12 78.7217 61.2012C79.0592 57.8525 76.4092 55 73.1255 55H62.5005L67.5005 32.4963L63.7505 21.25Z" fill="url(#paint0_radial_7626_8922)"/>
<path d="M14.5297 25.8687L14.0859 25.6975C18.2934 14.8138 28.7072 7.5 39.9997 7.5C50.6684 7.5 60.5172 13.8137 65.7034 23.9775L65.5434 24.0588C61.1209 26.3162 55.7534 25.6325 52.0672 22.3062C48.6784 19.2487 44.4334 17.5 39.9997 17.5C34.9509 17.5 30.6997 19.785 27.6547 22.86C24.1997 26.3475 19.1084 27.6388 14.5297 25.8687Z" fill="url(#paint1_linear_7626_8922)"/>
<path fill-rule="evenodd" clip-rule="evenodd" d="M17.6787 54.2113C12.7275 48.93 10 42.1075 10 35C10 19.1475 23.4575 6.25 40 6.25C56.5412 6.25 70 19.1475 70 35C70 42.1075 67.2725 48.93 62.3212 54.21L58.6737 50.79C62.7537 46.4388 65 40.8325 65 35C65 21.9037 53.785 11.25 40 11.25C26.215 11.25 15 21.9037 15 35C15 40.8325 17.2463 46.44 21.3263 50.7912L17.6787 54.2113ZM58.9515 43.4808L54.0715 68.5858C53.919 69.3708 53.579 70.0696 53.0978 70.6508C53.0978 70.6508 53.0953 70.6633 53.0803 70.6733C52.0253 71.9708 50.3015 72.6546 48.5465 72.3133L47.9815 72.2033C45.429 71.7071 43.759 69.2308 44.2553 66.6783L49.1353 41.5733C49.6315 39.0208 52.1078 37.3508 54.6603 37.8471L55.2253 37.9571C56.9928 38.3008 58.3453 39.5946 58.8215 41.2033C59.0503 41.9208 59.104 42.6946 58.9515 43.4808ZM31.5639 72.1825L32.1252 72.0737C34.6814 71.5762 36.3502 69.1025 35.8527 66.5462L30.9739 41.4437C30.4764 38.8887 28.0027 37.22 25.4464 37.7162L24.8852 37.825C22.3302 38.3225 20.6614 40.7962 21.1577 43.3525L26.0364 68.455C26.5339 71.01 29.0077 72.6787 31.5639 72.1825Z" fill="url(#paint2_linear_7626_8922)"/>
<path d="M21.965 40.9395L27.6887 70.3882L26.4612 70.627C22.6325 71.3707 18.8787 70.0757 16.3287 67.5032C14.8712 66.0295 13.7925 64.1507 13.3337 61.9857C13.305 61.902 13.2875 61.8157 13.2712 61.7307L11.84 54.3682C11.4987 52.6132 11.5887 50.852 12.0387 49.2357C13.1362 45.2532 16.405 42.0207 20.7362 41.1782L21.965 40.9395Z" fill="url(#paint3_linear_7626_8922)"/>
<path d="M21.965 40.9395L23.2025 47.3082C23.07 47.347 22.9375 47.3857 22.8025 47.412L16.0537 48.7232C15.3787 48.8545 14.8175 49.2432 14.4637 49.7832C14.0962 50.3132 13.945 50.9795 14.0762 51.6545C14.2075 52.3295 14.5962 52.8907 15.1362 53.2445C15.6662 53.612 16.3325 53.7632 17.0075 53.632C18.0262 53.4345 19.0275 53.672 19.8187 54.2057C20.61 54.7395 21.2062 55.5782 21.4037 56.597C21.8 58.6345 20.475 60.5982 18.4387 60.9932L13.3337 61.9857C13.305 61.902 13.2875 61.8157 13.2712 61.7307L11.84 54.3682C11.4987 52.6132 11.5887 50.852 12.0387 49.2357C13.1362 45.2532 16.405 42.0207 20.7362 41.1782L21.965 40.9395Z" fill="url(#paint4_linear_7626_8922)"/>
<path d="M68.2706 54.4971L66.8394 61.8596C65.6544 67.9584 59.7481 71.9421 53.6494 70.7559L52.4219 70.5171L58.1456 41.0684L59.3731 41.3071C65.4719 42.4934 69.4556 48.3984 68.2706 54.4971Z" fill="url(#paint5_linear_7626_8922)"/>
<path d="M67.7886 56.9761L66.8398 61.8598C65.6548 67.9586 59.7486 71.9423 53.6498 70.7561L53.0973 70.6486C53.0973 70.6486 53.0948 70.6611 53.0798 70.6711L52.1836 70.4973L53.3761 64.3623L59.5111 65.5548C60.1861 65.6861 60.8523 65.5348 61.3823 65.1673C61.9223 64.8136 62.3111 64.2523 62.4423 63.5773C62.5736 62.9023 62.4223 62.2373 62.0548 61.7061C61.7011 61.1661 61.1398 60.7773 60.4648 60.6461C59.7898 60.5148 59.2286 60.1248 58.8748 59.5861C58.5073 59.0561 58.3561 58.3898 58.4873 57.7148C58.7498 56.3648 60.0686 55.4748 61.4186 55.7373L67.7886 56.9761Z" fill="url(#paint6_linear_7626_8922)"/>
<defs>
<radialGradient id="paint0_radial_7626_8922" cx="0" cy="0" r="1" gradientUnits="userSpaceOnUse" gradientTransform="translate(40.0005 40) scale(39.38 39.38)">
<stop stop-color="#F4E9C3"/>
<stop offset="0.219" stop-color="#F8EECD"/>
<stop offset="0.644" stop-color="#FDF4DC"/>
<stop offset="1" stop-color="#FFF6E1"/>
</radialGradient>
<linearGradient id="paint1_linear_7626_8922" x1="39.8947" y1="7.5" x2="39.8947" y2="26.6586" gradientUnits="userSpaceOnUse">
<stop stop-color="#FFB55A"/>
<stop offset="0.525" stop-color="#FF9C23"/>
<stop offset="1" stop-color="#FF8C00"/>
</linearGradient>
<linearGradient id="paint2_linear_7626_8922" x1="40" y1="6.25" x2="40" y2="72.4005" gradientUnits="userSpaceOnUse">
<stop stop-color="#A4A4A4"/>
<stop offset="0.63" stop-color="#7F7F7F"/>
<stop offset="1" stop-color="#6F6F6F"/>
</linearGradient>
<linearGradient id="paint3_linear_7626_8922" x1="19.6608" y1="40.9395" x2="19.6608" y2="70.8353" gradientUnits="userSpaceOnUse">
<stop stop-color="#FFB55A"/>
<stop offset="0.525" stop-color="#FF9C23"/>
<stop offset="1" stop-color="#FF8C00"/>
</linearGradient>
<linearGradient id="paint4_linear_7626_8922" x1="17.4176" y1="40.9395" x2="17.4176" y2="61.9857" gradientUnits="userSpaceOnUse">
<stop stop-color="#FF9718"/>
<stop offset="1" stop-color="#F86B05"/>
</linearGradient>
<linearGradient id="paint5_linear_7626_8922" x1="60.4506" y1="41.0684" x2="60.4506" y2="70.9649" gradientUnits="userSpaceOnUse">
<stop stop-color="#FFB55A"/>
<stop offset="0.525" stop-color="#FF9C23"/>
<stop offset="1" stop-color="#FF8C00"/>
</linearGradient>
<linearGradient id="paint6_linear_7626_8922" x1="59.9861" y1="55.6914" x2="59.9861" y2="70.9651" gradientUnits="userSpaceOnUse">
<stop stop-color="#FF9718"/>
<stop offset="1" stop-color="#F86B05"/>
</linearGradient>
</defs>
</svg>
