<svg width="80" height="80" viewBox="0 0 80 80" fill="none" xmlns="http://www.w3.org/2000/svg">
<g clip-path="url(#clip0_7752_3779)">
<path d="M0 5C0 2.23875 2.23875 0 5 0C7.76125 0 10 2.23875 10 5C10 7.76125 7.76125 10 5 10C2.23875 10 0 7.76125 0 5ZM75.625 80C78.0413 80 80 78.0413 80 75.625C80 73.2087 78.0413 71.25 75.625 71.25C73.2087 71.25 71.25 73.2087 71.25 75.625C71.25 78.0413 73.2087 80 75.625 80ZM73.75 40H71.875C70.675 40 69.575 39.5125 68.7875 38.7125C67.9875 37.925 67.5 36.825 67.5 35.625C67.5 33.2125 69.4625 31.25 71.875 31.25H73.125C74.675 31.25 76.0875 30.625 77.1 29.6C78.125 28.5875 78.75 27.175 78.75 25.625C78.75 22.5125 76.2375 20 73.125 20H68.75C67.375 20 67.5 16.375 67.5 15C67.5 12.2375 64.7375 10 67.5 10H68.75C70.125 10 71.375 9.4375 72.2875 8.5375C73.1875 7.625 73.75 6.375 73.75 5C73.75 2.2375 71.5125 0 68.75 0H18.75C17.375 0 16.125 0.5625 15.2125 1.4625C14.3125 2.375 13.75 3.625 13.75 5C13.75 7.7625 15.9875 10 18.75 10L11.25 12.5V17.5H6.875C5.675 17.5 4.575 17.9875 3.7875 18.7875C2.9875 19.575 2.5 20.675 2.5 21.875C2.5 24.2875 4.4625 26.25 6.875 26.25H8.75C9.7875 26.25 10.725 26.675 11.4 27.35C12.075 28.025 12.5 28.9625 12.5 30C12.5 32.075 10.825 33.75 8.75 33.75H6.25C4.525 33.75 2.9625 34.45 1.825 35.575C0.7 36.7125 0 38.275 0 40C0 43.45 2.8 46.25 6.25 46.25H11.25C13.325 46.25 15 47.925 15 50C15 51.0375 14.575 51.975 13.9 52.65C13.225 53.325 12.2875 53.75 11.25 53.75H5C3.625 53.75 2.375 54.3125 1.4625 55.2125C0.5625 56.125 0 57.375 0 58.75C0 61.5125 2.2375 63.75 5 63.75H12.2612C12.2612 63.75 12.5 66.675 12.5 68.75C12.5 68.75 19.575 69.475 18.9 70.15C18.225 70.825 17.2875 71.25 16.25 71.25H14.375C13.175 71.25 12.075 71.7375 11.2875 72.5375C10.4875 73.325 10 74.425 10 75.625C10 78.0375 11.9625 80 14.375 80H63.125C64.325 80 65.425 79.5125 66.2125 78.7125C67.0125 77.925 67.5 76.825 67.5 75.625C67.5 73.2125 65.5375 71.25 63.125 71.25H62.5C61.8125 71.25 61.1875 70.975 60.7375 70.5125C60.275 70.0625 60 69.4375 60 68.75C60 67.375 61.125 66.25 62.5 66.25H71.25C72.625 66.25 73.875 65.6875 74.7875 64.7875C75.6875 63.875 76.25 62.625 76.25 61.25C76.25 58.4875 74.0125 56.25 71.25 56.25H70.625C69.7625 56.25 68.975 55.9 68.4125 55.3375C67.85 54.775 67.5 53.9875 67.5 53.125C67.5 51.4 68.9 50 70.625 50H73.75C75.125 50 76.375 49.4375 77.2875 48.5375C78.1875 47.625 78.75 46.375 78.75 45C78.75 42.2375 76.5125 40 73.75 40Z" fill="url(#paint0_radial_7752_3779)"/>
<path d="M60 27.8V45L21.25 44.9988V20C21.25 17.925 22.925 16.25 25 16.25H45.95C46.9375 16.25 47.9 16.65 48.6 17.35L58.9 25.15C59.6 25.85 60 26.8125 60 27.8Z" fill="#FA8C16"/>
<path d="M58.9012 25.1534L48.5975 17.3496C48.2787 17.0309 47.9025 16.7846 47.5 16.5996V22.5009C47.5 24.5721 49.1788 26.2509 51.25 26.2509H59.6513C59.4675 25.8484 59.2212 25.4721 58.9012 25.1534Z" fill="#FFC069"/>
<path d="M51.25 26.25C49.1788 26.25 47.5 24.5712 47.5 22.5V26.25C47.5 28.3212 49.1788 30 51.25 30H60V27.8038C60 27.2613 59.8725 26.735 59.6513 26.25H51.25Z" fill="#FA8C16"/>
<path d="M28.125 55C27.09 55 26.25 54.16 26.25 53.1262C26.25 52.0912 27.09 51.2512 28.125 51.2512H41.875C42.91 51.2512 43.75 52.0912 43.75 53.1262C43.75 54.16 42.9112 55 41.875 55H28.125ZM60 45H56.1425C55.9025 45.68 55.28 46.18 54.535 46.2437C54.5312 46.2437 54.5287 46.2437 54.525 46.245C54.5175 46.245 54.51 46.245 54.5037 46.2463C54.4963 46.2463 54.4888 46.2475 54.4812 46.2475C54.475 46.2475 54.4675 46.2488 54.4613 46.2488C54.4525 46.2488 54.4438 46.2487 54.435 46.25C54.43 46.25 54.4237 46.25 54.4188 46.25C54.4038 46.25 54.39 46.25 54.375 46.25H43.125C43.11 46.25 43.0963 46.25 43.0812 46.25C43.0763 46.25 43.07 46.25 43.065 46.25C43.0562 46.25 43.0475 46.25 43.0387 46.2488C43.0312 46.2488 43.025 46.2488 43.0175 46.2475C43.0113 46.2475 43.0037 46.2475 42.9975 46.2463C42.9887 46.2463 42.9812 46.2462 42.9725 46.245C42.2225 46.185 41.5962 45.6837 41.355 45.0012H37.39C37.15 45.68 36.5288 46.18 35.7838 46.245C35.78 46.245 35.775 46.245 35.7713 46.2463C35.7638 46.2463 35.7575 46.2463 35.75 46.2475C35.7425 46.2475 35.735 46.2488 35.7275 46.2488C35.7213 46.2488 35.715 46.25 35.7075 46.25C35.6987 46.25 35.69 46.25 35.6812 46.2512C35.6763 46.2512 35.67 46.2512 35.665 46.2512C35.65 46.2512 35.6362 46.2512 35.6213 46.2512H28.1212C28.1062 46.2512 28.0925 46.2512 28.0775 46.2512C28.0725 46.2512 28.0662 46.2512 28.0612 46.2512C28.0525 46.2512 28.0437 46.2513 28.035 46.25C28.0275 46.25 28.0212 46.25 28.0137 46.2488C28.0075 46.2488 28 46.2488 27.9938 46.2475C27.985 46.2475 27.9775 46.2475 27.9688 46.2463C27.2188 46.1863 26.5925 45.685 26.3512 45.0025H21.25V60C21.25 62.0737 22.925 63.7488 25 63.7488H56.25C58.325 63.75 60 62.075 60 60V45Z" fill="#FFC069"/>
<path d="M40.625 28.75H28.125C27.09 28.75 26.25 27.91 26.25 26.875C26.25 25.84 27.09 25 28.125 25H40.625C41.66 25 42.5 25.84 42.5 26.875C42.5 27.91 41.66 28.75 40.625 28.75Z" fill="white"/>
<path d="M41.875 37.5H28.125C27.09 37.5 26.25 36.66 26.25 35.625C26.25 34.59 27.09 33.75 28.125 33.75H41.875C42.91 33.75 43.75 34.59 43.75 35.625C43.75 36.66 42.91 37.5 41.875 37.5Z" fill="white"/>
<path d="M54.375 37.5H49.375C48.34 37.5 47.5 36.66 47.5 35.625C47.5 34.59 48.34 33.75 49.375 33.75H54.375C55.41 33.75 56.25 34.59 56.25 35.625C56.25 36.66 55.41 37.5 54.375 37.5Z" fill="white"/>
<path d="M41.875 51.25H28.125C27.09 51.25 26.25 52.09 26.25 53.125C26.25 54.1588 27.09 54.9988 28.125 54.9988H41.875C42.91 54.9988 43.75 54.1588 43.75 53.125C43.75 52.09 42.9112 51.25 41.875 51.25Z" fill="white"/>
<path fill-rule="evenodd" clip-rule="evenodd" d="M8.75 18.125C8.75 19.505 9.87 20.625 11.25 20.625C12.63 20.625 13.75 19.505 13.75 18.125V13.75H18.125C19.505 13.75 20.625 12.63 20.625 11.25C20.625 9.87 19.505 8.75 18.125 8.75H11.25C9.87 8.75 8.75 9.87 8.75 11.25V18.125ZM18.125 71.25H11.25C9.87 71.25 8.75 70.13 8.75 68.75V61.875C8.75 60.495 9.87 59.375 11.25 59.375C12.63 59.375 13.75 60.495 13.75 61.875V66.25H18.125C19.505 66.25 20.625 67.37 20.625 68.75C20.625 70.13 19.505 71.25 18.125 71.25ZM68.75 71.25H61.875C60.495 71.25 59.375 70.13 59.375 68.75C59.375 67.37 60.495 66.25 61.875 66.25H66.25V61.875C66.25 60.495 67.37 59.375 68.75 59.375C70.13 59.375 71.25 60.495 71.25 61.875V68.75C71.25 70.13 70.13 71.25 68.75 71.25ZM68.75 20.625C67.37 20.625 66.25 19.505 66.25 18.125V13.75H61.875C60.495 13.75 59.375 12.63 59.375 11.25C59.375 9.87 60.495 8.75 61.875 8.75H68.75C70.13 8.75 71.25 9.87 71.25 11.25V18.125C71.25 19.505 70.13 20.625 68.75 20.625ZM11.25 47.5H68.75C70.13 47.5 71.25 46.38 71.25 45C71.25 43.62 70.13 42.5 68.75 42.5H11.25C9.87 42.5 8.75 43.62 8.75 45C8.75 46.38 9.87 47.5 11.25 47.5Z" fill="url(#paint1_linear_7752_3779)"/>
</g>
<defs>
<radialGradient id="paint0_radial_7752_3779" cx="0" cy="0" r="1" gradientUnits="userSpaceOnUse" gradientTransform="translate(40.0005 40) scale(40.3187 39.6887)">
<stop stop-color="#F4E9C3"/>
<stop offset="0.219" stop-color="#F8EECD"/>
<stop offset="0.644" stop-color="#FDF4DC"/>
<stop offset="1" stop-color="#FFF6E1"/>
</radialGradient>
<linearGradient id="paint1_linear_7752_3779" x1="40" y1="8.75" x2="40" y2="71.25" gradientUnits="userSpaceOnUse">
<stop stop-color="#FFB55A"/>
<stop offset="0.525" stop-color="#FF9C23"/>
<stop offset="1" stop-color="#FF8C00"/>
</linearGradient>
<clipPath id="clip0_7752_3779">
<rect width="80" height="80" fill="white"/>
</clipPath>
</defs>
</svg>
