<svg width="80" height="80" viewBox="0 0 80 80" fill="none" xmlns="http://www.w3.org/2000/svg">
<g clip-path="url(#clip0_7752_3767)">
<path d="M74.7851 60H52.5002V41.25H73.5351C76.1464 41.25 78.4789 39.3412 78.7264 36.7412C79.0114 33.7588 76.6739 31.25 73.7502 31.25H70.0002C67.9289 31.25 66.2502 29.5712 66.2502 27.5C66.2502 25.4288 67.9289 23.75 70.0002 23.75H71.6276C73.9964 23.75 76.1201 21.9762 76.2439 19.61C76.3764 17.0875 74.3689 15 71.8752 15H58.1252C56.3989 15 55.0002 13.6012 55.0002 11.875C55.0002 10.1488 56.3989 8.75 58.1252 8.75H59.1277C61.4964 8.75 63.6202 6.97625 63.7439 4.61C63.8764 2.0875 61.8689 0 59.3752 0H14.6227C12.2539 0 10.1302 1.77375 10.0064 4.14C9.8739 6.6625 11.8814 8.75 14.3752 8.75H15.0002C16.3814 8.75 17.5002 9.86875 17.5002 11.25C17.5002 12.6313 16.3814 13.75 15.0002 13.75H7.11765C4.18015 13.75 1.5564 15.8975 1.27765 18.8225C0.956403 22.1775 3.5864 25 6.87515 25H8.12515C9.16015 25 10.0002 25.84 10.0002 26.875C10.0002 27.91 9.16015 28.75 8.12515 28.75H6.46515C3.8539 28.75 1.5214 30.6588 1.2739 33.2588C0.988903 36.24 3.3264 38.75 6.25015 38.75H22.5002V61.25H3.8889C2.07515 61.25 0.412653 62.4762 0.071403 64.2575C-0.388597 66.6537 1.4364 68.75 3.75015 68.75H20.6252C21.6602 68.75 22.5002 69.59 22.5002 70.625C22.5002 71.66 21.6602 72.5 20.6252 72.5H15.1389C13.3252 72.5 11.6627 73.7262 11.3214 75.5075C10.8614 77.9037 12.6864 80 15.0002 80H47.5002H50.0002H62.9464C64.5814 80 66.0702 78.8237 66.2339 77.1975C66.4214 75.3262 64.9576 73.75 63.1252 73.75H56.8752C55.8402 73.75 55.0002 72.91 55.0002 71.875C55.0002 70.84 55.8402 70 56.8752 70H75.0002C77.9239 70 80.2614 67.49 79.9764 64.5088C79.7289 61.9087 77.3964 60 74.7851 60Z" fill="url(#paint0_radial_7752_3767)"/>
<path d="M64.5913 35.0737C64.8488 34.0487 65 32.98 65 31.875C65 24.6263 59.1237 18.75 51.875 18.75C49.3775 18.75 47.05 19.46 45.0625 20.6725C42.1075 15.7812 36.7562 12.5 30.625 12.5C21.305 12.5 13.75 20.055 13.75 29.375C13.75 31.005 13.9937 32.5763 14.425 34.0675C7.61625 35.4875 2.5 41.52 2.5 48.75C2.5 57.0337 9.21625 63.75 17.5 63.75H62.5V63.7188C62.7088 63.7275 62.9137 63.75 63.125 63.75C71.0638 63.75 77.5 57.3138 77.5 49.375C77.5 41.9312 71.8412 35.8088 64.5913 35.0737Z" fill="url(#paint1_linear_7752_3767)"/>
<path d="M77.5 49.375C77.5 57.3125 71.0625 63.75 63.125 63.75C63.025 63.75 62.9125 63.75 62.8125 63.7375C62.7125 63.725 62.6 63.725 62.5 63.725V63.75H30.625C28.9 63.75 27.5 62.35 27.5 60.625C27.5 58.9 28.9 57.5 30.625 57.5H38.125C39.85 57.5 41.25 56.1 41.25 54.375C41.25 52.65 39.85 51.25 38.125 51.25H30.625C28.9 51.25 27.5 49.85 27.5 48.125C27.5 48.125 34.525 45 36.25 45H43.75C44.4662 45 45 47.5 45 47.5H55C55 47.5 56.25 43.0887 56.25 42.5C56.25 40.775 53.6 38.75 51.875 38.75C51.5875 38.75 51.525 38.7125 51.6125 38.6375C49.975 38.2375 48.75 36.7625 48.75 35C48.75 32.925 50.425 31.25 52.5 31.25H64.9875C65 31.4625 65 31.6625 65 31.875C65 32.975 64.85 34.05 64.5875 35.075C67.7375 35.4 70.5875 36.725 72.8 38.75H72.8125C75.7663 41.4462 77.5225 45.3675 77.5 49.375Z" fill="url(#paint2_linear_7752_3767)"/>
<path d="M3.35938 43.7505H20.6244C22.3506 43.7505 22.4994 42.9767 22.4994 41.2505C22.4994 39.5242 22.3506 37.5005 20.6244 37.5005C18.8981 37.5005 17.4994 36.1017 17.4994 34.3755C17.4994 32.6492 18.8981 31.2505 20.6244 31.2505H33.1244C34.8506 31.2505 36.2494 29.8517 36.2494 28.1255C36.2494 26.3992 34.8506 25.0005 33.1244 25.0005H28.1244C26.3981 25.0005 24.9994 23.6017 24.9994 21.8755C24.9994 20.1492 26.3981 18.7505 28.1244 18.7505H29.3744C31.1006 18.7505 32.4994 17.3517 32.4994 15.6255C32.4994 14.043 31.3181 12.748 29.7919 12.543C20.8619 12.9792 13.7494 20.3367 13.7494 29.3755C13.7494 31.0055 13.9931 32.5767 14.4244 34.068C9.26813 35.143 5.08687 38.8667 3.35938 43.7505Z" fill="url(#paint3_linear_7752_3767)"/>
<path fill-rule="evenodd" clip-rule="evenodd" d="M25.9288 51.25H29.07C33.7188 51.25 37.5 47.4688 37.5 42.8212V42.1788C37.5 37.5312 33.7188 33.75 29.0712 33.75H25.93C21.2812 33.75 17.5 37.5312 17.5 42.1788V42.8212C17.5 47.4688 21.2812 51.25 25.9288 51.25ZM22.5 42.1788C22.5 40.2875 24.0387 38.75 25.93 38.75H29.07C30.9613 38.75 32.5 40.2875 32.5 42.1788V42.8212C32.5 44.7125 30.9613 46.25 29.0712 46.25H25.93C24.0387 46.25 22.5 44.7125 22.5 42.8212V42.1788ZM48.4287 51.25H51.5713C56.2188 51.25 60 47.4688 60 42.8212V42.1788C60 37.5312 56.2188 33.75 51.5713 33.75H48.4287C43.7812 33.75 40 37.5312 40 42.1788V42.8212C40 47.4688 43.7812 51.25 48.4287 51.25ZM45 42.1788C45 40.2875 46.5375 38.75 48.4287 38.75H51.5713C53.4625 38.75 55 40.2875 55 42.1788V42.8212C55 44.7125 53.4625 46.25 51.5713 46.25H48.4287C46.5375 46.25 45 44.7125 45 42.8212V42.1788Z" fill="url(#paint4_linear_7752_3767)"/>
<path d="M45 45H32.5C31.12 45 30 43.88 30 42.5C30 41.12 31.12 40 32.5 40H45C46.38 40 47.5 41.12 47.5 42.5C47.5 43.88 46.38 45 45 45Z" fill="white"/>
</g>
<defs>
<radialGradient id="paint0_radial_7752_3767" cx="0" cy="0" r="1" gradientUnits="userSpaceOnUse" gradientTransform="translate(40.0005 40) scale(40.3187 39.6887)">
<stop stop-color="#F4E9C3"/>
<stop offset="0.219" stop-color="#F8EECD"/>
<stop offset="0.644" stop-color="#FDF4DC"/>
<stop offset="1" stop-color="#FFF6E1"/>
</radialGradient>
<linearGradient id="paint1_linear_7752_3767" x1="40" y1="12.5" x2="40" y2="63.75" gradientUnits="userSpaceOnUse">
<stop stop-color="#FFB55A"/>
<stop offset="0.525" stop-color="#FF9C23"/>
<stop offset="1" stop-color="#FF8C00"/>
</linearGradient>
<linearGradient id="paint2_linear_7752_3767" x1="52.5001" y1="31.25" x2="52.5001" y2="63.75" gradientUnits="userSpaceOnUse">
<stop stop-color="#FFB55A"/>
<stop offset="0.525" stop-color="#FF9C23"/>
<stop offset="1" stop-color="#FF8C00"/>
</linearGradient>
<linearGradient id="paint3_linear_7752_3767" x1="19.8044" y1="12.543" x2="19.8044" y2="43.7505" gradientUnits="userSpaceOnUse">
<stop stop-color="#FFB55A"/>
<stop offset="0.525" stop-color="#FF9C23"/>
<stop offset="1" stop-color="#FF8C00"/>
</linearGradient>
<linearGradient id="paint4_linear_7752_3767" x1="38.75" y1="33.75" x2="38.75" y2="51.25" gradientUnits="userSpaceOnUse">
<stop stop-color="white"/>
<stop offset="1" stop-color="#BEBEBE"/>
</linearGradient>
<clipPath id="clip0_7752_3767">
<rect width="80" height="80" fill="white"/>
</clipPath>
</defs>
</svg>
