<svg width="80" height="80" viewBox="0 0 80 80" fill="none" xmlns="http://www.w3.org/2000/svg">
<path d="M65.6255 63.75H70.0005C74.143 63.75 77.5005 60.3925 77.5005 56.25C77.5005 52.1075 74.143 48.75 70.0005 48.75H59.2967C59.6892 46.7663 58.338 45 59.3755 45C59.3755 45 60.0005 32.625 60.0005 31.25C60.0005 29.875 61.1255 28.75 62.5005 28.75L76.7642 28.76C78.1892 28.76 79.5142 27.86 79.8892 26.485C80.4392 24.41 78.8642 22.51 76.8767 22.51H70.6667C69.4205 22.51 68.2567 21.6663 68.0505 20.4375C67.788 18.8763 68.9992 17.51 70.5142 17.51H73.0142C75.3267 17.51 77.1642 15.3975 76.6892 13.01C76.3392 11.2225 74.6642 10.01 72.8517 10.01L56.8755 10C55.838 10 55.0005 9.1625 55.0005 8.125C55.0005 7.0875 55.838 6.25 56.8755 6.25H64.2567C65.6805 6.25 67.0142 5.35125 67.388 3.9775C67.9517 1.90125 66.3767 0 64.3755 0H9.49423C8.07048 0 6.73673 0.89875 6.36423 2.2725C5.79923 4.34875 7.37423 6.25 9.37548 6.25H13.1255C13.988 6.25 14.7755 6.6 15.338 7.1625C15.8592 7.68375 16.198 8.3975 16.2442 9.185C16.3542 11.005 14.7492 12.5 12.9255 12.5H5.16423C3.35048 12.5 1.67798 13.715 1.32548 15.4938C0.851727 17.8838 2.69048 20 5.00048 20H31.2505C31.688 20 32.113 19.9125 32.5005 19.7625V28.75H16.2505V40H21.6755C23.498 40 25.103 41.495 24.9942 43.315C24.9467 44.1025 24.608 44.8162 24.088 45.3375C23.5255 45.9 22.738 46.25 21.8755 46.25H12.0555C10.4205 46.25 8.93048 47.425 8.76673 49.0513C8.57798 50.9213 10.0442 52.5 11.8755 52.5H16.8755C18.3867 52.5 19.648 53.5737 19.938 55H7.14048C4.20673 55 1.57423 57.13 1.27923 60.0475C0.940477 63.3975 3.59173 66.25 6.87548 66.25H30.4455C32.0805 66.25 33.5705 67.425 33.7342 69.0513C33.923 70.9212 32.4567 72.5 30.6255 72.5H23.9567C21.9242 72.5 20.108 74.0263 20.0055 76.055C19.8967 78.2188 21.6105 80 23.7505 80H71.0442C73.0767 80 74.893 78.4737 74.9955 76.445C75.1042 74.2812 73.3905 72.5 71.2505 72.5H65.6255C63.2092 72.5 61.2505 70.5413 61.2505 68.125C61.2505 65.7087 63.2092 63.75 65.6255 63.75Z" fill="url(#paint0_radial_7626_8905)"/>
<path fill-rule="evenodd" clip-rule="evenodd" d="M51.25 53.75H68.855C70.8687 53.75 72.5 52.1187 72.5 50.105V21.145C72.5 19.1313 70.8687 17.5 68.855 17.5H22.395C20.3813 17.5 18.75 19.1313 18.75 21.145V50.105C18.75 52.1187 20.3813 53.75 22.395 53.75H40L38.75 57.5H35C33.625 57.5 32.5 58.625 32.5 60C32.5 61.375 33.625 62.5 35 62.5H56.25C57.625 62.5 58.75 61.375 58.75 60C58.75 58.625 57.625 57.5 56.25 57.5H52.5L51.25 53.75Z" fill="url(#paint1_linear_7626_8905)"/>
<path d="M67.5425 50H23.7075C23.04 50 22.5 49.46 22.5 48.7925V22.4575C22.5 21.79 23.04 21.25 23.7075 21.25H67.5425C68.21 21.25 68.75 21.79 68.75 22.4575V48.7925C68.75 49.46 68.21 50 67.5425 50Z" fill="url(#paint2_linear_7626_8905)"/>
<g opacity="0.5">
<path d="M35.625 38.75C37.3512 38.75 38.75 37.3512 38.75 35.625C38.75 33.8988 37.3512 32.5 35.625 32.5H35C33.6187 32.5 32.5 31.3813 32.5 30C32.5 28.6188 33.6187 27.5 35 27.5H39.375C41.1012 27.5 42.5 26.1013 42.5 24.375C42.5 22.6487 41.1012 21.25 39.375 21.25H23.75C23.06 21.25 22.5 21.81 22.5 22.5V38.75H35.625Z" fill="url(#paint3_linear_7626_8905)"/>
</g>
<path d="M53.75 34.375C53.75 36.1013 55.1488 37.5 56.875 37.5C58.6012 37.5 60 38.8987 60 40.625C60 42.3512 58.6012 43.75 56.875 43.75H48.125C46.3987 43.75 45 45.1488 45 46.875C45 48.6012 46.3987 50 48.125 50H67.5C68.19 50 68.75 49.44 68.75 48.75V31.25H56.875C55.1488 31.25 53.75 32.6487 53.75 34.375Z" fill="url(#paint4_linear_7626_8905)"/>
<path d="M26.35 62.5H11.15C9.13375 62.5 7.5 60.8663 7.5 58.85V29.9C7.5 27.8838 9.13375 26.25 11.15 26.25H26.35C28.3662 26.25 30 27.8838 30 29.9V58.85C30 60.8663 28.3662 62.5 26.35 62.5Z" fill="url(#paint5_linear_7626_8905)"/>
<path d="M26.2575 57.5H11.2425C10.5563 57.5 10 56.9438 10 56.2575V32.4925C10 31.8062 10.5563 31.25 11.2425 31.25H26.2575C26.9438 31.25 27.5 31.8062 27.5 32.4925V56.2575C27.5 56.9438 26.9438 57.5 26.2575 57.5Z" fill="url(#paint6_linear_7626_8905)"/>
<path d="M18.75 58.75C18.4185 58.75 18.1005 58.8817 17.8661 59.1161C17.6317 59.3505 17.5 59.6685 17.5 60C17.5 60.3315 17.6317 60.6495 17.8661 60.8839C18.1005 61.1183 18.4185 61.25 18.75 61.25C19.0815 61.25 19.3995 61.1183 19.6339 60.8839C19.8683 60.6495 20 60.3315 20 60C20 59.6685 19.8683 59.3505 19.6339 59.1161C19.3995 58.8817 19.0815 58.75 18.75 58.75Z" fill="#979797"/>
<path d="M16.875 48.75C18.6012 48.75 20 47.3512 20 45.625C20 43.8988 18.6012 42.5 16.875 42.5H16.25C14.8688 42.5 13.75 41.3813 13.75 40C13.75 38.6188 14.8688 37.5 16.25 37.5H19.375C21.1012 37.5 22.5 36.1013 22.5 34.375C22.5 32.6487 21.1012 31.25 19.375 31.25H11.25C10.56 31.25 10 31.81 10 32.5V48.75H16.875Z" fill="url(#paint7_linear_7626_8905)"/>
<defs>
<radialGradient id="paint0_radial_7626_8905" cx="0" cy="0" r="1" gradientUnits="userSpaceOnUse" gradientTransform="translate(40.6255 40) scale(39.6888 39.6887)">
<stop stop-color="#F4E9C3"/>
<stop offset="0.219" stop-color="#F8EECD"/>
<stop offset="0.644" stop-color="#FDF4DC"/>
<stop offset="1" stop-color="#FFF6E1"/>
</radialGradient>
<linearGradient id="paint1_linear_7626_8905" x1="45.625" y1="17.5" x2="45.625" y2="62.5" gradientUnits="userSpaceOnUse">
<stop stop-color="#A4A4A4"/>
<stop offset="0.63" stop-color="#7F7F7F"/>
<stop offset="1" stop-color="#6F6F6F"/>
</linearGradient>
<linearGradient id="paint2_linear_7626_8905" x1="45.625" y1="21.25" x2="45.625" y2="50" gradientUnits="userSpaceOnUse">
<stop stop-color="#FFB55A"/>
<stop offset="0.525" stop-color="#FF9C23"/>
<stop offset="1" stop-color="#FF8C00"/>
</linearGradient>
<linearGradient id="paint3_linear_7626_8905" x1="32.5" y1="21.25" x2="32.3437" y2="47.2944" gradientUnits="userSpaceOnUse">
<stop stop-color="#FFBC6A"/>
<stop offset="1" stop-color="#F86B05"/>
</linearGradient>
<linearGradient id="paint4_linear_7626_8905" x1="56.875" y1="31.25" x2="56.875" y2="50" gradientUnits="userSpaceOnUse">
<stop stop-color="#FF9718"/>
<stop offset="1" stop-color="#F86B05"/>
</linearGradient>
<linearGradient id="paint5_linear_7626_8905" x1="18.75" y1="26.25" x2="18.75" y2="62.5" gradientUnits="userSpaceOnUse">
<stop stop-color="#A4A4A4"/>
<stop offset="0.63" stop-color="#7F7F7F"/>
<stop offset="1" stop-color="#6F6F6F"/>
</linearGradient>
<linearGradient id="paint6_linear_7626_8905" x1="18.75" y1="31.25" x2="18.75" y2="57.5" gradientUnits="userSpaceOnUse">
<stop stop-color="#FFB55A"/>
<stop offset="0.525" stop-color="#FF9C23"/>
<stop offset="1" stop-color="#FF8C00"/>
</linearGradient>
<linearGradient id="paint7_linear_7626_8905" x1="16.25" y1="31.25" x2="16" y2="57.293" gradientUnits="userSpaceOnUse">
<stop stop-color="#FFBC6A"/>
<stop offset="1" stop-color="#F86B05"/>
</linearGradient>
</defs>
</svg>
