<svg width="20" height="21" viewBox="0 0 20 21" fill="none" xmlns="http://www.w3.org/2000/svg">
<path d="M10 0.957031C8.07164 0.957031 6.18657 1.52886 4.58319 2.6002C2.97982 3.67155 1.73013 5.19429 0.992179 6.97587C0.254225 8.75745 0.061142 10.7178 0.437348 12.6092C0.813554 14.5005 1.74215 16.2378 3.10571 17.6013C4.46928 18.9649 6.20656 19.8935 8.09787 20.2697C9.98919 20.6459 11.9496 20.4528 13.7312 19.7149C15.5127 18.9769 17.0355 17.7272 18.1068 16.1238C19.1782 14.5205 19.75 12.6354 19.75 10.707C19.7473 8.12201 18.7192 5.64364 16.8913 3.81575C15.0634 1.98787 12.585 0.959761 10 0.957031ZM4.945 17.2227C5.48757 16.3741 6.23501 15.6758 7.11843 15.1921C8.00185 14.7084 8.99283 14.4548 10 14.4548C11.0072 14.4548 11.9982 14.7084 12.8816 15.1921C13.765 15.6758 14.5124 16.3741 15.055 17.2227C13.6097 18.3467 11.831 18.957 10 18.957C8.16905 18.957 6.39032 18.3467 4.945 17.2227ZM7 9.95703C7 9.36369 7.17595 8.78367 7.5056 8.29032C7.83524 7.79697 8.30378 7.41246 8.85195 7.18539C9.40013 6.95833 10.0033 6.89892 10.5853 7.01468C11.1672 7.13043 11.7018 7.41615 12.1213 7.83571C12.5409 8.25527 12.8266 8.78982 12.9424 9.37176C13.0581 9.9537 12.9987 10.5569 12.7716 11.1051C12.5446 11.6533 12.1601 12.1218 11.6667 12.4514C11.1734 12.7811 10.5933 12.957 10 12.957C9.20436 12.957 8.44129 12.641 7.87868 12.0784C7.31607 11.5157 7 10.7527 7 9.95703ZM16.165 16.183C15.3285 14.9709 14.1524 14.0331 12.7844 13.4877C13.5192 12.9089 14.0554 12.1155 14.3184 11.2179C14.5815 10.3202 14.5582 9.36293 14.252 8.47911C13.9457 7.59528 13.3716 6.82886 12.6096 6.28643C11.8475 5.74399 10.9354 5.45251 10 5.45251C9.06462 5.45251 8.15248 5.74399 7.39044 6.28643C6.62839 6.82886 6.05432 7.59528 5.74805 8.47911C5.44179 9.36293 5.41855 10.3202 5.68157 11.2179C5.94459 12.1155 6.4808 12.9089 7.21563 13.4877C5.84765 14.0331 4.67147 14.9709 3.835 16.183C2.77804 14.9944 2.0872 13.5256 1.84567 11.9534C1.60415 10.3813 1.82224 8.77287 2.47368 7.32181C3.12512 5.87075 4.18213 4.63895 5.51745 3.77472C6.85276 2.9105 8.40943 2.4507 10 2.4507C11.5906 2.4507 13.1473 2.9105 14.4826 3.77472C15.8179 4.63895 16.8749 5.87075 17.5263 7.32181C18.1778 8.77287 18.3959 10.3813 18.1543 11.9534C17.9128 13.5256 17.222 14.9944 16.165 16.183Z" fill="currentColor"/>
</svg>
