<svg width="80" height="80" viewBox="0 0 80 80" fill="none" xmlns="http://www.w3.org/2000/svg">
<path d="M75.6225 51.293H62.4975C60.4262 51.293 58.7475 49.6142 58.7475 47.543V46.293C58.7475 44.2217 60.4262 42.543 62.4975 42.543H73.1225C75.5387 42.543 77.4975 40.5842 77.4975 38.168C77.4975 35.7517 75.5387 33.793 73.1225 33.793H70.1487C68.9025 33.793 67.74 32.9492 67.5325 31.7192C67.2712 30.158 68.4825 28.793 69.9975 28.793H75.6225C78.3387 28.793 80.4912 26.2867 79.895 23.4817C79.4612 21.4405 77.5537 20.043 75.4675 20.043H64.9975C63.4825 20.043 62.2712 18.678 62.5337 17.1167C62.74 15.8867 63.9025 15.043 65.1487 15.043H70.4662C72.5525 15.043 74.4612 13.6455 74.8937 11.6042C75.4912 8.79922 73.3387 6.29297 70.6225 6.29297H9.37249C6.64999 6.29297 4.49999 8.80922 5.09874 11.6117C5.53249 13.6492 7.43749 15.043 9.52124 15.043H16.9975C18.5125 15.043 19.7237 16.408 19.4612 17.9692C19.255 19.1992 18.0925 20.043 16.8462 20.043H4.52749C2.44124 20.043 0.532488 21.4405 0.0999877 23.4817C-0.496262 26.2867 1.65624 28.793 4.37249 28.793H22.4975V36.293H5.77749C3.69124 36.293 1.78249 37.6905 1.34999 39.7317C0.753738 42.5367 2.90624 45.043 5.62249 45.043H9.17249C10.995 45.043 12.6 46.538 12.4912 48.3567C12.4437 49.1442 12.105 49.8592 11.585 50.3805C11.0225 50.943 10.235 51.293 9.37249 51.293H4.37249C1.65624 51.293 -0.496262 53.7992 0.0999877 56.6042C0.533738 58.6455 2.44124 60.043 4.52749 60.043H16.2475C17.7625 60.043 18.9737 61.408 18.7112 62.9692C18.505 64.1992 17.3425 65.043 16.0962 65.043H8.27749C6.19124 65.043 4.28249 66.4405 3.84999 68.4817C3.25374 71.2867 5.40624 73.793 8.12249 73.793H71.8725C74.58 73.793 76.7462 71.2792 76.1475 68.4792C75.71 66.4367 73.7975 65.043 71.71 65.043H63.7475C62.2325 65.043 61.0212 63.678 61.2837 62.1167C61.49 60.8867 62.6525 60.043 63.8987 60.043H75.4662C77.5525 60.043 79.4612 58.6455 79.8937 56.6042C80.4912 53.7992 78.3387 51.293 75.6225 51.293Z" fill="url(#paint0_radial_7752_3737)"/>
<path d="M70 20.075V59.925C70 64.1125 66.6125 67.5 62.425 67.5H17.575C13.3875 67.5 10 64.1125 10 59.925V20.075C10 15.8875 13.3875 12.5 17.575 12.5H62.425C66.6125 12.5 70 15.8875 70 20.075Z" fill="url(#paint1_linear_7752_3737)"/>
<path d="M21.3587 18.75H57.355C60.1962 18.75 62.5 21.0537 62.5 23.895V56.105C62.5 58.9462 60.1962 61.25 57.355 61.25H21.3587C19.2275 61.25 17.5 59.5225 17.5 57.3912V22.6087C17.5 20.4775 19.2275 18.75 21.3587 18.75Z" fill="#FFDBAE"/>
<path d="M16.25 33.75H18.75C19.44 33.75 20 33.19 20 32.5V25C20 24.31 19.44 23.75 18.75 23.75H16.25C15.56 23.75 15 24.31 15 25V32.5C15 33.19 15.56 33.75 16.25 33.75Z" fill="#FFB963"/>
<path d="M41.25 56.25C50.2246 56.25 57.5 48.9746 57.5 40C57.5 31.0254 50.2246 23.75 41.25 23.75C32.2754 23.75 25 31.0254 25 40C25 48.9746 32.2754 56.25 41.25 56.25Z" fill="url(#paint2_linear_7752_3737)"/>
<path d="M41.25 52.5C48.1536 52.5 53.75 46.9036 53.75 40C53.75 33.0964 48.1536 27.5 41.25 27.5C34.3464 27.5 28.75 33.0964 28.75 40C28.75 46.9036 34.3464 52.5 41.25 52.5Z" fill="white"/>
<path fill-rule="evenodd" clip-rule="evenodd" d="M38.75 26.25H43.75V30C43.75 31.3812 42.6313 32.5 41.25 32.5C39.8687 32.5 38.75 31.3812 38.75 30V26.25ZM28.9414 33.3814L32.0589 29.4727L34.9902 31.8102C36.0702 32.6714 36.2464 34.2439 35.3864 35.3239C34.5252 36.4039 32.9527 36.5802 31.8727 35.7202L28.9414 33.3814ZM27.2891 40.6229L28.4016 45.4979L32.0578 44.6629C33.4041 44.3554 34.2466 43.0154 33.9391 41.6692C33.6316 40.3229 32.2916 39.4804 30.9453 39.7879L27.2891 40.6229ZM37.5363 53.4721L33.0312 51.3021L34.6588 47.9233C35.2575 46.6796 36.7525 46.1571 37.9963 46.7558C39.24 47.3546 39.7625 48.8496 39.1637 50.0933L37.5363 53.4721ZM44.9654 53.474L49.4704 51.304L47.8429 47.9253C47.2429 46.6815 45.7491 46.159 44.5054 46.7578C43.2616 47.3578 42.7391 48.8515 43.3379 50.0953L44.9654 53.474ZM55.2094 40.6229L54.0969 45.4979L50.4407 44.6629C49.0944 44.3554 48.2519 43.0154 48.5594 41.6692C48.8669 40.3229 50.2069 39.4804 51.5532 39.7879L55.2094 40.6229ZM53.5571 33.3814L50.4396 29.4727L47.5083 31.8089C46.4283 32.6702 46.2508 34.2427 47.1121 35.3227C47.9733 36.4027 49.5458 36.5802 50.6258 35.7189L53.5571 33.3814Z" fill="url(#paint3_linear_7752_3737)"/>
<path d="M16.25 56.25H18.75C19.44 56.25 20 55.69 20 55V47.5C20 46.81 19.44 46.25 18.75 46.25H16.25C15.56 46.25 15 46.81 15 47.5V55C15 55.69 15.56 56.25 16.25 56.25Z" fill="#FFB963"/>
<defs>
<radialGradient id="paint0_radial_7752_3737" cx="0" cy="0" r="1" gradientUnits="userSpaceOnUse" gradientTransform="translate(39.998 40.043) scale(40.3162 33.4874)">
<stop stop-color="#F4E9C3"/>
<stop offset="0.219" stop-color="#F8EECD"/>
<stop offset="0.644" stop-color="#FDF4DC"/>
<stop offset="1" stop-color="#FFF6E1"/>
</radialGradient>
<linearGradient id="paint1_linear_7752_3737" x1="40" y1="12.5" x2="40" y2="67.5" gradientUnits="userSpaceOnUse">
<stop stop-color="#FFB55A"/>
<stop offset="0.525" stop-color="#FF9C23"/>
<stop offset="1" stop-color="#FF8C00"/>
</linearGradient>
<linearGradient id="paint2_linear_7752_3737" x1="41.25" y1="23.75" x2="41.25" y2="56.25" gradientUnits="userSpaceOnUse">
<stop stop-color="#A4A4A4"/>
<stop offset="0.63" stop-color="#7F7F7F"/>
<stop offset="1" stop-color="#6F6F6F"/>
</linearGradient>
<linearGradient id="paint3_linear_7752_3737" x1="41.2492" y1="26.25" x2="41.2492" y2="53.474" gradientUnits="userSpaceOnUse">
<stop stop-color="#A4A4A4"/>
<stop offset="0.63" stop-color="#7F7F7F"/>
<stop offset="1" stop-color="#6F6F6F"/>
</linearGradient>
</defs>
</svg>
