<svg width="90" height="66" viewBox="0 0 90 66" fill="none" xmlns="http://www.w3.org/2000/svg">
<path d="M89.5039 8.8999L84.5039 2.8999L66.5039 8.8999H89.5039Z" fill="#B40710"/>
<path d="M0 26.9991L36.2016 1.54224L84.565 2.86197L0.000439128 65.9989L0 26.9991Z" fill="url(#paint0_radial_701_19)"/>
<path d="M8.86573 40.4961L7.14315 41.7804L6.74901 41.2517C6.56508 41.005 6.4259 40.8643 6.33148 40.8296C6.23706 40.7948 6.13846 40.8158 6.03566 40.8925C5.92405 40.9757 5.87282 41.0847 5.88196 41.2195C5.89404 41.3522 5.96905 41.511 6.107 41.6961C6.28436 41.934 6.45024 42.089 6.60463 42.1613C6.75609 42.2357 7.03923 42.2508 7.45406 42.2066C8.64505 42.0818 9.46489 42.0966 9.91359 42.251C10.3623 42.4054 10.8472 42.8321 11.3684 43.5311C11.7472 44.0392 11.9662 44.4586 12.0253 44.7892C12.0874 45.1176 12.0094 45.4911 11.7913 45.9096C11.571 46.3251 11.2347 46.7015 10.7824 47.0387C10.2861 47.4087 9.7916 47.6312 9.29902 47.706C8.80937 47.7786 8.40182 47.71 8.07637 47.5002C7.75092 47.2905 7.38894 46.9183 6.99041 46.3838L6.64225 45.9168L8.36483 44.6326L9.01188 45.5005C9.21114 45.7677 9.36273 45.922 9.46666 45.9634C9.57352 46.0025 9.68863 45.9761 9.81198 45.8841C9.93534 45.7921 9.99026 45.6758 9.97674 45.5351C9.96616 45.3922 9.8897 45.2253 9.74737 45.0344C9.43425 44.6144 9.17224 44.3825 8.96135 44.3386C8.74752 44.297 8.29728 44.2968 7.61063 44.3381C6.92178 44.3764 6.45101 44.3824 6.19831 44.356C5.9456 44.3296 5.67845 44.2318 5.39684 44.0625C5.11818 43.8909 4.83761 43.6158 4.55514 43.2369C4.14786 42.6906 3.91908 42.2397 3.86881 41.8842C3.82148 41.5265 3.90092 41.1611 4.10714 40.788C4.31117 40.412 4.63347 40.0598 5.07402 39.7313C5.5557 39.3722 6.02344 39.1446 6.47725 39.0484C6.934 38.9501 7.3054 38.9794 7.59143 39.1362C7.87821 39.288 8.23291 39.6473 8.65552 40.2141L8.86573 40.4961ZM7.99644 37.7856L9.8644 36.3929C10.3696 36.0163 10.7868 35.7669 11.1162 35.6448C11.4484 35.5204 11.7379 35.4828 11.9847 35.5319C12.2344 35.5787 12.4627 35.6918 12.6696 35.8712C12.8771 36.0455 13.1473 36.3558 13.4802 36.8022L13.9433 37.4234C14.2827 37.8787 14.4831 38.2456 14.5446 38.5242C14.6061 38.8028 14.5522 39.092 14.3828 39.392C14.2163 39.6897 13.9305 39.9896 13.5252 40.2918L13.0273 40.663L15.1688 43.5354L13.3141 44.9182L7.99644 37.7856ZM10.761 37.6231L12.1142 39.4382C12.1693 39.4017 12.2159 39.3693 12.2541 39.3408C12.4244 39.2138 12.5113 39.0851 12.5146 38.9547C12.5186 38.8191 12.4221 38.6192 12.225 38.3549L11.7882 37.7689C11.6064 37.5252 11.45 37.395 11.3189 37.3785C11.1878 37.362 11.0018 37.4436 10.761 37.6231ZM12.5254 34.4091L15.6181 32.1033L16.6823 33.5307L15.4443 34.4537L16.4526 35.8062L17.6113 34.9424L18.6229 36.2993L17.4643 37.1631L18.6336 38.7315L19.9949 37.7166L21.0591 39.144L17.843 41.5417L12.5254 34.4091ZM22.9284 31.4923L21.0737 32.8751L20.1475 31.6327C19.8781 31.2715 19.6901 31.0621 19.5833 31.0046C19.4772 30.9421 19.3566 30.9611 19.2215 31.0619C19.0688 31.1757 19.0124 31.3023 19.0523 31.4416C19.0922 31.581 19.2468 31.8313 19.5161 32.1925L21.9861 35.5055C22.2445 35.8521 22.4336 36.0629 22.5536 36.138C22.6735 36.2131 22.8055 36.1969 22.9494 36.0896C23.0874 35.9867 23.1376 35.8671 23.0999 35.7307C23.0651 35.5921 22.9021 35.3275 22.6109 34.9369L21.9441 34.0426L23.7988 32.6598L24.0058 32.9373C24.5554 33.6745 24.8923 34.2367 25.0165 34.6239C25.1436 35.009 25.1145 35.4511 24.9291 35.9502C24.7467 36.4472 24.3942 36.8906 23.8714 37.2803C23.328 37.6854 22.8068 37.921 22.3076 37.987C21.8084 38.0529 21.3724 37.9553 20.9995 37.6942C20.6244 37.4301 20.1762 36.9485 19.6551 36.2495L18.1015 34.1656C17.7183 33.6517 17.4491 33.2538 17.2938 32.972C17.1364 32.6872 17.0556 32.3613 17.0515 31.9942C17.0504 31.625 17.1536 31.2578 17.3613 30.8928C17.5697 30.5226 17.8751 30.1876 18.2775 29.8876C18.8238 29.4803 19.3534 29.2499 19.8665 29.1964C20.3795 29.1429 20.8101 29.2332 21.1582 29.4672C21.5041 29.6982 21.9256 30.1471 22.4226 30.8138L22.9284 31.4923ZM23.1296 26.5032L28.4472 33.6358L26.5925 35.0186L21.2748 27.886L23.1296 26.5032ZM27.0769 23.5603L33.4563 29.9013L31.5575 31.3169L30.5092 30.1039L29.844 30.5999L30.6896 31.964L28.7688 33.3961L24.3939 25.5606L27.0769 23.5603ZM29.5137 28.8789C28.8175 28.1413 27.9802 27.2142 27.0015 26.0978C27.8296 27.6007 28.4555 28.6854 28.8793 29.3519L29.5137 28.8789ZM30.3106 21.1494L34.5641 26.8546L35.6919 26.0138L36.7561 27.4412L33.7735 29.6648L28.4559 22.5322L30.3106 21.1494ZM40.8389 19.798C41.3732 20.5147 41.7344 21.0359 41.9225 21.3618C42.1113 21.6825 42.2082 22.033 42.2129 22.4133C42.2206 22.7914 42.1225 23.1593 41.9185 23.517C41.7145 23.8747 41.4114 24.2035 41.009 24.5035C40.6272 24.7882 40.2376 24.9827 39.8401 25.0871C39.4435 25.1863 39.0596 25.1801 38.6884 25.0684C38.3172 24.9567 38.0046 24.7671 37.7503 24.4997C37.4961 24.2323 37.0953 23.7314 36.5479 22.9972L35.6381 21.7768C35.1038 21.0602 34.7422 20.5415 34.5534 20.2208C34.3653 19.8949 34.2674 19.543 34.2597 19.1649C34.2549 18.7846 34.3545 18.4156 34.5585 18.0579C34.7624 17.7002 35.0656 17.3713 35.468 17.0713C35.8498 16.7867 36.2391 16.5947 36.6357 16.4955C37.0331 16.3911 37.4174 16.3948 37.7886 16.5065C38.1597 16.6182 38.4724 16.8077 38.7266 17.0752C38.9809 17.3426 39.3817 17.8434 39.9291 18.5777L40.8389 19.798ZM37.2368 18.8371C36.9894 18.5052 36.8126 18.308 36.7066 18.2454C36.6012 18.1777 36.4913 18.1865 36.3768 18.2719C36.2798 18.3442 36.2334 18.4382 36.2375 18.554C36.2423 18.6646 36.3816 18.9035 36.6553 19.2706L39.1384 22.6012C39.4471 23.0154 39.6538 23.2588 39.7583 23.3317C39.8658 23.4023 39.9813 23.3917 40.1046 23.2997C40.2309 23.2055 40.2701 23.0895 40.2221 22.9516C40.1742 22.8137 39.9936 22.5348 39.6805 22.1148L37.2368 18.8371ZM38.4213 15.1026L41.5624 12.7607L42.6266 14.1881L41.3402 15.1472L42.3485 16.4997L43.494 15.6458L44.5056 17.0027L43.3602 17.8567L45.5937 20.8524L43.7389 22.2352L38.4213 15.1026ZM42.0162 12.4224L45.1574 10.0806L46.2215 11.508L44.9351 12.4671L45.9435 13.8196L47.0889 12.9656L48.1006 14.3225L46.9551 15.1765L49.1886 18.1723L47.3338 19.555L42.0162 12.4224ZM45.6111 9.74226L48.7038 7.43652L49.768 8.86392L48.5301 9.78688L49.5384 11.1394L50.6971 10.2756L51.7087 11.6325L50.5501 12.4963L51.7193 14.0647L53.0807 13.0498L54.1449 14.4772L50.9288 16.8749L45.6111 9.74226ZM49.3647 6.94384L50.6775 5.96505C51.5528 5.31253 52.1698 4.90508 52.5285 4.74272C52.8902 4.57816 53.272 4.56314 53.6738 4.69763C54.0765 4.82701 54.5044 5.19568 54.9577 5.80365C55.3715 6.35875 55.5806 6.78321 55.5849 7.07703C55.5892 7.37085 55.4029 7.68794 55.026 8.0283C55.461 7.84564 55.7986 7.78359 56.0388 7.84216C56.2789 7.90073 56.4619 7.98368 56.5876 8.09102C56.7141 8.19322 56.9919 8.53216 57.4211 9.10782L58.8236 10.989L57.101 12.2732L55.3339 9.90305C55.0492 9.52124 54.8421 9.3078 54.7126 9.26273C54.586 9.21548 54.3949 9.2871 54.1394 9.4776L56.5371 12.6937L54.6823 14.0764L49.3647 6.94384ZM52.1292 6.7814L53.3117 8.3674C53.5202 8.21193 53.6448 8.07564 53.6854 7.95853C53.7268 7.83629 53.6303 7.61803 53.396 7.30377L53.1037 6.91167C52.9351 6.68552 52.7834 6.56786 52.6486 6.55868C52.5168 6.54731 52.3436 6.62155 52.1292 6.7814Z" fill="white"/>
<defs>
<radialGradient id="paint0_radial_701_19" cx="0" cy="0" r="1" gradientUnits="userSpaceOnUse" gradientTransform="translate(29.0039 27.4998) rotate(125.811) scale(48.7083 168.857)">
<stop stop-color="#FF4D4F"/>
<stop offset="1" stop-color="#EE191B"/>
</radialGradient>
</defs>
</svg>
