<svg width="35" height="35" viewBox="0 0 35 35" fill="none" xmlns="http://www.w3.org/2000/svg">
<path d="M31.9799 16.3843C32.0093 16.7934 31.9107 17.2015 31.6977 17.552C31.4847 17.9025 31.1679 18.1779 30.7912 18.3402L23.0075 21.7498L20.6293 29.9078C20.5122 30.299 20.2782 30.6449 19.9588 30.8991C19.6394 31.1534 19.2498 31.3038 18.8423 31.3302C18.4349 31.3565 18.0292 31.2576 17.6797 31.0466C17.3301 30.8356 17.0536 30.5227 16.8871 30.1499L13.4775 22.3663L5.31941 19.988C4.92828 19.8709 4.58235 19.637 4.32809 19.3175C4.07383 18.9981 3.92341 18.6085 3.89706 18.2011C3.8707 17.7937 3.96966 17.3879 4.18065 17.0384C4.39163 16.6889 4.70454 16.4123 5.07732 16.2458L12.8609 12.8362L15.2392 4.67816C15.3563 4.28703 15.5903 3.9411 15.9097 3.68684C16.2291 3.43258 16.6187 3.28216 17.0261 3.25581C17.4336 3.22945 17.8393 3.32841 18.1888 3.5394C18.5383 3.75038 18.8149 4.06329 18.9814 4.43607L22.391 12.2197L30.5491 14.598C30.9435 14.7103 31.2932 14.9427 31.5496 15.2628C31.806 15.5829 31.9564 15.9749 31.9799 16.3843Z" fill="white"/>
</svg>
