<svg width="56" height="55" viewBox="0 0 56 55" fill="none" xmlns="http://www.w3.org/2000/svg">
<rect x="0.666016" width="55" height="55" rx="4" fill="#F4F5F7"/>
<path fill-rule="evenodd" clip-rule="evenodd" d="M30.689 14.1666C32.7002 14.1666 34.3767 15.5994 34.7535 17.4999L26.8317 17.4999C22.7816 17.4999 19.4984 20.7832 19.4984 24.8333L19.4984 35.4206C17.5983 35.0434 16.166 33.3671 16.166 31.3563L16.166 18.3103C16.166 16.0218 18.0212 14.1666 20.3097 14.1666L30.689 14.1666ZM21.4971 23.6438L21.4971 36.6897C21.4971 38.9782 23.3523 40.8334 25.6408 40.8334L30.4474 40.8334C30.6892 40.8334 30.9288 40.8123 31.1637 40.771V38.1666C31.1637 34.6688 33.9993 31.8333 37.4971 31.8333H40.1014C40.1426 31.5983 40.1637 31.3588 40.1637 31.117L40.1637 23.6438C40.1637 21.3553 38.3085 19.5001 36.0201 19.5001L25.6408 19.5001C23.3523 19.5001 21.4971 21.3553 21.4971 23.6438ZM33.3774 39.6198C33.3083 39.6888 33.237 39.7552 33.1637 39.8189V38.1666C33.1637 35.7734 35.1038 33.8333 37.4971 33.8333H39.1493C39.0857 33.9066 39.0192 33.9779 38.9501 34.0471L33.3774 39.6198Z" fill="#268334"/>
</svg>
