<svg width="55" height="55" viewBox="0 0 55 55" fill="none" xmlns="http://www.w3.org/2000/svg">
<rect width="55" height="55" rx="4" fill="#F4F5F7"/>
<path fill-rule="evenodd" clip-rule="evenodd" d="M23.1673 20.5001C23.1673 18.1068 25.1074 16.1667 27.5007 16.1667C29.8939 16.1667 31.834 18.1068 31.834 20.5001V22.1667H23.1673V20.5001ZM21.1673 22.2603V20.5001C21.1673 17.0023 24.0028 14.1667 27.5007 14.1667C30.9985 14.1667 33.834 17.0023 33.834 20.5001V22.2603C36.3015 22.7284 38.1673 24.8964 38.1673 27.5001V35.5001C38.1673 38.4456 35.7795 40.8334 32.834 40.8334H22.1673C19.2218 40.8334 16.834 38.4456 16.834 35.5001V27.5001C16.834 24.8964 18.6998 22.7284 21.1673 22.2603ZM27.5007 29.1667C28.0529 29.1667 28.5007 29.6145 28.5007 30.1667V32.8334C28.5007 33.3857 28.0529 33.8334 27.5007 33.8334C26.9484 33.8334 26.5007 33.3857 26.5007 32.8334V30.1667C26.5007 29.6145 26.9484 29.1667 27.5007 29.1667Z" fill="#268334"/>
</svg>
