<svg width="56" height="55" viewBox="0 0 56 55" fill="none" xmlns="http://www.w3.org/2000/svg">
<rect x="0.332031" width="55" height="55" rx="4" fill="#F4F5F7"/>
<path d="M36.6995 12.2769C36.347 12.2859 36.0173 12.4532 35.802 12.7325C35.5867 13.0117 35.5086 13.3731 35.5895 13.7163L36.0164 15.7168C33.6619 14.1222 30.8202 13.0576 27.8313 13.0576C19.653 13.0576 12.998 19.7125 12.998 27.8908C12.998 36.0692 19.653 42.7241 27.8313 42.7241C36.0096 42.7241 42.6645 36.0692 42.6645 27.8908C42.6733 27.2722 42.1122 26.7076 41.4935 26.7076C40.8748 26.7076 40.3137 27.2722 40.3224 27.8908C40.3224 34.8034 34.7438 40.382 27.8313 40.382C20.9187 40.382 15.3401 34.8034 15.3401 27.8908C15.3401 20.9783 20.9187 15.3997 27.8313 15.3997C30.4162 15.3997 33.0103 16.44 35.1137 17.9614L32.3569 18.1565C31.9181 18.1567 31.5163 18.4022 31.3158 18.7924C31.1153 19.1827 31.1497 19.6523 31.405 20.0091C31.6603 20.366 32.0936 20.5502 32.5277 20.4864L37.9926 20.0961C38.331 20.0719 38.6423 19.902 38.8459 19.6306C39.0495 19.3591 39.1253 19.0127 39.0538 18.6811L37.8828 13.2162C37.77 12.6565 37.2701 12.2598 36.6995 12.2769Z" fill="#268334"/>
<path d="M28.555 33.5896C29.2745 33.5896 29.7361 33.1008 29.7361 32.3814C29.7361 32.3135 29.7225 32.2456 29.7089 32.1777L29.4103 29.802L31.4059 31.3225C31.6502 31.5261 31.9217 31.6347 32.234 31.6347C32.8449 31.6347 33.4014 31.1053 33.4014 30.4129C33.4014 29.9106 33.1028 29.5034 32.5733 29.2997L30.252 28.2952L32.5733 27.2906C33.1028 27.0869 33.4014 26.6797 33.4014 26.1774C33.4014 25.485 32.8584 24.9692 32.234 24.9692C31.9217 24.9692 31.6502 25.0778 31.4059 25.2814L29.3831 26.8019L29.6954 24.3447C29.7089 24.2768 29.7225 24.209 29.7225 24.1411C29.7225 23.4216 29.2609 22.9329 28.555 22.9329C27.822 22.9329 27.3332 23.4487 27.3332 24.1546C27.3332 24.2225 27.3468 24.2768 27.3604 24.3447L27.6726 26.8019L25.6499 25.2678C25.4191 25.0778 25.134 24.9692 24.8218 24.9692C24.2109 24.9692 23.6543 25.4986 23.6543 26.1774C23.6543 26.6797 23.953 27.0734 24.4824 27.2906L26.7902 28.2952L24.4824 29.2862C23.9665 29.5034 23.6543 29.9106 23.6543 30.4129C23.6543 31.1053 24.2109 31.6211 24.8218 31.6211C25.1204 31.6211 25.4055 31.5261 25.6499 31.3225L27.659 29.802L27.3468 32.1777C27.3332 32.2456 27.3332 32.3135 27.3332 32.3814C27.3197 33.0873 27.8084 33.5896 28.555 33.5896Z" fill="#268334"/>
</svg>
