<svg width="56" height="55" viewBox="0 0 56 55" fill="none" xmlns="http://www.w3.org/2000/svg">
<rect x="0.666016" width="55" height="55" rx="4" fill="#F4F5F7"/>
<path d="M18.0918 24.5693H20.7476C21.5413 22.524 23.1897 20.9061 25.235 20.0819V17.4261C21.816 18.4335 19.0992 21.1504 18.0918 24.5693Z" fill="#268334"/>
<path d="M38.2396 30.4298H35.5838C34.7901 32.4751 33.1417 34.093 31.127 34.8867V37.573C34.5154 36.5656 37.2322 33.8488 38.2396 30.4298Z" fill="#268334"/>
<path d="M20.7476 30.4298H18.0918C19.0992 33.8793 21.816 36.5656 25.235 37.573V34.9172C23.1897 34.093 21.5718 32.4751 20.7476 30.4298Z" fill="#268334"/>
<path d="M35.5831 24.5693H38.2389C37.2315 21.1504 34.5452 18.4335 31.0957 17.4261V20.0819C33.141 20.9061 34.7589 22.524 35.5831 24.5693Z" fill="#268334"/>
<path d="M41.4144 26.2484H32.4397C32.0123 24.7832 30.8829 23.6537 29.4176 23.2263V14.2516C29.4176 13.5495 28.8681 13 28.166 13C27.4639 13 26.9144 13.5495 26.9144 14.2516V23.2263C25.4492 23.6537 24.3197 24.7832 23.8923 26.2484H14.9176C14.2155 26.2484 13.666 26.7979 13.666 27.5C13.666 28.2021 14.2155 28.7516 14.9176 28.7516H23.8923C24.3197 30.2168 25.4492 31.3463 26.9144 31.7737V40.7484C26.9144 41.4505 27.4639 42 28.166 42C28.8681 42 29.4176 41.4505 29.4176 40.7484V31.7737C30.8829 31.3463 32.0123 30.2168 32.4397 28.7516H41.4144C42.1165 28.7516 42.666 28.2021 42.666 27.5C42.666 26.7979 42.1165 26.2484 41.4144 26.2484Z" fill="#268334"/>
<path d="M14.9176 22.7684C15.6197 22.7684 16.1692 22.2189 16.1692 21.5168V17.6095C16.1692 16.4495 17.1155 15.5032 18.2755 15.5032H22.1523C22.8544 15.5032 23.4039 14.9537 23.4039 14.2516C23.4039 13.5495 22.8544 13 22.1523 13H18.2755C15.7418 13 13.666 15.0758 13.666 17.6095V21.4863C13.666 22.1884 14.2155 22.7684 14.9176 22.7684Z" fill="#268334"/>
<path d="M41.4153 32.2322C40.7132 32.2322 40.1637 32.7817 40.1637 33.4838V37.3606C40.1637 38.5206 39.2174 39.4669 38.0574 39.4669H34.15C33.4479 39.4669 32.8984 40.0164 32.8984 40.7185C32.8984 41.4206 33.4479 41.9701 34.15 41.9701H38.0269C40.5605 41.9701 42.6363 39.8943 42.6363 37.3606V33.4838C42.6669 32.8122 42.1174 32.2322 41.4153 32.2322Z" fill="#268334"/>
<path d="M38.0574 13H34.15C33.4479 13 32.8984 13.5495 32.8984 14.2516C32.8984 14.9537 33.4479 15.5032 34.15 15.5032H38.0269C39.1869 15.5032 40.1332 16.4495 40.1332 17.6095V21.4863C40.1332 22.1884 40.6826 22.7379 41.3848 22.7379C42.0869 22.7379 42.6363 22.1884 42.6363 21.4863V17.6095C42.6669 15.0758 40.5911 13 38.0574 13Z" fill="#268334"/>
<path d="M22.1829 39.4669H18.2755C17.1155 39.4669 16.1692 38.5206 16.1692 37.3606V33.4838C16.1692 32.7817 15.6197 32.2322 14.9176 32.2322C14.2155 32.2322 13.666 32.7817 13.666 33.4838V37.3606C13.666 39.8943 15.7418 41.9701 18.2755 41.9701H22.1523C22.8544 41.9701 23.4039 41.4206 23.4039 40.7185C23.4039 40.0164 22.8544 39.4669 22.1829 39.4669Z" fill="#268334"/>
</svg>
