<svg width="55" height="55" viewBox="0 0 55 55" fill="none" xmlns="http://www.w3.org/2000/svg">
<rect width="55" height="55" rx="4" fill="#F4F5F7"/>
<path fill-rule="evenodd" clip-rule="evenodd" d="M40.042 25.9979H45.8279C46.3751 25.9979 46.8187 26.4589 46.8187 27.0276C46.8187 27.5962 46.3751 28.0573 45.8279 28.0573H38.972C38.7831 28.3275 38.5744 28.5823 38.3478 28.8192L30.0949 37.3965C28.9345 38.6011 27.0546 38.6011 25.8942 37.3965L17.6413 28.8192C17.4147 28.5823 17.206 28.3275 17.0171 28.0573H9.17043C8.62326 28.0573 8.17969 27.5962 8.17969 27.0276C8.17969 26.4589 8.62326 25.9979 9.17043 25.9979H15.9867C14.9348 22.9391 16.0684 19.5314 18.7133 17.8009C21.3583 16.0705 24.8049 16.4817 27.0038 18.79L27.9945 19.8197L28.9853 18.79C31.1814 16.454 34.6476 16.0255 37.3097 17.7609C39.9719 19.4964 41.1095 22.9261 40.042 25.9979ZM21.9889 18.7898C20.6479 18.8522 19.3965 19.508 18.5511 20.5918C17.3801 22.1391 17.1975 24.2587 18.0854 25.9976H20.5226L23.4057 21.5185L25.2782 28.3144L26.3878 25.9976H31.3416L33.9373 20.6021L36.5331 25.9976H37.9003C38.7882 24.2587 38.6056 22.1391 37.4346 20.5918C36.587 19.5192 35.343 18.8684 34.0091 18.7997C32.6753 18.7311 31.3755 19.251 30.4301 20.2314L27.9929 22.7644L25.5556 20.2314C24.6693 19.3054 23.4636 18.7864 22.2069 18.7898H21.9889ZM21.5932 28.0571L22.6731 26.3582L24.5159 33.0511L19.7108 28.0571H21.5932ZM27.9938 36.2392C28.2579 36.2392 28.5112 36.1296 28.6972 35.9346L36.2962 28.0575H35.3054L33.9382 25.2156L32.571 28.0575H27.6173L25.0215 33.5355L27.2903 35.9346C27.4764 36.1296 27.7296 36.2392 27.9938 36.2392Z" fill="#268334"/>
</svg>
