<svg width="56" height="55" viewBox="0 0 56 55" fill="none" xmlns="http://www.w3.org/2000/svg">
<rect x="0.332031" width="55" height="55" rx="4" fill="#F4F5F7"/>
<path fill-rule="evenodd" clip-rule="evenodd" d="M19.8314 14.1667C16.8859 14.1667 14.498 16.5546 14.498 19.5001V35.5001C14.498 38.4456 16.8859 40.8334 19.8314 40.8334H35.8314C38.7769 40.8334 41.1647 38.4456 41.1647 35.5001V19.5001C41.1647 16.5546 38.7769 14.1667 35.8314 14.1667H19.8314ZM29.7194 21.3348C29.2599 21.0285 28.639 21.1526 28.3327 21.6122C28.0263 22.0717 28.1505 22.6926 28.61 22.9989L30.2454 24.0892C28.4381 24.4118 26.7142 25.0431 25.2767 26.0015C23.0462 27.4885 21.498 29.7789 21.498 32.8335C21.498 33.3858 21.9458 33.8335 22.498 33.8335C23.0503 33.8335 23.498 33.3858 23.498 32.8335C23.498 30.5548 24.6166 28.8453 26.3861 27.6656C27.7144 26.78 29.4037 26.2034 31.2103 25.9623L29.666 28.2788C29.3596 28.7383 29.4838 29.3592 29.9433 29.6656C30.4029 29.9719 31.0237 29.8478 31.3301 29.3882L33.9968 25.3882C34.3031 24.9287 34.1789 24.3078 33.7194 24.0015L29.7194 21.3348Z" fill="#268334"/>
</svg>
