<svg width="41" height="41" viewBox="0 0 41 41" fill="none" xmlns="http://www.w3.org/2000/svg">
<path d="M25.2789 26.5089C26.2345 28.1672 27.1795 29.8067 28.1238 31.4445C23.9424 34.6457 17.4369 35.0326 12.6211 31.3461C7.07909 27.1004 6.16821 19.856 9.13531 14.6412C12.5479 8.64304 18.934 7.31651 23.0457 8.28921C22.9345 8.53078 20.4719 13.6397 20.4719 13.6397C20.4719 13.6397 20.2772 13.6525 20.1671 13.6546C18.9518 13.7062 18.0466 13.9889 17.0764 14.4906C16.0119 15.046 15.0997 15.8537 14.4195 16.8431C13.7393 17.8325 13.3117 18.9734 13.1742 20.1661C13.0308 21.3758 13.198 22.602 13.6602 23.729C14.051 24.6818 14.6038 25.528 15.3448 26.2425C16.4817 27.3395 17.8345 28.0187 19.4026 28.2436C20.8876 28.4568 22.3157 28.2457 23.6539 27.5732C24.1559 27.3214 24.5829 27.0432 25.0821 26.6617C25.1457 26.6204 25.2021 26.5682 25.2789 26.5089Z" fill="#FF492C"/>
<path d="M25.2882 11.965C25.0455 11.7262 24.8206 11.506 24.5968 11.2843C24.4633 11.1521 24.3347 11.0147 24.1979 10.8857C24.1489 10.8392 24.0913 10.7756 24.0913 10.7756C24.0913 10.7756 24.1378 10.6768 24.1577 10.6363C24.4196 10.1109 24.8299 9.72685 25.3166 9.42133C25.8548 9.08092 26.4818 8.90771 27.1184 8.92361C27.933 8.9396 28.6905 9.14245 29.3296 9.68883C29.8013 10.0921 30.0433 10.6036 30.0859 11.2143C30.157 12.2446 29.7306 13.0336 28.8841 13.5842C28.3867 13.9082 27.8503 14.1587 27.3124 14.4553C27.0158 14.6191 26.7621 14.763 26.4722 15.0592C26.2172 15.3566 26.2047 15.6369 26.2047 15.6369L30.0582 15.6319V17.3482H24.1101V17.1823C24.0874 16.3389 24.1858 15.5452 24.572 14.7793C24.9272 14.0766 25.4793 13.5622 26.1426 13.1661C26.6534 12.8609 27.1913 12.6012 27.7032 12.2975C28.019 12.1103 28.2421 11.8356 28.2403 11.4374C28.2403 11.0957 27.9917 10.7919 27.6364 10.6971C26.7987 10.4711 25.9461 10.8317 25.5027 11.5983C25.4381 11.7102 25.372 11.8214 25.2882 11.965ZM32.7418 24.6846L29.4944 19.0765H23.0682L19.7998 24.7425H26.2733L29.4678 30.3239L32.7418 24.6846Z" fill="#FF492C"/>
</svg>
