<svg width="121" height="41" viewBox="0 0 121 41" fill="none" xmlns="http://www.w3.org/2000/svg">
<path fill-rule="evenodd" clip-rule="evenodd" d="M5.81688 11.4529C5.53452 11.7576 5.37161 12.2229 5.37199 12.8319L5.38533 34.43C5.38571 35.0389 5.54919 35.5041 5.84167 35.7962L5.91722 35.8619L18.0107 23.7534L18.0106 23.4831L5.89235 11.3871L5.81688 11.4529Z" fill="url(#paint0_linear_1230_39742)"/>
<path fill-rule="evenodd" clip-rule="evenodd" d="M22.0413 27.7968L18.0027 23.7632L18.0025 23.4807L22.0361 19.4421L22.1238 19.4956L26.8996 22.2061C28.2666 22.975 28.2674 24.2465 26.9014 25.0268L22.1289 27.7432L22.0413 27.7968Z" fill="url(#paint1_linear_1230_39742)"/>
<path fill-rule="evenodd" clip-rule="evenodd" d="M22.128 27.7431L18.0017 23.6219L5.83272 35.8059C6.27876 36.283 7.02658 36.3361 7.86177 35.8704L22.128 27.7431Z" fill="url(#paint2_linear_1230_39742)"/>
<path fill-rule="evenodd" clip-rule="evenodd" d="M22.1219 19.4955L7.84562 11.398C7.00985 10.9211 6.25967 10.9873 5.81665 11.465L18.0007 23.6218L22.1219 19.4955Z" fill="url(#paint3_linear_1230_39742)"/>
<path opacity="0.2" fill-rule="evenodd" clip-rule="evenodd" d="M22.0407 27.6555L7.87188 35.717C7.08053 36.173 6.37413 36.1417 5.91838 35.7279L5.84292 35.8035L5.91847 35.8692C6.37422 36.2806 7.08061 36.3142 7.87196 35.8583L22.1382 27.7431L22.0407 27.6555Z" fill="black"/>
<path opacity="0.12" fill-rule="evenodd" clip-rule="evenodd" d="M26.9012 24.8854L22.0289 27.6555L22.1166 27.7431L26.8891 25.0267C27.5733 24.6366 27.9091 24.1248 27.9088 23.6157C27.8677 24.0834 27.5196 24.527 26.9012 24.8854Z" fill="black"/>
<path opacity="0.25" fill-rule="evenodd" clip-rule="evenodd" d="M7.84614 11.5395L26.8982 22.3475C27.5171 22.6954 27.8657 23.1507 27.9196 23.6159C27.9193 23.1068 27.5828 22.5955 26.8981 22.2062L7.84606 11.3982C6.4791 10.6172 5.37122 11.2706 5.37218 12.832L5.37227 12.9732C5.3713 11.4095 6.47919 10.7682 7.84614 11.5395Z" fill="#5F6368"/>
<path fill-rule="evenodd" clip-rule="evenodd" d="M60.1645 19.8914C57.8627 19.8928 55.998 21.6404 55.9994 24.0494C56.0009 26.4364 57.88 28.2037 60.1696 28.2023C62.4715 28.2008 64.3362 26.441 64.3347 24.0442C64.3332 21.6352 62.4663 19.8899 60.1645 19.8914ZM60.1686 26.5557C58.9093 26.5564 57.8247 25.5146 57.8238 24.0385C57.8229 22.5405 58.9086 21.5192 60.1655 21.5185C61.4248 21.5177 62.5094 22.5376 62.5103 24.0356C62.5136 25.5214 61.4279 26.5549 60.1686 26.5557ZM51.0717 19.897C48.7699 19.8984 46.9052 21.646 46.9067 24.055C46.9081 26.4421 48.7872 28.2093 51.0769 28.2079C53.3787 28.2064 55.2434 26.4467 55.2419 24.0498C55.2404 21.6409 53.3711 19.8956 51.0717 19.897ZM51.0758 26.5613C49.8165 26.5621 48.732 25.5202 48.7311 24.0441C48.7301 22.5461 49.8159 21.5249 51.0727 21.5241C52.332 21.5233 53.4166 22.5432 53.4175 24.0412C53.4184 25.5271 52.3351 26.5605 51.0758 26.5613ZM40.2527 21.1727L40.2538 22.9313L44.475 22.9287C44.3466 23.9153 44.0206 24.6438 43.5216 25.1434C42.9033 25.7625 41.9489 26.4354 40.2657 26.4364C37.6716 26.438 35.6413 24.3445 35.6397 21.7504C35.6381 19.1563 37.6658 17.0603 40.2599 17.0587C41.6605 17.0578 42.6815 17.6101 43.4394 18.316L44.6858 17.0681C43.6329 16.0603 42.2318 15.2891 40.2686 15.2903C36.7099 15.2925 33.7254 18.1929 33.7276 21.7418C33.7298 25.3005 36.7154 28.1875 40.2766 28.1853C42.1984 28.1841 43.64 27.5548 44.7792 26.3703C45.9404 25.2077 46.3072 23.5682 46.3063 22.2456C46.3061 21.8339 46.2742 21.4637 46.2082 21.1495L40.2503 21.1532C40.2527 21.1508 40.2527 21.1727 40.2527 21.1727ZM84.5094 22.5143C84.1605 21.5816 83.1072 19.8674 80.9491 19.8688C78.8104 19.8701 77.0334 21.5543 77.0349 24.0266C77.0363 26.3601 78.7961 28.181 81.1612 28.1795C83.0611 28.1784 84.1663 27.0158 84.6213 26.3335L83.2104 25.3893C82.7432 26.0838 82.0931 26.5397 81.17 26.5402C80.2371 26.5408 79.584 26.1174 79.1499 25.2822L84.7045 22.9769C84.7045 22.9794 84.5094 22.5143 84.5094 22.5143ZM78.8446 23.9062C78.7998 22.301 80.0902 21.4842 81.0134 21.4837C81.7417 21.4832 82.3484 21.8409 82.5558 22.362L78.8446 23.9062ZM74.3336 27.9353L76.158 27.9342L76.1504 15.726L74.326 15.7271L74.3336 27.9353ZM71.3332 20.8076L71.2674 20.8077C70.8554 20.3183 70.0733 19.8755 69.0746 19.8761C67.0017 19.8774 65.0932 21.703 65.0947 24.0462C65.0961 26.3797 66.9971 28.181 69.0797 28.1797C70.0662 28.1791 70.86 27.7328 71.2714 27.2333L71.3371 27.2332L71.3375 27.83C71.3385 29.4157 70.4913 30.2712 69.1249 30.272C68.0068 30.2727 67.3121 29.4693 67.0292 28.7972L65.4439 29.4607C65.9001 30.5566 67.1164 31.9125 69.1234 31.9113C71.2621 31.91 73.0735 30.6496 73.0716 27.578L73.067 20.1221L71.3425 20.1232L71.3429 20.8076C71.3453 20.8076 71.3332 20.8076 71.3332 20.8076ZM69.2419 26.5501C67.9826 26.5508 66.9297 25.4992 66.9288 24.0451C66.9279 22.5787 67.9795 21.5161 69.2388 21.5153C70.4859 21.5145 71.4536 22.5881 71.4545 24.0423C71.4676 25.4964 70.4915 26.5493 69.2419 26.5501ZM93.0475 15.7156L88.685 15.7183L88.6925 27.9264L90.5169 27.9253L90.5141 23.3022L93.0546 23.3006C95.0739 23.2994 97.0581 21.8342 97.0567 19.5105C97.0553 17.1868 95.0765 15.7143 93.0475 15.7156ZM93.1047 21.5955L90.5106 21.5971L90.508 17.4076L93.1021 17.406C94.4686 17.4051 95.2414 18.5324 95.242 19.4994C95.2426 20.4567 94.4614 21.5947 93.1047 21.5955ZM104.369 19.8421C103.044 19.8429 101.678 20.4308 101.114 21.7099L102.731 22.3812C103.079 21.7087 103.717 21.4794 104.392 21.4789C105.337 21.4784 106.292 22.0429 106.315 23.0513L106.315 23.1804C105.988 22.9955 105.272 22.7133 104.415 22.7139C102.668 22.715 100.898 23.6709 100.899 25.4612C100.9 27.1005 102.333 28.1518 103.929 28.1509C105.154 28.1501 105.828 27.5968 106.249 26.9559L106.315 26.9558L106.315 27.9009L108.074 27.8998L108.071 23.2231C108.07 21.0455 106.452 19.8408 104.369 19.8421ZM104.144 26.5285C103.548 26.5289 102.712 26.2371 102.711 25.4869C102.711 24.5418 103.753 24.1831 104.642 24.1825C105.446 24.182 105.826 24.3547 106.304 24.5931C106.173 25.6893 105.248 26.5181 104.144 26.5285ZM114.485 20.0965L112.394 25.3932L112.328 25.3932L110.154 20.0992L108.191 20.1004L111.452 27.5007L109.599 31.6159L111.499 31.6147L116.502 20.0952L114.485 20.0965ZM98.0679 27.9206L99.8923 27.9195L99.8847 15.7114L98.0603 15.7125L98.0679 27.9206Z" fill="#5F6368"/>
<defs>
<linearGradient id="paint0_linear_1230_39742" x1="16.9184" y1="12.5917" x2="-2.46211" y2="17.7685" gradientUnits="userSpaceOnUse">
<stop stop-color="#00A0FF"/>
<stop offset="0.00657" stop-color="#00A1FF"/>
<stop offset="0.2601" stop-color="#00BEFF"/>
<stop offset="0.5122" stop-color="#00D2FF"/>
<stop offset="0.7604" stop-color="#00DFFF"/>
<stop offset="1" stop-color="#00E3FF"/>
</linearGradient>
<linearGradient id="paint1_linear_1230_39742" x1="28.6825" y1="23.6154" x2="5.04822" y2="23.63" gradientUnits="userSpaceOnUse">
<stop stop-color="#FFE000"/>
<stop offset="0.4087" stop-color="#FFBD00"/>
<stop offset="0.7754" stop-color="#FFA500"/>
<stop offset="1" stop-color="#FF9C00"/>
</linearGradient>
<linearGradient id="paint2_linear_1230_39742" x1="19.8845" y1="25.8646" x2="4.33956" y2="52.0649" gradientUnits="userSpaceOnUse">
<stop stop-color="#FF3A44"/>
<stop offset="1" stop-color="#C31162"/>
</linearGradient>
<linearGradient id="paint3_linear_1230_39742" x1="2.74603" y1="4.27087" x2="9.6957" y2="15.9637" gradientUnits="userSpaceOnUse">
<stop stop-color="#32A071"/>
<stop offset="0.0685" stop-color="#2DA771"/>
<stop offset="0.4762" stop-color="#15CF74"/>
<stop offset="0.8009" stop-color="#06E775"/>
<stop offset="1" stop-color="#00F076"/>
</linearGradient>
</defs>
</svg>
