<svg width="35" height="38" viewBox="0 0 35 38" fill="none" xmlns="http://www.w3.org/2000/svg">
<path fill-rule="evenodd" clip-rule="evenodd" d="M19.0235 27.916C14.425 28.1292 9.84494 27.2034 5.69019 25.2209L6.53108 23.8876C10.4537 25.6356 14.7352 26.4277 19.0235 26.1987C19.0235 26.3445 19.2013 23.4734 19.4591 21.9089H13.4093C13.8928 15.9926 15.7382 10.2683 18.8013 5.18359H0.667969V32.7854H19.7186C19.3867 31.1782 19.1546 29.5519 19.0235 27.916Z" fill="#C6E9FA"/>
<path fill-rule="evenodd" clip-rule="evenodd" d="M20.8495 26.0999C23.6444 25.9256 26.3664 25.1365 28.8211 23.7887L29.8647 25.1221C27.0808 26.6405 24.0099 27.5592 20.8495 27.819C20.9368 29.501 21.1995 31.1693 21.6335 32.7967H34.6771V5.19141H20.7926C17.9004 9.68068 16.0939 14.782 15.5162 20.091H21.7491C21.228 22.0515 20.9263 24.0638 20.8495 26.091V26.0999ZM8.9082 9.36563H10.6771V13.4527H8.9082V9.36563Z" fill="#00ADEE"/>
<path fill-rule="evenodd" clip-rule="evenodd" d="M23.6348 9.37891H25.4019V13.466H23.6348V9.37891Z" fill="#231F20"/>
<path fill-rule="evenodd" clip-rule="evenodd" d="M20.8521 26.1137C23.647 25.9395 26.369 25.1503 28.8237 23.8026L29.8672 25.1359C27.0834 26.6544 24.0125 27.5731 20.8521 27.8328C20.9908 30.986 21.812 34.0715 23.2592 36.8764L21.7517 37.6693C18.9979 33.3226 18.5054 27.4666 19.4619 21.9306H13.4121C14.0399 13.9842 17.1381 6.43325 22.2726 0.335938L23.5774 1.4666C19.053 6.71191 16.241 13.2155 15.5188 20.1048H21.7517C21.2306 22.0653 20.9289 24.0777 20.8521 26.1048V26.1137Z" fill="#231F20"/>
<path fill-rule="evenodd" clip-rule="evenodd" d="M19.0247 26.2362V27.9464C14.4262 28.1596 9.84615 27.2338 5.69141 25.2513L6.53229 23.918C10.4549 25.666 14.7364 26.4581 19.0247 26.2291V26.2362Z" fill="#00ADEE"/>
</svg>
