<svg width="64" height="64" viewBox="0 0 64 64" fill="none" xmlns="http://www.w3.org/2000/svg">
<rect x="0.181818" y="0.181818" width="63.6364" height="63.6364" rx="31.8182" fill="white"/>
<rect x="0.181818" y="0.181818" width="63.6364" height="63.6364" rx="31.8182" fill="white" fill-opacity="0.8"/>
<path fill-rule="evenodd" clip-rule="evenodd" d="M32 28.3333C32.5523 28.3333 33 28.781 33 29.3333V34.6666C33 35.2189 32.5523 35.6666 32 35.6666C31.4477 35.6666 31 35.2189 31 34.6666V29.3333C31 28.781 31.4477 28.3333 32 28.3333Z" fill="#3DB249"/>
<path fill-rule="evenodd" clip-rule="evenodd" d="M32 25.6667C29.975 25.6667 28.3334 27.3083 28.3334 29.3334V38.0196C28.3334 40.4066 27.3851 42.6958 25.6973 44.3836L25.3738 44.7071C24.9833 45.0977 24.3501 45.0977 23.9596 44.7071C23.5691 44.3166 23.5691 43.6834 23.9596 43.2929L24.2831 42.9694C25.5959 41.6566 26.3334 39.8762 26.3334 38.0196V29.3334C26.3334 26.2037 28.8704 23.6667 32 23.6667C35.1296 23.6667 37.6667 26.2037 37.6667 29.3334V38.0196C37.6667 40.4066 36.7185 42.6958 35.0306 44.3836L34.7071 44.7071C34.3166 45.0977 33.6834 45.0977 33.2929 44.7071C32.9024 44.3166 32.9024 43.6834 33.2929 43.2929L33.6164 42.9694C34.9292 41.6566 35.6667 39.8762 35.6667 38.0196V29.3334C35.6667 27.3083 34.0251 25.6667 32 25.6667Z" fill="#08090A"/>
<path fill-rule="evenodd" clip-rule="evenodd" d="M32 21C27.3976 21 23.6667 24.731 23.6667 29.3333V38.6667C23.6667 39.219 23.219 39.6667 22.6667 39.6667C22.1144 39.6667 21.6667 39.219 21.6667 38.6667V29.3333C21.6667 23.6264 26.2931 19 32 19C37.707 19 42.3334 23.6264 42.3334 29.3333V38.6667C42.3334 39.219 41.8856 39.6667 41.3334 39.6667C40.7811 39.6667 40.3334 39.219 40.3334 38.6667V29.3333C40.3334 24.731 36.6024 21 32 21Z" fill="#3DB249"/>
<rect x="0.181818" y="0.181818" width="63.6364" height="63.6364" rx="31.8182" stroke="#FF9800" stroke-width="0.363636"/>
</svg>
