<svg width="65" height="64" viewBox="0 0 65 64" fill="none" xmlns="http://www.w3.org/2000/svg">
<rect x="0.681818" y="0.181818" width="63.6364" height="63.6364" rx="31.8182" fill="white"/>
<rect x="0.681818" y="0.181818" width="63.6364" height="63.6364" rx="31.8182" fill="white" fill-opacity="0.8"/>
<path d="M32 38.5C34.7614 38.5 37 36.2614 37 33.5C37 30.7386 34.7614 28.5 32 28.5C29.2386 28.5 27 30.7386 27 33.5C27 36.2614 29.2386 38.5 32 38.5Z" stroke="black" stroke-width="2" stroke-linecap="round" stroke-linejoin="round"/>
<path d="M40.5 30.5C41.6647 30.4981 42.8137 30.7683 43.8554 31.2892C44.8972 31.81 45.8028 32.5671 46.5 33.5" stroke="#69A757" stroke-width="2" stroke-linecap="round" stroke-linejoin="round"/>
<path d="M17.5 33.5C18.1972 32.5671 19.1028 31.81 20.1446 31.2892C21.1863 30.7683 22.3353 30.4981 23.5 30.5" stroke="#69A757" stroke-width="2" stroke-linecap="round" stroke-linejoin="round"/>
<path d="M24.8 43C25.4585 41.6513 26.4826 40.5148 27.7555 39.7197C29.0285 38.9247 30.4992 38.5032 32 38.5032C33.5008 38.5032 34.9715 38.9247 36.2444 39.7197C37.5174 40.5148 38.5415 41.6513 39.2 43" stroke="black" stroke-width="2" stroke-linecap="round" stroke-linejoin="round"/>
<path d="M23.5 30.5C22.7408 30.5008 21.9971 30.2855 21.3557 29.8792C20.7143 29.473 20.2018 28.8927 19.878 28.206C19.5542 27.5193 19.4325 26.7546 19.5271 26.0014C19.6218 25.2481 19.9288 24.5373 20.4124 23.9521C20.896 23.3668 21.5362 22.9313 22.2581 22.6963C22.9801 22.4614 23.754 22.4368 24.4894 22.6253C25.2248 22.8139 25.8913 23.2078 26.4112 23.7611C26.931 24.3144 27.2827 25.0043 27.425 25.75" stroke="#69A757" stroke-width="2" stroke-linecap="round" stroke-linejoin="round"/>
<path d="M36.575 25.75C36.7173 25.0043 37.069 24.3144 37.5888 23.7611C38.1087 23.2078 38.7752 22.8139 39.5106 22.6253C40.246 22.4368 41.0199 22.4614 41.7419 22.6963C42.4638 22.9313 43.104 23.3668 43.5876 23.9521C44.0712 24.5373 44.3782 25.2481 44.4729 26.0014C44.5675 26.7546 44.4458 27.5193 44.122 28.206C43.7982 28.8927 43.2857 29.473 42.6443 29.8792C42.0029 30.2855 41.2592 30.5008 40.5 30.5" stroke="#69A757" stroke-width="2" stroke-linecap="round" stroke-linejoin="round"/>
<rect x="0.681818" y="0.181818" width="63.6364" height="63.6364" rx="31.8182" stroke="#FF9800" stroke-width="0.363636"/>
</svg>
