<svg width="65" height="64" viewBox="0 0 65 64" fill="none" xmlns="http://www.w3.org/2000/svg">
<rect x="0.681818" y="0.181818" width="63.6364" height="63.6364" rx="31.8182" fill="white"/>
<rect x="0.681818" y="0.181818" width="63.6364" height="63.6364" rx="31.8182" fill="white" fill-opacity="0.8"/>
<path d="M22 30.3375V23C22 22.7348 22.1054 22.4804 22.2929 22.2929C22.4804 22.1054 22.7348 22 23 22H43C43.2652 22 43.5196 22.1054 43.7071 22.2929C43.8946 22.4804 44 22.7348 44 23V30.3375C44 40.8375 35.0875 44.3125 33.3125 44.9C33.1109 44.9747 32.8891 44.9747 32.6875 44.9C30.9125 44.3125 22 40.8375 22 30.3375Z" stroke="black" stroke-width="2" stroke-linecap="round" stroke-linejoin="round"/>
<path d="M33 28V33" stroke="#69A757" stroke-width="2" stroke-linecap="round" stroke-linejoin="round"/>
<path d="M34.4375 37.5C34.4375 38.2939 33.7939 38.9375 33 38.9375C32.2061 38.9375 31.5625 38.2939 31.5625 37.5C31.5625 36.7061 32.2061 36.0625 33 36.0625C33.7939 36.0625 34.4375 36.7061 34.4375 37.5Z" fill="#69A757" stroke="#69A757" stroke-width="0.125"/>
<rect x="0.681818" y="0.181818" width="63.6364" height="63.6364" rx="31.8182" stroke="#FF9800" stroke-width="0.363636"/>
</svg>
