<svg width="64" height="64" viewBox="0 0 64 64" fill="none" xmlns="http://www.w3.org/2000/svg">
<rect x="0.181818" y="0.181818" width="63.6364" height="63.6364" rx="31.8182" fill="white"/>
<rect x="0.181818" y="0.181818" width="63.6364" height="63.6364" rx="31.8182" fill="white" fill-opacity="0.8"/>
<path d="M35.5875 43H22C21.7348 43 21.4804 42.8946 21.2929 42.7071C21.1054 42.5196 21 42.2652 21 42V22C21 21.7348 21.1054 21.4804 21.2929 21.2929C21.4804 21.1054 21.7348 21 22 21H42C42.2652 21 42.5196 21.1054 42.7071 21.2929C42.8946 21.4804 43 21.7348 43 22V35.5875C43.0005 35.7174 42.9753 35.846 42.926 35.9661C42.8766 36.0862 42.8041 36.1955 42.7125 36.2875L36.2875 42.7125C36.1955 42.8041 36.0862 42.8766 35.9661 42.926C35.846 42.9753 35.7174 43.0005 35.5875 43V43Z" stroke="black" stroke-width="2" stroke-linecap="round" stroke-linejoin="round"/>
<path d="M42.9125 36H36V42.9125" stroke="#69A757" stroke-width="2" stroke-linecap="round" stroke-linejoin="round"/>
<rect x="0.181818" y="0.181818" width="63.6364" height="63.6364" rx="31.8182" stroke="#FF9800" stroke-width="0.363636"/>
</svg>
