<svg width="65" height="64" viewBox="0 0 65 64" fill="none" xmlns="http://www.w3.org/2000/svg">
<rect x="0.681818" y="0.181818" width="63.6364" height="63.6364" rx="31.8182" fill="white"/>
<rect x="0.681818" y="0.181818" width="63.6364" height="63.6364" rx="31.8182" fill="white" fill-opacity="0.8"/>
<path fill-rule="evenodd" clip-rule="evenodd" d="M24 20.6667C21.6068 20.6667 19.6667 22.6068 19.6667 25V27.6667C19.6667 28.219 19.2189 28.6667 18.6667 28.6667C18.1144 28.6667 17.6667 28.219 17.6667 27.6667V25C17.6667 21.5022 20.5022 18.6667 24 18.6667H26.6667C27.2189 18.6667 27.6667 19.1144 27.6667 19.6667C27.6667 20.219 27.2189 20.6667 26.6667 20.6667H24ZM36.3333 19.6667C36.3333 19.1144 36.781 18.6667 37.3333 18.6667H40C43.4978 18.6667 46.3333 21.5022 46.3333 25V27.6667C46.3333 28.219 45.8856 28.6667 45.3333 28.6667C44.781 28.6667 44.3333 28.219 44.3333 27.6667V25C44.3333 22.6068 42.3932 20.6667 40 20.6667H37.3333C36.781 20.6667 36.3333 20.219 36.3333 19.6667ZM18.6667 37.3334C19.2189 37.3334 19.6667 37.7811 19.6667 38.3334V41C19.6667 43.3933 21.6068 45.3334 24 45.3334H26.6667C27.2189 45.3334 27.6667 45.7811 27.6667 46.3334C27.6667 46.8856 27.2189 47.3334 26.6667 47.3334H24C20.5022 47.3334 17.6667 44.4978 17.6667 41V38.3334C17.6667 37.7811 18.1144 37.3334 18.6667 37.3334ZM45.3333 37.3334C45.8856 37.3334 46.3333 37.7811 46.3333 38.3334V41C46.3333 44.4978 43.4978 47.3334 40 47.3334H37.3333C36.781 47.3334 36.3333 46.8856 36.3333 46.3334C36.3333 45.7811 36.781 45.3334 37.3333 45.3334H40C42.3932 45.3334 44.3333 43.3933 44.3333 41V38.3334C44.3333 37.7811 44.781 37.3334 45.3333 37.3334Z" fill="#3DB249"/>
<path fill-rule="evenodd" clip-rule="evenodd" d="M33.3333 29.3333C33.8856 29.3333 34.3333 29.781 34.3333 30.3333V34.3333C34.3333 34.8856 33.8856 35.3333 33.3333 35.3333C32.781 35.3333 32.3333 34.8856 32.3333 34.3333V30.3333C32.3333 29.781 32.781 29.3333 33.3333 29.3333Z" fill="#08090A"/>
<rect x="0.681818" y="0.181818" width="63.6364" height="63.6364" rx="31.8182" stroke="#FF9800" stroke-width="0.363636"/>
</svg>
