<svg width="64" height="64" viewBox="0 0 64 64" fill="none" xmlns="http://www.w3.org/2000/svg">
<rect x="0.181818" y="0.181818" width="63.6364" height="63.6364" rx="31.8182" fill="white"/>
<rect x="0.181818" y="0.181818" width="63.6364" height="63.6364" rx="31.8182" fill="white" fill-opacity="0.8"/>
<path d="M22 23V41C22 41.2652 21.8946 41.5196 21.7071 41.7071C21.5196 41.8946 21.2652 42 21 42C20.7348 42 20.4804 41.8946 20.2929 41.7071C20.1054 41.5196 20 41.2652 20 41V23C20 22.7348 20.1054 22.4804 20.2929 22.2929C20.4804 22.1054 20.7348 22 21 22C21.2652 22 21.5196 22.1054 21.7071 22.2929C21.8946 22.4804 22 22.7348 22 23Z" fill="#08090A"/>
<path d="M30 30.625L32.5 29.8125C32.6238 29.7699 32.755 29.7526 32.8856 29.7618C33.0162 29.7709 33.1437 29.8063 33.2604 29.8658C33.377 29.9253 33.4805 30.0077 33.5646 30.1081C33.6488 30.2084 33.7118 30.3247 33.75 30.45C33.7928 30.5747 33.8102 30.7066 33.8012 30.8382C33.7921 30.9697 33.7569 31.098 33.6975 31.2157C33.6381 31.3333 33.5557 31.4379 33.4552 31.5232C33.3548 31.6086 33.2382 31.6729 33.1125 31.7125L30.6125 32.525L32.1625 34.65C32.24 34.7566 32.2957 34.8774 32.3263 35.0056C32.3569 35.1337 32.3619 35.2667 32.341 35.3968C32.3201 35.5269 32.2737 35.6516 32.2045 35.7637C32.1352 35.8758 32.0445 35.9731 31.9375 36.05C31.7212 36.2033 31.4533 36.2656 31.1915 36.2235C30.9298 36.1814 30.6949 36.0383 30.5375 35.825L29 33.7L27.4625 35.825C27.3051 36.0383 27.0702 36.1814 26.8085 36.2235C26.5467 36.2656 26.2788 36.2033 26.0625 36.05C25.9555 35.9731 25.8648 35.8758 25.7955 35.7637C25.7263 35.6516 25.6799 35.5269 25.659 35.3968C25.6381 35.2667 25.6431 35.1337 25.6737 35.0056C25.7043 34.8774 25.76 34.7566 25.8375 34.65L27.3875 32.525L24.8875 31.7125C24.7618 31.6729 24.6452 31.6086 24.5448 31.5232C24.4443 31.4379 24.3619 31.3333 24.3025 31.2157C24.2431 31.098 24.2079 30.9697 24.1988 30.8382C24.1898 30.7066 24.2072 30.5747 24.25 30.45C24.2882 30.3247 24.3512 30.2084 24.4354 30.1081C24.5195 30.0077 24.623 29.9253 24.7396 29.8658C24.8563 29.8063 24.9838 29.7709 25.1144 29.7618C25.245 29.7526 25.3762 29.7699 25.5 29.8125L28 30.625V28C28 27.7348 28.1054 27.4804 28.2929 27.2929C28.4804 27.1054 28.7348 27 29 27C29.2652 27 29.5196 27.1054 29.7071 27.2929C29.8946 27.4804 30 27.7348 30 28V30.625Z" fill="#69A757"/>
<path d="M45.5646 30.1081C45.6488 30.2084 45.7118 30.3247 45.75 30.45C45.7928 30.5747 45.8102 30.7066 45.8012 30.8382C45.7921 30.9697 45.7569 31.098 45.6975 31.2157C45.6381 31.3333 45.5557 31.4379 45.4552 31.5232C45.3548 31.6086 45.2382 31.6729 45.1125 31.7125L42.6125 32.525L44.1625 34.65C44.24 34.7566 44.2957 34.8774 44.3263 35.0056C44.3569 35.1337 44.3619 35.2667 44.341 35.3968C44.3201 35.5269 44.2737 35.6516 44.2045 35.7637C44.1352 35.8758 44.0445 35.9731 43.9375 36.05C43.7211 36.2033 43.4533 36.2656 43.1915 36.2235C42.9298 36.1814 42.6949 36.0383 42.5375 35.825L41 33.7L39.4625 35.825C39.3051 36.0383 39.0702 36.1814 38.8085 36.2235C38.5467 36.2656 38.2788 36.2033 38.0625 36.05C37.9555 35.9731 37.8648 35.8758 37.7955 35.7637C37.7263 35.6516 37.6799 35.5269 37.659 35.3968C37.6381 35.2667 37.6431 35.1337 37.6737 35.0056C37.7043 34.8774 37.76 34.7566 37.8375 34.65L39.3875 32.525L36.8875 31.7125C36.7618 31.6729 36.6452 31.6086 36.5448 31.5232C36.4443 31.4379 36.3619 31.3333 36.3025 31.2157C36.2431 31.098 36.2079 30.9697 36.1988 30.8382C36.1898 30.7066 36.2072 30.5747 36.25 30.45C36.2882 30.3247 36.3512 30.2084 36.4354 30.1081C36.5195 30.0077 36.623 29.9253 36.7396 29.8658C36.8563 29.8063 36.9838 29.7709 37.1144 29.7618C37.245 29.7526 37.3762 29.7699 37.5 29.8125L40 30.625V28C40 27.7348 40.1054 27.4804 40.2929 27.2929C40.4804 27.1054 40.7348 27 41 27C41.2652 27 41.5196 27.1054 41.7071 27.2929C41.8946 27.4804 42 27.7348 42 28V30.625L44.5 29.8125C44.6238 29.7699 44.755 29.7526 44.8856 29.7618C45.0162 29.7709 45.1437 29.8063 45.2604 29.8658C45.377 29.9253 45.4805 30.0077 45.5646 30.1081Z" fill="#69A757"/>
<rect x="0.181818" y="0.181818" width="63.6364" height="63.6364" rx="31.8182" stroke="#FF9800" stroke-width="0.363636"/>
</svg>
