<svg width="64" height="64" viewBox="0 0 64 64" fill="none" xmlns="http://www.w3.org/2000/svg">
<rect x="0.181818" y="0.181818" width="63.6364" height="63.6364" rx="31.8182" fill="white"/>
<rect x="0.181818" y="0.181818" width="63.6364" height="63.6364" rx="31.8182" fill="white" fill-opacity="0.8"/>
<path d="M36 25H28" stroke="#69A757" stroke-width="2" stroke-linecap="round" stroke-linejoin="round"/>
<path d="M36 29H28" stroke="#69A757" stroke-width="2" stroke-linecap="round" stroke-linejoin="round"/>
<path d="M41 43V21C41 20.4477 40.5523 20 40 20H24C23.4477 20 23 20.4477 23 21V43C23 43.5523 23.4477 44 24 44H40C40.5523 44 41 43.5523 41 43Z" stroke="black" stroke-width="2" stroke-linecap="round" stroke-linejoin="round"/>
<path d="M32 40C32.8284 40 33.5 39.3284 33.5 38.5C33.5 37.6716 32.8284 37 32 37C31.1716 37 30.5 37.6716 30.5 38.5C30.5 39.3284 31.1716 40 32 40Z" fill="black"/>
<rect x="0.181818" y="0.181818" width="63.6364" height="63.6364" rx="31.8182" stroke="#FF9800" stroke-width="0.363636"/>
</svg>
