<svg width="65" height="64" viewBox="0 0 65 64" fill="none" xmlns="http://www.w3.org/2000/svg">
<rect x="0.681818" y="0.181818" width="63.6364" height="63.6364" rx="31.8182" fill="white"/>
<rect x="0.681818" y="0.181818" width="63.6364" height="63.6364" rx="31.8182" fill="white" fill-opacity="0.8"/>
<path d="M33.3463 33.1464L32.816 32.616L32.2857 33.1464L28.8524 36.5796C26.2299 39.2022 21.9696 39.2006 19.3487 36.5796C16.7257 33.9566 16.7273 29.6968 19.3487 27.0754L19.3487 27.0754C21.9713 24.4524 26.2315 24.454 28.8524 27.0754L28.8524 27.0754L32.2857 30.5087L32.816 31.039L33.3463 30.5087L36.7796 27.0754L36.7797 27.0754C39.4006 24.454 43.6608 24.4524 46.2833 27.0754L46.2834 27.0754C48.9048 29.6968 48.9064 33.9566 46.2834 36.5796C43.6624 39.2006 39.4022 39.2022 36.7796 36.5796L33.3463 33.1464Z" stroke="#69A757" stroke-width="1.5"/>
<rect x="0.681818" y="0.181818" width="63.6364" height="63.6364" rx="31.8182" stroke="#FF9800" stroke-width="0.363636"/>
</svg>
