<svg width="81" height="80" viewBox="0 0 81 80" fill="none" xmlns="http://www.w3.org/2000/svg">
<g clip-path="url(#clip0_7810_7540)">
<path d="M77.3762 22.51H71.0137C69.6387 22.51 68.5137 21.385 68.5137 20.01C68.5137 18.635 69.6387 17.51 71.0137 17.51H73.5137C75.8262 17.51 77.6638 15.3975 77.1888 13.01C76.8388 11.2225 75.1637 10.01 73.3512 10.01L57.375 10C56.3375 10 55.5 9.1625 55.5 8.125C55.5 7.0875 56.3375 6.25 57.375 6.25H64.7625C66.1875 6.25 67.5125 5.35 67.8875 3.975C68.45 1.9 66.875 0 64.875 0H9.9875C8.5625 0 7.2375 0.9 6.8625 2.275C6.3 4.35 7.875 6.25 9.875 6.25H13.625C14.4875 6.25 15.275 6.6 15.8375 7.1625C16.4 7.725 16.75 8.5125 16.75 9.375C16.75 11.1 15.35 12.5 13.625 12.5H5.5C3.4375 12.5 1.75 14.1875 1.75 16.25C1.75 18.3125 3.4375 20 5.5 20H31.75C32.1875 20 32.6125 19.9125 33 19.7625V28.75H16.75V40H22.375C24.1 40 25.5 41.4 25.5 43.125C25.5 43.9875 25.15 44.775 24.5875 45.3375C24.025 45.9 23.2375 46.25 22.375 46.25H12.375C10.65 46.25 9.25 47.65 9.25 49.375C9.25 51.1 10.65 52.5 12.375 52.5H17.375C18.8862 52.5 20.1475 53.5737 20.4375 55H7.375C4.28125 55 1.75 57.5313 1.75 60.625C1.75 63.7187 4.28125 66.25 7.375 66.25H31.125C32.85 66.25 34.25 67.65 34.25 69.375C34.25 71.1 32.85 72.5 31.125 72.5H24.25C22.175 72.5 20.5 74.175 20.5 76.25C20.5 78.325 22.175 80 24.25 80H74.25C76.325 80 78 78.325 78 76.25C78 74.175 76.325 72.5 74.25 72.5H67.375C65.65 72.5 64.25 71.1 64.25 69.375C64.25 67.65 65.65 66.25 67.375 66.25H72.375C75.4687 66.25 78 63.7187 78 60.625C78 57.5313 75.4687 55 72.375 55H59.7963C60.1888 53.0162 58.6763 51.25 56.75 51.25C55.7125 51.25 58 50.4125 58 49.375C58 48.3375 58.8375 47.5 59.875 47.5H63.5125C64.9375 47.5 66.2625 46.6 66.6375 45.225C67.2 43.15 65.625 40 63.625 40H63C61.625 40 60.5 32.625 60.5 31.25C60.5 29.875 61.625 28.75 63 28.75L77.2637 28.76C78.6887 28.76 80.0137 27.86 80.3887 26.485C80.9387 24.4087 79.3637 22.51 77.3762 22.51Z" fill="#E7FAEA"/>
<path d="M8 56.25V23.75C8 19.6075 11.3575 16.25 15.5 16.25H65.5C69.6425 16.25 73 19.6075 73 23.75V56.25C73 60.3925 69.6425 63.75 65.5 63.75H15.5C11.3575 63.75 8 60.3925 8 56.25Z" fill="url(#paint0_linear_7810_7540)"/>
<path d="M8 25H73V35H8V25Z" fill="url(#paint1_linear_7810_7540)"/>
<path d="M65.5 46.25H15.5C14.1187 46.25 13 45.1313 13 43.75V41.25C13 39.8687 14.1187 38.75 15.5 38.75H65.5C66.8813 38.75 68 39.8687 68 41.25V43.75C68 45.1313 66.8813 46.25 65.5 46.25Z" fill="white"/>
</g>
<defs>
<linearGradient id="paint0_linear_7810_7540" x1="44.3618" y1="2.93141" x2="38.5857" y2="106.739" gradientUnits="userSpaceOnUse">
<stop stop-color="#00D772"/>
<stop offset="0.746" stop-color="#00B26E"/>
<stop offset="1" stop-color="#00B26E"/>
</linearGradient>
<linearGradient id="paint1_linear_7810_7540" x1="8" y1="30" x2="73" y2="30" gradientUnits="userSpaceOnUse">
<stop stop-color="#A4A4A4"/>
<stop offset="0.63" stop-color="#7F7F7F"/>
<stop offset="1" stop-color="#6F6F6F"/>
</linearGradient>
<clipPath id="clip0_7810_7540">
<rect width="80" height="80" fill="white" transform="translate(0.5)"/>
</clipPath>
</defs>
</svg>
