<svg width="65" height="64" viewBox="0 0 65 64" fill="none" xmlns="http://www.w3.org/2000/svg">
<g clip-path="url(#clip0_7810_7695)">
<path d="M60.4998 47H50.1978C48.3028 47 46.6038 45.581 46.5048 43.688C46.3988 41.67 48.0048 40 49.9998 40H52.3108C54.3968 40 56.2688 38.486 56.4788 36.41C56.7198 34.028 54.8348 32 52.4998 32H51.4998C49.8428 32 48.4998 30.657 48.4998 29C48.4998 27.343 49.8428 26 51.4998 26H60.4998C62.8348 26 64.7198 23.972 64.4788 21.59C64.2688 19.515 62.3968 18 60.3108 18H59.6068C58.6108 18 57.6868 17.319 57.5268 16.336C57.3238 15.083 58.2848 14 59.4998 14H59.8568C61.1648 14 62.3558 13.059 62.4868 11.758C62.6368 10.261 61.4658 9 59.9998 9H44.9998C44.1718 9 43.4998 8.328 43.4998 7.5C43.4998 6.672 44.1718 6 44.9998 6H48.8568C50.1648 6 51.3558 5.059 51.4868 3.758C51.6368 2.261 50.4658 1 48.9998 1H14.1428C12.8348 1 11.6438 1.941 11.5128 3.242C11.3628 4.739 12.5338 6 13.9998 6H14.3928C15.3888 6 16.3128 6.681 16.4728 7.664C16.6758 8.917 15.7148 10 14.4998 10H4.68881C2.60281 10 0.730805 11.514 0.520805 13.59C0.279805 15.972 2.16481 18 4.49981 18H4.80181C6.69681 18 8.39581 19.419 8.49481 21.312C8.60081 23.33 6.99481 25 4.99981 25H4.68881C2.60281 25 0.730805 26.514 0.520805 28.59C0.279805 30.972 2.16481 33 4.49981 33H14.4228L7.49981 38C5.16481 38 4.60281 47 6.68881 47H7.39381C8.38981 47 9.31381 47.681 9.47381 48.664C9.67581 49.917 8.71481 51 7.49981 51H5.14281C3.83481 51 2.64381 51.941 2.51281 53.242C2.36281 54.739 3.53381 56 4.99981 56H19.9998C20.8278 56 21.4998 56.672 21.4998 57.5C21.4998 58.328 20.8278 59 19.9998 59H16.1428C14.8348 59 13.6438 59.941 13.5128 61.242C13.3628 62.739 14.5338 64 15.9998 64H50.8568C52.1648 64 53.3558 63.059 53.4868 61.758C53.6368 60.261 52.4658 59 50.9998 59H47.6068C46.6108 59 45.6868 58.319 45.5268 57.336C45.3238 56.083 46.2848 55 47.4998 55H60.3108C62.3968 55 64.2688 53.486 64.4788 51.41C64.7198 49.028 62.8348 47 60.4998 47Z" fill="#E7FAEA"/>
<path d="M52.173 30.059C52.379 29.239 52.5 28.384 52.5 27.5C52.5 21.701 47.799 17 42 17C40.002 17 38.14 17.568 36.55 18.538C34.186 14.625 29.905 12 25 12C17.544 12 11.5 18.044 11.5 25.5C11.5 26.804 11.695 28.061 12.04 29.254C6.593 30.39 2.5 35.216 2.5 41C2.5 47.627 7.873 53 14.5 53H50.5V52.975C50.667 52.982 50.831 53 51 53C57.351 53 62.5 47.851 62.5 41.5C62.5 35.545 57.973 30.647 52.173 30.059Z" fill="url(#paint0_linear_7810_7695)"/>
<path d="M62.5 41.5C62.5 35.545 57.973 30.647 52.173 30.059C52.339 29.396 52.431 28.705 52.467 28H43C41.619 28 40.5 29.119 40.5 30.5C40.5 31.881 41.619 33 43 33C44.381 33 45.5 34.119 45.5 35.5C45.5 36.881 44.381 38 43 38H31C29.619 38 28.5 39.119 28.5 40.5C28.5 41.881 29 43 29 43C30.381 43 31.5 44.119 31.5 45.5C31.5 46.881 30.381 48 29 48H22C20.619 48 19.5 49.119 19.5 50.5C19.5 51.881 20.619 53 22 53H50.5V52.975C50.667 52.982 50.831 53 51 53C57.351 53 62.5 47.851 62.5 41.5Z" fill="url(#paint1_linear_7810_7695)"/>
<path d="M3.1875 36.9992H18.9995C20.3805 36.9992 21.4995 35.8802 21.4995 34.4992C21.4995 33.1182 20.3805 31.9992 18.9995 31.9992H17.9995C16.6185 31.9992 15.4995 30.8802 15.4995 29.4992C15.4995 28.1182 16.6185 26.9992 17.9995 26.9992H24.9995C26.3805 26.9992 27.4995 25.8802 27.4995 24.4992C27.4995 23.1182 26.3805 21.9992 24.9995 21.9992H22.9995C21.6185 21.9992 20.4995 20.8802 20.4995 19.4992C20.4995 18.1182 21.6185 16.9992 22.9995 16.9992H23.9995C25.3805 16.9992 26.4995 15.8802 26.4995 14.4992C26.4995 13.2332 25.5545 12.1972 24.3335 12.0332C17.1895 12.3822 11.4995 18.2682 11.4995 25.4992C11.4995 26.8032 11.6945 28.0602 12.0395 29.2532C7.9145 30.1132 4.5695 33.0922 3.1875 36.9992Z" fill="url(#paint2_linear_7810_7695)"/>
<path d="M37.5 34C37.5 30.686 34.814 28 31.5 28C28.186 28 25.5 30.686 25.5 34C25.5 36.22 26.708 38.153 28.5 39.191V43C28.5 44.657 29.843 46 31.5 46C33.157 46 34.5 44.657 34.5 43V39.191C36.292 38.153 37.5 36.22 37.5 34Z" fill="white"/>
</g>
<defs>
<linearGradient id="paint0_linear_7810_7695" x1="36.0648" y1="0.503957" x2="31.4009" y2="90.1407" gradientUnits="userSpaceOnUse">
<stop stop-color="#00D772"/>
<stop offset="0.746" stop-color="#00B26E"/>
<stop offset="1" stop-color="#00B26E"/>
</linearGradient>
<linearGradient id="paint1_linear_7810_7695" x1="40.9989" y1="-63.5776" x2="40.9989" y2="68.3724" gradientUnits="userSpaceOnUse">
<stop stop-color="#00D772"/>
<stop offset="0.746" stop-color="#00B26E"/>
<stop offset="1" stop-color="#00B26E"/>
</linearGradient>
<linearGradient id="paint2_linear_7810_7695" x1="14.9431" y1="23.8523" x2="8.87744" y2="112.336" gradientUnits="userSpaceOnUse">
<stop stop-color="#00D772"/>
<stop offset="0.318" stop-color="#00D272"/>
<stop offset="0.669" stop-color="#00C570"/>
<stop offset="0.996" stop-color="#00B26E"/>
<stop offset="1" stop-color="#00B26E"/>
</linearGradient>
<clipPath id="clip0_7810_7695">
<rect width="64" height="64" fill="white" transform="translate(0.5)"/>
</clipPath>
</defs>
</svg>
