<svg width="81" height="80" viewBox="0 0 81 80" fill="none" xmlns="http://www.w3.org/2000/svg">
<g clip-path="url(#clip0_7810_7568)">
<path d="M73.0005 75C73.0005 77.7613 70.7618 80 68.0005 80C65.2393 80 63.0005 77.7613 63.0005 75C63.0005 72.2387 65.2393 70 68.0005 70C70.7618 70 73.0005 72.2387 73.0005 75ZM73.6255 8.75C76.0418 8.75 78.0005 6.79125 78.0005 4.375C78.0005 1.95875 76.0418 0 73.6255 0C71.2093 0 69.2505 1.95875 69.2505 4.375C69.2505 6.79125 71.2093 8.75 73.6255 8.75ZM61.2168 8.75125C62.3905 8.785 63.928 8.20875 64.5793 7.23125C66.9168 3.72 64.4555 0 61.1255 0H23.873C21.5043 0 19.3805 1.77375 19.2568 4.14C19.1243 6.6625 21.1318 8.75 23.6255 8.75H34.2505C35.9768 8.75 37.3755 10.1487 37.3755 11.875C37.3755 13.6013 35.9768 15 34.2505 15H8.00051C5.23926 15 3.00051 17.2387 3.00051 20V20.025C3.00051 22.815 5.29176 24.9638 8.08051 25C8.63051 25.0075 13.008 25.0113 13.6455 25.0125C16.0518 25.0188 18.0005 26.97 18.0005 29.375V29.3875C18.0005 31.7963 16.0468 33.75 13.638 33.75H7.01926C3.75551 33.75 0.839256 36.1363 0.529256 39.3863C0.174256 43.1138 3.09676 46.25 6.75051 46.25H7.78801C9.81801 46.25 11.6393 47.77 11.7455 49.7988C11.858 51.9613 10.138 53.75 8.00051 53.75H5.12301C2.75426 53.75 0.630506 55.5238 0.506756 57.89C0.374256 60.4125 2.38176 62.5 4.87551 62.5H13.0005C15.0718 62.5 16.7505 64.1788 16.7505 66.25C16.7505 68.3212 15.0718 70 13.0005 70H11.9655C9.35426 70 7.02176 71.9087 6.77426 74.5087C6.48926 77.4912 8.82676 80 11.7505 80H52.7855C55.3968 80 57.7293 78.0913 57.9768 75.4913C58.2618 72.5088 55.9243 70 53.0005 70H44.2505C42.2205 70 40.3993 68.48 40.293 66.4512C40.1805 64.2887 41.9005 62.5 44.038 62.5H70.5005C72.5718 62.5 74.2505 60.8212 74.2505 58.75V57.5C74.2505 55.4288 72.5718 53.75 70.5005 53.75H66.963C64.933 53.75 63.1118 52.23 63.0055 50.2012C62.893 48.0387 64.613 46.25 66.7505 46.25H72.7318C75.9955 46.25 78.9118 43.8638 79.2205 40.6138C79.5768 36.8863 76.6543 33.75 73.0005 33.75H66.373C64.0043 33.75 61.8805 31.9762 61.7568 29.61C61.6243 27.0875 63.6318 25 66.1255 25H71.5355C74.1468 25 76.4793 23.0912 76.7268 20.4912C77.0118 17.5087 74.6743 15 71.7505 15H58.6255C56.8993 15 55.5005 13.6013 55.5005 11.875C55.5005 10.1487 56.9005 8.75 58.6255 8.75L61.2168 8.75125Z" fill="#E7FAEA"/>
<path d="M66.75 31.25C69.5 31.25 71.75 33.5 71.75 36.25C71.75 39 69.5 41.25 66.75 41.25C64 41.25 61.75 39 61.75 36.25C61.75 33.5 64 31.25 66.75 31.25Z" fill="url(#paint0_linear_7810_7568)"/>
<path d="M63 11.25C65.0625 11.25 66.75 12.9375 66.75 15V57.5C66.75 59.5625 65.0625 61.25 63 61.25C60.9375 61.25 59.25 59.5625 59.25 57.5V15C59.25 12.9375 60.9375 11.25 63 11.25Z" fill="url(#paint1_linear_7810_7568)"/>
<path d="M26.75 53.75H31.2162C32.8912 53.75 34.25 52.3913 34.25 50.7163C34.25 50.245 34.14 49.7812 33.93 49.36L31.75 45H26.75V53.75Z" fill="url(#paint2_linear_7810_7568)"/>
<path d="M30.5 47.5C25.9162 47.0837 21.3338 46.6663 16.75 46.25L22.1738 65.775C22.6625 67.5337 24.2625 68.75 26.0875 68.75H26.09C26.5263 68.75 26.96 68.68 27.375 68.5413L31.2113 67.2625C33.0263 66.6575 34.25 64.96 34.25 63.0475C34.25 62.6837 34.205 62.3225 34.1175 61.97C33.495 60.13 31.0362 56.9 30.5 52.5C30.2675 50.5875 30.3325 48.8875 30.5 47.5Z" fill="url(#paint3_linear_7810_7568)"/>
<path d="M18 28.75C16.0109 28.75 14.1032 29.5402 12.6967 30.9467C11.2902 32.3532 10.5 34.2609 10.5 36.25C10.5 38.2391 11.2902 40.1468 12.6967 41.5533C14.1032 42.9598 16.0109 43.75 18 43.75C19.9891 43.75 21.8968 42.9598 23.3033 41.5533C24.7098 40.1468 25.5 38.2391 25.5 36.25C25.5 34.2609 24.7098 32.3532 23.3033 30.9467C21.8968 29.5402 19.9891 28.75 18 28.75Z" fill="url(#paint4_linear_7810_7568)"/>
<path d="M33 47.5H18C15.9375 47.5 14.25 45.8125 14.25 43.75V28.75C14.25 26.6875 15.9375 25 18 25H33V47.5Z" fill="url(#paint5_linear_7810_7568)"/>
<path d="M35.5 25C34.6512 25.0288 33.8175 25.0275 33 25C33 28.75 33 32.5 33 36.25C33 40 33 43.75 33 47.5C33.8175 47.4725 34.6512 47.4712 35.5 47.5C45.3062 47.8312 53.4037 52.01 59.25 56.25V36.25V16.25C53.4037 20.49 45.3062 24.6688 35.5 25Z" fill="url(#paint6_linear_7810_7568)"/>
<path d="M33 31.25H23C21.625 31.25 20.5 32.375 20.5 33.75C20.5 35.125 21.625 36.25 23 36.25H24.25C25.625 36.25 26.75 37.375 26.75 38.75C26.75 40.125 25.625 41.25 24.25 41.25H21.125C19.4062 41.25 18 42.6562 18 44.375C18 46.0938 19.4062 47.5 21.125 47.5H33V31.25Z" fill="url(#paint7_linear_7810_7568)"/>
</g>
<defs>
<linearGradient id="paint0_linear_7810_7568" x1="67.3441" y1="28.4461" x2="62" y2="39" gradientUnits="userSpaceOnUse">
<stop stop-color="#00D772"/>
<stop offset="0.746" stop-color="#00B26E"/>
<stop offset="1" stop-color="#00B26E"/>
</linearGradient>
<linearGradient id="paint1_linear_7810_7568" x1="63.4456" y1="-2.76956" x2="38.1437" y2="48.5176" gradientUnits="userSpaceOnUse">
<stop stop-color="#00D772"/>
<stop offset="0.746" stop-color="#00B26E"/>
<stop offset="1" stop-color="#00B26E"/>
</linearGradient>
<linearGradient id="paint2_linear_7810_7568" x1="34" y1="51" x2="26.0771" y2="44.316" gradientUnits="userSpaceOnUse">
<stop stop-color="#00D772"/>
<stop offset="0.746" stop-color="#00B26E"/>
<stop offset="1" stop-color="#00B26E"/>
</linearGradient>
<linearGradient id="paint3_linear_7810_7568" x1="44" y1="63.5" x2="16.6941" y2="45.45" gradientUnits="userSpaceOnUse">
<stop stop-color="#00D772"/>
<stop offset="0.746" stop-color="#00B26E"/>
<stop offset="1" stop-color="#00B26E"/>
</linearGradient>
<linearGradient id="paint4_linear_7810_7568" x1="18.8912" y1="24.5441" x2="17.4832" y2="43.5708" gradientUnits="userSpaceOnUse">
<stop stop-color="#00D772"/>
<stop offset="0.746" stop-color="#00B26E"/>
<stop offset="1" stop-color="#00B26E"/>
</linearGradient>
<linearGradient id="paint5_linear_7810_7568" x1="24.739" y1="18.6912" x2="20.2695" y2="67.6069" gradientUnits="userSpaceOnUse">
<stop stop-color="#00D772"/>
<stop offset="0.746" stop-color="#00B26E"/>
<stop offset="1" stop-color="#00B26E"/>
</linearGradient>
<linearGradient id="paint6_linear_7810_7568" x1="45.6927" y1="35.1864" x2="31.3524" y2="176.161" gradientUnits="userSpaceOnUse">
<stop stop-color="#00D772"/>
<stop offset="0.318" stop-color="#00D272"/>
<stop offset="0.669" stop-color="#00C570"/>
<stop offset="0.996" stop-color="#00B26E"/>
<stop offset="1" stop-color="#00B26E"/>
</linearGradient>
<linearGradient id="paint7_linear_7810_7568" x1="25.4996" y1="-28.2755" x2="25.4996" y2="57.492" gradientUnits="userSpaceOnUse">
<stop stop-color="#00D772"/>
<stop offset="0.746" stop-color="#00B26E"/>
<stop offset="1" stop-color="#00B26E"/>
</linearGradient>
<clipPath id="clip0_7810_7568">
<rect width="80" height="80" fill="white" transform="translate(0.5)"/>
</clipPath>
</defs>
</svg>
