<svg width="81" height="80" viewBox="0 0 81 80" fill="none" xmlns="http://www.w3.org/2000/svg">
<g clip-path="url(#clip0_7810_7686)">
<path d="M80.4759 73.0125C80.2134 75.6125 77.8759 77.5 75.2634 77.5H5.50086C2.57586 77.5 0.225861 74.9625 0.525861 71.9875C0.788361 69.3875 3.12586 67.5 5.73836 67.5H8.00086C8.68836 67.5 9.31336 67.225 9.76336 66.7625C10.2759 66.2625 10.5634 65.55 10.4884 64.775C10.3759 63.4625 9.17586 62.5 7.86336 62.5H5.66336C3.85086 62.5 2.17586 61.2875 1.82586 59.5C1.35086 57.1125 3.18836 55 5.50086 55H28.0009V41.25H5.50086C2.57586 41.25 0.225861 38.7125 0.525861 35.7375C0.788361 33.1375 3.12586 31.25 5.73836 31.25H7.25086C9.33836 31.25 11.2384 29.8375 11.6509 27.7875C12.2384 24.9875 10.0884 22.5 7.37586 22.5H6.75086C3.82586 22.5 1.47586 19.9625 1.77586 16.9875C2.03836 14.3875 4.37586 12.5 6.98836 12.5H74.8759C76.7134 12.5 78.1634 14.0625 77.9884 15.9375C77.8384 17.5625 76.3384 18.75 74.7009 18.75H73.0009C72.3134 18.75 71.6884 19.025 71.2384 19.4875C70.7759 19.9375 70.5009 20.5625 70.5009 21.25C70.5009 22.625 71.6259 23.75 73.0009 23.75H75.2634C77.8759 23.75 80.2134 25.6375 80.4759 28.2375C80.7759 31.2125 78.4134 33.75 75.5009 33.75H58.0009L56.7509 50H74.7134C76.8009 50 78.7134 51.4 79.1509 53.4375C79.7509 56.2375 77.5884 58.75 74.8759 58.75H73.6259C72.4259 58.75 71.3259 59.2375 70.5384 60.0375C70.0009 60.5625 69.6134 61.225 69.4134 61.9625C69.3009 62.3375 69.2509 62.725 69.2509 63.125C69.2509 64.6625 70.0384 66 71.2384 66.7625C71.2509 66.7875 71.2759 66.8 71.3009 66.8125C71.7384 67.25 72.3384 67.5 73.0009 67.5H75.5009C78.4134 67.5 80.7759 70.0375 80.4759 73.0125Z" fill="#E7FAEA"/>
<path d="M65.5 8.75H40.5V73.75H65.5V8.75Z" fill="url(#paint0_linear_7810_7686)"/>
<path d="M40.5 8.75H15.5V73.75H40.5V8.75Z" fill="url(#paint1_linear_7810_7686)"/>
<path d="M56.75 38.75H61.75C62.44 38.75 63 38.19 63 37.5V35C63 34.31 62.44 33.75 61.75 33.75H56.75C56.06 33.75 55.5 34.31 55.5 35V37.5C55.5 38.19 56.06 38.75 56.75 38.75Z" fill="white"/>
<path d="M45.5 38.75H50.5C51.19 38.75 51.75 38.19 51.75 37.5V35C51.75 34.31 51.19 33.75 50.5 33.75H45.5C44.81 33.75 44.25 34.31 44.25 35V37.5C44.25 38.19 44.81 38.75 45.5 38.75Z" fill="white"/>
<path d="M56.75 50H61.75C62.44 50 63 49.44 63 48.75V46.25C63 45.56 62.44 45 61.75 45H56.75C56.06 45 55.5 45.56 55.5 46.25V48.75C55.5 49.44 56.06 50 56.75 50Z" fill="white"/>
<path d="M45.5 50H50.5C51.19 50 51.75 49.44 51.75 48.75V46.25C51.75 45.56 51.19 45 50.5 45H45.5C44.81 45 44.25 45.56 44.25 46.25V48.75C44.25 49.44 44.81 50 45.5 50Z" fill="white"/>
<path d="M56.75 61.25H61.75C62.44 61.25 63 60.69 63 60V57.5C63 56.81 62.44 56.25 61.75 56.25H56.75C56.06 56.25 55.5 56.81 55.5 57.5V60C55.5 60.69 56.06 61.25 56.75 61.25Z" fill="white"/>
<path d="M45.5 61.25H50.5C51.19 61.25 51.75 60.69 51.75 60V57.5C51.75 56.81 51.19 56.25 50.5 56.25H45.5C44.81 56.25 44.25 56.81 44.25 57.5V60C44.25 60.69 44.81 61.25 45.5 61.25Z" fill="white"/>
<path d="M56.75 27.5H61.75C62.44 27.5 63 26.94 63 26.25V23.75C63 23.06 62.44 22.5 61.75 22.5H56.75C56.06 22.5 55.5 23.06 55.5 23.75V26.25C55.5 26.94 56.06 27.5 56.75 27.5Z" fill="white"/>
<path d="M45.5 27.5H50.5C51.19 27.5 51.75 26.94 51.75 26.25V23.75C51.75 23.06 51.19 22.5 50.5 22.5H45.5C44.81 22.5 44.25 23.06 44.25 23.75V26.25C44.25 26.94 44.81 27.5 45.5 27.5Z" fill="white"/>
<path d="M30.5 38.75H35.5C36.19 38.75 36.75 38.19 36.75 37.5V35C36.75 34.31 36.19 33.75 35.5 33.75H30.5C29.81 33.75 29.25 34.31 29.25 35V37.5C29.25 38.19 29.81 38.75 30.5 38.75Z" fill="white"/>
<path d="M19.25 38.75H24.25C24.94 38.75 25.5 38.19 25.5 37.5V35C25.5 34.31 24.94 33.75 24.25 33.75H19.25C18.56 33.75 18 34.31 18 35V37.5C18 38.19 18.56 38.75 19.25 38.75Z" fill="white"/>
<path d="M30.5 50H35.5C36.19 50 36.75 49.44 36.75 48.75V46.25C36.75 45.56 36.19 45 35.5 45H30.5C29.81 45 29.25 45.56 29.25 46.25V48.75C29.25 49.44 29.81 50 30.5 50Z" fill="white"/>
<path d="M19.25 50H24.25C24.94 50 25.5 49.44 25.5 48.75V46.25C25.5 45.56 24.94 45 24.25 45H19.25C18.56 45 18 45.56 18 46.25V48.75C18 49.44 18.56 50 19.25 50Z" fill="white"/>
<path d="M30.5 61.25H35.5C36.19 61.25 36.75 60.69 36.75 60V57.5C36.75 56.81 36.19 56.25 35.5 56.25H30.5C29.81 56.25 29.25 56.81 29.25 57.5V60C29.25 60.69 29.81 61.25 30.5 61.25Z" fill="white"/>
<path d="M19.25 61.25H24.25C24.94 61.25 25.5 60.69 25.5 60V57.5C25.5 56.81 24.94 56.25 24.25 56.25H19.25C18.56 56.25 18 56.81 18 57.5V60C18 60.69 18.56 61.25 19.25 61.25Z" fill="white"/>
<path d="M30.5 27.5H35.5C36.19 27.5 36.75 26.94 36.75 26.25V23.75C36.75 23.06 36.19 22.5 35.5 22.5H30.5C29.81 22.5 29.25 23.06 29.25 23.75V26.25C29.25 26.94 29.81 27.5 30.5 27.5Z" fill="white"/>
<path d="M19.25 27.5H24.25C24.94 27.5 25.5 26.94 25.5 26.25V23.75C25.5 23.06 24.94 22.5 24.25 22.5H19.25C18.56 22.5 18 23.06 18 23.75V26.25C18 26.94 18.56 27.5 19.25 27.5Z" fill="white"/>
<path d="M70.5 12.5C70.5 14.575 68.825 16.25 66.75 16.25H40.5V8.75H66.75C67.7875 8.75 68.725 9.175 69.4 9.85C70.075 10.525 70.5 11.4625 70.5 12.5Z" fill="url(#paint2_linear_7810_7686)"/>
<path d="M44.25 12.5C44.25 14.575 42.575 16.25 40.5 16.25H15.5C14.4625 16.25 13.525 15.825 12.85 15.15C12.175 14.475 11.75 13.5375 11.75 12.5C11.75 10.425 13.425 8.75 15.5 8.75H40.5C41.5375 8.75 42.475 9.175 43.15 9.85C43.825 10.525 44.25 11.4625 44.25 12.5Z" fill="url(#paint3_linear_7810_7686)"/>
</g>
<defs>
<linearGradient id="paint0_linear_7810_7686" x1="54.4853" y1="-9.47543" x2="27.34" y2="127.642" gradientUnits="userSpaceOnUse">
<stop stop-color="#00D772"/>
<stop offset="0.746" stop-color="#00B26E"/>
<stop offset="1" stop-color="#00B26E"/>
</linearGradient>
<linearGradient id="paint1_linear_7810_7686" x1="27.5883" y1="39.5216" x2="-11.4092" y2="264.207" gradientUnits="userSpaceOnUse">
<stop stop-color="#00D772"/>
<stop offset="0.318" stop-color="#00D272"/>
<stop offset="0.669" stop-color="#00C570"/>
<stop offset="0.996" stop-color="#00B26E"/>
<stop offset="1" stop-color="#00B26E"/>
</linearGradient>
<linearGradient id="paint2_linear_7810_7686" x1="34" y1="7" x2="70.269" y2="10.7605" gradientUnits="userSpaceOnUse">
<stop stop-color="#00D772"/>
<stop offset="0.746" stop-color="#00B26E"/>
<stop offset="1" stop-color="#00B26E"/>
</linearGradient>
<linearGradient id="paint3_linear_7810_7686" x1="9" y1="10.5" x2="40.5614" y2="10.6977" gradientUnits="userSpaceOnUse">
<stop stop-color="#00D772"/>
<stop offset="0.746" stop-color="#00B26E"/>
<stop offset="1" stop-color="#00B26E"/>
</linearGradient>
<clipPath id="clip0_7810_7686">
<rect width="80" height="80" fill="white" transform="translate(0.5)"/>
</clipPath>
</defs>
</svg>
