<svg width="81" height="80" viewBox="0 0 81 80" fill="none" xmlns="http://www.w3.org/2000/svg">
<g clip-path="url(#clip0_7810_7580)">
<path d="M10.5 10C13.2613 10 15.5 7.76125 15.5 5C15.5 2.23875 13.2613 0 10.5 0C7.73875 0 5.5 2.23875 5.5 5C5.5 7.76125 7.73875 10 10.5 10Z" fill="#E7FAEA"/>
<path d="M80.5 60C80.5 62.7625 78.2625 65 75.5 65H72.375C70.65 65 69.25 66.4 69.25 68.125C69.25 68.9875 69.6 69.775 70.1625 70.3375C70.725 70.9 71.5125 71.25 72.375 71.25H73.625C76.0375 71.25 78 73.2125 78 75.625C78 78.0375 76.0375 80 73.625 80H7.375C4.9625 80 3 78.0375 3 75.625C3 73.2125 4.9625 71.25 7.375 71.25H8C9.725 71.25 10.5 69.85 10.5 68.125C10.5 66.4 9.1 65 7.375 65H5.5C2.7375 65 0.5 62.7625 0.5 60C0.5 57.2375 2.7375 55 5.5 55H17.375C19.7875 55 21.75 53.0375 21.75 50.625C21.75 48.2125 19.7875 46.25 17.375 46.25H6.75C3.3 46.25 0.5 43.45 0.5 40C0.5 36.55 3.3 33.75 6.75 33.75H16.75C18.825 33.75 20.5 29.575 20.5 27.5C20.5 25.425 18.825 23.75 16.75 23.75H7.375C4.9625 23.75 3 21.7875 3 19.375C3 16.9625 4.9625 15 7.375 15H28C28.6875 15 29.3125 14.725 29.7625 14.2625C30.225 13.8125 30.5 13.1875 30.5 12.5C30.5 11.125 29.375 10 28 10H24.25C22.875 10 21.625 9.4375 20.7125 8.5375C19.8125 7.625 19.25 6.375 19.25 5C19.25 2.2375 21.4875 0 24.25 0H63C65.7625 0 68 2.2375 68 5C68 7.7625 65.7625 10 63 10H51.75C48.6375 10 53.3125 13.45 53.3125 16.5625C53.3125 18.1125 54.875 18.5875 55.9 19.6C56.9125 20.625 58.325 21.25 59.875 21.25H73.625C76.7375 21.25 79.25 23.7625 79.25 26.875C79.25 29.9875 76.7375 32.5 73.625 32.5H59.875C57.4625 32.5 55.5 34.4625 55.5 36.875C55.5 39.2875 57.4625 40 59.875 40H75.5C78.2625 40 80.5 42.2375 80.5 45C80.5 47.7625 78.2625 50 75.5 50H61.125C59.4 50 58 51.4 58 53.125C58 54.85 59.4 55 61.125 55H75.5C78.2625 55 80.5 57.2375 80.5 60Z" fill="#E7FAEA"/>
<path d="M24.25 71.25H21.75C20.3687 71.25 19.25 70.1313 19.25 68.75V67.5H26.75V68.75C26.75 70.1313 25.6313 71.25 24.25 71.25Z" fill="url(#paint0_linear_7810_7580)"/>
<path d="M59.25 71.25H56.75C55.3687 71.25 54.25 70.1313 54.25 68.75V67.5H61.75V68.75C61.75 70.1313 60.6313 71.25 59.25 71.25Z" fill="url(#paint1_linear_7810_7580)"/>
<path d="M52.375 18.75C51.34 18.75 50.5 17.91 50.5 16.875V13.125C50.5 12.0912 49.6588 11.25 48.625 11.25H32.375C31.3412 11.25 30.5 12.0912 30.5 13.125V16.875C30.5 17.91 29.66 18.75 28.625 18.75C27.59 18.75 26.75 17.91 26.75 16.875V13.125C26.75 10.0238 29.2738 7.5 32.375 7.5H48.625C51.7262 7.5 54.25 10.0238 54.25 13.125V16.875C54.25 17.91 53.41 18.75 52.375 18.75Z" fill="url(#paint2_linear_7810_7580)"/>
<path d="M50.5 15H54.25C55.6313 15 56.75 16.1187 56.75 17.5V18.75H48V17.5C48 16.1187 49.1187 15 50.5 15Z" fill="url(#paint3_linear_7810_7580)"/>
<path d="M26.75 15H30.5C31.8813 15 33 16.1187 33 17.5V18.75H24.25V17.5C24.25 16.1187 25.3687 15 26.75 15Z" fill="url(#paint4_linear_7810_7580)"/>
<path d="M69.25 26.25V60C69.25 64.1375 65.8875 67.5 61.75 67.5H19.25C15.1125 67.5 11.75 64.1375 11.75 60V26.25C11.75 22.1125 15.1125 18.75 19.25 18.75H61.75C65.8875 18.75 69.25 22.1125 69.25 26.25Z" fill="url(#paint5_linear_7810_7580)"/>
<path d="M69.25 26.25V33.75H11.75V26.25C11.75 22.1125 15.1125 18.75 19.25 18.75H61.75C65.8875 18.75 69.25 22.1125 69.25 26.25Z" fill="url(#paint6_linear_7810_7580)"/>
<path d="M25.5 30H23C21.6187 30 20.5 31.12 20.5 32.5V36.25C20.5 37.63 21.6187 38.75 23 38.75H25.5C26.8813 38.75 28 37.63 28 36.25V32.5C28 31.12 26.8813 30 25.5 30Z" fill="url(#paint7_linear_7810_7580)"/>
<path d="M58 30H55.5C54.1187 30 53 31.12 53 32.5V36.25C53 37.63 54.1187 38.75 55.5 38.75H58C59.3813 38.75 60.5 37.63 60.5 36.25V32.5C60.5 31.12 59.3813 30 58 30Z" fill="url(#paint8_linear_7810_7580)"/>
<path d="M40.5 62.5C47.0584 62.5 52.375 57.1834 52.375 50.625C52.375 44.0666 47.0584 38.75 40.5 38.75C33.9416 38.75 28.625 44.0666 28.625 50.625C28.625 57.1834 33.9416 62.5 40.5 62.5Z" fill="white"/>
<path d="M45.5 48.75H43V46.25C43 44.87 41.8813 43.75 40.5 43.75C39.1187 43.75 38 44.87 38 46.25V48.75H35.5C34.1187 48.75 33 49.87 33 51.25C33 52.63 34.1187 53.75 35.5 53.75H38V56.25C38 57.63 39.1187 58.75 40.5 58.75C41.8813 58.75 43 57.63 43 56.25V53.75H45.5C46.8813 53.75 48 52.63 48 51.25C48 49.87 46.8813 48.75 45.5 48.75Z" fill="url(#paint9_linear_7810_7580)"/>
</g>
<defs>
<linearGradient id="paint0_linear_7810_7580" x1="19.25" y1="69.375" x2="26.75" y2="69.375" gradientUnits="userSpaceOnUse">
<stop stop-color="#A4A4A4"/>
<stop offset="0.63" stop-color="#7F7F7F"/>
<stop offset="1" stop-color="#6F6F6F"/>
</linearGradient>
<linearGradient id="paint1_linear_7810_7580" x1="54.25" y1="69.375" x2="61.75" y2="69.375" gradientUnits="userSpaceOnUse">
<stop stop-color="#A4A4A4"/>
<stop offset="0.63" stop-color="#7F7F7F"/>
<stop offset="1" stop-color="#6F6F6F"/>
</linearGradient>
<linearGradient id="paint2_linear_7810_7580" x1="49.0937" y1="4.28571" x2="49.0937" y2="28.3929" gradientUnits="userSpaceOnUse">
<stop stop-color="#A4A4A4"/>
<stop offset="0.63" stop-color="#7F7F7F"/>
<stop offset="1" stop-color="#6F6F6F"/>
</linearGradient>
<linearGradient id="paint3_linear_7810_7580" x1="48" y1="16.875" x2="56.75" y2="16.875" gradientUnits="userSpaceOnUse">
<stop stop-color="#A4A4A4"/>
<stop offset="0.63" stop-color="#7F7F7F"/>
<stop offset="1" stop-color="#6F6F6F"/>
</linearGradient>
<linearGradient id="paint4_linear_7810_7580" x1="24.25" y1="16.875" x2="33" y2="16.875" gradientUnits="userSpaceOnUse">
<stop stop-color="#A4A4A4"/>
<stop offset="0.63" stop-color="#7F7F7F"/>
<stop offset="1" stop-color="#6F6F6F"/>
</linearGradient>
<linearGradient id="paint5_linear_7810_7580" x1="-3.84825" y1="51.9106" x2="80.2762" y2="37.1929" gradientUnits="userSpaceOnUse">
<stop stop-color="#00995B"/>
<stop offset="0.093" stop-color="#009E5E"/>
<stop offset="0.666" stop-color="#00BA6D"/>
<stop offset="1" stop-color="#00C473"/>
</linearGradient>
<linearGradient id="paint6_linear_7810_7580" x1="39.5531" y1="25.8511" x2="38.6232" y2="79.2475" gradientUnits="userSpaceOnUse">
<stop stop-color="#00D772"/>
<stop offset="0.318" stop-color="#00D272"/>
<stop offset="0.669" stop-color="#00C570"/>
<stop offset="0.996" stop-color="#00B26E"/>
<stop offset="1" stop-color="#00B26E"/>
</linearGradient>
<linearGradient id="paint7_linear_7810_7580" x1="53" y1="27.5" x2="53" y2="46.25" gradientUnits="userSpaceOnUse">
<stop stop-color="#A4A4A4"/>
<stop offset="0.63" stop-color="#7F7F7F"/>
<stop offset="1" stop-color="#6F6F6F"/>
</linearGradient>
<linearGradient id="paint8_linear_7810_7580" x1="53" y1="27.5" x2="53" y2="46.25" gradientUnits="userSpaceOnUse">
<stop stop-color="#A4A4A4"/>
<stop offset="0.63" stop-color="#7F7F7F"/>
<stop offset="1" stop-color="#6F6F6F"/>
</linearGradient>
<linearGradient id="paint9_linear_7810_7580" x1="40.5" y1="76.4037" x2="40.5" y2="35.5475" gradientUnits="userSpaceOnUse">
<stop stop-color="#FD5940"/>
<stop offset="0.007" stop-color="#FD5940"/>
<stop offset="0.989" stop-color="#F8528A"/>
<stop offset="1" stop-color="#F8528A"/>
</linearGradient>
<clipPath id="clip0_7810_7580">
<rect width="80" height="80" fill="white" transform="translate(0.5)"/>
</clipPath>
</defs>
</svg>
