<svg width="81" height="80" viewBox="0 0 81 80" fill="none" xmlns="http://www.w3.org/2000/svg">
<g clip-path="url(#clip0_7810_7555)">
<path d="M71.75 3.75C73.8213 3.75 75.5 5.42875 75.5 7.5C75.5 9.57125 73.8213 11.25 71.75 11.25C69.6788 11.25 68 9.57125 68 7.5C68 5.42875 69.6788 3.75 71.75 3.75ZM69.25 40H73.625C76.9125 40 79.5375 37.1875 79.225 33.8375C78.95 30.9 76.3375 28.75 72.925 28.75H65.075C63.3988 28.75 61.86 27.5263 61.75 25.8538C61.6875 24.9025 62.0463 24.0287 62.6625 23.4125C63.225 22.85 64.0125 22.5 64.875 22.5H72.2C73.8388 22.5 75.3325 21.3175 75.4888 19.6862C75.6675 17.8175 74.2075 16.25 72.375 16.25H57.9125C56.5738 16.25 55.4875 15.1638 55.4875 13.825V13.7625C55.4875 12.375 56.6125 11.25 58 11.25H59.0388C61.0425 11.25 62.8463 9.7725 62.99 7.775C63.0725 6.62875 62.6338 5.585 61.9 4.85C61.225 4.175 60.2875 3.75 59.25 3.75H13.2825C10.4 3.75 7.86875 6.11125 8.00625 8.99C8.06625 10.27 8.615 11.4287 9.4625 12.2875C10.375 13.1875 11.625 13.75 13 13.75H22.3875C24.0638 13.75 25.6025 14.9738 25.7125 16.6463C25.775 17.5975 25.4163 18.4713 24.8 19.0875C24.2375 19.65 23.45 20 22.5875 20H18.2325C15.6213 20 13.2838 21.9013 13.0263 24.5C12.7313 27.4813 15.0713 30 18 30H19.0413C20.8988 30 22.63 31.25 22.9475 33.08C23.3575 35.4475 21.54 37.5 19.25 37.5H10.7625C7.5 37.5 4.5875 39.8875 4.275 43.1375C3.925 46.8625 6.85 50 10.5 50H23.625C27.4225 50 30.5 53.0775 30.5 56.875C30.5 60.6725 27.4225 63.75 23.625 63.75H10.7688C7.505 63.75 4.59 66.1362 4.28 69.3862C3.92375 73.1137 6.84625 76.25 10.5 76.25H24.25H29.25H68C70.925 76.25 73.2625 73.7375 72.975 70.7625C72.725 68.1625 70.4 66.25 67.125 66.25H65.125C62.625 66.25 60.4125 64.2 60.5 61.7125C60.55 60.575 61.025 59.5375 61.7875 58.7875C62.575 57.9875 63.675 57.5 64.875 57.5H69.075C71.6125 57.5 73.875 55.6875 74.2 53.175C74.6 50.175 72.3375 47.6125 69.4375 47.5C67.4875 47.425 65.7125 46.075 65.525 44.1375C65.4 42.95 65.8375 41.85 66.6 41.1C67.275 40.425 68.2125 40 69.25 40ZM5.5 20C2.73875 20 0.5 22.2387 0.5 25C0.5 27.7613 2.73875 30 5.5 30C8.26125 30 10.5 27.7613 10.5 25C10.5 22.2387 8.26125 20 5.5 20Z" fill="#E7FAEA"/>
<path d="M46.5195 27.2695L48.2733 18.547L65.8945 18.5195C68.3108 18.5195 70.2695 20.4783 70.2695 22.8945C70.2695 25.3108 68.3108 27.2695 65.8945 27.2695H46.5195Z" fill="#FF9862"/>
<path d="M71.0643 36.2066C72.5381 34.3691 72.1956 31.7191 70.3006 30.2866C67.5281 28.1891 64.8981 25.6866 62.3606 23.3178C61.4856 22.5491 60.5268 21.8166 59.4343 21.3191C56.9131 20.3203 54.2506 19.7503 51.6543 18.9866C51.2243 18.8566 50.7843 18.7753 50.3181 18.7816C46.7243 18.8278 43.1281 18.8791 39.5406 19.1141C37.4881 19.2616 35.7706 20.8078 35.5381 22.8641C35.2756 25.1841 37.0018 27.2741 39.3943 27.5316C42.7018 27.8703 46.0219 28.0328 49.3419 28.1978C50.7818 28.6566 52.2218 29.1128 53.6706 29.5441C54.6368 29.8728 56.1543 30.2778 57.1418 30.5353C57.8156 30.7341 58.2906 31.2003 58.8431 31.6391C60.9256 33.2703 63.0419 35.1566 64.9644 36.9428C66.8581 38.3728 69.5906 38.0441 71.0643 36.2066Z" fill="#FFB062"/>
<path d="M38.787 48.0631C39.4845 46.0956 38.587 43.9069 36.7983 42.8319L34.7245 41.5856C33.692 40.9681 33.1108 39.7894 33.2233 38.5944L33.462 36.1956C33.6533 34.2844 34.742 32.5694 36.3833 31.5819C37.7095 30.7844 39.3683 30.7694 40.752 31.4619L41.4845 31.8281C42.1445 32.1581 42.6658 32.7106 42.9558 33.3894L44.2658 36.4469C44.4508 36.8794 44.3783 37.3781 44.077 37.7394L40.1083 42.5031C38.772 44.1069 38.6458 46.4694 39.952 48.0969C41.7495 50.3369 45.017 50.2781 46.7545 48.1919L51.5333 42.4594C53.4895 40.1119 53.9645 36.8656 52.7608 34.0569L51.2083 30.4306C51.5658 30.6706 52.1233 31.0194 52.4795 31.2394C53.0033 31.5881 53.4458 32.0531 53.8083 32.5706C54.6995 33.7594 55.152 35.4544 55.6283 36.8456C56.2445 38.6856 56.8395 40.5331 57.3708 42.4019C57.4058 42.5244 57.4483 42.6531 57.4945 42.7744C58.3908 45.1094 61.0708 46.2356 63.3845 45.1969C65.5308 44.2331 66.4308 41.6331 65.5945 39.4331C64.5533 36.6931 63.697 34.0631 62.7808 31.2381C62.3395 30.0119 61.7645 28.8281 61.0508 27.7319C59.9133 25.9019 57.922 23.9131 56.4245 22.3406C55.5808 21.4631 54.6983 20.6044 53.6445 19.9706C52.8133 19.4694 51.9083 19.0956 50.9695 18.8544C50.097 18.6269 49.177 18.5331 48.2758 18.5456L42.4545 18.5956L39.6945 18.6281C39.0233 18.6831 38.322 18.3706 37.7483 18.0419C35.2195 16.7119 32.3695 15.2706 29.8133 14.0156L15.4258 33.1656L16.607 33.6706C19.7283 35.0081 22.3383 37.3806 23.9883 40.3256L25.4733 43.6981C25.517 43.7969 25.5795 43.8806 25.6295 43.9744C26.617 46.0581 28.182 47.8656 30.2233 49.0906L32.3958 50.3944C34.722 51.7919 37.827 50.7706 38.787 48.0631Z" fill="#FFB062"/>
<path d="M21.5381 7.03918L21.5418 7.03668C23.4243 5.55293 24.7181 5.73793 27.1743 7.29543L35.0693 12.6704C36.2868 13.4992 36.7918 15.0954 36.1668 16.4279C35.7756 17.2604 35.0843 18.0654 34.2068 18.7592L18.3206 33.6567C16.3106 35.2404 13.6181 35.1179 12.3068 33.3804L9.63806 29.8429C8.44806 28.2667 9.11681 26.0992 10.4443 24.2354L21.1068 7.42043C21.2418 7.28418 21.3868 7.15793 21.5381 7.03918Z" fill="url(#paint0_linear_7810_7555)"/>
<path d="M22.107 22.242C21.0445 20.872 19.0808 20.612 17.7208 21.6633C16.3608 22.7133 16.1195 24.6745 17.182 26.0445C18.2445 27.4145 20.2083 27.6745 21.5683 26.6233C22.927 25.5733 23.1695 23.612 22.107 22.242Z" fill="url(#paint1_linear_7810_7555)"/>
<path d="M60.5 70H15.5C12.7387 70 10.5 67.7613 10.5 65V56.25C10.5 53.4887 12.7387 51.25 15.5 51.25H60.5C63.2613 51.25 65.5 53.4887 65.5 56.25V65C65.5 67.7613 63.2613 70 60.5 70Z" fill="url(#paint2_linear_7810_7555)"/>
<path d="M52.375 63.75H23.625C21.8987 63.75 20.5 62.3513 20.5 60.625C20.5 58.8987 21.8987 57.5 23.625 57.5H52.375C54.1013 57.5 55.5 58.8987 55.5 60.625C55.5 62.3513 54.1013 63.75 52.375 63.75Z" fill="white"/>
<path d="M30.5225 63.75H45.4762C48.5212 61.47 50.5 57.8462 50.5 53.75C50.5 46.8463 44.9037 41.25 38 41.25C31.0963 41.25 25.5 46.8463 25.5 53.75C25.5 57.8462 27.4787 61.47 30.5225 63.75Z" fill="url(#paint3_linear_7810_7555)"/>
<path d="M32.3967 50.3959C34.723 51.7934 37.828 50.7722 38.788 48.0647C39.4855 46.0972 38.588 43.9084 36.7992 42.8334L34.7255 41.5872C33.9742 41.1384 33.4717 40.3884 33.2917 39.5547L24.9805 42.5772L25.4742 43.6997C25.518 43.7984 25.5805 43.8822 25.6305 43.9759C26.618 46.0597 28.183 47.8672 30.2242 49.0922L32.3967 50.3959Z" fill="#FFB062"/>
</g>
<defs>
<linearGradient id="paint0_linear_7810_7555" x1="1.58225" y1="25.5751" x2="42.1098" y2="19.8424" gradientUnits="userSpaceOnUse">
<stop stop-color="#00995B"/>
<stop offset="0.093" stop-color="#009E5E"/>
<stop offset="0.666" stop-color="#00BA6D"/>
<stop offset="1" stop-color="#00C473"/>
</linearGradient>
<linearGradient id="paint1_linear_7810_7555" x1="23.1951" y1="23.3461" x2="14.9652" y2="25.1285" gradientUnits="userSpaceOnUse">
<stop stop-color="#E7FAFF"/>
<stop offset="1" stop-color="#9CEEFF"/>
</linearGradient>
<linearGradient id="paint2_linear_7810_7555" x1="10.5" y1="60.625" x2="65.5" y2="60.625" gradientUnits="userSpaceOnUse">
<stop stop-color="#A4A4A4"/>
<stop offset="0.63" stop-color="#7F7F7F"/>
<stop offset="1" stop-color="#6F6F6F"/>
</linearGradient>
<linearGradient id="paint3_linear_7810_7555" x1="38" y1="58.8463" x2="38" y2="41.4388" gradientUnits="userSpaceOnUse">
<stop stop-color="#FEAA53"/>
<stop offset="0.612" stop-color="#FFCD49"/>
<stop offset="1" stop-color="#FFDE44"/>
</linearGradient>
<clipPath id="clip0_7810_7555">
<rect width="80" height="80" fill="white" transform="translate(0.5)"/>
</clipPath>
</defs>
</svg>
