<svg width="81" height="80" viewBox="0 0 81 80" fill="none" xmlns="http://www.w3.org/2000/svg">
<g clip-path="url(#clip0_7810_7547)">
<path d="M75.6397 57.5H77.9997C79.5059 57.5 80.7034 56.1725 80.4647 54.605C80.2772 53.365 79.1172 52.5 77.8622 52.5H77.3747C76.3372 52.5 75.4997 51.6625 75.4997 50.625C75.4997 49.5875 76.3372 48.75 77.3747 48.75C78.4122 48.75 79.2497 47.9125 79.2497 46.875C79.2497 45.8375 78.4122 45 77.3747 45H67.9997V27.5H75.9497C77.5972 27.5 79.0972 26.305 79.2397 24.6638C79.3997 22.8 77.9547 21.25 76.1247 21.25H74.8747C73.8372 21.25 72.9997 20.4125 72.9997 19.375C72.9997 18.3375 73.8372 17.5 74.8747 17.5H76.7497C79.0622 17.5 80.8872 15.4 80.4247 13.0125C80.0872 11.225 78.4247 10 76.6122 10H68.6247C67.5872 10 66.7497 9.1625 66.7497 8.125C66.7497 7.0875 67.5872 6.25 68.6247 6.25H69.6997C71.3472 6.25 72.8472 5.055 72.9897 3.41375C73.1497 1.55 71.7047 0 69.8747 0H11.2997C9.65218 0 8.15218 1.195 8.00968 2.83625C7.84968 4.7 9.29468 6.25 11.1247 6.25H11.7497C13.1309 6.25 14.2497 7.36875 14.2497 8.75C14.2497 10.1313 13.1309 11.25 11.7497 11.25H4.38718C2.57468 11.25 0.912179 12.475 0.574679 14.2625C0.112179 16.65 1.93718 18.75 4.24968 18.75H4.87468C5.91218 18.75 6.74968 19.5875 6.74968 20.625C6.74968 21.6625 5.91218 22.5 4.87468 22.5H3.62468C1.79218 22.5 0.332179 24.0662 0.510929 25.935C0.665929 27.5662 2.15968 28.75 3.79968 28.75H5.36593C6.61093 28.75 7.76593 29.6012 7.96593 30.83C8.22093 32.3962 7.01843 33.75 5.49968 33.75C3.98093 33.75 2.77843 35.1038 3.03343 36.67C3.23468 37.8988 4.38843 38.75 5.63343 38.75H16.7497V40H12.9997V52.5H5.04968C3.40218 52.5 1.90218 53.695 1.75968 55.3363C1.59968 57.2 3.04468 58.75 4.87468 58.75C5.91218 58.75 6.74968 59.5875 6.74968 60.625C6.74968 61.6625 5.91218 62.5 4.87468 62.5H4.38718C2.57468 62.5 0.912179 63.725 0.574679 65.5125C0.112179 67.9 1.93718 70 4.24968 70H11.1247C12.1622 70 12.9997 70.8375 12.9997 71.875C12.9997 72.9125 12.1622 73.75 11.1247 73.75H10.0497C8.40218 73.75 6.90218 74.945 6.75968 76.5863C6.59968 78.45 8.04468 80 9.87468 80H70.9497C72.5972 80 74.0972 78.805 74.2397 77.1637C74.3997 75.3 72.9547 73.75 71.1247 73.75H69.3897C68.0684 73.75 66.8709 72.7875 66.7584 71.4712C66.6922 70.6975 66.9747 69.985 67.4859 69.4875C67.9372 69.025 68.5622 68.75 69.2497 68.75H77.3747C79.2072 68.75 80.6672 67.1825 80.4884 65.3137C80.3322 63.6825 78.8384 62.5 77.1997 62.5H75.4997C74.8122 62.5 74.1872 62.225 73.7372 61.7625C73.2259 61.2637 72.9434 60.5525 73.0097 59.7788C73.1209 58.4625 74.3197 57.5 75.6397 57.5Z" fill="#E7FAEA"/>
<path d="M24.25 11.25H56.75C63.6537 11.25 69.25 16.8463 69.25 23.75V56.25C69.25 63.1537 63.6537 68.75 56.75 68.75H24.25C17.3463 68.75 11.75 63.1537 11.75 56.25V23.75C11.75 16.8463 17.3463 11.25 24.25 11.25Z" fill="url(#paint0_linear_7810_7547)"/>
<path d="M69.2498 45V56.25C69.2498 63.15 63.6498 68.75 56.7498 68.75H47.3748C45.5373 68.75 44.0748 67.175 44.2623 65.3C44.4248 63.675 45.9123 62.5 47.5498 62.5H56.7498C57.4373 62.5 58.0623 62.225 58.5123 61.7625C58.9748 61.3125 59.2498 60.6875 59.2498 60C59.2498 59.3125 58.9748 58.6875 58.5123 58.2375C58.0623 57.775 57.4373 57.5 56.7498 57.5C55.2373 57.5 54.0248 56.15 54.2873 54.575C54.4873 53.35 55.6373 52.5 56.8873 52.5H61.1248C62.1623 52.5 62.9998 51.6625 62.9998 50.625C62.9998 49.5875 62.1623 48.75 61.1248 48.75H59.8748C58.8373 48.75 57.9998 47.9125 57.9998 46.875C57.9998 45.8375 58.8373 45 59.8748 45H69.2498Z" fill="url(#paint1_linear_7810_7547)"/>
<path d="M41.6928 30.5776C44.0391 30.7351 46.5028 31.4363 48.6291 32.6876C49.6441 33.2851 50.9216 33.1676 51.7466 32.3276L52.7153 31.3401C53.7603 30.2738 53.6716 28.5076 52.4741 27.6151C51.3803 26.7988 50.1016 26.1001 48.7078 25.5376L48.9741 22.9776C49.1228 21.5451 48.0341 20.2826 46.5953 20.2213L43.7841 20.1001C42.4641 20.0426 41.3266 21.0238 41.1903 22.3388L41.0053 24.1126C34.6841 24.1938 30.4803 27.3438 30.1403 32.4213C29.4703 42.4351 45.2941 42.6851 44.9891 47.2326C44.8841 48.7901 43.4503 49.6201 40.8316 49.4463C38.0741 49.2613 34.8378 48.2663 31.9703 46.6326C30.8528 45.9951 29.4428 46.2563 28.6791 47.2913L27.6703 48.6576C26.7991 49.8388 27.1353 51.4963 28.3766 52.2788C29.9078 53.2438 31.7353 54.0388 33.5603 54.6363L33.2941 57.0238C33.1328 58.4651 34.2291 59.7401 35.6778 59.7988L38.3391 59.9051C39.6503 59.9576 40.7791 58.9876 40.9241 57.6838L41.1266 55.8688C48.2141 55.7538 52.3228 52.1326 52.6528 47.1813C53.3166 37.2663 37.5166 36.6863 37.7741 32.8238C37.8853 31.2426 39.2803 30.4163 41.6928 30.5776Z" fill="white"/>
<path d="M35.425 14.2625C35.0875 12.475 33.425 11.25 31.6125 11.25H24.25C17.3463 11.25 11.75 16.8463 11.75 23.75V38.75H21.6162C22.8612 38.75 24.0162 37.8988 24.2162 36.67C24.4712 35.1038 23.2688 33.75 21.75 33.75C20.3687 33.75 19.25 32.6313 19.25 31.25C19.25 29.8687 20.3687 28.75 21.75 28.75H24.7C26.3388 28.75 27.8325 27.5675 27.9887 25.9363C28.1675 24.0675 26.7075 22.5 24.875 22.5H23.625C22.5875 22.5 21.75 21.6625 21.75 20.625C21.75 19.5875 22.5875 18.75 23.625 18.75H31.75C34.0625 18.75 35.8875 16.65 35.425 14.2625Z" fill="url(#paint2_linear_7810_7547)"/>
</g>
<defs>
<linearGradient id="paint0_linear_7810_7547" x1="43.9163" y1="-4.8725" x2="34.3738" y2="120.451" gradientUnits="userSpaceOnUse">
<stop stop-color="#00D772"/>
<stop offset="0.746" stop-color="#00B26E"/>
<stop offset="1" stop-color="#00B26E"/>
</linearGradient>
<linearGradient id="paint1_linear_7810_7547" x1="56.7473" y1="-41.9988" x2="56.7473" y2="83.3537" gradientUnits="userSpaceOnUse">
<stop stop-color="#00D772"/>
<stop offset="0.746" stop-color="#00B26E"/>
<stop offset="1" stop-color="#00B26E"/>
</linearGradient>
<linearGradient id="paint2_linear_7810_7547" x1="23.2325" y1="24.2687" x2="15.7075" y2="121.61" gradientUnits="userSpaceOnUse">
<stop stop-color="#00D772"/>
<stop offset="0.318" stop-color="#00D272"/>
<stop offset="0.669" stop-color="#00C570"/>
<stop offset="0.996" stop-color="#00B26E"/>
<stop offset="1" stop-color="#00B26E"/>
</linearGradient>
<clipPath id="clip0_7810_7547">
<rect width="80" height="80" fill="white" transform="translate(0.5)"/>
</clipPath>
</defs>
</svg>
