<svg width="81" height="80" viewBox="0 0 81 80" fill="none" xmlns="http://www.w3.org/2000/svg">
<g clip-path="url(#clip0_7810_7703)">
<path d="M74.3816 26.2505H76.1244C76.7773 26.2487 77.4216 26.1012 78.0103 25.8187C78.5989 25.5362 79.1171 25.1258 79.5269 24.6175C79.9368 24.1093 80.228 23.5159 80.3794 22.8808C80.5307 22.2456 80.5383 21.5847 80.4017 20.9462C80.1675 19.954 79.6014 19.0714 78.7972 18.4448C77.993 17.8182 76.9989 17.485 75.9795 17.5005H64.3816C63.7731 17.5139 63.1794 17.3128 62.7043 16.9323C62.2293 16.5519 61.9033 16.0164 61.7835 15.4197C61.7227 15.061 61.7409 14.6933 61.8368 14.3424C61.9327 13.9914 62.104 13.6656 62.3388 13.3877C62.5736 13.1098 62.8662 12.8864 63.1962 12.7332C63.5261 12.5799 63.8856 12.5005 64.2494 12.5005H68.4796C69.499 12.516 70.4931 12.1828 71.2973 11.5562C72.1015 10.9296 72.6675 10.0471 72.9017 9.05481C73.0383 8.41634 73.0307 7.75541 72.8794 7.12026C72.728 6.48511 72.4368 5.89176 72.0269 5.38349C71.6171 4.87522 71.0989 4.46486 70.5103 4.18235C69.9216 3.89984 69.2773 3.75231 68.6244 3.75051H41.1244H11.2676C10.2482 3.73507 9.25421 4.06833 8.45018 4.69509C7.64616 5.32185 7.08038 6.20448 6.84659 7.19676C6.71011 7.83524 6.71787 8.49613 6.86931 9.13122C7.02074 9.76632 7.31202 10.3596 7.72192 10.8678C8.13181 11.376 8.64997 11.7863 9.23861 12.0687C9.82724 12.3512 10.4715 12.4987 11.1244 12.5005H14.1172C14.7257 12.4871 15.3195 12.6882 15.7945 13.0687C16.2695 13.4491 16.5955 13.9846 16.7153 14.5813C16.7761 14.94 16.7579 15.3077 16.662 15.6587C16.5661 16.0096 16.3948 16.3354 16.16 16.6133C15.9252 16.8913 15.6326 17.1146 15.3026 17.2679C14.9727 17.4211 14.6132 17.5005 14.2494 17.5005H6.2692C5.24981 17.485 4.25571 17.8182 3.45151 18.4448C2.64731 19.0714 2.08127 19.954 1.8471 20.9462C1.71048 21.5847 1.71812 22.2456 1.86945 22.8808C2.02079 23.5159 2.31201 24.1093 2.72187 24.6175C3.13173 25.1258 3.64988 25.5362 4.23853 25.8187C4.82718 26.1012 5.47148 26.2487 6.1244 26.2505H22.9994V40.0005H6.2692C5.24981 39.985 4.25571 40.3182 3.45151 40.9448C2.64731 41.5714 2.08127 42.454 1.8471 43.4462C1.71048 44.0847 1.71812 44.7456 1.86945 45.3808C2.02079 46.0159 2.31201 46.6093 2.72187 47.1175C3.13173 47.6258 3.64988 48.0362 4.23853 48.3187C4.82718 48.6012 5.47148 48.7487 6.1244 48.7505H9.11723C9.72569 48.7371 10.3195 48.9382 10.7945 49.3187C11.2695 49.6991 11.5955 50.2346 11.7153 50.8313C11.7761 51.19 11.7579 51.5577 11.662 51.9087C11.5661 52.2596 11.3948 52.5854 11.16 52.8633C10.9252 53.1413 10.6326 53.3646 10.3026 53.5179C9.97266 53.6711 9.61323 53.7505 9.2494 53.7505H7.9994C7.00484 53.7505 6.05102 54.1456 5.34775 54.8489C4.64449 55.5521 4.2494 56.506 4.2494 57.5005C4.2494 58.4951 4.64449 59.4489 5.34775 60.1522C6.05102 60.8554 7.00484 61.2505 7.9994 61.2505H12.3744C12.7848 61.2505 13.1911 61.3313 13.5703 61.4884C13.9494 61.6454 14.2939 61.8756 14.5841 62.1658C14.8743 62.456 15.1045 62.8005 15.2615 63.1796C15.4186 63.5588 15.4994 63.9651 15.4994 64.3755C15.4994 64.7859 15.4186 65.1923 15.2615 65.5714C15.1045 65.9505 14.8743 66.295 14.5841 66.5852C14.2939 66.8754 13.9494 67.1056 13.5703 67.2626C13.1911 67.4197 12.7848 67.5005 12.3744 67.5005H11.2693C10.2499 67.485 9.25575 67.8182 8.45155 68.4448C7.64735 69.0714 7.08129 69.954 6.84712 70.9462C6.71049 71.5847 6.71812 72.2456 6.86945 72.8808C7.02078 73.5159 7.312 74.1093 7.72186 74.6175C8.13172 75.1258 8.64988 75.5362 9.23853 75.8187C9.82718 76.1012 10.4715 76.2487 11.1244 76.2505H41.1244H67.2312C68.2506 76.266 69.2446 75.9327 70.0486 75.3059C70.8527 74.6792 71.4184 73.7965 71.6522 72.8043C71.7887 72.1658 71.7809 71.5049 71.6295 70.8698C71.4781 70.2347 71.1868 69.6414 70.7769 69.1332C70.367 68.625 69.8488 68.2147 69.2602 67.9323C68.6716 67.6498 68.0273 67.5023 67.3744 67.5005H66.1244C65.2956 67.5005 64.5007 67.1713 63.9147 66.5852C63.3286 65.9992 62.9994 65.2043 62.9994 64.3755C62.9994 63.5467 63.3286 62.7519 63.9147 62.1658C64.5007 61.5798 65.2956 61.2505 66.1244 61.2505H69.2494C70.244 61.2505 71.1978 60.8554 71.9011 60.1522C72.6043 59.4489 72.9994 58.4951 72.9994 57.5005C72.9994 56.506 72.6043 55.5521 71.9011 54.8489C71.1978 54.1456 70.244 53.7505 69.2494 53.7505H59.2494V40.0005H74.7296C75.749 40.016 76.7431 39.6828 77.5473 39.0562C78.3515 38.4296 78.9175 37.5471 79.1517 36.5548C79.2883 35.9163 79.2807 35.2554 79.1294 34.6203C78.978 33.9851 78.6868 33.3918 78.2769 32.8835C77.8671 32.3752 77.3489 31.9649 76.7603 31.6824C76.1716 31.3998 75.5273 31.2523 74.8744 31.2505H74.2494C73.8856 31.2505 73.5261 31.1711 73.1962 31.0179C72.8662 30.8646 72.5736 30.6413 72.3388 30.3633C72.104 30.0854 71.9327 29.7596 71.8368 29.4086C71.7409 29.0577 71.7227 28.69 71.7835 28.3313C71.9033 27.7346 72.2293 27.1991 72.7043 26.8187C73.1793 26.4382 73.7731 26.2371 74.3816 26.2505Z" fill="#E7FAEA"/>
<path d="M66.7552 67.4242L61.1352 63.698C59.9011 62.8795 58.4522 62.445 56.9714 62.4492L24.0127 62.5505C22.5319 62.5545 21.0854 62.9963 19.8552 63.8205L14.2539 67.5755" stroke="url(#paint0_linear_7810_7703)" stroke-width="4" stroke-linecap="round" stroke-linejoin="round"/>
<path d="M73 51.25H8" stroke="url(#paint1_linear_7810_7703)" stroke-width="4" stroke-linecap="round" stroke-linejoin="round"/>
<path d="M73 56.25C75.7614 56.25 78 54.0114 78 51.25C78 48.4886 75.7614 46.25 73 46.25C70.2386 46.25 68 48.4886 68 51.25C68 54.0114 70.2386 56.25 73 56.25Z" fill="url(#paint2_linear_7810_7703)"/>
<path d="M68 73.75C70.7614 73.75 73 71.5114 73 68.75C73 65.9886 70.7614 63.75 68 63.75C65.2386 63.75 63 65.9886 63 68.75C63 71.5114 65.2386 73.75 68 73.75Z" fill="url(#paint3_linear_7810_7703)"/>
<path d="M8 56.25C10.7614 56.25 13 54.0114 13 51.25C13 48.4886 10.7614 46.25 8 46.25C5.23858 46.25 3 48.4886 3 51.25C3 54.0114 5.23858 56.25 8 56.25Z" fill="url(#paint4_linear_7810_7703)"/>
<path d="M13 73.75C15.7614 73.75 18 71.5114 18 68.75C18 65.9886 15.7614 63.75 13 63.75C10.2386 63.75 8 65.9886 8 68.75C8 71.5114 10.2386 73.75 13 73.75Z" fill="url(#paint5_linear_7810_7703)"/>
<path d="M53.0562 14.5256C49.5621 13.3154 46.2421 11.6515 43.1815 9.57649C42.3912 9.038 41.457 8.75 40.5007 8.75C39.5444 8.75 38.6103 9.038 37.82 9.57649C34.759 11.6515 31.4386 13.3154 27.9442 14.5256C24.221 15.8136 20.3351 16.5715 16.4007 16.7768C15.8139 16.8108 15.2628 17.0698 14.8622 17.4999C14.4616 17.93 14.2424 18.4981 14.2502 19.0858C14.2936 31.3991 15.0447 46.484 27.9442 59.5231C29.8379 61.4374 34.7484 65.3849 37.8372 67.8231C38.5948 68.4234 39.533 68.75 40.4996 68.75C41.4662 68.75 42.4044 68.4234 43.162 67.8231C46.2508 65.3849 51.1614 61.4374 53.055 59.5231C65.9546 46.484 66.7057 31.3991 66.7502 19.0846C66.7578 18.497 66.5385 17.929 66.1379 17.4989C65.7374 17.0689 65.1864 16.8098 64.5997 16.7757C60.6654 16.5708 56.7794 15.8133 53.0562 14.5256Z" fill="url(#paint6_linear_7810_7703)"/>
<path d="M48 33.7506C48.0011 32.4338 47.6555 31.1399 46.998 29.999C46.3405 28.8581 45.3941 27.9105 44.2542 27.2514C43.1142 26.5922 41.8208 26.2448 40.504 26.2441C39.1872 26.2434 37.8935 26.5894 36.7528 27.2473C35.6121 27.9052 34.6648 28.8519 34.006 29.992C33.3473 31.1322 33.0003 32.4257 33 33.7425C32.9997 35.0593 33.3461 36.353 34.0044 37.4934C34.6627 38.6339 35.6096 39.5809 36.75 40.2393V47.5006C36.75 48.4951 37.1451 49.449 37.8483 50.1522C38.5516 50.8555 39.5054 51.2506 40.5 51.2506C41.4946 51.2506 42.4484 50.8555 43.1516 50.1522C43.8549 49.449 44.25 48.4951 44.25 47.5006V40.2393C45.3899 39.5824 46.3366 38.6368 46.9949 37.4977C47.6532 36.3586 47.9999 35.0662 48 33.7506Z" fill="white"/>
</g>
<defs>
<linearGradient id="paint0_linear_7810_7703" x1="40.5112" y1="71.5501" x2="40.4862" y2="61.5302" gradientUnits="userSpaceOnUse">
<stop stop-color="#848E97"/>
<stop offset="1" stop-color="#8C96A1"/>
</linearGradient>
<linearGradient id="paint1_linear_7810_7703" x1="nan" y1="nan" x2="nan" y2="nan" gradientUnits="userSpaceOnUse">
<stop stop-color="#848E97"/>
<stop offset="1" stop-color="#8C96A1"/>
</linearGradient>
<linearGradient id="paint2_linear_7810_7703" x1="76.125" y1="43.3929" x2="76.125" y2="64.8214" gradientUnits="userSpaceOnUse">
<stop stop-color="#A4A4A4"/>
<stop offset="0.63" stop-color="#7F7F7F"/>
<stop offset="1" stop-color="#6F6F6F"/>
</linearGradient>
<linearGradient id="paint3_linear_7810_7703" x1="71.125" y1="60.8929" x2="71.125" y2="82.3214" gradientUnits="userSpaceOnUse">
<stop stop-color="#A4A4A4"/>
<stop offset="0.63" stop-color="#7F7F7F"/>
<stop offset="1" stop-color="#6F6F6F"/>
</linearGradient>
<linearGradient id="paint4_linear_7810_7703" x1="11.125" y1="43.3929" x2="11.125" y2="64.8214" gradientUnits="userSpaceOnUse">
<stop stop-color="#A4A4A4"/>
<stop offset="0.63" stop-color="#7F7F7F"/>
<stop offset="1" stop-color="#6F6F6F"/>
</linearGradient>
<linearGradient id="paint5_linear_7810_7703" x1="16.125" y1="60.8929" x2="16.125" y2="82.3214" gradientUnits="userSpaceOnUse">
<stop stop-color="#A4A4A4"/>
<stop offset="0.63" stop-color="#7F7F7F"/>
<stop offset="1" stop-color="#6F6F6F"/>
</linearGradient>
<linearGradient id="paint6_linear_7810_7703" x1="43.6194" y1="-8.07348" x2="32.2597" y2="122.469" gradientUnits="userSpaceOnUse">
<stop stop-color="#00D772"/>
<stop offset="0.746" stop-color="#00B26E"/>
<stop offset="1" stop-color="#00B26E"/>
</linearGradient>
<clipPath id="clip0_7810_7703">
<rect width="80" height="80" fill="white" transform="translate(0.5)"/>
</clipPath>
</defs>
</svg>
