<svg width="135" height="46" viewBox="0 0 135 46" fill="none" xmlns="http://www.w3.org/2000/svg">
<g clip-path="url(#clip0_3436_313402)">
<path d="M123.744 25.7633H111.267C111.316 25.9604 111.351 26.1355 111.396 26.3054C111.958 28.1638 113.693 29.5553 115.628 29.742C117.794 29.9521 119.546 29.1416 121.06 27.6074L123.08 29.9573C122.463 30.7544 121.674 31.401 120.771 31.8481C117.542 33.4782 114.334 33.521 111.276 31.4681C109.148 30.0416 107.995 27.9537 107.761 25.4002C107.502 22.6224 108.371 20.2246 110.421 18.3143C112.199 16.6557 114.339 15.9658 116.764 16.1681C118.772 16.3367 120.501 17.1044 121.879 18.5906C123.126 19.9354 123.754 21.5525 123.894 23.3694C123.946 24.1705 123.896 24.975 123.744 25.7633ZM120.329 22.8519C119.976 20.9067 118.48 19.261 116.196 19.1741C113.518 19.073 111.826 20.7692 111.313 22.8519H120.329Z" fill="black"/>
<path d="M98.9944 11.3503V22.1568L99.0489 22.1828C99.224 21.9882 99.4004 21.7937 99.5677 21.5992C101.118 19.8217 102.669 18.045 104.221 16.2692C104.299 16.1782 104.409 16.1202 104.528 16.1071C105.918 16.0954 107.308 16.098 108.699 16.098C108.731 16.098 108.763 16.1045 108.852 16.1136C106.546 18.7604 104.266 21.3761 101.971 24.0126L109.54 32.7779C109.426 32.7856 109.356 32.796 109.281 32.796C107.94 32.796 106.6 32.796 105.261 32.7882C105.126 32.7806 104.998 32.7222 104.904 32.6248C103.002 30.4246 101.1 28.2199 99.1981 26.011C99.1501 25.9539 99.0969 25.9021 99.0035 25.8022V32.7727H95.5527C95.5527 32.6936 95.5371 32.6067 95.5371 32.5133C95.5371 26.0542 95.5371 19.5947 95.5371 13.1348C95.5287 13.0581 95.5475 12.981 95.5902 12.9168C95.6328 12.8526 95.6966 12.8053 95.7705 12.7833C96.7704 12.3385 97.7638 11.8756 98.7532 11.4294C98.8181 11.4126 98.892 11.3867 98.9944 11.3503Z" fill="black"/>
<path d="M78.207 24.6402C78.15 25.9111 77.9399 27.1457 77.3991 28.2973C76.3798 30.4669 74.6524 31.8545 72.37 32.4653C69.2395 33.3043 66.4344 32.6248 64.0768 30.3515C63.0471 29.3594 62.4428 28.1209 62.1393 26.7333C61.7724 25.1113 61.7995 23.425 62.2184 21.8157C62.7942 19.6111 64.1637 18.0121 66.1686 17.0421C69.3147 15.5235 72.3648 15.7816 75.1997 17.8734C76.9011 19.13 77.7843 20.8794 78.0683 22.9466C78.1448 23.5068 78.1616 24.0761 78.207 24.6402ZM74.8573 24.4431C74.8262 24.1189 74.8197 23.7947 74.7614 23.4705C74.419 21.616 73.3919 20.3088 71.5841 19.7097C69.4729 19.0133 67.2566 19.746 66.07 21.4954C65.2323 22.7326 65.0546 24.1176 65.3217 25.5558C65.6524 27.3402 66.6652 28.6072 68.39 29.209C70.5168 29.952 72.7604 29.2219 73.9781 27.4556C74.6031 26.553 74.834 25.5285 74.8573 24.4431Z" fill="black"/>
<path d="M47.8359 32.7763V10.8716H51.2479V29.3294H61.4306V32.7763H47.8359Z" fill="black"/>
<path d="M93.6871 30.2425C92.7676 31.2134 91.6222 31.9419 90.353 32.3628C87.0875 33.4496 83.4512 32.4614 81.2466 29.8742C80.3246 28.7926 79.8383 27.5127 79.623 26.1251C79.3727 24.5079 79.4324 22.905 79.9602 21.3436C80.7888 18.8926 82.5253 17.3235 84.9348 16.5454C88.1769 15.5079 91.0947 16.1641 93.5847 18.5347C93.6168 18.568 93.6471 18.6031 93.6754 18.6398C93.407 18.8926 93.1489 19.139 92.8883 19.3828C92.4434 19.8017 91.9934 20.2141 91.5538 20.6382C91.5351 20.6643 91.511 20.6861 91.4831 20.702C91.4551 20.718 91.4241 20.7277 91.3921 20.7305C91.3601 20.7334 91.3278 20.7293 91.2975 20.7185C91.2672 20.7077 91.2397 20.6904 91.2166 20.668C90.2777 20.0468 89.2714 19.6059 88.1367 19.4684C87.0084 19.3221 85.8655 19.5928 84.9227 20.2296C83.98 20.8665 83.3022 21.8257 83.0168 22.9271C82.6083 24.4975 82.7574 26.0252 83.6652 27.4063C84.8635 29.2361 87.0759 29.9455 89.2727 29.1972C89.9458 28.9677 90.5695 28.5903 91.2102 28.2674C91.3398 28.2039 91.4138 28.1624 91.5357 28.2752C92.236 28.9314 92.9505 29.5746 93.6871 30.2425Z" fill="black"/>
<path d="M129.192 32.7945H125.662C125.614 32.7945 125.565 32.7945 125.5 32.7855V16.5517H129.001V17.7902C130.753 16.2262 132.823 16.0187 135.001 16.1173V19.8781C134.473 19.8314 133.937 19.7484 133.402 19.7484C131.229 19.7329 129.641 21.0945 129.296 23.2499C129.232 23.6544 129.2 24.0633 129.199 24.4728C129.189 27.1429 129.199 29.8118 129.199 32.482L129.192 32.7945Z" fill="black"/>
<path d="M39.9987 3.77013C39.9987 2.97647 39.5773 2.43569 38.8147 2.25025C36.0556 1.55194 33.2567 1.02186 30.4333 0.662928C28.3999 0.420421 26.3535 0.218115 24.3084 0.0871357C22.7211 -0.0140171 21.126 0.0119195 19.5347 0.000248063C17.0347 -0.0266613 14.5352 0.0945886 12.0494 0.36336C10.6994 0.51898 9.34944 0.672006 8.00722 0.876905C5.72869 1.22575 3.47091 1.68613 1.23258 2.24117C0.412988 2.44477 0.00708074 2.94535 0.00708074 3.79477V14.0968H-0.000700235C-0.000700235 17.2753 -0.017559 20.4513 0.0096744 23.6311C0.0108825 24.7672 0.0797363 25.9022 0.21587 27.0301C0.538781 29.5317 1.5957 31.7259 3.20895 33.6517C4.96097 35.7344 6.96068 37.5577 9.07711 39.2488C11.9022 41.4921 14.931 43.4663 18.1238 45.1455C19.3895 45.8147 20.6448 45.8237 21.8963 45.1273C22.9182 44.5593 23.9492 44.0056 24.949 43.3987C28.8226 41.0449 32.4032 38.3151 35.5493 35.0367C36.7554 33.7814 37.8278 32.4301 38.6124 30.8635C39.6499 28.7886 39.9806 26.5554 39.9883 24.2743C40.013 17.44 39.9987 10.6044 39.9987 3.77013ZM6.9529 27.5799H4.69512V9.5099H6.9529V27.5799ZM11.768 23.775H9.50895V13.3148H11.768V23.775ZM16.5235 25.6775H14.2644V11.4124H16.5235V25.6775ZM21.2777 30.433H19.0199V6.65688H21.2777V30.433Z" fill="#268334"/>
</g>
<defs>
<clipPath id="clip0_3436_313402">
<rect width="135" height="45.6484" fill="white"/>
</clipPath>
</defs>
</svg>
