<svg xmlns="http://www.w3.org/2000/svg" viewBox="0 0 233.57 62.26"><defs><style>.cls-1{fill:#fff;}</style></defs><g id="Layer_2" data-name="Layer 2"><g id="Layer_1-2" data-name="Layer 1"><path class="cls-1" d="M31.13,46.86c-10.89,0-19.2-11.07-14.29-22.57a14.29,14.29,0,0,1,7.72-7.56c10.13-4.14,19.85,1.91,21.9,10.88h15.6C59.91,8.51,40.49-5.36,19.78,2A29.42,29.42,0,0,0,1.86,20.2C-5.59,42,10.4,62.26,31.13,62.26A31.14,31.14,0,0,0,62.06,34.65H46.46A15.73,15.73,0,0,1,31.13,46.86Z"/><circle class="cls-1" cx="31.13" cy="31.13" r="9.48"/><path class="cls-1" d="M213.21,38.09H190.63c.09.36.15.67.25,1a9,9,0,0,0,7.65,6.22,11.68,11.68,0,0,0,9.83-3.86L212,45.67a12,12,0,0,1-4.18,3.42c-5.84,2.95-11.64,3-17.18-.68a14.2,14.2,0,0,1-6.35-11,14.86,14.86,0,0,1,4.81-12.82,14.36,14.36,0,0,1,11.47-3.88,13.68,13.68,0,0,1,9.25,4.38,13.85,13.85,0,0,1,3.65,8.65A17.14,17.14,0,0,1,213.21,38.09ZM207,32.83a7.82,7.82,0,0,0-7.48-6.66,8.42,8.42,0,0,0-8.83,6.66Z"/><path class="cls-1" d="M168.44,12V31.57l.1,0,.94-1.05q4.22-4.83,8.42-9.64a.87.87,0,0,1,.55-.3c2.52,0,5,0,7.55,0l.28,0c-4.18,4.78-8.3,9.52-12.45,14.28l13.69,15.86-.46,0c-2.42,0-4.85,0-7.27,0a1,1,0,0,1-.65-.3q-5.16-6-10.31-12l-.35-.38V50.77h-6.27c0-.14,0-.3,0-.46V15.26a.6.6,0,0,1,.42-.64c1.81-.8,3.6-1.63,5.41-2.45C168.12,12.12,168.25,12.09,168.44,12Z"/><path class="cls-1" d="M130.84,36.06a17.38,17.38,0,0,1-1.46,6.61,13.49,13.49,0,0,1-9.1,7.54,14.85,14.85,0,0,1-15-3.82,12.5,12.5,0,0,1-3.51-6.54,18.73,18.73,0,0,1,.15-8.9,12.85,12.85,0,0,1,7.14-8.63,14.92,14.92,0,0,1,16.34,1.5A13.11,13.11,0,0,1,130.59,33C130.72,34,130.76,35,130.84,36.06Zm-6.06-.36c-.06-.58-.07-1.18-.18-1.76a8.19,8.19,0,0,0-5.74-6.79,8.64,8.64,0,0,0-10,3.23,9.55,9.55,0,0,0-1.35,7.34,8.13,8.13,0,0,0,5.55,6.61,8.67,8.67,0,0,0,10.11-3.17A9.68,9.68,0,0,0,124.78,35.7Z"/><path class="cls-1" d="M75.9,50.78V11.15h6.17V44.54h18.42v6.24Z"/><path class="cls-1" d="M158.84,46.19a14.62,14.62,0,0,1-6,3.84,15.36,15.36,0,0,1-16.47-4.5,13.31,13.31,0,0,1-2.93-6.78A17.87,17.87,0,0,1,134,30.1a13.22,13.22,0,0,1,9-8.67A14.8,14.8,0,0,1,158.65,25l.16.19-1.42,1.35c-.8.76-1.62,1.5-2.41,2.27a.4.4,0,0,1-.61.05,12.93,12.93,0,0,0-5.57-2.17A8.46,8.46,0,0,0,139.53,33a9.77,9.77,0,0,0,1.17,8.1,8.49,8.49,0,0,0,10.14,3.24,27.41,27.41,0,0,0,3.5-1.68c.23-.11.37-.19.59,0C156.21,43.82,157.5,45,158.84,46.19Z"/><path class="cls-1" d="M223.06,50.81h-6.39l-.29,0V21.43h6.33v2.24c3.17-2.83,6.92-3.21,10.86-3v6.8c-1-.08-1.93-.23-2.9-.24a7.14,7.14,0,0,0-7.42,6.33,13.54,13.54,0,0,0-.18,2.21c0,4.83,0,9.66,0,14.49Z"/></g></g></svg>