<svg width="404" height="49" viewBox="0 0 404 49" fill="none" xmlns="http://www.w3.org/2000/svg">
<path fill-rule="evenodd" clip-rule="evenodd" d="M117.196 27.1372H130.336C130.496 26.3069 130.55 25.4596 130.495 24.6159C130.347 22.7024 129.686 20.9992 128.372 19.5828C126.922 18.0176 125.1 17.209 122.986 17.0315C120.431 16.8184 118.178 17.545 116.305 19.2919C114.146 21.3038 113.231 23.8292 113.504 26.7547C113.75 29.444 114.964 31.643 117.205 33.1454C120.426 35.3075 123.805 35.2624 127.206 33.5456C128.157 33.0748 128.988 32.3938 129.637 31.5542L127.51 29.0794C125.915 30.6951 124.07 31.5488 121.789 31.3275C119.751 31.1308 117.924 29.6653 117.332 27.7081C117.306 27.6085 117.283 27.5072 117.258 27.4011C117.239 27.3167 117.219 27.2292 117.196 27.1372ZM122.385 20.1975C124.79 20.289 126.366 22.0222 126.737 24.0709H117.242C117.782 21.8774 119.564 20.0909 122.385 20.1975Z" fill="#161922"/>
<path d="M104.268 11.9576V23.339L104.326 23.3663C104.51 23.1614 104.696 22.9566 104.872 22.7517C106.505 20.8796 108.138 19.0084 109.773 17.1382C109.855 17.0423 109.971 16.9813 110.096 16.9675C111.56 16.9552 113.025 16.9579 114.489 16.9579C114.523 16.9579 114.557 16.9647 114.65 16.9743C112.221 19.7619 109.82 22.5168 107.403 25.2935L115.375 34.525C115.255 34.5332 115.181 34.5442 115.102 34.5442C113.69 34.5442 112.279 34.5442 110.868 34.536C110.726 34.5279 110.591 34.4664 110.492 34.3639C108.489 32.0465 106.486 29.7246 104.483 27.3982C104.432 27.3381 104.376 27.2835 104.278 27.1783V34.5196H100.643C100.643 34.4363 100.627 34.3448 100.627 34.2464C100.627 27.4437 100.627 20.6406 100.627 13.837C100.609 13.6704 100.712 13.5147 100.873 13.4669C101.926 12.9984 102.972 12.5108 104.014 12.041C104.083 12.0232 104.16 11.9959 104.268 11.9576Z" fill="#161922"/>
<path fill-rule="evenodd" clip-rule="evenodd" d="M81.5214 29.8061C82.091 28.5932 82.3122 27.293 82.3723 25.9545C82.3568 25.762 82.3445 25.569 82.3322 25.3759C82.3064 24.9729 82.2806 24.5696 82.2262 24.1707C81.9271 21.9936 80.9969 20.1511 79.205 18.8277C76.2193 16.6246 73.0069 16.3528 69.6934 17.9522C67.5819 18.9738 66.1396 20.6579 65.5331 22.9797C65.0919 24.6747 65.0634 26.4507 65.4498 28.1589C65.7694 29.6203 66.4059 30.9247 67.4904 31.9695C69.9734 34.3638 72.9277 35.0795 76.2248 34.1958C78.6286 33.5525 80.4479 32.0911 81.5214 29.8061ZM78.8209 25.4169C78.8288 25.5269 78.8366 25.6369 78.8472 25.7468C78.8226 26.89 78.5795 27.969 77.9212 28.9196C76.6387 30.7799 74.2758 31.5488 72.0359 30.7662C70.2193 30.1325 69.1526 28.7981 68.8043 26.9187C68.523 25.404 68.7101 23.9453 69.5924 22.6423C70.8421 20.7998 73.1763 20.0281 75.3999 20.7616C77.3038 21.3926 78.3855 22.7693 78.7461 24.7225C78.7878 24.954 78.8043 25.1855 78.8209 25.4169Z" fill="#161922"/>
<path d="M50.3867 34.5235V11.4535H53.9802V30.8932H64.7046V34.5235H50.3867Z" fill="#161922"/>
<path d="M98.6772 31.8547C97.7088 32.8773 96.5025 33.6445 95.1657 34.0878C91.7266 35.2324 87.8968 34.1916 85.5749 31.4668C84.6038 30.3278 84.0917 28.9797 83.8649 27.5183C83.6013 25.8151 83.6642 24.1269 84.2201 22.4825C85.0928 19.9011 86.9216 18.2485 89.4593 17.429C92.8739 16.3363 95.947 17.0274 98.5693 19.5241C98.6032 19.5592 98.6351 19.5962 98.6649 19.6348C98.3822 19.9011 98.1104 20.1606 97.8359 20.4174C97.3674 20.8585 96.8935 21.2929 96.4305 21.7395C96.3906 21.7952 96.3284 21.8307 96.2601 21.8368C96.1919 21.8428 96.1244 21.8188 96.0753 21.7709C95.0865 21.1167 94.0266 20.6523 92.8315 20.5075C90.3728 20.1886 88.0612 21.7501 87.4393 24.1502C87.0091 25.8042 87.1661 27.4131 88.1222 28.8677C89.3842 30.7949 91.7143 31.542 94.028 30.7539C94.7368 30.5121 95.3938 30.1147 96.0685 29.7746C96.2051 29.7077 96.283 29.664 96.4113 29.7828C97.1489 30.4739 97.9014 31.1513 98.6772 31.8547Z" fill="#161922"/>
<path d="M136.072 34.5427H132.354C132.304 34.5427 132.252 34.5427 132.184 34.5331V17.4358H135.871V18.7402C137.717 17.093 139.896 16.8745 142.19 16.9783V20.9391C141.634 20.89 141.07 20.8025 140.506 20.8025C138.218 20.7862 136.545 22.2203 136.181 24.4903C136.114 24.9163 136.08 25.3469 136.079 25.7782C136.069 28.5904 136.079 31.4013 136.079 34.2135L136.072 34.5427Z" fill="#161922"/>
<path fill-rule="evenodd" clip-rule="evenodd" d="M42.1327 3.97429C42.1327 3.13841 41.6888 2.56887 40.8857 2.37355C37.9798 1.6381 35.032 1.07982 32.0584 0.701794C29.9168 0.446386 27.7616 0.233318 25.6077 0.0953708C24.3177 0.0131652 23.0228 0.0106575 21.7287 0.00815138C21.3457 0.0074097 20.9628 0.00666815 20.5801 0.00386105C17.947 -0.0244798 15.3146 0.10322 12.6966 0.38629L12.4968 0.409312C11.1416 0.565408 9.78675 0.721464 8.43936 0.927154C6.03962 1.29456 3.66173 1.77942 1.30433 2.36399C0.441129 2.57843 0.0136285 3.10563 0.0136285 4.00024V14.8503H0.00543359C0.00543359 15.7763 0.004075 16.7021 0.00271651 17.6278C-0.000836126 20.0487 -0.00438812 22.4692 0.0163601 24.8918C0.0176325 26.0883 0.0901491 27.2837 0.233525 28.4716C0.573614 31.1063 1.68675 33.4172 3.38583 35.4455C5.23105 37.639 7.33714 39.5593 9.56615 41.3403C12.5416 43.703 15.7314 45.7821 19.0941 47.5507C20.4271 48.2555 21.7492 48.265 23.0673 47.5316C23.2987 47.4029 23.5306 47.275 23.7625 47.147L23.7626 47.147L23.7627 47.1469L23.7627 47.1469C24.6092 46.6798 25.4559 46.2126 26.2824 45.7109C30.3621 43.232 34.1331 40.3569 37.4466 36.9042C38.7168 35.582 39.8463 34.1589 40.6726 32.5089C41.7653 30.3236 42.1136 27.9717 42.1218 25.5692C42.1408 20.3025 42.1378 15.035 42.1349 9.7678L42.1349 9.74733V9.74719V9.74706C42.1338 7.82274 42.1327 5.89847 42.1327 3.97429ZM7.32607 29.0507H4.94818V10.0194H7.32607V29.0507ZM10.0192 25.0434H12.3984V14.0267H10.0192V25.0434ZM17.4116 27.047H15.0324V12.0231H17.4116V27.047ZM20.0383 32.0555H22.4162V7.01459H20.0383V32.0555Z" fill="#268334"/>
<path d="M157.008 12.3003H163.007C164.088 12.3003 165.068 12.4203 165.948 12.6603C166.828 12.8803 167.578 13.2303 168.198 13.7103C168.838 14.1703 169.328 14.7603 169.668 15.4803C170.008 16.1803 170.178 17.0103 170.178 17.9703C170.178 18.9303 169.998 19.7703 169.638 20.4903C169.298 21.1903 168.808 21.7803 168.168 22.2603C167.548 22.7203 166.788 23.0703 165.888 23.3103C165.008 23.5503 164.028 23.6703 162.948 23.6703H159.168V33.5403H157.008V12.3003ZM159.168 21.8403H162.828C164.528 21.8403 165.818 21.5103 166.698 20.8503C167.578 20.1903 168.018 19.2303 168.018 17.9703C168.018 16.6503 167.558 15.6903 166.638 15.0903C165.738 14.4703 164.468 14.1603 162.828 14.1603H159.168V21.8403ZM180.653 24.4803C180.653 23.2603 180.333 22.3503 179.693 21.7503C179.053 21.1503 178.123 20.8503 176.903 20.8503C176.063 20.8503 175.283 21.0003 174.563 21.3003C173.843 21.6003 173.233 22.0003 172.733 22.5003L171.593 21.1503C172.173 20.5703 172.933 20.0903 173.873 19.7103C174.833 19.3303 175.913 19.1403 177.113 19.1403C177.873 19.1403 178.583 19.2503 179.243 19.4703C179.903 19.6703 180.483 19.9803 180.983 20.4003C181.483 20.8203 181.873 21.3503 182.153 21.9903C182.433 22.6303 182.573 23.3803 182.573 24.2403V30.3903C182.573 30.9303 182.593 31.4903 182.633 32.0703C182.673 32.6503 182.733 33.1403 182.813 33.5403H180.983C180.923 33.2003 180.873 32.8303 180.833 32.4303C180.793 32.0303 180.773 31.6403 180.773 31.2603H180.713C180.073 32.2003 179.343 32.8803 178.523 33.3003C177.723 33.7003 176.753 33.9003 175.613 33.9003C175.073 33.9003 174.513 33.8203 173.933 33.6603C173.373 33.5203 172.853 33.2803 172.373 32.9403C171.913 32.6003 171.523 32.1603 171.203 31.6203C170.903 31.0803 170.753 30.4203 170.753 29.6403C170.753 28.5603 171.023 27.7103 171.563 27.0903C172.123 26.4503 172.863 25.9803 173.783 25.6803C174.703 25.3603 175.753 25.1603 176.933 25.0803C178.133 24.9803 179.373 24.9303 180.653 24.9303V24.4803ZM180.053 26.5203C179.213 26.5203 178.363 26.5603 177.503 26.6403C176.663 26.7003 175.893 26.8403 175.193 27.0603C174.513 27.2603 173.953 27.5603 173.513 27.9603C173.073 28.3603 172.853 28.8903 172.853 29.5503C172.853 30.0503 172.943 30.4703 173.123 30.8103C173.323 31.1503 173.583 31.4303 173.903 31.6503C174.223 31.8503 174.573 32.0003 174.953 32.1003C175.353 32.1803 175.753 32.2203 176.153 32.2203C176.873 32.2203 177.513 32.1003 178.073 31.8603C178.633 31.6003 179.103 31.2603 179.483 30.8403C179.863 30.4003 180.153 29.9003 180.353 29.3403C180.553 28.7803 180.653 28.1903 180.653 27.5703V26.5203H180.053ZM194.598 22.8303C194.298 22.2503 193.838 21.7803 193.218 21.4203C192.618 21.0403 191.928 20.8503 191.148 20.8503C190.788 20.8503 190.428 20.8903 190.068 20.9703C189.708 21.0503 189.388 21.1803 189.108 21.3603C188.828 21.5403 188.598 21.7703 188.418 22.0503C188.258 22.3303 188.178 22.6603 188.178 23.0403C188.178 23.7003 188.448 24.2103 188.988 24.5703C189.528 24.9103 190.378 25.2003 191.538 25.4403C193.198 25.7803 194.418 26.2803 195.198 26.9403C195.998 27.5803 196.398 28.4503 196.398 29.5503C196.398 30.3503 196.238 31.0303 195.918 31.5903C195.618 32.1303 195.218 32.5803 194.718 32.9403C194.218 33.2803 193.648 33.5203 193.008 33.6603C192.388 33.8203 191.758 33.9003 191.118 33.9003C190.058 33.9003 189.028 33.6803 188.028 33.2403C187.028 32.8003 186.208 32.1103 185.568 31.1703L187.188 29.9703C187.548 30.5903 188.078 31.1103 188.778 31.5303C189.478 31.9503 190.248 32.1603 191.088 32.1603C191.528 32.1603 191.948 32.1203 192.348 32.0403C192.748 31.9603 193.098 31.8203 193.398 31.6203C193.698 31.4203 193.938 31.1703 194.118 30.8703C194.298 30.5503 194.388 30.1603 194.388 29.7003C194.388 28.9603 194.028 28.4103 193.308 28.0503C192.608 27.6703 191.588 27.3203 190.248 27.0003C189.828 26.9003 189.378 26.7803 188.898 26.6403C188.438 26.4803 188.008 26.2603 187.608 25.9803C187.208 25.6803 186.878 25.3103 186.618 24.8703C186.358 24.4303 186.228 23.8803 186.228 23.2203C186.228 22.5003 186.368 21.8903 186.648 21.3903C186.928 20.8703 187.298 20.4503 187.758 20.1303C188.238 19.7903 188.778 19.5403 189.378 19.3803C189.978 19.2203 190.598 19.1403 191.238 19.1403C192.218 19.1403 193.168 19.3603 194.088 19.8003C195.008 20.2403 195.698 20.8603 196.158 21.6603L194.598 22.8303ZM207.228 22.8303C206.928 22.2503 206.468 21.7803 205.848 21.4203C205.248 21.0403 204.558 20.8503 203.778 20.8503C203.418 20.8503 203.058 20.8903 202.698 20.9703C202.338 21.0503 202.018 21.1803 201.738 21.3603C201.458 21.5403 201.228 21.7703 201.048 22.0503C200.888 22.3303 200.808 22.6603 200.808 23.0403C200.808 23.7003 201.078 24.2103 201.618 24.5703C202.158 24.9103 203.008 25.2003 204.168 25.4403C205.828 25.7803 207.048 26.2803 207.828 26.9403C208.628 27.5803 209.028 28.4503 209.028 29.5503C209.028 30.3503 208.868 31.0303 208.548 31.5903C208.248 32.1303 207.848 32.5803 207.348 32.9403C206.848 33.2803 206.278 33.5203 205.638 33.6603C205.018 33.8203 204.388 33.9003 203.748 33.9003C202.688 33.9003 201.658 33.6803 200.658 33.2403C199.658 32.8003 198.838 32.1103 198.198 31.1703L199.818 29.9703C200.178 30.5903 200.708 31.1103 201.408 31.5303C202.108 31.9503 202.878 32.1603 203.718 32.1603C204.158 32.1603 204.578 32.1203 204.978 32.0403C205.378 31.9603 205.728 31.8203 206.028 31.6203C206.328 31.4203 206.568 31.1703 206.748 30.8703C206.928 30.5503 207.018 30.1603 207.018 29.7003C207.018 28.9603 206.658 28.4103 205.938 28.0503C205.238 27.6703 204.218 27.3203 202.878 27.0003C202.458 26.9003 202.008 26.7803 201.528 26.6403C201.068 26.4803 200.638 26.2603 200.238 25.9803C199.838 25.6803 199.508 25.3103 199.248 24.8703C198.988 24.4303 198.858 23.8803 198.858 23.2203C198.858 22.5003 198.998 21.8903 199.278 21.3903C199.558 20.8703 199.928 20.4503 200.388 20.1303C200.868 19.7903 201.408 19.5403 202.008 19.3803C202.608 19.2203 203.228 19.1403 203.868 19.1403C204.848 19.1403 205.798 19.3603 206.718 19.8003C207.638 20.2403 208.328 20.8603 208.788 21.6603L207.228 22.8303ZM212.658 19.5003L216.048 30.9003H216.108L219.888 19.5003H221.868L225.708 30.9003H225.768L229.128 19.5003H231.288L226.848 33.5403H224.628L220.878 22.1703H220.818L217.128 33.5403H214.908L210.468 19.5003H212.658ZM248.021 26.5203C248.021 27.5803 247.831 28.5603 247.451 29.4603C247.091 30.3603 246.581 31.1403 245.921 31.8003C245.261 32.4603 244.471 32.9803 243.551 33.3603C242.631 33.7203 241.621 33.9003 240.521 33.9003C239.441 33.9003 238.441 33.7203 237.521 33.3603C236.601 32.9803 235.811 32.4603 235.151 31.8003C234.491 31.1403 233.971 30.3603 233.591 29.4603C233.231 28.5603 233.051 27.5803 233.051 26.5203C233.051 25.4603 233.231 24.4803 233.591 23.5803C233.971 22.6803 234.491 21.9003 235.151 21.2403C235.811 20.5803 236.601 20.0703 237.521 19.7103C238.441 19.3303 239.441 19.1403 240.521 19.1403C241.621 19.1403 242.631 19.3303 243.551 19.7103C244.471 20.0703 245.261 20.5803 245.921 21.2403C246.581 21.9003 247.091 22.6803 247.451 23.5803C247.831 24.4803 248.021 25.4603 248.021 26.5203ZM245.861 26.5203C245.861 25.7403 245.731 25.0103 245.471 24.3303C245.231 23.6303 244.881 23.0303 244.421 22.5303C243.961 22.0103 243.401 21.6003 242.741 21.3003C242.081 21.0003 241.341 20.8503 240.521 20.8503C239.701 20.8503 238.961 21.0003 238.301 21.3003C237.661 21.6003 237.111 22.0103 236.651 22.5303C236.191 23.0303 235.831 23.6303 235.571 24.3303C235.331 25.0103 235.211 25.7403 235.211 26.5203C235.211 27.3003 235.331 28.0403 235.571 28.7403C235.831 29.4203 236.191 30.0203 236.651 30.5403C237.111 31.0403 237.661 31.4403 238.301 31.7403C238.961 32.0203 239.701 32.1603 240.521 32.1603C241.341 32.1603 242.081 32.0203 242.741 31.7403C243.401 31.4403 243.961 31.0403 244.421 30.5403C244.881 30.0203 245.231 29.4203 245.471 28.7403C245.731 28.0403 245.861 27.3003 245.861 26.5203ZM251.711 22.5903C251.711 22.2103 251.701 21.7203 251.681 21.1203C251.661 20.5203 251.631 19.9803 251.591 19.5003H253.541C253.581 19.8803 253.611 20.3003 253.631 20.7603C253.651 21.2203 253.661 21.6003 253.661 21.9003H253.721C254.121 21.0803 254.721 20.4203 255.521 19.9203C256.321 19.4003 257.221 19.1403 258.221 19.1403C258.481 19.1403 258.711 19.1503 258.911 19.1703C259.131 19.1903 259.351 19.2303 259.571 19.2903L259.301 21.2103C259.181 21.1703 258.981 21.1303 258.701 21.0903C258.421 21.0503 258.141 21.0303 257.861 21.0303C257.321 21.0303 256.801 21.1303 256.301 21.3303C255.801 21.5303 255.361 21.8503 254.981 22.2903C254.621 22.7103 254.321 23.2603 254.081 23.9403C253.861 24.6003 253.751 25.4003 253.751 26.3403V33.5403H251.711V22.5903ZM272.844 31.1703C272.244 32.0703 271.464 32.7503 270.504 33.2103C269.544 33.6703 268.554 33.9003 267.534 33.9003C266.434 33.9003 265.434 33.7103 264.534 33.3303C263.654 32.9503 262.894 32.4303 262.254 31.7703C261.634 31.1103 261.144 30.3303 260.784 29.4303C260.444 28.5303 260.274 27.5603 260.274 26.5203C260.274 25.4803 260.444 24.5103 260.784 23.6103C261.144 22.7103 261.634 21.9303 262.254 21.2703C262.894 20.6103 263.654 20.0903 264.534 19.7103C265.434 19.3303 266.434 19.1403 267.534 19.1403C268.554 19.1403 269.544 19.3803 270.504 19.8603C271.464 20.3203 272.244 21.0103 272.844 21.9303H272.904V10.8603H274.944V33.5403H272.904V31.1703H272.844ZM262.434 26.5203C262.434 27.3003 262.554 28.0403 262.794 28.7403C263.034 29.4203 263.374 30.0203 263.814 30.5403C264.274 31.0403 264.834 31.4403 265.494 31.7403C266.154 32.0203 266.904 32.1603 267.744 32.1603C268.524 32.1603 269.244 32.0203 269.904 31.7403C270.564 31.4403 271.134 31.0403 271.614 30.5403C272.094 30.0403 272.464 29.4503 272.724 28.7703C273.004 28.0703 273.144 27.3203 273.144 26.5203C273.144 25.7203 273.004 24.9803 272.724 24.3003C272.464 23.6003 272.094 23.0003 271.614 22.5003C271.134 21.9803 270.564 21.5803 269.904 21.3003C269.244 21.0003 268.524 20.8503 267.744 20.8503C266.904 20.8503 266.154 21.0003 265.494 21.3003C264.834 21.6003 264.274 22.0103 263.814 22.5303C263.374 23.0303 263.034 23.6303 262.794 24.3303C262.554 25.0103 262.434 25.7403 262.434 26.5203ZM297.116 29.8803H297.146L304.256 12.3003H307.556V33.5403H305.396V15.0903H305.336L297.656 33.5403H296.516L288.836 15.0903H288.776V33.5403H286.616V12.3003H289.916L297.116 29.8803ZM321.218 24.4803C321.218 23.2603 320.898 22.3503 320.258 21.7503C319.618 21.1503 318.688 20.8503 317.468 20.8503C316.628 20.8503 315.848 21.0003 315.128 21.3003C314.408 21.6003 313.798 22.0003 313.298 22.5003L312.158 21.1503C312.738 20.5703 313.498 20.0903 314.438 19.7103C315.398 19.3303 316.478 19.1403 317.678 19.1403C318.438 19.1403 319.148 19.2503 319.808 19.4703C320.468 19.6703 321.048 19.9803 321.548 20.4003C322.048 20.8203 322.438 21.3503 322.718 21.9903C322.998 22.6303 323.138 23.3803 323.138 24.2403V30.3903C323.138 30.9303 323.158 31.4903 323.198 32.0703C323.238 32.6503 323.298 33.1403 323.378 33.5403H321.548C321.488 33.2003 321.438 32.8303 321.398 32.4303C321.358 32.0303 321.338 31.6403 321.338 31.2603H321.278C320.638 32.2003 319.908 32.8803 319.088 33.3003C318.288 33.7003 317.318 33.9003 316.178 33.9003C315.638 33.9003 315.078 33.8203 314.498 33.6603C313.938 33.5203 313.418 33.2803 312.938 32.9403C312.478 32.6003 312.088 32.1603 311.768 31.6203C311.468 31.0803 311.318 30.4203 311.318 29.6403C311.318 28.5603 311.588 27.7103 312.128 27.0903C312.688 26.4503 313.428 25.9803 314.348 25.6803C315.268 25.3603 316.318 25.1603 317.498 25.0803C318.698 24.9803 319.938 24.9303 321.218 24.9303V24.4803ZM320.618 26.5203C319.778 26.5203 318.928 26.5603 318.068 26.6403C317.228 26.7003 316.458 26.8403 315.758 27.0603C315.078 27.2603 314.518 27.5603 314.078 27.9603C313.638 28.3603 313.418 28.8903 313.418 29.5503C313.418 30.0503 313.508 30.4703 313.688 30.8103C313.888 31.1503 314.148 31.4303 314.468 31.6503C314.788 31.8503 315.138 32.0003 315.518 32.1003C315.918 32.1803 316.318 32.2203 316.718 32.2203C317.438 32.2203 318.078 32.1003 318.638 31.8603C319.198 31.6003 319.668 31.2603 320.048 30.8403C320.428 30.4003 320.718 29.9003 320.918 29.3403C321.118 28.7803 321.218 28.1903 321.218 27.5703V26.5203H320.618ZM329.523 19.5003C329.563 19.8803 329.593 20.3003 329.613 20.7603C329.633 21.2203 329.643 21.6003 329.643 21.9003H329.703C330.103 21.0803 330.753 20.4203 331.653 19.9203C332.553 19.4003 333.503 19.1403 334.503 19.1403C336.283 19.1403 337.613 19.6703 338.493 20.7303C339.393 21.7903 339.843 23.1903 339.843 24.9303V33.5403H337.803V25.7703C337.803 25.0303 337.743 24.3603 337.623 23.7603C337.503 23.1603 337.293 22.6503 336.993 22.2303C336.713 21.7903 336.323 21.4503 335.823 21.2103C335.343 20.9703 334.733 20.8503 333.993 20.8503C333.453 20.8503 332.923 20.9603 332.403 21.1803C331.903 21.4003 331.453 21.7403 331.053 22.2003C330.653 22.6403 330.333 23.2103 330.093 23.9103C329.853 24.5903 329.733 25.4003 329.733 26.3403V33.5403H327.693V22.5903C327.693 22.2103 327.683 21.7203 327.663 21.1203C327.643 20.5203 327.613 19.9803 327.573 19.5003H329.523ZM353.275 24.4803C353.275 23.2603 352.955 22.3503 352.315 21.7503C351.675 21.1503 350.745 20.8503 349.525 20.8503C348.685 20.8503 347.905 21.0003 347.185 21.3003C346.465 21.6003 345.855 22.0003 345.355 22.5003L344.215 21.1503C344.795 20.5703 345.555 20.0903 346.495 19.7103C347.455 19.3303 348.535 19.1403 349.735 19.1403C350.495 19.1403 351.205 19.2503 351.865 19.4703C352.525 19.6703 353.105 19.9803 353.605 20.4003C354.105 20.8203 354.495 21.3503 354.775 21.9903C355.055 22.6303 355.195 23.3803 355.195 24.2403V30.3903C355.195 30.9303 355.215 31.4903 355.255 32.0703C355.295 32.6503 355.355 33.1403 355.435 33.5403H353.605C353.545 33.2003 353.495 32.8303 353.455 32.4303C353.415 32.0303 353.395 31.6403 353.395 31.2603H353.335C352.695 32.2003 351.965 32.8803 351.145 33.3003C350.345 33.7003 349.375 33.9003 348.235 33.9003C347.695 33.9003 347.135 33.8203 346.555 33.6603C345.995 33.5203 345.475 33.2803 344.995 32.9403C344.535 32.6003 344.145 32.1603 343.825 31.6203C343.525 31.0803 343.375 30.4203 343.375 29.6403C343.375 28.5603 343.645 27.7103 344.185 27.0903C344.745 26.4503 345.485 25.9803 346.405 25.6803C347.325 25.3603 348.375 25.1603 349.555 25.0803C350.755 24.9803 351.995 24.9303 353.275 24.9303V24.4803ZM352.675 26.5203C351.835 26.5203 350.985 26.5603 350.125 26.6403C349.285 26.7003 348.515 26.8403 347.815 27.0603C347.135 27.2603 346.575 27.5603 346.135 27.9603C345.695 28.3603 345.475 28.8903 345.475 29.5503C345.475 30.0503 345.565 30.4703 345.745 30.8103C345.945 31.1503 346.205 31.4303 346.525 31.6503C346.845 31.8503 347.195 32.0003 347.575 32.1003C347.975 32.1803 348.375 32.2203 348.775 32.2203C349.495 32.2203 350.135 32.1003 350.695 31.8603C351.255 31.6003 351.725 31.2603 352.105 30.8403C352.485 30.4003 352.775 29.9003 352.975 29.3403C353.175 28.7803 353.275 28.1903 353.275 27.5703V26.5203H352.675ZM360.5 36.3603C361.06 37.0803 361.82 37.6903 362.78 38.1903C363.76 38.6903 364.79 38.9403 365.87 38.9403C366.87 38.9403 367.72 38.7903 368.42 38.4903C369.12 38.2103 369.68 37.8203 370.1 37.3203C370.54 36.8203 370.86 36.2303 371.06 35.5503C371.26 34.8903 371.36 34.1803 371.36 33.4203V30.7803H371.3C370.76 31.6603 369.99 32.3403 368.99 32.8203C368.01 33.3003 367.01 33.5403 365.99 33.5403C364.89 33.5403 363.89 33.3603 362.99 33.0003C362.11 32.6403 361.35 32.1503 360.71 31.5303C360.09 30.8903 359.6 30.1303 359.24 29.2503C358.9 28.3703 358.73 27.4203 358.73 26.4003C358.73 25.4003 358.9 24.4603 359.24 23.5803C359.6 22.7003 360.09 21.9303 360.71 21.2703C361.35 20.6103 362.11 20.0903 362.99 19.7103C363.89 19.3303 364.89 19.1403 365.99 19.1403C367.01 19.1403 368.01 19.3803 368.99 19.8603C369.97 20.3403 370.74 21.0303 371.3 21.9303H371.36V19.5003H373.4V33.4203C373.4 34.1803 373.29 34.9903 373.07 35.8503C372.87 36.7103 372.48 37.5003 371.9 38.2203C371.34 38.9403 370.57 39.5403 369.59 40.0203C368.61 40.5003 367.34 40.7403 365.78 40.7403C364.48 40.7403 363.24 40.4903 362.06 39.9903C360.88 39.4903 359.87 38.8003 359.03 37.9203L360.5 36.3603ZM360.89 26.3403C360.89 27.0803 361.01 27.7803 361.25 28.4403C361.49 29.1003 361.83 29.6803 362.27 30.1803C362.73 30.6803 363.29 31.0803 363.95 31.3803C364.61 31.6603 365.36 31.8003 366.2 31.8003C366.98 31.8003 367.7 31.6703 368.36 31.4103C369.02 31.1503 369.59 30.7803 370.07 30.3003C370.55 29.8203 370.92 29.2503 371.18 28.5903C371.46 27.9103 371.6 27.1603 371.6 26.3403C371.6 25.6003 371.46 24.9003 371.18 24.2403C370.92 23.5803 370.55 23.0003 370.07 22.5003C369.59 22.0003 369.02 21.6003 368.36 21.3003C367.7 21.0003 366.98 20.8503 366.2 20.8503C365.36 20.8503 364.61 21.0003 363.95 21.3003C363.29 21.6003 362.73 22.0003 362.27 22.5003C361.83 23.0003 361.49 23.5803 361.25 24.2403C361.01 24.9003 360.89 25.6003 360.89 26.3403ZM388.715 25.4403C388.655 24.1203 388.225 23.0303 387.425 22.1703C386.645 21.2903 385.525 20.8503 384.065 20.8503C383.385 20.8503 382.755 20.9803 382.175 21.2403C381.595 21.4803 381.085 21.8203 380.645 22.2603C380.205 22.6803 379.855 23.1703 379.595 23.7303C379.335 24.2703 379.185 24.8403 379.145 25.4403H388.715ZM390.785 26.1003C390.785 26.2403 390.785 26.3903 390.785 26.5503C390.785 26.7103 390.775 26.8803 390.755 27.0603H379.115C379.135 27.7603 379.275 28.4203 379.535 29.0403C379.795 29.6603 380.155 30.2003 380.615 30.6603C381.075 31.1203 381.615 31.4903 382.235 31.7703C382.855 32.0303 383.525 32.1603 384.245 32.1603C385.305 32.1603 386.215 31.9203 386.975 31.4403C387.755 30.9403 388.345 30.3703 388.745 29.7303L390.275 30.9303C389.435 31.9903 388.505 32.7503 387.485 33.2103C386.485 33.6703 385.405 33.9003 384.245 33.9003C383.205 33.9003 382.235 33.7203 381.335 33.3603C380.455 32.9803 379.695 32.4603 379.055 31.8003C378.415 31.1403 377.905 30.3603 377.525 29.4603C377.165 28.5603 376.985 27.5803 376.985 26.5203C376.985 25.4603 377.165 24.4803 377.525 23.5803C377.885 22.6803 378.385 21.9003 379.025 21.2403C379.665 20.5803 380.415 20.0703 381.275 19.7103C382.135 19.3303 383.065 19.1403 384.065 19.1403C385.165 19.1403 386.135 19.3303 386.975 19.7103C387.815 20.0703 388.515 20.5703 389.075 21.2103C389.635 21.8303 390.055 22.5603 390.335 23.4003C390.635 24.2403 390.785 25.1403 390.785 26.1003ZM394.473 22.5903C394.473 22.2103 394.463 21.7203 394.443 21.1203C394.423 20.5203 394.393 19.9803 394.353 19.5003H396.303C396.343 19.8803 396.373 20.3003 396.393 20.7603C396.413 21.2203 396.423 21.6003 396.423 21.9003H396.483C396.883 21.0803 397.483 20.4203 398.283 19.9203C399.083 19.4003 399.983 19.1403 400.983 19.1403C401.243 19.1403 401.473 19.1503 401.673 19.1703C401.893 19.1903 402.113 19.2303 402.333 19.2903L402.063 21.2103C401.943 21.1703 401.743 21.1303 401.463 21.0903C401.183 21.0503 400.903 21.0303 400.623 21.0303C400.083 21.0303 399.563 21.1303 399.063 21.3303C398.563 21.5303 398.123 21.8503 397.743 22.2903C397.383 22.7103 397.083 23.2603 396.843 23.9403C396.623 24.6003 396.513 25.4003 396.513 26.3403V33.5403H394.473V22.5903Z" fill="#08090A"/>
</svg>
