<svg width="404" height="49" viewBox="0 0 404 49" fill="none" xmlns="http://www.w3.org/2000/svg">
<path fill-rule="evenodd" clip-rule="evenodd" d="M117.196 27.9294H130.336C130.496 27.0992 130.55 26.2518 130.495 25.4081C130.347 23.4946 129.686 21.7914 128.372 20.3751C126.922 18.8098 125.1 18.0013 122.986 17.8237C120.431 17.6106 118.178 18.3373 116.305 20.0841C114.146 22.096 113.231 24.6214 113.504 27.547C113.75 30.2363 114.964 32.4352 117.205 33.9376C120.426 36.0997 123.805 36.0546 127.206 34.3378C128.157 33.867 128.988 33.186 129.637 32.3465L127.51 29.8716C125.915 31.4874 124.07 32.341 121.789 32.1197C119.751 31.923 117.924 30.4575 117.332 28.5003C117.306 28.4007 117.283 28.2994 117.258 28.1934C117.239 28.1089 117.219 28.0214 117.196 27.9294ZM122.385 20.9904C124.79 21.0819 126.366 22.8151 126.737 24.8638H117.242C117.782 22.6703 119.564 20.8839 122.385 20.9904Z" fill="white"/>
<path d="M104.268 12.749V24.1304L104.326 24.1577C104.51 23.9528 104.696 23.748 104.872 23.5431C106.505 21.671 108.138 19.7998 109.773 17.9296C109.855 17.8337 109.971 17.7727 110.096 17.7588C111.56 17.7465 113.025 17.7493 114.489 17.7493C114.523 17.7493 114.557 17.7561 114.65 17.7657C112.221 20.5533 109.82 23.3082 107.403 26.0849L115.375 35.3164C115.255 35.3246 115.181 35.3355 115.102 35.3355C113.69 35.3355 112.279 35.3355 110.868 35.3274C110.726 35.3193 110.591 35.2578 110.492 35.1553C108.489 32.8379 106.486 30.516 104.483 28.1896C104.432 28.1295 104.376 28.0749 104.278 27.9697V35.311H100.643C100.643 35.2276 100.627 35.1361 100.627 35.0378C100.627 28.2351 100.627 21.432 100.627 14.6284C100.609 14.4618 100.712 14.3061 100.873 14.2583C101.926 13.7898 102.972 13.3022 104.014 12.8323C104.083 12.8146 104.16 12.7873 104.268 12.749Z" fill="white"/>
<path fill-rule="evenodd" clip-rule="evenodd" d="M81.5214 30.5982C82.091 29.3854 82.3122 28.0851 82.3723 26.7466C82.3568 26.5541 82.3445 26.3611 82.3322 26.168C82.3064 25.765 82.2806 25.3617 82.2262 24.9628C81.9271 22.7857 80.9969 20.9432 79.205 19.6198C76.2193 17.4167 73.0069 17.1449 69.6934 18.7443C67.5819 19.7659 66.1396 21.45 65.5331 23.7719C65.0919 25.4668 65.0634 27.2428 65.4498 28.951C65.7694 30.4125 66.4059 31.7168 67.4904 32.7617C69.9734 35.1559 72.9277 35.8716 76.2248 34.9879C78.6286 34.3446 80.4479 32.8832 81.5214 30.5982ZM78.8209 26.2095C78.8288 26.3195 78.8366 26.4294 78.8472 26.5394C78.8226 27.6826 78.5795 28.7616 77.9212 29.7122C76.6387 31.5724 74.2758 32.3414 72.0359 31.5588C70.2193 30.925 69.1526 29.5906 68.8043 27.7113C68.523 26.1966 68.7101 24.7379 69.5924 23.4349C70.8421 21.5924 73.1763 20.8207 75.3999 21.5542C77.3038 22.1852 78.3855 23.5619 78.7461 25.515C78.7878 25.7465 78.8043 25.978 78.8209 26.2095Z" fill="white"/>
<path d="M50.3867 35.3151V12.2451H53.9802V31.6848H64.7046V35.3151H50.3867Z" fill="white"/>
<path d="M98.6772 32.6459C97.7088 33.6685 96.5025 34.4356 95.1657 34.879C91.7266 36.0235 87.8968 34.9828 85.5749 32.258C84.6038 31.1189 84.0917 29.7708 83.8649 28.3094C83.6013 26.6062 83.6642 24.9181 84.2201 23.2736C85.0928 20.6922 86.9216 19.0396 89.4593 18.2201C92.8739 17.1275 95.947 17.8186 98.5693 20.3153C98.6032 20.3504 98.6351 20.3873 98.6649 20.4259C98.3822 20.6922 98.1104 20.9517 97.8359 21.2085C97.3674 21.6497 96.8935 22.084 96.4305 22.5306C96.3906 22.5863 96.3284 22.6219 96.2601 22.6279C96.1919 22.634 96.1244 22.6099 96.0753 22.562C95.0865 21.9078 94.0266 21.4434 92.8315 21.2987C90.3728 20.9797 88.0612 22.5412 87.4393 24.9413C87.0091 26.5953 87.1661 28.2042 88.1222 29.6588C89.3842 31.586 91.7143 32.3331 94.028 31.545C94.7368 31.3033 95.3938 30.9058 96.0685 30.5657C96.2051 30.4988 96.283 30.4551 96.4113 30.5739C97.1489 31.265 97.9014 31.9425 98.6772 32.6459Z" fill="white"/>
<path d="M136.072 35.3337H132.354C132.304 35.3337 132.252 35.3337 132.184 35.3241V18.2268H135.871V19.5312C137.717 17.884 139.896 17.6655 142.19 17.7693V21.7301C141.634 21.681 141.07 21.5936 140.506 21.5936C138.218 21.5772 136.545 23.0113 136.181 25.2813C136.114 25.7073 136.08 26.1379 136.079 26.5692C136.069 29.3814 136.079 32.1923 136.079 35.0045L136.072 35.3337Z" fill="white"/>
<path fill-rule="evenodd" clip-rule="evenodd" d="M42.1327 4.76628C42.1327 3.9304 41.6888 3.36086 40.8857 3.16555C37.9798 2.43009 35.032 1.87181 32.0584 1.49379C29.9168 1.23838 27.7616 1.02531 25.6077 0.887363C24.3177 0.805157 23.0228 0.80265 21.7287 0.800144C21.3457 0.799402 20.9628 0.79866 20.5801 0.795853C17.947 0.767512 15.3146 0.895212 12.6966 1.17828L12.4968 1.2013C11.1416 1.3574 9.78675 1.51346 8.43936 1.71915C6.03962 2.08655 3.66173 2.57142 1.30433 3.15599C0.441129 3.37042 0.0136285 3.89762 0.0136285 4.79223V15.6423H0.00543359C0.00543359 16.5683 0.004075 17.4941 0.00271651 18.4198C-0.000836126 20.8407 -0.00438812 23.2612 0.0163601 25.6838C0.0176325 26.8803 0.0901491 28.0757 0.233525 29.2636C0.573614 31.8982 1.68675 34.2092 3.38583 36.2374C5.23105 38.431 7.33714 40.3513 9.56615 42.1323C12.5416 44.495 15.7314 46.5741 19.0941 48.3427C20.4271 49.0475 21.7492 49.057 23.0673 48.3236C23.2987 48.1949 23.5306 48.067 23.7625 47.939L23.7626 47.9389L23.7627 47.9389L23.7627 47.9389C24.6092 47.4718 25.4559 47.0046 26.2824 46.5029C30.3621 44.024 34.1331 41.1489 37.4466 37.6961C38.7168 36.374 39.8463 34.9509 40.6726 33.3009C41.7653 31.1156 42.1136 28.7637 42.1218 26.3612C42.1408 21.0945 42.1378 15.827 42.1349 10.5598L42.1349 10.5393V10.5392V10.5391C42.1338 8.61473 42.1327 6.69046 42.1327 4.76628ZM7.32607 29.8425H4.94818V10.8112H7.32607V29.8425ZM10.0192 25.8352H12.3984V14.8185H10.0192V25.8352ZM17.4116 27.8397H15.0324V12.8157H17.4116V27.8397ZM20.0383 32.847H22.4162V7.80614H20.0383V32.847Z" fill="white"/>
<path d="M157.008 13.092H163.007C164.088 13.092 165.068 13.212 165.948 13.452C166.828 13.672 167.578 14.022 168.198 14.502C168.838 14.962 169.328 15.552 169.668 16.272C170.008 16.972 170.178 17.802 170.178 18.762C170.178 19.722 169.998 20.562 169.638 21.282C169.298 21.982 168.808 22.572 168.168 23.052C167.548 23.512 166.788 23.862 165.888 24.102C165.008 24.342 164.028 24.462 162.948 24.462H159.168V34.332H157.008V13.092ZM159.168 22.632H162.828C164.528 22.632 165.818 22.302 166.698 21.642C167.578 20.982 168.018 20.022 168.018 18.762C168.018 17.442 167.558 16.482 166.638 15.882C165.738 15.262 164.468 14.952 162.828 14.952H159.168V22.632ZM180.653 25.272C180.653 24.052 180.333 23.142 179.693 22.542C179.053 21.942 178.123 21.642 176.903 21.642C176.063 21.642 175.283 21.792 174.563 22.092C173.843 22.392 173.233 22.792 172.733 23.292L171.593 21.942C172.173 21.362 172.933 20.882 173.873 20.502C174.833 20.122 175.913 19.932 177.113 19.932C177.873 19.932 178.583 20.042 179.243 20.262C179.903 20.462 180.483 20.772 180.983 21.192C181.483 21.612 181.873 22.142 182.153 22.782C182.433 23.422 182.573 24.172 182.573 25.032V31.182C182.573 31.722 182.593 32.282 182.633 32.862C182.673 33.442 182.733 33.932 182.813 34.332H180.983C180.923 33.992 180.873 33.622 180.833 33.222C180.793 32.822 180.773 32.432 180.773 32.052H180.713C180.073 32.992 179.343 33.672 178.523 34.092C177.723 34.492 176.753 34.692 175.613 34.692C175.073 34.692 174.513 34.612 173.933 34.452C173.373 34.312 172.853 34.072 172.373 33.732C171.913 33.392 171.523 32.952 171.203 32.412C170.903 31.872 170.753 31.212 170.753 30.432C170.753 29.352 171.023 28.502 171.563 27.882C172.123 27.242 172.863 26.772 173.783 26.472C174.703 26.152 175.753 25.952 176.933 25.872C178.133 25.772 179.373 25.722 180.653 25.722V25.272ZM180.053 27.312C179.213 27.312 178.363 27.352 177.503 27.432C176.663 27.492 175.893 27.632 175.193 27.852C174.513 28.052 173.953 28.352 173.513 28.752C173.073 29.152 172.853 29.682 172.853 30.342C172.853 30.842 172.943 31.262 173.123 31.602C173.323 31.942 173.583 32.222 173.903 32.442C174.223 32.642 174.573 32.792 174.953 32.892C175.353 32.972 175.753 33.012 176.153 33.012C176.873 33.012 177.513 32.892 178.073 32.652C178.633 32.392 179.103 32.052 179.483 31.632C179.863 31.192 180.153 30.692 180.353 30.132C180.553 29.572 180.653 28.982 180.653 28.362V27.312H180.053ZM194.598 23.622C194.298 23.042 193.838 22.572 193.218 22.212C192.618 21.832 191.928 21.642 191.148 21.642C190.788 21.642 190.428 21.682 190.068 21.762C189.708 21.842 189.388 21.972 189.108 22.152C188.828 22.332 188.598 22.562 188.418 22.842C188.258 23.122 188.178 23.452 188.178 23.832C188.178 24.492 188.448 25.002 188.988 25.362C189.528 25.702 190.378 25.992 191.538 26.232C193.198 26.572 194.418 27.072 195.198 27.732C195.998 28.372 196.398 29.242 196.398 30.342C196.398 31.142 196.238 31.822 195.918 32.382C195.618 32.922 195.218 33.372 194.718 33.732C194.218 34.072 193.648 34.312 193.008 34.452C192.388 34.612 191.758 34.692 191.118 34.692C190.058 34.692 189.028 34.472 188.028 34.032C187.028 33.592 186.208 32.902 185.568 31.962L187.188 30.762C187.548 31.382 188.078 31.902 188.778 32.322C189.478 32.742 190.248 32.952 191.088 32.952C191.528 32.952 191.948 32.912 192.348 32.832C192.748 32.752 193.098 32.612 193.398 32.412C193.698 32.212 193.938 31.962 194.118 31.662C194.298 31.342 194.388 30.952 194.388 30.492C194.388 29.752 194.028 29.202 193.308 28.842C192.608 28.462 191.588 28.112 190.248 27.792C189.828 27.692 189.378 27.572 188.898 27.432C188.438 27.272 188.008 27.052 187.608 26.772C187.208 26.472 186.878 26.102 186.618 25.662C186.358 25.222 186.228 24.672 186.228 24.012C186.228 23.292 186.368 22.682 186.648 22.182C186.928 21.662 187.298 21.242 187.758 20.922C188.238 20.582 188.778 20.332 189.378 20.172C189.978 20.012 190.598 19.932 191.238 19.932C192.218 19.932 193.168 20.152 194.088 20.592C195.008 21.032 195.698 21.652 196.158 22.452L194.598 23.622ZM207.228 23.622C206.928 23.042 206.468 22.572 205.848 22.212C205.248 21.832 204.558 21.642 203.778 21.642C203.418 21.642 203.058 21.682 202.698 21.762C202.338 21.842 202.018 21.972 201.738 22.152C201.458 22.332 201.228 22.562 201.048 22.842C200.888 23.122 200.808 23.452 200.808 23.832C200.808 24.492 201.078 25.002 201.618 25.362C202.158 25.702 203.008 25.992 204.168 26.232C205.828 26.572 207.048 27.072 207.828 27.732C208.628 28.372 209.028 29.242 209.028 30.342C209.028 31.142 208.868 31.822 208.548 32.382C208.248 32.922 207.848 33.372 207.348 33.732C206.848 34.072 206.278 34.312 205.638 34.452C205.018 34.612 204.388 34.692 203.748 34.692C202.688 34.692 201.658 34.472 200.658 34.032C199.658 33.592 198.838 32.902 198.198 31.962L199.818 30.762C200.178 31.382 200.708 31.902 201.408 32.322C202.108 32.742 202.878 32.952 203.718 32.952C204.158 32.952 204.578 32.912 204.978 32.832C205.378 32.752 205.728 32.612 206.028 32.412C206.328 32.212 206.568 31.962 206.748 31.662C206.928 31.342 207.018 30.952 207.018 30.492C207.018 29.752 206.658 29.202 205.938 28.842C205.238 28.462 204.218 28.112 202.878 27.792C202.458 27.692 202.008 27.572 201.528 27.432C201.068 27.272 200.638 27.052 200.238 26.772C199.838 26.472 199.508 26.102 199.248 25.662C198.988 25.222 198.858 24.672 198.858 24.012C198.858 23.292 198.998 22.682 199.278 22.182C199.558 21.662 199.928 21.242 200.388 20.922C200.868 20.582 201.408 20.332 202.008 20.172C202.608 20.012 203.228 19.932 203.868 19.932C204.848 19.932 205.798 20.152 206.718 20.592C207.638 21.032 208.328 21.652 208.788 22.452L207.228 23.622ZM212.658 20.292L216.048 31.692H216.108L219.888 20.292H221.868L225.708 31.692H225.768L229.128 20.292H231.288L226.848 34.332H224.628L220.878 22.962H220.818L217.128 34.332H214.908L210.468 20.292H212.658ZM248.021 27.312C248.021 28.372 247.831 29.352 247.451 30.252C247.091 31.152 246.581 31.932 245.921 32.592C245.261 33.252 244.471 33.772 243.551 34.152C242.631 34.512 241.621 34.692 240.521 34.692C239.441 34.692 238.441 34.512 237.521 34.152C236.601 33.772 235.811 33.252 235.151 32.592C234.491 31.932 233.971 31.152 233.591 30.252C233.231 29.352 233.051 28.372 233.051 27.312C233.051 26.252 233.231 25.272 233.591 24.372C233.971 23.472 234.491 22.692 235.151 22.032C235.811 21.372 236.601 20.862 237.521 20.502C238.441 20.122 239.441 19.932 240.521 19.932C241.621 19.932 242.631 20.122 243.551 20.502C244.471 20.862 245.261 21.372 245.921 22.032C246.581 22.692 247.091 23.472 247.451 24.372C247.831 25.272 248.021 26.252 248.021 27.312ZM245.861 27.312C245.861 26.532 245.731 25.802 245.471 25.122C245.231 24.422 244.881 23.822 244.421 23.322C243.961 22.802 243.401 22.392 242.741 22.092C242.081 21.792 241.341 21.642 240.521 21.642C239.701 21.642 238.961 21.792 238.301 22.092C237.661 22.392 237.111 22.802 236.651 23.322C236.191 23.822 235.831 24.422 235.571 25.122C235.331 25.802 235.211 26.532 235.211 27.312C235.211 28.092 235.331 28.832 235.571 29.532C235.831 30.212 236.191 30.812 236.651 31.332C237.111 31.832 237.661 32.232 238.301 32.532C238.961 32.812 239.701 32.952 240.521 32.952C241.341 32.952 242.081 32.812 242.741 32.532C243.401 32.232 243.961 31.832 244.421 31.332C244.881 30.812 245.231 30.212 245.471 29.532C245.731 28.832 245.861 28.092 245.861 27.312ZM251.711 23.382C251.711 23.002 251.701 22.512 251.681 21.912C251.661 21.312 251.631 20.772 251.591 20.292H253.541C253.581 20.672 253.611 21.092 253.631 21.552C253.651 22.012 253.661 22.392 253.661 22.692H253.721C254.121 21.872 254.721 21.212 255.521 20.712C256.321 20.192 257.221 19.932 258.221 19.932C258.481 19.932 258.711 19.942 258.911 19.962C259.131 19.982 259.351 20.022 259.571 20.082L259.301 22.002C259.181 21.962 258.981 21.922 258.701 21.882C258.421 21.842 258.141 21.822 257.861 21.822C257.321 21.822 256.801 21.922 256.301 22.122C255.801 22.322 255.361 22.642 254.981 23.082C254.621 23.502 254.321 24.052 254.081 24.732C253.861 25.392 253.751 26.192 253.751 27.132V34.332H251.711V23.382ZM272.844 31.962C272.244 32.862 271.464 33.542 270.504 34.002C269.544 34.462 268.554 34.692 267.534 34.692C266.434 34.692 265.434 34.502 264.534 34.122C263.654 33.742 262.894 33.222 262.254 32.562C261.634 31.902 261.144 31.122 260.784 30.222C260.444 29.322 260.274 28.352 260.274 27.312C260.274 26.272 260.444 25.302 260.784 24.402C261.144 23.502 261.634 22.722 262.254 22.062C262.894 21.402 263.654 20.882 264.534 20.502C265.434 20.122 266.434 19.932 267.534 19.932C268.554 19.932 269.544 20.172 270.504 20.652C271.464 21.112 272.244 21.802 272.844 22.722H272.904V11.652H274.944V34.332H272.904V31.962H272.844ZM262.434 27.312C262.434 28.092 262.554 28.832 262.794 29.532C263.034 30.212 263.374 30.812 263.814 31.332C264.274 31.832 264.834 32.232 265.494 32.532C266.154 32.812 266.904 32.952 267.744 32.952C268.524 32.952 269.244 32.812 269.904 32.532C270.564 32.232 271.134 31.832 271.614 31.332C272.094 30.832 272.464 30.242 272.724 29.562C273.004 28.862 273.144 28.112 273.144 27.312C273.144 26.512 273.004 25.772 272.724 25.092C272.464 24.392 272.094 23.792 271.614 23.292C271.134 22.772 270.564 22.372 269.904 22.092C269.244 21.792 268.524 21.642 267.744 21.642C266.904 21.642 266.154 21.792 265.494 22.092C264.834 22.392 264.274 22.802 263.814 23.322C263.374 23.822 263.034 24.422 262.794 25.122C262.554 25.802 262.434 26.532 262.434 27.312ZM297.116 30.672H297.146L304.256 13.092H307.556V34.332H305.396V15.882H305.336L297.656 34.332H296.516L288.836 15.882H288.776V34.332H286.616V13.092H289.916L297.116 30.672ZM321.218 25.272C321.218 24.052 320.898 23.142 320.258 22.542C319.618 21.942 318.688 21.642 317.468 21.642C316.628 21.642 315.848 21.792 315.128 22.092C314.408 22.392 313.798 22.792 313.298 23.292L312.158 21.942C312.738 21.362 313.498 20.882 314.438 20.502C315.398 20.122 316.478 19.932 317.678 19.932C318.438 19.932 319.148 20.042 319.808 20.262C320.468 20.462 321.048 20.772 321.548 21.192C322.048 21.612 322.438 22.142 322.718 22.782C322.998 23.422 323.138 24.172 323.138 25.032V31.182C323.138 31.722 323.158 32.282 323.198 32.862C323.238 33.442 323.298 33.932 323.378 34.332H321.548C321.488 33.992 321.438 33.622 321.398 33.222C321.358 32.822 321.338 32.432 321.338 32.052H321.278C320.638 32.992 319.908 33.672 319.088 34.092C318.288 34.492 317.318 34.692 316.178 34.692C315.638 34.692 315.078 34.612 314.498 34.452C313.938 34.312 313.418 34.072 312.938 33.732C312.478 33.392 312.088 32.952 311.768 32.412C311.468 31.872 311.318 31.212 311.318 30.432C311.318 29.352 311.588 28.502 312.128 27.882C312.688 27.242 313.428 26.772 314.348 26.472C315.268 26.152 316.318 25.952 317.498 25.872C318.698 25.772 319.938 25.722 321.218 25.722V25.272ZM320.618 27.312C319.778 27.312 318.928 27.352 318.068 27.432C317.228 27.492 316.458 27.632 315.758 27.852C315.078 28.052 314.518 28.352 314.078 28.752C313.638 29.152 313.418 29.682 313.418 30.342C313.418 30.842 313.508 31.262 313.688 31.602C313.888 31.942 314.148 32.222 314.468 32.442C314.788 32.642 315.138 32.792 315.518 32.892C315.918 32.972 316.318 33.012 316.718 33.012C317.438 33.012 318.078 32.892 318.638 32.652C319.198 32.392 319.668 32.052 320.048 31.632C320.428 31.192 320.718 30.692 320.918 30.132C321.118 29.572 321.218 28.982 321.218 28.362V27.312H320.618ZM329.523 20.292C329.563 20.672 329.593 21.092 329.613 21.552C329.633 22.012 329.643 22.392 329.643 22.692H329.703C330.103 21.872 330.753 21.212 331.653 20.712C332.553 20.192 333.503 19.932 334.503 19.932C336.283 19.932 337.613 20.462 338.493 21.522C339.393 22.582 339.843 23.982 339.843 25.722V34.332H337.803V26.562C337.803 25.822 337.743 25.152 337.623 24.552C337.503 23.952 337.293 23.442 336.993 23.022C336.713 22.582 336.323 22.242 335.823 22.002C335.343 21.762 334.733 21.642 333.993 21.642C333.453 21.642 332.923 21.752 332.403 21.972C331.903 22.192 331.453 22.532 331.053 22.992C330.653 23.432 330.333 24.002 330.093 24.702C329.853 25.382 329.733 26.192 329.733 27.132V34.332H327.693V23.382C327.693 23.002 327.683 22.512 327.663 21.912C327.643 21.312 327.613 20.772 327.573 20.292H329.523ZM353.275 25.272C353.275 24.052 352.955 23.142 352.315 22.542C351.675 21.942 350.745 21.642 349.525 21.642C348.685 21.642 347.905 21.792 347.185 22.092C346.465 22.392 345.855 22.792 345.355 23.292L344.215 21.942C344.795 21.362 345.555 20.882 346.495 20.502C347.455 20.122 348.535 19.932 349.735 19.932C350.495 19.932 351.205 20.042 351.865 20.262C352.525 20.462 353.105 20.772 353.605 21.192C354.105 21.612 354.495 22.142 354.775 22.782C355.055 23.422 355.195 24.172 355.195 25.032V31.182C355.195 31.722 355.215 32.282 355.255 32.862C355.295 33.442 355.355 33.932 355.435 34.332H353.605C353.545 33.992 353.495 33.622 353.455 33.222C353.415 32.822 353.395 32.432 353.395 32.052H353.335C352.695 32.992 351.965 33.672 351.145 34.092C350.345 34.492 349.375 34.692 348.235 34.692C347.695 34.692 347.135 34.612 346.555 34.452C345.995 34.312 345.475 34.072 344.995 33.732C344.535 33.392 344.145 32.952 343.825 32.412C343.525 31.872 343.375 31.212 343.375 30.432C343.375 29.352 343.645 28.502 344.185 27.882C344.745 27.242 345.485 26.772 346.405 26.472C347.325 26.152 348.375 25.952 349.555 25.872C350.755 25.772 351.995 25.722 353.275 25.722V25.272ZM352.675 27.312C351.835 27.312 350.985 27.352 350.125 27.432C349.285 27.492 348.515 27.632 347.815 27.852C347.135 28.052 346.575 28.352 346.135 28.752C345.695 29.152 345.475 29.682 345.475 30.342C345.475 30.842 345.565 31.262 345.745 31.602C345.945 31.942 346.205 32.222 346.525 32.442C346.845 32.642 347.195 32.792 347.575 32.892C347.975 32.972 348.375 33.012 348.775 33.012C349.495 33.012 350.135 32.892 350.695 32.652C351.255 32.392 351.725 32.052 352.105 31.632C352.485 31.192 352.775 30.692 352.975 30.132C353.175 29.572 353.275 28.982 353.275 28.362V27.312H352.675ZM360.5 37.152C361.06 37.872 361.82 38.482 362.78 38.982C363.76 39.482 364.79 39.732 365.87 39.732C366.87 39.732 367.72 39.582 368.42 39.282C369.12 39.002 369.68 38.612 370.1 38.112C370.54 37.612 370.86 37.022 371.06 36.342C371.26 35.682 371.36 34.972 371.36 34.212V31.572H371.3C370.76 32.452 369.99 33.132 368.99 33.612C368.01 34.092 367.01 34.332 365.99 34.332C364.89 34.332 363.89 34.152 362.99 33.792C362.11 33.432 361.35 32.942 360.71 32.322C360.09 31.682 359.6 30.922 359.24 30.042C358.9 29.162 358.73 28.212 358.73 27.192C358.73 26.192 358.9 25.252 359.24 24.372C359.6 23.492 360.09 22.722 360.71 22.062C361.35 21.402 362.11 20.882 362.99 20.502C363.89 20.122 364.89 19.932 365.99 19.932C367.01 19.932 368.01 20.172 368.99 20.652C369.97 21.132 370.74 21.822 371.3 22.722H371.36V20.292H373.4V34.212C373.4 34.972 373.29 35.782 373.07 36.642C372.87 37.502 372.48 38.292 371.9 39.012C371.34 39.732 370.57 40.332 369.59 40.812C368.61 41.292 367.34 41.532 365.78 41.532C364.48 41.532 363.24 41.282 362.06 40.782C360.88 40.282 359.87 39.592 359.03 38.712L360.5 37.152ZM360.89 27.132C360.89 27.872 361.01 28.572 361.25 29.232C361.49 29.892 361.83 30.472 362.27 30.972C362.73 31.472 363.29 31.872 363.95 32.172C364.61 32.452 365.36 32.592 366.2 32.592C366.98 32.592 367.7 32.462 368.36 32.202C369.02 31.942 369.59 31.572 370.07 31.092C370.55 30.612 370.92 30.042 371.18 29.382C371.46 28.702 371.6 27.952 371.6 27.132C371.6 26.392 371.46 25.692 371.18 25.032C370.92 24.372 370.55 23.792 370.07 23.292C369.59 22.792 369.02 22.392 368.36 22.092C367.7 21.792 366.98 21.642 366.2 21.642C365.36 21.642 364.61 21.792 363.95 22.092C363.29 22.392 362.73 22.792 362.27 23.292C361.83 23.792 361.49 24.372 361.25 25.032C361.01 25.692 360.89 26.392 360.89 27.132ZM388.715 26.232C388.655 24.912 388.225 23.822 387.425 22.962C386.645 22.082 385.525 21.642 384.065 21.642C383.385 21.642 382.755 21.772 382.175 22.032C381.595 22.272 381.085 22.612 380.645 23.052C380.205 23.472 379.855 23.962 379.595 24.522C379.335 25.062 379.185 25.632 379.145 26.232H388.715ZM390.785 26.892C390.785 27.032 390.785 27.182 390.785 27.342C390.785 27.502 390.775 27.672 390.755 27.852H379.115C379.135 28.552 379.275 29.212 379.535 29.832C379.795 30.452 380.155 30.992 380.615 31.452C381.075 31.912 381.615 32.282 382.235 32.562C382.855 32.822 383.525 32.952 384.245 32.952C385.305 32.952 386.215 32.712 386.975 32.232C387.755 31.732 388.345 31.162 388.745 30.522L390.275 31.722C389.435 32.782 388.505 33.542 387.485 34.002C386.485 34.462 385.405 34.692 384.245 34.692C383.205 34.692 382.235 34.512 381.335 34.152C380.455 33.772 379.695 33.252 379.055 32.592C378.415 31.932 377.905 31.152 377.525 30.252C377.165 29.352 376.985 28.372 376.985 27.312C376.985 26.252 377.165 25.272 377.525 24.372C377.885 23.472 378.385 22.692 379.025 22.032C379.665 21.372 380.415 20.862 381.275 20.502C382.135 20.122 383.065 19.932 384.065 19.932C385.165 19.932 386.135 20.122 386.975 20.502C387.815 20.862 388.515 21.362 389.075 22.002C389.635 22.622 390.055 23.352 390.335 24.192C390.635 25.032 390.785 25.932 390.785 26.892ZM394.473 23.382C394.473 23.002 394.463 22.512 394.443 21.912C394.423 21.312 394.393 20.772 394.353 20.292H396.303C396.343 20.672 396.373 21.092 396.393 21.552C396.413 22.012 396.423 22.392 396.423 22.692H396.483C396.883 21.872 397.483 21.212 398.283 20.712C399.083 20.192 399.983 19.932 400.983 19.932C401.243 19.932 401.473 19.942 401.673 19.962C401.893 19.982 402.113 20.022 402.333 20.082L402.063 22.002C401.943 21.962 401.743 21.922 401.463 21.882C401.183 21.842 400.903 21.822 400.623 21.822C400.083 21.822 399.563 21.922 399.063 22.122C398.563 22.322 398.123 22.642 397.743 23.082C397.383 23.502 397.083 24.052 396.843 24.732C396.623 25.392 396.513 26.192 396.513 27.132V34.332H394.473V23.382Z" fill="white"/>
</svg>
