<svg width="29" height="29" viewBox="0 0 29 29" fill="none" xmlns="http://www.w3.org/2000/svg">
<path d="M8.90182 16.6177C8.90182 16.8652 8.80349 17.1026 8.62846 17.2777C8.45342 17.4527 8.21602 17.551 7.96849 17.551C7.72095 17.551 7.48356 17.4527 7.30852 17.2777C7.13349 17.1026 7.03516 16.8652 7.03516 16.6177V12.4177C7.03516 12.1702 7.13349 11.9328 7.30852 11.7577C7.48356 11.5827 7.72095 11.4844 7.96849 11.4844C8.21602 11.4844 8.45342 11.5827 8.62846 11.7577C8.80349 11.9328 8.90182 12.1702 8.90182 12.4177V16.6177ZM21.9685 16.6177C21.9685 16.8652 21.8702 17.1026 21.6951 17.2777C21.5201 17.4527 21.2827 17.551 21.0352 17.551C20.7876 17.551 20.5502 17.4527 20.3752 17.2777C20.2002 17.1026 20.1018 16.8652 20.1018 16.6177V12.4177C20.1018 12.1702 20.2002 11.9328 20.3752 11.7577C20.5502 11.5827 20.7876 11.4844 21.0352 11.4844C21.2827 11.4844 21.5201 11.5827 21.6951 11.7577C21.8702 11.9328 21.9685 12.1702 21.9685 12.4177V16.6177ZM13.5685 21.7506C13.5685 21.9981 13.4702 22.2355 13.2951 22.4105C13.1201 22.5856 12.8827 22.6839 12.6352 22.6839C12.3876 22.6839 12.1502 22.5856 11.9752 22.4105C11.8002 22.2355 11.7018 21.9981 11.7018 21.7506V17.5506C11.7018 17.303 11.8002 17.0656 11.9752 16.8906C12.1502 16.7156 12.3876 16.6172 12.6352 16.6172C12.8827 16.6172 13.1201 16.7156 13.2951 16.8906C13.4702 17.0656 13.5685 17.303 13.5685 17.5506V21.7506ZM17.3018 21.7506C17.3018 21.9981 17.2035 22.2355 17.0285 22.4105C16.8534 22.5856 16.616 22.6839 16.3685 22.6839C16.121 22.6839 15.8836 22.5856 15.7085 22.4105C15.5335 22.2355 15.4352 21.9981 15.4352 21.7506V17.5506C15.4352 17.303 15.5335 17.0656 15.7085 16.8906C15.8836 16.7156 16.121 16.6172 16.3685 16.6172C16.616 16.6172 16.8534 16.7156 17.0285 16.8906C17.2035 17.0656 17.3018 17.303 17.3018 17.5506V21.7506Z" fill="#7CB342"/>
<path d="M9.83301 11.5031V18.5026C9.83301 18.7501 9.93134 18.9875 10.1064 19.1626C10.2814 19.3376 10.5188 19.4359 10.7663 19.4359H18.233C18.4805 19.4359 18.7179 19.3376 18.893 19.1626C19.068 18.9875 19.1663 18.7501 19.1663 18.5026V11.5031H9.83301ZM14.4997 6.83594C11.6997 6.83594 9.99401 8.53694 9.83301 10.5693H19.1663C19.0049 8.53694 17.2997 6.83594 14.4997 6.83594ZM12.633 9.44834C12.5092 9.44834 12.3905 9.39917 12.303 9.31166C12.2155 9.22414 12.1663 9.10544 12.1663 8.98167C12.1663 8.8579 12.2155 8.73921 12.303 8.65169C12.3905 8.56417 12.5092 8.515 12.633 8.515C12.7568 8.515 12.8755 8.56417 12.963 8.65169C13.0505 8.73921 13.0997 8.8579 13.0997 8.98167C13.0997 9.10544 13.0505 9.22414 12.963 9.31166C12.8755 9.39917 12.7568 9.44834 12.633 9.44834ZM16.3663 9.44834C16.2426 9.44834 16.1239 9.39917 16.0364 9.31166C15.9488 9.22414 15.8997 9.10544 15.8997 8.98167C15.8997 8.8579 15.9488 8.73921 16.0364 8.65169C16.1239 8.56417 16.2426 8.515 16.3663 8.515C16.4901 8.515 16.6088 8.56417 16.6963 8.65169C16.7838 8.73921 16.833 8.8579 16.833 8.98167C16.833 9.10544 16.7838 9.22414 16.6963 9.31166C16.6088 9.39917 16.4901 9.44834 16.3663 9.44834Z" fill="#7CB342"/>
<path fill-rule="evenodd" clip-rule="evenodd" d="M11.4524 5.96385C11.6695 5.82488 11.9581 5.88818 12.097 6.10523L12.7191 7.07683C12.8581 7.29389 12.7948 7.58251 12.5777 7.72148C12.3607 7.86045 12.0721 7.79715 11.9331 7.58009L11.311 6.60849C11.172 6.39143 11.2353 6.10282 11.4524 5.96385ZM16.1383 7.2642L16.9157 6.098L17.6923 6.61572L16.9149 7.78192L16.1383 7.2642Z" fill="#7CB342"/>
</svg>
