<svg width="247" height="247" viewBox="0 0 247 247" fill="none" xmlns="http://www.w3.org/2000/svg">
<g clip-path="url(#clip0_1334_3448)">
<path d="M211.611 209.096L197.491 210.568L193.736 224.248L179.595 223.041L173.314 235.755L159.656 231.89L151.091 243.199L138.421 236.809L127.859 246.296L116.615 237.622L104.45 244.934L95.0733 234.284L81.744 239.159L74.5194 226.949L60.5094 229.211L55.7662 215.838L41.5585 215.399L39.4284 201.389L25.5721 198.271L26.1211 184.085L13.0992 178.419L16.3272 164.607L4.62294 156.57L10.3982 143.614L0.428711 133.513L8.55365 121.896L0.670263 110.082L10.8594 100.2L5.34759 87.1125L17.2276 79.339L14.285 65.4387L27.4167 60.0587L27.1532 45.851L41.0754 43.0402L43.5129 29.0741L57.6986 28.9424L62.7492 15.6789L76.7153 18.2262L84.1815 6.17056L97.401 11.309L107.019 0.878372L119.009 8.43237L130.428 0L140.793 9.70601L153.595 3.57937L161.939 15.0641L175.664 11.4847L181.681 24.3309L195.845 23.4086L199.314 37.1771L213.39 38.9338L214.203 53.1196L227.686 57.5114L225.797 71.5873L238.204 78.4606L233.68 91.9216L244.572 101.013L237.589 113.376L246.571 124.377L237.37 135.181L244.089 147.676L233.022 156.548L237.26 170.097L224.699 176.728L226.302 190.826L212.709 194.955L211.611 209.096Z" fill="url(#paint0_linear_1334_3448)"/>
<path d="M234.054 123.016C234.054 184.195 184.47 233.779 123.291 233.779C62.1124 233.779 12.5283 184.173 12.5283 123.016C12.5283 61.8592 62.1344 12.2532 123.291 12.2532C184.448 12.2532 234.054 61.8373 234.054 123.016Z" fill="url(#paint1_linear_1334_3448)"/>
<path d="M15.0967 123.016C15.0967 63.2428 63.5389 14.8005 123.29 14.8005C183.041 14.8005 231.506 63.2428 231.506 123.016C231.506 182.789 183.063 231.231 123.29 231.231C63.5169 231.231 15.0967 182.767 15.0967 123.016Z" fill="url(#paint2_radial_1334_3448)"/>
<path d="M225.707 123.016C225.707 179.583 179.856 225.434 123.289 225.434C66.7221 225.434 20.8711 179.561 20.8711 123.016C20.8711 66.4709 66.7221 20.5979 123.289 20.5979C179.856 20.5979 225.707 66.4489 225.707 123.016Z" fill="url(#paint3_linear_1334_3448)"/>
<path d="M223.25 123.016C223.25 178.222 178.496 222.975 123.291 222.975C68.0851 222.975 23.332 178.222 23.332 123.016C23.332 67.8102 68.0851 23.0571 123.291 23.0571C178.496 23.0571 223.25 67.8102 223.25 123.016Z" fill="url(#paint4_linear_1334_3448)"/>
<path d="M201.445 123.016C201.445 166.188 166.442 201.169 123.292 201.169C80.1418 201.169 45.1387 166.166 45.1387 123.016C45.1387 79.8659 80.1198 44.8408 123.292 44.8408C166.464 44.8408 201.445 79.8439 201.445 122.994V123.016Z" fill="url(#paint5_linear_1334_3448)"/>
<path d="M198.962 123.016C198.962 164.805 165.1 198.666 123.312 198.666C81.5233 198.666 47.6621 164.783 47.6621 123.016C47.6621 81.2494 81.5014 47.3442 123.29 47.3442C165.079 47.3442 198.94 81.2055 198.94 122.994L198.962 123.016Z" fill="url(#paint6_radial_1334_3448)"/>
<path style="mix-blend-mode:screen" d="M75.9677 181.999C87.0132 163.904 100.189 147.04 115.341 131.888C136.158 111.07 160.204 93.9641 186.269 81.03C172.698 60.7177 149.575 47.3225 123.312 47.3225C81.5233 47.3225 47.6621 81.1838 47.6621 122.972C47.6621 146.842 58.7296 168.099 75.9896 181.977L75.9677 181.999Z" fill="url(#paint7_radial_1334_3448)"/>
<path d="M42.7445 78.592L43.5351 80.5245C42.8104 81.0076 42.3932 81.4028 42.2614 81.6883C42.1516 81.9079 42.1516 82.1494 42.2395 82.391C42.3273 82.6326 42.503 82.8082 42.7445 82.94C43.2057 83.1596 43.8205 82.94 44.5672 82.2373C45.1381 81.7322 45.5992 81.3809 45.9506 81.1613C46.3239 80.9417 46.7411 80.8319 47.2242 80.788C47.7073 80.7441 48.1685 80.8538 48.6077 81.0515C49.4202 81.4467 49.9691 82.1055 50.2546 83.0498C50.5401 83.994 50.4742 84.9163 50.035 85.8167C49.5739 86.8048 48.6296 87.5514 47.2462 88.0785L46.3239 85.9704C47.2462 85.6629 47.8171 85.2457 48.0587 84.7187C48.1685 84.4771 48.1685 84.1917 48.0587 83.8623C47.9489 83.5329 47.7732 83.3133 47.5317 83.2035C47.0266 82.9619 46.3459 83.2913 45.4675 84.1477C44.9624 84.6308 44.5452 84.9602 44.2378 85.1359C43.9303 85.2896 43.557 85.3775 43.0959 85.3775C42.6567 85.3775 42.2395 85.2896 41.8662 85.1139C41.0098 84.7187 40.4608 84.1038 40.1973 83.3133C39.9337 82.5008 40.0216 81.6663 40.4388 80.788C40.9439 79.7339 41.6905 79.0093 42.7006 78.614L42.7445 78.592Z" fill="black"/>
<path d="M45.3574 72.158L46.3017 70.6648L57.5009 72.685L56.2712 74.6175L54.0753 74.2222L51.9013 77.6479L53.1969 79.4485L51.9891 81.3809L45.3574 72.18V72.158ZM48.7392 73.256L50.6935 75.957L52.0331 73.8489L48.7392 73.256Z" fill="black"/>
<path d="M49.3545 66.1634L53.7683 60.6296L55.5251 62.035L54.0099 63.9235L60.4879 69.1059L59.0825 70.8846L52.6045 65.7242L51.1112 67.5907L49.3545 66.2073V66.1634Z" fill="black"/>
<path d="M55.3936 58.8728L56.9527 57.2039L64.6604 64.3845L63.1232 66.0535L55.4155 58.8728H55.3936Z" fill="black"/>
<path d="M64.1557 51.6262V53.7343C63.3213 53.91 62.7723 54.1076 62.5307 54.3272C62.3551 54.5029 62.2453 54.7225 62.2453 54.986C62.2453 55.2495 62.3331 55.4691 62.5088 55.6667C62.8601 56.04 63.5189 56.062 64.4631 55.7107C65.1658 55.4691 65.7368 55.2934 66.154 55.2495C66.5712 55.1836 67.0104 55.2495 67.4716 55.3813C67.9327 55.535 68.328 55.7985 68.6574 56.1498C69.2722 56.8086 69.5357 57.6431 69.4479 58.6312C69.3601 59.6194 68.9428 60.4539 68.2182 61.1126C67.4057 61.8593 66.2638 62.1886 64.7925 62.1667L64.7267 59.8829C65.6929 59.9488 66.3736 59.7731 66.8128 59.3779C67.0104 59.2022 67.1202 58.9167 67.1422 58.5873C67.1422 58.236 67.0763 57.9725 66.9006 57.7748C66.5273 57.3796 65.7807 57.4015 64.6388 57.8846C63.98 58.1481 63.4969 58.3018 63.1456 58.3458C62.7942 58.3897 62.4209 58.3018 62.0037 58.1481C61.5865 57.9725 61.2351 57.7309 60.9497 57.4235C60.3128 56.7427 60.0274 55.9742 60.0932 55.1178C60.1591 54.2833 60.5324 53.5147 61.2571 52.8559C62.1135 52.0654 63.0797 51.6701 64.1557 51.6701V51.6262Z" fill="black"/>
<path d="M65.9121 48.9471L70.6553 45.3896L71.885 47.0146L68.9425 49.2106L70.2381 50.9234L73.1806 48.7275L74.4104 50.3744L71.4898 52.5703L74.059 55.996L72.2364 57.3575L65.9121 48.9251V48.9471Z" fill="black"/>
<path d="M75.4209 42.3156L76.9361 41.4153L86.0053 48.2885L84.0289 49.4524L82.2502 48.0909L78.7807 50.1551L79.132 52.351L77.1776 53.5149L75.4429 42.2937L75.4209 42.3156ZM77.9462 44.8409L78.4732 48.1348L80.6253 46.8612L77.9462 44.8409Z" fill="black"/>
<path d="M89.9579 35.574L91.012 37.9236C89.6944 37.7699 88.6404 37.8577 87.8498 38.2091C87.0813 38.5604 86.5762 39.1094 86.3346 39.856C86.115 40.6027 86.2029 41.4371 86.5982 42.3374C86.9934 43.1939 87.5424 43.7648 88.2671 44.0722C88.9917 44.3577 89.7603 44.3357 90.5947 43.9624C91.3194 43.633 92.0441 42.9523 92.7907 41.9422L93.8228 44.2699C92.8566 45.1482 92.0001 45.7631 91.2535 46.0925C89.9579 46.6634 88.6404 46.6854 87.3228 46.1364C85.9833 45.5874 85.0171 44.6432 84.4022 43.2597C83.7874 41.8763 83.7215 40.4929 84.2046 39.1094C84.6877 37.726 85.588 36.7598 86.9056 36.1669C87.762 35.7936 88.7502 35.5959 89.936 35.5959L89.9579 35.574Z" fill="black"/>
<path d="M91.8232 34.3004L98.5647 32.1265L99.2455 34.2565L96.9398 35.0031L99.487 42.8865L97.335 43.5892L94.7878 35.6839L92.504 36.4305L91.8232 34.3004Z" fill="black"/>
<path d="M100.914 31.5556L103.132 31.0286L105.569 41.2836L103.352 41.8106L100.914 31.5556Z" fill="black"/>
<path d="M106.734 35.4861C106.536 33.949 106.866 32.6095 107.766 31.4676C108.644 30.3257 109.808 29.6669 111.192 29.4912C112.729 29.2936 114.09 29.623 115.232 30.5014C116.374 31.3797 117.055 32.5875 117.253 34.1246C117.45 35.6618 117.121 37.0013 116.242 38.1432C115.364 39.2851 114.178 39.9658 112.663 40.1635C111.148 40.3611 109.83 40.0317 108.71 39.1533C107.59 38.275 106.932 37.0672 106.734 35.5081V35.4861ZM111.565 31.5554C110.687 31.6652 110.028 32.0605 109.567 32.7412C109.106 33.4219 108.952 34.2564 109.084 35.2446C109.193 36.1669 109.589 36.9135 110.204 37.4405C110.84 37.9675 111.565 38.1871 112.4 38.0773C113.278 37.9675 113.937 37.5723 114.398 36.8915C114.859 36.2108 115.013 35.3983 114.881 34.4101C114.749 33.4439 114.398 32.6973 113.783 32.1703C113.168 31.6432 112.443 31.4456 111.565 31.5334V31.5554Z" fill="black"/>
<path d="M126.959 28.8325H129.177L129.023 39.3949H126.805L122.084 32.4777L121.996 39.3071H119.734L119.888 28.7446H122.128L126.871 35.6179L126.959 28.8544V28.8325Z" fill="black"/>
<path d="M151.18 35.3982L149.357 36.3644C149.204 35.7496 148.918 35.2665 148.545 34.8712C148.171 34.4759 147.732 34.2344 147.249 34.1026C146.459 33.883 145.69 33.9928 144.921 34.432C144.175 34.8712 143.692 35.508 143.45 36.3205C143.209 37.1989 143.296 38.0114 143.714 38.78C144.131 39.5485 144.746 40.0316 145.58 40.2732C146.019 40.4049 146.503 40.4049 146.964 40.2732C147.447 40.1634 147.886 39.834 148.325 39.2631L145.91 38.6043L146.459 36.6279L151.158 37.9016L150.807 39.2191C150.631 39.8999 150.192 40.5587 149.511 41.2174C148.83 41.8543 148.062 42.2715 147.205 42.4252C146.349 42.5789 145.536 42.557 144.768 42.3374C143.362 41.9641 142.308 41.1296 141.628 39.834C140.947 38.5604 140.793 37.1769 141.21 35.6617C141.606 34.2344 142.418 33.1584 143.692 32.4337C144.965 31.7091 146.283 31.5334 147.688 31.9067C149.467 32.3898 150.631 33.5536 151.158 35.3763L151.18 35.3982Z" fill="black"/>
<path d="M155.462 34.4758L157.526 35.3542L155.001 41.2832C154.759 41.8322 154.737 42.3373 154.891 42.7984C155.045 43.2596 155.374 43.6109 155.879 43.8085C156.45 44.0501 156.955 44.072 157.416 43.8744C157.878 43.6768 158.229 43.2596 158.492 42.6447L160.974 36.8255L163.016 37.7038L160.359 43.9842C160.117 44.5332 159.744 45.0383 159.195 45.5214C158.646 46.0045 158.031 46.268 157.307 46.3339C156.582 46.3997 155.857 46.268 155.111 45.9605C153.771 45.3896 152.959 44.621 152.673 43.6109C152.366 42.6008 152.388 41.7004 152.739 40.8879L155.44 34.4978L155.462 34.4758Z" fill="black"/>
<path d="M169.165 41.0198L170.68 41.9201L169.033 53.1852L167.057 52.0214L167.386 49.8035L163.895 47.7613L162.138 49.1228L160.184 47.9809L169.165 41.0417V41.0198ZM168.177 44.4454L165.542 46.4876L167.694 47.7613L168.177 44.4454Z" fill="black"/>
<path d="M176.806 45.8291L179.551 47.9592C180.385 48.6179 180.868 49.3426 181.022 50.1551C181.154 50.9676 180.956 51.7581 180.363 52.5047C180.034 52.9439 179.573 53.2953 179.002 53.5807C178.431 53.8662 177.728 53.9101 176.937 53.7125L176.564 58.9827L174.5 57.3797L174.851 52.4828L174.654 52.3291L172.15 55.5351L170.35 54.1517L176.828 45.8291H176.806ZM177.464 48.7058L175.774 50.8797L176.169 51.1872C177.113 51.9118 177.86 51.8899 178.475 51.1433C178.716 50.8358 178.782 50.4845 178.694 50.1112C178.584 49.7379 178.321 49.3865 177.904 49.0571L177.486 48.7277L177.464 48.7058Z" fill="black"/>
<path d="M187.982 55.3594L189.212 56.6111L184.732 67.0637L183.129 65.4387L184.008 63.3965L181.175 60.5198L179.111 61.3762L177.508 59.7512L187.96 55.3594H187.982ZM186.138 58.4117L183.064 59.7073L184.82 61.486L186.138 58.4117Z" fill="black"/>
<path d="M198.392 67.6565L199.732 69.4352L191.277 75.7155L189.96 73.9368L192.551 66.0095L187.083 70.072L185.722 68.2494L194.176 61.969L195.516 63.7697L192.968 71.697L198.392 67.6565Z" fill="black"/>
<path d="M201.18 71.7849L204.716 77.9335L202.783 79.0534L201.576 76.9673L194.373 81.0957L193.253 79.1193L200.456 74.991L199.27 72.9048L201.202 71.7849H201.18Z" fill="black"/>
<path d="M205.924 80.3489L208.362 85.7509L206.451 86.6073L204.958 83.2695L203.026 84.1478L204.541 87.4856L202.674 88.3201L201.181 84.9823L199.183 85.8826L200.676 89.2204L198.766 90.0768L196.328 84.6749L205.924 80.3489Z" fill="black"/>
<path d="M209.482 88.6716L211.37 94.2932L209.394 94.952L208.23 91.4824L206.21 92.1632L207.374 95.6327L205.419 96.2915L204.255 92.8219L202.191 93.5246L203.355 96.9942L201.379 97.653L199.49 92.0314L209.482 88.6716Z" fill="black"/>
<path d="M47.7939 164.102L45.8396 163.597C45.8835 162.762 45.8396 162.213 45.6639 161.928C45.5541 161.708 45.3784 161.577 45.1369 161.511C44.8953 161.445 44.6538 161.467 44.4342 161.577C43.995 161.818 43.8193 162.411 43.9291 163.377C43.995 164.102 43.995 164.651 43.9511 165.068C43.9071 165.485 43.7754 165.881 43.5119 166.276C43.2484 166.671 42.919 166.979 42.5017 167.198C41.7332 167.615 40.8987 167.659 39.9984 167.33C39.098 167.023 38.4173 166.43 37.9781 165.595C37.4731 164.673 37.4291 163.531 37.8244 162.148L39.9764 162.631C39.6909 163.509 39.6909 164.19 39.9545 164.695C40.0862 164.936 40.3058 165.09 40.6132 165.2C40.9426 165.31 41.2061 165.288 41.4257 165.178C41.8869 164.936 42.0406 164.212 41.8649 163.048C41.7771 162.367 41.7551 161.884 41.799 161.533C41.8649 161.203 42.0186 160.852 42.2602 160.523C42.5237 160.171 42.8311 159.908 43.1825 159.71C43.973 159.293 44.7635 159.205 45.5321 159.447C46.3007 159.688 46.9156 160.237 47.3547 161.072C47.8818 162.06 48.0135 163.07 47.75 164.058L47.7939 164.102Z" fill="black"/>
<path d="M51.5272 168.252L52.4715 169.658L46.4327 178.771L45.2029 176.948L46.3887 175.148L44.1928 171.942L42.1067 172.403L40.877 170.602L51.5492 168.252H51.5272ZM49.2654 170.822L46.1252 171.524L47.4867 173.523L49.2654 170.844V170.822Z" fill="black"/>
<path d="M54.8199 172.973L59.1898 178.2L57.5429 179.583L56.0496 177.804L49.923 182.921L48.5176 181.252L54.6442 176.136L53.173 174.357L54.8199 172.973Z" fill="black"/>
<path d="M60.246 179.254L61.7612 180.835L54.4488 187.862L52.9336 186.281L60.246 179.254Z" fill="black"/>
<path d="M66.8982 186.918L64.8999 187.115C64.6583 186.325 64.4168 185.82 64.1752 185.6C63.9996 185.446 63.78 185.359 63.5164 185.381C63.2749 185.381 63.0553 185.512 62.8796 185.688C62.5502 186.061 62.5942 186.676 63.0114 187.555C63.3188 188.213 63.5164 188.74 63.6043 189.136C63.6921 189.531 63.6921 189.97 63.6043 190.409C63.4945 190.87 63.2969 191.266 62.9675 191.617C62.3746 192.254 61.606 192.583 60.6617 192.583C59.7175 192.583 58.883 192.276 58.1584 191.617C57.3898 190.914 56.9506 189.86 56.8408 188.433L59.0368 188.147C59.0587 189.07 59.3003 189.728 59.7175 190.102C59.9151 190.277 60.1786 190.365 60.508 190.343C60.8374 190.343 61.1009 190.234 61.2766 190.036C61.6279 189.641 61.5401 188.916 60.9692 187.884C60.6617 187.291 60.4641 186.808 60.3982 186.479C60.3323 186.149 60.3763 185.776 60.4861 185.359C60.6178 184.941 60.8155 184.59 61.079 184.283C61.6938 183.624 62.3965 183.272 63.209 183.25C64.0215 183.25 64.7681 183.536 65.4708 184.173C66.3053 184.919 66.7664 185.82 66.8543 186.852L66.8982 186.918Z" fill="black"/>
<path d="M68.9626 187.467L73.5521 190.87L72.3883 192.452L69.5555 190.343L68.3258 192.012L71.1586 194.12L69.9728 195.702L67.14 193.615L64.6806 196.931L62.9238 195.636L68.9626 187.489V187.467Z" fill="black"/>
<path d="M77.1968 193.286L78.6241 194.186L76.8015 204.968L74.935 203.804L75.2863 201.674L71.9705 199.632L70.2357 200.906L68.3691 199.764L77.1529 193.286H77.1968ZM76.1647 196.558L73.5735 198.468L75.6157 199.742L76.1647 196.558Z" fill="black"/>
<path d="M89.45 200.423L88.374 202.64C87.6713 201.564 86.9466 200.862 86.2 200.51C85.4534 200.159 84.7507 200.115 84.048 200.423C83.3673 200.708 82.7963 201.301 82.4011 202.157C82.0058 202.97 81.9399 203.738 82.1595 204.463C82.4011 205.188 82.9061 205.715 83.6967 206.088C84.3774 206.417 85.3436 206.527 86.5514 206.439L85.4973 208.657C84.2456 208.504 83.2794 208.262 82.5548 207.911C81.3251 207.318 80.4906 206.374 80.0734 205.056C79.6562 203.738 79.744 202.443 80.3589 201.125C80.9957 199.808 81.9619 198.885 83.2794 198.402C84.597 197.919 85.8706 197.963 87.1223 198.556C87.9348 198.951 88.7034 199.566 89.428 200.423H89.45Z" fill="black"/>
<path d="M90.6359 200.313L97.048 202.641L96.3014 204.661L94.1055 203.87L91.3825 211.38L89.3184 210.634L92.0413 203.124L89.8673 202.333L90.592 200.313H90.6359Z" fill="black"/>
<path d="M98.4978 203.014L100.606 203.607L97.8171 213.357L95.709 212.764L98.4978 203.014Z" fill="black"/>
<path d="M101.352 209.206C101.615 207.735 102.34 206.615 103.504 205.824C104.646 205.056 105.897 204.792 107.237 205.034C108.708 205.297 109.85 206.022 110.619 207.164C111.409 208.306 111.651 209.623 111.387 211.095C111.124 212.566 110.399 213.686 109.279 214.476C108.137 215.267 106.842 215.53 105.392 215.245C103.943 214.981 102.845 214.279 102.076 213.137C101.33 211.995 101.066 210.699 101.352 209.206ZM106.951 207.054C106.117 206.878 105.392 207.054 104.777 207.537C104.163 208.042 103.767 208.745 103.592 209.689C103.438 210.568 103.548 211.358 103.965 212.039C104.382 212.72 104.975 213.137 105.766 213.269C106.6 213.422 107.325 213.269 107.94 212.786C108.554 212.302 108.95 211.6 109.125 210.655C109.301 209.733 109.191 208.943 108.796 208.284C108.401 207.625 107.786 207.208 106.951 207.054Z" fill="black"/>
<path d="M120.744 206.637L122.874 206.747L122.325 216.87L120.195 216.76L115.934 209.953L115.583 216.497L113.409 216.387L113.958 206.264L116.11 206.374L120.392 213.137L120.744 206.637Z" fill="black"/>
<path d="M142.592 206.791L141.406 208.372C141.011 207.911 140.572 207.581 140.088 207.406C139.605 207.23 139.122 207.186 138.639 207.252C137.849 207.384 137.234 207.801 136.751 208.504C136.289 209.206 136.114 209.953 136.246 210.744C136.399 211.6 136.816 212.281 137.497 212.764C138.178 213.269 138.925 213.445 139.737 213.291C140.176 213.225 140.572 213.027 140.945 212.742C141.318 212.456 141.582 211.973 141.713 211.314L139.342 211.732L139.012 209.777L143.624 208.987L143.843 210.282C143.953 210.941 143.843 211.71 143.536 212.544C143.207 213.379 142.702 214.059 142.021 214.521C141.34 215.004 140.615 215.311 139.847 215.443C138.463 215.684 137.212 215.377 136.092 214.542C134.972 213.708 134.269 212.566 134.028 211.095C133.786 209.689 134.072 208.416 134.862 207.274C135.675 206.11 136.751 205.407 138.134 205.188C139.891 204.88 141.362 205.407 142.592 206.791Z" fill="black"/>
<path d="M144.438 204.09L146.502 203.475L148.302 209.404C148.478 209.953 148.763 210.348 149.159 210.59C149.576 210.831 150.015 210.875 150.52 210.721C151.091 210.546 151.486 210.238 151.706 209.821C151.926 209.382 151.926 208.855 151.75 208.24L149.993 202.399L152.057 201.784L153.946 208.064C154.122 208.613 154.144 209.228 154.034 209.909C153.924 210.59 153.616 211.183 153.133 211.666C152.628 212.171 152.013 212.522 151.289 212.742C149.949 213.137 148.873 213.071 148.039 212.522C147.204 211.973 146.655 211.27 146.414 210.458L144.481 204.068L144.438 204.09Z" fill="black"/>
<path d="M156.953 199.808L158.512 199.127L166.352 206.769L164.331 207.647L162.794 206.154L159.237 207.713L159.303 209.865L157.304 210.743L156.975 199.83L156.953 199.808ZM159.061 202.509L159.171 205.715L161.389 204.749L159.083 202.487L159.061 202.509Z" fill="black"/>
<path d="M163.585 196.733L166.462 195.064C167.34 194.559 168.175 194.384 168.943 194.537C169.734 194.713 170.349 195.174 170.81 195.965C171.074 196.404 171.227 196.953 171.271 197.568C171.315 198.183 171.117 198.82 170.634 199.456L175.202 201.674L173.028 202.948L168.79 200.884L168.57 201.015L170.547 204.397L168.658 205.495L163.563 196.733H163.585ZM166.396 197.195L167.736 199.478L168.153 199.237C169.141 198.666 169.405 197.963 168.922 197.173C168.724 196.843 168.46 196.667 168.087 196.602C167.714 196.558 167.297 196.668 166.857 196.931L166.418 197.195H166.396Z" fill="black"/>
<path d="M174.346 189.926L175.707 188.916L185.084 194.537L183.327 195.855L181.482 194.757L178.364 197.107L178.935 199.171L177.178 200.488L174.346 189.948V189.926ZM177.025 192.078L177.859 195.174L179.792 193.725L177.025 192.078Z" fill="black"/>
<path d="M184.93 180.725L186.467 179.232L193.538 186.5L192.023 187.994L184.117 186.522L188.685 191.222L187.126 192.737L180.055 185.468L181.614 183.953L189.497 185.381L184.952 180.703L184.93 180.725Z" fill="black"/>
<path d="M187.345 178.2L191.693 172.951L193.34 174.335L191.846 176.114L197.995 181.208L196.59 182.899L190.441 177.804L188.97 179.583L187.301 178.2H187.345Z" fill="black"/>
<path d="M192.637 171.7L195.887 167L197.534 168.142L195.535 171.041L197.226 172.205L199.225 169.306L200.849 170.426L198.851 173.325L200.586 174.511L202.584 171.612L204.231 172.754L200.981 177.453L192.659 171.678L192.637 171.7Z" fill="black"/>
<path d="M196.92 165.353L199.731 160.391L201.465 161.379L199.731 164.431L201.509 165.441L203.244 162.389L204.957 163.377L203.222 166.429L205.045 167.462L206.78 164.409L208.514 165.397L205.682 170.36L196.876 165.353H196.92Z" fill="black"/>
<path d="M43.6004 128.967L38.5937 125.98L33.565 128.967L34.8387 123.279L30.4688 119.436L36.266 118.887L38.5937 113.529L40.8994 118.887L46.6967 119.414L42.3268 123.279L43.6004 128.967Z" fill="url(#paint8_radial_1334_3448)"/>
<path style="mix-blend-mode:screen" d="M91.4062 192.056L124.455 123.982L89.5836 191.134C90.1984 191.441 90.7913 191.77 91.4062 192.056ZM83.7424 187.752L124.455 123.982L82.0296 186.632C82.6005 187.005 83.1714 187.379 83.7424 187.73V187.752ZM116.659 199.259L124.433 124.004L114.639 199.017C115.32 199.105 115.979 199.215 116.659 199.28V199.259ZM76.6056 182.613L124.433 124.004L75.0465 181.296C75.5735 181.735 76.0786 182.196 76.6056 182.613ZM107.985 197.853L124.433 124.004L106.009 197.392C106.668 197.568 107.327 197.699 108.007 197.853H107.985ZM99.5092 195.46L124.411 124.026L97.5767 194.779C98.2136 195.02 98.8504 195.24 99.5092 195.482V195.46ZM59.4115 162.718L124.411 124.026L58.3794 160.962C58.7088 161.554 59.0382 162.147 59.3895 162.74L59.4115 162.718ZM52.2308 146.688L124.433 124.026L51.6598 144.734C51.8355 145.392 52.0332 146.051 52.2308 146.71V146.688ZM50.1227 138.168L124.433 124.004L49.7494 136.148C49.8592 136.828 49.9909 137.487 50.1007 138.168H50.1227ZM55.371 154.901L124.433 124.004L54.5585 153.012C54.822 153.649 55.1075 154.264 55.371 154.879V154.901ZM64.3743 169.987L124.433 124.004L63.1446 168.34C63.5398 168.889 63.9571 169.438 64.3743 169.987ZM124.433 199.676C124.784 199.676 125.114 199.654 125.443 199.654L124.433 124.026L123.401 199.654C123.752 199.654 124.082 199.676 124.433 199.676ZM142.857 197.392L124.433 124.004L140.88 197.853C141.539 197.699 142.22 197.568 142.879 197.392H142.857ZM194.307 153.012L124.433 124.004L193.495 154.901C193.78 154.286 194.044 153.649 194.307 153.034V153.012ZM185.699 168.34L124.411 124.004L184.47 169.987C184.887 169.438 185.282 168.889 185.699 168.34ZM190.443 160.94L124.411 124.004L189.411 162.696C189.762 162.103 190.091 161.51 190.421 160.918L190.443 160.94ZM197.184 144.712L124.411 124.004L196.613 146.666C196.811 146.007 196.987 145.348 197.184 144.69V144.712ZM199.863 129.428C199.907 128.747 199.951 128.066 199.995 127.386L124.433 124.004L199.885 129.428H199.863ZM199.095 136.148L124.433 124.004L198.743 138.168C198.875 137.509 198.985 136.828 199.095 136.148ZM180.166 175.147L124.433 124.004L178.76 176.618C179.243 176.135 179.705 175.652 180.166 175.147ZM159.282 191.134L124.411 123.982L157.46 192.056C158.075 191.748 158.668 191.441 159.282 191.134ZM151.245 194.735L124.411 123.982L149.313 195.416C149.95 195.196 150.608 194.955 151.245 194.713V194.735ZM49.0028 129.384L124.455 123.96L48.893 127.342C48.9149 128.023 48.9808 128.703 49.0247 129.384H49.0028ZM134.249 198.973L124.455 123.96L132.229 199.215C132.909 199.149 133.59 199.039 134.249 198.951V198.973ZM166.858 186.632L124.433 123.982L165.124 187.752C165.695 187.379 166.287 187.027 166.836 186.632H166.858ZM173.819 181.274L124.433 123.982L172.26 182.591C172.787 182.152 173.292 181.713 173.819 181.274ZM70.1057 176.618L124.433 124.004L68.7003 175.147C69.1614 175.652 69.6445 176.135 70.1057 176.618ZM178.76 71.3676L124.433 124.004L180.166 72.8608C179.705 72.3557 179.243 71.8726 178.76 71.3895V71.3676ZM172.26 65.3946L124.433 124.004L173.819 66.7122C173.314 66.273 172.787 65.8119 172.26 65.3946ZM157.482 55.9302L124.433 124.004L159.304 56.8744C158.689 56.567 158.097 56.2376 157.482 55.9302ZM165.146 60.2342L124.455 124.004L166.88 61.3541C166.309 60.9808 165.738 60.6075 165.167 60.2342H165.146ZM140.88 50.1549L124.433 124.004L142.857 50.616C142.198 50.4404 141.539 50.3086 140.859 50.1549H140.88ZM149.335 52.5484L124.433 123.982L151.267 53.2292C150.63 52.9876 149.994 52.768 149.335 52.5265V52.5484ZM184.492 77.9993L124.433 123.982L185.721 79.6462C185.326 79.0972 184.909 78.5483 184.492 77.9993ZM198.743 109.84L124.433 124.004L199.095 111.861C198.985 111.18 198.853 110.521 198.743 109.84ZM132.207 48.7275L124.433 123.982L134.227 48.991C133.546 48.9032 132.887 48.7934 132.207 48.7275ZM199.863 118.58L124.411 124.004L199.973 120.622C199.951 119.942 199.885 119.261 199.841 118.58H199.863ZM196.613 101.32L124.411 123.982L197.184 103.274C197.008 102.616 196.811 101.957 196.613 101.32ZM193.473 93.1073L124.411 124.004L194.286 94.9958C194.022 94.359 193.737 93.7441 193.473 93.1292V93.1073ZM189.411 85.2898L124.411 123.982L190.443 87.0465C190.113 86.4536 189.784 85.8607 189.433 85.2678L189.411 85.2898ZM81.9856 61.3322L124.411 123.982L83.6985 60.2122C83.1275 60.5856 82.5346 60.9369 81.9856 61.3322ZM58.3794 87.0465L124.411 123.982L59.4115 85.2898C59.0601 85.8827 58.7307 86.4756 58.4014 87.0685L58.3794 87.0465ZM54.5146 94.9519L124.389 123.96L55.327 93.0634C55.0416 93.6782 54.7561 94.2931 54.5146 94.9299V94.9519ZM68.6563 72.8169L124.389 123.96L70.0617 71.3237C69.5786 71.8068 69.1175 72.2899 68.6563 72.7949V72.8169ZM63.1006 79.6243L124.389 123.96L64.3304 77.9773C63.9131 78.5263 63.5179 79.0753 63.1006 79.6243ZM49.7055 111.839L124.389 123.982L50.0788 109.818C49.947 110.477 49.8372 111.158 49.7274 111.839H49.7055ZM51.6159 103.274L124.389 123.982L52.1869 101.32C51.9892 101.979 51.8136 102.638 51.6159 103.274ZM97.5548 53.2292L124.389 123.982L99.4872 52.5484C98.8504 52.768 98.1916 53.0096 97.5548 53.2511V53.2292ZM105.943 50.5941L124.367 123.982L107.92 50.1329C107.261 50.2866 106.58 50.4184 105.921 50.5941H105.943ZM74.9806 66.6902L124.367 123.982L76.5397 65.3727C76.0127 65.8119 75.5076 66.2511 74.9806 66.6902ZM114.551 48.9691L124.345 123.96L116.572 48.7056C115.891 48.7714 115.21 48.8812 114.551 48.9691ZM124.345 48.3103C123.994 48.3103 123.664 48.3103 123.313 48.3323L124.345 123.96L125.355 48.3323C125.004 48.3323 124.675 48.3103 124.345 48.3103ZM89.4738 56.8305L124.345 123.96L91.2964 55.8863C90.6815 56.1937 90.0886 56.5011 89.4738 56.8305ZM48.7612 120.6L124.323 123.982L48.871 118.558C48.8271 119.239 48.7832 119.92 48.7393 120.6H48.7612Z" fill="url(#paint9_radial_1334_3448)"/>
<path d="M65.7365 120.661C71.4883 120.661 75.1485 117.936 75.1485 113.705V113.674C75.1485 110.647 72.946 108.746 69.5076 108.397V108.286C72.1062 107.763 74.2453 105.941 74.2453 103.073V103.041C74.2453 99.3811 70.9178 96.9727 65.6889 96.9727C60.6185 96.9727 57.2593 99.6347 56.9582 103.723L56.9424 103.945H62.2188L62.2347 103.802C62.3931 102.313 63.6924 101.298 65.6889 101.298C67.6696 101.298 68.8421 102.265 68.8421 103.834V103.865C68.8421 105.482 67.4794 106.543 65.2453 106.543H62.7893V110.489H65.277C67.8122 110.489 69.2383 111.503 69.2383 113.341V113.372C69.2383 114.957 67.8914 116.082 65.7206 116.082C63.5498 116.082 62.1713 115.036 61.9812 113.737L61.9495 113.563H56.4036L56.4195 113.753C56.7522 117.872 60.3333 120.661 65.7365 120.661ZM87.3493 120.661C93.4339 120.661 97.1417 116.114 97.1417 108.825V108.793C97.1417 101.504 93.4339 96.9727 87.3493 96.9727C81.2648 96.9727 77.5411 101.504 77.5411 108.793V108.825C77.5411 116.114 81.2648 120.661 87.3493 120.661ZM87.3493 116.114C84.8299 116.114 83.4197 113.468 83.4197 108.825V108.793C83.4197 104.151 84.8299 101.52 87.3493 101.52C89.8687 101.52 91.2631 104.151 91.2631 108.793V108.825C91.2631 113.468 89.8687 116.114 87.3493 116.114ZM106.427 120.249H115.712C122.605 120.249 126.677 115.987 126.677 108.682V108.651C126.677 101.378 122.605 97.3846 115.712 97.3846H106.427V120.249ZM112.242 115.559V102.075H114.952C118.612 102.075 120.767 104.388 120.767 108.666V108.698C120.767 113.262 118.739 115.559 114.952 115.559H112.242ZM127.089 120.249H133.189L134.616 115.226H142.079L143.505 120.249H149.605L141.904 97.3846H134.79L127.089 120.249ZM138.292 102.36H138.403L140.874 111.043H135.82L138.292 102.36ZM155.056 120.249H160.871V112.39L168.746 97.3846H162.566L158.019 106.892H157.908L153.36 97.3846H147.181L155.056 112.39V120.249ZM178.142 120.661C184.195 120.661 187.776 117.762 187.776 113.198V113.182C187.776 109.522 185.526 107.557 180.678 106.622L178.332 106.179C175.876 105.719 174.799 105.07 174.799 103.834V103.818C174.799 102.503 176.003 101.536 178.142 101.536C180.234 101.536 181.707 102.471 181.882 103.976L181.898 104.151H187.301L187.285 103.818C187.079 99.6664 183.831 96.9727 178.095 96.9727C172.85 96.9727 169.031 99.809 169.031 104.214V104.23C169.031 107.732 171.424 109.966 175.956 110.806L178.301 111.249C180.979 111.772 181.993 112.374 181.993 113.674V113.689C181.993 115.115 180.567 116.098 178.253 116.098C176.019 116.098 174.308 115.131 174.023 113.658L173.991 113.483H168.588L168.604 113.769C168.857 118.142 172.454 120.661 178.142 120.661Z" fill="#FFEF98"/>
<path d="M65.7365 120.661C71.4883 120.661 75.1485 117.936 75.1485 113.705V113.674C75.1485 110.647 72.946 108.746 69.5076 108.397V108.286C72.1062 107.763 74.2453 105.941 74.2453 103.073V103.041C74.2453 99.3811 70.9178 96.9727 65.6889 96.9727C60.6185 96.9727 57.2593 99.6347 56.9582 103.723L56.9424 103.945H62.2188L62.2347 103.802C62.3931 102.313 63.6924 101.298 65.6889 101.298C67.6696 101.298 68.8421 102.265 68.8421 103.834V103.865C68.8421 105.482 67.4794 106.543 65.2453 106.543H62.7893V110.489H65.277C67.8122 110.489 69.2383 111.503 69.2383 113.341V113.372C69.2383 114.957 67.8914 116.082 65.7206 116.082C63.5498 116.082 62.1713 115.036 61.9812 113.737L61.9495 113.563H56.4036L56.4195 113.753C56.7522 117.872 60.3333 120.661 65.7365 120.661ZM87.3493 120.661C93.4339 120.661 97.1417 116.114 97.1417 108.825V108.793C97.1417 101.504 93.4339 96.9727 87.3493 96.9727C81.2648 96.9727 77.5411 101.504 77.5411 108.793V108.825C77.5411 116.114 81.2648 120.661 87.3493 120.661ZM87.3493 116.114C84.8299 116.114 83.4197 113.468 83.4197 108.825V108.793C83.4197 104.151 84.8299 101.52 87.3493 101.52C89.8687 101.52 91.2631 104.151 91.2631 108.793V108.825C91.2631 113.468 89.8687 116.114 87.3493 116.114ZM106.427 120.249H115.712C122.605 120.249 126.677 115.987 126.677 108.682V108.651C126.677 101.378 122.605 97.3846 115.712 97.3846H106.427V120.249ZM112.242 115.559V102.075H114.952C118.612 102.075 120.767 104.388 120.767 108.666V108.698C120.767 113.262 118.739 115.559 114.952 115.559H112.242ZM127.089 120.249H133.189L134.616 115.226H142.079L143.505 120.249H149.605L141.904 97.3846H134.79L127.089 120.249ZM138.292 102.36H138.403L140.874 111.043H135.82L138.292 102.36ZM155.056 120.249H160.871V112.39L168.746 97.3846H162.566L158.019 106.892H157.908L153.36 97.3846H147.181L155.056 112.39V120.249ZM178.142 120.661C184.195 120.661 187.776 117.762 187.776 113.198V113.182C187.776 109.522 185.526 107.557 180.678 106.622L178.332 106.179C175.876 105.719 174.799 105.07 174.799 103.834V103.818C174.799 102.503 176.003 101.536 178.142 101.536C180.234 101.536 181.707 102.471 181.882 103.976L181.898 104.151H187.301L187.285 103.818C187.079 99.6664 183.831 96.9727 178.095 96.9727C172.85 96.9727 169.031 99.809 169.031 104.214V104.23C169.031 107.732 171.424 109.966 175.956 110.806L178.301 111.249C180.979 111.772 181.993 112.374 181.993 113.674V113.689C181.993 115.115 180.567 116.098 178.253 116.098C176.019 116.098 174.308 115.131 174.023 113.658L173.991 113.483H168.588L168.604 113.769C168.857 118.142 172.454 120.661 178.142 120.661Z" fill="url(#paint10_linear_1334_3448)" fill-opacity="0.47"/>
<path d="M56.5485 144.064H59.2886V134.122H59.3701L63.3427 144.064H65.2781L69.2405 134.122H69.3322V144.064H72.0723V129.366H68.5173L64.341 139.929H64.2798L60.1035 129.366H56.5485V144.064ZM81.1482 144.319C85.5181 144.319 88.2378 141.395 88.2378 136.72V136.7C88.2378 132.034 85.5079 129.111 81.1482 129.111C76.7987 129.111 74.0586 132.024 74.0586 136.7V136.72C74.0586 141.395 76.7783 144.319 81.1482 144.319ZM81.1482 141.711C78.7341 141.711 77.1959 139.796 77.1959 136.72V136.7C77.1959 133.623 78.7442 131.719 81.1482 131.719C83.5623 131.719 85.1004 133.634 85.1004 136.7V136.72C85.1004 139.766 83.5929 141.711 81.1482 141.711ZM90.2241 144.064H93.2901V134.438H93.3513L100.013 144.064H102.682V129.366H99.6158V138.92H99.5547L92.9132 129.366H90.2241V144.064ZM105.137 144.064H114.875V141.528H108.213V137.83H114.498V135.426H108.213V131.902H114.875V129.366H105.137V144.064ZM121.272 144.064H124.348V138.574L129.472 129.366H126.141L122.85 135.64H122.779L119.479 129.366H116.158L121.272 138.574V144.064ZM135.104 144.064H141.613C144.751 144.064 146.696 142.455 146.696 139.878V139.857C146.696 137.932 145.219 136.486 143.172 136.333V136.272C144.792 136.058 146.014 134.683 146.014 133.073V133.053C146.014 130.792 144.272 129.366 141.501 129.366H135.104V144.064ZM140.707 131.647C142.143 131.647 142.989 132.32 142.989 133.491V133.511C142.989 134.785 142.062 135.508 140.33 135.508H138.181V131.647H140.707ZM140.697 137.596C142.581 137.596 143.559 138.319 143.559 139.664V139.684C143.559 141.049 142.591 141.772 140.829 141.772H138.181V137.596H140.697ZM147.511 144.064H150.74L151.851 140.499H157.046L158.156 144.064H161.385L156.261 129.366H152.645L147.511 144.064ZM154.418 132.218H154.479L156.333 138.197H152.564L154.418 132.218ZM168.719 144.319C172.274 144.319 174.851 142.088 175.136 138.961L175.146 138.849H172.152L172.131 138.951C171.734 140.693 170.491 141.711 168.719 141.711C166.366 141.711 164.858 139.796 164.858 136.7V136.689C164.858 133.613 166.366 131.719 168.719 131.719C170.552 131.719 171.754 132.778 172.101 134.398L172.142 134.571H175.136L175.126 134.479C174.841 131.362 172.284 129.111 168.719 129.111C164.431 129.111 161.721 131.963 161.721 136.7V136.71C161.721 141.446 164.42 144.319 168.719 144.319ZM177.051 144.064H180.127V139.562L181.503 137.861L185.71 144.064H189.387L183.744 135.854L189.01 129.366H185.587L180.199 136.088H180.127V129.366H177.051V144.064Z" fill="#FFEF98"/>
</g>
<defs>
<linearGradient id="paint0_linear_1334_3448" x1="0.428711" y1="123.148" x2="246.571" y2="123.148" gradientUnits="userSpaceOnUse">
<stop stop-color="#EEBE47"/>
<stop offset="0.12" stop-color="#F8DB76"/>
<stop offset="0.21" stop-color="#FFEE96"/>
<stop offset="0.45" stop-color="#A2621E"/>
<stop offset="0.67" stop-color="#EEA54C"/>
<stop offset="1" stop-color="#EEBE47"/>
</linearGradient>
<linearGradient id="paint1_linear_1334_3448" x1="37.2545" y1="36.9574" x2="250.94" y2="250.643" gradientUnits="userSpaceOnUse">
<stop stop-color="#EEBE47"/>
<stop offset="0.12" stop-color="#F8DB76"/>
<stop offset="0.21" stop-color="#FFEE96"/>
<stop offset="0.45" stop-color="#A2621E"/>
<stop offset="0.67" stop-color="#EEA54C"/>
<stop offset="1" stop-color="#EEBE47"/>
</linearGradient>
<radialGradient id="paint2_radial_1334_3448" cx="0" cy="0" r="1" gradientUnits="userSpaceOnUse" gradientTransform="translate(123.29 123.016) rotate(-180) scale(108.215)">
<stop offset="0.1" stop-color="#CB1919"/>
<stop offset="0.39" stop-color="#900808"/>
<stop offset="0.56" stop-color="#700000"/>
<stop offset="1" stop-color="#2B0000"/>
</radialGradient>
<linearGradient id="paint3_linear_1334_3448" x1="200.52" y1="200.225" x2="23.5062" y2="23.233" gradientUnits="userSpaceOnUse">
<stop stop-color="#EEBE47"/>
<stop offset="0.12" stop-color="#F8DB76"/>
<stop offset="0.21" stop-color="#FFEE96"/>
<stop offset="0.45" stop-color="#A2621E"/>
<stop offset="0.67" stop-color="#EEA54C"/>
<stop offset="1" stop-color="#EEBE47"/>
</linearGradient>
<linearGradient id="paint4_linear_1334_3448" x1="46.9383" y1="59.5096" x2="197.821" y2="184.985" gradientUnits="userSpaceOnUse">
<stop stop-color="#EEBE47"/>
<stop offset="0.12" stop-color="#F8DB76"/>
<stop offset="0.21" stop-color="#FFEE96"/>
<stop offset="0.45" stop-color="#A2621E"/>
<stop offset="0.67" stop-color="#EEA54C"/>
<stop offset="1" stop-color="#EEBE47"/>
</linearGradient>
<linearGradient id="paint5_linear_1334_3448" x1="181.726" y1="181.428" x2="52.6268" y2="52.3509" gradientUnits="userSpaceOnUse">
<stop stop-color="#EEBE47"/>
<stop offset="0.12" stop-color="#F8DB76"/>
<stop offset="0.21" stop-color="#FFEE96"/>
<stop offset="0.45" stop-color="#A2621E"/>
<stop offset="0.67" stop-color="#EEA54C"/>
<stop offset="1" stop-color="#EEBE47"/>
</linearGradient>
<radialGradient id="paint6_radial_1334_3448" cx="0" cy="0" r="1" gradientUnits="userSpaceOnUse" gradientTransform="translate(46.0591 -18.9729) scale(219.681 219.681)">
<stop offset="0.1" stop-color="#CB1919"/>
<stop offset="0.39" stop-color="#900808"/>
<stop offset="0.56" stop-color="#700000"/>
<stop offset="1" stop-color="#2B0000"/>
</radialGradient>
<radialGradient id="paint7_radial_1334_3448" cx="0" cy="0" r="1" gradientUnits="userSpaceOnUse" gradientTransform="translate(164.617 -10.7598) scale(205.166 205.166)">
<stop stop-color="#FFC94C"/>
<stop offset="0.14" stop-color="#A2621E"/>
<stop offset="0.16" stop-color="#955A1B"/>
<stop offset="0.25" stop-color="#6E4214"/>
<stop offset="0.34" stop-color="#4C2E0E"/>
<stop offset="0.44" stop-color="#301D08"/>
<stop offset="0.55" stop-color="#1A1004"/>
<stop offset="0.66" stop-color="#0B0702"/>
<stop offset="0.8" stop-color="#020100"/>
<stop offset="1"/>
</radialGradient>
<radialGradient id="paint8_radial_1334_3448" cx="0" cy="0" r="1" gradientUnits="userSpaceOnUse" gradientTransform="translate(127.507 238.785) scale(321.55 321.55)">
<stop offset="0.1" stop-color="#CB1919"/>
<stop offset="0.39" stop-color="#900808"/>
<stop offset="0.56" stop-color="#700000"/>
<stop offset="1" stop-color="#2B0000"/>
</radialGradient>
<radialGradient id="paint9_radial_1334_3448" cx="0" cy="0" r="1" gradientUnits="userSpaceOnUse" gradientTransform="translate(63.3861 28.1736) scale(198.007 198.007)">
<stop stop-color="#FFF1D1"/>
<stop offset="0.05" stop-color="#FFC94C"/>
<stop offset="0.14" stop-color="#A2621E"/>
<stop offset="0.17" stop-color="#91571A"/>
<stop offset="0.25" stop-color="#6A4013"/>
<stop offset="0.34" stop-color="#492C0D"/>
<stop offset="0.43" stop-color="#2E1C08"/>
<stop offset="0.54" stop-color="#190F04"/>
<stop offset="0.65" stop-color="#0B0602"/>
<stop offset="0.79" stop-color="#020100"/>
<stop offset="1"/>
</radialGradient>
<linearGradient id="paint10_linear_1334_3448" x1="55.3262" y1="109.249" x2="189.326" y2="109.249" gradientUnits="userSpaceOnUse">
<stop stop-color="#FC9100"/>
<stop offset="1" stop-color="#FFCE00"/>
</linearGradient>
<clipPath id="clip0_1334_3448">
<rect width="246.142" height="246.296" fill="white" transform="translate(0.428711)"/>
</clipPath>
</defs>
</svg>
