<svg width="29" height="29" viewBox="0 0 29 29" fill="none" xmlns="http://www.w3.org/2000/svg">
<path fill-rule="evenodd" clip-rule="evenodd" d="M14.8561 17.4153C13.2466 17.4899 11.6436 17.1659 10.1894 16.4721L10.4837 16.0054C11.8566 16.6172 13.3552 16.8944 14.8561 16.8143C14.8561 16.8653 14.9183 15.8604 15.0085 15.3129H12.8911C13.0603 13.2421 13.7062 11.2386 14.7783 9.45898H8.43164V19.1196H15.0994C14.9832 18.5571 14.902 17.9879 14.8561 17.4153Z" fill="#C6E9FA"/>
<path fill-rule="evenodd" clip-rule="evenodd" d="M15.4959 16.7804C16.4741 16.7194 17.4268 16.4432 18.2859 15.9715L18.6512 16.4381C17.6768 16.9696 16.602 17.2911 15.4959 17.382C15.5264 17.9708 15.6184 18.5547 15.7703 19.1243H20.3355V9.4624H15.476C14.4637 11.0336 13.8314 12.8191 13.6292 14.6772H15.8107C15.6283 15.3634 15.5227 16.0678 15.4959 16.7772V16.7804ZM11.3164 10.9234H11.9355V12.3539H11.3164V10.9234Z" fill="#00ADEE"/>
<path fill-rule="evenodd" clip-rule="evenodd" d="M16.4707 10.9277H17.0892V12.3582H16.4707V10.9277Z" fill="#231F20"/>
<path fill-rule="evenodd" clip-rule="evenodd" d="M15.4946 16.7849C16.4728 16.7239 17.4255 16.4477 18.2847 15.976L18.6499 16.4427C17.6756 16.9742 16.6007 17.2957 15.4946 17.3866C15.5432 18.4902 15.8306 19.5701 16.3371 20.5519L15.8095 20.8294C14.8456 19.308 14.6733 17.2584 15.008 15.3208H12.8906C13.1103 12.5396 14.1947 9.89675 15.9918 7.7627L16.4485 8.15843C14.8649 9.99428 13.8807 12.2706 13.628 14.6818H15.8095C15.6271 15.368 15.5215 16.0723 15.4946 16.7818V16.7849Z" fill="#231F20"/>
<path fill-rule="evenodd" clip-rule="evenodd" d="M14.8571 16.8275V17.4261C13.2476 17.5007 11.6446 17.1766 10.1904 16.4828L10.4847 16.0161C11.8577 16.6279 13.3562 16.9051 14.8571 16.825V16.8275Z" fill="#00ADEE"/>
</svg>
