<svg width="52" height="51" viewBox="0 0 52 51" fill="none" xmlns="http://www.w3.org/2000/svg">
<path d="M6.875 25.5H14.8438L18.0312 20.7188L24.4062 30.2812L27.5938 25.5H32.375" stroke="black" stroke-width="2.5" stroke-linecap="round" stroke-linejoin="round"/>
<path d="M6.09805 19.125C6.07813 18.866 6.07812 18.5871 6.07812 18.3281C6.07813 15.9333 6.90786 13.6124 8.42616 11.7604C9.94446 9.90839 12.0575 8.6396 14.4059 8.16994C16.7542 7.70027 19.1927 8.05873 21.3065 9.18434C23.4204 10.3099 25.0789 12.1331 26 14.3438V14.3438C26.9211 12.1331 28.5796 10.3099 30.6935 9.18434C32.8073 8.05873 35.2458 7.70027 37.5941 8.16994C39.9425 8.6396 42.0555 9.90839 43.5738 11.7604C45.0921 13.6124 45.9219 15.9333 45.9219 18.3281C45.9219 31.875 26 43.0313 26 43.0313C26 43.0313 18.0512 38.5688 12.1941 31.875" stroke="#F84259" stroke-width="2.5" stroke-linecap="round" stroke-linejoin="round"/>
</svg>
