<svg width="52" height="51" viewBox="0 0 52 51" fill="none" xmlns="http://www.w3.org/2000/svg">
<path d="M8.46875 22.8504V11.1563C8.46875 10.7336 8.63666 10.3282 8.93555 10.0293C9.23443 9.73041 9.63981 9.5625 10.0625 9.5625H41.9375C42.3602 9.5625 42.7656 9.73041 43.0645 10.0293C43.3633 10.3282 43.5312 10.7336 43.5312 11.1563V22.8504C43.5312 39.5848 29.327 45.1231 26.498 46.0594C26.1767 46.1784 25.8233 46.1784 25.502 46.0594C22.673 45.1231 8.46875 39.5848 8.46875 22.8504Z" stroke="#F84259" stroke-width="2.5" stroke-linecap="round" stroke-linejoin="round"/>
<path d="M26 19.125V27.0938" stroke="black" stroke-width="2.5" stroke-linecap="round" stroke-linejoin="round"/>
<path d="M26 36.6562C27.3203 36.6562 28.3906 35.5859 28.3906 34.2656C28.3906 32.9453 27.3203 31.875 26 31.875C24.6797 31.875 23.6094 32.9453 23.6094 34.2656C23.6094 35.5859 24.6797 36.6562 26 36.6562Z" fill="black"/>
</svg>
