<svg width="52" height="51" viewBox="0 0 52 51" fill="none" xmlns="http://www.w3.org/2000/svg">
<path d="M8.46875 12.75V38.25C8.46875 39.0954 8.80457 39.9061 9.40235 40.5039C10.0001 41.1017 10.8109 41.4375 11.6562 41.4375H43.5312C43.9539 41.4375 44.3593 41.2696 44.6582 40.9707C44.9571 40.6718 45.125 40.2664 45.125 39.8438V17.5312C45.125 17.1086 44.9571 16.7032 44.6582 16.4043C44.3593 16.1054 43.9539 15.9375 43.5312 15.9375H11.6562C10.8109 15.9375 10.0001 15.6017 9.40235 15.0039C8.80457 14.4061 8.46875 13.5954 8.46875 12.75ZM8.46875 12.75C8.46875 11.9046 8.80457 11.0939 9.40235 10.4961C10.0001 9.89832 10.8109 9.5625 11.6562 9.5625H38.75" stroke="#F84259" stroke-width="2.5" stroke-linecap="round" stroke-linejoin="round"/>
<path d="M36.3594 31.0781C37.6797 31.0781 38.75 30.0078 38.75 28.6875C38.75 27.3672 37.6797 26.2969 36.3594 26.2969C35.0391 26.2969 33.9688 27.3672 33.9688 28.6875C33.9688 30.0078 35.0391 31.0781 36.3594 31.0781Z" fill="black"/>
</svg>
