<svg width="33" height="33" viewBox="0 0 33 33" fill="none" xmlns="http://www.w3.org/2000/svg">
<path d="M23.5 23.2954H9.225L5.7375 4.12041C5.6967 3.89078 5.57691 3.68263 5.39887 3.53198C5.22082 3.38133 4.99572 3.29764 4.7625 3.29541H2.5" stroke="#268334" stroke-width="2" stroke-linecap="round" stroke-linejoin="round"/>
<path d="M10.5 28.2954C11.8807 28.2954 13 27.1761 13 25.7954C13 24.4147 11.8807 23.2954 10.5 23.2954C9.11929 23.2954 8 24.4147 8 25.7954C8 27.1761 9.11929 28.2954 10.5 28.2954Z" stroke="#268334" stroke-width="2" stroke-linecap="round" stroke-linejoin="round"/>
<path d="M23.5 28.2954C24.8807 28.2954 26 27.1761 26 25.7954C26 24.4147 24.8807 23.2954 23.5 23.2954C22.1193 23.2954 21 24.4147 21 25.7954C21 27.1761 22.1193 28.2954 23.5 28.2954Z" stroke="#268334" stroke-width="2" stroke-linecap="round" stroke-linejoin="round"/>
<path d="M8.3125 18.2954H24.0125C24.48 18.2968 24.933 18.1334 25.2919 17.834C25.6508 17.5345 25.8927 17.1181 25.975 16.6579L27.5 8.29541H6.5" stroke="#268334" stroke-width="2" stroke-linecap="round" stroke-linejoin="round"/>
</svg>
