<svg width="50" height="50" viewBox="0 0 50 50" fill="none" xmlns="http://www.w3.org/2000/svg">
<rect width="50" height="50" rx="4" fill="#F4F5F7"/>
<path d="M25 8C34.35 8 42 15.65 42 25C42 34.35 34.35 42 25 42C15.65 42 8 34.35 8 25C8 15.65 15.65 8 25 8ZM29.964 26.377C28.128 26.377 26.615 27.652 26.207 29.352C25.289 28.961 24.422 29.063 23.793 29.335C23.385 27.635 21.855 26.377 20.036 26.377C17.911 26.377 16.194 28.094 16.194 30.219C16.194 32.344 17.911 34.061 20.036 34.061C22.076 34.061 23.708 32.514 23.861 30.525C24.201 30.304 25.068 29.862 26.139 30.542C26.2107 31.5377 26.6674 32.4663 27.4124 33.1309C28.1573 33.7954 29.1319 34.1436 30.1293 34.1016C31.1267 34.0596 32.0685 33.6306 32.7549 32.9058C33.4413 32.1809 33.8183 31.2172 33.806 30.219C33.806 28.094 32.089 26.377 29.964 26.377ZM20.036 27.465C21.6 27.465 22.79 28.706 22.79 30.219C22.79 31.732 21.6 32.973 20.036 32.973C18.523 32.973 17.282 31.732 17.282 30.219C17.282 28.706 18.523 27.465 20.036 27.465ZM29.964 27.465C31.477 27.465 32.718 28.706 32.718 30.219C32.718 31.732 31.477 32.973 29.964 32.973C28.4 32.973 27.21 31.732 27.21 30.219C27.21 28.706 28.4 27.465 29.964 27.465ZM34.911 24.15H15.089V25.289H34.911V24.15ZM28.655 16.313C28.5392 16.065 28.3382 15.8668 28.0886 15.7545C27.839 15.6421 27.5574 15.6232 27.295 15.701L25 16.5L22.705 15.701L22.637 15.65C22.3695 15.5925 22.0902 15.633 21.85 15.764C21.6097 15.895 21.4245 16.1079 21.328 16.364L18.812 23.011H31.188L28.672 16.364L28.655 16.313Z" fill="#268334"/>
</svg>
