<svg width="50" height="50" viewBox="0 0 50 50" fill="none" xmlns="http://www.w3.org/2000/svg">
<rect width="50" height="50" rx="4" fill="#F4F5F7"/>
<path d="M34.5127 22.8332C30.5426 22.8332 27.3125 19.6034 27.3125 15.633C27.3125 11.6626 30.5426 8.43286 34.5127 8.43286C38.4828 8.43286 41.7128 11.6626 41.7128 15.633C41.7128 19.6034 38.4828 22.8332 34.5127 22.8332Z" fill="#268334"/>
<path d="M37.372 15.4515H34.8847V12.9642C34.8847 12.8116 34.761 12.6879 34.6084 12.6879C34.4557 12.6879 34.332 12.8116 34.332 12.9642V15.4515H31.8447C31.6921 15.4515 31.5684 15.5752 31.5684 15.7279C31.5684 15.8805 31.6921 16.0042 31.8447 16.0042H34.332V18.4915C34.332 18.6441 34.4557 18.7679 34.6084 18.7679C34.761 18.7679 34.8847 18.6441 34.8847 18.4915V16.0042H37.372C37.5246 16.0042 37.6483 15.8805 37.6483 15.7279C37.6483 15.5752 37.5246 15.4515 37.372 15.4515Z" fill="white" stroke="white" stroke-width="0.653857"/>
<path d="M8.27987 41.3507C8.14252 41.2137 8.06496 41.0278 8.06413 40.8338L8.00002 28.0878C7.99875 27.8915 8.07598 27.7027 8.21455 27.5635C8.35312 27.4244 8.54155 27.3464 8.73793 27.3468L22.35 27.3577C22.7565 27.3584 23.0858 27.6881 23.0858 28.0946V40.6014C23.0862 41.0036 22.7636 41.3317 22.3614 41.3382L8.81349 41.5666C8.64936 41.5693 8.48999 41.5172 8.35992 41.4201L8.27987 41.3507Z" fill="white" stroke="#DADEE3" stroke-width="1.30771"/>
<path d="M8.27987 23.1104C8.14252 22.9734 8.06496 22.7875 8.06413 22.5935L8.00002 9.84754C7.99875 9.65116 8.07598 9.4624 8.21455 9.32325C8.35312 9.18409 8.54155 9.10606 8.73793 9.10651L22.35 9.11745C22.7565 9.11809 23.0858 9.44779 23.0858 9.85431V22.3611C23.0862 22.7633 22.7636 23.0914 22.3614 23.0979L8.81349 23.3263C8.64936 23.329 8.48999 23.2769 8.35992 23.1798L8.27987 23.1104Z" fill="white" stroke="#DADEE3" stroke-width="1.30771"/>
<path d="M27.1939 41.3507C27.0566 41.2137 26.979 41.0278 26.9782 40.8338L26.9141 28.0878C26.9128 27.8915 26.99 27.7027 27.1286 27.5635C27.2672 27.4244 27.4556 27.3464 27.652 27.3468L41.264 27.3577C41.6706 27.3584 41.9999 27.6881 41.9999 28.0946V40.6014C42.0002 41.0036 41.6777 41.3317 41.2755 41.3382L27.7276 41.5666C27.5634 41.5693 27.404 41.5172 27.274 41.4201L27.1939 41.3507Z" fill="white" stroke="#DADEE3" stroke-width="1.30771"/>
<path d="M31.3066 30.3846H37.3866" stroke="#DADEE3" stroke-width="1.17694" stroke-linecap="round"/>
<path d="M13.0684 12.1494H19.1483" stroke="#DADEE3" stroke-width="1.17694" stroke-linecap="round"/>
<path d="M12.3906 30.3846H18.4706" stroke="#DADEE3" stroke-width="1.17694" stroke-linecap="round"/>
</svg>
