<svg width="50" height="50" viewBox="0 0 50 50" fill="none" xmlns="http://www.w3.org/2000/svg">
<rect width="50" height="50" rx="4" fill="#F4F5F7"/>
<path d="M9.02344 11.5994H38.8076V32.6965C38.8076 33.0256 38.6769 33.3413 38.4441 33.574C38.2114 33.8068 37.8957 33.9375 37.5666 33.9375H10.2644C9.93531 33.9375 9.61965 33.8068 9.38692 33.574C9.15419 33.3413 9.02344 33.0256 9.02344 32.6965V11.5994Z" fill="#268334"/>
<path fill-rule="evenodd" clip-rule="evenodd" d="M9.15683 11.769C9.37949 11.5261 9.7569 11.5097 9.9998 11.7323L23.916 24.4888L37.8321 11.7323C38.075 11.5097 38.4524 11.5261 38.6751 11.769C38.8978 12.0119 38.8813 12.3893 38.6384 12.612L24.3191 25.738C24.091 25.9471 23.7409 25.9471 23.5128 25.738L9.19348 12.612C8.95058 12.3893 8.93417 12.0119 9.15683 11.769Z" fill="white"/>
<path fill-rule="evenodd" clip-rule="evenodd" d="M21.3725 22.5041C21.5952 22.7417 21.5789 23.1108 21.336 23.3287L9.99991 33.4976C9.75706 33.7155 9.37964 33.6995 9.15692 33.462C8.9342 33.2245 8.95052 32.8553 9.19337 32.6374L20.5295 22.4685C20.7723 22.2506 21.1498 22.2666 21.3725 22.5041Z" fill="white"/>
<path fill-rule="evenodd" clip-rule="evenodd" d="M26.4597 22.5141C26.6824 22.2641 27.0598 22.2473 27.3026 22.4766L38.6388 33.1807C38.8816 33.41 38.8979 33.7986 38.6752 34.0487C38.4525 34.2987 38.0751 34.3155 37.8322 34.0862L26.4961 23.382C26.2533 23.1527 26.2369 22.7641 26.4597 22.5141Z" fill="white"/>
<path d="M24.8814 36.1862L24.8809 36.1871C24.6979 36.504 24.6015 36.8634 24.6011 37.2294C24.6008 37.5953 24.6967 37.9549 24.8791 38.2721C25.0615 38.5894 25.324 38.8531 25.6405 39.0369C25.9569 39.2207 26.3161 39.3181 26.682 39.3194H26.6852L39.8112 39.3194L39.8144 39.3194C40.1803 39.3181 40.5395 39.2207 40.8559 39.0369C41.1723 38.8531 41.4349 38.5894 41.6173 38.2721C41.7997 37.9549 41.8956 37.5953 41.8952 37.2294C41.8949 36.8634 41.7984 36.504 41.6155 36.1871L41.6149 36.1862L35.0541 24.8539C35.0537 24.8531 35.0533 24.8524 35.0528 24.8516C34.8708 24.5345 34.6084 24.2709 34.292 24.0874L33.8817 24.7949L34.292 24.0874C33.9749 23.9035 33.6148 23.8066 33.2482 23.8066C32.8816 23.8066 32.5215 23.9035 32.2044 24.0874L32.6533 24.8616L32.2044 24.0874C31.888 24.2709 31.6256 24.5345 31.4435 24.8516C31.4431 24.8524 31.4427 24.8531 31.4422 24.8539L24.8814 36.1862Z" fill="#FA9F34" stroke="#F4F5F7" stroke-width="1.78992" stroke-linecap="round" stroke-linejoin="round"/>
<path d="M33.248 30.0714V33.0545" stroke="#072245" stroke-width="1.01429" stroke-linecap="round" stroke-linejoin="round"/>
<path d="M33.2485 36.6344C33.7427 36.6344 34.1434 36.2337 34.1434 35.7394C34.1434 35.2452 33.7427 34.8445 33.2485 34.8445C32.7542 34.8445 32.3535 35.2452 32.3535 35.7394C32.3535 36.2337 32.7542 36.6344 33.2485 36.6344Z" fill="#072245"/>
</svg>
