<svg width="50" height="50" viewBox="0 0 50 50" fill="none" xmlns="http://www.w3.org/2000/svg">
<rect width="50" height="50" rx="4" fill="#F4F5F7"/>
<path d="M25 42C34.3888 42 42 34.3888 42 25C42 15.6112 34.3888 8 25 8C15.6112 8 8 15.6112 8 25C8 34.3888 15.6112 42 25 42Z" fill="#268334" stroke="white" stroke-width="1.96154" stroke-miterlimit="10"/>
<path d="M8.97461 19.3331H41.0267" stroke="white" stroke-width="1.96154" stroke-linecap="round" stroke-linejoin="round"/>
<path d="M8.97461 30.6669H41.0267" stroke="white" stroke-width="1.96154" stroke-linecap="round" stroke-linejoin="round"/>
<path d="M24.9993 41.544C28.9114 41.544 32.0827 34.139 32.0827 25.0044C32.0827 15.8699 28.9114 8.46484 24.9993 8.46484C21.0873 8.46484 17.916 15.8699 17.916 25.0044C17.916 34.139 21.0873 41.544 24.9993 41.544Z" stroke="white" stroke-width="1.96154" stroke-miterlimit="10"/>
</svg>
