<svg width="50" height="50" viewBox="0 0 50 50" fill="none" xmlns="http://www.w3.org/2000/svg">
<rect width="50" height="50" rx="4" fill="#F4F5F7"/>
<path d="M24.9993 32.0835C28.9114 32.0835 32.0827 28.9122 32.0827 25.0002C32.0827 21.0882 28.9114 17.9169 24.9993 17.9169C21.0873 17.9169 17.916 21.0882 17.916 25.0002C17.916 28.9122 21.0873 32.0835 24.9993 32.0835Z" stroke="#268334" stroke-width="2.94231" stroke-linecap="round" stroke-linejoin="round"/>
<path d="M34.4031 39.1627C31.2477 41.2577 27.483 42.2389 23.7063 41.9507C19.9297 41.6625 16.3575 40.1213 13.5565 37.5716C10.7556 35.022 8.88626 31.61 8.24525 27.8771C7.60424 24.1441 8.22823 20.304 10.0182 16.966C11.8082 13.628 14.6616 10.9835 18.1258 9.45187C21.5899 7.92028 25.4663 7.58942 29.1399 8.51179C32.8135 9.43415 36.0738 11.5569 38.4036 14.5432C40.7334 17.5296 41.9991 21.2084 42 24.996C42 28.9095 40.5833 32.0793 37.0417 32.0793C33.5 32.0793 32.0833 28.9095 32.0833 24.996V17.9127" stroke="#268334" stroke-width="2.94231" stroke-linecap="round" stroke-linejoin="round"/>
</svg>
