<svg width="560" height="394" viewBox="0 0 560 394" fill="none" xmlns="http://www.w3.org/2000/svg">
<g clip-path="url(#clip0_2557_124716)">
<path d="M119.245 140.777C121.703 143.337 124.331 145.748 127.121 147.967L167.983 177.839L208.845 147.967C229.677 131.366 241.639 104.387 238.393 79.9946L229.298 23.3577L167.983 9.83643L106.669 23.3577L97.5738 79.9946C94.758 101.124 103.359 124.188 119.245 140.777Z" fill="white"/>
<path d="M107.039 23.7112L97.9907 80.0627C95.2601 100.587 103.52 123.745 119.555 140.483C122.009 143.043 124.641 145.45 127.385 147.639L167.983 177.31L208.594 147.627C229.336 131.089 241.149 103.927 237.971 80.05L228.922 23.7112L167.983 10.2709L107.039 23.7112ZM167.983 178.265C167.893 178.265 167.804 178.235 167.731 178.179L126.865 148.312C124.083 146.093 121.421 143.661 118.937 141.07C102.732 124.154 94.3825 100.728 97.1473 79.9392L106.247 23.2938C106.272 23.1191 106.404 22.9828 106.575 22.9444L167.889 9.41889C167.949 9.40611 168.013 9.40611 168.072 9.41889L229.387 22.9444C229.557 22.9828 229.689 23.1191 229.715 23.2938L238.81 79.9264C240.412 91.9354 238.414 104.779 233.033 117.074C227.7 129.283 219.427 140.078 209.109 148.304L168.234 178.179C168.157 178.235 168.068 178.265 167.983 178.265Z" fill="black"/>
<path d="M167.981 21.6238L116.256 33.0322L108.584 80.8083C105.845 101.388 115.937 124.145 133.509 138.148L167.981 163.346V21.6238Z" fill="#4ADA85"/>
<path d="M167.982 163.346L202.45 138.148C220.023 124.145 230.115 101.388 227.376 80.8083L219.703 33.0322L167.982 21.6238V163.346Z" fill="#1EC15F"/>
<path d="M180.274 59.1973C180.274 55.8915 177.578 53.1992 174.263 53.1992H159.562C156.248 53.1992 153.551 55.8915 153.551 59.1973V88.7831H180.274V59.1973ZM144.963 93.0687V59.1973C144.963 51.1671 151.511 44.6365 159.562 44.6365H174.263C182.31 44.6365 188.858 51.1671 188.858 59.1973V93.0687C188.858 95.433 186.937 97.3457 184.568 97.3457H149.257C146.884 97.3457 144.963 95.433 144.963 93.0687Z" fill="#FED101"/>
<path d="M153.979 88.3613H179.85V59.1972C179.85 56.1257 177.345 53.6294 174.265 53.6294H159.564C156.484 53.6294 153.979 56.1257 153.979 59.1972V88.3613ZM180.276 89.209H153.553C153.319 89.209 153.127 89.0173 153.127 88.783V59.1972C153.127 55.6571 156.016 52.7774 159.564 52.7774H174.265C177.814 52.7774 180.702 55.6571 180.702 59.1972V88.783C180.702 89.0173 180.511 89.209 180.276 89.209ZM159.564 45.0625C151.747 45.0625 145.391 51.4056 145.391 59.1972V93.0686C145.391 95.1901 147.125 96.9239 149.259 96.9239H184.57C186.7 96.9239 188.434 95.1901 188.434 93.0686V59.1972C188.434 51.4056 182.078 45.0625 174.265 45.0625H159.564ZM184.57 97.7717H149.259C146.656 97.7717 144.539 95.6629 144.539 93.0686V59.1972C144.539 50.937 151.278 44.2147 159.564 44.2147H174.265C182.547 44.2147 189.286 50.937 189.286 59.1972V93.0686C189.286 95.6629 187.169 97.7717 184.57 97.7717Z" fill="black"/>
<path d="M200.443 80.804C200.469 81.4728 200.486 82.1501 200.486 82.8317C200.486 106.253 185.346 125.244 166.666 125.244C147.99 125.244 132.85 106.253 132.85 82.8317C132.85 82.1501 132.862 81.4728 132.892 80.804H200.443Z" fill="#FED101"/>
<path d="M133.299 81.2257C133.282 81.7923 133.274 82.3205 133.274 82.8275C133.274 105.981 148.252 124.814 166.668 124.814C185.08 124.814 200.058 105.981 200.058 82.8275C200.058 82.3205 200.05 81.7923 200.033 81.2257H133.299ZM166.668 125.666C147.783 125.666 132.422 106.449 132.422 82.8275C132.422 82.1885 132.435 81.5197 132.464 80.7827C132.473 80.5569 132.66 80.3737 132.89 80.3737H200.446C200.672 80.3737 200.859 80.5569 200.872 80.7827C200.897 81.5197 200.91 82.1885 200.91 82.8275C200.91 106.449 185.549 125.666 166.668 125.666Z" fill="black"/>
<path d="M159.982 111.088L163.369 97.2433C161.648 96.1911 160.494 94.3039 160.494 92.144C160.494 88.8425 163.177 86.1672 166.487 86.1672C169.797 86.1672 172.481 88.8425 172.481 92.144C172.481 94.3039 171.327 96.1911 169.606 97.2433L172.997 111.088H159.982Z" fill="black"/>
<mask id="mask0_2557_124716" style="mask-type:luminance" maskUnits="userSpaceOnUse" x="190" y="190" width="257" height="145">
<path d="M190.953 190.576H446.763V334.53H190.953V190.576Z" fill="white"/>
</mask>
<g mask="url(#mask0_2557_124716)">
<path d="M405.234 333.585H191.564L232.618 191.045H446.284L405.234 333.585Z" fill="white"/>
<path d="M192.132 333.159H404.915L445.718 191.475H232.938L192.132 333.159ZM405.235 334.011H191.565C191.433 334.011 191.305 333.947 191.224 333.84C191.143 333.734 191.122 333.598 191.156 333.47L232.206 190.93C232.261 190.751 232.427 190.623 232.619 190.623H446.28C446.416 190.623 446.544 190.687 446.621 190.793C446.702 190.9 446.727 191.04 446.693 191.164L405.64 333.704C405.588 333.887 405.422 334.011 405.235 334.011Z" fill="black"/>
</g>
<path d="M398.399 333.206H198.076L232.621 213.265H432.939L398.399 333.206Z" fill="#FED101"/>
<path d="M93.082 333.585H398.461C397.29 345.027 387.632 353.735 376.1 353.735H115.443C103.911 353.735 94.2493 345.027 93.082 333.585Z" fill="white"/>
<mask id="mask1_2557_124716" style="mask-type:luminance" maskUnits="userSpaceOnUse" x="92" y="332" width="308" height="23">
<path d="M92.6055 332.349H399.254V354.161H92.6055V332.349Z" fill="white"/>
</mask>
<g mask="url(#mask1_2557_124716)">
<path d="M93.5595 334.011C94.9184 345.044 104.244 353.309 115.443 353.309H376.097C387.3 353.309 396.626 345.044 397.98 334.011H93.5595ZM376.097 354.161H115.443C103.647 354.161 93.8534 345.334 92.6606 333.627C92.6478 333.508 92.6862 333.389 92.7671 333.299C92.8481 333.21 92.9631 333.159 93.0824 333.159H398.462C398.581 333.159 398.696 333.21 398.773 333.299C398.854 333.389 398.892 333.508 398.883 333.627C397.691 345.334 387.893 354.161 376.097 354.161Z" fill="black"/>
</g>
<path d="M330.384 202.683C330.384 205.09 328.428 207.041 326.013 207.041C323.602 207.041 321.646 205.09 321.646 202.683C321.646 200.276 323.602 198.325 326.013 198.325C328.428 198.325 330.384 200.276 330.384 202.683Z" fill="white"/>
<path d="M326.017 198.751C323.845 198.751 322.077 200.515 322.077 202.683C322.077 204.851 323.845 206.615 326.017 206.615C328.194 206.615 329.962 204.851 329.962 202.683C329.962 200.515 328.194 198.751 326.017 198.751ZM326.017 207.467C323.376 207.467 321.225 205.32 321.225 202.683C321.225 200.046 323.376 197.899 326.017 197.899C328.663 197.899 330.814 200.046 330.814 202.683C330.814 205.32 328.663 207.467 326.017 207.467Z" fill="black"/>
<path d="M367.501 333.585H349.754L350.857 329.474H366.402L367.501 333.585Z" fill="white"/>
<path d="M350.311 333.159H366.946L366.073 329.896H351.184L350.311 333.159ZM367.505 334.011H349.757C349.625 334.011 349.497 333.947 349.416 333.845C349.34 333.738 349.31 333.602 349.344 333.474L350.447 329.363C350.494 329.176 350.665 329.048 350.856 329.048H366.405C366.593 329.048 366.763 329.176 366.814 329.363L367.913 333.474C367.948 333.602 367.922 333.738 367.841 333.845C367.76 333.947 367.637 334.011 367.505 334.011Z" fill="black"/>
<path d="M349.027 333.585H331.279L332.378 329.474H347.927L349.027 333.585Z" fill="white"/>
<path d="M331.836 333.159H348.476L347.603 329.896H332.71L331.836 333.159ZM349.03 334.011H331.287C331.151 334.011 331.027 333.947 330.946 333.845C330.865 333.738 330.84 333.602 330.869 333.474L331.973 329.363C332.02 329.176 332.19 329.048 332.386 329.048H347.931C348.123 329.048 348.293 329.176 348.344 329.363L349.439 333.474C349.477 333.602 349.447 333.738 349.366 333.845C349.286 333.947 349.162 334.011 349.03 334.011Z" fill="black"/>
<path d="M330.558 333.585H312.811L313.91 329.474H329.459L330.558 333.585Z" fill="white"/>
<path d="M313.364 333.159H329.999L329.13 329.896H314.237L313.364 333.159ZM330.557 334.011H312.81C312.678 334.011 312.554 333.947 312.473 333.845C312.392 333.738 312.363 333.602 312.397 333.474L313.5 329.363C313.547 329.176 313.717 329.048 313.909 329.048H329.458C329.65 329.048 329.816 329.176 329.867 329.363L330.97 333.474C331 333.602 330.975 333.738 330.894 333.845C330.813 333.947 330.689 334.011 330.557 334.011Z" fill="black"/>
<path d="M312.083 333.585H294.336L295.435 329.474H310.98L312.083 333.585Z" fill="white"/>
<path d="M294.892 333.159H311.527L310.658 329.896H295.765L294.892 333.159ZM312.085 334.011H294.338C294.202 334.011 294.078 333.947 293.997 333.845C293.916 333.738 293.891 333.602 293.925 333.474L295.028 329.363C295.075 329.176 295.245 329.048 295.437 329.048H310.982C311.178 329.048 311.344 329.176 311.395 329.363L312.494 333.474C312.528 333.602 312.503 333.738 312.422 333.845C312.341 333.947 312.217 334.011 312.085 334.011Z" fill="black"/>
<path d="M293.612 333.585H275.865L276.969 329.474H292.513L293.612 333.585Z" fill="white"/>
<path d="M276.417 333.159H293.057L292.183 329.896H277.29L276.417 333.159ZM293.61 334.011H275.863C275.731 334.011 275.608 333.947 275.527 333.845C275.446 333.738 275.42 333.602 275.454 333.474L276.553 329.363C276.604 329.176 276.771 329.048 276.966 329.048H292.511C292.703 329.048 292.873 329.176 292.92 329.363L294.024 333.474C294.058 333.602 294.032 333.738 293.951 333.845C293.866 333.947 293.742 334.011 293.61 334.011Z" fill="black"/>
<path d="M275.138 333.585H257.391L258.49 329.474H274.039L275.138 333.585Z" fill="white"/>
<path d="M257.946 333.159H274.585L273.712 329.896H258.819L257.946 333.159ZM275.139 334.011H257.392C257.26 334.011 257.136 333.947 257.056 333.845C256.975 333.738 256.949 333.602 256.979 333.474L258.082 329.363C258.133 329.176 258.299 329.048 258.491 329.048H274.04C274.232 329.048 274.398 329.176 274.449 329.363L275.548 333.474C275.587 333.602 275.557 333.738 275.476 333.845C275.395 333.947 275.271 334.011 275.139 334.011Z" fill="black"/>
<path d="M256.665 333.585H238.922L240.021 329.474H255.566L256.665 333.585Z" fill="white"/>
<path d="M239.474 333.159H256.109L255.24 329.896H240.343L239.474 333.159ZM256.663 334.011H238.92C238.788 334.011 238.66 333.947 238.583 333.845C238.498 333.738 238.473 333.602 238.507 333.474L239.606 329.363C239.657 329.176 239.827 329.048 240.019 329.048H255.564C255.76 329.048 255.926 329.176 255.977 329.363L257.076 333.474C257.11 333.602 257.085 333.738 257.004 333.845C256.923 333.947 256.799 334.011 256.663 334.011Z" fill="black"/>
<path d="M238.191 333.585H220.443L221.542 329.474H237.092L238.191 333.585Z" fill="white"/>
<path d="M221.001 333.159H237.637L236.763 329.896H221.87L221.001 333.159ZM238.19 334.011H220.443C220.311 334.011 220.188 333.947 220.107 333.845C220.026 333.738 220 333.602 220.034 333.474L221.133 329.363C221.184 329.176 221.351 329.048 221.542 329.048H237.091C237.283 329.048 237.453 329.176 237.5 329.363L238.604 333.474C238.638 333.602 238.608 333.738 238.531 333.845C238.45 333.947 238.322 334.011 238.19 334.011Z" fill="black"/>
<path d="M219.722 333.585H201.975L203.074 329.474H218.623L219.722 333.585Z" fill="white"/>
<path d="M202.526 333.159H219.165L218.292 329.896H203.399L202.526 333.159ZM219.719 334.011H201.972C201.84 334.011 201.716 333.947 201.635 333.845C201.555 333.738 201.525 333.602 201.559 333.474L202.662 329.363C202.713 329.176 202.879 329.048 203.071 329.048H218.62C218.812 329.048 218.982 329.176 219.029 329.363L220.128 333.474C220.162 333.602 220.137 333.738 220.056 333.845C219.975 333.947 219.851 334.011 219.719 334.011Z" fill="black"/>
<path d="M201.251 333.585H183.504L184.603 329.474H200.148L201.251 333.585Z" fill="white"/>
<path d="M184.056 333.159H200.691L199.818 329.896H184.929L184.056 333.159ZM201.249 334.011H183.502C183.37 334.011 183.242 333.947 183.161 333.845C183.08 333.738 183.055 333.602 183.089 333.474L184.188 329.363C184.239 329.176 184.41 329.048 184.601 329.048H200.146C200.338 329.048 200.508 329.176 200.559 329.363L201.658 333.474C201.692 333.602 201.667 333.738 201.586 333.845C201.505 333.947 201.381 334.011 201.249 334.011Z" fill="black"/>
<path d="M182.773 333.585H165.025L166.129 329.474H181.674L182.773 333.585Z" fill="white"/>
<path d="M165.585 333.159H182.221L181.347 329.896H166.459L165.585 333.159ZM182.774 334.011H165.027C164.895 334.011 164.772 333.947 164.691 333.845C164.61 333.738 164.584 333.602 164.618 333.474L165.717 329.363C165.768 329.176 165.935 329.048 166.131 329.048H181.675C181.867 329.048 182.037 329.176 182.084 329.363L183.188 333.474C183.222 333.602 183.192 333.738 183.115 333.845C183.034 333.947 182.906 334.011 182.774 334.011Z" fill="black"/>
<path d="M164.302 333.585H146.555L147.654 329.474H163.203L164.302 333.585Z" fill="white"/>
<path d="M147.108 333.159H163.747L162.874 329.896H147.981L147.108 333.159ZM164.301 334.011H146.554C146.422 334.011 146.298 333.947 146.218 333.845C146.137 333.738 146.107 333.602 146.141 333.474L147.244 329.363C147.291 329.176 147.461 329.048 147.653 329.048H163.202C163.394 329.048 163.564 329.176 163.611 329.363L164.715 333.474C164.744 333.602 164.719 333.738 164.638 333.845C164.557 333.947 164.433 334.011 164.301 334.011Z" fill="black"/>
<path d="M334.682 268.534H257.294C254.687 268.534 252.574 266.426 252.574 263.819C252.574 261.211 254.687 259.099 257.294 259.099H334.682C337.289 259.099 339.402 261.211 339.402 263.819C339.402 266.426 337.289 268.534 334.682 268.534Z" fill="white"/>
<path d="M360.944 294.303H278.023C275.412 294.303 273.299 292.19 273.299 289.583C273.299 286.976 275.412 284.863 278.023 284.863H360.944C363.552 284.863 365.665 286.976 365.665 289.583C365.665 292.19 363.552 294.303 360.944 294.303Z" fill="white"/>
<path d="M413.788 90.8619C413.788 96.3701 409.319 100.839 403.807 100.839C398.299 100.839 393.83 96.3701 393.83 90.8619C393.83 85.3537 398.299 80.8849 403.807 80.8849C409.319 80.8849 413.788 85.3537 413.788 90.8619Z" fill="black"/>
<path d="M429.423 93.6862C429.423 99.1944 424.955 103.663 419.442 103.663C413.925 103.663 409.461 99.1944 409.461 93.6862C409.461 88.178 413.925 83.7093 419.442 83.7093C424.955 83.7093 429.423 88.178 429.423 93.6862Z" fill="black"/>
<path d="M445.05 96.5107C445.05 102.019 440.585 106.488 435.073 106.488C429.561 106.488 425.092 102.019 425.092 96.5107C425.092 90.9982 429.561 86.5338 435.073 86.5338C440.585 86.5338 445.05 90.9982 445.05 96.5107Z" fill="black"/>
<path d="M403.987 103.846H396.127V93.6906H403.987V103.846Z" fill="#FDA4FF"/>
<path d="M403.987 96.6683V93.6906H396.127V100.268C396.834 100.409 398.248 100.588 399.876 100.051C402.415 99.2115 403.663 97.2264 403.987 96.6683Z" fill="black"/>
<path d="M405.316 91.3689C405.316 95.2285 402.483 98.3554 398.99 98.3554C395.497 98.3554 392.668 95.2285 392.668 91.3689C392.668 87.5094 395.497 84.3825 398.99 84.3825C402.483 84.3825 405.316 87.5094 405.316 91.3689Z" fill="#FDA4FF"/>
<path d="M398.932 84.2502C398.272 84.2502 397.641 84.3609 397.045 84.5612C397.876 88.8595 401.007 92.34 405.109 93.6691C405.318 92.9662 405.433 92.2164 405.433 91.4326C405.433 87.4665 402.523 84.2502 398.932 84.2502Z" fill="black"/>
<path d="M401.743 94.436C401.133 94.994 400.345 95.3732 399.455 95.4626C397.474 95.6629 395.693 94.3806 395.199 92.5147L401.743 94.436Z" fill="white"/>
<path d="M297.681 257.386L270.4 261.62L263.512 217.291L290.797 213.056L297.681 257.386Z" fill="black"/>
<path d="M242.519 277.872L253.833 267.891L262.46 249.986L280.258 252.274C284.041 252.76 287.849 251.639 290.767 249.185L291.27 248.764C294.214 246.289 295.475 242.344 294.516 238.621L294.278 237.679C293.801 235.83 296.097 234.561 297.413 235.941L322.539 262.259L313.767 270.677C309.12 275.142 303.807 278.869 298.031 281.728L295.713 282.869C281.625 289.839 266.558 294.618 251.026 297.051L239.882 298.798L235.276 294.964L235.098 294.601C233.803 291.99 233.705 288.948 234.829 286.26L234.846 286.222C235.4 284.897 236.231 283.704 237.283 282.729L242.519 277.872Z" fill="#4ADA85"/>
<path d="M235.618 294.695L240.006 298.35L250.958 296.633C266.465 294.201 281.46 289.442 295.527 282.49L297.844 281.344C303.591 278.503 308.848 274.809 313.474 270.37L321.934 262.247L297.107 236.235C296.545 235.647 295.825 235.724 295.382 235.971C294.934 236.218 294.487 236.789 294.692 237.577L294.93 238.514C295.923 242.374 294.594 246.523 291.544 249.092L291.041 249.513C288.042 252.035 284.093 253.194 280.208 252.696L262.712 250.446L254.217 268.074C254.196 268.125 254.162 268.172 254.119 268.211L242.805 278.192L237.573 283.04C236.559 283.981 235.771 285.11 235.239 286.388C234.148 288.999 234.242 291.909 235.477 294.41L235.618 294.695ZM239.882 299.223C239.784 299.223 239.686 299.189 239.61 299.126L235.005 295.291C234.958 295.253 234.919 295.206 234.894 295.151L234.715 294.789C233.369 292.067 233.266 288.897 234.438 286.098C235.034 284.671 235.891 283.444 236.994 282.418L242.23 277.561C242.23 277.561 242.234 277.557 242.234 277.553L253.489 267.627L262.077 249.803C262.158 249.637 262.333 249.543 262.516 249.564L280.314 251.852C283.965 252.321 287.675 251.23 290.491 248.862L290.994 248.44C293.797 246.084 295.015 242.271 294.108 238.727L293.865 237.786C293.597 236.75 294.031 235.745 294.969 235.225C295.889 234.714 296.996 234.884 297.725 235.647L322.846 261.965C323.008 262.136 323.004 262.404 322.833 262.566L314.062 270.984C309.376 275.487 304.047 279.227 298.219 282.107L295.901 283.253C281.758 290.248 266.682 295.032 251.095 297.473L239.946 299.219C239.925 299.223 239.904 299.223 239.882 299.223Z" fill="black"/>
<path d="M270.02 250.958L262.462 249.986L253.836 267.891L260.784 264.458C263.101 263.307 264.972 261.424 266.096 259.094L270.02 250.958Z" fill="white"/>
<path d="M262.712 250.446L254.759 266.958L260.595 264.074C262.818 262.975 264.633 261.139 265.707 258.907L269.375 251.307L262.712 250.446ZM253.834 268.317C253.728 268.317 253.617 268.275 253.536 268.194C253.408 268.066 253.374 267.87 253.451 267.704L262.077 249.803C262.158 249.637 262.333 249.543 262.516 249.565L270.069 250.536C270.205 250.553 270.325 250.634 270.389 250.753C270.457 250.877 270.457 251.021 270.397 251.145L266.478 259.282C265.319 261.68 263.364 263.657 260.974 264.837L254.026 268.275C253.966 268.3 253.898 268.317 253.834 268.317Z" fill="black"/>
<path d="M283.895 267.729L285.986 271.964L297.953 256.41L302.038 263.997L308.892 247.963L311.436 247.413L324.148 260.892L313.681 270.835C309.088 275.197 303.866 278.843 298.187 281.651L295.716 282.869C281.628 289.839 266.561 294.618 251.029 297.051L239.884 298.797L235.279 294.963L240.741 293.438C260.746 287.602 271.183 275.329 271.183 275.329L272.767 278.763L283.895 267.729Z" fill="white"/>
<path d="M236.172 295.155L240.006 298.35L250.958 296.633C266.465 294.201 281.46 289.442 295.526 282.49L297.997 281.267C303.642 278.477 308.822 274.865 313.384 270.528L323.545 260.875L311.288 247.882L309.193 248.333L302.428 264.168C302.364 264.317 302.219 264.415 302.057 264.423C301.887 264.428 301.737 264.342 301.661 264.198L297.886 257.19L286.32 272.223C286.231 272.338 286.09 272.398 285.941 272.385C285.797 272.373 285.669 272.283 285.605 272.151L283.773 268.449L273.063 279.065C272.965 279.163 272.829 279.206 272.688 279.18C272.552 279.154 272.437 279.065 272.377 278.941L271.065 276.092C268.863 278.443 258.494 288.701 240.858 293.847L236.172 295.155ZM239.882 299.223C239.784 299.223 239.686 299.189 239.609 299.125L235.004 295.291C234.881 295.189 234.825 295.032 234.859 294.878C234.894 294.721 235.009 294.597 235.162 294.554L240.623 293.025C260.275 287.295 270.754 275.18 270.857 275.056C270.95 274.946 271.095 274.89 271.24 274.912C271.385 274.929 271.508 275.022 271.568 275.154L272.897 278.03L283.59 267.431C283.688 267.333 283.824 267.286 283.96 267.312C284.097 267.333 284.212 267.418 284.271 267.542L286.065 271.163L297.614 256.15C297.699 256.035 297.844 255.976 297.984 255.984C298.129 255.997 298.257 256.082 298.325 256.206L301.993 263.018L308.498 247.797C308.554 247.669 308.664 247.575 308.801 247.545L311.344 247C311.489 246.966 311.642 247.013 311.744 247.123L324.456 260.602C324.618 260.768 324.61 261.037 324.439 261.203L313.972 271.141C309.346 275.538 304.098 279.201 298.372 282.03L295.901 283.253C281.758 290.248 266.682 295.032 251.094 297.473L239.946 299.219C239.925 299.223 239.903 299.223 239.882 299.223Z" fill="black"/>
<path d="M340.535 323.893H312.926V294.026H340.535V323.893Z" fill="black"/>
<path d="M276.344 321.405L290.918 317.473L306.59 305.247L321.53 315.186C324.704 317.295 328.615 317.98 332.317 317.073L332.956 316.92C336.692 316.004 339.576 313.026 340.368 309.264L340.568 308.314C340.96 306.449 343.58 306.325 344.151 308.148L354.997 342.872L343.401 346.531C337.25 348.474 330.843 349.458 324.393 349.458H321.807C306.092 349.458 290.462 347.068 275.462 342.365L264.702 338.991L262.273 333.517V333.108C262.273 330.198 263.534 327.425 265.733 325.516L265.762 325.491C266.849 324.549 268.122 323.846 269.498 323.437L276.344 321.405Z" fill="#4ADA85"/>
<path d="M265.005 338.646L275.587 341.96C290.561 346.654 306.11 349.036 321.803 349.036H324.389C330.801 349.036 337.152 348.056 343.27 346.126L354.456 342.595L343.738 308.276C343.495 307.496 342.814 307.249 342.307 307.275C341.8 307.296 341.148 307.607 340.982 308.404L340.778 309.354C339.955 313.252 336.922 316.383 333.05 317.333L332.411 317.49C328.607 318.419 324.551 317.708 321.288 315.539L306.604 305.771L291.174 317.81C291.127 317.844 291.076 317.87 291.025 317.882L276.456 321.814L269.618 323.846C268.289 324.238 267.084 324.903 266.04 325.81C263.901 327.668 262.691 330.317 262.691 333.108V333.427L265.005 338.646ZM324.389 349.884H321.803C306.024 349.884 290.39 347.494 275.331 342.774L264.566 339.395C264.451 339.361 264.357 339.276 264.306 339.165L261.878 333.687C261.852 333.636 261.844 333.572 261.844 333.517V333.108C261.844 330.07 263.156 327.186 265.448 325.197C266.615 324.179 267.931 323.459 269.375 323.028L276.217 320.996C276.221 320.996 276.226 320.996 276.226 320.996L290.718 317.086L306.323 304.911C306.467 304.8 306.668 304.791 306.821 304.894L321.761 314.832C324.828 316.868 328.632 317.537 332.211 316.66L332.845 316.502C336.403 315.633 339.189 312.758 339.943 309.179L340.143 308.229C340.369 307.181 341.199 306.474 342.269 306.423C343.321 306.376 344.237 307.015 344.552 308.02L355.394 342.744C355.466 342.97 355.343 343.208 355.117 343.276L343.525 346.936C337.327 348.891 330.886 349.884 324.389 349.884Z" fill="black"/>
<path d="M312.924 309.465L306.585 305.247L290.912 317.473H298.661C301.247 317.473 303.76 316.609 305.797 315.02L312.924 309.465Z" fill="white"/>
<path d="M292.147 317.047H298.661C301.14 317.047 303.581 316.208 305.537 314.683L312.195 309.494L306.602 305.771L292.147 317.047ZM298.661 317.899H290.912C290.729 317.899 290.567 317.784 290.507 317.614C290.448 317.439 290.507 317.248 290.648 317.137L306.321 304.911C306.465 304.8 306.666 304.791 306.819 304.889L313.162 309.111C313.273 309.188 313.345 309.311 313.35 309.452C313.354 309.584 313.294 309.716 313.188 309.801L306.061 315.356C303.956 316.996 301.328 317.899 298.661 317.899Z" fill="black"/>
<path d="M317.925 330.65V335.37L335.548 326.73L335.847 335.344L349.099 324.008L351.621 324.643L357.044 342.36L343.25 346.633C337.201 348.508 330.901 349.458 324.566 349.458H321.806C306.09 349.458 290.46 347.068 275.461 342.369L264.696 338.991L262.268 333.517L267.844 334.565C288.364 338.203 303.164 331.83 303.164 331.83L303.057 335.604L317.925 330.65Z" fill="white"/>
<path d="M265.009 338.646L275.587 341.96C290.561 346.654 306.114 349.036 321.804 349.036H324.564C330.861 349.036 337.106 348.09 343.121 346.224L356.51 342.075L351.283 325.001L349.209 324.473L336.122 335.668C335.998 335.774 335.824 335.8 335.674 335.736C335.525 335.668 335.423 335.523 335.419 335.361L335.142 327.403L318.11 335.753C317.978 335.817 317.821 335.808 317.697 335.732C317.574 335.655 317.497 335.519 317.497 335.37V331.237L303.192 336.009C303.064 336.051 302.915 336.03 302.804 335.945C302.693 335.864 302.63 335.732 302.634 335.595L302.719 332.46C299.703 333.593 285.858 338.19 267.766 334.986L262.986 334.083L265.009 338.646ZM324.564 349.884H321.804C306.025 349.884 290.39 347.494 275.331 342.774L264.571 339.395C264.451 339.361 264.353 339.276 264.306 339.165L261.878 333.687C261.814 333.542 261.836 333.376 261.934 333.252C262.032 333.125 262.193 333.069 262.347 333.099L267.923 334.147C288.077 337.717 302.847 331.502 302.992 331.438C303.124 331.382 303.277 331.395 303.401 331.476C303.52 331.557 303.588 331.693 303.584 331.838L303.503 335.008L317.791 330.245C317.919 330.202 318.064 330.224 318.17 330.305C318.285 330.385 318.349 330.513 318.349 330.65V334.688L335.359 326.347C335.491 326.283 335.645 326.292 335.764 326.368C335.887 326.441 335.968 326.573 335.973 326.718L336.237 334.445L348.821 323.684C348.927 323.595 349.072 323.561 349.204 323.595L351.726 324.234C351.871 324.268 351.986 324.379 352.029 324.519L357.447 342.233C357.52 342.458 357.392 342.697 357.166 342.765L343.372 347.038C337.276 348.929 330.946 349.884 324.564 349.884Z" fill="black"/>
<path d="M380.184 153.016H268.167C257.142 153.016 248.801 162.984 250.748 173.83L261.317 232.665H298.068L291.687 190.921H356.562C369.611 190.921 380.184 180.348 380.184 167.304V153.016Z" fill="#8C7BFF"/>
<path d="M406.584 169.583L411.871 148.73H369.39L316.485 189.537C309.418 194.981 305.281 203.395 305.281 212.315V300.093H347.455V218.752L375.746 190.751L379.572 190.725C392.339 190.649 403.445 181.958 406.584 169.583Z" fill="#8C7BFF"/>
<path d="M305.707 300.076H347.025V218.752C347.025 218.641 347.072 218.53 347.153 218.454L375.448 190.448C375.525 190.372 375.636 190.325 375.746 190.325L379.568 190.299C392.139 190.223 403.079 181.66 406.167 169.481L411.326 149.16H369.535L316.741 189.873C309.831 195.202 305.707 203.59 305.707 212.315V300.076ZM347.456 300.928H305.281C305.043 300.928 304.855 300.74 304.855 300.502V212.315C304.855 203.331 309.103 194.687 316.221 189.2L369.131 148.398C369.203 148.338 369.297 148.308 369.39 148.308H411.871C411.999 148.308 412.127 148.368 412.204 148.47C412.289 148.577 412.314 148.709 412.285 148.836L406.998 169.694C403.811 182.248 392.535 191.075 379.572 191.151L375.925 191.177L347.882 218.931V300.502C347.882 300.74 347.69 300.928 347.456 300.928Z" fill="black"/>
<path d="M337.535 127.447L322.817 122.514C320.75 121.824 318.471 122.395 316.976 123.984L313.56 127.613C312.695 128.533 312.039 129.632 311.634 130.834L310.705 133.603C310.309 134.783 310.948 136.065 312.132 136.461L312.431 136.559C313.611 136.955 314.893 136.321 315.289 135.136L315.894 133.33C316.286 132.159 316.929 131.085 317.777 130.182L319.549 128.303C320.324 127.473 321.513 127.174 322.591 127.536L335.997 132.026L337.535 127.447Z" fill="#FDA4FF"/>
<path d="M332.391 129.526L323.876 126.672C321.809 125.981 319.526 126.552 318.035 128.137L314.619 131.771C313.75 132.695 313.093 133.794 312.693 134.991L311.764 137.76C311.368 138.94 312.003 140.223 313.187 140.619L313.485 140.717C314.67 141.113 315.948 140.478 316.344 139.294L316.953 137.488C317.345 136.316 317.988 135.243 318.832 134.344L320.604 132.457C321.383 131.63 322.572 131.332 323.65 131.694L330.858 134.105L332.391 129.526Z" fill="#FDA4FF"/>
<path d="M333.819 133.262L325.299 130.412C323.233 129.717 320.954 130.288 319.458 131.877L316.046 135.507C315.177 136.431 314.521 137.53 314.12 138.727L313.192 141.496C312.791 142.676 313.43 143.959 314.615 144.355L314.913 144.453C316.093 144.849 317.375 144.214 317.776 143.03L318.376 141.224C318.772 140.052 319.411 138.979 320.259 138.08L322.031 136.193C322.811 135.37 323.999 135.068 325.073 135.43L332.281 137.846L333.819 133.262Z" fill="#FDA4FF"/>
<path d="M354.639 138.646V125.359L332.083 125.381L326.251 123.583L322.553 134.612L330.677 137.334L330.515 137.522C329.842 138.293 328.866 138.736 327.844 138.736H323.29C322.076 138.736 321.092 139.72 321.092 140.934V141.083C321.092 142.297 322.067 143.277 323.281 143.281C325.279 143.294 329.173 143.298 329.637 143.269C329.884 143.256 330.132 143.222 330.379 143.179L354.639 138.646Z" fill="#FDA4FF"/>
<path d="M330.377 143.179C331.114 143.043 331.825 142.766 332.473 142.353L338.433 138.646H354.638L330.377 143.179Z" fill="#FDA4FF"/>
<path d="M315.635 144.998C315.349 144.998 315.06 144.951 314.778 144.858L314.48 144.76C313.079 144.287 312.32 142.766 312.789 141.36L313.718 138.591C314.135 137.343 314.834 136.176 315.737 135.217L319.153 131.588C320.755 129.884 323.222 129.262 325.437 130.003L326.809 130.463C327.03 130.54 327.154 130.782 327.077 131.004C327.005 131.226 326.762 131.349 326.536 131.272L325.164 130.812C323.264 130.173 321.147 130.706 319.771 132.167L316.359 135.797C315.537 136.67 314.906 137.731 314.523 138.864L313.598 141.633C313.275 142.591 313.794 143.631 314.753 143.954L315.051 144.052C315.515 144.206 316.01 144.172 316.448 143.954C316.887 143.737 317.215 143.358 317.369 142.898L317.978 141.087C318.387 139.865 319.068 138.727 319.954 137.786L321.722 135.903C322.613 134.957 323.98 134.612 325.211 135.025L330.549 136.81C330.771 136.887 330.89 137.13 330.817 137.351C330.741 137.577 330.502 137.696 330.276 137.62L324.943 135.835C324.023 135.528 323.005 135.784 322.344 136.487L320.572 138.37C319.771 139.222 319.153 140.252 318.787 141.36L318.178 143.166C317.952 143.848 317.471 144.397 316.827 144.717C316.453 144.904 316.044 144.998 315.635 144.998Z" fill="black"/>
<path d="M313.383 141.109C313.34 141.109 313.293 141.105 313.246 141.088L313.055 141.019C312.373 140.798 311.824 140.316 311.504 139.673C311.185 139.034 311.129 138.306 311.359 137.624L312.288 134.855C312.705 133.607 313.404 132.44 314.311 131.481L317.724 127.852C319.325 126.148 321.792 125.526 324.007 126.267L326.525 127.11C326.751 127.187 326.87 127.43 326.793 127.651C326.721 127.873 326.478 127.996 326.257 127.92L323.739 127.076C321.835 126.437 319.717 126.97 318.346 128.431L314.929 132.065C314.111 132.934 313.476 133.995 313.097 135.128L312.169 137.897C312.011 138.361 312.045 138.86 312.267 139.294C312.484 139.733 312.859 140.061 313.323 140.214L313.519 140.278C313.745 140.355 313.864 140.598 313.787 140.819C313.728 140.998 313.562 141.109 313.383 141.109Z" fill="black"/>
<path d="M327.085 143.741C326.514 143.741 325.909 143.737 325.253 143.729C324.64 143.72 323.984 143.712 323.281 143.707C321.836 143.703 320.665 142.523 320.665 141.087V140.934C320.665 139.49 321.845 138.31 323.289 138.31H327.843C328.746 138.31 329.602 137.922 330.195 137.241L330.357 137.053C330.51 136.878 330.778 136.861 330.957 137.011C331.132 137.168 331.149 137.437 330.996 137.615L330.834 137.799C330.084 138.668 328.989 139.162 327.843 139.162H323.289C322.314 139.162 321.517 139.958 321.517 140.934V141.087C321.517 142.059 322.309 142.851 323.285 142.855C323.992 142.86 324.652 142.868 325.262 142.877C328.806 142.919 330.757 142.94 332.244 141.995L338.208 138.284C338.276 138.246 338.353 138.22 338.434 138.22H354.213V125.828L332.252 125.807C332.21 125.807 332.167 125.802 332.129 125.79L322.693 122.918C320.78 122.279 318.663 122.812 317.287 124.273L313.87 127.907C313.052 128.776 312.418 129.837 312.038 130.97L311.11 133.735C310.79 134.693 311.31 135.733 312.268 136.056C312.49 136.133 312.609 136.372 312.537 136.597C312.46 136.819 312.217 136.938 311.996 136.866C310.594 136.393 309.836 134.868 310.305 133.466L311.229 130.697C311.651 129.449 312.349 128.282 313.253 127.323L316.669 123.689C318.267 121.985 320.737 121.368 322.953 122.113L332.316 124.955L354.639 124.976C354.873 124.976 355.065 125.168 355.065 125.402V138.646C355.065 138.881 354.873 139.072 354.639 139.072H338.553L332.7 142.715C331.311 143.597 329.615 143.741 327.085 143.741Z" fill="black"/>
<path d="M380.989 107.212L368.486 121.308C366.795 123.213 364.375 124.303 361.832 124.303H340.715V142.285L367.135 142.272C371.106 142.272 374.88 140.564 377.504 137.586L397.859 114.475L388.87 106.692C386.548 104.681 383.03 104.912 380.989 107.212Z" fill="#FED101"/>
<path d="M414.962 161.208L364.025 157.063L364.2 150.928H376.247L377.934 115.357C378.331 108.375 383.443 103.058 390.237 103.058H405.518L413.787 105.018L414.962 161.208Z" fill="#FED101"/>
<path d="M322.549 151.801H270.317L245.754 109.742H297.986L322.549 151.801Z" fill="black"/>
<path d="M270.314 157.118H364.227V151.806H270.314V157.118Z" fill="black"/>
<path d="M280.231 132.201C279.682 130.199 280.781 128.15 282.689 127.626C284.598 127.102 286.587 128.303 287.137 130.31C287.686 132.312 286.587 134.361 284.679 134.885C282.775 135.409 280.781 134.207 280.231 132.201Z" fill="white"/>
<path d="M371.144 137.292L351.629 137.283V153.241L371.144 153.246V137.292Z" fill="#FDA4FF"/>
<path d="M334.104 142.246L332.37 144.116C331.493 145.062 331.403 146.494 332.157 147.537L333.861 149.902L337.981 145.301H363.881V139.886H339.514C337.461 139.886 335.497 140.742 334.104 142.246Z" fill="#FDA4FF"/>
<path d="M334.905 138.868L333.925 139.929C333.047 140.874 332.962 142.301 333.712 143.345L335.416 145.705L339.54 141.109H363.886V137.343H359.753C358.045 137.343 354.995 135.69 351.135 135.69H342.177C339.416 135.69 336.779 136.84 334.905 138.868Z" fill="#FDA4FF"/>
<path d="M333.496 145.888L331.421 148.134C330.544 149.079 330.458 150.506 331.208 151.554L332.908 153.914L337.036 149.314H353.079V143.899H338.058C336.324 143.899 334.676 144.619 333.496 145.888Z" fill="#FDA4FF"/>
<path d="M334.255 149.837L332.091 152.176C331.285 153.045 331.204 154.357 331.899 155.316C332.823 156.607 334.706 156.705 335.767 155.525L336.943 154.212C337.505 153.582 338.306 153.224 339.149 153.224H352.624C356.147 153.224 358.626 153.024 362.021 147.805L338.898 147.81C337.134 147.81 335.456 148.542 334.255 149.837Z" fill="#FDA4FF"/>
<path d="M332.157 147.967C332.025 147.967 331.893 147.903 331.812 147.788C330.943 146.583 331.045 144.921 332.055 143.831L333.788 141.961C335.258 140.372 337.345 139.46 339.514 139.46H344.281C344.515 139.46 344.707 139.652 344.707 139.886C344.707 140.12 344.515 140.312 344.281 140.312H339.514C337.584 140.312 335.722 141.126 334.41 142.54L332.681 144.41C331.944 145.203 331.871 146.412 332.502 147.29C332.638 147.482 332.6 147.746 332.408 147.886C332.331 147.942 332.242 147.967 332.157 147.967Z" fill="black"/>
<path d="M331.874 152.896C331.742 152.896 331.614 152.836 331.529 152.721L330.865 151.801C330 150.596 330.098 148.934 331.107 147.844L333.186 145.603C334.439 144.248 336.215 143.473 338.06 143.473H344.326C344.565 143.473 344.757 143.66 344.757 143.895C344.757 144.133 344.565 144.321 344.326 144.321H338.06C336.454 144.321 334.903 144.998 333.813 146.178L331.734 148.423C330.997 149.215 330.924 150.43 331.559 151.303L332.219 152.223C332.36 152.415 332.313 152.679 332.121 152.819C332.049 152.871 331.959 152.896 331.874 152.896Z" fill="black"/>
<path d="M333.918 156.777C333.862 156.777 333.811 156.773 333.76 156.773C332.874 156.726 332.069 156.287 331.553 155.567C330.744 154.447 330.838 152.896 331.775 151.887L333.948 149.543C335.221 148.172 337.023 147.384 338.898 147.384H344.116C344.351 147.384 344.542 147.571 344.542 147.81C344.542 148.04 344.351 148.231 344.116 148.231H338.898C337.262 148.231 335.681 148.922 334.57 150.123L332.401 152.466C331.737 153.182 331.668 154.276 332.239 155.069C332.606 155.576 333.177 155.887 333.803 155.921C334.433 155.959 335.03 155.708 335.447 155.239L336.623 153.927C337.266 153.211 338.186 152.798 339.149 152.798H354.051C356.504 152.798 358.788 151.588 360.168 149.556C360.3 149.36 360.564 149.309 360.76 149.441C360.952 149.578 361.003 149.837 360.875 150.033C359.337 152.3 356.786 153.65 354.051 153.65H339.149C338.429 153.65 337.739 153.961 337.262 154.494L336.082 155.81C335.528 156.428 334.744 156.777 333.918 156.777Z" fill="black"/>
<path d="M371.144 153.676H348.911C348.672 153.676 348.481 153.488 348.481 153.25C348.481 153.016 348.672 152.824 348.911 152.824H370.722V137.722H360.528C358.914 137.722 357.653 137.377 356.323 137.006C354.739 136.568 353.094 136.116 350.538 136.116H342.172C339.539 136.116 337.004 137.228 335.215 139.158L334.235 140.218C333.6 140.904 333.447 141.893 333.843 142.736C333.946 142.945 333.852 143.2 333.639 143.298C333.426 143.401 333.174 143.311 333.072 143.094C332.527 141.939 332.74 140.581 333.613 139.639L334.589 138.578C336.54 136.474 339.305 135.264 342.172 135.264H350.538C353.214 135.264 354.986 135.754 356.549 136.188C357.878 136.551 359.024 136.866 360.528 136.866H371.144C371.378 136.866 371.57 137.058 371.57 137.296V153.25C371.57 153.488 371.378 153.676 371.144 153.676Z" fill="black"/>
<path d="M406.532 103.058H405.335L397.735 133.023C397.246 134.97 395.49 136.333 393.48 136.329L365.819 136.308L365.807 155.422L398.575 155.452C406.307 155.457 413.054 150.217 414.959 142.723L420.475 120.976C422.784 111.889 415.913 103.058 406.532 103.058Z" fill="#FED101"/>
<path d="M398.588 155.874C398.583 155.874 398.579 155.874 398.579 155.874L365.807 155.853C365.692 155.853 365.585 155.802 365.504 155.725C365.423 155.644 365.381 155.538 365.381 155.423L365.398 136.304C365.398 136.074 365.585 135.882 365.82 135.882C365.82 135.882 365.82 135.882 365.824 135.882L393.484 135.903C393.484 135.903 393.484 135.903 393.488 135.903C395.299 135.903 396.875 134.676 397.327 132.917L401.071 118.135C401.131 117.909 401.365 117.772 401.591 117.828C401.817 117.888 401.953 118.118 401.898 118.348L398.149 133.126C397.608 135.264 395.691 136.755 393.488 136.755C393.484 136.755 393.484 136.755 393.484 136.755L366.25 136.734L366.233 155.001L398.579 155.022H398.588C406.128 155.022 412.688 149.927 414.546 142.617L420.067 120.874C421.132 116.669 420.216 112.294 417.553 108.869C414.887 105.448 410.874 103.484 406.533 103.484H404.245C404.006 103.484 403.819 103.293 403.819 103.058C403.819 102.824 404.006 102.632 404.245 102.632H406.533C411.138 102.632 415.398 104.716 418.226 108.349C421.051 111.979 422.026 116.622 420.893 121.083L415.372 142.83C413.421 150.511 406.52 155.874 398.588 155.874Z" fill="black"/>
<path d="M165.86 248.214L120.973 221.295L141.097 188.19L185.942 215.148L165.86 248.214Z" fill="#FDA4FF"/>
<path d="M152.808 220.23C152.646 220.23 152.497 220.136 152.424 219.992L143.687 201.904C143.585 201.695 143.674 201.439 143.883 201.337C144.096 201.235 144.351 201.324 144.454 201.533L153.072 219.37L172.983 218.645C173.23 218.633 173.418 218.82 173.426 219.054C173.435 219.289 173.251 219.485 173.013 219.493L152.825 220.23C152.82 220.23 152.812 220.23 152.808 220.23Z" fill="black"/>
<path d="M144.326 207.194L152.582 220.196L153.174 219.753L144.023 200.689C142.967 202.76 143.082 205.23 144.326 207.194Z" fill="#020202"/>
<path d="M121.556 221.15L165.715 247.631L185.4 215.259L141.241 188.774L121.556 221.15ZM165.855 248.64C165.783 248.64 165.706 248.619 165.638 248.576L120.75 221.657C120.652 221.598 120.584 221.504 120.554 221.393C120.529 221.287 120.546 221.167 120.606 221.074L140.734 187.973C140.853 187.773 141.118 187.709 141.318 187.828L186.206 214.747C186.304 214.807 186.372 214.901 186.397 215.007C186.427 215.118 186.41 215.237 186.35 215.335L166.222 248.436C166.141 248.563 166 248.64 165.855 248.64Z" fill="black"/>
<path d="M156.757 295.142L111.818 312.046L94.9102 267.124L139.849 250.225L156.757 295.142Z" fill="#8C7BFF"/>
<path d="M138.411 276.403C141.12 283.602 137.482 291.628 130.279 294.337C123.079 297.047 115.045 293.404 112.335 286.209C109.626 279.01 113.268 270.984 120.468 268.275C127.672 265.565 135.702 269.208 138.411 276.403Z" fill="white"/>
<path d="M130.347 279.436L120.43 277.8L123.966 287.202L130.347 279.436Z" fill="white"/>
<path d="M121.088 278.337L124.109 286.362L129.553 279.734L121.088 278.337ZM123.968 287.628C123.947 287.628 123.925 287.628 123.9 287.623C123.751 287.598 123.623 287.496 123.572 287.355L120.032 277.949C119.976 277.804 120.006 277.646 120.1 277.527C120.198 277.408 120.347 277.353 120.5 277.378L130.418 279.018C130.567 279.039 130.695 279.146 130.746 279.287C130.801 279.427 130.775 279.589 130.677 279.704L124.3 287.474C124.219 287.572 124.096 287.628 123.968 287.628Z" fill="black"/>
<path d="M339.783 1.66994C316.17 1.66994 296.957 20.8741 296.957 44.4788C296.957 68.0793 316.17 87.2835 339.783 87.2835C363.401 87.2835 382.614 68.0793 382.614 44.4788C382.614 20.8741 363.401 1.66994 339.783 1.66994ZM339.783 88.1355C315.702 88.1355 296.105 68.5479 296.105 44.4788C296.105 20.4055 315.702 0.817932 339.783 0.817932C363.87 0.817932 383.461 20.4055 383.461 44.4788C383.461 68.5479 363.87 88.1355 339.783 88.1355Z" fill="#8C7BFF"/>
<path d="M339.785 1.66994C327.857 1.66994 318.152 20.8741 318.152 44.4788C318.152 68.0793 327.857 87.2835 339.785 87.2835C351.713 87.2835 361.417 68.0793 361.417 44.4788C361.417 20.8741 351.713 1.66994 339.785 1.66994ZM339.785 88.1355C327.388 88.1355 317.305 68.5479 317.305 44.4788C317.305 20.4055 327.388 0.817932 339.785 0.817932C352.186 0.817932 362.269 20.4055 362.269 44.4788C362.269 68.5479 352.186 88.1355 339.785 88.1355Z" fill="#8C7BFF"/>
<path d="M339.783 24.7677C328.724 24.7677 318.167 20.627 310.069 13.1123C309.899 12.9504 309.886 12.6821 310.048 12.5074C310.205 12.3327 310.478 12.3285 310.649 12.4861C318.589 19.8559 328.937 23.9157 339.783 23.9157C350.629 23.9157 360.976 19.8559 368.921 12.4861C369.092 12.3242 369.36 12.3327 369.522 12.5074C369.68 12.6778 369.671 12.9462 369.501 13.1081C361.398 20.627 350.846 24.7677 339.783 24.7677Z" fill="#8C7BFF"/>
<path d="M310.36 76.5822C310.245 76.5822 310.13 76.5353 310.049 76.4459C309.888 76.2755 309.896 76.0028 310.071 75.8452C318.169 68.3263 328.721 64.1855 339.784 64.1855C350.848 64.1855 361.4 68.3263 369.498 75.841C369.673 76.0028 369.681 76.2755 369.519 76.4459C369.362 76.6163 369.093 76.6248 368.919 76.4672C360.978 69.0973 350.63 65.0333 339.784 65.0333C328.938 65.0333 318.591 69.0973 310.65 76.4672C310.569 76.5439 310.463 76.5822 310.36 76.5822Z" fill="#8C7BFF"/>
<path d="M383.041 44.9006H296.533C296.299 44.9006 296.111 44.7132 296.111 44.4746C296.111 44.2403 296.299 44.0486 296.533 44.0486H383.041C383.276 44.0486 383.467 44.2403 383.467 44.4746C383.467 44.7132 383.276 44.9006 383.041 44.9006Z" fill="#8C7BFF"/>
<path d="M339.785 88.1355C339.551 88.1355 339.359 87.9438 339.359 87.7095V1.24393C339.359 1.00963 339.551 0.817932 339.785 0.817932C340.02 0.817932 340.211 1.00963 340.211 1.24393V87.7095C340.211 87.9438 340.02 88.1355 339.785 88.1355Z" fill="#8C7BFF"/>
</g>
<g opacity="0.8" filter="url(#filter0_d_2557_124716)">
<ellipse cx="180.066" cy="180.291" rx="180.066" ry="180.291" transform="matrix(1 0 -0.554003 0.832514 199.869 64.1607)" fill="url(#paint0_linear_2557_124716)" fill-opacity="0.5" shape-rendering="crispEdges"/>
<path d="M458.936 214.256C404.134 296.609 279.619 363.367 180.826 363.367C82.0326 363.367 46.3671 296.609 101.169 214.256C155.972 131.903 280.487 65.1449 379.28 65.1449C478.073 65.1449 513.739 131.903 458.936 214.256Z" stroke="url(#paint1_linear_2557_124716)" stroke-width="2.36448" shape-rendering="crispEdges"/>
</g>
<defs>
<filter id="filter0_d_2557_124716" x="55.1857" y="55.2939" width="449.734" height="338.022" filterUnits="userSpaceOnUse" color-interpolation-filters="sRGB">
<feFlood flood-opacity="0" result="BackgroundImageFix"/>
<feColorMatrix in="SourceAlpha" type="matrix" values="0 0 0 0 0 0 0 0 0 0 0 0 0 0 0 0 0 0 127 0" result="hardAlpha"/>
<feOffset dy="10.049"/>
<feGaussianBlur stdDeviation="9.45792"/>
<feComposite in2="hardAlpha" operator="out"/>
<feColorMatrix type="matrix" values="0 0 0 0 0.215686 0 0 0 0 0.384314 0 0 0 0 0.890196 0 0 0 0.14 0"/>
<feBlend mode="normal" in2="BackgroundImageFix" result="effect1_dropShadow_2557_124716"/>
<feBlend mode="normal" in="SourceGraphic" in2="effect1_dropShadow_2557_124716" result="shape"/>
</filter>
<linearGradient id="paint0_linear_2557_124716" x1="340.174" y1="259.309" x2="215.572" y2="151.918" gradientUnits="userSpaceOnUse">
<stop stop-color="white"/>
<stop offset="0.463542" stop-color="white" stop-opacity="0.12"/>
<stop offset="1" stop-color="white" stop-opacity="0"/>
</linearGradient>
<linearGradient id="paint1_linear_2557_124716" x1="376.332" y1="295.664" x2="344.393" y2="158.254" gradientUnits="userSpaceOnUse">
<stop stop-color="white"/>
<stop offset="1" stop-color="white" stop-opacity="0"/>
</linearGradient>
<clipPath id="clip0_2557_124716">
<rect width="354.161" height="354.161" fill="white" transform="translate(92.6035)"/>
</clipPath>
</defs>
</svg>
