<svg width="108" height="109" viewBox="0 0 108 109" fill="none" xmlns="http://www.w3.org/2000/svg">
<g clip-path="url(#clip0_2557_124701)">
<path fill-rule="evenodd" clip-rule="evenodd" d="M56.4375 -24.8393L-33 64.5982L-34.1932 63.405L55.2443 -26.0325L56.4375 -24.8393ZM26.4374 -10.8393L-63.0001 78.5982L-64.1934 77.405L25.2441 -12.0325L26.4374 -10.8393ZM5.0617 120.274L121.785 3.55028L120.592 2.35704L3.86845 119.081L5.0617 120.274ZM64.1242 -13.3246L-25.3133 76.1129L-26.5066 74.9196L62.9309 -14.5179L64.1242 -13.3246ZM-16.8758 103.399L99.8477 -13.3247L98.6545 -14.518L-18.0691 102.206L-16.8758 103.399ZM133.598 11.9878L16.8742 128.711L15.681 127.518L132.404 10.7945L133.598 11.9878ZM10.1242 175.961L126.848 59.2378L125.654 58.0445L8.93095 174.768L10.1242 175.961ZM74.2492 -6.57464L-15.1883 82.8629L-16.3816 81.6696L73.0559 -7.76788L74.2492 -6.57464ZM-3.37581 110.149L113.348 -6.57472L112.154 -7.76796L-4.56905 108.956L-3.37581 110.149ZM143.723 23.8003L26.9992 140.524L25.806 139.331L142.529 22.607L143.723 23.8003ZM21.9369 181.024L138.66 64.3003L137.467 63.107L20.7436 179.831L21.9369 181.024Z" fill="url(#paint0_linear_2557_124701)"/>
</g>
<defs>
<linearGradient id="paint0_linear_2557_124701" x1="-65.719" y1="77.7257" x2="145.819" y2="77.7257" gradientUnits="userSpaceOnUse">
<stop stop-color="#62AD56"/>
<stop offset="1" stop-color="#7AF072"/>
</linearGradient>
<clipPath id="clip0_2557_124701">
<rect width="108" height="108" fill="white" transform="translate(0 0.175476)"/>
</clipPath>
</defs>
</svg>
