<svg width="1440" height="637" viewBox="0 0 1440 637" fill="none" xmlns="http://www.w3.org/2000/svg">
<g clip-path="url(#clip0_502_25)">
<rect width="1440" height="637" fill="#EEF4ED"/>
<path fill-rule="evenodd" clip-rule="evenodd" d="M1109 -57H1109.51H1565.49H1566V-56.4878V399.488V400H1565.49H1109.51H1109V399.488V-56.4878V-57ZM1110.02 248.01V322.971H1185.01V248.01H1110.02ZM1186.03 248.01V322.971H1260.99V248.01H1186.03ZM1185.01 323.995H1110.02V398.976H1185.01V323.995ZM1186.03 398.976V323.995H1260.99V398.976H1186.03ZM1186.03 246.986V172.001H1260.99V246.986H1186.03ZM1185.01 172.001V246.986H1110.02V172.001H1185.01ZM1186.03 170.976H1260.99V96.0152H1186.03V170.976ZM1185.01 96.0152V170.976H1110.02V96.0152H1185.01ZM1186.03 94.9908H1260.99V20.0097H1186.03V94.9908ZM1185.01 20.0097V94.9908H1110.02V20.0097H1185.01ZM1186.03 18.9854H1260.99V-55.9757H1186.03V18.9854ZM1185.01 -55.9757V18.9854H1110.02V-55.9757H1185.01ZM1262.02 323.995V398.976H1337V323.995H1262.02ZM1262.02 248.01V322.971H1337V248.01H1262.02ZM1337 246.986H1262.02V172.001H1337V246.986ZM1337 170.976H1262.02V96.0152H1337V170.976ZM1337 94.9908H1262.02V20.0097H1337V94.9908ZM1337 18.9854H1262.02V-55.9757H1337V18.9854ZM1338.02 248.01V322.971H1412.99V248.01H1338.02ZM1338.02 398.976V323.995H1412.99V398.976H1338.02ZM1338.02 246.986V172.001H1412.99V246.986H1338.02ZM1338.02 170.976H1412.99V96.0152H1338.02V170.976ZM1338.02 94.9908H1412.99V20.0097H1338.02V94.9908ZM1338.02 18.9854H1412.99V-55.9757H1338.02V18.9854ZM1414.01 323.995V398.976H1488.99V323.995H1414.01ZM1414.01 248.01V322.971H1488.99V248.01H1414.01ZM1488.99 246.986H1414.01V172.001H1488.99V246.986ZM1488.99 170.976H1414.01V96.0152H1488.99V170.976ZM1488.99 94.9908H1414.01V20.0097H1488.99V94.9908ZM1488.99 18.9854H1414.01V-55.9757H1488.99V18.9854ZM1490.02 248.01V322.971H1564.98V248.01H1490.02ZM1490.02 398.976V323.995H1564.98V398.976H1490.02ZM1490.02 246.986V172.001H1564.98V246.986H1490.02ZM1490.02 170.976H1564.98V96.0152H1490.02V170.976ZM1490.02 94.9908H1564.98V20.0097H1490.02V94.9908ZM1490.02 18.9854H1564.98V-55.9757H1490.02V18.9854Z" fill="url(#paint0_linear_502_25)"/>
<path fill-rule="evenodd" clip-rule="evenodd" d="M321 748H320.488H-135.488H-136V747.488V291.512V291H-135.488H320.488H321V291.512V747.488V748ZM319.976 442.99V368.029H244.995V442.99H319.976ZM243.97 442.99V368.029H169.009V442.99H243.97ZM244.995 367.005H319.976V292.024H244.995V367.005ZM243.97 292.024V367.005H169.009V292.024H243.97ZM243.97 444.014V518.999H169.009V444.014H243.97ZM244.995 518.999V444.014H319.976V518.999H244.995ZM243.97 520.024H169.009V594.985H243.97V520.024ZM244.995 594.985V520.024H319.976V594.985H244.995ZM243.97 596.009H169.009V670.99H243.97V596.009ZM244.995 670.99V596.009H319.976V670.99H244.995ZM243.97 672.015H169.009V746.976H243.97V672.015ZM244.995 746.976V672.015H319.976V746.976H244.995ZM167.985 367.005V292.024H93.0038V367.005H167.985ZM167.985 442.99V368.029H93.0038V442.99H167.985ZM93.0038 444.014H167.985V518.999H93.0038V444.014ZM93.0038 520.024H167.985V594.985H93.0038V520.024ZM93.0038 596.009H167.985V670.99H93.0038V596.009ZM93.0038 672.015H167.985V746.976H93.0038V672.015ZM91.9794 442.99V368.029H17.0144V442.99H91.9794ZM91.9794 292.024V367.005H17.0144V292.024H91.9794ZM91.9794 444.014V518.999H17.0144V444.014H91.9794ZM91.9794 520.024H17.0144V594.985H91.9794V520.024ZM91.9794 596.009H17.0144V670.99H91.9794V596.009ZM91.9794 672.015H17.0144V746.976H91.9794V672.015ZM15.9901 367.005V292.024H-58.991V367.005H15.9901ZM15.9901 442.99V368.029H-58.991V442.99H15.9901ZM-58.991 444.014H15.9901V518.999H-58.991V444.014ZM-58.991 520.024H15.9901V594.985H-58.991V520.024ZM-58.991 596.009H15.9901V670.99H-58.991V596.009ZM-58.991 672.015H15.9901V746.976H-58.991V672.015ZM-60.0154 442.99V368.029H-134.976V442.99H-60.0154ZM-60.0154 292.024V367.005H-134.976V292.024H-60.0154ZM-60.0154 444.014V518.999H-134.976V444.014H-60.0154ZM-60.0154 520.024H-134.976V594.985H-60.0154V520.024ZM-60.0154 596.009H-134.976V670.99H-60.0154V596.009ZM-60.0154 672.015H-134.976V746.976H-60.0154V672.015Z" fill="url(#paint1_linear_502_25)"/>
</g>
<defs>
<linearGradient id="paint0_linear_502_25" x1="1587.5" y1="-99.5" x2="1234.5" y2="265" gradientUnits="userSpaceOnUse">
<stop stop-color="#268334"/>
<stop offset="1" stop-color="#268334" stop-opacity="0"/>
</linearGradient>
<linearGradient id="paint1_linear_502_25" x1="-157.5" y1="790.5" x2="195.5" y2="426" gradientUnits="userSpaceOnUse">
<stop stop-color="#268334"/>
<stop offset="1" stop-color="#268334" stop-opacity="0"/>
</linearGradient>
<clipPath id="clip0_502_25">
<rect width="1440" height="637" fill="white"/>
</clipPath>
</defs>
</svg>
