<svg width="1440" height="372" viewBox="0 0 1440 372" fill="none" xmlns="http://www.w3.org/2000/svg">
<g clip-path="url(#clip0_504_361)">
<rect width="1440" height="372" fill="#F5F6F7"/>
<path fill-rule="evenodd" clip-rule="evenodd" d="M1165 -66H1165.51H1621.49H1622V-65.4878V390.488V391H1621.49H1165.51H1165V390.488V-65.4878V-66ZM1166.02 239.01V313.971H1241.01V239.01H1166.02ZM1242.03 239.01V313.971H1316.99V239.01H1242.03ZM1241.01 314.995H1166.02V389.976H1241.01V314.995ZM1242.03 389.976V314.995H1316.99V389.976H1242.03ZM1242.03 237.986V163.001H1316.99V237.986H1242.03ZM1241.01 163.001V237.986H1166.02V163.001H1241.01ZM1242.03 161.976H1316.99V87.0152H1242.03V161.976ZM1241.01 87.0152V161.976H1166.02V87.0152H1241.01ZM1242.03 85.9908H1316.99V11.0097H1242.03V85.9908ZM1241.01 11.0097V85.9908H1166.02V11.0097H1241.01ZM1242.03 9.9854H1316.99V-64.9757H1242.03V9.9854ZM1241.01 -64.9757V9.9854H1166.02V-64.9757H1241.01ZM1318.02 314.995V389.976H1393V314.995H1318.02ZM1318.02 239.01V313.971H1393V239.01H1318.02ZM1393 237.986H1318.02V163.001H1393V237.986ZM1393 161.976H1318.02V87.0152H1393V161.976ZM1393 85.9908H1318.02V11.0097H1393V85.9908ZM1393 9.9854H1318.02V-64.9757H1393V9.9854ZM1394.02 239.01V313.971H1468.99V239.01H1394.02ZM1394.02 389.976V314.995H1468.99V389.976H1394.02ZM1394.02 237.986V163.001H1468.99V237.986H1394.02ZM1394.02 161.976H1468.99V87.0152H1394.02V161.976ZM1394.02 85.9908H1468.99V11.0097H1394.02V85.9908ZM1394.02 9.9854H1468.99V-64.9757H1394.02V9.9854ZM1470.01 314.995V389.976H1544.99V314.995H1470.01ZM1470.01 239.01V313.971H1544.99V239.01H1470.01ZM1544.99 237.986H1470.01V163.001H1544.99V237.986ZM1544.99 161.976H1470.01V87.0152H1544.99V161.976ZM1544.99 85.9908H1470.01V11.0097H1544.99V85.9908ZM1544.99 9.9854H1470.01V-64.9757H1544.99V9.9854ZM1546.02 239.01V313.971H1620.98V239.01H1546.02ZM1546.02 389.976V314.995H1620.98V389.976H1546.02ZM1546.02 237.986V163.001H1620.98V237.986H1546.02ZM1546.02 161.976H1620.98V87.0152H1546.02V161.976ZM1546.02 85.9908H1620.98V11.0097H1546.02V85.9908ZM1546.02 9.9854H1620.98V-64.9757H1546.02V9.9854Z" fill="url(#paint0_linear_504_361)"/>
<path fill-rule="evenodd" clip-rule="evenodd" d="M327 581H326.488H-129.488H-130V580.488V124.512V124H-129.488H326.488H327V124.512V580.488V581ZM325.976 275.99V201.029H250.995V275.99H325.976ZM249.97 275.99V201.029H175.009V275.99H249.97ZM250.995 200.005H325.976V125.024H250.995V200.005ZM249.97 125.024V200.005H175.009V125.024H249.97ZM249.97 277.014V351.999H175.009V277.014H249.97ZM250.995 351.999V277.014H325.976V351.999H250.995ZM249.97 353.024H175.009V427.985H249.97V353.024ZM250.995 427.985V353.024H325.976V427.985H250.995ZM249.97 429.009H175.009V503.99H249.97V429.009ZM250.995 503.99V429.009H325.976V503.99H250.995ZM249.97 505.015H175.009V579.976H249.97V505.015ZM250.995 579.976V505.015H325.976V579.976H250.995ZM173.985 200.005V125.024H99.0038V200.005H173.985ZM173.985 275.99V201.029H99.0038V275.99H173.985ZM99.0038 277.014H173.985V351.999H99.0038V277.014ZM99.0038 353.024H173.985V427.985H99.0038V353.024ZM99.0038 429.009H173.985V503.99H99.0038V429.009ZM99.0038 505.015H173.985V579.976H99.0038V505.015ZM97.9794 275.99V201.029H23.0144V275.99H97.9794ZM97.9794 125.024V200.005H23.0144V125.024H97.9794ZM97.9794 277.014V351.999H23.0144V277.014H97.9794ZM97.9794 353.024H23.0144V427.985H97.9794V353.024ZM97.9794 429.009H23.0144V503.99H97.9794V429.009ZM97.9794 505.015H23.0144V579.976H97.9794V505.015ZM21.9901 200.005V125.024H-52.9908V200.005H21.9901ZM21.9901 275.99V201.029H-52.9908V275.99H21.9901ZM-52.9908 277.014H21.9901V351.999H-52.9908V277.014ZM-52.9908 353.024H21.9901V427.985H-52.9908V353.024ZM-52.9908 429.009H21.9901V503.99H-52.9908V429.009ZM-52.9908 505.015H21.9901V579.976H-52.9908V505.015ZM-54.0151 275.99V201.029H-128.976V275.99H-54.0151ZM-54.0151 125.024V200.005H-128.976V125.024H-54.0151ZM-54.0151 277.014V351.999H-128.976V277.014H-54.0151ZM-54.0151 353.024H-128.976V427.985H-54.0151V353.024ZM-54.0151 429.009H-128.976V503.99H-54.0151V429.009ZM-54.0151 505.015H-128.976V579.976H-54.0151V505.015Z" fill="url(#paint1_linear_504_361)"/>
</g>
<defs>
<linearGradient id="paint0_linear_504_361" x1="1643.5" y1="-108.5" x2="1290.5" y2="256" gradientUnits="userSpaceOnUse">
<stop stop-color="#268334"/>
<stop offset="1" stop-color="#268334" stop-opacity="0"/>
</linearGradient>
<linearGradient id="paint1_linear_504_361" x1="-151.5" y1="623.5" x2="201.5" y2="259" gradientUnits="userSpaceOnUse">
<stop stop-color="#268334"/>
<stop offset="1" stop-color="#268334" stop-opacity="0"/>
</linearGradient>
<clipPath id="clip0_504_361">
<rect width="1440" height="372" fill="white"/>
</clipPath>
</defs>
</svg>
