<svg width="90" height="90" viewBox="0 0 90 90" fill="none" xmlns="http://www.w3.org/2000/svg">
<path d="M82.9685 75.9375C81.4146 75.9375 80.156 74.6789 80.156 73.125C80.156 71.5711 81.4146 70.3125 82.9685 70.3125H85.0779C87.7849 70.3125 89.9997 68.0977 89.9997 65.3906C89.9997 62.6836 87.7849 60.4688 85.0779 60.4688H70.3122C68.3702 60.4688 66.7966 58.8952 66.7966 56.9531C66.7966 55.0111 68.3702 53.4375 70.3122 53.4375H81.5622C83.8825 53.4375 85.781 51.5391 85.781 49.2188C85.781 46.8984 83.8825 45 81.5622 45H59.0622V36.5625H84.3747C87.6583 36.5625 90.3091 33.7106 89.9702 30.3609C89.6763 27.4416 87.0424 25.3125 84.1089 25.3125H82.9685C81.4146 25.3125 80.156 24.0539 80.156 22.5C80.156 20.9461 81.4146 19.6875 82.9685 19.6875H83.4705C85.3099 19.6875 86.9847 18.3642 87.1689 16.5347C87.3799 14.4295 85.7332 12.6562 83.6716 12.6562H62.5779C61.4135 12.6562 60.4685 11.7113 60.4685 10.5469C60.4685 9.3825 61.4135 8.4375 62.5779 8.4375H68.0018C69.8411 8.4375 71.516 7.11422 71.7002 5.28469C71.9111 3.17953 70.2644 1.40625 68.2029 1.40625H21.9977C20.1583 1.40625 18.4835 2.72953 18.2993 4.55906C18.0883 6.66422 19.735 8.4375 21.7966 8.4375H26.7185C28.2724 8.4375 29.531 9.69609 29.531 11.25C29.531 12.8039 28.2724 14.0625 26.7185 14.0625H8.70301C5.76957 14.0625 3.13707 16.1916 2.84176 19.1109C2.50285 22.4606 5.15363 25.3125 8.43723 25.3125H11.9529C14.6711 25.3125 16.8747 27.5161 16.8747 30.2344C16.8747 32.9527 14.6711 35.1562 11.9529 35.1562H7.29676C4.36332 35.1562 1.73082 37.2853 1.43551 40.2047C1.0966 43.5544 3.74738 46.4062 7.03098 46.4062H30.9372V61.875H8.43723C6.11691 61.875 4.21848 63.7734 4.21848 66.0938C4.21848 68.4141 6.11691 70.3125 8.43723 70.3125C9.99113 70.3125 11.2497 71.5711 11.2497 73.125C11.2497 74.6789 9.99113 75.9375 8.43723 75.9375H5.89051C2.95707 75.9375 0.32457 78.0666 0.0292576 80.9859C-0.309649 84.3356 2.34113 87.1875 5.62473 87.1875H82.7027C85.6361 87.1875 88.2686 85.0584 88.5639 82.1391C88.9028 78.7894 86.2521 75.9375 82.9685 75.9375Z" fill="#E7FAEA"/>
<path d="M71.7188 16.875H19.6875C16.5811 16.875 14.0625 19.3936 14.0625 22.5V73.125C14.0625 76.2314 16.5811 78.75 19.6875 78.75H71.7188C74.8252 78.75 77.3438 76.2314 77.3438 73.125V22.5C77.3438 19.3936 74.8252 16.875 71.7188 16.875Z" fill="url(#paint0_linear_2221_2361)"/>
<path d="M14.0625 64.6875V73.125C14.0625 76.2314 16.5811 78.75 19.6875 78.75H71.7188C74.8252 78.75 77.3438 76.2314 77.3438 73.125V64.6875H14.0625Z" fill="url(#paint1_linear_2221_2361)"/>
<path d="M42.1875 74.5312H68.9062C70.4531 74.5312 71.7188 73.2656 71.7188 71.7188C71.7188 70.1719 70.4531 68.9062 68.9062 68.9062H42.1875C40.6406 68.9062 39.375 70.1719 39.375 71.7188C39.375 73.2656 40.6406 74.5312 42.1875 74.5312Z" fill="#F1FCFF"/>
<path d="M22.5 74.5312C24.0469 74.5312 25.3125 73.2656 25.3125 71.7188C25.3125 70.1719 24.0469 68.9062 22.5 68.9062C20.9531 68.9062 19.6875 70.1719 19.6875 71.7188C19.6875 73.2656 20.9531 74.5312 22.5 74.5312Z" fill="url(#paint2_linear_2221_2361)"/>
<path d="M32.3438 74.5312C33.8906 74.5312 35.1562 73.2656 35.1562 71.7188C35.1562 70.1719 33.8906 68.9062 32.3438 68.9062C30.7969 68.9062 29.5312 70.1719 29.5312 71.7188C29.5312 73.2656 30.7969 74.5312 32.3438 74.5312Z" fill="url(#paint3_linear_2221_2361)"/>
<rect x="20" y="28" width="51" height="6" rx="3" fill="white"/>
<rect x="20" y="39" width="37" height="7" rx="3.5" fill="white"/>
<defs>
<linearGradient id="paint0_linear_2221_2361" x1="44.661" y1="46.1672" x2="30.3409" y2="265.559" gradientUnits="userSpaceOnUse">
<stop stop-color="#00D772"/>
<stop offset="0.318" stop-color="#00D272"/>
<stop offset="0.669" stop-color="#00C570"/>
<stop offset="0.996" stop-color="#00B26E"/>
<stop offset="1" stop-color="#00B26E"/>
</linearGradient>
<linearGradient id="paint1_linear_2221_2361" x1="81.5" y1="61" x2="34.6179" y2="107.683" gradientUnits="userSpaceOnUse">
<stop stop-color="#00D772"/>
<stop offset="0.746" stop-color="#00B26E"/>
<stop offset="1" stop-color="#00B26E"/>
</linearGradient>
<linearGradient id="paint2_linear_2221_2361" x1="22.5" y1="79.0453" x2="22.5" y2="66.8334" gradientUnits="userSpaceOnUse">
<stop stop-color="#FEAA53"/>
<stop offset="0.612" stop-color="#FFCD49"/>
<stop offset="1" stop-color="#FFDE44"/>
</linearGradient>
<linearGradient id="paint3_linear_2221_2361" x1="32.3437" y1="69" x2="32.3437" y2="77" gradientUnits="userSpaceOnUse">
<stop stop-color="#FA7575"/>
<stop offset="1" stop-color="#BA3232"/>
</linearGradient>
</defs>
</svg>
