<svg width="91" height="90" viewBox="0 0 91 90" fill="none" xmlns="http://www.w3.org/2000/svg">
<g clip-path="url(#clip0_2221_2373)">
<path d="M8.76953 5.625C8.76953 2.51859 11.2881 0 14.3945 0C17.5009 0 20.0195 2.51859 20.0195 5.625C20.0195 8.73141 17.5009 11.25 14.3945 11.25C11.2881 11.25 8.76953 8.73141 8.76953 5.625ZM10.8789 90C13.5972 90 15.8008 87.7964 15.8008 85.0781C15.8008 82.3598 13.5972 80.1562 10.8789 80.1562C8.16062 80.1562 5.95703 82.3598 5.95703 85.0781C5.95703 87.7964 8.16062 90 10.8789 90ZM81.1914 35.1562H67.1289C64.4106 35.1562 62.207 37.3598 62.207 40.0781C62.207 42.7964 64.4106 45 67.1289 45H69.2383C72.3447 45 74.8633 47.5186 74.8633 50.625C74.8633 53.7314 72.3447 56.25 69.2383 56.25H68.5352C66.5931 56.25 65.0195 57.8236 65.0195 59.7656C65.0195 61.7077 66.5931 63.2812 68.5352 63.2812H76.2695C79.3759 63.2812 81.8945 65.7998 81.8945 68.9062C81.8945 72.0127 79.3759 74.5312 76.2695 74.5312H65.0195C63.4656 74.5312 62.207 75.7898 62.207 77.3438C62.207 78.8977 63.4656 80.1562 65.0195 80.1562H65.7227C68.4409 80.1562 70.6445 82.3598 70.6445 85.0781C70.6445 87.7964 68.4409 90 65.7227 90H24.9414C22.2231 90 20.0195 87.7964 20.0195 85.0781C20.0195 82.3598 22.2231 80.1562 24.9414 80.1562C26.8834 80.1562 28.457 78.5827 28.457 76.6406C28.457 74.6986 26.8834 73.125 24.9414 73.125H12.9883C9.88188 73.125 7.36328 70.6064 7.36328 67.5C7.36328 64.3936 9.88188 61.875 12.9883 61.875H19.3164C22.0347 61.875 24.2383 59.6714 24.2383 56.9531C24.2383 54.2348 22.0347 52.0312 19.3164 52.0312H7.36328C3.48063 52.0312 0.332031 48.8827 0.332031 45C0.332031 41.1173 3.48063 37.9688 7.36328 37.9688H11.582C13.9122 37.9688 15.8008 36.0802 15.8008 33.75C15.8008 31.4198 13.9122 29.5312 11.582 29.5312H8.06641C5.34812 29.5312 3.14453 27.3277 3.14453 24.6094C3.14453 21.8911 5.34812 19.6875 8.06641 19.6875H34.082C36.4122 19.6875 38.3008 17.7989 38.3008 15.4688C38.3008 13.1386 36.4122 11.25 34.082 11.25H31.2695C28.1631 11.25 25.6445 8.73141 25.6445 5.625C25.6445 2.51859 28.1631 0 31.2695 0H65.0195C68.1259 0 70.6445 2.51859 70.6445 5.625C70.6445 8.73141 68.1259 11.25 65.0195 11.25H62.207C59.1006 11.25 56.582 13.7686 56.582 16.875C56.582 19.9814 59.1006 22.5 62.207 22.5H81.1914C84.6859 22.5 87.5195 25.3336 87.5195 28.8281C87.5195 32.3227 84.6859 35.1562 81.1914 35.1562ZM88.9258 50.625C88.9258 47.5186 86.4072 45 83.3008 45C80.1944 45 77.6758 47.5186 77.6758 50.625C77.6758 53.7314 80.1944 56.25 83.3008 56.25C86.4072 56.25 88.9258 53.7314 88.9258 50.625Z" fill="#E7FAEA"/>
<path d="M78.8655 70.3097L78.8739 70.3013L61.6741 53.1014C64.6708 48.555 66.4258 43.1184 66.4258 37.2656C66.4258 21.3441 53.5192 8.4375 37.5977 8.4375C21.6761 8.4375 8.76953 21.3441 8.76953 37.2656C8.76953 53.1872 21.6761 66.0938 37.5977 66.0938C43.4519 66.0938 48.8912 64.3373 53.4391 61.3392L70.6403 78.5362C72.8087 80.7047 76.3216 80.7047 78.4886 78.5362L78.8655 78.1594C81.0297 75.9909 81.0297 72.4781 78.8655 70.3097Z" fill="url(#paint0_linear_2221_2373)"/>
<path d="M37.5977 16.875C32.1897 16.875 27.0033 19.0233 23.1793 22.8473C19.3553 26.6713 17.207 31.8577 17.207 37.2656C17.207 42.6736 19.3553 47.86 23.1793 51.684C27.0033 55.508 32.1897 57.6562 37.5977 57.6562C43.0056 57.6562 48.192 55.508 52.016 51.684C55.84 47.86 57.9883 42.6736 57.9883 37.2656C57.9883 31.8577 55.84 26.6713 52.016 22.8473C48.192 19.0233 43.0056 16.875 37.5977 16.875Z" fill="url(#paint1_linear_2221_2373)"/>
<path d="M37.5977 16.875C39.5397 16.875 41.1133 18.4486 41.1133 20.3906C41.1133 22.3327 39.5397 23.9062 37.5977 23.9062H32.6758C31.1219 23.9062 29.8633 25.1648 29.8633 26.7188C29.8633 28.2727 31.1219 29.5312 32.6758 29.5312H33.3789C35.3209 29.5312 36.8945 31.1048 36.8945 33.0469C36.8945 34.9889 35.3209 36.5625 33.3789 36.5625H27.0508C25.4969 36.5625 24.2383 37.8211 24.2383 39.375C24.2383 40.9289 25.4969 42.1875 27.0508 42.1875H27.7539C29.6959 42.1875 31.2695 43.7611 31.2695 45.7031C31.2695 47.6452 29.6959 49.2188 27.7539 49.2188H21.1023C18.6625 45.8578 17.207 41.7361 17.207 37.2656C17.207 26.0044 26.3364 16.875 37.5977 16.875ZM43.2227 29.5312C41.2806 29.5312 39.707 31.1048 39.707 33.0469C39.707 34.9889 41.2806 36.5625 43.2227 36.5625C45.1647 36.5625 46.7383 34.9889 46.7383 33.0469C46.7383 31.1048 45.1647 29.5312 43.2227 29.5312Z" fill="url(#paint2_linear_2221_2373)"/>
</g>
<defs>
<linearGradient id="paint0_linear_2221_2373" x1="44.6289" y1="8.4375" x2="44.6289" y2="80.1619" gradientUnits="userSpaceOnUse">
<stop stop-color="#A4A4A4"/>
<stop offset="0.63" stop-color="#7F7F7F"/>
<stop offset="1" stop-color="#6F6F6F"/>
</linearGradient>
<linearGradient id="paint1_linear_2221_2373" x1="40.0206" y1="5.44029" x2="33.2527" y2="94.3248" gradientUnits="userSpaceOnUse">
<stop stop-color="#00D772"/>
<stop offset="0.746" stop-color="#00B26E"/>
<stop offset="1" stop-color="#00B26E"/>
</linearGradient>
<linearGradient id="paint2_linear_2221_2373" x1="31.4863" y1="32.1868" x2="23.1106" y2="146.745" gradientUnits="userSpaceOnUse">
<stop stop-color="#00D772"/>
<stop offset="0.318" stop-color="#00D272"/>
<stop offset="0.669" stop-color="#00C570"/>
<stop offset="0.996" stop-color="#00B26E"/>
<stop offset="1" stop-color="#00B26E"/>
</linearGradient>
<clipPath id="clip0_2221_2373">
<rect width="90" height="90" fill="white" transform="translate(0.332031)"/>
</clipPath>
</defs>
</svg>
