<svg width="91" height="90" viewBox="0 0 91 90" fill="none" xmlns="http://www.w3.org/2000/svg">
<g clip-path="url(#clip0_2221_2299)">
<path d="M83.3005 22.5H86.113C88.7118 22.5 90.7804 20.1192 90.2474 17.4305C89.8494 15.4294 87.9693 14.0625 85.9288 14.0625H71.3474C70.183 14.0625 69.238 13.1175 69.238 11.9531C69.238 10.7888 70.183 9.84375 71.3474 9.84375H79.6611C81.2629 9.84375 82.7577 8.82984 83.1725 7.28297C83.7997 4.94437 82.0293 2.8125 79.7849 2.8125H48.1443H46.0349H12.2849C9.57786 2.8125 7.36302 5.02734 7.36302 7.73438C7.36302 10.4414 9.57786 12.6562 12.2849 12.6562H14.3943C15.9482 12.6562 17.2068 13.9148 17.2068 15.4688C17.2068 17.0227 15.9482 18.2812 14.3943 18.2812H6.82161C4.47318 18.2812 2.32864 19.8591 1.84771 22.1583C1.18677 25.3153 3.61114 28.125 6.65989 28.125H17.2068L12.988 45H5.41536C3.06693 45 0.922395 46.5778 0.441457 48.877C-0.21948 52.0341 2.20489 54.8438 5.25364 54.8438H5.95677C7.51068 54.8438 8.76927 56.1023 8.76927 57.6562C8.76927 59.2102 7.51068 60.4688 5.95677 60.4688H5.25364C2.20489 60.4688 -0.21948 63.2784 0.441457 66.4355C0.922395 68.7347 3.06693 70.3125 5.41536 70.3125H12.988C14.5419 70.3125 15.8005 71.5711 15.8005 73.125C15.8005 74.6789 14.5419 75.9375 12.988 75.9375H11.0404C8.69193 75.9375 6.54739 77.5153 6.06646 79.8145C5.40552 82.9716 7.82989 85.7812 10.8786 85.7812H43.9171H46.0349H48.1443H79.0818C81.4119 85.7812 83.3005 83.8927 83.3005 81.5625C83.3005 79.2323 81.4119 77.3438 79.0818 77.3438H78.3786C76.4366 77.3438 74.863 75.7702 74.863 73.8281C74.863 71.8861 76.4366 70.3125 78.3786 70.3125H84.7068C87.0369 70.3125 88.9255 68.4239 88.9255 66.0938C88.9255 63.7636 87.0369 61.875 84.7068 61.875H72.9266C75.9374 56.9616 77.6755 51.1847 77.6755 45C77.6755 41.5673 77.1355 38.2612 76.1455 35.1562H85.2875C86.8893 35.1562 88.3841 34.1423 88.799 32.5955C89.4247 30.2569 87.6543 28.125 85.4099 28.125H83.3005C81.7466 28.125 80.488 26.8664 80.488 25.3125C80.488 23.7586 81.7466 22.5 83.3005 22.5Z" fill="#E7FAEA"/>
<path d="M34.0595 56.2219V73.125C34.0595 74.6719 32.7939 75.9375 31.247 75.9375H14.372C11.897 75.9375 10.6455 72.9422 12.4033 71.1844L17.9397 65.6381C13.0867 59.6095 10.1758 51.9342 10.1758 43.5938C10.1758 35.2434 13.0923 27.5597 17.9566 21.5283C19.2194 19.9631 21.5495 19.8112 22.9713 21.233L23.2019 21.4636C24.4366 22.6983 24.4802 24.6431 23.3875 26.0058C19.5217 30.8236 17.207 36.9408 17.207 43.5938C17.207 49.9908 19.3628 55.8787 22.9642 60.6066L29.3064 54.2531C31.0642 52.5094 34.0595 53.7469 34.0595 56.2219ZM72.7272 21.555L78.2664 16.0256C80.0102 14.2678 78.7727 11.2725 76.2977 11.2725H59.3945C57.8477 11.2725 56.582 12.5381 56.582 14.085V30.96C56.582 33.435 59.5773 34.6866 61.3352 32.9288L67.697 26.5781C71.2998 31.3045 73.457 37.1953 73.457 43.5938C73.457 50.2467 71.1423 56.3639 67.2752 61.1817C66.1825 62.543 66.2261 64.4892 67.4608 65.7239L67.6914 65.9545C69.1131 67.3763 71.4447 67.2244 72.7061 65.6592C77.5717 59.6278 80.4883 51.9441 80.4883 43.5938C80.4883 35.2547 77.5788 27.5822 72.7272 21.555ZM31.9727 11.25C30.0306 11.25 28.457 12.8236 28.457 14.7656C28.457 16.7077 30.0306 18.2812 31.9727 18.2812C33.9147 18.2812 35.4883 16.7077 35.4883 14.7656C35.4883 12.8236 33.9147 11.25 31.9727 11.25ZM47.4414 8.4375C45.4994 8.4375 43.9258 10.0111 43.9258 11.9531C43.9258 13.8952 45.4994 15.4688 47.4414 15.4688C49.3834 15.4688 50.957 13.8952 50.957 11.9531C50.957 10.0111 49.3834 8.4375 47.4414 8.4375ZM58.6914 68.9062C56.7494 68.9062 55.1758 70.4798 55.1758 72.4219C55.1758 74.3639 56.7494 75.9375 58.6914 75.9375C60.6334 75.9375 62.207 74.3639 62.207 72.4219C62.207 70.4798 60.6334 68.9062 58.6914 68.9062ZM43.2227 71.7188C41.2806 71.7188 39.707 73.2923 39.707 75.2344C39.707 77.1764 41.2806 78.75 43.2227 78.75C45.1647 78.75 46.7383 77.1764 46.7383 75.2344C46.7383 73.2923 45.1647 71.7188 43.2227 71.7188Z" fill="url(#paint0_linear_2221_2299)"/>
</g>
<defs>
<linearGradient id="paint0_linear_2221_2299" x1="45.332" y1="8.4375" x2="45.332" y2="92.5847" gradientUnits="userSpaceOnUse">
<stop stop-color="#42D778"/>
<stop offset="0.428" stop-color="#3DCA76"/>
<stop offset="1" stop-color="#34B171"/>
</linearGradient>
<clipPath id="clip0_2221_2299">
<rect width="90" height="90" fill="white" transform="translate(0.332031)"/>
</clipPath>
</defs>
</svg>
