<svg width="91" height="90" viewBox="0 0 91 90" fill="none" xmlns="http://www.w3.org/2000/svg">
<g clip-path="url(#clip0_2221_2344)">
<path d="M4.88477 90C7.21472 90 9.10352 88.1112 9.10352 85.7812C9.10352 83.4513 7.21472 81.5625 4.88477 81.5625C2.55481 81.5625 0.666016 83.4513 0.666016 85.7812C0.666016 88.1112 2.55481 90 4.88477 90Z" fill="#E7FAEA"/>
<path d="M70.2754 75.9375H85.041C88.3344 75.9375 90.9782 73.0927 90.6365 69.743C90.3384 66.8194 87.7016 64.6875 84.7626 64.6875H75.4504C75.2957 64.2516 75.1973 63.7734 75.1973 63.2812V28.8281C75.1973 28.5891 75.2254 28.35 75.2676 28.125C75.591 26.5219 77.0113 25.3125 78.7129 25.3125H79.177C81.2723 25.3125 83.2129 23.9062 83.5785 21.8531C84.0426 19.1812 81.9895 16.875 79.416 16.875H66.0566C65.0863 16.875 64.2004 16.4813 63.5676 15.8484C62.9812 15.262 62.6001 14.4591 62.548 13.5717C62.4257 11.5256 64.2313 9.84375 66.2816 9.84375H71.4004C74.2129 9.84375 76.702 7.55156 76.6035 4.73906C76.5473 3.45937 76.0129 2.29219 75.1551 1.44844C74.2691 0.548437 73.0316 0 71.6816 0H17.0404C15.1982 0 13.5205 1.32609 13.3377 3.15844C13.1282 5.26219 14.7777 7.03125 16.8379 7.03125H19.4535C21.3421 7.03125 23.062 8.42766 23.1674 10.312C23.2279 11.3822 22.8215 12.3539 22.1395 13.0359C21.5066 13.6688 20.6207 14.0625 19.6504 14.0625H9.34258C7.24727 14.0625 5.30664 15.4688 4.94102 17.5219C4.47695 20.1938 6.53008 22.5 9.10352 22.5H13.3223C15.6524 22.5 17.541 24.3886 17.541 26.7188V63.7172C17.541 64.0547 17.4848 64.3781 17.4004 64.6875H8.40039C7.05039 64.6875 5.81289 65.2359 4.92695 66.1359C4.02695 67.0219 3.47852 68.2594 3.47852 69.6094C3.47852 71.6766 4.77227 73.4625 6.58633 74.1656L6.60039 74.1797C7.16289 74.4047 7.76758 74.5312 8.40039 74.5312H22.4629C24.4049 74.5312 25.9785 76.1048 25.9785 78.0469C25.9785 79.9889 24.4049 81.5625 22.4629 81.5625H16.1348C13.8004 81.5625 11.916 83.4469 11.916 85.7812C11.916 85.8797 11.916 85.9922 11.9301 86.0906C12.0004 87.1313 12.4645 88.0734 13.1535 88.7625C13.9129 89.5219 14.9676 90 16.1348 90H81.5254C83.7684 90 85.5304 87.8906 84.9229 85.5759C84.5066 83.9911 82.9527 82.9688 81.3145 82.9688H71.4004C68.602 82.9688 66.8863 81.5906 66.7598 79.7203C66.6895 78.6375 67.0973 77.6531 67.7863 76.9641C68.4191 76.3313 69.3051 75.9375 70.2754 75.9375Z" fill="#E7FAEA"/>
<path d="M85.7441 9.84375C88.4624 9.84375 90.666 7.64015 90.666 4.92188C90.666 2.2036 88.4624 0 85.7441 0C83.0259 0 80.8223 2.2036 80.8223 4.92188C80.8223 7.64015 83.0259 9.84375 85.7441 9.84375Z" fill="#E7FAEA"/>
<path d="M45.666 71.7188H44.2598C38.047 71.7188 33.0098 76.7559 33.0098 82.9688C33.0098 84.5227 34.2684 85.7812 35.8223 85.7812H54.1035C55.6574 85.7812 56.916 84.5227 56.916 82.9688C56.916 76.7559 51.8788 71.7188 45.666 71.7188Z" fill="url(#paint0_linear_2221_2344)"/>
<path d="M35.8223 60.3028C35.8223 55.2558 39.9145 50.625 44.9629 50.625C50.0113 50.625 54.1035 55.2558 54.1035 60.3028C54.1035 65.3512 50.0113 68.9062 44.9629 68.9062C39.9145 68.9062 35.8223 65.3512 35.8223 60.3028Z" fill="url(#paint1_linear_2221_2344)"/>
<path d="M53.0699 48.6394C48.0932 48.6394 47.5827 46.4062 43.1179 46.4062C39.3857 46.4062 36.898 48.4059 36.898 50.8725C36.898 51.4364 37.0949 51.9736 37.4409 52.4714C36.4438 53.4853 35.8223 54.8944 35.8223 56.4567V59.8064C37.116 59.8064 38.2734 58.9725 38.7276 57.7153L39.9384 54.36C41.3221 54.9717 43.0729 55.3388 44.9826 55.3388C46.9696 55.3388 48.6304 54.9309 49.9705 54.3206L51.1954 57.7139C51.6496 58.9711 52.807 59.805 54.1007 59.805V56.4553C54.1007 54.9366 53.5129 53.5655 52.5665 52.5586C54.4213 50.7178 54.6013 48.6394 53.0699 48.6394Z" fill="url(#paint2_linear_2221_2344)"/>
<path d="M45.666 29.5312H44.2598C38.047 29.5312 33.0098 34.5684 33.0098 40.7812C33.0098 42.3352 34.2684 43.5938 35.8223 43.5938H54.1035C55.6574 43.5938 56.916 42.3352 56.916 40.7812C56.916 34.5684 51.8788 29.5312 45.666 29.5312Z" fill="url(#paint3_linear_2221_2344)"/>
<path d="M35.8223 18.1153C35.8223 13.0683 39.9145 8.4375 44.9629 8.4375C50.0113 8.4375 54.1035 13.0683 54.1035 18.1153C54.1035 23.1623 50.0113 26.7188 44.9629 26.7188C39.9145 26.7188 35.8223 23.1637 35.8223 18.1153Z" fill="url(#paint4_linear_2221_2344)"/>
<path d="M53.0699 6.45187C48.0946 6.45187 47.5841 4.21875 43.1179 4.21875C39.3857 4.21875 36.898 6.21844 36.898 8.685C36.898 9.24891 37.0949 9.78609 37.4409 10.2839C36.4438 11.2978 35.8223 12.7069 35.8223 14.2692V17.6189C37.116 17.6189 38.2734 16.785 38.7276 15.5278L39.9384 12.1725C41.3221 12.7842 43.0729 13.1512 44.9826 13.1512C46.9696 13.1512 48.6304 12.7434 49.9705 12.1331L51.1954 15.5264C51.6496 16.7836 52.807 17.6175 54.1007 17.6175V14.2678C54.1007 12.7491 53.5129 11.378 52.5665 10.3711C54.4213 8.53031 54.6013 6.45187 53.0699 6.45187Z" fill="url(#paint5_linear_2221_2344)"/>
<path d="M17.541 50.625H16.1348C9.92195 50.625 4.88477 55.6622 4.88477 61.875C4.88477 63.4289 6.14336 64.6875 7.69727 64.6875H25.9785C27.5324 64.6875 28.791 63.4289 28.791 61.875C28.791 55.6622 23.7538 50.625 17.541 50.625Z" fill="url(#paint6_linear_2221_2344)"/>
<path d="M7.69727 39.2091C7.69727 34.162 11.7895 29.5312 16.8379 29.5312C21.8863 29.5312 25.9785 34.162 25.9785 39.2091C25.9785 44.2561 21.8863 47.8125 16.8379 47.8125C11.7895 47.8125 7.69727 44.2575 7.69727 39.2091Z" fill="url(#paint7_linear_2221_2344)"/>
<path d="M24.9449 27.5456C19.9682 27.5456 19.4577 25.3125 14.9929 25.3125C11.2607 25.3125 8.77305 27.3122 8.77305 29.7788C8.77305 30.3427 8.96992 30.8798 9.31586 31.3777C8.31883 32.3916 7.69727 33.8006 7.69727 35.363V38.7127C8.99102 38.7127 10.1484 37.8787 10.6026 36.6216L11.8134 33.2663C13.1971 33.878 14.9479 34.245 16.8576 34.245C18.8446 34.245 20.5054 33.8372 21.8455 33.2269L23.0704 36.6202C23.5246 37.8773 24.682 38.7113 25.9757 38.7113V35.3616C25.9757 33.8428 25.3879 32.4717 24.4415 31.4648C26.2963 29.6241 26.4763 27.5456 24.9449 27.5456Z" fill="url(#paint8_linear_2221_2344)"/>
<path d="M75.1973 50.625H73.791C67.5782 50.625 62.541 55.6622 62.541 61.875C62.541 63.4289 63.7996 64.6875 65.3535 64.6875H83.6348C85.1887 64.6875 86.4473 63.4289 86.4473 61.875C86.4473 55.6622 81.4101 50.625 75.1973 50.625Z" fill="url(#paint9_linear_2221_2344)"/>
<path d="M65.3535 39.2091C65.3535 34.162 69.4457 29.5312 74.4941 29.5312C79.5426 29.5312 83.6348 34.162 83.6348 39.2091C83.6348 44.2561 79.5426 47.8125 74.4941 47.8125C69.4457 47.8125 65.3535 44.2575 65.3535 39.2091Z" fill="url(#paint10_linear_2221_2344)"/>
<path d="M82.6012 27.5456C77.6245 27.5456 77.114 25.3125 72.6491 25.3125C68.917 25.3125 66.4293 27.3122 66.4293 29.7788C66.4293 30.3427 66.6262 30.8798 66.9721 31.3777C65.9751 32.3916 65.3535 33.8006 65.3535 35.363V38.7127C66.6473 38.7127 67.8046 37.8787 68.2588 36.6216L69.4696 33.2663C70.8534 33.878 72.6041 34.245 74.5138 34.245C76.5009 34.245 78.1616 33.8372 79.5018 33.2269L80.7266 36.6202C81.1809 37.8773 82.3382 38.7113 83.632 38.7113V35.3616C83.632 33.8428 83.0441 32.4717 82.0977 31.4648C83.9526 29.6241 84.1326 27.5456 82.6012 27.5456Z" fill="url(#paint11_linear_2221_2344)"/>
</g>
<defs>
<linearGradient id="paint0_linear_2221_2344" x1="44.9629" y1="85.8839" x2="44.9629" y2="72.2602" gradientUnits="userSpaceOnUse">
<stop stop-color="#42BFEC"/>
<stop offset="0.441" stop-color="#5ECEF2"/>
<stop offset="1" stop-color="#88E4FC"/>
</linearGradient>
<linearGradient id="paint1_linear_2221_2344" x1="44.9629" y1="75.8616" x2="44.9629" y2="54.72" gradientUnits="userSpaceOnUse">
<stop stop-color="#FFC662"/>
<stop offset="0.004" stop-color="#FFC662"/>
<stop offset="0.609" stop-color="#FFC582"/>
<stop offset="1" stop-color="#FFC491"/>
</linearGradient>
<linearGradient id="paint2_linear_2221_2344" x1="44.9615" y1="46.4062" x2="44.9615" y2="66.728" gradientUnits="userSpaceOnUse">
<stop stop-color="#FF8B67"/>
<stop offset="0.847" stop-color="#FFA76A"/>
<stop offset="1" stop-color="#FFAD6B"/>
</linearGradient>
<linearGradient id="paint3_linear_2221_2344" x1="44.9629" y1="55.1433" x2="44.9629" y2="26.0817" gradientUnits="userSpaceOnUse">
<stop stop-color="#FF634D"/>
<stop offset="0.204" stop-color="#FE6464"/>
<stop offset="0.521" stop-color="#FC6581"/>
<stop offset="0.794" stop-color="#FA6694"/>
<stop offset="0.989" stop-color="#FA669A"/>
<stop offset="1" stop-color="#FA669A"/>
</linearGradient>
<linearGradient id="paint4_linear_2221_2344" x1="44.9629" y1="33.6741" x2="44.9629" y2="12.5325" gradientUnits="userSpaceOnUse">
<stop stop-color="#FFC662"/>
<stop offset="0.004" stop-color="#FFC662"/>
<stop offset="0.609" stop-color="#FFC582"/>
<stop offset="1" stop-color="#FFC491"/>
</linearGradient>
<linearGradient id="paint5_linear_2221_2344" x1="44.9615" y1="6.91172" x2="44.9615" y2="25.0861" gradientUnits="userSpaceOnUse">
<stop stop-color="#A4A4A4"/>
<stop offset="0.619" stop-color="#808080"/>
<stop offset="1" stop-color="#6F6F6F"/>
</linearGradient>
<linearGradient id="paint6_linear_2221_2344" x1="16.8379" y1="64.7902" x2="16.8379" y2="51.1664" gradientUnits="userSpaceOnUse">
<stop stop-color="#FEAA53"/>
<stop offset="0.612" stop-color="#FFCD49"/>
<stop offset="1" stop-color="#FFDE44"/>
</linearGradient>
<linearGradient id="paint7_linear_2221_2344" x1="16.8379" y1="54.7678" x2="16.8379" y2="33.6262" gradientUnits="userSpaceOnUse">
<stop stop-color="#FFC662"/>
<stop offset="0.004" stop-color="#FFC662"/>
<stop offset="0.609" stop-color="#FFC582"/>
<stop offset="1" stop-color="#FFC491"/>
</linearGradient>
<linearGradient id="paint8_linear_2221_2344" x1="16.8365" y1="25.6922" x2="16.8365" y2="37.9744" gradientUnits="userSpaceOnUse">
<stop offset="0.122" stop-color="#5E6D7B"/>
<stop offset="0.191" stop-color="#5D6B79"/>
<stop offset="1" stop-color="#515C69"/>
</linearGradient>
<linearGradient id="paint9_linear_2221_2344" x1="74.4941" y1="50.2959" x2="74.4941" y2="64.5145" gradientUnits="userSpaceOnUse">
<stop stop-color="#42D778"/>
<stop offset="0.996" stop-color="#34B171"/>
<stop offset="1" stop-color="#34B171"/>
</linearGradient>
<linearGradient id="paint10_linear_2221_2344" x1="74.4941" y1="54.7678" x2="74.4941" y2="33.6262" gradientUnits="userSpaceOnUse">
<stop stop-color="#FFC662"/>
<stop offset="0.004" stop-color="#FFC662"/>
<stop offset="0.609" stop-color="#FFC582"/>
<stop offset="1" stop-color="#FFC491"/>
</linearGradient>
<linearGradient id="paint11_linear_2221_2344" x1="74.4688" y1="38.1009" x2="74.7529" y2="25.1817" gradientUnits="userSpaceOnUse">
<stop stop-color="#E3714D"/>
<stop offset="0.25" stop-color="#E4754E"/>
<stop offset="1" stop-color="#E77B50"/>
</linearGradient>
<clipPath id="clip0_2221_2344">
<rect width="90" height="90" fill="white" transform="translate(0.666016)"/>
</clipPath>
</defs>
</svg>
