<svg width="91" height="90" viewBox="0 0 91 90" fill="none" xmlns="http://www.w3.org/2000/svg">
<g clip-path="url(#clip0_2221_2271)">
<path d="M85.7413 57.7046H70.9757C68.6455 57.7046 66.7569 55.816 66.7569 53.4858V52.0796C66.7569 49.7494 68.6455 47.8608 70.9757 47.8608H82.9288C85.6471 47.8608 87.8507 45.6572 87.8507 42.939C87.8507 40.2207 85.6471 38.0171 82.9288 38.0171H79.5833C78.1813 38.0171 76.8735 37.0679 76.6401 35.6841C76.3462 33.9277 77.7088 32.3921 79.4132 32.3921H85.7413C88.7971 32.3921 91.2187 29.5726 90.5479 26.4169C90.0599 24.1205 87.914 22.5483 85.5669 22.5483H73.7882C72.0838 22.5483 70.7212 21.0127 71.0165 19.2563C71.2485 17.8726 72.5563 16.9233 73.9583 16.9233H79.9405C82.2876 16.9233 84.4349 15.3512 84.9215 13.0547C85.5937 9.89912 83.1721 7.07959 80.1163 7.07959H11.2101C8.14725 7.07959 5.7285 9.91037 6.4021 13.0632C6.89006 15.3554 9.03319 16.9233 11.3774 16.9233H19.7882C21.4926 16.9233 22.8552 18.459 22.5599 20.2154C22.3279 21.5991 21.0201 22.5483 19.618 22.5483H5.75944C3.41241 22.5483 1.26506 24.1205 0.778502 26.4169C0.107721 29.5726 2.52928 32.3921 5.58506 32.3921H25.9757V40.8296H7.16569C4.81866 40.8296 2.67131 42.4018 2.18475 44.6982C1.51397 47.8538 3.93553 50.6733 6.99131 50.6733H10.9851C13.0354 50.6733 14.841 52.3552 14.7187 54.4013C14.6652 55.2872 14.2841 56.0916 13.6991 56.678C13.0663 57.3108 12.1804 57.7046 11.2101 57.7046H5.58506C2.52928 57.7046 0.107721 60.5241 0.778502 63.6797C1.26647 65.9762 3.41241 67.5483 5.75944 67.5483H18.9444C20.6488 67.5483 22.0115 69.084 21.7162 70.8404C21.4841 72.2241 20.1763 73.1733 18.7743 73.1733H9.97819C7.63116 73.1733 5.48381 74.7455 4.99725 77.0419C4.32647 80.1976 6.74803 83.0171 9.80381 83.0171H81.5226C84.5685 83.0171 87.0055 80.1891 86.3319 77.0391C85.8398 74.7413 83.6882 73.1733 81.3398 73.1733H72.3819C70.6776 73.1733 69.3149 71.6377 69.6102 69.8813C69.8422 68.4976 71.1501 67.5483 72.5521 67.5483H85.5655C87.9126 67.5483 90.0599 65.9762 90.5465 63.6797C91.2187 60.5241 88.7971 57.7046 85.7413 57.7046Z" fill="#E7FAEA"/>
<path d="M79.416 22.5844V67.4156C79.416 72.1266 75.6051 75.9375 70.8941 75.9375H20.4379C15.727 75.9375 11.916 72.1266 11.916 67.4156V22.5844C11.916 17.8734 15.727 14.0625 20.4379 14.0625H70.8941C75.6051 14.0625 79.416 17.8734 79.416 22.5844Z" fill="url(#paint0_linear_2221_2271)"/>
<path d="M24.6946 21.0938H65.1904C68.3868 21.0938 70.9785 23.6855 70.9785 26.8819V63.1181C70.9785 66.3145 68.3868 68.9062 65.1904 68.9062H24.6946C22.297 68.9062 20.3535 66.9628 20.3535 64.5652V25.4348C20.3535 23.0372 22.297 21.0938 24.6946 21.0938Z" fill="#05EF81"/>
<path d="M18.9473 37.9688H21.7598C22.536 37.9688 23.166 37.3387 23.166 36.5625V28.125C23.166 27.3487 22.536 26.7188 21.7598 26.7188H18.9473C18.171 26.7188 17.541 27.3487 17.541 28.125V36.5625C17.541 37.3387 18.171 37.9688 18.9473 37.9688Z" fill="url(#paint1_linear_2221_2271)"/>
<path d="M47.0723 63.2812C57.1687 63.2812 65.3535 55.0965 65.3535 45C65.3535 34.9035 57.1687 26.7188 47.0723 26.7188C36.9758 26.7188 28.791 34.9035 28.791 45C28.791 55.0965 36.9758 63.2812 47.0723 63.2812Z" fill="url(#paint2_linear_2221_2271)"/>
<path d="M47.0723 59.0625C54.8388 59.0625 61.1348 52.7665 61.1348 45C61.1348 37.2335 54.8388 30.9375 47.0723 30.9375C39.3058 30.9375 33.0098 37.2335 33.0098 45C33.0098 52.7665 39.3058 59.0625 47.0723 59.0625Z" fill="white"/>
<path fill-rule="evenodd" clip-rule="evenodd" d="M44.2607 29.5312H49.8857V33.75C49.8857 35.3039 48.6271 36.5625 47.0732 36.5625C45.5193 36.5625 44.2607 35.3039 44.2607 33.75V29.5312ZM33.2261 37.5541L36.7333 33.1567L40.0309 35.7864C41.2459 36.7553 41.4442 38.5244 40.4767 39.7394C39.5078 40.9544 37.7387 41.1527 36.5237 40.1852L33.2261 37.5541ZM31.3672 45.7008L32.6188 51.1852L36.732 50.2458C38.2466 49.8998 39.1944 48.3923 38.8484 46.8778C38.5025 45.3633 36.995 44.4155 35.4805 44.7614L31.3672 45.7008ZM42.8953 60.1561L37.8271 57.7148L39.6581 53.9137C40.3317 52.5145 42.0136 51.9267 43.4128 52.6003C44.812 53.2739 45.3998 54.9558 44.7262 56.355L42.8953 60.1561ZM51.253 60.1583L56.3211 57.717L54.4902 53.9159C53.8152 52.5167 52.1347 51.9289 50.7355 52.6025C49.3363 53.2775 48.7485 54.958 49.4221 56.3572L51.253 60.1583ZM62.7776 45.7008L61.526 51.1852L57.4127 50.2458C55.8982 49.8998 54.9504 48.3923 55.2963 46.8778C55.6423 45.3633 57.1498 44.4155 58.6643 44.7614L62.7776 45.7008ZM60.9187 37.5541L57.4115 33.1567L54.1139 35.785C52.8989 36.7539 52.6992 38.523 53.6681 39.738C54.637 40.953 56.4061 41.1527 57.6211 40.1838L60.9187 37.5541Z" fill="url(#paint3_linear_2221_2271)"/>
<path d="M18.9473 63.2812H21.7598C22.536 63.2812 23.166 62.6512 23.166 61.875V53.4375C23.166 52.6612 22.536 52.0312 21.7598 52.0312H18.9473C18.171 52.0312 17.541 52.6612 17.541 53.4375V61.875C17.541 62.6512 18.171 63.2812 18.9473 63.2812Z" fill="url(#paint4_linear_2221_2271)"/>
</g>
<defs>
<linearGradient id="paint0_linear_2221_2271" x1="49.6764" y1="-3.28671" x2="40.2549" y2="131.697" gradientUnits="userSpaceOnUse">
<stop stop-color="#00D772"/>
<stop offset="0.746" stop-color="#00B26E"/>
<stop offset="1" stop-color="#00B26E"/>
</linearGradient>
<linearGradient id="paint1_linear_2221_2271" x1="20.3534" y1="-14.4912" x2="20.3534" y2="44.8863" gradientUnits="userSpaceOnUse">
<stop stop-color="#00D772"/>
<stop offset="0.746" stop-color="#00B26E"/>
<stop offset="1" stop-color="#00B26E"/>
</linearGradient>
<linearGradient id="paint2_linear_2221_2271" x1="47.0723" y1="26.7188" x2="47.0723" y2="63.2812" gradientUnits="userSpaceOnUse">
<stop stop-color="#A4A4A4"/>
<stop offset="0.63" stop-color="#7F7F7F"/>
<stop offset="1" stop-color="#6F6F6F"/>
</linearGradient>
<linearGradient id="paint3_linear_2221_2271" x1="47.0724" y1="29.5312" x2="47.0724" y2="60.1583" gradientUnits="userSpaceOnUse">
<stop stop-color="#A4A4A4"/>
<stop offset="0.63" stop-color="#7F7F7F"/>
<stop offset="1" stop-color="#6F6F6F"/>
</linearGradient>
<linearGradient id="paint4_linear_2221_2271" x1="20.3534" y1="10.8213" x2="20.3534" y2="70.1988" gradientUnits="userSpaceOnUse">
<stop stop-color="#00D772"/>
<stop offset="0.746" stop-color="#00B26E"/>
<stop offset="1" stop-color="#00B26E"/>
</linearGradient>
<clipPath id="clip0_2221_2271">
<rect width="90" height="90" fill="white" transform="translate(0.666016)"/>
</clipPath>
</defs>
</svg>
