<svg width="90" height="90" viewBox="0 0 90 90" fill="none" xmlns="http://www.w3.org/2000/svg">
<path d="M82.2656 60.4688C85.7602 60.4688 88.5938 63.3023 88.5938 66.7969C88.5938 70.2914 85.7602 73.125 82.2656 73.125H71.7188C70.1648 73.125 68.9062 74.3836 68.9062 75.9375C68.9062 77.4914 70.1648 78.75 71.7188 78.75H75.9375C79.0439 78.75 81.5625 81.2686 81.5625 84.375C81.5625 87.4814 79.0439 90 75.9375 90H19.6875C16.5811 90 14.0625 87.4814 14.0625 84.375C14.0625 81.2686 16.5811 78.75 19.6875 78.75H21.0938C24.2002 78.75 26.7188 76.2314 26.7188 73.125C26.7188 70.0186 24.2002 67.5 21.0938 67.5H10.5469C7.05234 67.5 4.21875 64.6664 4.21875 61.1719C4.21875 57.6773 7.05234 54.8438 10.5469 54.8438H21.0938C23.4239 54.8438 25.3125 52.9552 25.3125 50.625C25.3125 48.2948 23.4239 46.4062 21.0938 46.4062H9.14062C4.86844 46.4062 1.40625 42.9441 1.40625 38.6719C1.40625 34.3997 4.86844 30.9375 9.14062 30.9375H17.5781C21.8503 30.9375 25.3125 27.4753 25.3125 23.2031C25.3125 18.9309 21.8503 15.4688 17.5781 15.4688H13.3594C9.08719 15.4688 5.625 12.0066 5.625 7.73438C5.625 3.46219 9.08719 0 13.3594 0H47.8125C50.9189 0 53.4375 2.51859 53.4375 5.625C53.4375 8.73141 50.9189 11.25 47.8125 11.25H46.4062C44.8523 11.25 43.5938 12.5086 43.5938 14.0625C43.5938 15.6164 44.8523 16.875 46.4062 16.875H60.4688C63.5752 16.875 66.0938 19.3936 66.0938 22.5C66.0938 25.6064 63.5752 28.125 60.4688 28.125H46.4062C44.8523 28.125 43.5938 29.3836 43.5938 30.9375V57.6562C43.5938 59.2102 44.8523 60.4688 46.4062 60.4688H82.2656Z" fill="#E7FAEA"/>
<path d="M70.3125 5.625C70.3125 8.73141 67.7939 11.25 64.6875 11.25C61.5811 11.25 59.0625 8.73141 59.0625 5.625C59.0625 2.51859 61.5811 0 64.6875 0C67.7939 0 70.3125 2.51859 70.3125 5.625Z" fill="#E7FAEA"/>
<path d="M37.9688 18.2812C37.9688 15.1748 35.4502 12.6562 32.3438 12.6562H18.2812C15.1748 12.6562 12.6562 15.1748 12.6562 18.2812V66.0938C12.6562 69.9764 15.8048 73.125 19.6875 73.125H73.125C77.0077 73.125 80.1562 69.9764 80.1562 66.0938V29.5312C80.1562 25.6486 77.0077 22.5 73.125 22.5H42.1875C39.8573 22.5 37.9688 20.6114 37.9688 18.2812Z" fill="url(#paint0_linear_2221_2290)"/>
<path d="M19.6875 22.5H73.125C77.0077 22.5 80.1562 25.6486 80.1562 29.5312V66.0938C80.1562 69.9764 77.0077 73.125 73.125 73.125H19.6875C15.8048 73.125 12.6562 69.9764 12.6562 66.0938V29.5312C12.6562 25.6486 15.8048 22.5 19.6875 22.5Z" fill="url(#paint1_linear_2221_2290)"/>
<path d="M66.0938 27.4219C66.0938 24.7036 63.8902 22.5 61.1719 22.5H19.6875C15.8048 22.5 12.6562 25.6486 12.6562 29.5312V32.3438V43.5938V53.4375V63.2812V66.0938C12.6562 69.9764 15.8048 73.125 19.6875 73.125H33.0469C35.7652 73.125 37.9688 70.9214 37.9688 68.2031C37.9688 65.4848 35.7652 63.2812 33.0469 63.2812H31.6406C28.9223 63.2812 26.7188 61.0777 26.7188 58.3594C26.7188 55.6411 28.9223 53.4375 31.6406 53.4375H42.8906C45.6089 53.4375 47.8125 51.2339 47.8125 48.5156C47.8125 45.7973 45.6089 43.5938 42.8906 43.5938H36.5625C33.4561 43.5938 30.9375 41.0752 30.9375 37.9688C30.9375 34.8623 33.4561 32.3438 36.5625 32.3438H61.1719C63.8902 32.3438 66.0938 30.1402 66.0938 27.4219Z" fill="url(#paint2_linear_2221_2290)"/>
<path d="M33.7496 57.6576C32.9846 57.6576 32.2239 57.3469 31.6684 56.7379L24.6371 49.0036C23.6626 47.9292 23.6626 46.2923 24.6371 45.2194L31.6684 37.485C32.7118 36.3375 34.4921 36.2503 35.6411 37.2965C36.79 38.34 36.8743 40.1203 35.8309 41.2692L30.5195 47.1108L35.8309 52.9523C36.8757 54.1012 36.7914 55.8815 35.6411 56.925C35.1025 57.4158 34.4246 57.6576 33.7496 57.6576ZM61.1434 56.7365L68.1746 49.0022C69.1492 47.9278 69.1492 46.2909 68.1746 45.2179L61.1434 37.4836C60.0971 36.3361 58.3196 36.2489 57.1707 37.2951C56.0218 38.3386 55.9375 40.1189 56.9809 41.2678L62.2923 47.1094L56.9809 52.9509C55.9361 54.0998 56.0204 55.8801 57.1707 56.9236C57.7093 57.4144 58.3871 57.6562 59.0621 57.6562C59.8257 57.6576 60.5879 57.3469 61.1434 56.7365ZM44.8914 62.6498L53.3289 33.1186C53.7564 31.6237 52.8901 30.0684 51.3967 29.6409C49.9046 29.212 48.3465 30.0797 47.9204 31.5717L39.4829 61.103C39.0554 62.5978 39.9217 64.1531 41.4151 64.5806C41.6739 64.6551 41.9326 64.6903 42.1886 64.6903C43.412 64.6903 44.5384 63.8831 44.8914 62.6498Z" fill="white"/>
<defs>
<linearGradient id="paint0_linear_2221_2290" x1="46.4045" y1="-208.847" x2="46.4045" y2="110.307" gradientUnits="userSpaceOnUse">
<stop stop-color="#00D772"/>
<stop offset="0.746" stop-color="#00B26E"/>
<stop offset="1" stop-color="#00B26E"/>
</linearGradient>
<linearGradient id="paint1_linear_2221_2290" x1="50.4166" y1="8.30519" x2="44.0995" y2="118.924" gradientUnits="userSpaceOnUse">
<stop stop-color="#00D772"/>
<stop offset="0.746" stop-color="#00B26E"/>
<stop offset="1" stop-color="#00B26E"/>
</linearGradient>
<linearGradient id="paint2_linear_2221_2290" x1="38.495" y1="46.4663" x2="27.1399" y2="226.016" gradientUnits="userSpaceOnUse">
<stop stop-color="#00D772"/>
<stop offset="0.318" stop-color="#00D272"/>
<stop offset="0.669" stop-color="#00C570"/>
<stop offset="0.996" stop-color="#00B26E"/>
<stop offset="1" stop-color="#00B26E"/>
</linearGradient>
</defs>
</svg>
