<svg width="656" height="622" viewBox="0 0 656 622" fill="none" xmlns="http://www.w3.org/2000/svg">
<g filter="url(#filter0_ddddd_2255_13579)">
<g clip-path="url(#clip0_2255_13579)">
<rect x="149" y="10.8428" width="376.927" height="252.291" rx="11.1959" fill="white"/>
<rect x="149" y="10.8428" width="376.927" height="18.6598" fill="#0D5733"/>
<circle cx="161.129" cy="20.7324" r="2.42577" fill="#FF4949"/>
<circle cx="169.152" cy="20.7324" r="2.42577" fill="#FFD43E"/>
<circle cx="177.176" cy="20.7324" r="2.42577" fill="#16FF72"/>
<rect x="296.039" y="44.4297" width="82.8494" height="82.8494" rx="11.9423" fill="#64B670" fill-opacity="0.22"/>
<path d="M337.277 93.7851C346.037 93.7851 353.138 86.684 353.138 77.9243C353.138 69.1646 346.037 62.0635 337.277 62.0635C328.517 62.0635 321.416 69.1646 321.416 77.9243C321.416 86.684 328.517 93.7851 337.277 93.7851Z" stroke="#0D5733" stroke-width="3.9652" stroke-miterlimit="10"/>
<path d="M313.207 107.663C315.643 103.443 319.147 99.9381 323.367 97.5015C327.587 95.065 332.373 93.7822 337.246 93.7822C342.119 93.7822 346.906 95.065 351.125 97.5015C355.345 99.9381 358.849 103.443 361.285 107.663" stroke="#0D5733" stroke-width="3.9652" stroke-linecap="round" stroke-linejoin="round"/>
<rect x="203.486" y="143.699" width="267.954" height="16.4206" rx="8.2103" fill="#64B670" fill-opacity="0.22"/>
<path d="M323.608 155.685H322.562L322.045 154.221H319.784L319.287 155.685H318.244L320.397 149.936H321.471L323.608 155.685ZM321.792 153.444L320.994 151.15C320.97 151.076 320.945 150.955 320.918 150.79H320.902C320.878 150.942 320.851 151.062 320.822 151.15L320.032 153.444H321.792ZM327.236 155.496C326.908 155.686 326.519 155.781 326.07 155.781C325.46 155.781 324.969 155.591 324.594 155.212C324.22 154.829 324.033 154.335 324.033 153.728C324.033 153.052 324.234 152.509 324.634 152.101C325.038 151.689 325.577 151.483 326.25 151.483C326.624 151.483 326.954 151.549 327.24 151.68V152.546C326.954 152.332 326.65 152.225 326.326 152.225C325.933 152.225 325.611 152.358 325.36 152.626C325.109 152.89 324.983 153.238 324.983 153.668C324.983 154.093 325.101 154.428 325.336 154.674C325.574 154.92 325.892 155.043 326.29 155.043C326.624 155.043 326.94 154.924 327.236 154.686V155.496ZM331.101 155.496C330.772 155.686 330.383 155.781 329.934 155.781C329.325 155.781 328.833 155.591 328.459 155.212C328.085 154.829 327.898 154.335 327.898 153.728C327.898 153.052 328.098 152.509 328.499 152.101C328.903 151.689 329.441 151.483 330.115 151.483C330.489 151.483 330.819 151.549 331.105 151.68V152.546C330.819 152.332 330.514 152.225 330.191 152.225C329.798 152.225 329.476 152.358 329.225 152.626C328.973 152.89 328.848 153.238 328.848 153.668C328.848 154.093 328.965 154.428 329.201 154.674C329.439 154.92 329.757 155.043 330.155 155.043C330.489 155.043 330.804 154.924 331.101 154.686V155.496ZM333.847 155.781C333.214 155.781 332.707 155.59 332.328 155.208C331.951 154.823 331.762 154.314 331.762 153.68C331.762 152.991 331.959 152.452 332.352 152.065C332.747 151.677 333.279 151.483 333.947 151.483C334.589 151.483 335.088 151.672 335.447 152.048C335.805 152.425 335.984 152.948 335.984 153.616C335.984 154.271 335.79 154.796 335.402 155.191C335.018 155.584 334.499 155.781 333.847 155.781ZM333.891 152.225C333.528 152.225 333.24 152.352 333.029 152.606C332.818 152.86 332.712 153.21 332.712 153.656C332.712 154.086 332.819 154.426 333.033 154.674C333.247 154.92 333.533 155.043 333.891 155.043C334.257 155.043 334.538 154.922 334.733 154.678C334.931 154.435 335.03 154.089 335.03 153.64C335.03 153.188 334.931 152.84 334.733 152.594C334.538 152.348 334.257 152.225 333.891 152.225ZM340.514 155.685H339.584V155.035H339.568C339.298 155.532 338.878 155.781 338.309 155.781C337.339 155.781 336.854 155.198 336.854 154.033V151.579H337.784V153.937C337.784 154.674 338.068 155.043 338.638 155.043C338.913 155.043 339.139 154.942 339.315 154.738C339.494 154.535 339.584 154.269 339.584 153.941V151.579H340.514V155.685ZM345.385 155.685H344.455V153.371C344.455 152.604 344.183 152.221 343.641 152.221C343.358 152.221 343.124 152.328 342.939 152.542C342.755 152.753 342.663 153.02 342.663 153.343V155.685H341.729V151.579H342.663V152.261H342.679C342.986 151.742 343.43 151.483 344.01 151.483C344.456 151.483 344.797 151.629 345.032 151.92C345.267 152.209 345.385 152.627 345.385 153.175V155.685ZM348.688 155.64C348.506 155.731 348.267 155.777 347.97 155.777C347.174 155.777 346.776 155.395 346.776 154.63V152.309H346.09V151.579H346.776V150.629L347.706 150.365V151.579H348.688V152.309H347.706V154.362C347.706 154.605 347.75 154.779 347.838 154.883C347.926 154.987 348.073 155.039 348.279 155.039C348.437 155.039 348.573 154.994 348.688 154.903V155.64ZM353.611 149.807V155.685H352.681V150.946C352.513 151.066 352.331 151.169 352.136 151.255C351.943 151.338 351.723 151.411 351.474 151.475V150.681C351.629 150.631 351.779 150.577 351.923 150.521C352.068 150.465 352.209 150.402 352.348 150.333C352.49 150.263 352.632 150.186 352.773 150.1C352.918 150.015 353.066 149.917 353.218 149.807H353.611Z" fill="#0D5733"/>
<rect x="203.486" y="171.315" width="267.954" height="16.4206" rx="8.2103" fill="#64B670" fill-opacity="0.22"/>
<path d="M297.897 183.302H296.754L295.576 181.193C295.541 181.129 295.502 181.038 295.459 180.92H295.443C295.419 180.979 295.379 181.07 295.323 181.193L294.108 183.302H292.958L294.842 180.411L293.11 177.553H294.277L295.315 179.493C295.382 179.622 295.442 179.75 295.495 179.878H295.507C295.585 179.71 295.652 179.576 295.708 179.477L296.786 177.553H297.861L296.089 180.403L297.897 183.302ZM302.094 178.018C301.854 178.459 301.626 178.896 301.413 179.329C301.199 179.759 301.005 180.192 300.831 180.628C300.658 181.063 300.507 181.503 300.378 181.947C300.25 182.388 300.151 182.839 300.082 183.302H299.107C299.172 182.89 299.262 182.48 299.38 182.071C299.5 181.659 299.641 181.249 299.801 180.84C299.961 180.429 300.14 180.016 300.338 179.602C300.539 179.187 300.751 178.769 300.976 178.347H298.253V177.553H302.094V178.018ZM307.59 177.553L305.526 183.302H304.459L302.431 177.553H303.473L304.892 181.915C304.938 182.054 304.972 182.215 304.997 182.4H305.013C305.031 182.247 305.07 182.083 305.129 181.907L306.58 177.553H307.59ZM307.991 183.073V182.091C308.079 182.171 308.184 182.243 308.304 182.308C308.427 182.372 308.556 182.426 308.693 182.472C308.829 182.515 308.965 182.548 309.102 182.572C309.238 182.596 309.364 182.608 309.479 182.608C309.879 182.608 310.177 182.541 310.373 182.408C310.57 182.274 310.669 182.08 310.669 181.826C310.669 181.69 310.636 181.573 310.569 181.474C310.505 181.372 310.414 181.28 310.296 181.197C310.179 181.114 310.04 181.035 309.879 180.961C309.722 180.883 309.552 180.803 309.37 180.72C309.175 180.616 308.993 180.51 308.825 180.403C308.657 180.296 308.51 180.179 308.384 180.051C308.261 179.92 308.164 179.773 308.091 179.61C308.022 179.446 307.987 179.255 307.987 179.036C307.987 178.766 308.047 178.532 308.168 178.335C308.291 178.134 308.451 177.97 308.649 177.842C308.849 177.711 309.076 177.614 309.33 177.553C309.584 177.489 309.843 177.457 310.108 177.457C310.709 177.457 311.148 177.525 311.423 177.661V178.603C311.097 178.368 310.677 178.25 310.164 178.25C310.022 178.25 309.881 178.264 309.739 178.291C309.6 178.317 309.475 178.361 309.362 178.423C309.253 178.484 309.163 178.563 309.094 178.659C309.024 178.756 308.989 178.872 308.989 179.008C308.989 179.136 309.016 179.247 309.07 179.341C309.123 179.434 309.201 179.52 309.302 179.598C309.406 179.675 309.532 179.751 309.679 179.826C309.829 179.898 310.001 179.977 310.196 180.063C310.397 180.167 310.585 180.276 310.761 180.391C310.94 180.506 311.097 180.633 311.23 180.772C311.367 180.911 311.474 181.066 311.551 181.237C311.631 181.406 311.671 181.598 311.671 181.814C311.671 182.106 311.613 182.352 311.495 182.552C311.377 182.753 311.218 182.916 311.018 183.041C310.82 183.167 310.592 183.258 310.332 183.314C310.073 183.37 309.799 183.398 309.511 183.398C309.414 183.398 309.295 183.39 309.154 183.374C309.015 183.361 308.872 183.339 308.725 183.31C308.578 183.283 308.439 183.25 308.308 183.21C308.177 183.169 308.071 183.124 307.991 183.073ZM312.369 183.173V182.312C312.716 182.576 313.1 182.708 313.52 182.708C314.081 182.708 314.361 182.543 314.361 182.211C314.361 182.118 314.337 182.039 314.289 181.975C314.241 181.908 314.176 181.849 314.093 181.798C314.013 181.748 313.916 181.702 313.804 181.662C313.695 181.622 313.572 181.577 313.435 181.526C313.267 181.459 313.115 181.388 312.978 181.313C312.845 181.238 312.732 181.154 312.642 181.061C312.553 180.965 312.487 180.856 312.441 180.736C312.396 180.616 312.373 180.475 312.373 180.315C312.373 180.117 312.42 179.944 312.513 179.794C312.607 179.642 312.732 179.515 312.89 179.413C313.048 179.309 313.227 179.231 313.427 179.181C313.628 179.127 313.835 179.1 314.049 179.1C314.428 179.1 314.768 179.158 315.067 179.273V180.087C314.778 179.889 314.447 179.79 314.073 179.79C313.955 179.79 313.848 179.802 313.752 179.826C313.659 179.85 313.578 179.883 313.512 179.926C313.445 179.969 313.393 180.021 313.355 180.083C313.318 180.141 313.299 180.207 313.299 180.279C313.299 180.367 313.318 180.442 313.355 180.504C313.393 180.565 313.447 180.62 313.52 180.668C313.594 180.713 313.683 180.756 313.784 180.796C313.888 180.834 314.007 180.875 314.141 180.92C314.317 180.993 314.475 181.066 314.614 181.141C314.756 181.216 314.876 181.301 314.975 181.398C315.074 181.491 315.15 181.601 315.203 181.726C315.257 181.849 315.283 181.996 315.283 182.167C315.283 182.376 315.235 182.557 315.139 182.712C315.043 182.867 314.915 182.996 314.754 183.097C314.594 183.199 314.408 183.274 314.197 183.322C313.989 183.373 313.768 183.398 313.536 183.398C313.087 183.398 312.698 183.323 312.369 183.173ZM321.69 179.197L320.479 183.302H319.505L318.759 180.52C318.73 180.413 318.711 180.292 318.703 180.159H318.687C318.682 180.25 318.658 180.367 318.615 180.512L317.805 183.302H316.851L315.644 179.197H316.606L317.352 182.155C317.376 182.243 317.392 182.361 317.4 182.508H317.428C317.436 182.396 317.458 182.275 317.492 182.147L318.322 179.197H319.196L319.934 182.167C319.958 182.261 319.975 182.378 319.986 182.52H320.014C320.019 182.421 320.039 182.304 320.074 182.167L320.804 179.197H321.69ZM322.488 183.302V177.553H324.312C324.867 177.553 325.307 177.675 325.631 177.918C325.957 178.161 326.12 178.478 326.12 178.868C326.12 179.194 326.027 179.477 325.843 179.718C325.659 179.958 325.403 180.129 325.077 180.231V180.247C325.473 180.292 325.788 180.439 326.023 180.688C326.261 180.934 326.38 181.255 326.38 181.65C326.38 182.142 326.186 182.54 325.799 182.845C325.411 183.149 324.922 183.302 324.332 183.302H322.488ZM323.438 178.319V179.954H324.055C324.386 179.954 324.646 179.877 324.833 179.722C325.022 179.564 325.117 179.342 325.117 179.056C325.117 178.565 324.789 178.319 324.131 178.319H323.438ZM323.438 180.72V182.54H324.251C324.607 182.54 324.881 182.459 325.073 182.296C325.268 182.13 325.366 181.903 325.366 181.614C325.366 181.018 324.953 180.72 324.127 180.72H323.438ZM330.678 183.302H327.451V177.553H330.549V178.363H328.405V179.99H330.381V180.796H328.405V182.496H330.678V183.302ZM337.874 183.302H336.928V179.581C336.928 179.277 336.946 178.904 336.984 178.463H336.968C336.909 178.714 336.857 178.895 336.811 179.004L335.096 183.302H334.438L332.718 179.036C332.67 178.911 332.619 178.72 332.566 178.463H332.55C332.571 178.693 332.582 179.068 332.582 179.589V183.302H331.7V177.553H333.043L334.554 181.381C334.669 181.675 334.744 181.895 334.779 182.039H334.799C334.898 181.737 334.978 181.512 335.039 181.365L336.579 177.553H337.874V183.302ZM340.251 180.439C339.845 180.439 339.521 180.31 339.281 180.051C339.04 179.789 338.92 179.44 338.92 179.004C338.92 178.528 339.047 178.154 339.301 177.882C339.558 177.606 339.902 177.469 340.335 177.469C340.755 177.469 341.08 177.596 341.309 177.85C341.542 178.104 341.658 178.46 341.658 178.92C341.658 179.38 341.529 179.749 341.269 180.026C341.01 180.302 340.671 180.439 340.251 180.439ZM340.307 178.03C340.088 178.03 339.914 178.114 339.786 178.283C339.66 178.451 339.598 178.682 339.598 178.976C339.598 179.265 339.659 179.489 339.782 179.65C339.908 179.81 340.079 179.89 340.295 179.89C340.512 179.89 340.681 179.807 340.804 179.642C340.927 179.473 340.989 179.241 340.989 178.944C340.989 178.655 340.927 178.431 340.804 178.271C340.684 178.11 340.518 178.03 340.307 178.03ZM344.144 177.553L340.456 183.342H339.882L343.567 177.553H344.144ZM343.627 183.39C343.22 183.39 342.897 183.26 342.656 183.001C342.416 182.739 342.296 182.39 342.296 181.955C342.296 181.479 342.423 181.105 342.677 180.832C342.933 180.557 343.278 180.419 343.711 180.419C344.13 180.419 344.455 180.546 344.685 180.8C344.918 181.054 345.034 181.411 345.034 181.871C345.034 182.33 344.904 182.699 344.645 182.977C344.386 183.252 344.046 183.39 343.627 183.39ZM343.683 180.981C343.464 180.981 343.29 181.065 343.162 181.233C343.036 181.402 342.973 181.633 342.973 181.927C342.973 182.215 343.035 182.44 343.158 182.6C343.283 182.761 343.454 182.841 343.671 182.841C343.887 182.841 344.057 182.758 344.18 182.592C344.303 182.424 344.364 182.191 344.364 181.895C344.364 181.606 344.303 181.381 344.18 181.221C344.06 181.061 343.894 180.981 343.683 180.981ZM347.022 183.129C347.022 183.803 346.881 184.321 346.597 184.685C346.314 185.051 345.909 185.234 345.383 185.234C345.187 185.234 344.998 185.191 344.813 185.106V184.308C344.987 184.428 345.151 184.488 345.306 184.488C345.83 184.488 346.092 184.026 346.092 183.101V179.197H347.022V183.129ZM346.565 178.335C346.413 178.335 346.282 178.285 346.172 178.186C346.065 178.087 346.012 177.962 346.012 177.81C346.012 177.657 346.065 177.53 346.172 177.429C346.282 177.327 346.413 177.276 346.565 177.276C346.72 177.276 346.852 177.327 346.962 177.429C347.072 177.53 347.126 177.657 347.126 177.81C347.126 177.954 347.072 178.078 346.962 178.182C346.852 178.284 346.72 178.335 346.565 178.335ZM354.379 183.302H353.449V181.065C353.449 180.634 353.387 180.323 353.264 180.131C353.144 179.938 352.939 179.842 352.651 179.842C352.408 179.842 352.2 179.964 352.029 180.207C351.861 180.45 351.777 180.741 351.777 181.081V183.302H350.843V180.989C350.843 180.224 350.573 179.842 350.033 179.842C349.782 179.842 349.575 179.957 349.412 180.187C349.251 180.417 349.171 180.715 349.171 181.081V183.302H348.241V179.197H349.171V179.846H349.187C349.484 179.349 349.915 179.1 350.482 179.1C350.765 179.1 351.012 179.179 351.224 179.337C351.437 179.492 351.583 179.696 351.661 179.95C351.965 179.384 352.42 179.1 353.024 179.1C353.927 179.1 354.379 179.658 354.379 180.772V183.302ZM360.492 183.302H359.45L356.704 179.076C356.634 178.969 356.577 178.859 356.531 178.744H356.507C356.529 178.867 356.539 179.13 356.539 179.533V183.302H355.617V177.553H356.728L359.382 181.678C359.494 181.849 359.566 181.967 359.598 182.031H359.614C359.588 181.879 359.574 181.621 359.574 181.257V177.553H360.492V183.302ZM365.291 181.502H362.493C362.503 181.881 362.62 182.174 362.841 182.38C363.066 182.585 363.373 182.688 363.764 182.688C364.202 182.688 364.604 182.557 364.97 182.296V183.045C364.596 183.28 364.102 183.398 363.487 183.398C362.883 183.398 362.408 183.212 362.064 182.841C361.722 182.467 361.551 181.941 361.551 181.265C361.551 180.626 361.739 180.107 362.116 179.706C362.495 179.302 362.966 179.1 363.527 179.1C364.088 179.1 364.523 179.281 364.83 179.642C365.137 180.002 365.291 180.504 365.291 181.145V181.502ZM364.393 180.844C364.39 180.51 364.311 180.251 364.156 180.067C364.001 179.879 363.788 179.786 363.515 179.786C363.248 179.786 363.021 179.883 362.833 180.079C362.649 180.274 362.535 180.529 362.493 180.844H364.393ZM370.723 183.302H369.609L368.691 181.762C368.608 181.621 368.526 181.5 368.446 181.402C368.368 181.3 368.288 181.217 368.205 181.153C368.125 181.089 368.037 181.042 367.941 181.013C367.845 180.983 367.736 180.969 367.616 180.969H367.231V183.302H366.281V177.553H368.173C368.443 177.553 368.692 177.585 368.919 177.649C369.146 177.713 369.344 177.811 369.512 177.942C369.681 178.07 369.812 178.232 369.905 178.427C370.001 178.619 370.05 178.845 370.05 179.104C370.05 179.308 370.019 179.495 369.957 179.666C369.899 179.834 369.813 179.985 369.701 180.119C369.591 180.25 369.458 180.362 369.3 180.455C369.145 180.549 368.97 180.621 368.775 180.672V180.688C368.879 180.747 368.97 180.812 369.047 180.884C369.125 180.954 369.198 181.026 369.268 181.101C369.337 181.176 369.405 181.261 369.472 181.357C369.542 181.451 369.618 181.561 369.701 181.686L370.723 183.302ZM367.231 178.327V180.195H368.025C368.172 180.195 368.307 180.172 368.43 180.127C368.556 180.081 368.664 180.016 368.755 179.93C368.846 179.845 368.916 179.74 368.967 179.618C369.018 179.495 369.043 179.357 369.043 179.205C369.043 178.929 368.956 178.714 368.783 178.559C368.609 178.404 368.359 178.327 368.033 178.327H367.231ZM375.285 181.71H375.265C375.073 182.285 374.696 182.572 374.135 182.572C373.777 182.572 373.488 182.439 373.269 182.171C373.05 181.901 372.94 181.539 372.94 181.085C372.94 180.483 373.09 179.984 373.389 179.585C373.691 179.187 374.088 178.988 374.58 178.988C374.767 178.988 374.934 179.04 375.081 179.144C375.228 179.246 375.323 179.369 375.365 179.513H375.377C375.385 179.438 375.405 179.285 375.438 179.052H376.103C375.977 180.463 375.915 181.182 375.915 181.209C375.915 181.738 376.052 182.003 376.328 182.003C376.579 182.003 376.787 181.856 376.953 181.562C377.119 181.265 377.201 180.882 377.201 180.411C377.201 179.716 376.977 179.15 376.528 178.712C376.082 178.271 375.462 178.05 374.668 178.05C373.906 178.05 373.275 178.316 372.776 178.848C372.276 179.38 372.026 180.045 372.026 180.844C372.026 181.633 372.266 182.269 372.748 182.753C373.229 183.236 373.877 183.478 374.692 183.478C375.333 183.478 375.883 183.369 376.34 183.149V183.767C375.872 183.965 375.288 184.063 374.588 184.063C373.604 184.063 372.812 183.769 372.21 183.181C371.609 182.594 371.308 181.824 371.308 180.872C371.308 179.894 371.626 179.083 372.262 178.439C372.899 177.795 373.711 177.473 374.7 177.473C375.627 177.473 376.394 177.743 377.001 178.283C377.61 178.822 377.915 179.527 377.915 180.395C377.915 181.031 377.749 181.554 377.418 181.963C377.089 182.369 376.687 182.572 376.211 182.572C375.597 182.572 375.288 182.285 375.285 181.71ZM374.648 179.557C374.354 179.557 374.116 179.702 373.934 179.99C373.755 180.279 373.666 180.638 373.666 181.069C373.666 181.357 373.726 181.586 373.846 181.754C373.969 181.92 374.132 182.003 374.335 182.003C374.629 182.003 374.862 181.852 375.033 181.55C375.204 181.245 375.289 180.843 375.289 180.343C375.289 179.819 375.075 179.557 374.648 179.557Z" fill="#0D5733"/>
<rect x="278.125" y="201.918" width="118.676" height="16.4206" rx="8.2103" fill="#0D5733"/>
<path d="M328.4 213.903H325.217V208.155H326.171V213.098H328.4V213.903ZM330.95 214C330.316 214 329.81 213.808 329.43 213.426C329.053 213.041 328.865 212.532 328.865 211.899C328.865 211.209 329.061 210.671 329.454 210.283C329.85 209.896 330.382 209.702 331.05 209.702C331.691 209.702 332.191 209.89 332.549 210.267C332.907 210.644 333.086 211.167 333.086 211.835C333.086 212.49 332.893 213.015 332.505 213.41C332.12 213.803 331.602 214 330.95 214ZM330.994 210.444C330.63 210.444 330.343 210.571 330.132 210.824C329.921 211.078 329.815 211.428 329.815 211.875C329.815 212.305 329.922 212.645 330.136 212.893C330.35 213.139 330.636 213.262 330.994 213.262C331.36 213.262 331.64 213.14 331.836 212.897C332.033 212.654 332.132 212.308 332.132 211.859C332.132 211.407 332.033 211.058 331.836 210.812C331.64 210.567 331.36 210.444 330.994 210.444ZM337.773 213.575C337.773 215.082 337.015 215.836 335.5 215.836C334.965 215.836 334.499 215.746 334.101 215.567V214.717C334.55 214.974 334.976 215.102 335.379 215.102C336.355 215.102 336.843 214.622 336.843 213.663V213.214H336.827C336.519 213.738 336.057 214 335.44 214C334.94 214 334.536 213.818 334.229 213.454C333.924 213.088 333.772 212.598 333.772 211.983C333.772 211.285 333.936 210.731 334.265 210.319C334.594 209.908 335.045 209.702 335.62 209.702C336.163 209.702 336.565 209.924 336.827 210.367H336.843V209.798H337.773V213.575ZM336.851 212.023V211.49C336.851 211.201 336.755 210.955 336.562 210.752C336.372 210.547 336.134 210.444 335.848 210.444C335.496 210.444 335.219 210.575 335.019 210.836C334.821 211.096 334.722 211.459 334.722 211.927C334.722 212.33 334.817 212.654 335.007 212.897C335.199 213.138 335.453 213.258 335.768 213.258C336.089 213.258 336.35 213.143 336.55 212.913C336.75 212.681 336.851 212.384 336.851 212.023ZM341.714 208.936C341.561 208.936 341.43 208.887 341.321 208.788C341.214 208.689 341.16 208.563 341.16 208.411C341.16 208.259 341.214 208.132 341.321 208.03C341.43 207.929 341.561 207.878 341.714 207.878C341.871 207.878 342.005 207.929 342.114 208.03C342.224 208.132 342.279 208.259 342.279 208.411C342.279 208.555 342.224 208.68 342.114 208.784C342.005 208.885 341.871 208.936 341.714 208.936ZM342.175 213.903H341.245V209.798H342.175V213.903ZM347.049 213.903H346.119V211.59C346.119 210.823 345.848 210.44 345.306 210.44C345.022 210.44 344.788 210.547 344.604 210.76C344.42 210.971 344.327 211.239 344.327 211.562V213.903H343.393V209.798H344.327V210.48H344.343C344.651 209.961 345.094 209.702 345.674 209.702C346.121 209.702 346.461 209.848 346.697 210.139C346.932 210.428 347.049 210.846 347.049 211.394V213.903Z" fill="white"/>
</g>
</g>
<g filter="url(#filter1_ddddd_2255_13579)">
<g clip-path="url(#clip1_2255_13579)">
<rect x="12" y="187.633" width="430.927" height="288.435" rx="12.7998" fill="white"/>
<rect x="12" y="187.633" width="430.927" height="21.333" fill="#268334"/>
<circle cx="25.867" cy="198.939" r="2.7733" fill="#FF4949"/>
<circle cx="35.0409" cy="198.939" r="2.7733" fill="#FFD43E"/>
<circle cx="44.2127" cy="198.939" r="2.7733" fill="#16FF72"/>
<rect x="180.105" y="226.032" width="94.7187" height="94.7187" rx="25.5997" fill="#64B670" fill-opacity="0.22"/>
<path d="M227.252 282.458C237.267 282.458 245.385 274.339 245.385 264.324C245.385 254.31 237.267 246.191 227.252 246.191C217.238 246.191 209.119 254.31 209.119 264.324C209.119 274.339 217.238 282.458 227.252 282.458Z" stroke="#268334" stroke-width="4.53327" stroke-miterlimit="10"/>
<path d="M199.732 298.324C202.517 293.499 206.523 289.493 211.348 286.707C216.172 283.922 221.645 282.455 227.215 282.455C232.786 282.455 238.259 283.922 243.083 286.707C247.907 289.493 251.913 293.499 254.698 298.324" stroke="#268334" stroke-width="4.53327" stroke-linecap="round" stroke-linejoin="round"/>
<rect x="74.293" y="339.524" width="306.342" height="18.7731" rx="9.38654" fill="#64B670" fill-opacity="0.22"/>
<path d="M211.254 352.938H210.058L209.467 351.265H206.882L206.313 352.938H205.122L207.583 346.365H208.811L211.254 352.938ZM209.178 350.375L208.266 347.754C208.238 347.668 208.209 347.531 208.179 347.341H208.16C208.133 347.515 208.102 347.653 208.069 347.754L207.166 350.375H209.178ZM215.402 352.722C215.026 352.939 214.582 353.047 214.068 353.047C213.372 353.047 212.809 352.831 212.382 352.397C211.954 351.96 211.74 351.394 211.74 350.701C211.74 349.928 211.969 349.308 212.427 348.84C212.889 348.37 213.504 348.134 214.274 348.134C214.702 348.134 215.08 348.209 215.407 348.359V349.349C215.08 349.104 214.731 348.982 214.362 348.982C213.912 348.982 213.544 349.135 213.257 349.44C212.97 349.743 212.826 350.14 212.826 350.632C212.826 351.118 212.961 351.501 213.229 351.783C213.501 352.064 213.865 352.204 214.32 352.204C214.702 352.204 215.063 352.068 215.402 351.796V352.722ZM219.82 352.722C219.444 352.939 219 353.047 218.486 353.047C217.79 353.047 217.228 352.831 216.8 352.397C216.372 351.96 216.158 351.394 216.158 350.701C216.158 349.928 216.387 349.308 216.846 348.84C217.307 348.37 217.923 348.134 218.693 348.134C219.121 348.134 219.498 348.209 219.825 348.359V349.349C219.498 349.104 219.15 348.982 218.78 348.982C218.331 348.982 217.962 349.135 217.675 349.44C217.388 349.743 217.244 350.14 217.244 350.632C217.244 351.118 217.379 351.501 217.648 351.783C217.92 352.064 218.283 352.204 218.739 352.204C219.121 352.204 219.481 352.068 219.82 351.796V352.722ZM222.96 353.047C222.236 353.047 221.657 352.829 221.223 352.392C220.792 351.952 220.576 351.37 220.576 350.646C220.576 349.858 220.801 349.242 221.25 348.799C221.702 348.356 222.31 348.134 223.074 348.134C223.808 348.134 224.379 348.35 224.788 348.78C225.198 349.211 225.403 349.809 225.403 350.573C225.403 351.321 225.181 351.922 224.738 352.374C224.298 352.823 223.705 353.047 222.96 353.047ZM223.01 348.982C222.595 348.982 222.266 349.127 222.025 349.418C221.783 349.708 221.663 350.108 221.663 350.618C221.663 351.11 221.785 351.498 222.029 351.783C222.274 352.064 222.601 352.204 223.01 352.204C223.429 352.204 223.75 352.065 223.973 351.787C224.199 351.509 224.312 351.113 224.312 350.6C224.312 350.084 224.199 349.685 223.973 349.404C223.75 349.123 223.429 348.982 223.01 348.982ZM230.582 352.938H229.518V352.195H229.5C229.191 352.763 228.712 353.047 228.061 353.047C226.952 353.047 226.397 352.381 226.397 351.049V348.244H227.461V350.939C227.461 351.783 227.786 352.204 228.437 352.204C228.751 352.204 229.01 352.088 229.211 351.856C229.416 351.624 229.518 351.32 229.518 350.944V348.244H230.582V352.938ZM236.15 352.938H235.087V350.293C235.087 349.416 234.777 348.978 234.157 348.978C233.833 348.978 233.565 349.1 233.355 349.344C233.144 349.586 233.038 349.891 233.038 350.261V352.938H231.97V348.244H233.038V349.023H233.057C233.408 348.431 233.915 348.134 234.578 348.134C235.089 348.134 235.478 348.301 235.747 348.634C236.016 348.964 236.15 349.442 236.15 350.068V352.938ZM239.927 352.887C239.719 352.991 239.446 353.043 239.107 353.043C238.196 353.043 237.741 352.606 237.741 351.732V349.078H236.957V348.244H237.741V347.158L238.804 346.855V348.244H239.927V349.078H238.804V351.425C238.804 351.703 238.855 351.902 238.955 352.021C239.056 352.14 239.224 352.2 239.46 352.2C239.64 352.2 239.796 352.148 239.927 352.044V352.887ZM247.311 352.938H243.186V352.429C243.186 352.221 243.215 352.027 243.273 351.847C243.331 351.663 243.409 351.492 243.507 351.333C243.604 351.171 243.719 351.02 243.85 350.88C243.982 350.736 244.122 350.599 244.272 350.467C244.422 350.333 244.574 350.204 244.73 350.082C244.886 349.957 245.039 349.832 245.189 349.706C245.329 349.587 245.458 349.471 245.574 349.358C245.69 349.242 245.789 349.123 245.872 349C245.954 348.878 246.018 348.75 246.064 348.615C246.11 348.478 246.133 348.33 246.133 348.171C246.133 347.997 246.105 347.845 246.05 347.717C245.998 347.586 245.923 347.477 245.826 347.392C245.731 347.303 245.618 347.237 245.487 347.195C245.355 347.149 245.212 347.126 245.056 347.126C244.787 347.126 244.513 347.189 244.235 347.314C243.957 347.439 243.69 347.627 243.433 347.878V346.855C243.568 346.755 243.704 346.668 243.841 346.594C243.979 346.518 244.121 346.455 244.267 346.406C244.414 346.354 244.568 346.316 244.73 346.292C244.892 346.267 245.065 346.255 245.248 346.255C245.545 346.255 245.813 346.295 246.055 346.374C246.296 346.451 246.502 346.565 246.674 346.718C246.845 346.868 246.976 347.056 247.068 347.282C247.162 347.508 247.21 347.768 247.21 348.061C247.21 348.327 247.176 348.567 247.109 348.78C247.045 348.991 246.952 349.188 246.829 349.372C246.71 349.555 246.565 349.729 246.394 349.894C246.223 350.059 246.032 350.229 245.821 350.403C245.644 350.547 245.467 350.687 245.289 350.825C245.115 350.959 244.958 351.092 244.817 351.223C244.677 351.352 244.562 351.482 244.474 351.613C244.388 351.741 244.345 351.871 244.345 352.003V352.025H247.311V352.938Z" fill="#268334"/>
<rect x="74.293" y="371.098" width="306.342" height="18.7731" rx="9.38654" fill="#64B670" fill-opacity="0.22"/>
<path d="M184.145 380.831C184.017 380.731 183.832 380.68 183.59 380.68C183.276 380.68 183.013 380.822 182.802 381.106C182.591 381.391 182.486 381.777 182.486 382.266V384.512H181.423V379.818H182.486V380.786H182.504C182.608 380.456 182.767 380.199 182.981 380.016C183.198 379.829 183.439 379.736 183.705 379.736C183.898 379.736 184.044 379.765 184.145 379.823V380.831ZM188.449 377.939V382.183H189.425V383.068H188.449V384.512H187.417V383.068H184.443V382.174C184.712 381.872 184.987 381.545 185.268 381.193C185.552 380.839 185.824 380.478 186.084 380.112C186.347 379.742 186.589 379.372 186.812 379.003C187.036 378.633 187.223 378.278 187.376 377.939H188.449ZM187.417 382.183V379.424C187.084 380.023 186.754 380.546 186.427 380.992C186.104 381.438 185.8 381.835 185.515 382.183H187.417ZM194.476 384.512H193.412V381.945C193.412 381.016 193.102 380.552 192.482 380.552C192.17 380.552 191.908 380.686 191.694 380.955C191.48 381.224 191.373 381.568 191.373 381.986V384.512H190.305V377.563H191.373V380.598H191.391C191.746 380.005 192.253 379.708 192.913 379.708C193.955 379.708 194.476 380.346 194.476 381.62V384.512ZM196.983 381.239C196.518 381.239 196.149 381.091 195.874 380.795C195.599 380.495 195.461 380.097 195.461 379.598C195.461 379.055 195.606 378.627 195.897 378.315C196.19 378 196.584 377.843 197.079 377.843C197.559 377.843 197.93 377.988 198.193 378.278C198.459 378.569 198.591 378.977 198.591 379.502C198.591 380.028 198.443 380.449 198.147 380.767C197.851 381.082 197.462 381.239 196.983 381.239ZM197.047 378.485C196.796 378.485 196.598 378.581 196.451 378.773C196.308 378.966 196.236 379.23 196.236 379.566C196.236 379.896 196.306 380.153 196.447 380.336C196.59 380.52 196.786 380.611 197.033 380.611C197.281 380.611 197.475 380.517 197.615 380.327C197.756 380.135 197.826 379.869 197.826 379.53C197.826 379.2 197.756 378.943 197.615 378.76C197.478 378.576 197.288 378.485 197.047 378.485ZM201.433 377.939L197.217 384.558H196.561L200.773 377.939H201.433ZM200.842 384.613C200.377 384.613 200.008 384.464 199.733 384.168C199.458 383.869 199.32 383.47 199.32 382.972C199.32 382.428 199.465 382 199.756 381.688C200.049 381.374 200.443 381.216 200.938 381.216C201.418 381.216 201.789 381.361 202.052 381.652C202.318 381.942 202.451 382.35 202.451 382.875C202.451 383.401 202.302 383.823 202.006 384.14C201.71 384.455 201.322 384.613 200.842 384.613ZM200.906 381.858C200.655 381.858 200.457 381.954 200.31 382.147C200.167 382.339 200.095 382.604 200.095 382.94C200.095 383.27 200.165 383.526 200.306 383.71C200.449 383.893 200.645 383.985 200.892 383.985C201.14 383.985 201.334 383.89 201.474 383.7C201.615 383.508 201.685 383.242 201.685 382.903C201.685 382.573 201.615 382.316 201.474 382.133C201.337 381.95 201.147 381.858 200.906 381.858ZM207.213 377.939V382.183H208.189V383.068H207.213V384.512H206.181V383.068H203.207V382.174C203.476 381.872 203.751 381.545 204.032 381.193C204.316 380.839 204.588 380.478 204.848 380.112C205.11 379.742 205.353 379.372 205.576 379.003C205.799 378.633 205.987 378.278 206.14 377.939H207.213ZM206.181 382.183V379.424C205.848 380.023 205.518 380.546 205.191 380.992C204.868 381.438 204.564 381.835 204.279 382.183H206.181ZM209.087 384.36V383.338C209.518 383.629 209.955 383.774 210.398 383.774C210.844 383.774 211.203 383.661 211.475 383.435C211.747 383.205 211.883 382.901 211.883 382.523C211.883 382.15 211.744 381.86 211.466 381.652C211.191 381.444 210.795 381.34 210.279 381.34C210.102 381.34 209.743 381.358 209.202 381.395L209.436 377.939H212.671V378.847H210.32L210.21 380.492C210.421 380.48 210.612 380.474 210.783 380.474C211.48 380.474 212.017 380.653 212.396 381.01C212.778 381.368 212.969 381.856 212.969 382.477C212.969 383.128 212.751 383.65 212.314 384.044C211.88 384.435 211.283 384.631 210.522 384.631C209.88 384.631 209.402 384.541 209.087 384.36ZM218.327 379.818L216.512 384.512H215.362L213.634 379.818H214.789L215.829 383.1C215.909 383.341 215.958 383.552 215.976 383.733H215.99C216.017 383.506 216.06 383.302 216.118 383.118L217.209 379.818H218.327ZM224.45 384.512H223.355V381.661H220.261V384.512H219.17V377.939H220.261V380.703H223.355V377.939H224.45V384.512ZM230.656 384.237C230.161 384.493 229.545 384.622 228.809 384.622C227.856 384.622 227.092 384.321 226.517 383.719C225.943 383.117 225.656 382.327 225.656 381.349C225.656 380.298 225.978 379.449 226.623 378.801C227.271 378.153 228.088 377.829 229.075 377.829C229.71 377.829 230.237 377.919 230.656 378.1V379.181C230.213 378.919 229.724 378.787 229.189 378.787C228.477 378.787 227.9 379.015 227.457 379.47C227.017 379.925 226.797 380.533 226.797 381.294C226.797 382.018 227.003 382.596 227.416 383.027C227.828 383.455 228.371 383.668 229.043 383.668C229.663 383.668 230.201 383.522 230.656 383.228V384.237ZM236.981 384.512H235.707L234.657 382.752C234.563 382.59 234.469 382.452 234.378 382.339C234.289 382.223 234.197 382.128 234.103 382.055C234.011 381.982 233.91 381.928 233.8 381.895C233.69 381.861 233.566 381.844 233.429 381.844H232.989V384.512H231.903V377.939H234.066C234.375 377.939 234.659 377.976 234.919 378.049C235.178 378.123 235.404 378.234 235.597 378.384C235.789 378.531 235.939 378.715 236.046 378.938C236.156 379.158 236.211 379.417 236.211 379.713C236.211 379.945 236.176 380.159 236.106 380.355C236.038 380.547 235.941 380.72 235.812 380.873C235.687 381.022 235.534 381.151 235.354 381.258C235.177 381.365 234.977 381.447 234.754 381.505V381.523C234.873 381.591 234.977 381.666 235.065 381.748C235.154 381.827 235.238 381.91 235.317 381.996C235.397 382.081 235.475 382.179 235.551 382.289C235.63 382.396 235.718 382.521 235.812 382.665L236.981 384.512ZM232.989 378.824V380.96H233.896C234.064 380.96 234.219 380.934 234.359 380.882C234.503 380.83 234.627 380.755 234.731 380.657C234.834 380.559 234.915 380.44 234.974 380.3C235.032 380.159 235.061 380.002 235.061 379.828C235.061 379.513 234.961 379.267 234.763 379.09C234.564 378.912 234.278 378.824 233.906 378.824H232.989ZM241.803 384.512H240.739V381.945C240.739 381.016 240.429 380.552 239.809 380.552C239.497 380.552 239.234 380.686 239.021 380.955C238.807 381.224 238.7 381.568 238.7 381.986V384.512H237.632V377.563H238.7V380.598H238.718C239.072 380.005 239.58 379.708 240.24 379.708C241.282 379.708 241.803 380.346 241.803 381.62V384.512ZM244.177 383.82H244.158V386.67H243.095V379.818H244.158V380.643H244.177C244.54 380.02 245.072 379.708 245.772 379.708C246.368 379.708 246.832 379.918 247.165 380.336C247.498 380.755 247.665 381.317 247.665 382.023C247.665 382.805 247.477 383.432 247.101 383.902C246.725 384.373 246.212 384.608 245.561 384.608C244.962 384.608 244.501 384.345 244.177 383.82ZM244.149 381.968V382.55C244.149 382.892 244.258 383.183 244.475 383.421C244.695 383.659 244.973 383.778 245.309 383.778C245.703 383.778 246.012 383.626 246.235 383.32C246.461 383.011 246.574 382.582 246.574 382.032C246.574 381.571 246.468 381.21 246.258 380.951C246.05 380.688 245.767 380.556 245.41 380.556C245.031 380.556 244.725 380.691 244.493 380.96C244.264 381.229 244.149 381.565 244.149 381.968ZM255.768 384.512H254.704V381.954C254.704 381.462 254.634 381.106 254.494 380.886C254.356 380.666 254.122 380.556 253.792 380.556C253.514 380.556 253.278 380.695 253.082 380.973C252.89 381.251 252.793 381.585 252.793 381.973V384.512H251.725V381.867C251.725 380.993 251.417 380.556 250.8 380.556C250.512 380.556 250.276 380.688 250.089 380.951C249.906 381.213 249.814 381.554 249.814 381.973V384.512H248.751V379.818H249.814V380.561H249.832C250.172 379.993 250.665 379.708 251.313 379.708C251.637 379.708 251.919 379.799 252.161 379.979C252.405 380.156 252.572 380.39 252.66 380.68C253.009 380.032 253.528 379.708 254.219 379.708C255.251 379.708 255.768 380.346 255.768 381.62V384.512ZM260.988 379.818L259.425 382.193L260.97 384.512H259.737L258.912 383.059C258.86 382.97 258.799 382.857 258.729 382.72H258.71C258.698 382.747 258.634 382.86 258.518 383.059L257.679 384.512H256.451L258.046 382.211L256.533 379.818H257.771L258.582 381.345C258.643 381.458 258.703 381.574 258.761 381.693H258.774L259.824 379.818H260.988ZM266.47 384.237C265.975 384.493 265.359 384.622 264.623 384.622C263.669 384.622 262.905 384.321 262.331 383.719C261.757 383.117 261.469 382.327 261.469 381.349C261.469 380.298 261.792 379.449 262.436 378.801C263.084 378.153 263.902 377.829 264.889 377.829C265.524 377.829 266.051 377.919 266.47 378.1V379.181C266.027 378.919 265.538 378.787 265.003 378.787C264.291 378.787 263.714 379.015 263.271 379.47C262.831 379.925 262.611 380.533 262.611 381.294C262.611 382.018 262.817 382.596 263.229 383.027C263.642 383.455 264.184 383.668 264.856 383.668C265.477 383.668 266.014 383.522 266.47 383.228V384.237ZM271.786 382.399C271.786 382.729 271.731 383.03 271.621 383.302C271.514 383.574 271.365 383.809 271.172 384.008C270.98 384.203 270.751 384.356 270.485 384.466C270.222 384.573 269.936 384.626 269.628 384.626C269.298 384.626 268.994 384.562 268.716 384.434C268.441 384.305 268.202 384.115 268.001 383.861C267.802 383.607 267.648 383.293 267.538 382.917C267.428 382.538 267.373 382.099 267.373 381.601C267.373 380.993 267.444 380.454 267.588 379.983C267.735 379.513 267.935 379.119 268.188 378.801C268.442 378.483 268.74 378.242 269.082 378.077C269.424 377.912 269.794 377.829 270.191 377.829C270.439 377.829 270.663 377.846 270.865 377.88C271.07 377.913 271.233 377.959 271.356 378.017V378.975C271.2 378.896 271.033 378.828 270.856 378.773C270.679 378.718 270.476 378.691 270.246 378.691C269.99 378.691 269.753 378.743 269.536 378.847C269.319 378.951 269.131 379.103 268.972 379.305C268.816 379.504 268.693 379.751 268.601 380.048C268.512 380.341 268.467 380.68 268.463 381.065H268.491C268.632 380.848 268.821 380.677 269.059 380.552C269.301 380.426 269.583 380.364 269.907 380.364C270.194 380.364 270.453 380.411 270.682 380.506C270.914 380.598 271.111 380.732 271.273 380.909C271.438 381.083 271.565 381.297 271.653 381.551C271.742 381.801 271.786 382.084 271.786 382.399ZM270.714 382.486C270.714 382.296 270.691 382.124 270.645 381.968C270.602 381.812 270.535 381.679 270.443 381.569C270.355 381.456 270.242 381.369 270.104 381.308C269.97 381.247 269.811 381.216 269.628 381.216C269.444 381.216 269.282 381.25 269.142 381.317C269.004 381.381 268.888 381.467 268.793 381.574C268.699 381.681 268.627 381.803 268.578 381.941C268.532 382.078 268.509 382.219 268.509 382.362C268.509 382.518 268.531 382.678 268.573 382.843C268.619 383.005 268.688 383.154 268.78 383.288C268.871 383.422 268.987 383.534 269.128 383.623C269.272 383.708 269.441 383.751 269.637 383.751C269.811 383.751 269.965 383.719 270.1 383.655C270.234 383.59 270.346 383.502 270.434 383.389C270.526 383.276 270.595 383.143 270.641 382.99C270.689 382.834 270.714 382.666 270.714 382.486Z" fill="#268334"/>
<rect x="159.625" y="406.084" width="135.678" height="18.7731" rx="9.38654" fill="#268334"/>
<path d="M218.025 419.497H214.386V412.925H215.477V418.576H218.025V419.497ZM220.94 419.607C220.216 419.607 219.637 419.389 219.203 418.952C218.772 418.512 218.557 417.93 218.557 417.205C218.557 416.417 218.782 415.801 219.231 415.358C219.683 414.915 220.291 414.694 221.055 414.694C221.788 414.694 222.36 414.909 222.769 415.34C223.178 415.771 223.383 416.368 223.383 417.132C223.383 417.881 223.162 418.481 222.719 418.933C222.279 419.382 221.686 419.607 220.94 419.607ZM220.991 415.542C220.575 415.542 220.247 415.687 220.005 415.977C219.764 416.267 219.643 416.668 219.643 417.178C219.643 417.67 219.765 418.058 220.01 418.342C220.254 418.623 220.581 418.764 220.991 418.764C221.409 418.764 221.73 418.625 221.953 418.347C222.179 418.069 222.292 417.673 222.292 417.16C222.292 416.643 222.179 416.244 221.953 415.963C221.73 415.682 221.409 415.542 220.991 415.542ZM228.741 419.121C228.741 420.845 227.875 421.706 226.142 421.706C225.531 421.706 224.998 421.604 224.543 421.399V420.427C225.056 420.721 225.543 420.867 226.005 420.867C227.12 420.867 227.678 420.319 227.678 419.222V418.709H227.659C227.308 419.308 226.779 419.607 226.074 419.607C225.502 419.607 225.041 419.399 224.689 418.984C224.341 418.565 224.167 418.004 224.167 417.302C224.167 416.504 224.355 415.87 224.731 415.4C225.106 414.929 225.623 414.694 226.28 414.694C226.9 414.694 227.36 414.947 227.659 415.455H227.678V414.804H228.741V419.121ZM227.687 417.348V416.738C227.687 416.408 227.577 416.127 227.357 415.895C227.14 415.659 226.868 415.542 226.541 415.542C226.138 415.542 225.821 415.691 225.592 415.991C225.366 416.287 225.253 416.703 225.253 417.238C225.253 417.699 225.362 418.069 225.579 418.347C225.799 418.622 226.089 418.759 226.449 418.759C226.816 418.759 227.114 418.628 227.343 418.365C227.572 418.099 227.687 417.76 227.687 417.348ZM233.246 413.818C233.072 413.818 232.922 413.762 232.797 413.649C232.675 413.536 232.614 413.392 232.614 413.218C232.614 413.044 232.675 412.899 232.797 412.783C232.922 412.666 233.072 412.608 233.246 412.608C233.427 412.608 233.579 412.666 233.705 412.783C233.83 412.899 233.893 413.044 233.893 413.218C233.893 413.383 233.83 413.525 233.705 413.644C233.579 413.76 233.427 413.818 233.246 413.818ZM233.773 419.497H232.71V414.804H233.773V419.497ZM239.347 419.497H238.283V416.853C238.283 415.976 237.973 415.537 237.353 415.537C237.029 415.537 236.762 415.659 236.551 415.904C236.34 416.145 236.235 416.451 236.235 416.82V419.497H235.167V414.804H236.235V415.583H236.253C236.604 414.99 237.112 414.694 237.775 414.694C238.285 414.694 238.674 414.86 238.943 415.193C239.212 415.523 239.347 416.002 239.347 416.628V419.497Z" fill="white"/>
</g>
</g>
<defs>
<filter id="filter0_ddddd_2255_13579" x="138.551" y="0.393298" width="517.249" height="389.627" filterUnits="userSpaceOnUse" color-interpolation-filters="sRGB">
<feFlood flood-opacity="0" result="BackgroundImageFix"/>
<feColorMatrix in="SourceAlpha" type="matrix" values="0 0 0 0 0 0 0 0 0 0 0 0 0 0 0 0 0 0 127 0" result="hardAlpha"/>
<feOffset/>
<feColorMatrix type="matrix" values="0 0 0 0 0.109804 0 0 0 0 0.176471 0 0 0 0 0.109804 0 0 0 0.1 0"/>
<feBlend mode="normal" in2="BackgroundImageFix" result="effect1_dropShadow_2255_13579"/>
<feColorMatrix in="SourceAlpha" type="matrix" values="0 0 0 0 0 0 0 0 0 0 0 0 0 0 0 0 0 0 127 0" result="hardAlpha"/>
<feOffset dx="5.22474" dy="5.22474"/>
<feGaussianBlur stdDeviation="7.83711"/>
<feColorMatrix type="matrix" values="0 0 0 0 0.109804 0 0 0 0 0.176471 0 0 0 0 0.109804 0 0 0 0.1 0"/>
<feBlend mode="normal" in2="effect1_dropShadow_2255_13579" result="effect2_dropShadow_2255_13579"/>
<feColorMatrix in="SourceAlpha" type="matrix" values="0 0 0 0 0 0 0 0 0 0 0 0 0 0 0 0 0 0 127 0" result="hardAlpha"/>
<feOffset dx="20.8989" dy="20.1526"/>
<feGaussianBlur stdDeviation="14.5546"/>
<feColorMatrix type="matrix" values="0 0 0 0 0.109804 0 0 0 0 0.176471 0 0 0 0 0.109804 0 0 0 0.09 0"/>
<feBlend mode="normal" in2="effect2_dropShadow_2255_13579" result="effect3_dropShadow_2255_13579"/>
<feColorMatrix in="SourceAlpha" type="matrix" values="0 0 0 0 0 0 0 0 0 0 0 0 0 0 0 0 0 0 127 0" result="hardAlpha"/>
<feOffset dx="47.0226" dy="45.5299"/>
<feGaussianBlur stdDeviation="19.7794"/>
<feColorMatrix type="matrix" values="0 0 0 0 0.109804 0 0 0 0 0.176471 0 0 0 0 0.109804 0 0 0 0.05 0"/>
<feBlend mode="normal" in2="effect3_dropShadow_2255_13579" result="effect4_dropShadow_2255_13579"/>
<feColorMatrix in="SourceAlpha" type="matrix" values="0 0 0 0 0 0 0 0 0 0 0 0 0 0 0 0 0 0 127 0" result="hardAlpha"/>
<feOffset dx="83.5958" dy="80.6102"/>
<feGaussianBlur stdDeviation="23.1381"/>
<feColorMatrix type="matrix" values="0 0 0 0 0.109804 0 0 0 0 0.176471 0 0 0 0 0.109804 0 0 0 0.01 0"/>
<feBlend mode="normal" in2="effect4_dropShadow_2255_13579" result="effect5_dropShadow_2255_13579"/>
<feBlend mode="normal" in="SourceGraphic" in2="effect5_dropShadow_2255_13579" result="shape"/>
</filter>
<filter id="filter1_ddddd_2255_13579" x="0.053494" y="175.686" width="591.352" height="445.446" filterUnits="userSpaceOnUse" color-interpolation-filters="sRGB">
<feFlood flood-opacity="0" result="BackgroundImageFix"/>
<feColorMatrix in="SourceAlpha" type="matrix" values="0 0 0 0 0 0 0 0 0 0 0 0 0 0 0 0 0 0 127 0" result="hardAlpha"/>
<feOffset/>
<feColorMatrix type="matrix" values="0 0 0 0 0.109804 0 0 0 0 0.176471 0 0 0 0 0.109804 0 0 0 0.1 0"/>
<feBlend mode="normal" in2="BackgroundImageFix" result="effect1_dropShadow_2255_13579"/>
<feColorMatrix in="SourceAlpha" type="matrix" values="0 0 0 0 0 0 0 0 0 0 0 0 0 0 0 0 0 0 127 0" result="hardAlpha"/>
<feOffset dx="5.97325" dy="5.97325"/>
<feGaussianBlur stdDeviation="8.95988"/>
<feColorMatrix type="matrix" values="0 0 0 0 0.109804 0 0 0 0 0.176471 0 0 0 0 0.109804 0 0 0 0.1 0"/>
<feBlend mode="normal" in2="effect1_dropShadow_2255_13579" result="effect2_dropShadow_2255_13579"/>
<feColorMatrix in="SourceAlpha" type="matrix" values="0 0 0 0 0 0 0 0 0 0 0 0 0 0 0 0 0 0 127 0" result="hardAlpha"/>
<feOffset dx="23.893" dy="23.0397"/>
<feGaussianBlur stdDeviation="16.6398"/>
<feColorMatrix type="matrix" values="0 0 0 0 0.109804 0 0 0 0 0.176471 0 0 0 0 0.109804 0 0 0 0.09 0"/>
<feBlend mode="normal" in2="effect2_dropShadow_2255_13579" result="effect3_dropShadow_2255_13579"/>
<feColorMatrix in="SourceAlpha" type="matrix" values="0 0 0 0 0 0 0 0 0 0 0 0 0 0 0 0 0 0 127 0" result="hardAlpha"/>
<feOffset dx="53.7593" dy="52.0526"/>
<feGaussianBlur stdDeviation="22.613"/>
<feColorMatrix type="matrix" values="0 0 0 0 0.109804 0 0 0 0 0.176471 0 0 0 0 0.109804 0 0 0 0.05 0"/>
<feBlend mode="normal" in2="effect3_dropShadow_2255_13579" result="effect4_dropShadow_2255_13579"/>
<feColorMatrix in="SourceAlpha" type="matrix" values="0 0 0 0 0 0 0 0 0 0 0 0 0 0 0 0 0 0 127 0" result="hardAlpha"/>
<feOffset dx="95.572" dy="92.1587"/>
<feGaussianBlur stdDeviation="26.453"/>
<feColorMatrix type="matrix" values="0 0 0 0 0.109804 0 0 0 0 0.176471 0 0 0 0 0.109804 0 0 0 0.01 0"/>
<feBlend mode="normal" in2="effect4_dropShadow_2255_13579" result="effect5_dropShadow_2255_13579"/>
<feBlend mode="normal" in="SourceGraphic" in2="effect5_dropShadow_2255_13579" result="shape"/>
</filter>
<clipPath id="clip0_2255_13579">
<rect x="149" y="10.8428" width="376.927" height="252.291" rx="11.1959" fill="white"/>
</clipPath>
<clipPath id="clip1_2255_13579">
<rect x="12" y="187.633" width="430.927" height="288.435" rx="12.7998" fill="white"/>
</clipPath>
</defs>
</svg>
