<svg width="341" height="326" viewBox="0 0 341 326" fill="none" xmlns="http://www.w3.org/2000/svg">
<path d="M-93.4078 251.38C-128.973 233.37 -164.123 211.613 -187.476 179.815C-210.829 148.017 -219.945 104.148 -200.934 71.5453C-187.437 48.4045 -162.227 34.1742 -136.399 24.9225C-98.5909 11.3761 -57.7155 6.50022 -17.0447 3.55347C38.511 -0.457774 94.2667 -1.0366 149.899 1.81558C205.616 4.66589 317.318 17.4961 337.503 85.3169C357.688 153.138 269.836 191.689 256.678 203.71C234.751 223.74 224.333 251.195 200.958 293.061C177.582 334.926 109.723 328.555 63.4877 314.439C17.2522 300.324 -57.8473 269.388 -93.4078 251.38Z" fill="#ECF5FF"/>
</svg>
