<svg width="248" height="176" viewBox="0 0 248 176" fill="none" xmlns="http://www.w3.org/2000/svg">
<path d="M13.4653 135.851C-5.70093 126.145 -24.6435 114.42 -37.2286 97.2839C-49.8137 80.148 -54.7262 56.5066 -44.4814 38.9367C-37.2076 26.466 -23.6216 18.7972 -9.70295 13.8114C10.6721 6.5112 32.7001 3.88356 54.6178 2.29553C84.5571 0.133856 114.604 -0.178081 144.585 1.35898C174.611 2.89502 234.808 9.80928 245.686 46.3583C256.563 82.9073 209.22 103.683 202.129 110.161C190.312 120.955 184.698 135.751 172.1 158.313C159.503 180.874 122.934 177.441 98.0172 169.834C73.1006 162.227 32.629 145.555 13.4653 135.851Z" fill="#ECF5FF"/>
</svg>
