<svg width="254" height="177" viewBox="0 0 254 177" fill="none" xmlns="http://www.w3.org/2000/svg">
<path d="M236.603 136.546C255.914 126.767 275 114.953 287.681 97.6873C300.361 80.4216 305.311 56.6012 294.989 38.8982C287.66 26.333 273.971 18.6061 259.947 13.5826C239.417 6.22704 217.223 3.5795 195.139 1.97945C164.973 -0.1986 134.698 -0.5129 104.491 1.0358C74.237 2.58349 13.5838 9.55011 2.62372 46.376C-8.33635 83.2018 39.366 104.135 46.5109 110.662C58.4168 121.538 64.0737 136.446 76.7663 159.178C89.459 181.91 126.305 178.451 151.411 170.786C176.516 163.122 217.294 146.324 236.603 136.546Z" fill="#ECF5FF"/>
</svg>
