<svg width="356" height="356" viewBox="0 0 356 356" fill="none" xmlns="http://www.w3.org/2000/svg">
<rect width="356" height="356" rx="12.1088" transform="matrix(-1 0 0 1 356 0)" fill="#F5F6F7"/>
<path d="M178.709 55.2934C178.709 55.2934 184.212 64.3645 173.863 70.0757C173.863 70.0757 181.818 72.9444 184.589 71.8613C184.589 71.8613 183.903 72.5768 183.379 72.837C183.379 72.837 190.857 75.2113 194.584 73.9136C198.311 72.6159 206.335 36.4164 184.267 34.5072C184.267 34.5072 166.86 28.2756 163.182 47.699C159.5 67.1258 152.797 65.2394 152.797 65.2394C152.797 65.2394 154.423 66.6119 155.324 66.8656C155.324 66.8656 156.771 66.7713 157.217 66.1761C157.217 66.1761 156.661 67.1583 156.228 67.399C156.228 67.399 163.286 70.066 167.608 68.5633C171.931 67.0607 178.637 59.4956 178.709 55.2934Z" fill="#555CA3"/>
<path d="M156.553 341.077H184.706C184.706 341.077 185.382 336.787 183.909 333.531C182.501 330.409 180.308 328.48 180.107 326.086C178.318 327.927 176.116 329.114 172.047 328.565C171.55 329.375 168.827 333.7 167.162 334.897C165.321 336.218 157.119 335.749 156.553 341.077Z" fill="#555CA3"/>
<path d="M181.198 331.484C181.198 331.484 178 332.55 174.803 332.55C169.836 331.627 169.836 330.399 169.836 330.399C169.836 330.399 165.429 291.172 151.164 216.184C149.105 205.353 148.295 199.359 147.55 189.732C147.329 186.85 147.111 183.644 146.874 179.884C146.226 169.778 147.761 152.768 155.346 148.299C158.794 146.263 163.49 146.823 169.81 151.796C170.304 152.186 170.818 152.609 171.335 153.058C189.819 169.047 182.24 214.968 182.989 236.557C183.115 240.135 183.467 243.046 184.205 245.043C185.158 247.622 187.207 251.196 187.672 254.566C191.552 282.566 184.395 330.419 184.395 330.419L181.198 331.484Z" fill="#555CA3"/>
<path d="M182.981 236.555L147.546 189.733C147.325 186.851 147.107 183.644 146.87 179.885C146.222 169.779 147.758 152.769 155.342 148.3L169.806 151.797C170.3 152.187 170.814 152.61 171.331 153.059C189.815 169.048 182.237 214.969 182.985 236.558L182.981 236.555Z" fill="#333381"/>
<path d="M283.139 281.826L271.421 256.226C271.421 256.226 267.238 257.397 264.89 260.09C262.636 262.672 261.003 262.214 255.871 258.649C257.803 261.635 258.066 263.394 259.26 267.32C260.203 267.437 265.57 272.631 271.07 274.062C273.262 274.632 278.056 283.527 283.139 281.823V281.826Z" fill="#555CA3"/>
<path d="M160.288 159.536C160.288 159.536 185.517 247.237 194.761 252.884C204.004 258.53 252.605 266.293 262.483 270.528C262.483 270.528 263.686 268.804 262.98 265.116C264.338 265.116 262.98 256.875 262.98 256.875C262.98 256.875 231.25 238.664 211.384 236.374C206.453 235.805 221.421 160.524 188.11 157.519C157.68 154.774 160.288 159.539 160.288 159.539V159.536Z" fill="#555CA3"/>
<path d="M124.291 15.6474C124.291 15.6474 124.971 12.2649 125.735 9.68248C126.073 8.54088 123.715 1.03428 122.086 0.110594C120.453 -0.813095 116.206 4.24117 117.409 8.12132C118.027 10.1151 119.042 16.6004 119.042 16.6004L124.294 15.6474H124.291Z" fill="#E5B0B4"/>
<path d="M124.293 15.6466C124.293 15.6466 125.181 13.6854 125.981 13.3667C126.781 13.0479 127.64 9.84104 128.228 8.56934C128.228 8.56934 127.659 7.73672 126.667 8.80677C126.062 9.46051 124.709 11.3729 124.709 11.3729L124.293 15.6466Z" fill="#D4959A"/>
<path d="M240.516 27.0304C240.688 27.3881 240.929 28.0224 241.14 28.6208C241.143 28.4582 241.147 28.2956 241.147 28.1362C241.156 26.9458 245.609 20.4572 247.437 20.0507C249.265 19.6441 251.85 25.7196 249.564 29.0794C248.39 30.8064 245.521 36.7096 245.521 36.7096L240.779 34.2605C240.779 34.2605 240.506 32.1237 239.833 31.587C239.159 31.0471 239.28 27.7296 239.088 26.3409C239.088 26.3409 239.875 25.7099 240.512 27.0239L240.516 27.0304Z" fill="#E5B0B4"/>
<path d="M165.331 78.5181C165.269 78.5344 170.398 82.2486 174.75 81.725C178.841 81.2371 182.168 76.5211 182.116 76.5016C180.5 75.9227 180.36 73.5647 181.859 63.7358L181.085 63.7716L168.053 64.3961C168.053 64.3961 167.747 68.4226 167.198 72.1759C166.736 75.3275 166.101 78.2872 165.331 78.5181Z" fill="#E5B0B4"/>
<path d="M168.055 64.3945C168.055 64.3945 167.749 68.421 167.199 72.1743C174.312 73.0297 179.019 67.1233 181.084 63.77L168.051 64.3945H168.055Z" fill="#D4959A"/>
<path d="M182.6 62.5859C182.6 62.5859 187.185 57.2714 188.821 52.3895C189.989 48.9029 190.142 35.3598 176.517 35.2883C176.517 35.2883 172.585 35.0931 168.578 37.0121C165.391 38.5375 160.584 42.1379 163.534 54.4158L164.165 58.5074L182.596 62.5859H182.6Z" fill="#555CA3"/>
<path d="M148.988 156.157C148.988 156.157 161.77 164.223 183.061 159.042C183.311 158.98 195.166 157.091 195.166 157.091C194.87 156.278 182.413 135.696 182.121 134.948C178.345 125.201 187.09 78.6651 181.324 76.0534C179.851 77.6568 175.642 78.7562 172.041 78.4342C167.895 78.0666 166.503 76.2746 166.847 74.3491C162.258 76.5185 158.729 78.5382 158.729 78.5382C154.534 84.8252 148.992 156.157 148.992 156.157H148.988Z" fill="#E5B0B4"/>
<path d="M165.161 67.5923C165.161 67.5923 181.878 70.3634 183.442 59.9231C185.007 49.4861 188.217 42.8121 177.611 40.6037C167.001 38.3953 164.328 42.064 162.959 45.4238C161.589 48.7803 160.854 66.6036 165.161 67.5923Z" fill="#E5B0B4"/>
<path d="M170.015 39.218C170.015 39.218 172.783 52.1496 179.554 55.0085C186.326 57.8674 189.663 56.4331 189.663 56.4331C189.663 56.4331 184.898 51.3398 184.892 43.6803C184.892 43.6803 174.341 33.9035 170.012 39.218H170.015Z" fill="#555CA3"/>
<path d="M171.004 40.3785C171.004 40.3785 167.169 42.6032 165.94 45.1368C164.707 47.6705 163.52 53.089 161.952 52.6629C161.952 52.6629 159.734 43.8229 164.32 39.6923C169.182 35.3113 171.007 40.3753 171.007 40.3753L171.004 40.3785Z" fill="#555CA3"/>
<path d="M244.439 36.7129C244.439 36.7129 233.657 69.4844 230.789 74.5516C229.061 77.6089 209.638 89.7014 198.365 97.6699C198.241 97.7544 198.098 97.9301 197.933 98.187C197.933 98.1935 197.926 98.1968 197.92 98.2033C195.106 102.555 186.36 129.485 188.452 134.318C197.243 154.633 203.27 162.491 205.462 168.189C206.558 171.032 205.094 174.216 202.226 175.237C198.612 176.522 193.291 178.141 187.014 179.218C185.817 179.426 184.585 179.611 183.323 179.771C165.997 181.969 154.265 177.904 148.31 174.899C145.494 173.477 143.793 170.521 143.968 167.373C144.326 160.946 147.539 154.584 148.99 139.129C150.089 127.4 139.968 109.554 140.397 103.313C140.566 100.844 142.508 97.891 143.558 95.9754C143.558 95.9754 143.558 95.9754 143.558 95.9689C145.419 92.5798 146.44 89.5193 145.201 87.8215C136.956 76.5063 119.152 60.9012 118.427 57.0048C117.363 51.2773 117.842 15.8876 117.842 15.8876C118.521 15.6502 119.523 15.081 120.831 14.964C121.995 14.8599 123.455 15.2372 123.455 15.2372C123.455 15.2372 128.171 44.561 128.523 46.1124C128.874 47.6638 148.753 70.0633 154.113 69.9722C158.952 69.8909 165.779 73.628 166.839 74.3467C166.839 74.3467 162.494 82.0452 161.411 92.4432C160.656 99.7157 165.512 96.4827 168.566 91.5033C172.697 84.761 181.013 75.1598 181.013 75.1598C181.013 75.1598 187.778 73.4003 192.82 75.2281C197.861 77.0528 223.939 62.3258 224.775 60.9728C225.614 59.6165 239.58 33.5906 239.58 33.5906C239.58 33.5906 240.738 32.9206 242.595 33.8866C244.429 34.8428 244.439 36.7129 244.439 36.7129Z" fill="#DDE3F2"/>
<path d="M170.009 61.9282C170.009 61.9282 169.294 63.369 168.331 63.3983C167.368 63.4243 164.926 63.1934 164.76 62.943C164.594 62.6925 164.188 61.1867 164.188 61.1867C164.188 61.1867 168.227 61.0241 170.009 61.9282Z" fill="white"/>
<path d="M202.221 175.24C198.607 176.525 193.286 178.145 187.009 179.221C181.031 170.98 170.913 160.608 173.518 141.535C176.208 121.819 195.592 101.069 197.918 98.2065C195.104 102.558 186.359 129.488 188.45 134.321C197.241 154.636 203.268 162.494 205.46 168.192C206.556 171.035 205.093 174.219 202.224 175.24H202.221Z" fill="#CED4EA"/>
<path d="M143.561 95.9675C145.422 92.5784 146.443 89.5179 145.204 87.8201C136.959 76.505 119.155 60.8998 118.43 57.0034C120.196 61.2381 141.756 73.8868 147.819 79.3248C153.813 84.6946 143.808 95.704 143.561 95.9675Z" fill="#CED4EA"/>
</svg>
