<svg width="356" height="356" viewBox="0 0 356 356" fill="none" xmlns="http://www.w3.org/2000/svg">
<rect width="356" height="356" rx="12.1088" fill="#F5F6F7"/>
<path d="M208.287 300.789L212.623 309.112L239.832 304.197C239.832 304.197 230.721 293.558 208.287 300.789Z" fill="#221E50"/>
<path d="M160.243 158.667L205.902 211.557L230.09 297.53L206.62 304.235L175.717 233.604C175.717 233.604 148.68 209.009 143.031 204.151C133.864 196.264 115.064 161.748 115.064 161.748L160.246 158.67L160.243 158.667Z" fill="#2B295E"/>
<path d="M196.575 159.799L200.672 162.913C200.672 162.913 210.249 164.971 210.242 175.717C210.242 175.717 209.915 180.118 207.039 178.533C204.163 176.948 205.444 177.15 201.35 175.002C197.256 172.854 194.288 169.045 194.321 165.729L190.25 160.987L196.575 159.802V159.799Z" fill="#E5B0B4"/>
<path d="M152.5 63.7226L159.043 92.6264L167.988 132.13L183.797 153.763L192.255 165.336L200.158 161.024L183.873 125.822C182.377 110.497 174.167 72.2938 170.94 70.0235C165.271 66.0325 152.5 63.7192 152.5 63.7192V63.7226Z" fill="#DDE3F2"/>
<path opacity="0.2" d="M159.031 92.6261L167.976 132.13L183.785 153.763C181.919 145.099 172.411 133.95 170.452 131.332C168.297 128.46 173.566 89.4227 167.579 82.9595C161.593 76.4964 159.197 92.0602 159.197 92.0602L159.035 92.6261H159.031Z" fill="#CED4EA"/>
<path d="M151.182 49.2303C151.182 49.2303 149.696 54.7007 148.18 65.8763C148.18 65.8763 139.443 73.4282 135.81 72.7399C132.653 72.1442 128.976 62.1169 128.976 62.1169C128.976 62.1169 132.457 57.1727 135.892 43.1113L151.182 49.227V49.2303Z" fill="#D4959A"/>
<path d="M153.389 54.724C153.389 54.724 135.952 58.3841 133.837 47.4898C131.726 36.5954 128.049 29.7318 139.096 26.9321C150.139 24.1324 153.114 27.8687 154.706 31.3335C156.294 34.7984 157.869 53.4863 153.389 54.7207V54.724Z" fill="#E5B0B4"/>
<path d="M133.841 47.4894C133.841 47.4894 132.775 32.6668 148.511 30.6448C164.247 28.6228 155.067 14.9221 141.264 14.9287C141.264 14.9287 143.518 19.9159 135.191 22.1166C117.718 26.7365 131.885 45.4276 133.841 47.4894Z" fill="#555CA3"/>
<path d="M92.4058 329.868L95.1922 338.83H122.842C122.842 338.83 115.77 326.741 92.4058 329.868Z" fill="#221E50"/>
<path d="M89.9135 330.974C89.9135 330.974 101.129 188.087 115.058 161.744L157.047 158.709L156.249 184.572C156.249 184.572 151.507 186.822 149.416 191.095L113.582 330.693L89.9135 330.971V330.974Z" fill="#333381"/>
<path d="M115.597 180.251C127.729 180.251 133.004 171.448 133.057 171.358L132.497 171.031C132.471 171.074 128.572 175.588 124.36 177.868C120.097 180.174 115.524 180.251 115.597 180.251Z" fill="#221E50"/>
<path d="M98.002 318.68C98.2336 305.717 99.1966 290.454 100.98 274.659C101.255 272.243 101.55 269.761 101.857 267.282C102.198 264.545 102.562 261.779 102.936 259.055C103.065 258.119 103.502 257.086 103.926 256.09C104.319 255.16 104.727 254.2 104.846 253.396C106.338 243.054 108.152 233.659 109.753 225.369C110.174 223.195 110.584 221.067 110.978 218.979C114.539 200.119 116.495 189.42 116.508 189.314C116.495 189.42 115.154 200.169 111.587 219.055C111.193 221.143 110.783 223.271 110.362 225.449C108.764 233.732 106.954 243.117 105.461 253.442C105.332 254.343 104.905 255.349 104.492 256.322C104.088 257.275 103.668 258.261 103.552 259.098C103.178 261.818 102.817 264.585 102.476 267.315C102.168 269.794 101.871 272.273 101.599 274.682C99.8155 290.454 98.4057 305.78 98.1773 318.719L98.0053 318.68H98.002Z" fill="#2B295E"/>
<path d="M113.225 166.538C113.503 166.637 119.331 170.609 146.034 167.018C151.958 166.22 158.457 165.87 161.121 158.477C166.625 140.745 171.231 70.1501 170.94 70.0309C171.049 70.4181 162.783 65.2456 148.609 62.9655C147.553 64.7724 145.481 66.9036 142.122 66.9962C138.082 67.1088 132.151 63.9881 128.981 62.1216C124.98 62.4327 120.757 63.0449 116.336 64.041C115.932 64.1337 114.39 80.2336 113.347 99.494C113.04 105.216 112.772 111.212 112.596 117.156C111.905 140.219 108.777 164.93 113.225 166.538Z" fill="#DDE3F2"/>
<path opacity="0.2" d="M112.595 117.156C116.871 119.109 125.2 122.143 125.554 116.369C126.034 108.585 119.687 96.0127 117.172 95.5329C115.706 95.2516 114.279 97.5384 113.346 99.4942C113.038 105.216 112.77 111.213 112.595 117.156Z" fill="#CED4EA"/>
<path d="M114.774 108.258L150.375 124.02L129.398 171.401L93.7965 155.64L114.774 108.258Z" fill="#2B295E"/>
<path d="M127.814 140.908L129.088 142.493C129.088 142.493 137.812 137.906 144.735 146.209C144.735 146.209 147.32 149.816 144.076 150.449C140.833 151.081 141.952 150.409 137.405 151.392C132.858 152.375 128.112 151.345 126.001 148.764L123.671 145.878L127.814 140.908Z" fill="#E5B0B4"/>
<path d="M128.825 62.1215C128.825 62.1215 110.663 62.2671 108.237 64.0641C105.811 65.861 81.5406 106.089 81.1335 121.534C81.1335 121.534 96.1944 137.439 123.698 146.781L129.205 141.212C129.205 141.212 108.469 120.237 98.5804 116.405C98.5804 116.405 114.942 99.8017 118.539 90.8598C122.136 81.918 128.825 62.1182 128.825 62.1182V62.1215Z" fill="#DDE3F2"/>
</svg>
