<svg width="356" height="356" viewBox="0 0 356 356" fill="none" xmlns="http://www.w3.org/2000/svg">
<g clip-path="url(#clip0_2246_13888)">
<rect width="356" height="356" rx="12.1088" fill="#F5F6F7"/>
<path d="M217.127 171.875C217.127 171.875 130.795 168.583 119.794 153.356C119.794 153.356 159.995 134.056 150.821 93.2483L212.909 86.6279C212.909 86.6279 222.897 157.885 217.127 171.872V171.875Z" fill="#2B295E"/>
<path d="M81.4707 237.079L73.8673 234.997L61.824 254.162C61.824 254.162 73.521 254.673 81.4707 237.079Z" fill="#221E50"/>
<path d="M181.023 295.295L177.546 302.371L194.106 317.805C194.106 317.805 196.807 306.411 181.023 295.298V295.295Z" fill="#221E50"/>
<path d="M138.902 22.4589L139.321 16.2443C139.321 16.2443 145.868 10.1253 140.812 1.69725C140.812 1.69725 138.486 -1.60139 136.972 0.994644C135.458 3.59068 136.372 2.82869 134.165 6.44071C131.961 10.0494 132.961 15.0931 133.749 16.8677L132.987 21.819L138.898 22.4622L138.902 22.4589Z" fill="#E5B0B4"/>
<path d="M195.238 84.4398C192.919 78.2614 193.417 74.4251 193.417 74.4251L179.484 64.8491C178.28 76.6781 176.185 79.8514 176.291 84.5124C176.291 84.6311 195.281 84.5585 195.235 84.4365L195.238 84.4398Z" fill="#D4959A"/>
<path d="M196.492 73.9463C196.492 73.9463 180.009 77.9937 177.643 67.6921C175.282 57.3871 171.561 50.9712 181.984 47.9497C192.408 44.9281 195.364 48.3917 196.99 51.6376C198.616 54.8867 200.717 72.6301 196.492 73.9496V73.9463Z" fill="#E5B0B4"/>
<path d="M177.812 68.4023C177.812 68.4023 177.083 54.4127 192.125 51.0085C202.427 48.6764 195.453 40.4529 194.157 39.1631C194.157 39.1631 186.306 41.2907 178.29 43.7053C161.464 48.7687 175.846 66.4627 177.812 68.4023Z" fill="#2B295E"/>
<path d="M199.118 176.072C199.118 176.072 213.328 202.049 218.161 211.015C238.098 247.989 236.214 255.118 236.214 255.118C236.214 255.118 219.836 275.675 214.456 281.51C208.628 287.827 191.372 303.733 191.372 303.733L174.731 294.111C174.731 294.111 186.157 275.322 190.818 269.058C194.067 264.687 206.365 251.582 206.365 251.582C206.365 251.582 196.439 241.893 186.045 233.218C171.224 220.838 152.303 182.455 152.303 182.455L199.118 176.076V176.072Z" fill="#2B295E"/>
<path d="M194.65 166.59C194.65 166.59 169.356 263.554 158.418 268.231C139.464 276.329 74.583 251.939 74.583 251.939L79.5639 235.601C79.5639 235.601 96.321 235.819 108.496 236.03C117.079 236.178 134.615 239.929 134.615 239.929C134.615 239.929 140.368 186.154 149.68 170.621C164.154 146.471 194.65 166.59 194.65 166.59Z" fill="#333381"/>
<path d="M201.821 175.852C201.488 176.799 200.594 177.429 199.591 177.429C199.591 177.429 182.102 179.712 170.972 179.712C169.887 179.712 168.864 179.689 167.921 179.639C154.898 178.973 146.968 177.429 146.968 177.429C145.216 177.429 144.26 175.384 145.391 174.045C147.846 171.135 151.355 165.838 155.426 156.351C160.941 143.499 157.006 118.136 153.245 100.818C150.969 90.3216 148.756 82.7842 148.756 82.7842C156.412 80.0034 166.905 78.9446 177.091 78.5059C178.635 79.3503 184.926 83.0811 190.784 81.9661C193.891 81.3724 194.073 80.1585 193.802 79.4262C207.884 79.855 210.131 85.7761 210.131 85.7761C227.31 117.45 205.123 166.51 201.825 175.849L201.821 175.852Z" fill="#DDE3F2"/>
<path d="M173.064 81.3753C173.064 81.3753 155.76 68.4809 151.013 63.6253L139.217 17.7445L133.477 17.6587C133.477 17.6587 130.759 62.5599 131.858 65.753C137.472 82.0516 165.095 107.979 165.095 107.979L173.064 81.3753Z" fill="#DDE3F2"/>
<path d="M170.872 179.642C170.908 179.665 170.944 179.685 170.981 179.715C169.895 179.715 168.873 179.691 167.929 179.642C154.906 178.976 146.976 177.432 146.976 177.432C145.225 177.432 144.268 175.387 145.4 174.047C147.854 171.138 151.363 165.84 155.434 156.353C160.949 143.502 157.014 118.139 153.254 100.821L169.79 101.629C169.79 101.629 174.355 137.373 170.222 151.359C166.089 165.342 166.999 177.293 170.872 179.642Z" fill="#CED4EA"/>
<path d="M175.838 77.1934C175.838 77.1934 161.852 161.883 132.771 179.643C132.771 179.643 114.457 159.554 116.123 153.893C116.123 153.893 148.1 129.193 149.096 118.133C150.095 107.076 151.52 94.033 150.821 93.2512C150.122 92.4694 132.21 72.1828 131.854 65.7537C131.497 59.3246 130.105 18.814 130.105 18.814C130.105 18.814 138.154 19.5661 140.427 18.814C140.427 18.814 150.283 61.5182 152.276 64.0615C154.265 66.6047 168.581 78.8196 170.21 78.249C171.84 77.6783 174.944 76.0818 175.835 77.1967L175.838 77.1934Z" fill="#555CA3"/>
<path d="M222.247 123.357C220.954 121.028 224.49 143.386 223.936 154.037C223.916 154.427 223.893 154.816 223.87 155.195C223.867 155.301 223.86 155.406 223.853 155.512C223.18 165.988 221.419 171.873 221.419 171.873C221.419 171.873 211.124 176.64 206.756 176.076C206.756 176.076 221.462 131.752 214.353 102.539C214.353 102.539 203.105 80.9922 195.482 79.4121C195.482 79.4121 211.338 82.5854 215.039 83.3243C215.039 83.3243 226.509 98.0363 229.84 103.189C232.621 107.49 239.502 121.133 239.502 121.133L250.087 109.093L261.514 98.663L266.881 103.42C266.881 103.42 253.535 140.002 237.431 140.691C235.821 140.76 230.757 138.679 222.244 123.36L222.247 123.357Z" fill="#555CA3"/>
<path d="M175.839 77.1934C175.839 77.1934 168.513 88.5143 167.181 89.7348L169.361 92.6211L166.514 94.0033C166.514 94.0033 165.033 122.038 163.704 126.063C163.704 126.063 176.43 80.2644 175.839 77.1934Z" fill="#333381"/>
<path d="M194.406 79.4518C194.109 79.498 214.174 96.2485 216.008 112.395C216.008 112.395 218.459 108.051 213.462 97.0633C213.462 97.0633 209.909 88.5165 209.8 86.6296L206.139 86.5175L208.689 85.297C208.689 85.297 198.394 78.7228 196.533 78.9537C194.828 79.1648 194.406 79.4518 194.406 79.4518Z" fill="#333381"/>
<path d="M142.761 154.548C140.571 153.795 138.275 151.81 135.94 148.643C134.208 146.298 133.099 144.137 133.089 144.117C133.132 144.203 137.873 152.403 142.906 154.129L142.761 154.548Z" fill="#2B295E"/>
<path d="M223.872 155.196C223.868 155.301 223.862 155.407 223.855 155.512C220.936 156.426 218.508 156.647 216.615 156.176L216.724 155.743C217.393 155.908 218.119 155.984 218.878 155.984C220.491 155.984 222.239 155.654 223.875 155.199L223.872 155.196Z" fill="#2B295E"/>
<path d="M156.078 186.967C155.857 187.634 148.086 230.255 146.977 238.248L145.645 245.353C145.645 245.353 145.757 248.794 143.312 248.24C140.871 247.685 115.897 244.697 109.679 244.581C103.465 244.466 83.4848 243.467 83.4848 243.467C83.4848 243.467 104.279 244.984 105.833 244.984C107.387 244.984 110.273 244.984 111.16 245.205C112.048 245.426 136.022 246.953 140.169 248.299C144.312 249.645 145.645 248.952 145.645 248.299C145.645 247.646 146.235 244.835 146.753 243.503C147.271 242.17 149.86 223.599 150.414 221.765C150.969 219.934 156.075 186.967 156.075 186.967H156.078Z" fill="#2B295E"/>
<path d="M159.339 187.885C158.745 187.885 158.399 187.856 158.382 187.856L158.445 187.193C158.527 187.199 167.14 188.377 173.5 182.667C168.222 187.407 161.744 187.889 159.339 187.889V187.885Z" fill="#2B295E"/>
<path d="M255.61 89.3986C255.61 89.3986 259.291 86.7926 263.586 92.0045C267.881 97.2196 262.837 100.861 262.837 100.861C262.837 100.861 256.837 101.514 255.61 89.3953V89.3986Z" fill="#E5B0B4"/>
</g>
<defs>
<clipPath id="clip0_2246_13888">
<rect width="356" height="356" rx="12.1088" fill="white"/>
</clipPath>
</defs>
</svg>
