<svg width="356" height="356" viewBox="0 0 356 356" fill="none" xmlns="http://www.w3.org/2000/svg">
<g clip-path="url(#clip0_2246_13865)">
<rect width="356" height="356" rx="12.1088" transform="matrix(-1 0 0 1 356 0)" fill="#F5F6F7"/>
<path d="M172.071 104.582C189.941 121.524 208.595 143.669 215.925 166.245L218.764 164.446C218.715 161.535 218.518 156.927 217.81 154.22C218.935 156.454 220.794 160.081 221.816 162.512L239.186 151.506L236.786 147.129C237.233 147.337 238.789 148.859 240.5 150.673L249.314 145.088L264.424 132.197L261.948 127.68C262.391 127.888 263.92 129.388 265.617 131.175L270.349 127.139L272.897 124.966L273.227 124.685C268.369 116.988 257.253 103.624 257.041 103.363C260.331 104.566 270.928 115.925 276.21 122.134L279.25 119.54C260.097 87.624 235.832 76.2999 216.44 72.6805C213.979 72.2224 211.59 71.469 209.33 70.4013C202.545 67.1983 190.873 60.7507 185.992 52.5388C177.406 38.1216 155.235 39.034 153.728 43.1191C153.728 43.1191 150.786 46.3448 150.597 54.0683C150.563 55.6093 147.848 81.6193 172.075 104.582H172.071Z" fill="#2B295E"/>
<path d="M161.966 75.0372C161.966 75.0372 167.626 85.5473 161.023 94.0318C161.023 94.0318 166.559 101.998 169.466 102.024C174.468 102.07 184.243 88.5458 184.243 88.5458C184.243 88.5458 181.207 81.0608 175.429 70.5811L161.966 75.0372Z" fill="#D4959A"/>
<path d="M158.122 78.8545C158.122 78.8545 176.746 82.1483 178.62 70.5176C180.49 58.8869 184.155 51.4815 172.347 48.888C160.534 46.2946 157.505 50.357 155.934 54.0862C154.367 57.8155 153.329 77.696 158.122 78.8545Z" fill="#E5B0B4"/>
<path d="M154.883 48.7546C154.883 48.7546 179.386 67.6166 177.338 80.2998C175.414 92.2145 187.333 89.7763 190.271 89.4545C201.311 88.2392 205.358 88.1861 211.23 91.6882C213.43 93.002 201.443 79.9099 197.218 74.4845C185.978 60.0446 181.813 48.2246 179.572 46.8199C164.284 37.2488 154.883 48.7546 154.883 48.7546Z" fill="#2B295E"/>
<path d="M264.632 317.709L271.556 336.363L264.556 339.759L252.422 326.152L264.632 317.709Z" fill="#E5B0B4"/>
<path d="M270.857 330.389L276.184 336.874L262.778 356.91C262.778 356.91 257.201 345.756 270.857 330.389Z" fill="#2B295E"/>
<path d="M164.129 176.248L208.94 166.306C208.94 166.306 216.183 176.907 238.009 262.361L272.254 319.621L253.351 330.854L210.118 273.291L164.125 176.248H164.129Z" fill="#333381"/>
<path d="M89.2435 110.079L87.3392 107.05C87.3392 107.05 86.5024 100.292 79.0591 99.6368C79.0591 99.6368 75.9924 99.5914 76.9124 101.685C77.8324 103.775 77.7718 102.874 79.0099 105.842C80.2441 108.81 82.7013 111.097 84.9994 111.279L88.0358 114.391L89.2473 110.082L89.2435 110.079Z" fill="#E5B0B4"/>
<path d="M237.158 157.77C237.158 157.672 237.166 157.57 237.177 157.471C237.166 156.071 236.23 151.648 236.23 151.648L244.117 152.148C244.223 152.194 245.275 154.507 245.643 155.215C245.722 155.37 245.771 155.544 245.786 155.718L246.15 160.133C246.195 160.705 245.824 161.227 245.268 161.367L244.174 161.644C244.049 161.689 243.92 161.719 243.787 161.742C243.39 161.803 242.973 161.757 242.58 161.583L238.43 159.735C237.631 159.38 237.158 158.592 237.154 157.767L237.158 157.77Z" fill="#E5B0B4"/>
<path d="M84.3319 111.974C84.3319 111.974 87.8832 119.043 92.9716 126.24C98.2721 133.744 105.242 141.392 111.599 141.331C123.124 141.221 145.439 117.835 145.488 117.918C145.541 118.005 145.571 118.111 145.582 118.248C145.738 120.057 142.679 126.547 149.622 145.219C152.295 152.409 161.601 164.926 164.126 176.242L199.711 168.352L208.938 166.3C208.521 165.569 207.689 163.892 206.083 160.367C203.971 155.726 200.828 149.077 200.828 142.047C200.828 132.472 200.995 126.55 202.608 115.787C202.608 115.775 202.608 115.768 202.608 115.756C202.608 115.756 209.029 119.8 222.965 124.798C222.965 124.798 231.62 141.804 236.527 153.685C237.095 155.063 244.758 153.234 244.758 153.234C244.758 153.234 240.267 117.048 235.236 112.913C226.077 105.39 211.24 87.7285 194.744 85.5364C194.744 85.5364 195.073 84.374 180.149 86.1951C177.756 86.4866 180.774 95.7549 170.123 96.8982C160.253 97.9546 163.566 89.1293 163.653 88.9021C163.494 88.9362 153.196 91.1208 149.141 92.302C145.158 93.4605 143.383 93.116 140.184 95.7738C128.333 105.621 115.889 118.869 111.523 124.264C111.523 124.264 99.8736 114.503 89.0796 108.571L84.3281 111.967L84.3319 111.974Z" fill="#DDE3F2"/>
<path d="M189.497 154.026C190.36 157.479 195.623 164.229 199.712 168.356L208.938 166.304C208.522 165.573 207.689 163.896 206.084 160.371C203.971 155.73 200.829 149.081 200.829 142.051C200.829 132.476 200.995 126.554 202.608 115.791C201.495 114.507 200.374 113.546 199.556 113.606C197.22 113.784 188.24 148.994 189.497 154.022V154.026Z" fill="#CED4EA"/>
<path d="M92.9746 126.24C98.2751 133.744 105.245 141.391 111.602 141.331C123.127 141.221 145.574 118.111 145.585 118.247C146.941 116.476 146.733 111.8 146.271 109.593C145.532 106.068 119.746 136.299 113.158 136.417C106.574 136.534 96.0224 125.274 92.9746 126.236V126.24Z" fill="#CED4EA"/>
<path d="M112.624 285.079L98.6461 300.995L91.9297 296.157L98.5401 277.908L112.624 285.079Z" fill="#E5B0B4"/>
<path d="M104.387 297.13L101.207 304.899L77.2109 302.612C77.2109 302.612 84.3779 292.409 104.387 297.134V297.13Z" fill="#2B295E"/>
<path d="M223.208 200.023C222.633 188.233 218.934 179.877 215.329 174.429L215.36 174.418L208.817 166.085L168.557 175.376C168.557 175.376 176.231 182.195 172.331 185.587L123.476 211.979L91.9805 286.924L116.624 296.843L152.523 233.874C152.523 233.874 224.378 223.936 223.212 200.023H223.208Z" fill="#555CA3"/>
</g>
<defs>
<clipPath id="clip0_2246_13865">
<rect width="356" height="356" rx="12.1088" transform="matrix(-1 0 0 1 356 0)" fill="white"/>
</clipPath>
</defs>
</svg>
