<svg width="32" height="32" viewBox="0 0 32 32" fill="none" xmlns="http://www.w3.org/2000/svg">
<path d="M28.1875 23V26C28.1875 27.0609 27.7661 28.0783 27.0159 28.8284C26.2658 29.5786 25.2484 30 24.1875 30H17" stroke="#69A757" stroke-width="2" stroke-linecap="round" stroke-linejoin="round"/>
<path d="M28.1875 16H24.1875C23.6571 16 23.1484 16.2107 22.7733 16.5858C22.3982 16.9608 22.1875 17.4696 22.1875 18V23C22.1875 23.5304 22.3982 24.0391 22.7733 24.4142C23.1484 24.7893 23.6571 25 24.1875 25H26.1875C26.7179 25 27.2266 24.7893 27.6017 24.4142C27.9768 24.0391 28.1875 23.5304 28.1875 23V16ZM28.1875 16C28.1876 14.4157 27.8739 12.847 27.2646 11.3846C26.6553 9.92211 25.7624 8.59478 24.6375 7.47916C23.5126 6.36354 22.1779 5.48172 20.7104 4.88457C19.2429 4.28743 17.6718 3.98679 16.0875 3.99999C14.5043 3.98844 12.9344 4.29031 11.4684 4.8882C10.0024 5.48608 8.66919 6.36817 7.5456 7.48362C6.42201 8.59908 5.53026 9.92585 4.92174 11.3875C4.31322 12.8491 3.99996 14.4167 4 16V23C4 23.5304 4.21071 24.0391 4.58579 24.4142C4.96086 24.7893 5.46957 25 6 25H8C8.53043 25 9.03914 24.7893 9.41421 24.4142C9.78929 24.0391 10 23.5304 10 23V18C10 17.4696 9.78929 16.9608 9.41421 16.5858C9.03914 16.2107 8.53043 16 8 16H4" stroke="black" stroke-width="2" stroke-linecap="round" stroke-linejoin="round"/>
</svg>
