<svg width="32" height="32" viewBox="0 0 32 32" fill="none" xmlns="http://www.w3.org/2000/svg">
<path d="M16 22.5C18.7614 22.5 21 20.2614 21 17.5C21 14.7386 18.7614 12.5 16 12.5C13.2386 12.5 11 14.7386 11 17.5C11 20.2614 13.2386 22.5 16 22.5Z" stroke="#69A757" stroke-width="2" stroke-linecap="round" stroke-linejoin="round"/>
<path d="M24.5 14.5C25.6647 14.4981 26.8137 14.7683 27.8554 15.2891C28.8972 15.81 29.8028 16.5671 30.5 17.5" stroke="black" stroke-width="2" stroke-linecap="round" stroke-linejoin="round"/>
<path d="M1.5 17.5C2.19725 16.5671 3.10285 15.81 4.14457 15.2891C5.1863 14.7683 6.33532 14.4981 7.5 14.5" stroke="black" stroke-width="2" stroke-linecap="round" stroke-linejoin="round"/>
<path d="M8.80005 27C9.45858 25.6514 10.4827 24.5148 11.7556 23.7198C13.0286 22.9247 14.4992 22.5032 16 22.5032C17.5009 22.5032 18.9715 22.9247 20.2445 23.7198C21.5174 24.5148 22.5415 25.6514 23.2 27" stroke="#69A757" stroke-width="2" stroke-linecap="round" stroke-linejoin="round"/>
<path d="M7.49991 14.5C6.74071 14.5008 5.99697 14.2855 5.35559 13.8792C4.71422 13.473 4.20169 12.8927 3.87789 12.206C3.5541 11.5193 3.43241 10.7546 3.52705 10.0014C3.62169 9.24809 3.92875 8.5373 4.41235 7.95206C4.89595 7.36681 5.53612 6.93128 6.25805 6.69634C6.97998 6.46141 7.75387 6.43678 8.48928 6.62533C9.22469 6.81388 9.89125 7.20782 10.4111 7.76113C10.9309 8.31444 11.2826 9.00427 11.4249 9.75" stroke="black" stroke-width="2" stroke-linecap="round" stroke-linejoin="round"/>
<path d="M20.575 9.75C20.7173 9.00427 21.0689 8.31444 21.5888 7.76113C22.1086 7.20782 22.7752 6.81388 23.5106 6.62533C24.246 6.43678 25.0199 6.46141 25.7418 6.69634C26.4637 6.93128 27.1039 7.36681 27.5875 7.95206C28.0711 8.5373 28.3782 9.24809 28.4728 10.0014C28.5674 10.7546 28.4458 11.5193 28.122 12.206C27.7982 12.8927 27.2856 13.473 26.6443 13.8792C26.0029 14.2855 25.2591 14.5008 24.5 14.5" stroke="black" stroke-width="2" stroke-linecap="round" stroke-linejoin="round"/>
</svg>
