<svg width="199" height="159" viewBox="0 0 199 159" fill="none" xmlns="http://www.w3.org/2000/svg">
<g clip-path="url(#clip0_528_8799)">
<path d="M168.489 38.2714V118.347C168.489 122.823 165.09 126.461 160.902 126.461H40.2711C36.0834 126.461 32.6846 122.823 32.6846 118.347V38.2714C32.6846 33.7947 36.0834 30.1575 40.2711 30.1575H160.902C165.086 30.1575 168.489 33.7947 168.489 38.2714Z" fill="url(#paint0_linear_528_8799)"/>
<path opacity="0.66" d="M168.489 37.7439V46.5597H32.6846V37.7439C32.6858 35.7322 33.4855 33.8033 34.9079 32.3808C36.3304 30.9583 38.2594 30.1587 40.2711 30.1575H160.902C162.914 30.1587 164.843 30.9583 166.266 32.3808C167.688 33.8033 168.488 35.7322 168.489 37.7439Z" fill="#D8D8DB"/>
<path d="M129.07 42.6608C130.77 42.6608 132.148 41.2828 132.148 39.5831C132.148 37.8833 130.77 36.5054 129.07 36.5054C127.371 36.5054 125.993 37.8833 125.993 39.5831C125.993 41.2828 127.371 42.6608 129.07 42.6608Z" fill="white"/>
<path d="M142.422 42.6608C144.122 42.6608 145.5 41.2828 145.5 39.5831C145.5 37.8833 144.122 36.5054 142.422 36.5054C140.723 36.5054 139.345 37.8833 139.345 39.5831C139.345 41.2828 140.723 42.6608 142.422 42.6608Z" fill="white"/>
<path d="M155.774 42.6608C157.474 42.6608 158.852 41.2828 158.852 39.5831C158.852 37.8833 157.474 36.5054 155.774 36.5054C154.075 36.5054 152.697 37.8833 152.697 39.5831C152.697 41.2828 154.075 42.6608 155.774 42.6608Z" fill="white"/>
<path opacity="0.66" d="M85.4459 60.2649H48.1052C46.1977 60.2649 44.6514 61.8112 44.6514 63.7187V63.7233C44.6514 65.6308 46.1977 67.1771 48.1052 67.1771H85.4459C87.3534 67.1771 88.8997 65.6308 88.8997 63.7233V63.7187C88.8997 61.8112 87.3534 60.2649 85.4459 60.2649Z" fill="#D8D8DB"/>
<path opacity="0.66" d="M125.337 60.2649H102.843C100.936 60.2649 99.3896 61.8112 99.3896 63.7187V63.7233C99.3896 65.6308 100.936 67.1771 102.843 67.1771H125.337C127.244 67.1771 128.791 65.6308 128.791 63.7233V63.7187C128.791 61.8112 127.244 60.2649 125.337 60.2649Z" fill="#D8D8DB"/>
<path opacity="0.66" d="M152.266 60.2649H141.446C139.538 60.2649 137.992 61.8112 137.992 63.7187V63.7233C137.992 65.6308 139.538 67.1771 141.446 67.1771H152.266C154.173 67.1771 155.719 65.6308 155.719 63.7233V63.7187C155.719 61.8112 154.173 60.2649 152.266 60.2649Z" fill="#D8D8DB"/>
<path opacity="0.66" d="M61.7875 105.027H49.6464C48.1036 105.027 46.853 106.277 46.853 107.82V109.146C46.853 110.688 48.1036 111.939 49.6464 111.939H61.7875C63.3302 111.939 64.5808 110.688 64.5808 109.146V107.82C64.5808 106.277 63.3302 105.027 61.7875 105.027Z" fill="#D8D8DB"/>
<path opacity="0.66" d="M156.692 84.937H121.057C119.515 84.937 118.264 86.1876 118.264 87.7303V89.0559C118.264 90.5986 119.515 91.8492 121.057 91.8492H156.692C158.235 91.8492 159.485 90.5986 159.485 89.0559V87.7303C159.485 86.1876 158.235 84.937 156.692 84.937Z" fill="#D8D8DB"/>
<path opacity="0.66" d="M108.192 84.937H91.693C90.1503 84.937 88.8997 86.1876 88.8997 87.7303V89.0559C88.8997 90.5986 90.1503 91.8492 91.693 91.8492H108.192C109.734 91.8492 110.985 90.5986 110.985 89.0559V87.7303C110.985 86.1876 109.734 84.937 108.192 84.937Z" fill="#D8D8DB"/>
<path opacity="0.66" d="M78.9511 84.937H50.3068C48.3994 84.937 46.853 86.4833 46.853 88.3908V88.3954C46.853 90.3029 48.3994 91.8492 50.3068 91.8492H78.9511C80.8586 91.8492 82.4049 90.3029 82.4049 88.3954V88.3908C82.4049 86.4833 80.8586 84.937 78.9511 84.937Z" fill="#D8D8DB"/>
<path opacity="0.66" d="M122.539 105.027H80.905C78.9975 105.027 77.4512 106.573 77.4512 108.481V108.485C77.4512 110.393 78.9975 111.939 80.905 111.939H122.539C124.446 111.939 125.993 110.393 125.993 108.485V108.481C125.993 106.573 124.446 105.027 122.539 105.027Z" fill="#D8D8DB"/>
<path opacity="0.1" d="M199.005 117.315C199.003 125.901 195.592 134.136 189.52 140.208C183.448 146.28 175.213 149.691 166.627 149.693C166.474 149.701 166.321 149.701 166.168 149.693C162.262 149.652 158.397 148.895 154.765 147.459C151.734 146.272 148.904 144.622 146.376 142.569C141.359 138.562 137.649 133.15 135.721 127.025C133.96 121.379 133.778 115.358 135.193 109.616C136.608 103.873 139.568 98.6272 143.75 94.4458C147.933 90.2644 153.18 87.3069 158.923 85.8936C164.666 84.4803 170.687 84.6649 176.332 86.4276C182.84 88.4572 188.538 92.4948 192.61 97.9618C196.682 103.429 198.919 110.044 199 116.861C199.01 117.012 199.011 117.163 199.005 117.315Z" fill="url(#paint1_linear_528_8799)"/>
<path d="M187.973 117.315C187.973 122.976 185.724 128.406 181.721 132.409C177.718 136.413 172.288 138.662 166.627 138.662C166.526 138.662 166.411 138.662 166.31 138.662C161.556 138.606 156.959 136.952 153.261 133.965C149.953 131.321 147.507 127.752 146.234 123.713C145.593 121.644 145.267 119.49 145.266 117.324C145.267 114.52 145.82 111.743 146.894 109.152C147.968 106.562 149.541 104.208 151.525 102.226C153.508 100.244 155.863 98.6716 158.454 97.5995C161.045 96.5273 163.822 95.9761 166.627 95.9773C168.793 95.9786 170.947 96.3048 173.016 96.9451C177.307 98.2835 181.064 100.946 183.748 104.551C186.433 108.156 187.907 112.518 187.96 117.012C187.971 117.113 187.975 117.214 187.973 117.315Z" fill="url(#paint2_linear_528_8799)"/>
<path d="M180.456 118.86V115.852C180.456 115.703 180.397 115.561 180.292 115.456C180.187 115.351 180.045 115.292 179.896 115.292H178.887C178.469 115.288 178.063 115.153 177.726 114.906C177.388 114.659 177.137 114.313 177.007 113.916C176.548 112.54 177.236 114.132 176.433 112.54C176.237 112.166 176.164 111.74 176.225 111.322C176.286 110.904 176.478 110.517 176.773 110.214L177.484 109.504C177.587 109.397 177.645 109.255 177.645 109.107C177.645 108.959 177.587 108.816 177.484 108.71L175.346 106.573C175.294 106.52 175.232 106.479 175.164 106.45C175.096 106.422 175.023 106.408 174.949 106.408C174.876 106.408 174.803 106.422 174.735 106.45C174.666 106.479 174.605 106.52 174.553 106.573L173.842 107.283C173.539 107.577 173.151 107.768 172.734 107.829C172.316 107.89 171.89 107.818 171.516 107.623C171.071 107.399 170.612 107.206 170.14 107.045C169.739 106.919 169.388 106.669 169.136 106.331C168.885 105.993 168.747 105.585 168.741 105.164V104.16C168.741 104.086 168.727 104.013 168.698 103.945C168.67 103.877 168.628 103.815 168.576 103.763C168.523 103.711 168.461 103.669 168.393 103.642C168.324 103.614 168.251 103.6 168.177 103.6H165.141C164.992 103.6 164.85 103.659 164.745 103.764C164.64 103.869 164.581 104.012 164.581 104.16V105.164C164.575 105.585 164.437 105.993 164.186 106.331C163.935 106.669 163.584 106.919 163.182 107.045C162.39 107.312 161.632 107.669 160.921 108.109C160.812 108.177 160.684 108.206 160.556 108.192C160.429 108.178 160.31 108.121 160.219 108.031L158.756 106.573C158.704 106.52 158.642 106.479 158.574 106.45C158.506 106.422 158.433 106.408 158.359 106.408C158.285 106.408 158.212 106.422 158.144 106.45C158.076 106.479 158.014 106.52 157.962 106.573L155.825 108.71C155.773 108.762 155.731 108.824 155.703 108.892C155.675 108.96 155.66 109.033 155.66 109.107C155.66 109.18 155.675 109.254 155.703 109.322C155.731 109.39 155.773 109.452 155.825 109.504L156.536 110.214C156.831 110.517 157.022 110.904 157.083 111.322C157.144 111.74 157.071 112.166 156.875 112.54C156.653 112.985 156.462 113.445 156.302 113.916C156.17 114.313 155.918 114.659 155.58 114.906C155.242 115.152 154.835 115.287 154.417 115.292H153.412C153.339 115.292 153.266 115.306 153.198 115.335C153.13 115.363 153.069 115.404 153.017 115.456C152.965 115.508 152.923 115.569 152.895 115.637C152.867 115.705 152.853 115.778 152.853 115.852V118.874C152.853 119.023 152.912 119.165 153.017 119.27C153.122 119.375 153.264 119.434 153.412 119.434H154.417C154.835 119.438 155.242 119.573 155.58 119.82C155.918 120.067 156.17 120.413 156.302 120.81C156.462 121.281 156.653 121.741 156.875 122.186C157.071 122.56 157.144 122.986 157.083 123.404C157.022 123.821 156.831 124.209 156.536 124.511L155.825 125.222C155.773 125.274 155.731 125.336 155.703 125.404C155.675 125.472 155.66 125.545 155.66 125.619C155.66 125.693 155.675 125.766 155.703 125.834C155.731 125.902 155.773 125.964 155.825 126.016L157.962 128.153C158.014 128.205 158.076 128.247 158.144 128.275C158.212 128.304 158.285 128.318 158.359 128.318C158.433 128.318 158.506 128.304 158.574 128.275C158.642 128.247 158.704 128.205 158.756 128.153L159.467 127.442C159.77 127.149 160.157 126.958 160.575 126.897C160.992 126.836 161.418 126.908 161.792 127.103C162.237 127.328 162.697 127.521 163.168 127.681C163.57 127.807 163.921 128.057 164.172 128.395C164.423 128.732 164.562 129.141 164.567 129.561V130.566C164.567 130.715 164.626 130.857 164.731 130.963C164.836 131.069 164.978 131.129 165.127 131.13H168.15C168.299 131.13 168.443 131.071 168.549 130.965C168.654 130.859 168.714 130.715 168.714 130.566V129.561C168.719 129.141 168.858 128.732 169.109 128.395C169.36 128.057 169.711 127.807 170.113 127.681C170.584 127.52 171.044 127.327 171.489 127.103C171.863 126.908 172.289 126.836 172.706 126.897C173.124 126.958 173.511 127.149 173.814 127.442L174.525 128.153C174.577 128.205 174.639 128.247 174.707 128.275C174.775 128.304 174.848 128.318 174.922 128.318C174.996 128.318 175.069 128.304 175.137 128.275C175.205 128.247 175.267 128.205 175.319 128.153L177.456 126.016C177.559 125.91 177.617 125.767 177.617 125.619C177.617 125.471 177.559 125.328 177.456 125.222L176.745 124.511C176.451 124.21 176.259 123.823 176.198 123.406C176.137 122.989 176.21 122.564 176.406 122.19C176.626 121.745 176.818 121.285 176.979 120.814C177.105 120.412 177.354 120.06 177.692 119.808C178.03 119.556 178.438 119.417 178.86 119.411H179.869C179.944 119.415 180.019 119.403 180.089 119.377C180.16 119.351 180.224 119.312 180.279 119.26C180.334 119.209 180.378 119.147 180.408 119.078C180.438 119.01 180.455 118.936 180.456 118.86ZM172.397 120.163C171.771 121.437 170.74 122.468 169.466 123.094C169.227 123.212 168.98 123.315 168.728 123.401C167.389 123.856 165.938 123.856 164.599 123.401C164.346 123.314 164.097 123.212 163.856 123.094C162.582 122.468 161.552 121.437 160.925 120.163C160.808 119.922 160.706 119.674 160.618 119.42C160.169 118.081 160.169 116.631 160.618 115.292C160.706 115.038 160.808 114.79 160.925 114.549C161.552 113.275 162.582 112.244 163.856 111.618C164.097 111.5 164.346 111.398 164.599 111.311C165.938 110.856 167.389 110.856 168.728 111.311C168.98 111.397 169.227 111.5 169.466 111.618C170.74 112.244 171.771 113.275 172.397 114.549C172.518 114.788 172.621 115.037 172.704 115.292C173.159 116.63 173.159 118.082 172.704 119.42C172.621 119.675 172.518 119.924 172.397 120.163Z" fill="#FB9333"/>
<path d="M180.414 118.824V115.801C180.413 115.652 180.353 115.51 180.248 115.405C180.142 115.3 179.999 115.242 179.85 115.242H178.855C178.434 115.236 178.026 115.098 177.688 114.847C177.351 114.595 177.101 114.244 176.974 113.843C176.815 113.371 176.622 112.911 176.396 112.467C176.202 112.092 176.13 111.666 176.191 111.249C176.252 110.832 176.442 110.444 176.736 110.141L177.447 109.43C177.499 109.378 177.541 109.316 177.569 109.248C177.597 109.18 177.612 109.107 177.612 109.033C177.612 108.96 177.597 108.887 177.569 108.819C177.541 108.751 177.499 108.689 177.447 108.637L175.309 106.499C175.257 106.447 175.196 106.406 175.128 106.377C175.059 106.349 174.986 106.334 174.913 106.334C174.839 106.334 174.766 106.349 174.698 106.377C174.63 106.406 174.568 106.447 174.516 106.499L173.805 107.21C173.502 107.504 173.114 107.695 172.697 107.755C172.28 107.816 171.854 107.744 171.48 107.55C171.035 107.325 170.575 107.132 170.103 106.972C169.701 106.846 169.349 106.597 169.097 106.259C168.845 105.921 168.706 105.513 168.7 105.091V104.087C168.7 104.013 168.685 103.94 168.657 103.873C168.629 103.805 168.588 103.743 168.536 103.691C168.484 103.639 168.422 103.598 168.354 103.57C168.287 103.542 168.214 103.527 168.14 103.527H165.118C165.044 103.527 164.971 103.542 164.904 103.57C164.836 103.598 164.774 103.639 164.722 103.691C164.67 103.743 164.629 103.805 164.601 103.873C164.573 103.94 164.558 104.013 164.558 104.087V105.091C164.552 105.513 164.413 105.921 164.161 106.259C163.909 106.597 163.557 106.846 163.155 106.972C162.363 107.24 161.605 107.597 160.893 108.036C160.785 108.104 160.657 108.133 160.53 108.12C160.403 108.107 160.284 108.051 160.192 107.963L158.733 106.499C158.681 106.447 158.619 106.406 158.551 106.377C158.483 106.349 158.41 106.334 158.336 106.334C158.262 106.334 158.189 106.349 158.121 106.377C158.053 106.406 157.991 106.447 157.939 106.499L155.802 108.637C155.75 108.689 155.708 108.751 155.68 108.819C155.652 108.887 155.637 108.96 155.637 109.033C155.637 109.107 155.652 109.18 155.68 109.248C155.708 109.316 155.75 109.378 155.802 109.43L156.513 110.141C156.806 110.444 156.997 110.832 157.058 111.249C157.119 111.666 157.047 112.092 156.852 112.467C156.627 112.911 156.434 113.371 156.274 113.843C156.148 114.244 155.898 114.595 155.561 114.847C155.223 115.098 154.815 115.236 154.394 115.242H153.389C153.241 115.242 153.098 115.3 152.992 115.405C152.886 115.51 152.826 115.652 152.825 115.801V118.824C152.825 118.974 152.885 119.117 152.99 119.223C153.096 119.329 153.24 119.388 153.389 119.388H154.394C154.812 119.391 155.218 119.526 155.556 119.773C155.893 120.02 156.145 120.367 156.274 120.764C156.435 121.236 156.628 121.695 156.852 122.14C157.047 122.513 157.12 122.939 157.059 123.356C156.998 123.772 156.807 124.159 156.513 124.461L155.802 125.172C155.75 125.224 155.708 125.286 155.68 125.354C155.652 125.422 155.637 125.495 155.637 125.569C155.637 125.642 155.652 125.715 155.68 125.784C155.708 125.852 155.75 125.913 155.802 125.965L157.939 128.103C157.991 128.155 158.053 128.197 158.121 128.225C158.189 128.253 158.262 128.268 158.336 128.268C158.41 128.268 158.483 128.253 158.551 128.225C158.619 128.197 158.681 128.155 158.733 128.103L159.444 127.392C159.747 127.098 160.134 126.908 160.552 126.847C160.969 126.786 161.395 126.858 161.769 127.053C162.213 127.278 162.673 127.471 163.145 127.63C163.547 127.757 163.898 128.007 164.149 128.344C164.4 128.682 164.539 129.09 164.544 129.511V130.516C164.544 130.589 164.558 130.663 164.586 130.731C164.613 130.799 164.655 130.862 164.707 130.914C164.759 130.967 164.821 131.008 164.889 131.037C164.957 131.065 165.03 131.08 165.104 131.08H168.127C168.2 131.08 168.274 131.065 168.342 131.037C168.41 131.008 168.472 130.967 168.524 130.914C168.576 130.862 168.617 130.799 168.645 130.731C168.673 130.663 168.687 130.589 168.686 130.516V129.511C168.69 129.093 168.825 128.687 169.072 128.35C169.319 128.012 169.665 127.761 170.062 127.63C170.533 127.47 170.993 127.278 171.438 127.057C171.811 126.862 172.236 126.789 172.653 126.849C173.07 126.909 173.457 127.099 173.759 127.392L174.47 128.103C174.522 128.155 174.584 128.197 174.652 128.225C174.72 128.253 174.793 128.268 174.867 128.268C174.941 128.268 175.014 128.253 175.082 128.225C175.15 128.197 175.212 128.155 175.264 128.103L177.401 125.965C177.453 125.913 177.495 125.852 177.523 125.784C177.551 125.715 177.566 125.642 177.566 125.569C177.566 125.495 177.551 125.422 177.523 125.354C177.495 125.286 177.453 125.224 177.401 125.172L176.69 124.461C176.396 124.159 176.205 123.772 176.144 123.356C176.083 122.939 176.156 122.513 176.351 122.14C176.575 121.695 176.768 121.236 176.929 120.764C177.058 120.367 177.31 120.02 177.647 119.773C177.985 119.526 178.391 119.391 178.809 119.388H179.814C179.891 119.393 179.968 119.382 180.041 119.356C180.114 119.33 180.18 119.289 180.236 119.236C180.293 119.183 180.338 119.12 180.368 119.049C180.399 118.978 180.415 118.901 180.414 118.824ZM172.356 120.127C171.729 121.401 170.699 122.431 169.425 123.057C169.184 123.177 168.936 123.279 168.682 123.365C167.343 123.819 165.892 123.819 164.554 123.365C164.299 123.279 164.051 123.177 163.81 123.057C162.536 122.431 161.506 121.401 160.88 120.127C160.761 119.887 160.658 119.641 160.572 119.388C160.118 118.05 160.118 116.598 160.572 115.26C160.658 115.006 160.76 114.757 160.88 114.517C161.506 113.243 162.536 112.212 163.81 111.586C164.052 111.469 164.3 111.366 164.554 111.279C165.892 110.824 167.343 110.824 168.682 111.279C168.935 111.366 169.183 111.469 169.425 111.586C170.699 112.212 171.729 113.243 172.356 114.517C172.475 114.757 172.578 115.006 172.663 115.26C173.117 116.598 173.117 118.05 172.663 119.388C172.58 119.64 172.48 119.887 172.365 120.127H172.356Z" fill="white"/>
<g opacity="0.12">
<path d="M183.267 103.954L153.261 133.955C149.953 131.311 147.507 127.743 146.234 123.704L173.016 96.9358C177.052 98.2087 180.62 100.651 183.267 103.954Z" fill="url(#paint3_linear_528_8799)"/>
<path d="M187.96 117.003L166.31 138.652C163.737 138.625 161.191 138.126 158.797 137.18L186.487 109.471C187.431 111.872 187.93 114.424 187.96 117.003Z" fill="url(#paint4_linear_528_8799)"/>
</g>
<path opacity="0.1" d="M67.8833 30.1575V52.3573C67.8833 53.3268 67.6922 54.2869 67.3211 55.1826C66.9499 56.0783 66.4059 56.8921 65.7201 57.5775C65.0343 58.2628 64.2202 58.8063 63.3243 59.1769C62.4283 59.5476 61.4682 59.738 60.4986 59.7374H32.6846V37.721C32.6858 35.7093 33.4855 33.7804 34.9079 32.3579C36.3304 30.9354 38.2594 30.1357 40.2711 30.1345L67.8833 30.1575Z" fill="url(#paint5_linear_528_8799)"/>
<path d="M58.8657 20.0803V43.3443C58.8645 45.3 58.087 47.1753 56.7041 48.5582C55.3212 49.9411 53.4459 50.7185 51.4902 50.7198H20.1031C19.1338 50.7204 18.1738 50.5299 17.2782 50.1592C16.3825 49.7886 15.5687 49.2449 14.8833 48.5595C14.1978 47.8741 13.6542 47.0603 13.2836 46.1646C12.9129 45.269 12.7224 44.309 12.723 43.3397V20.0803C12.723 18.1229 13.5006 16.2458 14.8846 14.8618C16.2686 13.4777 18.1458 12.7002 20.1031 12.7002H51.4902C53.4467 12.7014 55.3227 13.4795 56.7058 14.8634C58.0888 16.2473 58.8657 18.1237 58.8657 20.0803Z" fill="url(#paint6_linear_528_8799)"/>
<path d="M18.2134 31.3684L26.7264 25.7541C26.7853 25.716 26.8339 25.6637 26.8675 25.602C26.9011 25.5403 26.9189 25.4713 26.919 25.401V23.3048C26.9192 23.2278 26.8985 23.1522 26.8592 23.086C26.8199 23.0197 26.7633 22.9654 26.6956 22.9287C26.6279 22.892 26.5515 22.8743 26.4745 22.8776C26.3976 22.8808 26.3229 22.9048 26.2585 22.9471L16.0805 29.7034C16.0221 29.7418 15.9743 29.7942 15.9414 29.856C15.9086 29.9177 15.8917 29.9866 15.8925 30.0565V33.3544C15.8917 33.4243 15.9086 33.4933 15.9414 33.555C15.9743 33.6167 16.0221 33.6692 16.0805 33.7076L26.2585 40.4639C26.3226 40.5059 26.3968 40.5299 26.4734 40.5333C26.55 40.5367 26.626 40.5195 26.6936 40.4834C26.7612 40.4472 26.8178 40.3935 26.8575 40.3279C26.8971 40.2624 26.9184 40.1873 26.919 40.1107V38.0467C26.9189 37.9764 26.9011 37.9073 26.8675 37.8456C26.8339 37.784 26.7853 37.7316 26.7264 37.6935L18.2134 32.0793C18.1547 32.0404 18.1066 31.9876 18.0733 31.9255C18.04 31.8635 18.0226 31.7942 18.0226 31.7238C18.0226 31.6534 18.04 31.5842 18.0733 31.5221C18.1066 31.4601 18.1547 31.4073 18.2134 31.3684Z" fill="#FEFEFE"/>
<path d="M54.8018 29.7032L44.6468 22.9469C44.582 22.9051 44.5071 22.8814 44.4301 22.8783C44.353 22.8752 44.2765 22.8929 44.2086 22.9294C44.1406 22.9659 44.0838 23.02 44.0438 23.0861C44.0039 23.1521 43.9825 23.2276 43.9817 23.3047V25.4009C43.9819 25.4711 43.9996 25.5402 44.0332 25.6019C44.0669 25.6636 44.1154 25.7158 44.1743 25.754L52.6827 31.3682C52.7414 31.4071 52.7895 31.46 52.8228 31.522C52.8561 31.584 52.8735 31.6533 52.8735 31.7237C52.8735 31.7941 52.8561 31.8634 52.8228 31.9254C52.7895 31.9874 52.7414 32.0402 52.6827 32.0791L44.1743 37.6933C44.1154 37.7315 44.0669 37.7838 44.0332 37.8455C43.9996 37.9072 43.9819 37.9763 43.9817 38.0465V40.1105C43.9818 40.1879 44.0029 40.2638 44.0428 40.3301C44.0827 40.3964 44.1399 40.4505 44.2082 40.4868C44.2765 40.5231 44.3534 40.5401 44.4307 40.5361C44.5079 40.532 44.5826 40.507 44.6468 40.4637L54.8202 33.7075C54.8791 33.6693 54.9277 33.617 54.9613 33.5553C54.9949 33.4936 55.0126 33.4245 55.0128 33.3543V30.0793C55.0147 30.0035 54.9961 29.9285 54.959 29.8623C54.9219 29.7961 54.8676 29.7412 54.8018 29.7032Z" fill="#FEFEFE"/>
<path d="M40.6425 20.5301L39.1472 20.7044C39.0722 20.7125 39.0006 20.7406 38.9401 20.7858C38.8796 20.8309 38.8323 20.8915 38.8032 20.9612L36.8722 25.4745L31.8268 37.3175L29.6022 42.5235C29.5716 42.5937 29.5605 42.6708 29.5699 42.7468C29.5794 42.8228 29.6092 42.8948 29.6561 42.9553C29.703 43.0159 29.7653 43.0627 29.8366 43.0908C29.9078 43.1189 29.9853 43.1273 30.0609 43.1152L31.5883 42.9409C31.6622 42.9294 31.7322 42.8999 31.7922 42.8552C31.8522 42.8104 31.9002 42.7516 31.9323 42.684L33.8495 38.1753L38.895 26.3322L41.115 21.1217C41.1467 21.0503 41.1582 20.9716 41.1482 20.8942C41.1383 20.8167 41.1072 20.7434 41.0585 20.6823C41.0097 20.6213 40.9452 20.5748 40.8718 20.548C40.7985 20.5211 40.7192 20.5149 40.6425 20.5301Z" fill="#FEFEFE"/>
<g opacity="0.1">
<path d="M50.9581 27.2817C53.6458 27.2817 55.8246 25.1028 55.8246 22.4151C55.8246 19.7274 53.6458 17.5486 50.9581 17.5486C48.2704 17.5486 46.0916 19.7274 46.0916 22.4151C46.0916 25.1028 48.2704 27.2817 50.9581 27.2817Z" fill="white"/>
<path d="M30.1893 48.009C32.0892 48.009 33.6294 46.4689 33.6294 44.569C33.6294 42.6691 32.0892 41.1289 30.1893 41.1289C28.2894 41.1289 26.7493 42.6691 26.7493 44.569C26.7493 46.4689 28.2894 48.009 30.1893 48.009Z" fill="white"/>
<path d="M41.6287 15.5027C41.6302 16.0942 41.4793 16.6762 41.1906 17.1925C40.902 17.7088 40.4852 18.142 39.9805 18.4505C39.4758 18.759 38.9001 18.9323 38.309 18.9538C37.7179 18.9752 37.1312 18.8441 36.6054 18.573C36.0797 18.302 35.6326 17.9 35.3072 17.406C34.9819 16.912 34.7892 16.3426 34.7478 15.7525C34.7064 15.1625 34.8177 14.5716 35.0709 14.037C35.324 13.5024 35.7106 13.042 36.1934 12.7002H40.1792C40.6272 13.0175 40.9925 13.4376 41.2447 13.9252C41.4969 14.4128 41.6285 14.9537 41.6287 15.5027Z" fill="white"/>
<path d="M34.744 36.3771C37.2594 36.3771 39.2986 34.3379 39.2986 31.8225C39.2986 29.307 37.2594 27.2678 34.744 27.2678C32.2285 27.2678 30.1893 29.307 30.1893 31.8225C30.1893 34.3379 32.2285 36.3771 34.744 36.3771Z" fill="white"/>
<path d="M20.9883 41.1335C20.9899 42.8694 20.4443 44.5616 19.429 45.9697C18.4137 47.3778 16.9804 48.43 15.3329 48.9768C14.5146 48.284 13.8572 47.4212 13.4065 46.4485C12.9558 45.4757 12.7225 44.4164 12.723 43.3443V32.8635C13.8092 32.8623 14.8849 33.0755 15.8885 33.4907C16.8922 33.9059 17.804 34.5151 18.5718 35.2833C19.3396 36.0516 19.9483 36.9638 20.363 37.9676C20.7776 38.9715 20.9902 40.0473 20.9883 41.1335Z" fill="white"/>
<path d="M23.2726 15.5029C22.1658 15.5029 21.0839 15.8312 20.1637 16.446C19.2435 17.0609 18.5263 17.9348 18.1027 18.9573C17.6792 19.9798 17.5684 21.105 17.7843 22.1904C18.0002 23.2759 18.5332 24.2731 19.3157 25.0556C20.0983 25.8382 21.0954 26.3712 22.1809 26.5871C23.2664 26.803 24.3915 26.6922 25.414 26.2686C26.4365 25.8451 27.3105 25.1279 27.9254 24.2077C28.5402 23.2874 28.8684 22.2055 28.8684 21.0988C28.8684 19.6147 28.2789 18.1914 27.2294 17.1419C26.18 16.0925 24.7567 15.5029 23.2726 15.5029ZM23.2726 24.4058C22.6185 24.4058 21.9791 24.2119 21.4353 23.8485C20.8915 23.4851 20.4676 22.9686 20.2173 22.3644C19.967 21.7601 19.9015 21.0951 20.0291 20.4536C20.1567 19.8121 20.4717 19.2228 20.9342 18.7603C21.3967 18.2979 21.9859 17.9829 22.6274 17.8553C23.2689 17.7277 23.9339 17.7931 24.5381 18.0434C25.1424 18.2937 25.6589 18.7176 26.0223 19.2615C26.3857 19.8053 26.5796 20.4447 26.5796 21.0988C26.5802 21.5333 26.4951 21.9635 26.3291 22.365C26.1632 22.7665 25.9196 23.1313 25.6124 23.4385C25.3052 23.7457 24.9404 23.9893 24.5389 24.1553C24.1374 24.3213 23.707 24.4064 23.2726 24.4058Z" fill="white"/>
<path d="M52.3387 37.9046C50.8389 37.9017 49.3657 38.3006 48.0722 39.0598C46.7787 39.8189 45.7121 40.9106 44.9832 42.2214C44.2543 43.5322 43.8897 45.0142 43.9273 46.5136C43.965 48.0129 44.4034 49.4749 45.1972 50.7474H50.0866C49.2158 50.304 48.4953 49.6133 48.0154 48.762C47.5355 47.9107 47.3176 46.9367 47.3891 45.962C47.4606 44.9874 47.8182 44.0555 48.4171 43.2833C49.016 42.5111 49.8296 41.933 50.7558 41.6213C51.682 41.3096 52.6796 41.2783 53.6235 41.5313C54.5675 41.7843 55.4157 42.3103 56.0618 43.0435C56.708 43.7766 57.1233 44.6842 57.2557 45.6524C57.3882 46.6207 57.2318 47.6064 56.8062 48.4862C58.1308 47.1113 58.8707 45.2764 58.8703 43.3673V41.0465C58.0862 40.0673 57.0922 39.2766 55.9618 38.7328C54.8313 38.189 53.5932 37.906 52.3387 37.9046Z" fill="white"/>
</g>
<path opacity="0.2" d="M158.852 17.8328H69.3281V21.6719H158.852V17.8328Z" fill="url(#paint7_linear_528_8799)"/>
<path opacity="0.2" d="M133.827 136.841H44.3027V140.68H133.827V136.841Z" fill="url(#paint8_linear_528_8799)"/>
<g opacity="0.55">
<path d="M60.7463 0.857381L59.517 0.884873C59.5097 0.884873 59.5027 0.881971 59.4976 0.87681C59.4924 0.871649 59.4895 0.86468 59.4895 0.857381C59.4895 0.850082 59.4924 0.843058 59.4976 0.837897C59.5027 0.832736 59.5097 0.829834 59.517 0.829834L60.7463 0.857381Z" fill="black"/>
<path d="M57.3016 0.935283H56.0724C56.06 0.935906 56.0475 0.934015 56.0359 0.929684C56.0242 0.925354 56.0135 0.918669 56.0045 0.910088C55.9955 0.901506 55.9884 0.89118 55.9835 0.879741C55.9786 0.868301 55.9761 0.856013 55.9761 0.843571C55.9754 0.830918 55.9773 0.81826 55.9816 0.806337C55.9859 0.794414 55.9925 0.78346 56.001 0.774086C56.0095 0.764713 56.0198 0.757083 56.0313 0.75169C56.0427 0.746298 56.0551 0.743264 56.0678 0.742676L57.297 0.765576C57.3069 0.764897 57.3167 0.766327 57.3259 0.769775C57.3351 0.773223 57.3435 0.778609 57.3504 0.785565C57.3574 0.79252 57.3628 0.800877 57.3662 0.810088C57.3697 0.8193 57.3711 0.829167 57.3704 0.83898C57.3731 0.849897 57.3734 0.861251 57.3713 0.872294C57.3692 0.883337 57.3647 0.893828 57.3582 0.902977C57.3516 0.912126 57.3432 0.919734 57.3334 0.925317C57.3237 0.9309 57.3128 0.934287 57.3016 0.935283Z" fill="black"/>
<path d="M53.8569 0.990187L52.6277 1.01314C52.5871 1.01316 52.5481 0.99734 52.519 0.969078C52.4899 0.940817 52.4729 0.902361 52.4717 0.8618C52.4711 0.84154 52.4746 0.821347 52.4819 0.80245C52.4893 0.783553 52.5003 0.766324 52.5144 0.751779C52.5285 0.737234 52.5454 0.725684 52.5641 0.717793C52.5828 0.709901 52.6029 0.705801 52.6231 0.705811H53.8524C53.8881 0.707001 53.9219 0.722014 53.9467 0.747692C53.9715 0.773369 53.9854 0.807722 53.9854 0.843435C53.9866 0.861514 53.9843 0.879677 53.9785 0.89685C53.9727 0.914023 53.9636 0.929853 53.9517 0.943491C53.9397 0.957128 53.9252 0.968286 53.909 0.976301C53.8927 0.984316 53.875 0.989021 53.8569 0.990187Z" fill="black"/>
<path d="M50.4123 1.04987H49.183C49.1271 1.04987 49.0734 1.02769 49.0338 0.988117C48.9943 0.948549 48.972 0.89486 48.972 0.838902C48.972 0.782944 48.9943 0.729256 49.0338 0.689687C49.0734 0.650119 49.1271 0.62793 49.183 0.62793L50.4123 0.65083C50.4374 0.650822 50.4622 0.655875 50.4853 0.665611C50.5085 0.675348 50.5294 0.689597 50.5469 0.707548C50.5644 0.7255 50.5782 0.746742 50.5874 0.77009C50.5965 0.793438 50.601 0.818414 50.6003 0.843493C50.6016 0.869401 50.5977 0.895294 50.5889 0.919697C50.5801 0.944099 50.5666 0.966537 50.5491 0.985709C50.5317 1.00488 50.5106 1.02038 50.4871 1.0314C50.4636 1.04241 50.4382 1.0487 50.4123 1.04987Z" fill="black"/>
<path d="M46.9676 1.10482H45.7384C45.7015 1.10974 45.6639 1.10674 45.6282 1.09597C45.5926 1.0852 45.5596 1.06693 45.5316 1.04239C45.5036 1.01785 45.4811 0.987626 45.4657 0.953701C45.4503 0.919776 45.4424 0.882947 45.4424 0.845695C45.4424 0.808443 45.4503 0.771614 45.4657 0.737689C45.4811 0.703764 45.5036 0.673539 45.5316 0.649C45.5596 0.624461 45.5926 0.606187 45.6282 0.595417C45.6639 0.584648 45.7015 0.581591 45.7384 0.586515H46.9676C47.0333 0.586515 47.0963 0.612629 47.1428 0.659078C47.1892 0.705528 47.2153 0.768527 47.2153 0.834217C47.2153 0.899907 47.1892 0.962906 47.1428 1.00936C47.0963 1.05581 47.0333 1.08192 46.9676 1.08192V1.10482Z" fill="black"/>
<path d="M43.523 1.14156H42.2938C42.2159 1.14156 42.1413 1.11061 42.0862 1.05556C42.0312 1.00051 42.0002 0.925857 42.0002 0.848002C42.0002 0.770147 42.0312 0.695497 42.0862 0.640445C42.1413 0.585393 42.2159 0.554443 42.2938 0.554443H43.523C43.5602 0.554438 43.5969 0.561821 43.6312 0.576168C43.6654 0.590515 43.6965 0.611512 43.7225 0.637981C43.7486 0.66445 43.7691 0.695889 43.7829 0.730366C43.7967 0.764843 43.8034 0.801693 43.8028 0.838819C43.8047 0.877148 43.7989 0.915468 43.7858 0.951528C43.7726 0.987589 43.7525 1.02066 43.7264 1.04884C43.7004 1.07702 43.669 1.09972 43.6341 1.11564C43.5991 1.13155 43.5614 1.14039 43.523 1.14156Z" fill="black"/>
<path d="M40.06 1.18282H38.8307C38.7876 1.18343 38.7448 1.17545 38.7047 1.15936C38.6647 1.14327 38.6282 1.11939 38.5975 1.08909C38.5668 1.05879 38.5424 1.02269 38.5257 0.982877C38.5091 0.943065 38.5005 0.900333 38.5005 0.857178C38.4993 0.81386 38.5068 0.770743 38.5227 0.730416C38.5385 0.690089 38.5624 0.653379 38.5928 0.622522C38.6232 0.591665 38.6596 0.567284 38.6997 0.550854C38.7398 0.534424 38.7828 0.526253 38.8262 0.52689H40.0554C40.097 0.527488 40.138 0.536298 40.1762 0.552758C40.2143 0.569218 40.2489 0.593043 40.2779 0.622858C40.3068 0.652673 40.3296 0.687866 40.345 0.726496C40.3603 0.765127 40.3679 0.806433 40.3673 0.847996C40.3704 0.890459 40.3648 0.933084 40.3509 0.973303C40.3369 1.01352 40.3148 1.0505 40.286 1.08187C40.2572 1.11324 40.2223 1.13835 40.1835 1.15572C40.1446 1.17309 40.1026 1.18231 40.06 1.18282Z" fill="black"/>
<path d="M36.6337 1.21058H35.4044C35.3568 1.21119 35.3096 1.20237 35.2654 1.18471C35.2212 1.16706 35.1809 1.14089 35.1468 1.10767C35.1128 1.07445 35.0856 1.03483 35.0668 0.991099C35.048 0.947365 35.0381 0.900388 35.0375 0.852802C35.0374 0.757052 35.0748 0.66509 35.1417 0.596533C35.2085 0.527976 35.2995 0.488234 35.3952 0.48584H36.6245C36.7106 0.495705 36.7901 0.53692 36.8479 0.601628C36.9056 0.666336 36.9375 0.750022 36.9375 0.836733C36.9375 0.923444 36.9056 1.00713 36.8479 1.07184C36.7901 1.13655 36.7106 1.17776 36.6245 1.18763L36.6337 1.21058Z" fill="black"/>
<path d="M33.1799 1.24247H31.9507C31.8452 1.2425 31.7439 1.20125 31.6684 1.12752C31.593 1.0538 31.5494 0.953472 31.547 0.848019C31.5464 0.795833 31.5562 0.744058 31.5757 0.695669C31.5953 0.64728 31.6242 0.603223 31.6609 0.566107C31.6976 0.528991 31.7413 0.499543 31.7895 0.479433C31.8376 0.459324 31.8893 0.448971 31.9415 0.448975H33.1707C33.2213 0.449573 33.2713 0.460132 33.3178 0.480049C33.3643 0.499967 33.4065 0.528839 33.4418 0.565043C33.4772 0.601247 33.5051 0.644045 33.5239 0.691022C33.5427 0.737999 33.552 0.788239 33.5514 0.838837C33.5545 0.889963 33.5473 0.941193 33.5301 0.989452C33.5129 1.03771 33.4862 1.082 33.4515 1.11969C33.4168 1.15737 33.3749 1.18767 33.3282 1.20877C33.2816 1.22986 33.2311 1.24133 33.1799 1.24247Z" fill="black"/>
<path d="M29.7444 1.27461H28.5151C28.404 1.27462 28.2973 1.23081 28.2183 1.15266C28.1393 1.07452 28.0943 0.968376 28.0931 0.857256C28.0931 0.745695 28.1368 0.638565 28.2148 0.558826C28.2928 0.479088 28.399 0.433063 28.5105 0.430664H29.7444C29.8555 0.431872 29.9616 0.476853 30.0398 0.555859C30.1179 0.634865 30.1618 0.741539 30.1618 0.852665C30.1624 0.907863 30.152 0.962635 30.1313 1.01381C30.1106 1.06498 30.08 1.11151 30.0411 1.15076C30.0023 1.19 29.9561 1.22115 29.9052 1.24242C29.8542 1.26368 29.7996 1.27461 29.7444 1.27461Z" fill="black"/>
<path d="M26.2998 1.28861H25.0706C24.9562 1.28861 24.8465 1.2432 24.7657 1.16235C24.6848 1.08149 24.6394 0.971828 24.6394 0.857479C24.6394 0.74313 24.6848 0.633467 24.7657 0.55261C24.8465 0.471753 24.9562 0.426296 25.0706 0.426296H26.2998C26.3564 0.425667 26.4125 0.436427 26.4649 0.45793C26.5172 0.479433 26.5647 0.511266 26.6045 0.55149C26.6443 0.591715 26.6756 0.639517 26.6965 0.692083C26.7174 0.744649 26.7276 0.800908 26.7264 0.857479C26.727 0.913881 26.7164 0.969807 26.6952 1.02209C26.6741 1.07438 26.6427 1.12197 26.6031 1.16207C26.5634 1.20217 26.5162 1.23396 26.4641 1.25568C26.4121 1.27741 26.3562 1.28861 26.2998 1.28861Z" fill="black"/>
<path d="M22.8551 1.29752H21.6259C21.5267 1.27266 21.4387 1.21536 21.3758 1.13475C21.3129 1.05414 21.2787 0.954861 21.2787 0.852616C21.2787 0.750371 21.3129 0.651032 21.3758 0.570423C21.4387 0.489815 21.5267 0.432571 21.6259 0.407715H22.8597C22.9813 0.407715 23.098 0.456018 23.184 0.542036C23.27 0.628054 23.3184 0.744741 23.3184 0.86639C23.3113 0.984002 23.2593 1.09435 23.173 1.17462C23.0868 1.25489 22.9729 1.29891 22.8551 1.29752Z" fill="black"/>
<path d="M19.4196 1.31139H18.1812C18.0596 1.31139 17.9429 1.26303 17.8569 1.17702C17.7709 1.091 17.7225 0.974366 17.7225 0.852718C17.7225 0.73107 17.7709 0.614383 17.8569 0.528364C17.9429 0.442346 18.0596 0.394043 18.1812 0.394043H19.4196C19.5413 0.394043 19.6579 0.442346 19.744 0.528364C19.83 0.614383 19.8783 0.73107 19.8783 0.852718C19.8783 0.974366 19.83 1.091 19.744 1.17702C19.6579 1.26303 19.5413 1.31139 19.4196 1.31139Z" fill="black"/>
<path d="M15.9658 1.32067H14.7365C14.6149 1.32067 14.4982 1.27231 14.4122 1.18629C14.3262 1.10027 14.2778 0.983643 14.2778 0.861995C14.2778 0.740347 14.3262 0.62366 14.4122 0.537642C14.4982 0.451623 14.6149 0.40332 14.7365 0.40332H15.9703C16.092 0.40332 16.2087 0.451623 16.2947 0.537642C16.3807 0.62366 16.429 0.740347 16.429 0.861995C16.429 0.922617 16.417 0.982639 16.3937 1.03859C16.3703 1.09454 16.3361 1.14526 16.2931 1.18792C16.25 1.23057 16.1989 1.2643 16.1427 1.28708C16.0865 1.30985 16.0264 1.32128 15.9658 1.32067Z" fill="black"/>
<path d="M12.5717 1.40302L11.402 1.5865H11.3562C11.2309 1.60596 11.103 1.57483 11.0006 1.5C10.8983 1.42516 10.8298 1.31275 10.8104 1.18746C10.7909 1.06216 10.822 0.934277 10.8968 0.831916C10.9717 0.729554 11.0841 0.661067 11.2094 0.641604L12.4708 0.453587C12.5321 0.44251 12.595 0.444059 12.6558 0.458123C12.7165 0.472186 12.7737 0.498474 12.8239 0.53539C12.8742 0.572305 12.9163 0.619033 12.9479 0.67279C12.9794 0.726548 12.9997 0.786193 13.0074 0.848041C13.0192 0.909712 13.0182 0.973115 13.0044 1.03438C12.9907 1.09564 12.9645 1.15346 12.9275 1.2042C12.8906 1.25494 12.8436 1.29756 12.7894 1.32939C12.7353 1.36123 12.6753 1.38157 12.613 1.38925L12.5717 1.40302Z" fill="black"/>
<path d="M9.35627 2.18752L8.2738 2.64619H8.23252C8.17229 2.67209 8.10754 2.68591 8.04198 2.68679C7.97642 2.68767 7.91133 2.67562 7.85042 2.65135C7.78952 2.62707 7.73399 2.59104 7.68701 2.5453C7.64003 2.49956 7.60251 2.44501 7.57661 2.38477C7.55071 2.32454 7.53693 2.2598 7.53606 2.19424C7.53518 2.12868 7.54722 2.0636 7.5715 2.00269C7.59577 1.94179 7.63181 1.88624 7.67755 1.83926C7.72329 1.79228 7.77783 1.75475 7.83806 1.72884L9.00768 1.21972C9.12507 1.16802 9.2582 1.1651 9.37776 1.21155C9.49733 1.258 9.59354 1.35003 9.64524 1.46742C9.69694 1.58481 9.69989 1.71796 9.65344 1.83752C9.60699 1.95709 9.51494 2.05329 9.39755 2.10499L9.35627 2.18752Z" fill="black"/>
<path d="M6.45296 3.76997L5.53561 4.50843L5.49891 4.53597C5.39916 4.61626 5.2716 4.6536 5.1443 4.63984C5.01699 4.62607 4.90036 4.56232 4.82007 4.46257C4.73979 4.36282 4.70241 4.23523 4.71618 4.10792C4.72994 3.98062 4.79371 3.86403 4.89346 3.78374L5.88879 2.98565C5.98951 2.90867 6.11632 2.87407 6.24218 2.88923C6.36804 2.9044 6.483 2.96808 6.56256 3.06678C6.64212 3.16548 6.67998 3.29135 6.66807 3.41756C6.65617 3.54377 6.59544 3.66034 6.49883 3.74242L6.45296 3.76997Z" fill="black"/>
<path d="M4.0403 6.04026L3.33393 6.98975L3.30641 7.02643C3.23221 7.12679 3.12117 7.19354 2.99774 7.21203C2.8743 7.23053 2.74858 7.19923 2.64822 7.12502C2.54786 7.05082 2.48109 6.93978 2.46259 6.81635C2.4441 6.69291 2.4754 6.56722 2.5496 6.46686L3.30183 5.43943C3.33887 5.38913 3.38546 5.34664 3.43893 5.31435C3.4924 5.28205 3.55172 5.26061 3.61347 5.25124C3.67523 5.24187 3.73823 5.24472 3.79887 5.2597C3.85952 5.27468 3.91661 5.30149 3.96691 5.33853C4.0172 5.37558 4.05971 5.42213 4.092 5.4756C4.12429 5.52907 4.14573 5.58836 4.15511 5.65012C4.16448 5.71188 4.16159 5.77492 4.14661 5.83556C4.13163 5.8962 4.10486 5.95329 4.06782 6.00359L4.0403 6.04026Z" fill="black"/>
<path d="M2.29272 8.85205L1.83404 9.95288V9.99414C1.78613 10.1022 1.69834 10.1876 1.589 10.2325C1.47965 10.2775 1.35719 10.2784 1.24716 10.2352C1.13712 10.192 1.048 10.108 0.998396 10.0007C0.94879 9.89345 0.942524 9.77112 0.980906 9.65932L1.43958 8.47137C1.46187 8.41475 1.49509 8.36308 1.53735 8.3193C1.5796 8.27551 1.63007 8.24049 1.68586 8.21622C1.74166 8.19194 1.80169 8.17888 1.86253 8.17781C1.92337 8.17673 1.98382 8.1876 2.04044 8.20989C2.09706 8.23218 2.14874 8.26545 2.19252 8.30771C2.2363 8.34996 2.27133 8.4004 2.29561 8.45619C2.31988 8.51199 2.33294 8.572 2.33402 8.63284C2.33509 8.69368 2.32417 8.75416 2.30188 8.81078L2.29272 8.85205Z" fill="black"/>
<path d="M1.32949 12.026L1.1873 13.2048V13.2461C1.1702 13.3621 1.10933 13.4671 1.01721 13.5396C0.925081 13.6121 0.808685 13.6466 0.69193 13.636C0.575969 13.6199 0.470518 13.5602 0.397182 13.4689C0.323846 13.3777 0.288174 13.2618 0.29747 13.1451L0.439658 11.8792C0.453039 11.7576 0.5142 11.6462 0.60968 11.5697C0.705161 11.4931 0.827139 11.4576 0.948787 11.471C1.07044 11.4844 1.18179 11.5455 1.25835 11.641C1.3349 11.7365 1.37039 11.8585 1.35701 11.9802L1.32949 12.026Z" fill="black"/>
<path d="M1.15064 15.4018V16.6311C1.15125 16.6885 1.14041 16.7454 1.11873 16.7985C1.09704 16.8517 1.06497 16.8999 1.02438 16.9405C0.983796 16.9811 0.935519 17.0132 0.882375 17.0349C0.829231 17.0565 0.772293 17.0674 0.7149 17.0668C0.597123 17.0669 0.483802 17.0218 0.398414 16.9406C0.313025 16.8595 0.262114 16.7487 0.256226 16.6311V15.4018C0.256226 15.2801 0.30455 15.1635 0.390568 15.0774C0.476586 14.9914 0.593252 14.9431 0.7149 14.9431C0.836548 14.9431 0.953215 14.9914 1.03923 15.0774C1.12525 15.1635 1.17358 15.2801 1.17358 15.4018H1.15064Z" fill="black"/>
<path d="M1.14149 18.8328V20.062C1.13056 20.167 1.08115 20.2641 1.0028 20.3347C0.924443 20.4053 0.822703 20.4444 0.717219 20.4444C0.611734 20.4444 0.509988 20.4053 0.431632 20.3347C0.353276 20.2641 0.303867 20.167 0.292943 20.062V18.8328C0.286725 18.7727 0.293183 18.712 0.311903 18.6547C0.330623 18.5973 0.361187 18.5444 0.401614 18.4996C0.442041 18.4548 0.491431 18.4189 0.546587 18.3944C0.601744 18.3699 0.661437 18.3572 0.721803 18.3572C0.782169 18.3572 0.841862 18.3699 0.897018 18.3944C0.952175 18.4189 1.00157 18.4548 1.04199 18.4996C1.08242 18.5444 1.11298 18.5973 1.1317 18.6547C1.15042 18.712 1.15688 18.7727 1.15066 18.8328H1.14149Z" fill="black"/>
<path d="M1.12767 22.2821V23.5114C1.12529 23.6197 1.0809 23.7228 1.00386 23.799C0.926829 23.8752 0.823194 23.9184 0.714861 23.9196C0.606594 23.9196 0.502758 23.8766 0.426201 23.8C0.349645 23.7235 0.306641 23.6196 0.306641 23.5114V22.2821C0.306634 22.171 0.350462 22.0644 0.428609 21.9854C0.506757 21.9064 0.612917 21.8613 0.724036 21.8601C0.834736 21.8601 0.9409 21.9041 1.01918 21.9824C1.09745 22.0607 1.14143 22.1668 1.14143 22.2775L1.12767 22.2821Z" fill="black"/>
<path d="M1.10022 25.7221V26.9514C1.10024 27.001 1.09034 27.05 1.07109 27.0957C1.05185 27.1414 1.02366 27.1827 0.988186 27.2173C0.952709 27.252 0.910656 27.2792 0.864516 27.2973C0.818377 27.3154 0.769078 27.3241 0.719522 27.3229C0.62172 27.3206 0.528573 27.2807 0.459397 27.2115C0.39022 27.1423 0.350326 27.0492 0.347996 26.9514V25.7221C0.342065 25.6677 0.34767 25.6126 0.364444 25.5605C0.381217 25.5083 0.408785 25.4603 0.44535 25.4195C0.481915 25.3788 0.526656 25.3462 0.576662 25.3239C0.626668 25.3015 0.680816 25.29 0.735577 25.29C0.790338 25.29 0.844487 25.3015 0.894492 25.3239C0.944498 25.3462 0.989239 25.3788 1.0258 25.4195C1.06237 25.4603 1.08994 25.5083 1.10671 25.5605C1.12348 25.6126 1.12909 25.6677 1.12316 25.7221H1.10022Z" fill="black"/>
<path d="M1.07264 29.162V30.3913C1.07264 30.4813 1.03688 30.5676 0.973224 30.6313C0.909571 30.6949 0.823233 30.7307 0.733214 30.7307C0.643194 30.7307 0.556864 30.6949 0.49321 30.6313C0.429557 30.5676 0.393799 30.4813 0.393799 30.3913V29.162C0.393799 29.1156 0.402932 29.0697 0.420681 29.0269C0.43843 28.984 0.464446 28.9451 0.497241 28.9123C0.530037 28.8795 0.568969 28.8535 0.611819 28.8357C0.654669 28.818 0.700593 28.8088 0.746973 28.8088C0.793354 28.8088 0.839285 28.818 0.882135 28.8357C0.924984 28.8535 0.963917 28.8795 0.996712 28.9123C1.02951 28.9451 1.05552 28.984 1.07327 29.0269C1.09102 29.0697 1.10015 29.1156 1.10015 29.162H1.07264Z" fill="black"/>
<path d="M1.03142 32.6114V33.8406C1.03022 33.9213 0.997313 33.9983 0.93981 34.055C0.882308 34.1116 0.804829 34.1433 0.724114 34.1433C0.643826 34.1433 0.566827 34.1115 0.510055 34.0547C0.453283 33.9979 0.421387 33.9209 0.421387 33.8406V32.6114C0.430755 32.5334 0.468363 32.4616 0.527104 32.4095C0.585845 32.3574 0.661642 32.3286 0.740162 32.3286C0.818682 32.3286 0.894486 32.3574 0.953227 32.4095C1.01197 32.4616 1.04958 32.5334 1.05894 32.6114H1.03142Z" fill="black"/>
<path d="M0.994705 36.0421V37.2714C0.99471 37.3067 0.987679 37.3417 0.974023 37.3742C0.960368 37.4068 0.940361 37.4364 0.91517 37.4611C0.889979 37.4859 0.860108 37.5054 0.8273 37.5185C0.794492 37.5316 0.759408 37.538 0.724088 37.5374C0.653458 37.5363 0.585964 37.508 0.535589 37.4585C0.485214 37.409 0.455811 37.342 0.453465 37.2714V36.0421C0.448346 36.0021 0.451821 35.9614 0.463655 35.9227C0.47549 35.8841 0.495415 35.8485 0.522102 35.8182C0.54879 35.7878 0.58163 35.7636 0.618434 35.7469C0.655238 35.7303 0.695164 35.7217 0.735553 35.7217C0.775941 35.7217 0.815867 35.7303 0.852671 35.7469C0.889475 35.7636 0.922315 35.7878 0.949003 35.8182C0.97569 35.8485 0.995615 35.8841 1.00745 35.9227C1.01928 35.9614 1.02276 36.0021 1.01764 36.0421H0.994705Z" fill="black"/>
<path d="M0.957986 39.5008V40.73C0.958011 40.7603 0.951905 40.7903 0.940041 40.8182C0.928177 40.846 0.910801 40.8712 0.888949 40.8922C0.867098 40.9132 0.841229 40.9296 0.812893 40.9403C0.784557 40.9511 0.754341 40.956 0.724064 40.9547C0.664824 40.9535 0.608334 40.9295 0.566437 40.8876C0.524539 40.8457 0.500484 40.7892 0.499311 40.73V39.5008C0.498703 39.4682 0.504506 39.4359 0.516395 39.4056C0.528284 39.3753 0.546024 39.3476 0.568599 39.3242C0.591174 39.3008 0.618143 39.2821 0.647966 39.2691C0.677788 39.2561 0.70988 39.2491 0.742408 39.2485C0.775095 39.2472 0.807696 39.2526 0.838257 39.2643C0.868818 39.2759 0.896715 39.2936 0.920269 39.3163C0.943823 39.339 0.962549 39.3663 0.975336 39.3964C0.988122 39.4265 0.994704 39.4589 0.99468 39.4916L0.957986 39.5008Z" fill="black"/>
<path d="M0.902952 42.9454V44.1746C0.901756 44.22 0.882865 44.2632 0.850307 44.2949C0.817749 44.3266 0.774096 44.3443 0.728653 44.3443C0.683644 44.3443 0.640478 44.3264 0.608652 44.2946C0.576825 44.2627 0.558946 44.2196 0.558946 44.1746L0.536011 42.9454C0.535997 42.8938 0.556147 42.8443 0.592148 42.8075C0.62815 42.7706 0.677144 42.7493 0.728653 42.7481C0.753733 42.7475 0.778681 42.7519 0.802029 42.7611C0.825377 42.7703 0.846654 42.784 0.864605 42.8015C0.882557 42.819 0.89682 42.84 0.906556 42.8631C0.916293 42.8862 0.921303 42.9111 0.921296 42.9362L0.902952 42.9454Z" fill="black"/>
<path d="M0.847868 46.3898V47.619C0.847868 47.6495 0.835792 47.6786 0.814287 47.7001C0.792783 47.7216 0.763611 47.7337 0.733199 47.7337C0.703491 47.7316 0.675551 47.7188 0.65449 47.6978C0.63343 47.6767 0.62066 47.6487 0.61853 47.619V46.3898C0.61851 46.3541 0.632377 46.3198 0.657199 46.2941C0.68202 46.2684 0.715856 46.2534 0.75155 46.2522C0.786927 46.2533 0.820629 46.2675 0.846076 46.2921C0.871523 46.3167 0.886886 46.3499 0.889154 46.3852L0.847868 46.3898Z" fill="black"/>
<path d="M0.788279 49.8345L0.76076 51.0638C0.76076 51.0771 0.75544 51.09 0.745978 51.0994C0.736516 51.1089 0.723686 51.1142 0.710305 51.1142C0.696924 51.1142 0.684087 51.1089 0.674625 51.0994C0.665163 51.09 0.659851 51.0771 0.659851 51.0638L0.632324 49.8345C0.632292 49.8134 0.640363 49.7931 0.654868 49.7777C0.669372 49.7624 0.689213 49.7531 0.710305 49.752C0.730628 49.7531 0.749826 49.7616 0.764217 49.776C0.778608 49.7904 0.787178 49.8096 0.788279 49.8299V49.8345Z" fill="black"/>
</g>
</g>
<defs>
<linearGradient id="paint0_linear_528_8799" x1="179.419" y1="159.206" x2="73.1856" y2="50.1969" gradientUnits="userSpaceOnUse">
<stop stop-color="#DEE1E2"/>
<stop offset="1" stop-color="#EFEFEF"/>
</linearGradient>
<linearGradient id="paint1_linear_528_8799" x1="134.251" y1="117.327" x2="199.009" y2="117.327" gradientUnits="userSpaceOnUse">
<stop stop-color="#3FAF49"/>
<stop offset="0.0001" stop-color="#3FAF49"/>
<stop offset="1" stop-color="#68D872"/>
</linearGradient>
<linearGradient id="paint2_linear_528_8799" x1="145.266" y1="117.319" x2="187.974" y2="117.319" gradientUnits="userSpaceOnUse">
<stop stop-color="#3FAF49"/>
<stop offset="0.0001" stop-color="#3FAF49"/>
<stop offset="1" stop-color="#68D872"/>
</linearGradient>
<linearGradient id="paint3_linear_528_8799" x1="180.543" y1="99.0686" x2="152.1" y2="125.837" gradientUnits="userSpaceOnUse">
<stop stop-color="#FEFEFC"/>
<stop offset="1" stop-color="#C4EAFC" stop-opacity="0.1"/>
</linearGradient>
<linearGradient id="paint4_linear_528_8799" x1="191.069" y1="110.256" x2="162.632" y2="137.019" gradientUnits="userSpaceOnUse">
<stop stop-color="#FEFEFC"/>
<stop offset="1" stop-color="#C4EAFC" stop-opacity="0.1"/>
</linearGradient>
<linearGradient id="paint5_linear_528_8799" x1="32.3406" y1="27.0064" x2="56.6641" y2="51.3299" gradientUnits="userSpaceOnUse">
<stop stop-color="#2FA2FA"/>
<stop offset="1" stop-color="#37D3FB"/>
</linearGradient>
<linearGradient id="paint6_linear_528_8799" x1="12.723" y1="31.71" x2="58.8657" y2="31.71" gradientUnits="userSpaceOnUse">
<stop stop-color="#3FAF49"/>
<stop offset="0.0001" stop-color="#3FAF49"/>
<stop offset="1" stop-color="#68D872"/>
</linearGradient>
<linearGradient id="paint7_linear_528_8799" x1="69.3281" y1="19.7523" x2="158.852" y2="19.7523" gradientUnits="userSpaceOnUse">
<stop stop-color="#3FAF49"/>
<stop offset="0.0001" stop-color="#3FAF49"/>
<stop offset="1" stop-color="#68D872"/>
</linearGradient>
<linearGradient id="paint8_linear_528_8799" x1="44.3027" y1="138.76" x2="133.827" y2="138.76" gradientUnits="userSpaceOnUse">
<stop stop-color="#3FAF49"/>
<stop offset="0.0001" stop-color="#3FAF49"/>
<stop offset="1" stop-color="#68D872"/>
</linearGradient>
<clipPath id="clip0_528_8799">
<rect width="198.73" height="158.261" fill="white" transform="translate(0.27002 0.389404)"/>
</clipPath>
</defs>
</svg>
