<svg width="132" height="154" viewBox="0 0 132 154" fill="none" xmlns="http://www.w3.org/2000/svg">
<path d="M45.4413 17.1566V52.7458H0.121948V17.1566C0.124033 15.0917 0.947044 13.1121 2.41016 11.6527C3.87327 10.1933 5.8568 9.37353 7.92491 9.37354H37.6383C39.7061 9.37457 41.689 10.1947 43.1519 11.6538C44.6148 13.113 45.4382 15.092 45.4413 17.1566Z" fill="url(#paint0_linear_528_8706)"/>
<path d="M45.4413 52.7456V75.2937C45.4422 75.6259 45.4212 75.9578 45.3783 76.2872C45.3783 76.4168 45.3429 76.5464 45.3193 76.6799L45.2839 76.8723C45.2564 76.998 45.2289 77.1236 45.1974 77.265C44.7688 78.9062 43.8173 80.3638 42.4864 81.4178C41.1555 82.4718 39.5174 83.0651 37.8192 83.1082H7.92882C5.85934 83.1082 3.87463 82.2873 2.41129 80.8263C0.947952 79.3652 0.125854 77.3836 0.125854 75.3173V52.7692L45.4413 52.7456Z" fill="#EFEFEF"/>
<path d="M7.92488 83.0846H7.82262C6.79656 83.0861 5.78025 82.8858 4.83175 82.4951C3.88324 82.1043 3.02114 81.5308 2.29469 80.8073C1.56824 80.0838 0.991679 79.2245 0.597948 78.2784C0.204216 77.3324 0.00103213 76.3182 0 75.2937V52.7456H0.12192V75.2937C0.12192 77.36 0.944017 79.3416 2.40736 80.8027C3.8707 82.2638 5.85541 83.0846 7.92488 83.0846Z" fill="#EFEFEF"/>
<path opacity="0.48" d="M24.3568 60.4619H6.34779C5.10534 60.4619 4.09814 61.4676 4.09814 62.7081V62.712C4.09814 63.9525 5.10534 64.9582 6.34779 64.9582H24.3568C25.5992 64.9582 26.6064 63.9525 26.6064 62.712V62.7081C26.6064 61.4676 25.5992 60.4619 24.3568 60.4619Z" fill="#D8D8DB"/>
<path opacity="0.48" d="M16.8566 70.6914H6.34779C5.10534 70.6914 4.09814 71.6971 4.09814 72.9376V72.9415C4.09814 74.182 5.10534 75.1877 6.34779 75.1877H16.8566C18.0991 75.1877 19.1063 74.182 19.1063 72.9415V72.9376C19.1063 71.6971 18.0991 70.6914 16.8566 70.6914Z" fill="#D8D8DB"/>
<path opacity="0.69" d="M34.3975 70.6914H23.8887C22.6462 70.6914 21.639 71.6971 21.639 72.9376V72.9415C21.639 74.182 22.6462 75.1877 23.8887 75.1877H34.3975C35.64 75.1877 36.6472 74.182 36.6472 72.9415V72.9376C36.6472 71.6971 35.64 70.6914 34.3975 70.6914Z" fill="#D8D8DB"/>
<path opacity="0.69" d="M38.9008 60.4619H31.3928C30.1504 60.4619 29.1432 61.4676 29.1432 62.7081V62.712C29.1432 63.9525 30.1504 64.9582 31.3928 64.9582H38.9008C40.1433 64.9582 41.1505 63.9525 41.1505 62.712V62.7081C41.1505 61.4676 40.1433 60.4619 38.9008 60.4619Z" fill="#D8D8DB"/>
<path opacity="0.09" d="M35.6168 25.5129C39.1899 25.5129 42.0865 22.6208 42.0865 19.0532C42.0865 15.4856 39.1899 12.5935 35.6168 12.5935C32.0437 12.5935 29.1471 15.4856 29.1471 19.0532C29.1471 22.6208 32.0437 25.5129 35.6168 25.5129Z" fill="white"/>
<path opacity="0.09" d="M8.16485 11.541C6.40376 11.541 4.71474 12.2392 3.4691 13.4822C2.22346 14.7252 1.52314 16.4112 1.52209 18.1696C1.52209 19.929 2.22182 21.6164 3.46747 22.8608C4.71311 24.1053 6.40272 24.8049 8.16485 24.806C9.92697 24.8049 11.6166 24.1053 12.8622 22.8608C14.1079 21.6164 14.8076 19.929 14.8076 18.1696C14.8065 16.4112 14.1062 14.7252 12.8606 13.4822C11.6149 12.2392 9.92593 11.541 8.16485 11.541ZM8.16485 21.8412C7.68212 21.8412 7.20412 21.7462 6.75819 21.5616C6.31226 21.3771 5.90714 21.1066 5.56598 20.7656C5.22482 20.4246 4.95433 20.0198 4.76996 19.5743C4.58558 19.1289 4.49095 18.6516 4.49146 18.1696C4.49146 17.1968 4.87848 16.2639 5.56737 15.5761C6.25626 14.8883 7.19061 14.5019 8.16485 14.5019C9.13945 14.5019 10.0742 14.8882 10.7637 15.5759C11.4532 16.2636 11.8411 17.1965 11.8421 18.1696C11.8421 19.1433 11.4547 20.0772 10.7651 20.7658C10.0755 21.4544 9.14013 21.8412 8.16485 21.8412Z" fill="white"/>
<path opacity="0.14" d="M45.4413 42.8224V46.7493C44.9247 46.5609 44.3788 46.4651 43.8288 46.4665C42.5771 46.4665 41.3766 46.963 40.4915 47.8467C39.6065 48.7304 39.1092 49.929 39.1092 51.1788C39.1059 51.7132 39.1937 52.2444 39.3688 52.7495H35.4358C35.3395 52.2315 35.2921 51.7056 35.2943 51.1788C35.2943 50.0594 35.5151 48.951 35.9443 47.9169C36.3734 46.8828 37.0024 45.9433 37.7954 45.1519C38.5883 44.3606 39.5296 43.733 40.5655 43.305C41.6014 42.877 42.7116 42.657 43.8327 42.6575C44.3729 42.6607 44.9116 42.7159 45.4413 42.8224Z" fill="#EFEFEF"/>
<path opacity="0.14" d="M34.3975 39.6025C36.2872 39.6025 37.8192 38.073 37.8192 36.1862C37.8192 34.2993 36.2872 32.7698 34.3975 32.7698C32.5078 32.7698 30.9758 34.2993 30.9758 36.1862C30.9758 38.073 32.5078 39.6025 34.3975 39.6025Z" fill="white"/>
<path opacity="0.09" d="M4.8493 51.2378C6.18515 51.2378 7.26807 50.1565 7.26807 48.8227C7.26807 47.489 6.18515 46.4077 4.8493 46.4077C3.51346 46.4077 2.43054 47.489 2.43054 48.8227C2.43054 50.1565 3.51346 51.2378 4.8493 51.2378Z" fill="white"/>
<path opacity="0.09" d="M10.0998 46.1563C13.7685 46.1563 16.7425 43.1869 16.7425 39.5238C16.7425 35.8608 13.7685 32.8914 10.0998 32.8914C6.43109 32.8914 3.45703 35.8608 3.45703 39.5238C3.45703 43.1869 6.43109 46.1563 10.0998 46.1563Z" fill="white"/>
<path style="mix-blend-mode:multiply" opacity="0.22" d="M92.4479 5.86679V13.9326H72.4253C71.4006 13.9326 70.3859 14.1341 69.4392 14.5256C68.4925 14.9172 67.6323 15.4911 66.9077 16.2145C66.1832 16.938 65.6084 17.7968 65.2163 18.742C64.8241 19.6873 64.6223 20.7004 64.6223 21.7235V41.3932H56.6581V13.0804C56.6581 11.0142 57.4802 9.03255 58.9435 7.57147C60.4069 6.11039 62.3916 5.28955 64.461 5.28955H92.4479C92.4479 5.48197 92.4479 5.67045 92.4479 5.86679Z" fill="url(#paint1_linear_528_8706)"/>
<path style="mix-blend-mode:multiply" opacity="0.41" d="M64.6301 41.3932V69.753C64.6301 70.2737 64.4229 70.7731 64.0541 71.1413C63.6853 71.5096 63.1852 71.7164 62.6636 71.7164H58.8998C58.5618 71.7185 58.229 71.6337 57.9335 71.4699C57.6379 71.3062 57.3896 71.0693 57.2125 70.7818C56.8171 70.1843 56.6279 69.4742 56.6737 68.7595V41.3774L64.6301 41.3932Z" fill="url(#paint2_linear_528_8706)"/>
<path d="M107.503 18.5467V54.1398H62.1838V18.5546C62.1838 16.4883 63.0059 14.5066 64.4693 13.0455C65.9326 11.5845 67.9173 10.7637 69.9868 10.7637H99.7002C101.768 10.7637 103.752 11.5834 105.215 13.0428C106.678 14.5021 107.501 16.4818 107.503 18.5467Z" fill="url(#paint3_linear_528_8706)"/>
<path d="M107.503 54.1396V76.6877C107.504 77.0199 107.483 77.3518 107.44 77.6812C107.424 77.8095 107.405 77.9404 107.381 78.0739L107.346 78.2624C107.318 78.392 107.291 78.5177 107.259 78.6551C106.831 80.2963 105.879 81.7538 104.548 82.8078C103.217 83.8619 101.579 84.4552 99.8811 84.4983H69.9907C67.9209 84.4972 65.9362 83.6755 64.4729 82.2138C63.0097 80.7521 62.1877 78.7701 62.1877 76.7034V54.1396H107.503Z" fill="#EFEFEF"/>
<path d="M69.9868 84.4747H69.8845C68.8583 84.4757 67.8419 84.2749 66.8933 83.8838C65.9448 83.4926 65.0827 82.9187 64.3563 82.1949C63.6299 81.4711 63.0534 80.6115 62.6598 79.6653C62.2661 78.719 62.0629 77.7045 62.0619 76.6799V54.1396H62.1838V76.6877C62.1859 78.753 63.0088 80.733 64.4718 82.193C65.9348 83.653 67.9183 84.4737 69.9868 84.4747Z" fill="#EFEFEF"/>
<path opacity="0.48" d="M86.4186 61.8481H68.4097C67.1672 61.8481 66.16 62.8538 66.16 64.0943V64.0982C66.16 65.3388 67.1672 66.3444 68.4097 66.3444H86.4186C87.6611 66.3444 88.6683 65.3388 88.6683 64.0982V64.0943C88.6683 62.8538 87.6611 61.8481 86.4186 61.8481Z" fill="#D8D8DB"/>
<path opacity="0.48" d="M78.9185 72.0776H68.4097C67.1672 72.0776 66.16 73.0833 66.16 74.3238V74.3277C66.16 75.5683 67.1672 76.5739 68.4097 76.5739H78.9185C80.161 76.5739 81.1682 75.5683 81.1682 74.3277V74.3238C81.1682 73.0833 80.161 72.0776 78.9185 72.0776Z" fill="#D8D8DB"/>
<path opacity="0.69" d="M96.4594 72.0776H85.9506C84.7081 72.0776 83.7009 73.0833 83.7009 74.3238V74.3277C83.7009 75.5683 84.7081 76.5739 85.9506 76.5739H96.4594C97.7018 76.5739 98.709 75.5683 98.709 74.3277V74.3238C98.709 73.0833 97.7018 72.0776 96.4594 72.0776Z" fill="#D8D8DB"/>
<path opacity="0.69" d="M100.963 61.8481H93.4547C92.2123 61.8481 91.2051 62.8538 91.2051 64.0943V64.0982C91.2051 65.3388 92.2123 66.3444 93.4547 66.3444H100.963C102.205 66.3444 103.212 65.3388 103.212 64.0982V64.0943C103.212 62.8538 102.205 61.8481 100.963 61.8481Z" fill="#D8D8DB"/>
<path opacity="0.14" d="M97.6787 26.8991C101.252 26.8991 104.148 24.007 104.148 20.4394C104.148 16.8718 101.252 13.9797 97.6787 13.9797C94.1056 13.9797 91.209 16.8718 91.209 20.4394C91.209 24.007 94.1056 26.8991 97.6787 26.8991Z" fill="white"/>
<path opacity="0.14" d="M70.2267 12.9272C68.465 12.9272 66.7754 13.626 65.5296 14.8698C64.2838 16.1137 63.584 17.8006 63.584 19.5597C63.584 21.3187 64.2838 23.0058 65.5296 24.2496C66.7754 25.4934 68.465 26.1922 70.2267 26.1922C71.9885 26.1922 73.6781 25.4934 74.9239 24.2496C76.1696 23.0058 76.8695 21.3187 76.8695 19.5597C76.8695 17.8006 76.1696 16.1137 74.9239 14.8698C73.6781 13.626 71.9885 12.9272 70.2267 12.9272ZM70.2267 23.2274C69.7443 23.2274 69.2667 23.1326 68.821 22.9482C68.3753 22.7639 67.9704 22.4938 67.6293 22.1532C67.2882 21.8126 67.0176 21.4083 66.833 20.9633C66.6484 20.5183 66.5534 20.0413 66.5534 19.5597C66.5534 18.5866 66.9402 17.6533 67.629 16.9648C68.3178 16.2764 69.2521 15.8891 70.2267 15.8881C71.202 15.8881 72.1374 16.2749 72.827 16.9635C73.5166 17.652 73.904 18.5859 73.904 19.5597C73.903 20.5328 73.5151 21.4657 72.8256 22.1534C72.1361 22.8411 71.2013 23.2274 70.2267 23.2274Z" fill="white"/>
<path opacity="0.14" d="M107.503 44.2086V48.1355C106.986 47.9489 106.44 47.8533 105.891 47.8528C104.639 47.8528 103.439 48.3493 102.553 49.233C101.668 50.1167 101.171 51.3152 101.171 52.565C101.168 53.0995 101.256 53.6307 101.431 54.1358H97.4977C97.4014 53.6178 97.354 53.0919 97.3562 52.565C97.3562 50.304 98.2557 48.1355 99.857 46.5368C101.458 44.938 103.63 44.0398 105.895 44.0398C106.435 44.0443 106.974 44.1008 107.503 44.2086Z" fill="#EFEFEF"/>
<path opacity="0.14" d="M96.4595 40.9888C98.3492 40.9888 99.8812 39.4592 99.8812 37.5724C99.8812 35.6856 98.3492 34.156 96.4595 34.156C94.5698 34.156 93.0378 35.6856 93.0378 37.5724C93.0378 39.4592 94.5698 40.9888 96.4595 40.9888Z" fill="white"/>
<path opacity="0.14" d="M66.9112 52.6279C68.247 52.6279 69.33 51.5467 69.33 50.2129C69.33 48.8791 68.247 47.7979 66.9112 47.7979C65.5754 47.7979 64.4924 48.8791 64.4924 50.2129C64.4924 51.5467 65.5754 52.6279 66.9112 52.6279Z" fill="white"/>
<path opacity="0.14" d="M72.1617 47.5465C75.8304 47.5465 78.8044 44.577 78.8044 40.914C78.8044 37.251 75.8304 34.2815 72.1617 34.2815C68.493 34.2815 65.5189 37.251 65.5189 40.914C65.5189 44.577 68.493 47.5465 72.1617 47.5465Z" fill="white"/>
<path style="mix-blend-mode:multiply" opacity="0.41" d="M32.6042 30.6375V58.9974C32.6042 59.5181 32.397 60.0175 32.0282 60.3857C31.6594 60.7539 31.1592 60.9608 30.6377 60.9608H26.8739C26.5376 60.962 26.2067 60.8771 25.9126 60.7141C25.6186 60.5512 25.3714 60.3157 25.1945 60.0301C24.796 59.4338 24.6053 58.7231 24.6518 58.0078V30.6257L32.6042 30.6375Z" fill="url(#paint4_linear_528_8706)"/>
<path d="M75.4772 7.80261V43.3879H30.1578V7.80261C30.1578 5.73634 30.9799 3.75467 32.4433 2.29359C33.9066 0.83251 35.8913 0.0117197 37.9608 0.0117197H67.6703C68.6953 0.0112039 69.7104 0.212327 70.6576 0.603626C71.6047 0.994925 72.4654 1.56869 73.1904 2.2922C73.9153 3.0157 74.4905 3.87477 74.8828 4.82026C75.2752 5.76576 75.4772 6.77917 75.4772 7.80261Z" fill="url(#paint5_linear_528_8706)"/>
<path d="M75.4772 43.3762V65.9204C75.4775 66.2525 75.4578 66.5842 75.4182 66.9139C75.4182 67.0435 75.3789 67.1731 75.3553 67.3066C75.3553 67.3694 75.3317 67.4323 75.3199 67.4951C75.2923 67.6247 75.2648 67.7503 75.2333 67.8878C74.8047 69.529 73.8532 70.9866 72.5223 72.0406C71.1914 73.0946 69.5533 73.6879 67.8551 73.731H37.9648C36.9382 73.731 35.9217 73.5288 34.9735 73.1361C34.0253 72.7434 33.164 72.1678 32.4389 71.4423C31.7137 70.7168 31.139 69.8557 30.7476 68.9082C30.3562 67.9606 30.1558 66.9454 30.1579 65.9204V43.3723L75.4772 43.3762Z" fill="#EFEFEF"/>
<path d="M37.9608 73.7192H37.8585C35.7856 73.7202 33.797 72.8993 32.3301 71.4368C30.8632 69.9744 30.038 67.9902 30.0359 65.9204V43.3723H30.1578V65.9204C30.1573 66.944 30.3587 67.9578 30.7506 68.9037C31.1424 69.8496 31.717 70.7091 32.4416 71.4333C33.1662 72.1575 34.0265 72.7321 34.9735 73.1243C35.9205 73.5165 36.9356 73.7186 37.9608 73.7192Z" fill="#EFEFEF"/>
<path opacity="0.48" d="M54.3965 51.0925H36.3876C35.1451 51.0925 34.1379 52.0982 34.1379 53.3387V53.3426C34.1379 54.5831 35.1451 55.5888 36.3876 55.5888H54.3965C55.639 55.5888 56.6462 54.5831 56.6462 53.3426V53.3387C56.6462 52.0982 55.639 51.0925 54.3965 51.0925Z" fill="#D8D8DB"/>
<path opacity="0.48" d="M46.8964 61.322H36.3876C35.1451 61.322 34.1379 62.3277 34.1379 63.5682V63.5721C34.1379 64.8126 35.1451 65.8183 36.3876 65.8183H46.8964C48.1389 65.8183 49.1461 64.8126 49.1461 63.5721V63.5682C49.1461 62.3277 48.1389 61.322 46.8964 61.322Z" fill="#D8D8DB"/>
<path opacity="0.48" d="M64.4374 61.322H53.9286C52.6862 61.322 51.679 62.3277 51.679 63.5682V63.5721C51.679 64.8126 52.6862 65.8183 53.9286 65.8183H64.4374C65.6799 65.8183 66.6871 64.8126 66.6871 63.5721V63.5682C66.6871 62.3277 65.6799 61.322 64.4374 61.322Z" fill="#D8D8DB"/>
<path opacity="0.48" d="M68.9367 51.0925H61.4287C60.1863 51.0925 59.1791 52.0982 59.1791 53.3387V53.3426C59.1791 54.5831 60.1863 55.5888 61.4287 55.5888H68.9367C70.1792 55.5888 71.1864 54.5831 71.1864 53.3426V53.3387C71.1864 52.0982 70.1792 51.0925 68.9367 51.0925Z" fill="#D8D8DB"/>
<path opacity="0.14" d="M65.6527 16.1433C69.2258 16.1433 72.1224 13.2512 72.1224 9.68358C72.1224 6.11598 69.2258 3.22388 65.6527 3.22388C62.0796 3.22388 59.183 6.11598 59.183 9.68358C59.183 13.2512 62.0796 16.1433 65.6527 16.1433Z" fill="white"/>
<path opacity="0.14" d="M38.2047 2.17164C36.4425 2.17164 34.7525 2.87027 33.5061 4.11398C32.2598 5.3577 31.559 7.04472 31.558 8.80413C31.559 10.5635 32.2598 12.2505 33.5061 13.4942C34.7525 14.7379 36.4425 15.4366 38.2047 15.4366C39.078 15.4381 39.9431 15.2677 40.7504 14.9351C41.5577 14.6025 42.2913 14.1142 42.9094 13.4982C43.5275 12.8821 44.0179 12.1505 44.3524 11.345C44.687 10.5395 44.8592 9.67611 44.8592 8.80413C44.8592 7.93215 44.687 7.06872 44.3524 6.26326C44.0179 5.45781 43.5275 4.72609 42.9094 4.11005C42.2913 3.49402 41.5577 3.00571 40.7504 2.67309C39.9431 2.34047 39.078 2.17009 38.2047 2.17164ZM38.2047 12.4718C37.7219 12.4723 37.2438 12.3778 36.7977 12.1937C36.3516 12.0096 35.9462 11.7396 35.6047 11.399C35.2631 11.0583 34.9922 10.6538 34.8074 10.2086C34.6225 9.76335 34.5274 9.28611 34.5274 8.80413C34.5274 7.83035 34.9148 6.89646 35.6044 6.2079C36.294 5.51934 37.2294 5.13247 38.2047 5.13247C39.1793 5.13351 40.1136 5.52084 40.8024 6.20929C41.4911 6.89774 41.878 7.83103 41.878 8.80413C41.878 9.77686 41.491 10.7098 40.8021 11.3976C40.1132 12.0854 39.1789 12.4718 38.2047 12.4718Z" fill="white"/>
<path opacity="0.14" d="M75.4772 33.453V37.3799C74.9601 37.1933 74.4145 37.0977 73.8647 37.0971C72.613 37.0971 71.4125 37.5936 70.5275 38.4773C69.6424 39.3611 69.1451 40.5596 69.1451 41.8094C69.1415 42.3442 69.2307 42.8756 69.4086 43.3801H65.4757C65.3814 42.8618 65.334 42.3361 65.3341 41.8094C65.3351 39.549 66.2352 37.3816 67.8363 35.7837C69.4375 34.1857 71.6087 33.2881 73.8725 33.2881C74.4115 33.2913 74.9489 33.3465 75.4772 33.453Z" fill="#EFEFEF"/>
<path opacity="0.14" d="M64.4335 30.2329C66.3232 30.2329 67.8552 28.7033 67.8552 26.8165C67.8552 24.9297 66.3232 23.4001 64.4335 23.4001C62.5438 23.4001 61.0118 24.9297 61.0118 26.8165C61.0118 28.7033 62.5438 30.2329 64.4335 30.2329Z" fill="white"/>
<path opacity="0.14" d="M34.8852 41.8723C36.221 41.8723 37.304 40.791 37.304 39.4573C37.304 38.1235 36.221 37.0422 34.8852 37.0422C33.5493 37.0422 32.4664 38.1235 32.4664 39.4573C32.4664 40.791 33.5493 41.8723 34.8852 41.8723Z" fill="white"/>
<path opacity="0.14" d="M40.1397 36.7908C43.8084 36.7908 46.7824 33.8214 46.7824 30.1584C46.7824 26.4953 43.8084 23.5259 40.1397 23.5259C36.471 23.5259 33.4969 26.4953 33.4969 30.1584C33.4969 33.8214 36.471 36.7908 40.1397 36.7908Z" fill="white"/>
<path d="M58.9784 34.5682H46.6565C46.1648 34.5682 45.6779 34.4714 45.2237 34.2836C44.7694 34.0957 44.3567 33.8204 44.009 33.4732C43.6613 33.1261 43.3855 32.714 43.1974 32.2604C43.0092 31.8068 42.9124 31.3207 42.9124 30.8298V30.3742C42.9124 28.2913 43.7411 26.2937 45.2162 24.8208C46.6914 23.348 48.6921 22.5205 50.7782 22.5205H54.8646C56.9507 22.5205 58.9515 23.348 60.4266 24.8208C61.9017 26.2937 62.7305 28.2913 62.7305 30.3742V30.8298C62.73 31.3212 62.6325 31.8078 62.4437 32.2616C62.2548 32.7154 61.9783 33.1277 61.6299 33.4748C61.2815 33.822 60.868 34.0972 60.4131 34.2848C59.9581 34.4724 59.4706 34.5687 58.9784 34.5682Z" fill="#FEFEFE"/>
<path d="M52.8195 19.9445C55.8995 19.9445 58.3964 17.4514 58.3964 14.3762C58.3964 11.3009 55.8995 8.80786 52.8195 8.80786C49.7394 8.80786 47.2426 11.3009 47.2426 14.3762C47.2426 17.4514 49.7394 19.9445 52.8195 19.9445Z" fill="#FEFEFE"/>
<path opacity="0.11" d="M98.717 50.4172C97.1438 66.1247 89.3841 112.799 52.7487 129.956C52.4026 130.129 52.0565 130.286 51.6986 130.447L51.5964 130.498C51.565 130.476 51.5305 130.459 51.4941 130.447C13.962 113.683 6.08038 66.27 4.49147 50.4172C4.35761 48.9187 4.75307 47.4207 5.60932 46.1828C6.46556 44.9449 7.72861 44.0451 9.17955 43.6394L47.046 32.275L51.4941 30.9478H51.5452L94.0211 43.6512C95.4693 44.0584 96.7303 44.9566 97.5873 46.1913C98.4443 47.4261 98.8437 48.9203 98.717 50.4172Z" fill="url(#paint6_linear_528_8706)"/>
<path d="M91.7557 48.2142C90.8657 57.2445 89.0483 66.1596 86.3321 74.8188C85.0337 78.9288 83.4824 82.9549 81.6873 86.8742C75.8508 99.5502 66.7421 111.849 52.5835 118.753C52.2886 118.906 51.9936 119.047 51.6907 119.188C51.6619 119.207 51.6317 119.222 51.6003 119.236C51.5734 119.217 51.5443 119.201 51.5138 119.188C49.5643 118.284 47.6728 117.26 45.8503 116.122C44.5682 115.336 43.3293 114.476 42.1376 113.589C39.7987 111.837 37.5977 109.908 35.5539 107.82C34.5051 106.747 33.4996 105.643 32.5373 104.51C30.059 101.573 27.823 98.4412 25.8513 95.1442C22.5348 89.5336 19.8104 83.5945 17.7219 77.4223C15.1888 69.9633 13.3457 62.2882 12.2158 54.4933C11.8539 52.0508 11.6101 49.9263 11.4292 48.2103C11.3013 46.9017 11.6293 45.589 12.3579 44.4938C13.0866 43.3986 14.1713 42.5878 15.429 42.1982L22.8583 39.8775L47.6988 32.118L51.4902 30.9399H51.5334L87.7165 42.21C88.9794 42.5933 90.0709 43.4001 90.8069 44.494C91.5428 45.588 91.8779 46.9021 91.7557 48.2142Z" fill="url(#paint7_linear_528_8706)"/>
<path d="M91.7557 48.2142C90.8657 57.2445 89.0483 66.1596 86.3321 74.8188C85.0337 78.9288 83.4824 82.9549 81.6873 86.8742C75.8508 99.5502 66.7421 111.849 52.5835 118.753C52.2886 118.906 51.9936 119.047 51.6907 119.188C51.6619 119.207 51.6317 119.222 51.6003 119.236C51.5734 119.217 51.5443 119.201 51.5138 119.188C49.5643 118.284 47.6728 117.26 45.8503 116.122C44.5682 115.336 43.3293 114.476 42.1376 113.589C39.7987 111.837 37.5977 109.908 35.5539 107.82C34.5051 106.747 33.4996 105.643 32.5373 104.51C30.059 101.573 27.823 98.4412 25.8513 95.1442C22.5348 89.5336 19.8104 83.5945 17.7219 77.4223C15.1888 69.9633 13.3457 62.2882 12.2158 54.4933C11.8539 52.0508 11.6101 49.9263 11.4292 48.2103C11.3013 46.9017 11.6293 45.589 12.3579 44.4938C13.0866 43.3986 14.1713 42.5878 15.429 42.1982L22.8583 39.8775L47.6988 32.118L51.4902 30.9399H51.5334L87.7165 42.21C88.9794 42.5933 90.0709 43.4001 90.8069 44.494C91.5428 45.588 91.8779 46.9021 91.7557 48.2142Z" fill="url(#paint8_linear_528_8706)"/>
<path d="M51.6042 97.512C65.0691 97.512 75.9845 86.6134 75.9845 73.1693C75.9845 59.7252 65.0691 48.8267 51.6042 48.8267C38.1393 48.8267 27.2239 59.7252 27.2239 73.1693C27.2239 86.6134 38.1393 97.512 51.6042 97.512Z" fill="url(#paint9_linear_528_8706)"/>
<path d="M51.6042 93.5421C62.8731 93.5421 72.0083 84.4209 72.0083 73.1695C72.0083 61.918 62.8731 52.7969 51.6042 52.7969C40.3353 52.7969 31.2001 61.918 31.2001 73.1695C31.2001 84.4209 40.3353 93.5421 51.6042 93.5421Z" fill="url(#paint10_linear_528_8706)"/>
<path d="M58.2312 85.1229H44.9536C43.8848 85.1208 42.8604 84.6953 42.1054 83.94C41.3503 83.1846 40.9263 82.1611 40.9263 81.0939V80.603C40.9263 78.3597 41.8188 76.2082 43.4075 74.622C44.9963 73.0357 47.151 72.1445 49.3978 72.1445H53.7988C54.9116 72.144 56.0137 72.3625 57.0419 72.7873C58.0702 73.2121 59.0046 73.8351 59.7916 74.6206C60.5787 75.4061 61.2031 76.3387 61.6291 77.3652C62.055 78.3917 62.2743 79.4919 62.2743 80.603V81.0939C62.2743 81.6236 62.1697 82.1482 61.9664 82.6375C61.7631 83.1268 61.4652 83.5713 61.0896 83.9456C60.7141 84.3198 60.2683 84.6164 59.7779 84.8184C59.2874 85.0204 58.7618 85.1239 58.2312 85.1229Z" fill="url(#paint11_linear_528_8706)"/>
<path d="M51.6041 69.3604C54.9231 69.3604 57.6137 66.674 57.6137 63.3601C57.6137 60.0463 54.9231 57.3599 51.6041 57.3599C48.2852 57.3599 45.5946 60.0463 45.5946 63.3601C45.5946 66.674 48.2852 69.3604 51.6041 69.3604Z" fill="url(#paint12_linear_528_8706)"/>
<g opacity="0.08">
<path d="M107.171 154C120.884 154 132 142.901 132 129.21C132 115.518 120.884 104.419 107.171 104.419C93.4588 104.419 82.3427 115.518 82.3427 129.21C82.3427 142.901 93.4588 154 107.171 154Z" fill="url(#paint13_linear_528_8706)"/>
<path d="M107.171 154C120.884 154 132 142.901 132 129.21C132 115.518 120.884 104.419 107.171 104.419C93.4588 104.419 82.3427 115.518 82.3427 129.21C82.3427 142.901 93.4588 154 107.171 154Z" fill="url(#paint14_linear_528_8706)"/>
</g>
<path d="M107.171 144.026C115.367 144.026 122.01 137.392 122.01 129.21C122.01 121.027 115.367 114.394 107.171 114.394C98.9759 114.394 92.3323 121.027 92.3323 129.21C92.3323 137.392 98.9759 144.026 107.171 144.026Z" fill="url(#paint15_linear_528_8706)"/>
<path d="M112.036 124.627V127.117H110.617V125.153C110.617 122.797 109.5 120.783 107.077 120.783C104.717 120.783 103.537 122.789 103.537 125.153V127.117H102.117V124.627C102.117 121.78 104.336 119.451 107.053 119.451H107.081C109.818 119.451 112.036 121.78 112.036 124.627Z" fill="white"/>
<path d="M108.882 125.703H106.062C105.278 125.701 104.501 125.853 103.776 126.152C103.051 126.45 102.392 126.888 101.837 127.441C101.282 127.994 100.842 128.651 100.542 129.375C100.242 130.098 100.087 130.873 100.088 131.656V132.049C100.088 132.83 100.242 133.604 100.542 134.325C100.841 135.047 101.28 135.703 101.833 136.255C102.386 136.808 103.043 137.246 103.766 137.545C104.489 137.844 105.264 137.998 106.046 137.998H108.866C109.649 137.998 110.424 137.844 111.147 137.545C111.869 137.246 112.526 136.808 113.08 136.255C113.633 135.703 114.072 135.047 114.371 134.325C114.671 133.604 114.825 132.83 114.825 132.049V131.656C114.826 130.08 114.201 128.568 113.087 127.452C111.972 126.336 110.46 125.707 108.882 125.703ZM107.423 133.828C107.171 133.828 106.921 133.779 106.688 133.683C106.455 133.587 106.243 133.446 106.065 133.267C105.886 133.089 105.745 132.878 105.649 132.645C105.552 132.413 105.503 132.163 105.504 131.911C105.503 131.66 105.552 131.41 105.649 131.177C105.745 130.945 105.886 130.733 106.065 130.555C106.243 130.377 106.455 130.236 106.688 130.14C106.921 130.044 107.171 129.994 107.423 129.995C107.675 129.994 107.925 130.044 108.158 130.14C108.391 130.236 108.603 130.377 108.781 130.555C108.96 130.733 109.101 130.945 109.197 131.177C109.293 131.41 109.343 131.66 109.342 131.911C109.343 132.163 109.293 132.413 109.197 132.645C109.101 132.878 108.96 133.089 108.781 133.267C108.603 133.446 108.391 133.587 108.158 133.683C107.925 133.779 107.675 133.828 107.423 133.828Z" fill="white"/>
<path d="M83.6655 88.174C84.0588 88.1544 84.4521 88.1269 84.8454 88.1151C84.853 88.1146 84.8606 88.1156 84.8677 88.1181C84.8748 88.1206 84.8814 88.1246 84.8869 88.1298C84.8925 88.1349 84.8969 88.1412 84.8999 88.1481C84.9029 88.1551 84.9044 88.1626 84.9044 88.1701C84.9055 88.178 84.905 88.186 84.9027 88.1936C84.9005 88.2012 84.8966 88.2082 84.8913 88.2142C84.8861 88.2201 84.8797 88.2249 84.8724 88.2281C84.8652 88.2314 84.8573 88.233 84.8493 88.2329C84.4482 88.2211 84.0549 88.1937 83.6655 88.174Z" fill="black"/>
<path d="M86.9417 88.0286L88.1216 87.9971C88.1689 87.996 88.2147 88.0136 88.2493 88.0459C88.2839 88.0782 88.3044 88.1227 88.3064 88.1699C88.3069 88.1931 88.3029 88.2162 88.2945 88.2378C88.286 88.2595 88.2734 88.2793 88.2574 88.296C88.2413 88.3128 88.2221 88.3262 88.2008 88.3356C88.1795 88.3449 88.1566 88.35 88.1334 88.3505L86.9535 88.3191C86.9152 88.3171 86.8792 88.3005 86.8528 88.2727C86.8265 88.245 86.8118 88.2082 86.8119 88.1699C86.8126 88.1346 86.8262 88.1008 86.8501 88.0748C86.874 88.0488 86.9065 88.0324 86.9417 88.0286Z" fill="black"/>
<path d="M90.2454 87.9421C90.4381 87.9421 90.6387 87.9421 90.8432 87.9421L91.4488 87.9618C91.5174 87.9649 91.582 87.9944 91.629 88.0443C91.676 88.0941 91.7016 88.1604 91.7006 88.2288C91.6975 88.2969 91.6677 88.361 91.6177 88.4073C91.5676 88.4536 91.5013 88.4783 91.4331 88.4762H91.3898L90.8235 88.4291C90.6347 88.4291 90.4302 88.3937 90.2454 88.3937C90.1849 88.3937 90.1268 88.3698 90.0841 88.3271C90.0413 88.2843 90.0173 88.2264 90.0173 88.166C90.0162 88.1069 90.0381 88.0497 90.0785 88.0065C90.1188 87.9632 90.1744 87.9374 90.2336 87.9343L90.2454 87.9421Z" fill="black"/>
<path d="M93.5726 88.4645C93.9534 88.6065 94.3228 88.7772 94.6778 88.975C94.7441 89.0129 94.7928 89.0753 94.8134 89.1488C94.834 89.2222 94.8249 89.3009 94.7879 89.3676C94.7506 89.4345 94.6884 89.484 94.6147 89.5054C94.5411 89.5267 94.462 89.5181 94.3946 89.4815C94.0657 89.2967 93.7255 89.1328 93.376 88.9907C93.3387 88.9766 93.3048 88.955 93.2763 88.9272C93.2478 88.8993 93.2255 88.8659 93.2107 88.8289C93.1959 88.792 93.189 88.7524 93.1904 88.7126C93.1917 88.6728 93.2014 88.6338 93.2187 88.598C93.2514 88.5367 93.3054 88.4893 93.3705 88.4648C93.4356 88.4402 93.5074 88.4401 93.5726 88.4645Z" fill="black"/>
<path d="M96.4359 90.267L97.2461 91.1702C97.2728 91.1999 97.2933 91.2344 97.3066 91.272C97.3199 91.3095 97.3256 91.3493 97.3234 91.3891C97.3212 91.4289 97.3111 91.4678 97.2938 91.5037C97.2765 91.5396 97.2523 91.5718 97.2225 91.5983C97.1628 91.6509 97.0847 91.6779 97.0053 91.6735C96.9258 91.6691 96.8512 91.6336 96.7977 91.5747L96.7702 91.5433L96.0111 90.7029L95.9836 90.6715C95.9341 90.6155 95.9071 90.5432 95.9079 90.4685C95.9086 90.3938 95.937 90.3221 95.9875 90.267C96.0169 90.2399 96.0515 90.2189 96.0892 90.2054C96.1269 90.1919 96.1669 90.186 96.2069 90.1882C96.2469 90.1904 96.286 90.2006 96.322 90.2182C96.3579 90.2358 96.39 90.2604 96.4162 90.2906L96.4359 90.267Z" fill="black"/>
<path d="M98.3473 93.0629C98.506 93.4365 98.6374 93.821 98.7406 94.2135C98.75 94.2491 98.7523 94.2862 98.7474 94.3227C98.7424 94.3592 98.7302 94.3943 98.7116 94.4261C98.6929 94.4578 98.6682 94.4856 98.6387 94.5078C98.6093 94.5299 98.5757 94.546 98.54 94.5552C98.4691 94.5732 98.3939 94.5627 98.3307 94.526C98.2674 94.4893 98.2211 94.4293 98.2018 94.3588C98.0949 93.9956 97.9635 93.6401 97.8085 93.2946C97.7915 93.2592 97.782 93.2207 97.7804 93.1815C97.7788 93.1422 97.7852 93.1031 97.7991 93.0664C97.8131 93.0297 97.8344 92.9962 97.8617 92.9679C97.8889 92.9397 97.9217 92.9172 97.9579 92.9019C97.9935 92.8856 98.032 92.8765 98.0711 92.8752C98.1103 92.8738 98.1493 92.8803 98.1859 92.8942C98.2225 92.9081 98.256 92.9291 98.2844 92.9561C98.3127 92.983 98.3355 93.0153 98.3512 93.0511L98.3473 93.0629Z" fill="black"/>
<path d="M98.9962 96.3732L98.9647 97.5513C98.9647 97.5798 98.959 97.608 98.9478 97.6342C98.9367 97.6605 98.9203 97.6842 98.8997 97.704C98.8792 97.7238 98.8548 97.7393 98.8282 97.7495C98.8015 97.7597 98.773 97.7643 98.7445 97.7633C98.6884 97.7623 98.635 97.7396 98.5954 97.7001C98.5558 97.6605 98.5331 97.6072 98.5321 97.5513L98.5006 96.3732C98.4996 96.3407 98.5049 96.3083 98.5164 96.2779C98.5279 96.2475 98.5453 96.2196 98.5676 96.1959C98.5899 96.1722 98.6166 96.1531 98.6463 96.1398C98.676 96.1264 98.708 96.119 98.7405 96.118C98.8066 96.1169 98.8705 96.1418 98.9183 96.1874C98.9661 96.2329 98.9941 96.2954 98.9962 96.3614V96.3732Z" fill="black"/>
<path d="M98.9135 99.6601C98.9135 100.053 98.8899 100.446 98.8742 100.838C98.8722 100.871 98.8575 100.901 98.8333 100.923C98.809 100.945 98.7772 100.957 98.7444 100.956C98.7131 100.955 98.6832 100.942 98.6606 100.921C98.638 100.899 98.6245 100.869 98.6225 100.838C98.6225 100.446 98.591 100.053 98.5832 99.6601C98.5827 99.6385 98.5864 99.6169 98.5942 99.5967C98.6021 99.5765 98.6138 99.558 98.6288 99.5423C98.6437 99.5266 98.6617 99.5141 98.6815 99.5053C98.7014 99.4965 98.7227 99.4918 98.7444 99.4913C98.7661 99.4907 98.7877 99.4945 98.8079 99.5023C98.8282 99.5101 98.8467 99.5218 98.8624 99.5368C98.8781 99.5517 98.8907 99.5696 98.8995 99.5894C98.9083 99.6092 98.913 99.6306 98.9135 99.6523V99.6601Z" fill="black"/>
<path d="M98.7838 102.943L98.7484 103.595L98.7131 102.943C98.7124 102.938 98.7129 102.933 98.7144 102.929C98.716 102.924 98.7186 102.92 98.722 102.916C98.7254 102.913 98.7296 102.91 98.7342 102.909C98.7388 102.907 98.7436 102.907 98.7484 102.908C98.7529 102.907 98.7574 102.907 98.7617 102.909C98.766 102.91 98.7699 102.912 98.7733 102.915C98.7766 102.918 98.7793 102.922 98.7811 102.926C98.783 102.93 98.7839 102.934 98.7838 102.939V102.943Z" fill="black"/>
<path d="M74.2383 140.735L73.0584 140.782C73.0519 140.783 73.0454 140.782 73.0392 140.78C73.033 140.778 73.0273 140.774 73.0225 140.77C73.0177 140.765 73.0139 140.76 73.0112 140.754C73.0086 140.748 73.0073 140.742 73.0073 140.735C73.0073 140.723 73.0123 140.711 73.0211 140.702C73.03 140.693 73.042 140.688 73.0545 140.688L74.2383 140.735Z" fill="black"/>
<path d="M70.9503 140.849L69.7704 140.884C69.7304 140.885 69.6915 140.871 69.6621 140.844C69.6327 140.817 69.6151 140.779 69.6131 140.739C69.6126 140.719 69.616 140.699 69.6233 140.681C69.6306 140.662 69.6415 140.645 69.6554 140.631C69.6694 140.617 69.686 140.605 69.7044 140.598C69.7228 140.59 69.7426 140.586 69.7625 140.586L70.9424 140.621C70.9574 140.622 70.9721 140.625 70.9858 140.631C70.9994 140.638 71.0117 140.646 71.0219 140.657C71.0322 140.668 71.0401 140.681 71.0454 140.695C71.0506 140.709 71.0531 140.724 71.0525 140.739C71.0517 140.767 71.0409 140.793 71.0221 140.813C71.0033 140.833 70.9778 140.846 70.9503 140.849Z" fill="black"/>
<path d="M67.6703 140.924H66.4904C66.4624 140.925 66.4344 140.92 66.4082 140.91C66.382 140.9 66.3581 140.885 66.3379 140.865C66.3177 140.846 66.3016 140.823 66.2907 140.797C66.2797 140.771 66.2741 140.743 66.2741 140.715C66.273 140.687 66.2776 140.66 66.2876 140.633C66.2976 140.607 66.3128 140.583 66.3323 140.563C66.3517 140.543 66.3751 140.527 66.4009 140.516C66.4267 140.505 66.4545 140.499 66.4825 140.5H67.6624C67.7132 140.502 67.7612 140.523 67.7964 140.56C67.8316 140.596 67.8512 140.645 67.8512 140.696C67.8556 140.723 67.8544 140.751 67.8475 140.777C67.8406 140.804 67.8283 140.828 67.8112 140.85C67.7942 140.871 67.7728 140.889 67.7486 140.902C67.7243 140.914 67.6976 140.922 67.6703 140.924Z" fill="black"/>
<path d="M64.3705 140.99H63.1906C63.1555 140.991 63.1206 140.984 63.0879 140.972C63.0553 140.959 63.0255 140.939 63.0003 140.915C62.9751 140.89 62.955 140.861 62.9411 140.829C62.9272 140.797 62.9197 140.762 62.9192 140.727C62.9187 140.692 62.9251 140.657 62.9381 140.625C62.951 140.592 62.9703 140.562 62.9948 140.537C63.0192 140.512 63.0484 140.492 63.0807 140.478C63.1129 140.464 63.1476 140.457 63.1827 140.456H64.3626C64.4297 140.458 64.4933 140.487 64.5397 140.535C64.5861 140.584 64.6115 140.648 64.6104 140.715C64.6131 140.749 64.6089 140.783 64.5983 140.816C64.5876 140.848 64.5706 140.878 64.5483 140.903C64.5259 140.929 64.4987 140.95 64.4682 140.965C64.4376 140.98 64.4044 140.988 64.3705 140.99Z" fill="black"/>
<path d="M61.0786 141.022H59.8988C59.8205 141.022 59.7455 140.991 59.6902 140.935C59.6349 140.88 59.6038 140.805 59.6038 140.727C59.6033 140.689 59.6104 140.65 59.6248 140.615C59.6392 140.579 59.6605 140.546 59.6876 140.519C59.7147 140.492 59.747 140.47 59.7825 140.455C59.8181 140.44 59.8563 140.433 59.8948 140.433H61.0747C61.1508 140.433 61.2239 140.463 61.2777 140.517C61.3316 140.57 61.3618 140.643 61.3618 140.719C61.3639 140.758 61.3582 140.797 61.345 140.833C61.3318 140.869 61.3113 140.903 61.2848 140.931C61.2584 140.959 61.2265 140.982 61.191 140.997C61.1556 141.013 61.1174 141.021 61.0786 141.022Z" fill="black"/>
<path d="M57.7396 140.924C57.3389 140.854 56.9444 140.753 56.5597 140.621C56.521 140.608 56.4852 140.588 56.4545 140.561C56.4238 140.534 56.3987 140.502 56.3808 140.465C56.3628 140.429 56.3524 140.389 56.35 140.348C56.3476 140.308 56.3534 140.267 56.367 140.228C56.3798 140.19 56.4002 140.154 56.4271 140.123C56.4539 140.093 56.4866 140.068 56.5232 140.05C56.5598 140.032 56.5996 140.021 56.6403 140.019C56.681 140.017 56.7218 140.022 56.7603 140.036C57.1161 140.161 57.4818 140.255 57.8536 140.319C57.9318 140.334 58.0009 140.379 58.0464 140.444C58.0919 140.509 58.1102 140.59 58.0975 140.668C58.0918 140.709 58.0779 140.748 58.0566 140.783C58.0353 140.818 58.007 140.849 57.9735 140.873C57.94 140.897 57.902 140.913 57.8618 140.922C57.8216 140.931 57.78 140.931 57.7396 140.924Z" fill="black"/>
<path d="M54.6051 139.62C54.2729 139.383 53.9599 139.12 53.669 138.834C53.6138 138.779 53.5828 138.704 53.5828 138.626C53.5828 138.548 53.6138 138.473 53.669 138.418C53.7243 138.363 53.7993 138.332 53.8775 138.332C53.9556 138.332 54.0306 138.363 54.0859 138.418C54.3564 138.68 54.647 138.92 54.9551 139.137C55.0147 139.181 55.0555 139.246 55.0694 139.319C55.0832 139.391 55.0691 139.467 55.0298 139.529C55.0074 139.562 54.9788 139.589 54.9457 139.611C54.9126 139.632 54.8756 139.646 54.8369 139.653C54.7982 139.66 54.7584 139.659 54.72 139.651C54.6816 139.643 54.6452 139.627 54.6129 139.604L54.6051 139.62Z" fill="black"/>
<path d="M52.3318 137.103C52.1325 136.748 51.9628 136.378 51.8245 135.995C51.8003 135.929 51.8032 135.856 51.8327 135.792C51.8621 135.728 51.9157 135.678 51.9818 135.654C52.0475 135.629 52.1202 135.632 52.1842 135.66C52.2482 135.689 52.2984 135.742 52.3239 135.807C52.4614 136.158 52.6258 136.498 52.8156 136.824C52.8354 136.856 52.8486 136.892 52.8544 136.929C52.8602 136.966 52.8584 137.004 52.8493 137.041C52.8401 137.077 52.8237 137.112 52.801 137.142C52.7784 137.172 52.7499 137.198 52.7172 137.217C52.6847 137.236 52.6487 137.248 52.6113 137.253C52.574 137.259 52.5359 137.256 52.4994 137.247C52.4629 137.237 52.4286 137.221 52.3984 137.198C52.3683 137.175 52.343 137.147 52.3239 137.114L52.3318 137.103Z" fill="black"/>
<path d="M51.3879 133.855V133.251V132.661C51.3899 132.605 51.4142 132.551 51.4554 132.512C51.4966 132.474 51.5514 132.452 51.6081 132.453C51.6634 132.453 51.7164 132.475 51.7555 132.514C51.7946 132.553 51.8166 132.606 51.8166 132.661V133.251L51.852 133.816C51.8552 133.879 51.8335 133.941 51.7915 133.988C51.7496 134.035 51.6908 134.063 51.6278 134.067C51.5648 134.071 51.5031 134.049 51.456 134.007C51.4088 133.965 51.3802 133.906 51.3761 133.843L51.3879 133.855Z" fill="black"/>
<path d="M51.4272 130.56L51.4508 129.382C51.4508 129.362 51.4548 129.343 51.4626 129.324C51.4703 129.306 51.4817 129.289 51.496 129.275C51.5103 129.262 51.5272 129.251 51.5458 129.243C51.5644 129.236 51.5843 129.233 51.6042 129.233C51.6439 129.233 51.6819 129.249 51.7099 129.277C51.7379 129.305 51.7537 129.343 51.7537 129.382L51.7773 130.56C51.7784 130.607 51.7612 130.651 51.7296 130.685C51.698 130.719 51.6544 130.739 51.6082 130.741C51.5849 130.742 51.5618 130.738 51.5401 130.729C51.5185 130.721 51.4987 130.708 51.4819 130.692C51.4651 130.676 51.4516 130.657 51.4422 130.636C51.4328 130.614 51.4278 130.592 51.4272 130.568V130.56Z" fill="black"/>
<path d="M51.5177 127.278L51.5531 126.1C51.5531 126.093 51.5544 126.087 51.557 126.081C51.5596 126.075 51.5635 126.069 51.5683 126.065C51.5731 126.06 51.5788 126.057 51.585 126.055C51.5911 126.053 51.5977 126.052 51.6042 126.052C51.6167 126.052 51.6287 126.057 51.6376 126.066C51.6464 126.075 51.6514 126.087 51.6514 126.1L51.6908 127.278C51.6908 127.301 51.6816 127.322 51.6654 127.339C51.6492 127.355 51.6272 127.364 51.6042 127.364C51.5931 127.365 51.5819 127.363 51.5714 127.359C51.5609 127.355 51.5514 127.349 51.5433 127.341C51.5352 127.334 51.5287 127.324 51.5243 127.314C51.5199 127.304 51.5177 127.293 51.5177 127.282V127.278Z" fill="black"/>
<g opacity="0.47">
<path opacity="0.2" d="M81.8643 58.6676C85.1115 58.6676 87.744 56.0392 87.744 52.7969C87.744 49.5547 85.1115 46.9263 81.8643 46.9263C78.617 46.9263 75.9845 49.5547 75.9845 52.7969C75.9845 56.0392 78.617 58.6676 81.8643 58.6676Z" fill="white"/>
<path opacity="0.2" d="M30.3663 86.8742C30.3675 88.5186 29.956 90.1371 29.1693 91.5817C28.3827 93.0264 27.246 94.2512 25.8631 95.1442C22.5426 89.5341 19.8142 83.5949 17.7219 77.4223C18.6225 77.159 19.5563 77.0267 20.4946 77.0296C21.7905 77.028 23.0739 77.2815 24.2715 77.7756C25.4691 78.2696 26.5575 78.9945 27.4743 79.9088C28.3911 80.8231 29.1184 81.9089 29.6147 83.1041C30.1109 84.2993 30.3663 85.5804 30.3663 86.8742Z" fill="white"/>
<path opacity="0.2" d="M26.5867 47.1775C26.5867 49.5729 25.6337 51.8701 23.9373 53.5639C22.2409 55.2577 19.9401 56.2093 17.541 56.2093C15.6283 56.2171 13.7629 55.616 12.2158 54.4932C11.8539 52.0507 11.6101 49.9263 11.4292 48.2102C11.3013 46.9016 11.6293 45.589 12.3579 44.4938C13.0866 43.3985 14.1712 42.5878 15.429 42.1982L22.8583 39.8774C24.0122 40.7146 24.9515 41.8123 25.5994 43.081C26.2474 44.3497 26.5857 45.7534 26.5867 47.1775Z" fill="white"/>
<path opacity="0.2" d="M61.0787 103.905C64.6149 103.905 67.4816 101.043 67.4816 97.5121C67.4816 93.9814 64.6149 91.1191 61.0787 91.1191C57.5426 91.1191 54.6759 93.9814 54.6759 97.5121C54.6759 101.043 57.5426 103.905 61.0787 103.905Z" fill="white"/>
<path opacity="0.2" d="M26.5867 70.9154C28.6763 70.9154 30.3702 69.2241 30.3702 67.1378C30.3702 65.0514 28.6763 63.3601 26.5867 63.3601C24.4972 63.3601 22.8032 65.0514 22.8032 67.1378C22.8032 69.2241 24.4972 70.9154 26.5867 70.9154Z" fill="white"/>
<path opacity="0.2" d="M66.1797 54.7328C68.2693 54.7328 69.9632 53.0415 69.9632 50.9551C69.9632 48.8688 68.2693 47.1775 66.1797 47.1775C64.0902 47.1775 62.3962 48.8688 62.3962 50.9551C62.3962 53.0415 64.0902 54.7328 66.1797 54.7328Z" fill="white"/>
<path opacity="0.2" d="M86.3321 74.8187C85.0336 78.9287 83.4824 82.9549 81.6873 86.8742C80.3799 86.4561 79.2395 85.634 78.4308 84.5265C77.622 83.419 77.1868 82.0835 77.188 80.7129C77.188 79.8638 77.3556 79.023 77.6811 78.2385C78.0067 77.454 78.4839 76.7413 79.0855 76.141C79.687 75.5408 80.4011 75.0648 81.187 74.7402C81.9729 74.4156 82.8151 74.2488 83.6656 74.2493C84.5847 74.2486 85.4936 74.4427 86.3321 74.8187Z" fill="white"/>
<path opacity="0.2" d="M45.5947 33.5591C43.1956 33.5591 40.8948 34.5107 39.1984 36.2044C37.502 37.8982 36.549 40.1955 36.549 42.5909C36.549 44.9863 37.502 47.2836 39.1984 48.9774C40.8948 50.6712 43.1956 51.6227 45.5947 51.6227C47.9938 51.6227 50.2946 50.6712 51.9911 48.9774C53.6875 47.2836 54.6405 44.9863 54.6405 42.5909C54.6405 40.1955 53.6875 37.8982 51.9911 36.2044C50.2946 34.5107 47.9938 33.5591 45.5947 33.5591ZM45.5947 47.6252C44.9333 47.6257 44.2783 47.496 43.667 47.2436C43.0558 46.9913 42.5004 46.6211 42.0325 46.1543C41.5646 45.6876 41.1934 45.1332 40.9402 44.5232C40.687 43.9131 40.5566 43.2591 40.5566 42.5987C40.5566 41.9383 40.687 41.2844 40.9402 40.6743C41.1934 40.0642 41.5646 39.51 42.0325 39.0432C42.5004 38.5764 43.0558 38.2062 43.667 37.9538C44.2783 37.7015 44.9333 37.5719 45.5947 37.5724C46.2558 37.5724 46.9104 37.7024 47.5212 37.955C48.132 38.2076 48.687 38.5778 49.1544 39.0446C49.6219 39.5113 49.9927 40.0654 50.2457 40.6752C50.4987 41.2851 50.6289 41.9387 50.6289 42.5987C50.6289 43.2588 50.4987 43.9124 50.2457 44.5222C49.9927 45.1321 49.6219 45.6862 49.1544 46.153C48.687 46.6197 48.132 46.9899 47.5212 47.2425C46.9104 47.4951 46.2558 47.6252 45.5947 47.6252Z" fill="white"/>
<path opacity="0.2" d="M40.4857 99.7976C38.8582 99.7961 37.2605 100.233 35.8609 101.062C34.4613 101.892 33.3117 103.083 32.5333 104.51C33.4982 105.646 34.5037 106.749 35.5499 107.82C35.7852 106.687 36.4046 105.669 37.3037 104.939C38.2028 104.209 39.3267 103.81 40.4857 103.811C41.8209 103.811 43.1013 104.34 44.0454 105.283C44.9895 106.226 45.5199 107.504 45.5199 108.837C45.5192 109.882 45.1928 110.901 44.586 111.752C43.9793 112.604 43.1222 113.246 42.1336 113.589C43.3135 114.476 44.5642 115.324 45.8463 116.122C46.9916 115.282 47.9227 114.185 48.5643 112.92C49.2059 111.654 49.5399 110.256 49.5394 108.837C49.5404 107.65 49.3069 106.474 48.8523 105.377C48.3977 104.28 47.7309 103.283 46.8899 102.443C46.049 101.603 45.0506 100.938 43.9516 100.484C42.8527 100.03 41.675 99.7966 40.4857 99.7976Z" fill="white"/>
</g>
<path d="M77.9903 99.2478H25.3635C21.3799 99.2478 18.1505 102.472 18.1505 106.45C18.1505 110.427 21.3799 113.652 25.3635 113.652H77.9903C81.9739 113.652 85.2033 110.427 85.2033 106.45C85.2033 102.472 81.9739 99.2478 77.9903 99.2478Z" fill="url(#paint16_linear_528_8706)"/>
<path d="M28.3408 101.886L28.9936 103.885C29.0264 103.989 29.0915 104.078 29.1792 104.142C29.267 104.206 29.3729 104.24 29.4813 104.239H31.5855C31.6945 104.237 31.8011 104.271 31.8898 104.334C31.9785 104.397 32.0446 104.487 32.0784 104.591C32.1123 104.694 32.112 104.806 32.0778 104.909C32.0436 105.013 31.9772 105.102 31.8883 105.165L30.1853 106.402C30.0974 106.466 30.0318 106.556 29.9979 106.659C29.964 106.761 29.9635 106.873 29.9965 106.976L30.6494 108.975C30.6808 109.077 30.6796 109.186 30.6457 109.288C30.6119 109.389 30.5472 109.478 30.4606 109.541C30.3741 109.604 30.27 109.639 30.1628 109.64C30.0557 109.641 29.9508 109.609 29.8628 109.548L28.1599 108.311C28.0722 108.248 27.967 108.214 27.859 108.214C27.751 108.214 27.6458 108.248 27.5581 108.311L25.8551 109.548C25.7672 109.609 25.6623 109.641 25.5551 109.64C25.448 109.639 25.3439 109.604 25.2573 109.541C25.1708 109.478 25.1061 109.389 25.0723 109.288C25.0384 109.186 25.0371 109.077 25.0686 108.975L25.7175 106.976C25.7522 106.873 25.753 106.762 25.7197 106.659C25.6864 106.555 25.6208 106.466 25.5326 106.402L23.8297 105.165C23.741 105.103 23.6748 105.013 23.6405 104.91C23.6062 104.807 23.6057 104.696 23.639 104.593C23.6723 104.489 23.7377 104.399 23.8258 104.336C23.9138 104.272 24.0199 104.238 24.1286 104.239H26.2366C26.3448 104.238 26.4501 104.204 26.5376 104.141C26.6252 104.077 26.6905 103.988 26.7243 103.885L27.3733 101.886C27.4078 101.786 27.473 101.698 27.5597 101.636C27.6465 101.575 27.7504 101.541 27.857 101.541C27.9636 101.541 28.0676 101.575 28.1543 101.636C28.2411 101.698 28.3063 101.786 28.3408 101.886Z" fill="white"/>
<path d="M40.002 101.886L40.6509 103.885C40.6848 103.988 40.7501 104.077 40.8376 104.141C40.9252 104.204 41.0305 104.238 41.1386 104.239H43.2467C43.3554 104.238 43.4615 104.272 43.5495 104.336C43.6375 104.399 43.703 104.489 43.7363 104.593C43.7696 104.696 43.7691 104.807 43.7348 104.91C43.7005 105.013 43.6342 105.103 43.5456 105.165L41.8426 106.402C41.7554 106.466 41.6906 106.556 41.6574 106.659C41.6242 106.762 41.6243 106.873 41.6578 106.976L42.3067 108.974C42.3409 109.077 42.3415 109.188 42.3085 109.291C42.2754 109.394 42.2105 109.484 42.123 109.548C42.0355 109.612 41.9299 109.646 41.8216 109.646C41.7132 109.646 41.6076 109.612 41.5201 109.548L39.8132 108.311C39.7256 108.248 39.6203 108.214 39.5124 108.214C39.4044 108.214 39.2991 108.248 39.2115 108.311L37.5085 109.548C37.4205 109.609 37.3157 109.641 37.2085 109.64C37.1013 109.639 36.9973 109.604 36.9107 109.541C36.8242 109.478 36.7595 109.389 36.7256 109.288C36.6918 109.186 36.6905 109.077 36.7219 108.974L37.3748 106.976C37.4078 106.872 37.4074 106.761 37.3735 106.658C37.3396 106.556 37.274 106.466 37.186 106.402L35.4831 105.165C35.3966 105.101 35.3326 105.011 35.3 104.909C35.2674 104.806 35.2679 104.696 35.3013 104.594C35.3347 104.491 35.3995 104.402 35.4864 104.338C35.5733 104.275 35.6781 104.24 35.7859 104.239H37.89C37.9985 104.24 38.1043 104.206 38.1921 104.142C38.2799 104.078 38.3449 103.989 38.3777 103.885L39.0306 101.886C39.0642 101.784 39.1292 101.695 39.2165 101.632C39.3037 101.569 39.4086 101.535 39.5163 101.535C39.624 101.535 39.7289 101.569 39.8161 101.632C39.9033 101.695 39.9684 101.784 40.002 101.886Z" fill="white"/>
<path d="M52.1548 101.886L52.8038 103.885C52.8371 103.988 52.9023 104.078 52.9899 104.141C53.0776 104.205 53.1831 104.239 53.2914 104.239H55.3956C55.5046 104.237 55.6113 104.271 55.6999 104.334C55.7886 104.397 55.8547 104.487 55.8885 104.591C55.9224 104.694 55.9222 104.806 55.888 104.909C55.8537 105.013 55.7873 105.102 55.6984 105.165L53.9954 106.402C53.9072 106.466 53.8417 106.555 53.8084 106.659C53.7751 106.762 53.7759 106.873 53.8106 106.976L54.4595 108.975C54.491 109.077 54.4897 109.186 54.4558 109.288C54.422 109.389 54.3573 109.478 54.2708 109.541C54.1842 109.604 54.0801 109.639 53.973 109.64C53.8658 109.641 53.7609 109.609 53.6729 109.548L51.97 108.311C51.8823 108.248 51.7771 108.214 51.6691 108.214C51.5611 108.214 51.4559 108.248 51.3682 108.311L49.6653 109.548C49.5773 109.609 49.4724 109.641 49.3652 109.64C49.2581 109.639 49.154 109.604 49.0674 109.541C48.9809 109.478 48.9162 109.389 48.8824 109.288C48.8485 109.186 48.8472 109.077 48.8787 108.975L49.5315 106.976C49.5646 106.873 49.5641 106.761 49.5302 106.659C49.4963 106.556 49.4307 106.466 49.3428 106.402L47.6398 105.165C47.5509 105.102 47.4845 105.013 47.4502 104.909C47.416 104.806 47.4158 104.694 47.4497 104.591C47.4835 104.487 47.5496 104.397 47.6383 104.334C47.7269 104.271 47.8336 104.237 47.9426 104.239H50.0468C50.1552 104.24 50.2611 104.206 50.3488 104.142C50.4366 104.078 50.5017 103.989 50.5344 103.885L51.1873 101.886C51.2218 101.786 51.287 101.698 51.3738 101.636C51.4605 101.575 51.5645 101.541 51.6711 101.541C51.7777 101.541 51.8816 101.575 51.9684 101.636C52.0551 101.698 52.1203 101.786 52.1548 101.886Z" fill="white"/>
<path d="M64.3154 101.887L64.9644 103.885C64.9982 103.988 65.0635 104.077 65.1511 104.141C65.2386 104.204 65.3439 104.238 65.4521 104.239H67.5601C67.6679 104.24 67.7727 104.275 67.8596 104.338C67.9465 104.402 68.0113 104.491 68.0447 104.594C68.0782 104.696 68.0786 104.806 68.046 104.909C68.0134 105.011 67.9494 105.101 67.863 105.165L66.1561 106.402C66.0693 106.467 66.0048 106.557 65.9717 106.66C65.9385 106.762 65.9384 106.873 65.9712 106.976L66.6201 108.975C66.6543 109.077 66.6549 109.188 66.6219 109.291C66.5889 109.394 66.5239 109.484 66.4364 109.548C66.3489 109.612 66.2433 109.646 66.135 109.646C66.0266 109.646 65.9211 109.612 65.8336 109.548L64.1306 108.331C64.0423 108.267 63.9364 108.233 63.8277 108.233C63.7191 108.233 63.6132 108.267 63.5249 108.331L61.8219 109.568C61.7344 109.631 61.6289 109.666 61.5205 109.666C61.4122 109.666 61.3066 109.631 61.2191 109.567C61.1316 109.504 61.0666 109.414 61.0336 109.311C61.0006 109.208 61.0012 109.097 61.0354 108.994L61.6843 106.995C61.7171 106.893 61.717 106.782 61.6838 106.679C61.6507 106.576 61.5862 106.487 61.4994 106.422L59.7965 105.185C59.7078 105.122 59.6416 105.033 59.6073 104.93C59.573 104.827 59.5725 104.716 59.6058 104.612C59.6391 104.509 59.7045 104.419 59.7926 104.355C59.8806 104.292 59.9867 104.258 60.0954 104.258H62.2034C62.3116 104.258 62.4169 104.224 62.5044 104.16C62.592 104.097 62.6573 104.008 62.6911 103.905L63.3401 101.906C63.3706 101.802 63.4336 101.71 63.52 101.644C63.6065 101.578 63.7117 101.541 63.8205 101.539C63.9293 101.537 64.036 101.569 64.125 101.632C64.214 101.694 64.2807 101.784 64.3154 101.887Z" fill="white"/>
<path opacity="0.39" d="M75.9766 101.886L76.6295 103.885C76.6623 103.989 76.7273 104.078 76.8151 104.142C76.9029 104.206 77.0087 104.24 77.1172 104.239H79.2213C79.3304 104.237 79.437 104.271 79.5257 104.334C79.6144 104.397 79.6805 104.487 79.7143 104.591C79.7481 104.694 79.7479 104.806 79.7137 104.909C79.6795 105.013 79.6131 105.102 79.5242 105.165L77.8212 106.402C77.7332 106.466 77.6676 106.556 77.6337 106.659C77.5998 106.761 77.5994 106.873 77.6324 106.976L78.2853 108.975C78.3167 109.077 78.3154 109.186 78.2816 109.288C78.2478 109.389 78.1831 109.478 78.0965 109.541C78.01 109.604 77.9059 109.639 77.7987 109.64C77.6916 109.641 77.5867 109.609 77.4987 109.548L75.7957 108.311C75.7081 108.248 75.6028 108.214 75.4949 108.214C75.3869 108.214 75.2816 108.248 75.194 108.311L73.491 109.548C73.403 109.609 73.2981 109.641 73.191 109.64C73.0838 109.639 72.9797 109.604 72.8932 109.541C72.8066 109.478 72.7419 109.389 72.7081 109.288C72.6743 109.186 72.673 109.077 72.7044 108.975L73.3534 106.976C73.3881 106.873 73.3888 106.762 73.3555 106.659C73.3223 106.555 73.2567 106.466 73.1685 106.402L71.4655 105.165C71.3769 105.103 71.3106 105.013 71.2764 104.91C71.2421 104.807 71.2415 104.696 71.2749 104.593C71.3082 104.489 71.3736 104.399 71.4616 104.336C71.5497 104.272 71.6558 104.238 71.7645 104.239H73.8725C73.9807 104.238 74.086 104.204 74.1735 104.141C74.261 104.077 74.3263 103.988 74.3602 103.885L75.0091 101.886C75.0436 101.786 75.1088 101.698 75.1956 101.636C75.2823 101.575 75.3863 101.541 75.4929 101.541C75.5995 101.541 75.7035 101.575 75.7902 101.636C75.8769 101.698 75.9421 101.786 75.9766 101.886Z" fill="white"/>
<defs>
<linearGradient id="paint0_linear_528_8706" x1="22.7816" y1="52.8417" x2="22.7816" y2="6.23625" gradientUnits="userSpaceOnUse">
<stop stop-color="#DEE1E2"/>
<stop offset="1" stop-color="#EFEFEF"/>
</linearGradient>
<linearGradient id="paint1_linear_528_8706" x1="56.6581" y1="23.3414" x2="92.4558" y2="23.3414" gradientUnits="userSpaceOnUse">
<stop stop-color="#735CD2"/>
<stop offset="1" stop-color="#8F6ACC" stop-opacity="0.2"/>
</linearGradient>
<linearGradient id="paint2_linear_528_8706" x1="60.6421" y1="92.8076" x2="60.6421" y2="53.9513" gradientUnits="userSpaceOnUse">
<stop stop-color="#DEE1E2" stop-opacity="0"/>
<stop offset="1" stop-color="#B4BCBE"/>
</linearGradient>
<linearGradient id="paint3_linear_528_8706" x1="84.8435" y1="54.2357" x2="84.8435" y2="7.6261" gradientUnits="userSpaceOnUse">
<stop stop-color="#DEE1E2"/>
<stop offset="1" stop-color="#EFEFEF"/>
</linearGradient>
<linearGradient id="paint4_linear_528_8706" x1="28.6201" y1="69.2465" x2="28.6201" y2="30.3901" gradientUnits="userSpaceOnUse">
<stop stop-color="#DEE1E2" stop-opacity="0"/>
<stop offset="1" stop-color="#B4BCBE"/>
</linearGradient>
<linearGradient id="paint5_linear_528_8706" x1="52.8175" y1="43.4838" x2="52.8175" y2="-3.12585" gradientUnits="userSpaceOnUse">
<stop stop-color="#DEE1E2"/>
<stop offset="1" stop-color="#EFEFEF"/>
</linearGradient>
<linearGradient id="paint6_linear_528_8706" x1="4.46594" y1="80.7228" x2="98.74" y2="80.7228" gradientUnits="userSpaceOnUse">
<stop stop-color="#3FAF49"/>
<stop offset="0.0001" stop-color="#3FAF49"/>
<stop offset="1" stop-color="#68D872"/>
</linearGradient>
<linearGradient id="paint7_linear_528_8706" x1="11.4021" y1="75.0878" x2="91.7803" y2="75.0878" gradientUnits="userSpaceOnUse">
<stop stop-color="#3FAF49"/>
<stop offset="0.0001" stop-color="#3FAF49"/>
<stop offset="1" stop-color="#68D872"/>
</linearGradient>
<linearGradient id="paint8_linear_528_8706" x1="51.5912" y1="119.431" x2="51.5912" y2="24.5532" gradientUnits="userSpaceOnUse">
<stop stop-color="#DEE1E2"/>
<stop offset="1" stop-color="#EFEFEF"/>
</linearGradient>
<linearGradient id="paint9_linear_528_8706" x1="27.2239" y1="73.1693" x2="75.9845" y2="73.1693" gradientUnits="userSpaceOnUse">
<stop stop-color="#3FAF49"/>
<stop offset="0.0001" stop-color="#3FAF49"/>
<stop offset="1" stop-color="#68D872"/>
</linearGradient>
<linearGradient id="paint10_linear_528_8706" x1="51.6042" y1="51.3832" x2="51.6042" y2="152.763" gradientUnits="userSpaceOnUse">
<stop stop-color="#FEFEFC"/>
<stop offset="0.09" stop-color="#FEFEFC" stop-opacity="0.96"/>
<stop offset="0.25" stop-color="#FEFEFC" stop-opacity="0.86"/>
<stop offset="0.44" stop-color="#FEFEFD" stop-opacity="0.7"/>
<stop offset="0.68" stop-color="#FFFFFE" stop-opacity="0.47"/>
<stop offset="0.93" stop-color="white" stop-opacity="0.18"/>
<stop offset="1" stop-color="white" stop-opacity="0.1"/>
</linearGradient>
<linearGradient id="paint11_linear_528_8706" x1="40.9263" y1="78.6337" x2="62.2743" y2="78.6337" gradientUnits="userSpaceOnUse">
<stop stop-color="#3FAF49"/>
<stop offset="0.0001" stop-color="#3FAF49"/>
<stop offset="1" stop-color="#68D872"/>
</linearGradient>
<linearGradient id="paint12_linear_528_8706" x1="45.5946" y1="63.3601" x2="57.6137" y2="63.3601" gradientUnits="userSpaceOnUse">
<stop stop-color="#3FAF49"/>
<stop offset="0.0001" stop-color="#3FAF49"/>
<stop offset="1" stop-color="#68D872"/>
</linearGradient>
<linearGradient id="paint13_linear_528_8706" x1="82.3427" y1="129.21" x2="132" y2="129.21" gradientUnits="userSpaceOnUse">
<stop stop-color="#735CD2"/>
<stop offset="1" stop-color="#8F6ACC"/>
</linearGradient>
<linearGradient id="paint14_linear_528_8706" x1="82.3427" y1="129.21" x2="132" y2="129.21" gradientUnits="userSpaceOnUse">
<stop stop-color="#3FAF49"/>
<stop offset="0.0001" stop-color="#3FAF49"/>
<stop offset="1" stop-color="#68D872"/>
</linearGradient>
<linearGradient id="paint15_linear_528_8706" x1="92.3323" y1="129.21" x2="122.01" y2="129.21" gradientUnits="userSpaceOnUse">
<stop stop-color="#3FAF49"/>
<stop offset="0.0001" stop-color="#3FAF49"/>
<stop offset="1" stop-color="#68D872"/>
</linearGradient>
<linearGradient id="paint16_linear_528_8706" x1="18.1505" y1="106.45" x2="85.2033" y2="106.45" gradientUnits="userSpaceOnUse">
<stop stop-color="#3FAF49"/>
<stop offset="0.0001" stop-color="#3FAF49"/>
<stop offset="1" stop-color="#68D872"/>
</linearGradient>
</defs>
</svg>
