<svg width="154" height="159" viewBox="0 0 154 159" fill="none" xmlns="http://www.w3.org/2000/svg">
<g clip-path="url(#clip0_528_8418)">
<g opacity="0.57">
<g opacity="0.62">
<path d="M38.8393 0L38.8948 1.27859C38.8953 1.28622 38.8944 1.29395 38.8918 1.30117C38.8893 1.30839 38.8853 1.31502 38.8801 1.32063C38.8749 1.32623 38.8686 1.33069 38.8616 1.33374C38.8546 1.33678 38.847 1.33834 38.8393 1.33832C38.8323 1.33891 38.8252 1.33802 38.8185 1.33571C38.8118 1.33341 38.8056 1.3297 38.8004 1.32489C38.7952 1.32008 38.791 1.31422 38.7882 1.30772C38.7854 1.30122 38.7839 1.29421 38.7839 1.28712L38.8393 0Z" fill="#69A757"/>
<path d="M38.9416 2.54433L38.9843 3.82292C38.9848 3.84195 38.9816 3.86099 38.9749 3.87879C38.9681 3.89659 38.9579 3.9128 38.9449 3.92666C38.9318 3.94051 38.9161 3.95164 38.8988 3.95943C38.8814 3.96723 38.8626 3.97158 38.8436 3.97213C38.8248 3.97328 38.8059 3.97061 38.7882 3.96432C38.7704 3.95804 38.7541 3.94822 38.7401 3.9355C38.7262 3.92278 38.715 3.90738 38.7072 3.89024C38.6993 3.87309 38.695 3.85456 38.6945 3.83572L38.7371 2.55713C38.737 2.5435 38.7398 2.53007 38.7453 2.51759C38.7507 2.5051 38.7587 2.49382 38.7687 2.4846C38.7788 2.47538 38.7906 2.46839 38.8035 2.464C38.8164 2.45961 38.83 2.45792 38.8436 2.45911C38.8673 2.45977 38.89 2.46864 38.9079 2.48419C38.9258 2.49973 38.9377 2.52097 38.9416 2.54433Z" fill="#69A757"/>
<path d="M39.0225 5.08869L39.0651 6.36728C39.0696 6.39984 39.067 6.43298 39.0576 6.46446C39.0482 6.49595 39.0321 6.52513 39.0105 6.54989C38.9889 6.57466 38.9622 6.59445 38.9323 6.60806C38.9024 6.62166 38.8699 6.62876 38.8371 6.62876C38.8042 6.62876 38.7717 6.62166 38.7418 6.60806C38.7119 6.59445 38.6852 6.57466 38.6636 6.54989C38.642 6.52513 38.626 6.49595 38.6166 6.46446C38.6072 6.43298 38.6046 6.39984 38.6091 6.36728L38.6517 5.08869C38.6539 5.0397 38.6752 4.99354 38.7111 4.96008C38.7469 4.92662 38.7944 4.90856 38.8435 4.90972C38.8909 4.90972 38.9365 4.92859 38.97 4.96216C39.0036 4.99573 39.0225 5.04122 39.0225 5.08869Z" fill="#69A757"/>
<path d="M39.0993 7.63334L39.1291 8.91193C39.1341 8.95323 39.1303 8.9951 39.1179 9.03482C39.1055 9.07453 39.0849 9.11117 39.0573 9.1423C39.0297 9.17344 38.9958 9.19838 38.9578 9.21545C38.9199 9.23252 38.8788 9.24126 38.8372 9.24126C38.7956 9.24126 38.7545 9.23252 38.7165 9.21545C38.6786 9.19838 38.6447 9.17344 38.6171 9.1423C38.5895 9.11117 38.5688 9.07453 38.5564 9.03482C38.544 8.9951 38.5402 8.95323 38.5452 8.91193L38.5751 7.63334C38.5756 7.59883 38.583 7.56476 38.5969 7.53314C38.6107 7.50153 38.6307 7.47297 38.6557 7.44917C38.6807 7.42537 38.7102 7.40673 38.7425 7.39444C38.7747 7.38215 38.8091 7.37645 38.8436 7.37758C38.9107 7.37972 38.9745 7.40739 39.022 7.45489C39.0695 7.5024 39.0972 7.5662 39.0993 7.63334Z" fill="#69A757"/>
<path d="M39.159 10.1777L39.1846 11.4563C39.1846 11.5479 39.1482 11.6357 39.0835 11.7004C39.0187 11.7652 38.9309 11.8015 38.8394 11.8015C38.7478 11.8015 38.66 11.7652 38.5953 11.7004C38.5305 11.6357 38.4941 11.5479 38.4941 11.4563L38.5154 10.1777C38.5245 10.0988 38.5624 10.0259 38.6217 9.97297C38.681 9.92008 38.7577 9.89087 38.8372 9.89087C38.9167 9.89087 38.9934 9.92008 39.0528 9.97297C39.1121 10.0259 39.1499 10.0988 39.159 10.1777Z" fill="#69A757"/>
<path d="M39.2059 12.722V14.0006C39.2059 14.1035 39.165 14.2021 39.0923 14.2748C39.0195 14.3475 38.9209 14.3884 38.818 14.3884C38.7151 14.3884 38.6165 14.3475 38.5438 14.2748C38.471 14.2021 38.4302 14.1035 38.4302 14.0006V12.722C38.4302 12.6248 38.4688 12.5316 38.5375 12.4629C38.6063 12.3941 38.6995 12.3555 38.7967 12.3555C38.8939 12.3555 38.9871 12.3941 39.0559 12.4629C39.1246 12.5316 39.1632 12.6248 39.1632 12.722H39.2059Z" fill="#69A757"/>
<path d="M39.2442 15.2664V16.545C39.2442 16.658 39.1993 16.7664 39.1194 16.8463C39.0395 16.9263 38.9311 16.9712 38.818 16.9712C38.705 16.9712 38.5966 16.9263 38.5167 16.8463C38.4368 16.7664 38.3918 16.658 38.3918 16.545V15.2664C38.3984 15.1579 38.4461 15.0559 38.5254 14.9814C38.6046 14.9069 38.7093 14.8656 38.818 14.8658C38.8728 14.8623 38.9276 14.87 38.9792 14.8886C39.0308 14.9072 39.078 14.9362 39.118 14.9737C39.158 15.0113 39.1898 15.0565 39.2115 15.1069C39.2332 15.1572 39.2444 15.2116 39.2442 15.2664Z" fill="#69A757"/>
<path d="M39.274 17.8107V19.0893C39.274 19.208 39.2269 19.3218 39.143 19.4057C39.059 19.4897 38.9452 19.5368 38.8265 19.5368C38.7078 19.5368 38.594 19.4897 38.5101 19.4057C38.4262 19.3218 38.379 19.208 38.379 19.0893V17.8107C38.379 17.6977 38.4239 17.5893 38.5038 17.5094C38.5838 17.4295 38.6922 17.3845 38.8052 17.3845C38.9183 17.3845 39.0267 17.4295 39.1066 17.5094C39.1865 17.5893 39.2314 17.6977 39.2314 17.8107H39.274Z" fill="#69A757"/>
<path d="M39.2953 20.3552V21.6338C39.2843 21.7488 39.2308 21.8556 39.1453 21.9333C39.0598 22.0109 38.9484 22.054 38.8329 22.054C38.7174 22.054 38.606 22.0109 38.5205 21.9333C38.435 21.8556 38.3815 21.7488 38.3705 21.6338V20.3552C38.3815 20.2413 38.4345 20.1356 38.5192 20.0587C38.6039 19.9817 38.7142 19.9392 38.8286 19.9392C38.9431 19.9392 39.0534 19.9817 39.1381 20.0587C39.2228 20.1356 39.2758 20.2413 39.2868 20.3552H39.2953Z" fill="#69A757"/>
<path d="M39.3038 22.8995V24.178C39.2927 24.2952 39.2382 24.404 39.1511 24.4832C39.0641 24.5624 38.9506 24.6063 38.8329 24.6063C38.7152 24.6063 38.6017 24.5624 38.5146 24.4832C38.4275 24.404 38.3731 24.2952 38.3619 24.178V22.8995C38.373 22.7834 38.427 22.6756 38.5133 22.5972C38.5996 22.5188 38.712 22.4753 38.8286 22.4753C38.9452 22.4753 39.0576 22.5188 39.1439 22.5972C39.2302 22.6756 39.2842 22.7834 39.2953 22.8995H39.3038Z" fill="#69A757"/>
<path d="M39.3124 25.4481V26.7267C39.3124 26.8533 39.2621 26.9747 39.1726 27.0643C39.0831 27.1538 38.9617 27.2041 38.8351 27.2041C38.7085 27.2041 38.5871 27.1538 38.4975 27.0643C38.408 26.9747 38.3577 26.8533 38.3577 26.7267V25.4481C38.3514 25.3819 38.3591 25.3152 38.3801 25.2521C38.4011 25.189 38.4351 25.131 38.4799 25.0819C38.5246 25.0327 38.5791 24.9935 38.6399 24.9666C38.7007 24.9397 38.7665 24.9258 38.833 24.9258C38.8994 24.9258 38.9652 24.9397 39.026 24.9666C39.0868 24.9935 39.1413 25.0327 39.1861 25.0819C39.2308 25.131 39.2648 25.189 39.2858 25.2521C39.3068 25.3152 39.3144 25.3819 39.3082 25.4481H39.3124Z" fill="#69A757"/>
<path d="M39.3124 27.9927V29.2712C39.3124 29.3956 39.263 29.5147 39.1751 29.6027C39.0872 29.6906 38.9679 29.74 38.8436 29.74C38.7192 29.74 38.6 29.6906 38.5121 29.6027C38.4241 29.5147 38.3748 29.3956 38.3748 29.2712V27.9927C38.3748 27.8672 38.4246 27.7468 38.5133 27.6581C38.602 27.5694 38.7224 27.5195 38.8478 27.5195C38.9733 27.5195 39.0936 27.5694 39.1824 27.6581C39.2711 27.7468 39.3209 27.8672 39.3209 27.9927H39.3124Z" fill="#69A757"/>
<path d="M39.2996 30.5371V31.8157C39.2996 31.9378 39.2511 32.0548 39.1647 32.1412C39.0784 32.2275 38.9613 32.2759 38.8393 32.2759C38.7183 32.2737 38.6029 32.2244 38.5178 32.1385C38.4326 32.0525 38.3843 31.9367 38.3832 31.8157V30.5371C38.377 30.4726 38.3844 30.4076 38.4048 30.3462C38.4252 30.2847 38.4583 30.2281 38.5018 30.1802C38.5454 30.1323 38.5985 30.094 38.6577 30.0678C38.7169 30.0416 38.7809 30.0281 38.8457 30.0281C38.9104 30.0281 38.9744 30.0416 39.0337 30.0678C39.0929 30.094 39.146 30.1323 39.1895 30.1802C39.233 30.2281 39.2661 30.2847 39.2865 30.3462C39.3069 30.4076 39.3143 30.4726 39.3081 30.5371H39.2996Z" fill="#69A757"/>
<path d="M39.2953 33.0557L39.3848 34.279V34.3258C39.3944 34.4388 39.3587 34.551 39.2856 34.6377C39.2125 34.7244 39.1079 34.7786 38.9948 34.7882C38.8818 34.7978 38.7696 34.7622 38.6829 34.689C38.5961 34.6159 38.542 34.5112 38.5324 34.3982L38.4088 33.0856C38.4004 33.0269 38.4044 32.9671 38.4204 32.9101C38.4365 32.853 38.4642 32.7999 38.5019 32.7542C38.5396 32.7085 38.5864 32.6711 38.6394 32.6445C38.6923 32.6179 38.7503 32.6026 38.8094 32.5997C38.8679 32.5938 38.927 32.5995 38.9833 32.6164C39.0396 32.6334 39.092 32.6613 39.1375 32.6985C39.183 32.7357 39.2208 32.7815 39.2486 32.8333C39.2764 32.8851 39.2937 32.9419 39.2996 33.0004V33.0557H39.2953Z" fill="#69A757"/>
<path d="M39.6022 35.4979L39.9432 36.6784V36.7211C39.9588 36.7723 39.9639 36.826 39.9584 36.8792C39.9528 36.9325 39.9366 36.9841 39.9108 37.031C39.885 37.0778 39.85 37.1191 39.808 37.1523C39.766 37.1854 39.7177 37.2098 39.6661 37.224C39.5639 37.2492 39.456 37.2358 39.3632 37.1862C39.2703 37.1366 39.1991 37.0544 39.1632 36.9554L38.7711 35.6768C38.7547 35.5755 38.7753 35.4718 38.8293 35.3845C38.8832 35.2973 38.9669 35.2323 39.0648 35.2017C39.1628 35.1711 39.2685 35.177 39.3625 35.2181C39.4565 35.2591 39.5325 35.3328 39.5766 35.4254L39.6022 35.4979Z" fill="#69A757"/>
<path d="M40.3992 37.8208L40.9703 38.9161V38.9503C41.0153 39.0362 41.0245 39.1364 40.9957 39.2291C40.967 39.3218 40.9026 39.3993 40.8168 39.4446C40.7321 39.4879 40.634 39.4971 40.5428 39.4701C40.4516 39.4431 40.3742 39.3821 40.3267 39.2997L39.7002 38.1703C39.6745 38.1262 39.6578 38.0774 39.6512 38.0268C39.6446 37.9762 39.6481 37.9248 39.6616 37.8756C39.6751 37.8264 39.6983 37.7804 39.7298 37.7402C39.7613 37.7001 39.8005 37.6666 39.8451 37.6418C39.9351 37.5908 40.0415 37.5774 40.1413 37.6046C40.2411 37.6317 40.3261 37.6972 40.3779 37.7868L40.3992 37.8208Z" fill="#69A757"/>
<path d="M41.6521 39.9473L42.432 40.9062L42.4534 40.9318C42.5099 40.9968 42.5383 41.0816 42.5323 41.1675C42.5263 41.2534 42.4864 41.3335 42.4214 41.39C42.3564 41.4465 42.2716 41.475 42.1857 41.469C42.0998 41.463 42.0198 41.423 41.9632 41.358L41.1108 40.3778C41.0506 40.3093 41.02 40.2197 41.0256 40.1287C41.0311 40.0376 41.0725 39.9526 41.1407 39.8919C41.2099 39.8315 41.3001 39.8007 41.3919 39.8063C41.4836 39.8119 41.5695 39.8534 41.6308 39.9218L41.6521 39.9473Z" fill="#69A757"/>
<path d="M43.3229 41.7886L44.2861 42.5771C44.3384 42.6218 44.3711 42.6849 44.3775 42.7534C44.3839 42.8218 44.3633 42.89 44.3202 42.9436C44.2783 42.9965 44.2171 43.0308 44.15 43.0388C44.0829 43.0468 44.0154 43.0279 43.9622 42.9862L42.9223 42.2105C42.8887 42.1878 42.8603 42.1583 42.8388 42.1239C42.8173 42.0894 42.8033 42.0509 42.7977 42.0107C42.7921 41.9706 42.795 41.9297 42.8061 41.8907C42.8173 41.8517 42.8366 41.8154 42.8626 41.7843C42.8854 41.7507 42.9149 41.7223 42.9493 41.7009C42.9837 41.6794 43.0223 41.6654 43.0625 41.6598C43.1026 41.6542 43.1435 41.657 43.1825 41.6682C43.2215 41.6794 43.2577 41.6987 43.2888 41.7247L43.3229 41.7886Z" fill="#69A757"/>
<path d="M45.3047 43.2846L46.4086 43.8769C46.43 43.8885 46.4489 43.9043 46.4642 43.9232C46.4795 43.9422 46.4908 43.9641 46.4976 43.9875C46.5043 44.011 46.5064 44.0354 46.5035 44.0596C46.5007 44.0838 46.493 44.1072 46.481 44.1284C46.46 44.1707 46.4231 44.2028 46.3784 44.218C46.3337 44.2332 46.2848 44.2301 46.2424 44.2094L45.0661 43.6766C45.0381 43.6643 45.0128 43.6467 44.9916 43.6246C44.9705 43.6025 44.9539 43.5764 44.9428 43.5479C44.9318 43.5194 44.9264 43.4891 44.9271 43.4585C44.9277 43.428 44.9344 43.3978 44.9467 43.3698C44.959 43.3418 44.9767 43.3165 44.9988 43.2954C45.0209 43.2742 45.0469 43.2577 45.0754 43.2466C45.1039 43.2355 45.1343 43.2301 45.1649 43.2308C45.1955 43.2314 45.2256 43.2381 45.2536 43.2504L45.3047 43.2846Z" fill="#69A757"/>
<path d="M47.5848 44.3373L48.7952 44.6911C48.8081 44.6949 48.8201 44.7013 48.8305 44.7099C48.8409 44.7184 48.8495 44.7289 48.8559 44.7408C48.8622 44.7527 48.8661 44.7657 48.8674 44.7791C48.8687 44.7925 48.8673 44.8061 48.8634 44.8189C48.8564 44.8437 48.84 44.8647 48.8177 44.8774C48.7954 44.8902 48.7689 44.8936 48.7441 44.8871L47.4911 44.6058C47.4539 44.5977 47.4215 44.5752 47.4007 44.5433C47.38 44.5114 47.3726 44.4726 47.3802 44.4353C47.3842 44.4165 47.392 44.3988 47.403 44.3832C47.4141 44.3675 47.4283 44.3543 47.4446 44.3444C47.461 44.3344 47.4792 44.3278 47.4982 44.3251C47.5172 44.3224 47.5365 44.3237 47.555 44.3287H47.5848V44.3373Z" fill="#69A757"/>
<path d="M50.0184 44.9297L51.2459 45.0405H50.0099C49.9952 45.0405 49.9811 45.0347 49.9707 45.0243C49.9603 45.0139 49.9545 44.9997 49.9545 44.985C49.9545 44.9703 49.9603 44.9563 49.9707 44.9459C49.9811 44.9355 49.9952 44.9297 50.0099 44.9297H50.0184Z" fill="#69A757"/>
</g>
</g>
<path opacity="0.26" d="M137.708 85.998C137.242 81.2192 135.727 76.6023 133.271 72.4767C130.814 68.3511 127.478 64.8185 123.499 62.131V50.7302C123.499 35.1101 111.34 22.3328 96.4611 22.3328H96.3076C81.4248 22.3328 69.2654 35.1186 69.2654 50.7302V63.7973C65.8964 66.5159 63.1029 69.8786 61.0481 73.6889C58.9933 77.4993 57.7183 81.6808 57.2978 85.9894C57.1955 87.0379 57.1444 88.1019 57.1444 89.1816V91.3766C57.1438 95.6634 57.9878 99.9084 59.628 103.869C61.2683 107.83 63.6727 111.428 66.7039 114.459C69.7351 117.491 73.3338 119.895 77.2944 121.535C81.2551 123.176 85.5 124.02 89.7868 124.019H105.219C110.431 124.028 115.568 122.783 120.196 120.388L120.435 120.264C125.696 117.494 130.101 113.339 133.173 108.247C136.245 103.156 137.868 97.3228 137.866 91.3766V89.1816C137.866 88.1119 137.811 87.0464 137.708 85.998ZM115.708 58.2696C112.329 57.1312 108.785 56.5553 105.219 56.5648H89.7783C85.4061 56.5534 81.0764 57.4231 77.0478 59.122V53.7093C77.0478 52.8058 77.079 51.9136 77.1415 51.0328C77.5209 45.586 79.0722 40.6165 81.8297 36.8489C85.0304 32.4762 89.8635 29.7272 96.3758 29.7272C108.092 29.7272 114.216 38.4515 115.461 49.3962C115.621 50.8284 115.7 52.2683 115.7 53.7093L115.708 58.2696Z" fill="url(#paint0_linear_528_8418)"/>
<path opacity="0.19" d="M117.055 121.176C114.768 123.44 112.16 125.355 109.315 126.857L109.072 126.985C104.444 129.376 99.3093 130.62 94.1 130.612H78.6632C74.3763 130.613 70.1314 129.769 66.1708 128.128C62.2102 126.488 58.6115 124.084 55.5802 121.053C52.549 118.021 50.1446 114.423 48.5044 110.462C46.8641 106.502 46.0202 102.257 46.0208 97.9698V95.7748C46.0208 94.698 46.0719 93.6339 46.1742 92.5826C46.5947 88.274 47.8696 84.0924 49.9244 80.2821C51.9792 76.4718 54.7727 73.1092 58.1418 70.3906V57.3234C58.1141 52.6181 59.2398 47.9777 61.4205 43.8081C63.6011 39.6385 66.7703 36.0667 70.6506 33.4053C65.3503 38.8487 62.3969 46.1542 62.4251 53.7519V66.819C59.0567 69.5382 56.2637 72.9011 54.2089 76.7113C52.1542 80.5215 50.8789 84.7028 50.4574 89.0111C50.3552 90.0596 50.304 91.1236 50.304 92.2033V94.3982C50.304 103.056 53.7431 111.358 59.8648 117.48C65.9864 123.602 74.2891 127.041 82.9464 127.041H98.3832C103.594 127.048 108.73 125.804 113.36 123.414L113.598 123.286C114.794 122.657 115.949 121.952 117.055 121.176Z" fill="url(#paint1_linear_528_8418)"/>
<path d="M116.629 53.752V67.3903H108.834V56.7098C108.836 55.2673 108.757 53.8259 108.595 52.3925C107.35 41.452 101.226 32.7234 89.5098 32.7234C83.6155 32.7234 79.0936 34.978 75.9142 38.6518C75.586 39.0354 75.2663 39.436 74.9637 39.8494C72.2063 43.6128 70.6549 48.5822 70.2756 54.029C70.2159 54.9112 70.1818 55.8063 70.1818 56.7098V67.3903H62.3909V53.752C62.3628 46.1544 65.3162 38.8489 70.6166 33.4054C73.0553 30.8735 75.9771 28.8564 79.2092 27.4735C82.4412 26.0907 85.9177 25.3701 89.4331 25.3545H89.5866C104.486 25.3545 116.629 38.1362 116.629 53.752Z" fill="url(#paint2_linear_528_8418)"/>
<path opacity="0.82" d="M116.629 56.0277V64.5943C114.198 63.0733 111.577 61.8796 108.833 61.044V56.7097C108.836 55.2672 108.757 53.8257 108.595 52.3923C111.425 53.2341 114.128 54.4571 116.629 56.0277Z" fill="url(#paint3_linear_528_8418)"/>
<path opacity="0.82" d="M108.851 56.7268C108.854 55.2844 108.774 53.8428 108.612 52.4094L108.799 52.4649C108.834 53.1255 108.851 53.7861 108.851 54.4552V56.7268Z" fill="url(#paint4_linear_528_8418)"/>
<path d="M116.629 62.3398V64.5944C114.198 63.0734 111.577 61.8797 108.833 61.0441V58.7769C111.577 59.6163 114.198 60.8142 116.629 62.3398Z" fill="url(#paint5_linear_528_8418)"/>
<path d="M131.008 92.2033V94.3982C131.013 99.6576 129.745 104.84 127.312 109.503C124.879 114.166 121.354 118.171 117.038 121.176C115.932 121.952 114.777 122.657 113.581 123.286L113.343 123.414C108.713 125.804 103.577 127.048 98.3661 127.041H82.9293C74.272 127.041 65.9692 123.602 59.8476 117.48C53.726 111.358 50.2869 103.056 50.2869 94.3982V92.2033C50.2869 91.1236 50.338 90.0596 50.4403 89.0111C50.8617 84.7028 52.137 80.5215 54.1918 76.7113C56.2465 72.9011 59.0396 69.5382 62.4079 66.8191C62.6508 66.6187 62.898 66.427 63.1495 66.2352C64.0388 65.5547 64.9636 64.9215 65.9198 64.3386C66.1371 64.2022 66.3459 64.0701 66.5846 63.9422C67.7502 63.2646 68.9573 62.6611 70.1988 62.1352C74.2276 60.4367 78.5571 59.567 82.9293 59.578H98.3661C101.93 59.5708 105.472 60.1466 108.851 61.2828C110.047 61.6889 111.218 62.1657 112.358 62.7106C117.45 65.1253 121.83 68.8172 125.071 73.4269C128.312 78.0366 130.305 83.407 130.855 89.0154C130.957 90.0667 131.008 91.1293 131.008 92.2033Z" fill="url(#paint6_linear_528_8418)"/>
<path opacity="0.42" d="M131.009 92.2035V94.3984C131.011 100.344 129.389 106.178 126.318 111.269C123.246 116.36 118.842 120.515 113.581 123.286C114.839 122.147 115.972 120.879 116.961 119.501C125.732 107.069 121.398 81.5699 107.295 70.574C93.1922 59.5782 77.1075 63.1752 66.589 63.9381C71.5539 61.0622 77.1917 59.552 82.9294 59.5611H98.3662C106.471 59.5613 114.286 62.5764 120.291 68.0197C126.296 73.463 130.062 80.9453 130.855 89.0113C130.957 90.0654 131.009 91.1295 131.009 92.2035Z" fill="url(#paint7_linear_528_8418)"/>
<path d="M86.3687 127.041H82.9335C78.6467 127.041 74.4018 126.197 70.4412 124.557C66.4805 122.917 62.8819 120.513 59.8506 117.481C56.8194 114.45 54.415 110.851 52.7748 106.891C51.1345 102.93 50.2906 98.6852 50.2911 94.3983V92.2035C50.2911 91.1238 50.3423 90.0597 50.4446 89.0113C50.8819 84.5447 52.2363 80.2165 54.4232 76.2975C56.61 72.3784 59.5822 68.953 63.1538 66.2354C57.7666 78.8039 56.5946 99.1334 63.4862 111.877C70.2116 124.326 81.3779 126.227 86.3687 127.041Z" fill="url(#paint8_linear_528_8418)"/>
<path opacity="0.5" d="M94.4067 127.041H82.9293C78.6425 127.041 74.3975 126.197 70.4369 124.557C66.4763 122.917 62.8776 120.513 59.8463 117.481C56.8151 114.45 54.4107 110.851 52.7705 106.891C51.1302 102.93 50.2863 98.6852 50.2869 94.3983V92.2035C50.2869 91.1238 50.338 90.0597 50.4403 89.0113C51.2292 80.9435 54.9933 73.4583 60.9993 68.0141C67.0053 62.5699 74.823 59.5564 82.9293 59.561H91.9731C88.1118 61.7261 84.4806 64.5434 84.016 68.8011C83.2531 75.7779 91.9859 77.7894 93.8782 87.3448C96.4013 100.05 82.9676 106.643 85.1966 116.94C86.2152 121.641 89.9871 124.735 94.4067 127.041Z" fill="url(#paint9_linear_528_8418)"/>
<path d="M98.0806 105.812C98.1535 106.11 98.1579 106.42 98.0932 106.72C98.0286 107.02 97.8967 107.301 97.7074 107.543C97.5182 107.784 97.2766 107.979 97.0009 108.114C96.7252 108.248 96.4225 108.318 96.1158 108.318H84.9836C84.6765 108.318 84.3734 108.249 84.0971 108.115C83.8208 107.981 83.5787 107.786 83.389 107.544C83.1993 107.303 83.067 107.021 83.0021 106.721C82.9372 106.421 82.9415 106.11 83.0145 105.812L85.7848 94.5476C85.8726 94.1893 85.8611 93.8139 85.7514 93.4617C85.6418 93.1095 85.4382 92.7938 85.1626 92.5487C83.9563 91.4857 83.0914 90.0895 82.6768 88.5361C82.2622 86.9826 82.3165 85.3413 82.8327 83.8186C83.3489 82.2958 84.3041 80.9599 85.5779 79.9788C86.8517 78.9978 88.3873 78.4154 89.9914 78.3052C90.1576 78.3052 90.3238 78.2839 90.49 78.2839C92.1523 78.2711 93.7787 78.7668 95.151 79.7048C96.5234 80.6427 97.5762 81.9778 98.168 83.5312C98.7599 85.0845 98.8625 86.7817 98.4621 88.3951C98.0618 90.0084 97.1777 91.4608 95.9283 92.5573C95.6537 92.8011 95.4513 93.1156 95.3431 93.4666C95.2349 93.8175 95.225 94.1914 95.3146 94.5476L98.0806 105.812Z" fill="white"/>
<path d="M85.7848 94.5476L83.0146 105.812C82.9415 106.11 82.9373 106.421 83.0021 106.721C83.067 107.021 83.1993 107.303 83.389 107.544C83.5788 107.786 83.8209 107.981 84.0971 108.115C84.3734 108.249 84.6765 108.318 84.9836 108.318H83.8627C83.556 108.318 83.2533 108.248 82.9776 108.114C82.7019 107.979 82.4603 107.784 82.2711 107.543C82.0818 107.301 81.9499 107.02 81.8853 106.72C81.8206 106.42 81.825 106.11 81.8979 105.812L84.6682 94.5476C84.7565 94.1889 84.7447 93.8129 84.6343 93.4605C84.5238 93.1081 84.3189 92.7928 84.0417 92.5487C82.8047 91.4565 81.9281 90.0147 81.528 88.4137C81.1278 86.8127 81.2229 85.128 81.8007 83.5823C82.3784 82.0365 83.4117 80.7024 84.7638 79.7564C86.1159 78.8103 87.7233 78.297 89.3734 78.2839C89.5823 78.2839 89.7996 78.2839 89.9914 78.3052C88.3873 78.4154 86.8518 78.9978 85.5779 79.9788C84.3041 80.9599 83.349 82.2958 82.8327 83.8186C82.3165 85.3413 82.2622 86.9826 82.6768 88.5361C83.0914 90.0895 83.9563 91.4857 85.1626 92.5487C85.4383 92.7938 85.6418 93.1095 85.7514 93.4617C85.8611 93.8139 85.8726 94.1893 85.7848 94.5476Z" fill="url(#paint10_linear_528_8418)"/>
<path opacity="0.82" d="M62.408 58.568C64.7767 56.4931 67.4322 54.7706 70.2926 53.4536C70.2329 54.3373 70.2031 55.2293 70.2031 56.13V62.0968C67.5317 63.3315 65.0412 64.9246 62.8001 66.8319H62.408V58.568Z" fill="url(#paint11_linear_528_8418)"/>
<path d="M70.2031 58.9685V61.8794C67.5757 63.2018 65.1065 64.8174 62.8427 66.6954H62.4165V64.0062C64.8034 62.0246 67.4172 60.3335 70.2031 58.9685Z" fill="url(#paint12_linear_528_8418)"/>
<path opacity="0.18" d="M146.552 115.521C146.054 120.593 145.034 125.6 143.509 130.463C142.782 132.772 141.914 135.033 140.909 137.235C137.636 144.353 132.53 151.261 124.586 155.136C124.42 155.221 124.253 155.298 124.083 155.378L124.036 155.404L123.985 155.378C122.893 154.876 121.832 154.306 120.81 153.674C120.089 153.226 119.395 152.749 118.73 152.25C117.416 151.268 116.181 150.185 115.035 149.011C114.447 148.412 113.878 147.791 113.33 147.149C111.94 145.501 110.689 143.742 109.588 141.889C107.726 138.74 106.198 135.404 105.028 131.938C103.606 127.749 102.572 123.439 101.938 119.062C101.733 117.69 101.597 116.505 101.512 115.533C101.442 114.798 101.627 114.062 102.036 113.447C102.445 112.833 103.053 112.378 103.758 112.158L107.921 110.858L121.85 106.498L123.981 105.837H124.006L144.302 112.162C145.004 112.38 145.611 112.833 146.02 113.444C146.43 114.055 146.617 114.788 146.552 115.521Z" fill="url(#paint13_linear_528_8418)"/>
<path d="M153.972 119.062C153.47 124.134 152.45 129.141 150.929 134.005C150.198 136.312 149.328 138.574 148.325 140.777C145.052 147.894 139.95 154.799 132.002 158.677C131.84 158.762 131.674 158.843 131.503 158.924C131.487 158.933 131.47 158.94 131.452 158.946C131.436 158.937 131.418 158.93 131.401 158.924C130.309 158.42 129.249 157.851 128.226 157.22C127.51 156.768 126.816 156.293 126.146 155.796C124.835 154.811 123.602 153.728 122.455 152.557C121.867 151.952 121.3 151.334 120.75 150.695C119.363 149.045 118.111 147.287 117.008 145.435C115.148 142.285 113.62 138.95 112.448 135.484C111.027 131.295 109.993 126.985 109.358 122.608C109.158 121.236 109.021 120.051 108.932 119.079C108.859 118.344 109.042 117.607 109.45 116.992C109.859 116.376 110.468 115.921 111.173 115.704L115.342 114.4L129.27 110.044L131.401 109.383H131.426L151.722 115.712C152.423 115.93 153.029 116.38 153.438 116.99C153.848 117.599 154.036 118.331 153.972 119.062Z" fill="url(#paint14_linear_528_8418)"/>
<g opacity="0.43">
<path opacity="0.2" d="M148.423 124.935C150.245 124.935 151.722 123.459 151.722 121.637C151.722 119.815 150.245 118.338 148.423 118.338C146.601 118.338 145.124 119.815 145.124 121.637C145.124 123.459 146.601 124.935 148.423 124.935Z" fill="white"/>
<path opacity="0.2" d="M119.548 140.777C119.547 141.7 119.315 142.608 118.873 143.418C118.432 144.229 117.795 144.916 117.021 145.418C115.161 142.268 113.632 138.933 112.46 135.467C113.285 135.227 114.155 135.182 115 135.336C115.845 135.49 116.642 135.838 117.33 136.353C118.017 136.868 118.575 137.536 118.96 138.304C119.345 139.071 119.547 139.918 119.548 140.777Z" fill="white"/>
<path opacity="0.2" d="M117.426 118.478C117.425 119.414 117.165 120.33 116.677 121.128C116.188 121.925 115.489 122.572 114.656 122.998C113.823 123.423 112.888 123.61 111.956 123.538C111.023 123.466 110.129 123.139 109.371 122.591C109.17 121.219 109.034 120.034 108.944 119.062C108.871 118.327 109.054 117.59 109.463 116.975C109.872 116.359 110.48 115.904 111.186 115.687L115.354 114.383C115.997 114.855 116.519 115.472 116.879 116.183C117.239 116.895 117.426 117.681 117.426 118.478Z" fill="white"/>
<path opacity="0.2" d="M136.771 150.337C138.753 150.337 140.359 148.73 140.359 146.748C140.359 144.766 138.753 143.159 136.771 143.159C134.789 143.159 133.182 144.766 133.182 146.748C133.182 148.73 134.789 150.337 136.771 150.337Z" fill="white"/>
<path opacity="0.2" d="M117.43 131.814C118.602 131.814 119.552 130.864 119.552 129.692C119.552 128.519 118.602 127.569 117.43 127.569C116.258 127.569 115.307 128.519 115.307 129.692C115.307 130.864 116.258 131.814 117.43 131.814Z" fill="white"/>
<path opacity="0.2" d="M139.631 122.723C140.803 122.723 141.753 121.773 141.753 120.601C141.753 119.429 140.803 118.478 139.631 118.478C138.458 118.478 137.508 119.429 137.508 120.601C137.508 121.773 138.458 122.723 139.631 122.723Z" fill="white"/>
<path opacity="0.2" d="M150.929 134.005C150.199 136.311 149.329 138.571 148.325 140.773C147.855 140.621 147.422 140.375 147.051 140.05C146.679 139.725 146.378 139.327 146.166 138.882C145.953 138.437 145.834 137.952 145.815 137.459C145.795 136.966 145.877 136.475 146.054 136.014C146.231 135.553 146.5 135.134 146.845 134.781C147.19 134.428 147.603 134.149 148.059 133.961C148.516 133.773 149.005 133.68 149.499 133.687C149.992 133.695 150.479 133.803 150.929 134.005Z" fill="white"/>
<path opacity="0.2" d="M128.085 110.833C127.081 110.833 126.099 111.13 125.265 111.688C124.43 112.246 123.779 113.039 123.395 113.966C123.011 114.894 122.91 115.914 123.106 116.899C123.302 117.883 123.786 118.788 124.496 119.498C125.205 120.208 126.11 120.691 127.095 120.887C128.079 121.083 129.1 120.982 130.027 120.598C130.955 120.214 131.748 119.563 132.305 118.729C132.863 117.894 133.161 116.912 133.161 115.908C133.161 114.562 132.626 113.271 131.674 112.319C130.722 111.367 129.431 110.833 128.085 110.833ZM128.085 118.734C127.526 118.734 126.98 118.568 126.515 118.258C126.05 117.947 125.688 117.506 125.474 116.99C125.26 116.474 125.204 115.905 125.313 115.357C125.422 114.809 125.692 114.306 126.087 113.91C126.482 113.515 126.985 113.246 127.534 113.137C128.082 113.028 128.65 113.084 129.166 113.298C129.682 113.512 130.124 113.874 130.434 114.339C130.745 114.803 130.91 115.35 130.91 115.908C130.908 116.656 130.609 117.372 130.08 117.9C129.55 118.427 128.832 118.723 128.085 118.721V118.734Z" fill="white"/>
<path opacity="0.2" d="M125.221 148.031C124.309 148.031 123.413 148.276 122.628 148.742C121.844 149.208 121.199 149.876 120.763 150.677C121.3 151.317 121.867 151.935 122.468 152.54C122.568 152.057 122.793 151.609 123.121 151.24C123.449 150.872 123.867 150.595 124.335 150.439C124.803 150.283 125.304 150.252 125.787 150.349C126.271 150.446 126.72 150.669 127.091 150.994C127.462 151.32 127.741 151.736 127.9 152.203C128.059 152.67 128.094 153.17 127.999 153.654C127.905 154.139 127.685 154.59 127.362 154.962C127.039 155.335 126.624 155.617 126.158 155.779C126.829 156.279 127.522 156.754 128.238 157.203C129.098 156.57 129.737 155.682 130.064 154.665C130.39 153.649 130.388 152.555 130.058 151.539C129.728 150.524 129.086 149.639 128.224 149.009C127.361 148.379 126.323 148.037 125.255 148.031H125.221Z" fill="white"/>
</g>
<path d="M143.415 132.956C143.415 133.212 143.415 133.459 143.385 133.71C143.21 136.56 142.019 139.251 140.029 141.298C138.039 143.344 135.382 144.61 132.539 144.864C132.179 144.9 131.818 144.917 131.456 144.915C131.345 144.915 131.234 144.915 131.128 144.915C129.268 144.869 127.446 144.389 125.805 143.513C124.068 142.572 122.588 141.222 121.492 139.579C120.566 138.193 119.946 136.625 119.672 134.981C119.555 134.338 119.497 133.686 119.497 133.033V132.965C119.498 131.132 119.92 129.325 120.731 127.681C121.541 126.038 122.718 124.602 124.171 123.486C125.624 122.369 127.313 121.6 129.11 121.24C130.907 120.879 132.762 120.936 134.533 121.406C137.078 122.087 139.327 123.589 140.932 125.679C142.536 127.769 143.406 130.33 143.407 132.965L143.415 132.956Z" fill="white"/>
<path d="M137.427 129.845L130.267 136.826C130.173 136.917 130.061 136.987 129.938 137.03C129.815 137.074 129.683 137.09 129.553 137.078C129.423 137.066 129.298 137.025 129.185 136.96C129.072 136.894 128.974 136.805 128.899 136.698L125.741 132.194" stroke="url(#paint15_linear_528_8418)" stroke-width="2" stroke-linecap="square" stroke-linejoin="round"/>
<path opacity="0.21" d="M137.436 125.54L123.503 138.258C122.768 137.15 122.275 135.9 122.054 134.589L133.911 123.755C135.198 124.097 136.398 124.705 137.436 125.54Z" fill="url(#paint16_linear_528_8418)"/>
<path opacity="0.21" d="M140.999 132.956C140.999 133.161 140.99 133.361 140.973 133.557L131.192 142.507C129.703 142.472 128.244 142.088 126.93 141.386L140.223 129.244C140.731 130.416 140.995 131.679 140.999 132.956Z" fill="url(#paint17_linear_528_8418)"/>
<path opacity="0.12" d="M54.1014 23.0999H12.3384C5.52409 23.0999 0 28.6239 0 35.4382V35.4425C0 42.2568 5.52409 47.7809 12.3384 47.7809H54.1014C60.9157 47.7809 66.4398 42.2568 66.4398 35.4425V35.4382C66.4398 28.6239 60.9157 23.0999 54.1014 23.0999Z" fill="url(#paint18_linear_528_8418)"/>
<path d="M61.1933 32.1777H23.0402C16.812 32.1777 11.7631 37.2257 11.7631 43.4528C11.7631 49.6798 16.812 54.7278 23.0402 54.7278H61.1933C67.4215 54.7278 72.4705 49.6798 72.4705 43.4528C72.4705 37.2257 67.4215 32.1777 61.1933 32.1777Z" fill="url(#paint19_linear_528_8418)"/>
<path d="M26.3986 38.3875V48.5224" stroke="white" stroke-width="1.99886" stroke-linecap="round" stroke-linejoin="round"/>
<path d="M31.4661 43.4551H21.3312" stroke="white" stroke-width="1.99886" stroke-linecap="round" stroke-linejoin="round"/>
<path d="M29.983 47.0392L22.8186 39.8706" stroke="white" stroke-width="1.99886" stroke-linecap="round" stroke-linejoin="round"/>
<path d="M22.8186 47.0392L29.983 39.8706" stroke="white" stroke-width="1.99886" stroke-linecap="round" stroke-linejoin="round"/>
<path d="M43.2888 38.3875V48.5224" stroke="white" stroke-width="1.99886" stroke-linecap="round" stroke-linejoin="round"/>
<path d="M48.3563 43.4551H38.2213" stroke="white" stroke-width="1.99886" stroke-linecap="round" stroke-linejoin="round"/>
<path d="M46.8688 47.0392L39.7045 39.8706" stroke="white" stroke-width="1.99886" stroke-linecap="round" stroke-linejoin="round"/>
<path d="M39.7045 47.0392L46.8688 39.8706" stroke="white" stroke-width="1.99886" stroke-linecap="round" stroke-linejoin="round"/>
<path d="M60.1747 38.3875V48.5224" stroke="white" stroke-width="1.99886" stroke-linecap="round" stroke-linejoin="round"/>
<path d="M65.2421 43.4551H55.1072" stroke="white" stroke-width="1.99886" stroke-linecap="round" stroke-linejoin="round"/>
<path d="M63.759 47.0392L56.5903 39.8706" stroke="white" stroke-width="1.99886" stroke-linecap="round" stroke-linejoin="round"/>
<path d="M56.5903 47.0392L63.759 39.8706" stroke="white" stroke-width="1.99886" stroke-linecap="round" stroke-linejoin="round"/>
<path d="M134.661 67.4074L135.94 67.3391C135.958 67.3391 135.975 67.3463 135.988 67.3591C136.001 67.3719 136.008 67.3893 136.008 67.4074C136.008 67.4255 136.001 67.4428 135.988 67.4555C135.975 67.4683 135.958 67.4755 135.94 67.4755L134.661 67.4074Z" fill="#69A757"/>
<path d="M138.233 67.2454L139.511 67.1943C139.568 67.1943 139.622 67.2167 139.662 67.2567C139.702 67.2966 139.724 67.3509 139.724 67.4074C139.724 67.464 139.702 67.5181 139.662 67.5581C139.622 67.5981 139.568 67.6205 139.511 67.6205L138.233 67.5693C138.19 67.5693 138.148 67.5523 138.118 67.5219C138.088 67.4915 138.071 67.4504 138.071 67.4074C138.071 67.3645 138.088 67.3232 138.118 67.2929C138.148 67.2625 138.19 67.2454 138.233 67.2454Z" fill="#69A757"/>
<path d="M141.847 67.3134L143.125 67.5905C143.171 67.5959 143.214 67.6107 143.253 67.634C143.293 67.6572 143.327 67.6885 143.353 67.7255C143.38 67.7626 143.398 67.8048 143.407 67.8495C143.417 67.8941 143.416 67.9402 143.407 67.9847C143.397 68.0293 143.379 68.0714 143.352 68.1084C143.325 68.1453 143.291 68.1763 143.252 68.1994C143.213 68.2225 143.169 68.237 143.124 68.2423C143.078 68.2475 143.032 68.2433 142.989 68.2298H142.951L141.757 67.8973H141.723C141.686 67.887 141.652 67.8695 141.622 67.8459C141.592 67.8223 141.567 67.7931 141.549 67.7599C141.53 67.7266 141.518 67.69 141.514 67.6522C141.509 67.6143 141.512 67.576 141.523 67.5393C141.538 67.4677 141.58 67.4046 141.64 67.3627C141.7 67.3208 141.774 67.3031 141.847 67.3134Z" fill="#69A757"/>
<path d="M145.324 68.4686L146.454 69.1504C146.542 69.2097 146.605 69.2999 146.63 69.4032C146.656 69.5065 146.641 69.6155 146.59 69.7088C146.563 69.7544 146.527 69.7941 146.485 69.8257C146.442 69.8573 146.393 69.8801 146.342 69.8928C146.29 69.9055 146.237 69.9079 146.184 69.8997C146.132 69.8915 146.081 69.873 146.036 69.8452L145.994 69.8196L144.966 69.1419L144.932 69.1207C144.847 69.067 144.787 68.9815 144.764 68.8832C144.742 68.7849 144.759 68.6817 144.813 68.5963C144.867 68.511 144.952 68.4506 145.05 68.4282C145.149 68.4058 145.252 68.4234 145.337 68.4771L145.324 68.4686Z" fill="#69A757"/>
<path d="M148.265 70.6933L149.118 71.7033C149.196 71.7961 149.235 71.9164 149.226 72.0379C149.216 72.1593 149.159 72.2719 149.066 72.3512C148.973 72.4303 148.852 72.4694 148.73 72.4598C148.608 72.4502 148.494 72.3928 148.414 72.3001L148.38 72.2574L147.613 71.307L147.583 71.2643C147.544 71.2202 147.515 71.1687 147.497 71.1127C147.479 71.0568 147.473 70.9977 147.479 70.9393C147.485 70.8808 147.503 70.8243 147.532 70.7732C147.561 70.7221 147.6 70.6774 147.647 70.6421C147.69 70.6033 147.741 70.5738 147.796 70.5552C147.851 70.5367 147.909 70.5296 147.967 70.5344C148.025 70.5392 148.081 70.5558 148.133 70.5831C148.184 70.6104 148.229 70.6479 148.265 70.6933Z" fill="#69A757"/>
<path d="M150.358 73.7448L150.848 74.985C150.884 75.1037 150.874 75.2315 150.82 75.3432C150.766 75.4548 150.672 75.5421 150.556 75.5877C150.441 75.6333 150.313 75.6339 150.197 75.5893C150.081 75.5448 149.987 75.4584 149.932 75.3473V75.2962L149.505 74.1582V74.1071C149.482 74.0475 149.47 73.9838 149.472 73.9197C149.473 73.8557 149.486 73.7925 149.512 73.7337C149.537 73.6749 149.574 73.6218 149.62 73.5773C149.666 73.5328 149.721 73.4977 149.78 73.4742C149.84 73.4507 149.904 73.4392 149.968 73.4403C150.032 73.4413 150.095 73.455 150.154 73.4805C150.213 73.5061 150.266 73.543 150.31 73.5891C150.355 73.6351 150.39 73.6895 150.413 73.7491L150.358 73.7448Z" fill="#69A757"/>
<path d="M151.359 77.3208C151.385 77.747 151.415 78.2115 151.436 78.6504C151.439 78.717 151.429 78.7837 151.407 78.8464C151.384 78.9091 151.349 78.9667 151.304 79.016C151.259 79.0652 151.205 79.1051 151.145 79.1334C151.084 79.1618 151.019 79.178 150.952 79.1811C150.886 79.1842 150.819 79.1741 150.757 79.1514C150.694 79.1288 150.636 79.094 150.587 79.0491C150.538 79.0041 150.498 78.95 150.469 78.8897C150.441 78.8293 150.425 78.764 150.422 78.6974V78.659L150.366 77.44V77.3804C150.369 77.2534 150.419 77.1321 150.507 77.0407C150.595 76.9492 150.715 76.8945 150.842 76.8875C150.968 76.8805 151.093 76.9217 151.191 77.0029C151.288 77.084 151.352 77.1991 151.368 77.325L151.359 77.3208Z" fill="#69A757"/>
<path d="M151.432 80.9476V82.2262C151.42 82.3499 151.363 82.4649 151.271 82.5486C151.179 82.6323 151.06 82.6787 150.935 82.6787C150.811 82.6787 150.691 82.6323 150.599 82.5486C150.508 82.4649 150.45 82.3499 150.439 82.2262V80.9476C150.439 80.8142 150.492 80.6862 150.586 80.5919C150.68 80.4976 150.808 80.4446 150.942 80.4446C151.075 80.4446 151.203 80.4976 151.297 80.5919C151.392 80.6862 151.445 80.8142 151.445 80.9476H151.432Z" fill="#69A757"/>
<path d="M151.415 84.5148V85.7934C151.414 85.8549 151.401 85.9157 151.376 85.9721C151.351 86.0286 151.316 86.0796 151.272 86.1224C151.227 86.1651 151.175 86.1987 151.118 86.2212C151.06 86.2437 150.999 86.2548 150.938 86.2537C150.816 86.2526 150.699 86.2037 150.613 86.1176C150.527 86.0315 150.478 85.9151 150.477 85.7934V84.5148C150.476 84.4512 150.488 84.388 150.511 84.3288C150.534 84.2697 150.569 84.2158 150.614 84.1702C150.658 84.1247 150.711 84.0883 150.77 84.0633C150.828 84.0383 150.891 84.0252 150.955 84.0247C151.084 84.0235 151.208 84.0735 151.301 84.1637C151.394 84.2539 151.447 84.377 151.449 84.5062L151.415 84.5148Z" fill="#69A757"/>
<path d="M151.368 88.0864V89.365C151.368 89.4781 151.323 89.5864 151.243 89.6664C151.163 89.7463 151.055 89.7912 150.942 89.7912C150.829 89.7912 150.72 89.7463 150.64 89.6664C150.561 89.5864 150.516 89.4781 150.516 89.365V88.0864C150.516 87.9695 150.562 87.8572 150.645 87.7745C150.728 87.6918 150.84 87.6453 150.957 87.6453C151.074 87.6453 151.186 87.6918 151.269 87.7745C151.351 87.8572 151.398 87.9695 151.398 88.0864H151.368Z" fill="#69A757"/>
<path d="M151.3 91.6579L151.274 92.9365C151.265 93.022 151.224 93.1009 151.16 93.1583C151.096 93.2157 151.013 93.2474 150.927 93.2474C150.841 93.2474 150.758 93.2157 150.694 93.1583C150.63 93.1009 150.589 93.022 150.579 92.9365L150.554 91.6579C150.548 91.6056 150.554 91.5526 150.57 91.5025C150.586 91.4525 150.613 91.4064 150.648 91.3673C150.683 91.3281 150.726 91.2968 150.774 91.2754C150.822 91.254 150.874 91.2429 150.927 91.2429C150.979 91.2429 151.031 91.254 151.08 91.2754C151.128 91.2968 151.171 91.3281 151.206 91.3673C151.241 91.4064 151.268 91.4525 151.284 91.5025C151.3 91.5526 151.305 91.6056 151.3 91.6579Z" fill="#69A757"/>
<path d="M151.21 95.2294L151.168 96.508C151.168 96.5713 151.142 96.632 151.098 96.6767C151.053 96.7215 150.992 96.7467 150.929 96.7467C150.866 96.7467 150.805 96.7215 150.76 96.6767C150.715 96.632 150.69 96.5713 150.69 96.508L150.648 95.2294C150.646 95.1923 150.652 95.1553 150.665 95.1204C150.677 95.0856 150.697 95.0538 150.723 95.0268C150.748 94.9998 150.779 94.9781 150.813 94.9631C150.847 94.9481 150.883 94.9401 150.92 94.9396C150.994 94.9373 151.066 94.9642 151.12 95.0144C151.175 95.0647 151.207 95.1343 151.21 95.2081V95.2294Z" fill="#69A757"/>
<path d="M151.074 98.7966L151.023 100.075C151.022 100.088 151.019 100.1 151.014 100.111C151.009 100.122 151.001 100.132 150.992 100.14C150.983 100.149 150.973 100.155 150.961 100.159C150.949 100.163 150.937 100.165 150.925 100.165C150.901 100.164 150.878 100.154 150.861 100.138C150.844 100.121 150.833 100.099 150.831 100.075L150.78 98.7966C150.779 98.7577 150.793 98.72 150.819 98.6913C150.845 98.6626 150.882 98.6453 150.92 98.6431C150.94 98.6426 150.96 98.6459 150.978 98.6529C150.996 98.6599 151.013 98.6704 151.027 98.6838C151.041 98.6973 151.053 98.7134 151.061 98.7313C151.069 98.7491 151.073 98.7685 151.074 98.7881V98.7966Z" fill="#69A757"/>
<path d="M107.632 150.473L106.353 150.533C106.337 150.533 106.321 150.527 106.309 150.516C106.298 150.504 106.29 150.489 106.289 150.473C106.289 150.465 106.29 150.457 106.292 150.45C106.295 150.442 106.298 150.436 106.304 150.43C106.309 150.424 106.315 150.419 106.322 150.415C106.329 150.412 106.337 150.41 106.345 150.409L107.632 150.473Z" fill="#69A757"/>
<path d="M104.06 150.622L102.782 150.665C102.754 150.669 102.725 150.667 102.698 150.659C102.671 150.651 102.646 150.638 102.625 150.619C102.603 150.601 102.586 150.578 102.575 150.553C102.563 150.527 102.557 150.499 102.557 150.471C102.557 150.443 102.563 150.415 102.575 150.389C102.586 150.364 102.603 150.341 102.625 150.323C102.646 150.304 102.671 150.29 102.698 150.283C102.725 150.275 102.754 150.273 102.782 150.277L104.06 150.324C104.08 150.324 104.1 150.328 104.118 150.336C104.136 150.344 104.152 150.355 104.166 150.369C104.179 150.384 104.19 150.401 104.197 150.419C104.203 150.438 104.206 150.458 104.205 150.477C104.202 150.515 104.186 150.55 104.159 150.576C104.133 150.603 104.098 150.619 104.06 150.622Z" fill="#69A757"/>
<path d="M100.493 150.741L99.2143 150.775C99.1397 150.767 99.071 150.731 99.0211 150.675C98.9712 150.618 98.9436 150.546 98.9436 150.471C98.9436 150.396 98.9712 150.323 99.0211 150.267C99.071 150.211 99.1397 150.175 99.2143 150.166L100.493 150.2C100.565 150.202 100.632 150.233 100.682 150.284C100.731 150.336 100.758 150.406 100.757 150.477C100.755 150.547 100.727 150.613 100.677 150.662C100.628 150.711 100.562 150.739 100.493 150.741Z" fill="#69A757"/>
<path d="M96.9213 150.831L95.6428 150.857C95.5474 150.847 95.4592 150.802 95.3951 150.73C95.331 150.659 95.2955 150.567 95.2955 150.471C95.2955 150.375 95.331 150.283 95.3951 150.211C95.4592 150.14 95.5474 150.095 95.6428 150.085L96.9213 150.111C97.0101 150.12 97.0921 150.163 97.1518 150.229C97.2114 150.295 97.2444 150.382 97.2444 150.471C97.2444 150.56 97.2114 150.646 97.1518 150.713C97.0921 150.779 97.0101 150.821 96.9213 150.831Z" fill="#69A757"/>
<path d="M93.3498 150.899H92.0712C92.0135 150.902 91.9558 150.893 91.9016 150.873C91.8474 150.853 91.7979 150.822 91.756 150.782C91.7141 150.742 91.6808 150.694 91.6581 150.641C91.6354 150.588 91.6236 150.531 91.6237 150.473C91.6208 150.415 91.6297 150.358 91.6498 150.303C91.6699 150.249 91.7009 150.2 91.7408 150.158C91.7806 150.116 91.8286 150.082 91.8818 150.06C91.9349 150.037 91.9921 150.025 92.0499 150.025H93.3285C93.4415 150.025 93.5499 150.07 93.6299 150.15C93.7098 150.23 93.7547 150.339 93.7547 150.452C93.7547 150.565 93.7098 150.673 93.6299 150.753C93.5499 150.833 93.4415 150.878 93.3285 150.878L93.3498 150.899Z" fill="#69A757"/>
<path d="M89.7782 150.942H88.4997C88.4361 150.943 88.3729 150.931 88.3137 150.908C88.2546 150.885 88.2007 150.85 88.1551 150.805C88.1095 150.761 88.0732 150.708 88.0482 150.649C88.0232 150.591 88.0101 150.528 88.0095 150.464C88.0095 150.336 88.06 150.213 88.15 150.121C88.2401 150.029 88.3626 149.977 88.4911 149.974H89.7697C89.8314 149.974 89.8926 149.987 89.9495 150.01C90.0064 150.034 90.058 150.069 90.1013 150.113C90.1445 150.157 90.1785 150.21 90.2014 150.267C90.2242 150.324 90.2354 150.386 90.2343 150.447C90.2371 150.51 90.2276 150.572 90.2062 150.631C90.1847 150.69 90.1519 150.744 90.1094 150.79C90.067 150.836 90.0159 150.873 89.959 150.899C89.9022 150.925 89.8408 150.94 89.7782 150.942Z" fill="#69A757"/>
<path d="M86.2111 150.967H84.9325C84.8077 150.956 84.6916 150.898 84.6071 150.805C84.5227 150.713 84.4758 150.592 84.4758 150.467C84.4758 150.341 84.5227 150.22 84.6071 150.128C84.6916 150.035 84.8077 149.977 84.9325 149.966H86.2111C86.3349 149.977 86.4498 150.035 86.5336 150.126C86.6173 150.218 86.6637 150.338 86.6637 150.462C86.6637 150.587 86.6173 150.706 86.5336 150.798C86.4498 150.89 86.3349 150.947 86.2111 150.959V150.967Z" fill="#69A757"/>
<path d="M82.6396 150.98H81.361C81.2908 150.987 81.2199 150.978 81.1531 150.956C81.0862 150.933 81.0248 150.897 80.9727 150.85C80.9206 150.802 80.879 150.745 80.8506 150.68C80.8221 150.615 80.8074 150.546 80.8074 150.475C80.8074 150.405 80.8221 150.335 80.8506 150.27C80.879 150.206 80.9206 150.148 80.9727 150.101C81.0248 150.053 81.0862 150.017 81.1531 149.994C81.2199 149.972 81.2908 149.964 81.361 149.97H82.6396C82.7666 149.982 82.8847 150.04 82.9707 150.135C83.0567 150.229 83.1044 150.352 83.1044 150.479C83.1044 150.607 83.0567 150.73 82.9707 150.824C82.8847 150.918 82.7666 150.977 82.6396 150.989V150.98Z" fill="#69A757"/>
<path d="M79.034 150.942L77.7127 150.767C77.6483 150.76 77.586 150.74 77.5295 150.708C77.473 150.676 77.4235 150.633 77.3837 150.582C77.344 150.531 77.315 150.472 77.2983 150.41C77.2816 150.347 77.2776 150.282 77.2865 150.217C77.3025 150.089 77.3689 149.971 77.4712 149.891C77.5735 149.812 77.7032 149.776 77.832 149.791H77.8875L79.0978 149.94H79.1532C79.2791 149.962 79.3918 150.032 79.4681 150.134C79.5443 150.237 79.5782 150.365 79.5629 150.491C79.5476 150.618 79.4842 150.734 79.3858 150.816C79.2873 150.897 79.1614 150.938 79.034 150.929V150.942Z" fill="#69A757"/>
<path d="M75.424 150.081L74.2307 149.493C74.1177 149.44 74.0301 149.345 73.9874 149.228C73.9446 149.111 73.9501 148.981 74.0027 148.868C74.0552 148.755 74.1506 148.668 74.2676 148.625C74.3847 148.582 74.514 148.588 74.627 148.64L74.6782 148.666L75.7863 149.177L75.8332 149.203C75.9263 149.267 75.9936 149.362 76.0231 149.471C76.0526 149.58 76.0424 149.697 75.9943 149.799C75.9462 149.901 75.8634 149.983 75.7605 150.03C75.6576 150.077 75.5414 150.086 75.4326 150.055L75.424 150.081Z" fill="#69A757"/>
<path d="M72.3042 148.129L71.3624 147.2C71.2868 147.12 71.2446 147.015 71.2446 146.906C71.2446 146.796 71.2868 146.691 71.3624 146.612C71.4412 146.538 71.5447 146.498 71.6521 146.498C71.7596 146.498 71.8632 146.538 71.942 146.612L71.9761 146.646L72.8753 147.498L72.9095 147.532C72.9524 147.57 72.9872 147.616 73.0118 147.668C73.0365 147.72 73.0505 147.776 73.0528 147.834C73.0552 147.891 73.046 147.948 73.0257 148.002C73.0055 148.055 72.9746 148.104 72.935 148.146C72.897 148.189 72.8504 148.225 72.7982 148.25C72.746 148.275 72.6894 148.289 72.6315 148.291C72.5737 148.294 72.516 148.284 72.4619 148.264C72.4079 148.243 72.3586 148.212 72.317 148.171L72.3042 148.129Z" fill="#69A757"/>
<path d="M69.9474 145.265L69.3507 144.093C69.3169 144.012 69.3144 143.922 69.3435 143.84C69.3726 143.758 69.4313 143.69 69.5081 143.649C69.5849 143.608 69.6742 143.597 69.7586 143.618C69.8431 143.64 69.9164 143.692 69.9645 143.765V143.803L70.5654 144.881V144.915C70.6016 145.001 70.605 145.096 70.5749 145.184C70.5448 145.271 70.4833 145.345 70.4024 145.39C70.3214 145.435 70.2266 145.448 70.1363 145.427C70.046 145.407 69.9666 145.353 69.9133 145.278L69.9474 145.265Z" fill="#69A757"/>
<path d="M68.6475 141.842L68.4642 140.564C68.4529 140.498 68.4683 140.43 68.5071 140.375C68.5458 140.32 68.6048 140.283 68.6709 140.272C68.737 140.261 68.8049 140.276 68.8597 140.315C68.9144 140.354 68.9516 140.413 68.9629 140.479V140.509L69.2058 141.727V141.762C69.2137 141.834 69.1941 141.906 69.1511 141.965C69.108 142.023 69.0446 142.064 68.9733 142.077C68.902 142.091 68.8281 142.078 68.7661 142.04C68.7042 142.002 68.6588 141.942 68.6389 141.872L68.6475 141.842Z" fill="#69A757"/>
<path d="M68.4685 138.228L68.5154 136.95C68.5176 136.917 68.5326 136.886 68.5573 136.863C68.5819 136.841 68.6143 136.829 68.6475 136.83C68.6788 136.831 68.7086 136.844 68.7307 136.867C68.7529 136.889 68.7658 136.918 68.7668 136.95L68.8138 138.228C68.8073 138.269 68.7863 138.307 68.7546 138.334C68.723 138.361 68.6828 138.376 68.6411 138.376C68.5995 138.376 68.5592 138.361 68.5276 138.334C68.4959 138.307 68.475 138.269 68.4685 138.228Z" fill="#69A757"/>
<path d="M68.6177 134.657L68.6475 134.069L68.6731 134.657C68.6709 134.662 68.667 134.667 68.6621 134.67C68.6572 134.674 68.6514 134.676 68.6454 134.676C68.6394 134.676 68.6336 134.674 68.6287 134.67C68.6237 134.667 68.6199 134.662 68.6177 134.657Z" fill="#69A757"/>
</g>
<defs>
<linearGradient id="paint0_linear_528_8418" x1="97.5052" y1="131.435" x2="97.5052" y2="27.3406" gradientUnits="userSpaceOnUse">
<stop stop-color="#DEE1E2"/>
<stop offset="1" stop-color="#EFEFEF"/>
</linearGradient>
<linearGradient id="paint1_linear_528_8418" x1="81.5187" y1="130.612" x2="81.5187" y2="33.4053" gradientUnits="userSpaceOnUse">
<stop stop-color="#DEE1E2"/>
<stop offset="1" stop-color="#B4BCBE"/>
</linearGradient>
<linearGradient id="paint2_linear_528_8418" x1="89.5269" y1="65.2167" x2="89.5269" y2="26.0662" gradientUnits="userSpaceOnUse">
<stop stop-color="#DEE1E2"/>
<stop offset="1" stop-color="#EFEFEF"/>
</linearGradient>
<linearGradient id="paint3_linear_528_8418" x1="112.627" y1="51.4547" x2="112.627" y2="66.9" gradientUnits="userSpaceOnUse">
<stop stop-color="#DEE1E2"/>
<stop offset="1" stop-color="#B4BCBE"/>
</linearGradient>
<linearGradient id="paint4_linear_528_8418" x1="108.731" y1="52.0727" x2="108.731" y2="57.5366" gradientUnits="userSpaceOnUse">
<stop stop-color="#DEE1E2"/>
<stop offset="1" stop-color="#B4BCBE"/>
</linearGradient>
<linearGradient id="paint5_linear_528_8418" x1="119.783" y1="65.3743" x2="107.849" y2="59.0623" gradientUnits="userSpaceOnUse">
<stop stop-color="#DEE1E2"/>
<stop offset="1" stop-color="#B4BCBE"/>
</linearGradient>
<linearGradient id="paint6_linear_528_8418" x1="90.6477" y1="127.19" x2="90.6477" y2="54.698" gradientUnits="userSpaceOnUse">
<stop stop-color="#DEE1E2"/>
<stop offset="1" stop-color="#EFEFEF"/>
</linearGradient>
<linearGradient id="paint7_linear_528_8418" x1="126.086" y1="105.582" x2="61.8625" y2="35.1443" gradientUnits="userSpaceOnUse">
<stop stop-color="#DEE1E2"/>
<stop offset="1" stop-color="#B4BCBE"/>
</linearGradient>
<linearGradient id="paint8_linear_528_8418" x1="53.4535" y1="78.6462" x2="92.7403" y2="149.578" gradientUnits="userSpaceOnUse">
<stop stop-color="#DEE1E2"/>
<stop offset="0.3" stop-color="#D7DBDC"/>
<stop offset="0.75" stop-color="#C3C9CB"/>
<stop offset="1" stop-color="#B4BCBE"/>
</linearGradient>
<linearGradient id="paint9_linear_528_8418" x1="29.7144" y1="93.303" x2="86.569" y2="93.303" gradientUnits="userSpaceOnUse">
<stop stop-color="#FEFEFC"/>
<stop offset="0.09" stop-color="#FEFEFC" stop-opacity="0.96"/>
<stop offset="0.25" stop-color="#FEFEFC" stop-opacity="0.86"/>
<stop offset="0.44" stop-color="#FEFEFD" stop-opacity="0.7"/>
<stop offset="0.68" stop-color="#FFFFFE" stop-opacity="0.47"/>
<stop offset="0.93" stop-color="white" stop-opacity="0.18"/>
<stop offset="1" stop-color="white" stop-opacity="0.1"/>
</linearGradient>
<linearGradient id="paint10_linear_528_8418" x1="85.2563" y1="76.3703" x2="86.6372" y2="109.908" gradientUnits="userSpaceOnUse">
<stop stop-color="#DEE1E2"/>
<stop offset="1" stop-color="#B4BCBE"/>
</linearGradient>
<linearGradient id="paint11_linear_528_8418" x1="66.3503" y1="50.8581" x2="66.3503" y2="66.3034" gradientUnits="userSpaceOnUse">
<stop stop-color="#DEE1E2"/>
<stop offset="1" stop-color="#B4BCBE"/>
</linearGradient>
<linearGradient id="paint12_linear_528_8418" x1="75.5561" y1="57.626" x2="62.7831" y2="64.9225" gradientUnits="userSpaceOnUse">
<stop stop-color="#DEE1E2"/>
<stop offset="1" stop-color="#B4BCBE"/>
</linearGradient>
<linearGradient id="paint13_linear_528_8418" x1="101.497" y1="130.621" x2="146.565" y2="130.621" gradientUnits="userSpaceOnUse">
<stop stop-color="#268334"/>
<stop offset="0.0001" stop-color="#41934D"/>
<stop offset="1" stop-color="#206D2B"/>
</linearGradient>
<linearGradient id="paint14_linear_528_8418" x1="108.916" y1="134.164" x2="153.984" y2="134.164" gradientUnits="userSpaceOnUse">
<stop stop-color="#3FAF49"/>
<stop offset="0.0001" stop-color="#3FAF49"/>
<stop offset="1" stop-color="#68D872"/>
</linearGradient>
<linearGradient id="paint15_linear_528_8418" x1="125.741" y1="133.463" x2="137.427" y2="133.463" gradientUnits="userSpaceOnUse">
<stop stop-color="#3FAF49"/>
<stop offset="0.0001" stop-color="#3FAF49"/>
<stop offset="1" stop-color="#68D872"/>
</linearGradient>
<linearGradient id="paint16_linear_528_8418" x1="138.284" y1="121.398" x2="124.002" y2="135.854" gradientUnits="userSpaceOnUse">
<stop stop-color="#FEFEFC"/>
<stop offset="1" stop-color="#C4EAFC" stop-opacity="0.1"/>
</linearGradient>
<linearGradient id="paint17_linear_528_8418" x1="143.547" y1="127.761" x2="129.913" y2="141.561" gradientUnits="userSpaceOnUse">
<stop stop-color="#FEFEFC"/>
<stop offset="1" stop-color="#C4EAFC" stop-opacity="0.1"/>
</linearGradient>
<linearGradient id="paint18_linear_528_8418" x1="0" y1="35.4404" x2="66.4398" y2="35.4404" gradientUnits="userSpaceOnUse">
<stop stop-color="#268334"/>
<stop offset="0.0001" stop-color="#41934D"/>
<stop offset="1" stop-color="#206D2B"/>
</linearGradient>
<linearGradient id="paint19_linear_528_8418" x1="11.7631" y1="43.4528" x2="72.4705" y2="43.4528" gradientUnits="userSpaceOnUse">
<stop stop-color="#3FAF49"/>
<stop offset="0.0001" stop-color="#3FAF49"/>
<stop offset="1" stop-color="#68D872"/>
</linearGradient>
<clipPath id="clip0_528_8418">
<rect width="153.985" height="158.95" fill="white"/>
</clipPath>
</defs>
</svg>
