<svg width="32" height="32" viewBox="0 0 32 32" fill="none" xmlns="http://www.w3.org/2000/svg">
<path d="M16 28C22.6274 28 28 22.6274 28 16C28 9.37258 22.6274 4 16 4C9.37258 4 4 9.37258 4 16C4 22.6274 9.37258 28 16 28Z" stroke="#69A757" stroke-width="2" stroke-linecap="round" stroke-linejoin="round"/>
<path d="M17.675 16.5749C18.358 16.2026 18.8975 15.6135 19.2083 14.9005C19.5192 14.1874 19.5837 13.3912 19.3916 12.6374C19.1995 11.8837 18.7619 11.2154 18.1477 10.7381C17.5335 10.2608 16.7778 10.0017 16 10.0017C15.2222 10.0017 14.4665 10.2608 13.8523 10.7381C13.2381 11.2154 12.8005 11.8837 12.6084 12.6374C12.4163 13.3912 12.4808 14.1874 12.7917 14.9005C13.1025 15.6135 13.642 16.2026 14.325 16.5749L12.6 20.5999C12.5337 20.7517 12.5062 20.9177 12.52 21.0828C12.5337 21.248 12.5883 21.4071 12.6788 21.5459C12.7692 21.6847 12.8928 21.7989 13.0383 21.8781C13.1839 21.9574 13.3468 21.9992 13.5125 21.9999H18.4875C18.6532 21.9992 18.8161 21.9574 18.9617 21.8781C19.1072 21.7989 19.2308 21.6847 19.3212 21.5459C19.4117 21.4071 19.4663 21.248 19.48 21.0828C19.4938 20.9177 19.4663 20.7517 19.4 20.5999L17.675 16.5749Z" stroke="#69A757" stroke-width="2" stroke-linecap="round" stroke-linejoin="round"/>
</svg>
