<svg id="Layer_1" data-name="Layer 1" xmlns="http://www.w3.org/2000/svg" viewBox="0 0 119.87 23.53"><defs><style>.cls-1{fill:#003d7b;}</style></defs><title>whitehub</title><polygon class="cls-1" points="11.2 23.3 15.66 11.77 19.75 23.3 22.71 23.3 30.68 0.11 27.24 0.11 21.35 18.88 14.7 0.11 11.52 0.11 14.07 7.33 9.93 19.29 3.74 0.11 0 0.11 8.04 23.3 11.2 23.3"/><rect class="cls-1" x="45.43" y="11.05" width="2.76" height="12.34"/><circle class="cls-1" cx="46.81" cy="7.05" r="1.38"/><polygon class="cls-1" points="59.44 11.05 56.09 11.05 56.09 5.67 53.33 5.67 53.33 11.05 49.98 11.05 49.98 13.14 53.33 13.14 53.33 23.39 56.09 23.39 56.09 13.14 59.44 13.14 59.44 11.05"/><path class="cls-1" d="M626.78,292.53H624v10H611.68v-10h-2.75v22.93h2.75V305.35H624v10.11h2.76V292.53Z" transform="translate(-535.25 -292.17)"/><path class="cls-1" d="M655.08,308.23s0,0,0,0h0a6.15,6.15,0,0,0-1.38-3.4c-0.1-.11-0.2-0.21-0.3-0.31h0l-0.08-.08-0.24-.22c-0.12-.11-0.25-0.22-0.38-0.32l0,0a6.45,6.45,0,0,0-3.05-1.22h0l-0.54,0h-0.59l-0.54,0h0a6.45,6.45,0,0,0-3.05,1.22l0,0h0V292.3H642v23.07h2.76v-1a6.49,6.49,0,0,0,3.69,1.31H649a6.46,6.46,0,0,0,4.16-1.7l0.06-.06,0.17-.16h0c0.1-.1.2-0.2,0.3-0.3a6.15,6.15,0,0,0,1.38-3.4l0-.13c0-.25,0-0.5,0-0.75A7.68,7.68,0,0,0,655.08,308.23Zm-6.37,5.14a3.81,3.81,0,0,1-2.87-1.32l-0.15-.15a3.49,3.49,0,0,1-.36-0.58,4.06,4.06,0,0,1-.49-1.93A3.87,3.87,0,1,1,648.71,313.37Z" transform="translate(-535.25 -292.17)"/><path class="cls-1" d="M640.18,303.38h0v-0.7h-2.75v7.07a3.55,3.55,0,0,1-.51,2l-0.14.19-0.12.14-0.2.2-0.08.06a2.51,2.51,0,0,1-.37.25l-0.3.14-0.08,0a3.67,3.67,0,0,1-2.48,0l-0.08,0-0.3-.14a2.51,2.51,0,0,1-.37-0.25l-0.08-.06-0.2-.2-0.12-.14-0.14-.19a3.55,3.55,0,0,1-.51-2v-7.07h-2.75v0.7h0q0,3.17,0,6.35s0,0,0,.07V310h0a5.14,5.14,0,0,0,3,5,6.51,6.51,0,0,0,5.61,0,5.14,5.14,0,0,0,3-5h0V309.8s0,0,0-.07Q640.19,306.56,640.18,303.38Z" transform="translate(-535.25 -292.17)"/><path class="cls-1" d="M573.07,305.28a3.36,3.36,0,0,1,1.24.22l0.08,0,0.3,0.14a2.49,2.49,0,0,1,.37.25l0.08,0.06,0.2,0.2,0.12,0.14,0.14,0.19a3.55,3.55,0,0,1,.51,2v7.07h2.75v-0.7h0q0-3.17,0-6.35s0,0,0-.07v-0.17h0a5.14,5.14,0,0,0-3-5,6.73,6.73,0,0,0-2.8-.64h0a6.74,6.74,0,0,0-2.82.64l-0.21.12V292.17h-2.79v23.38H570v-0.83s0-.08,0-0.12v-3.45c0-1,0-2,0-3a2.73,2.73,0,0,1,2.92-2.84" transform="translate(-535.25 -292.17)"/><path class="cls-1" d="M601.34,313.09a4.06,4.06,0,0,1-2.06-.52,3.85,3.85,0,0,1-1.43-1.43l9.79-3.45a6.52,6.52,0,0,0-1.49-3,6.15,6.15,0,0,0-.79-0.84,5.5,5.5,0,0,0-1.7-1l-0.19-.07a6.06,6.06,0,0,0-.88-0.22l-0.19,0-0.42,0-0.31,0-0.29,0h-0.15a6.53,6.53,0,0,0,0,13.06h0.1a6.74,6.74,0,0,0,.94-0.08l0.22,0c0.21,0,.43-0.1.65-0.16a6.51,6.51,0,0,0,2.36-1.3L604.33,312A5,5,0,0,1,601.34,313.09Zm-3-7.32a3.63,3.63,0,0,1,2.78-1.18,3.25,3.25,0,0,1,2,.62,4.07,4.07,0,0,1,1.24,1.6l-7.13,2.51c0-.14,0-0.31,0-0.52A4.27,4.27,0,0,1,598.35,305.77Z" transform="translate(-535.25 -292.17)"/></svg>