<svg width="10" height="15" viewBox="0 0 10 15" fill="none" xmlns="http://www.w3.org/2000/svg">
<path fill-rule="evenodd" clip-rule="evenodd" d="M1.14645 1.14645C1.34171 0.951184 1.65829 0.951184 1.85355 1.14645L6.85355 6.14645C7.04882 6.34171 7.04882 6.65829 6.85355 6.85355L1.85355 11.8536C1.65829 12.0488 1.34171 12.0488 1.14645 11.8536C0.951184 11.6583 0.951184 11.3417 1.14645 11.1464L5.79289 6.5L1.14645 1.85355C0.951184 1.65829 0.951184 1.34171 1.14645 1.14645Z" fill="#5A6176" stroke="#5A6176" stroke-width="0.25" stroke-linecap="round" stroke-linejoin="round"/>
<path fill-rule="evenodd" clip-rule="evenodd" d="M8.85355 8.14645C9.04882 8.34171 9.04882 8.65829 8.85355 8.85355L3.85355 13.8536C3.65829 14.0488 3.34171 14.0488 3.14645 13.8536C2.95118 13.6583 2.95118 13.3417 3.14645 13.1464L8.14645 8.14645C8.34171 7.95118 8.65829 7.95118 8.85355 8.14645Z" fill="#5A6176" stroke="#5A6176" stroke-width="0.25" stroke-linecap="round" stroke-linejoin="round"/>
</svg>
