<svg width="473" height="653" viewBox="0 0 473 653" fill="none" xmlns="http://www.w3.org/2000/svg">
<path d="M337.445 266.931C337.445 266.931 310.782 278.6 298.78 284.251C286.778 289.901 277.435 292.264 277.435 292.264L297.746 302.937L355.061 293.926L337.408 266.931H337.445Z" fill="white" stroke="#263238" stroke-miterlimit="10"/>
<path d="M252.477 279.267C252.477 279.267 246.162 273.284 243.466 266.932C240.807 260.617 235.452 263.609 235.452 268.262C235.452 272.915 238.443 280.264 239.773 280.929C241.102 281.593 255.099 283.92 255.099 283.92L252.44 279.267H252.477Z" stroke="#263238" stroke-miterlimit="10"/>
<path d="M348.085 307.517L353.736 339.498C353.736 339.498 342.62 402.979 340.515 439.503C338.41 476.026 336.822 499.809 338.927 509.337C341.032 518.864 368.544 611.447 368.544 611.447C368.544 611.447 363.781 617.282 363.781 618.87C363.781 620.458 363.264 626.293 363.264 626.293C363.264 626.293 355.841 633.715 350.043 637.925C344.208 642.172 332.058 645.865 334.163 650.112C336.268 654.359 350.56 650.112 366.439 650.112C382.319 650.112 393.435 652.217 399.233 648.007C405.031 643.797 399.75 627.917 399.75 627.917C399.75 627.917 400.267 616.802 400.821 613.626C401.338 610.45 393.952 594.053 394.469 589.289C394.986 584.525 381.765 489.284 381.765 489.284L408.207 391.384C408.207 391.384 451.599 501.434 456.88 506.715C462.161 511.996 533.583 603.027 533.583 603.027C533.583 603.027 528.819 608.308 530.407 610.967C531.995 613.626 534.654 616.802 534.654 616.802C534.654 616.802 529.373 627.917 526.197 632.681C523.021 637.445 514.01 640.104 515.598 643.28C517.186 646.456 533.583 646.973 537.83 645.939C542.077 644.868 558.99 626.366 563.754 622.673C568.518 618.981 577.529 612.075 577.529 607.348C577.529 602.621 568.518 596.749 568.001 595.161C567.484 593.573 566.413 586.704 563.237 584.562C560.061 582.457 555.814 580.315 553.709 579.281C551.604 578.21 498.684 486.145 498.684 486.145C498.684 486.145 474.865 344.335 468.513 327.939C462.161 311.542 426.081 264.383 426.081 264.383L348.049 307.59L348.085 307.517Z" fill="#263238" stroke="#263238" stroke-miterlimit="10"/>
<path d="M290.516 219.734C290.516 219.734 297.495 251.789 306.321 260.135C315.148 268.481 332.8 270.807 332.8 270.807L348.126 307.515C348.126 307.515 403.852 290.343 426.158 264.308C426.158 264.308 400.16 222.984 381.104 196.505C362.048 170.027 369.951 165.373 343.029 149.605C316.108 133.799 294.245 155.624 294.245 155.624C294.245 155.624 273.823 156.547 290.516 219.734Z" fill="#92E3A9" stroke="#263238" stroke-miterlimit="10"/>
<path d="M257.566 65.5514C257.566 65.5514 252.138 54.5464 216.833 60.1228C181.528 65.6992 172.259 94.0241 170.856 105.177C169.452 116.33 170.708 115.739 167.458 118.508C164.208 121.278 148.883 119.432 151.652 135.681C154.422 151.93 173.478 142.66 176.284 148.237C179.054 153.813 183.264 157.543 191.13 157.986C199.033 158.466 206.456 149.16 207.379 145.43C208.302 141.7 216.205 138.45 230.128 146.833C244.05 155.18 262.626 170.062 282.161 153.813C301.697 137.564 276.105 79.954 257.529 65.5514H257.566Z" fill="#263238" stroke="#263238" stroke-miterlimit="10"/>
<path d="M184.631 134.834C184.631 134.834 187.549 144.436 190.466 149.458C193.384 154.481 204.278 159.06 204.684 166.593C205.09 174.127 202.579 179.149 204.684 180.405C206.789 181.661 216.797 178.743 216.797 178.743C216.797 178.743 238.955 193.367 244.384 191.299C249.812 189.194 260.263 174.57 260.263 174.57L283.972 191.41L290.472 219.735L298.818 206.256C298.818 206.256 283.012 187.2 288.588 171.431L294.165 155.625C294.165 155.625 258.564 150.714 253.948 144.879C249.332 139.044 240.986 124.383 233.452 122.315C225.919 120.247 223.001 130.661 223.851 133.172C224.7 135.683 211.295 135.277 202.949 131.917C194.602 128.556 196.671 129.405 194.602 128.556C192.534 127.707 184.558 131.067 184.558 134.834H184.631Z" fill="white" stroke="#263238" stroke-miterlimit="10"/>
<path d="M200.512 151.969C200.512 151.969 200.106 144.435 206.347 143.623" stroke="#263238" stroke-miterlimit="10"/>
<path d="M211.959 154.52C214.027 156.218 214.84 158.582 213.806 159.838C212.772 161.093 210.297 160.724 208.229 159.062C206.161 157.363 205.349 155 206.383 153.744C207.417 152.489 209.891 152.858 211.959 154.52Z" fill="#263238"/>
<path d="M227.69 179.15C227.69 179.15 230.202 177.488 228.097 170.804" stroke="#263238" stroke-miterlimit="10"/>
<path d="M245.233 132.325C245.233 132.325 251.068 138.603 249 141.927C246.895 145.287 244.827 146.543 244.827 146.543C244.827 146.543 250.256 151.972 250.662 155.332" fill="white"/>
<path d="M245.233 132.325C245.233 132.325 251.068 138.603 249 141.927C246.895 145.287 244.827 146.543 244.827 146.543C244.827 146.543 250.256 151.972 250.662 155.332" stroke="#263238" stroke-miterlimit="10"/>
<path d="M227.581 115.74C227.581 115.74 248.224 129.219 259.082 146.022C269.939 162.825 300.997 161.939 311.965 152.67C322.933 143.437 324.964 134.5 333.421 136.642C341.878 138.784 362.189 145.69 375.41 135.978C388.667 126.265 378.696 106.914 392.176 110.459C405.655 113.968 421.867 109.831 430.952 95.7613C440.036 81.6911 446.979 57.5761 421.572 26.149C401.925 1.84938 372.862 8.16434 364.109 9.41994C355.357 10.6755 358.237 1 329.654 1C301.07 1 286.188 26.186 284.267 33.1657C282.31 40.1823 290.324 44.9462 267.465 37.1171C244.642 29.288 233.452 37.9665 233.859 49.7101C234.265 61.4537 208.451 65.4421 203.613 67.3624" fill="#263238"/>
<path d="M227.581 115.74C227.581 115.74 248.224 129.219 259.082 146.022C269.939 162.825 300.997 161.939 311.965 152.67C322.933 143.437 324.964 134.5 333.421 136.642C341.878 138.784 362.189 145.69 375.41 135.978C388.667 126.265 378.696 106.914 392.176 110.459C405.655 113.968 421.867 109.831 430.952 95.7613C440.036 81.6911 446.979 57.5761 421.572 26.149C401.925 1.84938 372.862 8.16434 364.109 9.41994C355.357 10.6755 358.237 1 329.654 1C301.07 1 286.188 26.186 284.267 33.1657C282.31 40.1823 290.324 44.9462 267.465 37.1171C244.642 29.288 233.452 37.9665 233.859 49.7101C234.265 61.4537 208.451 65.4421 203.613 67.3624" stroke="#263238" stroke-miterlimit="10"/>
<path d="M491.262 357.775C490.191 357.775 489.12 357.664 488.049 357.406L201.106 283.399C196.047 282.18 192.982 277.084 194.201 272.024C195.419 266.965 200.516 263.9 205.575 265.119L494.401 331.296C501.602 333.069 506.034 340.344 504.261 347.545C502.747 353.676 497.282 357.775 491.225 357.775H491.262Z" fill="#8F8F8F" stroke="#263238" stroke-miterlimit="10"/>
<path d="M371.788 307.958L362.961 314.458C362.961 314.458 358.788 321.438 355.539 323.764C352.289 326.091 350.442 327.494 353.692 328.86C356.942 330.264 364.845 327.014 364.845 327.014C364.845 327.014 362.075 339.09 364.365 340.013C366.691 340.936 371.788 341.417 373.191 339.533C374.594 337.65 376.921 336.763 376.921 336.763C376.921 336.763 378.324 338.61 386.67 336.283C395.016 333.957 395.496 319.554 396.42 313.055C397.343 306.555 434.494 224.793 436.821 214.12C439.147 203.448 436.821 196.948 433.571 195.065C430.321 193.181 337.443 164.413 326.29 163.49C315.138 162.567 303.062 178.336 309.561 193.698C316.061 209.024 342.059 214.12 349.039 215.08C356.019 216.004 396.863 221.1 396.863 221.1C396.863 221.1 388.517 263.384 386.633 278.71C384.787 294.036 377.327 303.785 371.788 307.958Z" fill="white" stroke="#263238" stroke-miterlimit="10"/>
<path d="M238.147 286.243C238.147 286.243 236.485 298.245 237.15 299.907C237.815 301.569 243.133 304.56 244.499 299.575C245.829 294.589 246.161 286.243 243.834 284.913C241.508 283.584 240.178 282.919 238.184 286.243H238.147Z" fill="white" stroke="#263238" stroke-miterlimit="10"/>
<path d="M246.826 291.34C246.826 291.34 247.602 303.416 248.599 304.93C249.596 306.444 255.431 308.29 255.726 303.12C256.022 297.95 254.655 289.715 252.107 288.902C249.559 288.09 248.119 287.684 246.826 291.34Z" fill="white" stroke="#263238" stroke-miterlimit="10"/>
<path d="M255.504 292.671C255.504 292.671 256.279 304.747 257.277 306.261C258.274 307.776 264.109 309.622 264.404 304.452C264.699 299.282 263.333 291.047 260.785 290.234C258.237 289.385 256.796 289.015 255.504 292.671Z" fill="white" stroke="#263238" stroke-miterlimit="10"/>
<path d="M264.996 294.479C264.996 294.479 265.661 304.783 266.51 306.038C267.36 307.331 272.308 308.882 272.567 304.487C272.825 300.093 271.68 293.076 269.502 292.374C267.323 291.673 266.104 291.34 264.996 294.442V294.479Z" fill="white" stroke="#263238" stroke-miterlimit="10"/>
<path d="M211.483 287.058L212.296 271.179L201.217 254.782C193.979 234.655 147.115 217.52 113.805 209.358C80.4943 201.197 41.0535 206.7 23.7335 215.489C6.41358 224.278 2.42519 229.596 2.42519 229.596L1.35423 250.646C-3.37276 274.539 39.761 303.233 97.7404 314.719C155.72 326.204 206.535 316.122 211.262 292.228C211.594 290.53 211.668 288.794 211.52 287.058H211.483ZM161.333 289.717C127.321 294.777 96.2632 291.047 69.2308 279.229C48.8087 270.329 29.273 256.111 20.9638 249.723C28.1651 233.067 68.0121 226.752 113.325 235.726C156.237 244.22 189.326 263.534 193.019 280.965C187.479 283.809 177.915 287.243 161.37 289.717H161.333Z" fill="#8F8F8F" stroke="#263238" stroke-miterlimit="10"/>
<path d="M115.906 207.106C57.9266 195.62 7.11149 205.702 2.3845 229.596C-2.34248 253.489 40.7913 282.183 98.7707 293.668C156.75 305.154 207.565 295.072 212.292 271.178C217.019 247.285 173.885 218.591 115.906 207.106ZM194.271 265.787C190.541 284.547 148.773 292.08 100.95 282.59C53.1257 273.136 17.3779 250.239 21.1078 231.479C24.8377 212.719 66.605 205.185 114.429 214.676C162.253 224.13 198 247.026 194.271 265.787Z" fill="white" stroke="#263238" stroke-miterlimit="10"/>
</svg>
