<svg width="53" height="61" viewBox="0 0 53 61" fill="none" xmlns="http://www.w3.org/2000/svg">
<path fill-rule="evenodd" clip-rule="evenodd" d="M1.28821 24.1403C1.28821 22.4224 2.68887 21.0298 4.41668 21.0298H14.2015C15.1162 21.0298 15.8577 21.7671 15.8577 22.6765C15.8577 23.586 15.1162 24.3233 14.2015 24.3233H4.60071V55.4401H48.4822V24.3233H38.34C37.4253 24.3233 36.6837 23.586 36.6837 22.6765C36.6837 21.7671 37.4253 21.0298 38.34 21.0298H48.6663C50.3941 21.0298 51.7947 22.4224 51.7947 24.1403V55.6231C51.7947 57.341 50.3941 58.7336 48.6663 58.7336H4.41668C2.68888 58.7336 1.28821 57.341 1.28821 55.6231V24.1403Z" fill="#161922"/>
<path fill-rule="evenodd" clip-rule="evenodd" d="M26.571 4.22729C27.5873 4.22286 28.4148 5.03844 28.4193 6.04896L28.5445 34.4023C28.549 35.4128 27.7287 36.2356 26.7124 36.24C25.696 36.2444 24.8685 35.4289 24.864 34.4183L24.7388 6.06503C24.7343 5.05452 25.5546 4.23173 26.571 4.22729Z" fill="#3DB249"/>
<path fill-rule="evenodd" clip-rule="evenodd" d="M16.5452 12.9042C15.8265 12.1896 15.8265 11.0311 16.5452 10.3165L24.7578 2.15101C25.764 1.15065 27.3953 1.15064 28.4014 2.15101L36.9201 10.6208C37.6388 11.3354 37.6388 12.4939 36.9201 13.2085C36.2014 13.923 35.0362 13.923 34.3176 13.2085L26.5796 5.5149L19.1477 12.9042C18.429 13.6187 17.2638 13.6187 16.5452 12.9042Z" fill="#3DB249"/>
</svg>
