<svg width="54" height="54" viewBox="0 0 54 54" fill="none" xmlns="http://www.w3.org/2000/svg">
<path fill-rule="evenodd" clip-rule="evenodd" d="M0.201055 37.5521C0.617008 36.832 1.54163 36.5833 2.26625 36.9967L26.5759 50.8636L50.8855 36.9967C51.6101 36.5833 52.5348 36.832 52.9507 37.5521C53.3667 38.2721 53.1165 39.191 52.3918 39.6043L27.7594 53.6554C27.0265 54.0735 26.1253 54.0735 25.3924 53.6554L0.759951 39.6043C0.035328 39.191 -0.214898 38.2721 0.201055 37.5521Z" fill="#161922"/>
<path fill-rule="evenodd" clip-rule="evenodd" d="M0.208926 26.9319C0.632377 26.1966 1.55954 25.9509 2.27981 26.3832L26.5759 40.965L50.872 26.3832C51.5922 25.9509 52.5194 26.1966 52.9428 26.9319C53.3663 27.6672 53.1257 28.6137 52.4054 29.0459L27.7807 43.825C27.037 44.2713 26.1148 44.2713 25.371 43.825L0.746363 29.0459C0.0260943 28.6137 -0.214524 27.6672 0.208926 26.9319Z" fill="#161922"/>
<path fill-rule="evenodd" clip-rule="evenodd" d="M25.4287 0.346911C26.1262 -0.115636 27.0242 -0.115637 27.7218 0.346911L50.5532 15.4856C51.8819 16.3666 51.824 18.3762 50.4469 19.1755L27.6155 32.4279C26.9702 32.8024 26.1802 32.8024 25.535 32.4279L2.7035 19.1755C1.32642 18.3762 1.26854 16.3666 2.59721 15.4856L25.4287 0.346911ZM26.5752 2.67331L4.55663 17.273L26.5752 30.0536L48.5938 17.273L26.5752 2.67331Z" fill="#161922"/>
</svg>
