<svg width="16" height="16" viewBox="0 0 16 16" fill="none" xmlns="http://www.w3.org/2000/svg">
<path d="M13.3538 10.3537C13.3073 10.4002 13.2522 10.4371 13.1915 10.4623C13.1308 10.4874 13.0657 10.5004 13 10.5004C12.9343 10.5004 12.8692 10.4874 12.8085 10.4623C12.7478 10.4371 12.6927 10.4002 12.6463 10.3537L8 5.70687L3.35375 10.3537C3.25993 10.4476 3.13269 10.5003 3 10.5003C2.86732 10.5003 2.74007 10.4476 2.64625 10.3537C2.55243 10.2599 2.49973 10.1327 2.49973 10C2.49973 9.86731 2.55243 9.74007 2.64625 9.64625L7.64625 4.64625C7.69269 4.59976 7.74783 4.56288 7.80853 4.53772C7.86923 4.51255 7.9343 4.4996 8 4.4996C8.06571 4.4996 8.13077 4.51255 8.19147 4.53772C8.25217 4.56288 8.30732 4.59976 8.35375 4.64625L13.3538 9.64625C13.4002 9.69268 13.4371 9.74783 13.4623 9.80853C13.4874 9.86923 13.5004 9.93429 13.5004 10C13.5004 10.0657 13.4874 10.1308 13.4623 10.1915C13.4371 10.2522 13.4002 10.3073 13.3538 10.3537Z" fill="white"/>
</svg>
