<svg width="16" height="16" viewBox="0 0 16 16" fill="none" xmlns="http://www.w3.org/2000/svg">
<path d="M13.3538 5.64625C13.3073 5.59976 13.2522 5.56289 13.1915 5.53772C13.1308 5.51256 13.0657 5.49961 13 5.49961C12.9343 5.49961 12.8692 5.51256 12.8085 5.53772C12.7478 5.56289 12.6927 5.59976 12.6463 5.64625L8 10.2931L3.35375 5.64625C3.25993 5.55243 3.13269 5.49972 3 5.49972C2.86732 5.49972 2.74007 5.55243 2.64625 5.64625C2.55243 5.74007 2.49973 5.86732 2.49973 6C2.49973 6.13269 2.55243 6.25993 2.64625 6.35375L7.64625 11.3538C7.69269 11.4002 7.74783 11.4371 7.80853 11.4623C7.86923 11.4874 7.9343 11.5004 8 11.5004C8.06571 11.5004 8.13077 11.4874 8.19147 11.4623C8.25217 11.4371 8.30732 11.4002 8.35375 11.3538L13.3538 6.35375C13.4002 6.30732 13.4371 6.25217 13.4623 6.19147C13.4874 6.13077 13.5004 6.06571 13.5004 6C13.5004 5.9343 13.4874 5.86923 13.4623 5.80853C13.4371 5.74783 13.4002 5.69269 13.3538 5.64625Z" fill="white"/>
</svg>
