<svg width="1104" height="100" viewBox="0 0 1104 100" fill="none" xmlns="http://www.w3.org/2000/svg">
<rect width="1104" height="100" rx="10" fill="url(#paint0_linear_1_21)"/>
<path d="M173.327 46V43.868H178.917C179.974 43.868 180.798 43.582 181.387 43.01C181.994 42.438 182.297 41.658 182.297 40.67C182.297 39.63 181.976 38.798 181.335 38.174C180.711 37.55 179.853 37.238 178.761 37.238H173.327V35.158H178.501C179.558 35.158 180.373 34.9067 180.945 34.404C181.534 33.884 181.829 33.1473 181.829 32.194C181.829 31.2927 181.552 30.608 180.997 30.14C180.46 29.6547 179.662 29.412 178.605 29.412H173.327V27.28H179.021C180.72 27.28 182.072 27.696 183.077 28.528C184.082 29.3427 184.585 30.4607 184.585 31.882C184.585 32.7833 184.377 33.5807 183.961 34.274C183.562 34.95 183.008 35.4787 182.297 35.86C181.586 36.224 180.78 36.406 179.879 36.406L180.009 35.86C180.98 35.86 181.846 36.0853 182.609 36.536C183.372 36.9693 183.978 37.5673 184.429 38.33C184.88 39.0927 185.105 39.9767 185.105 40.982C185.105 41.97 184.862 42.8453 184.377 43.608C183.909 44.3707 183.242 44.96 182.375 45.376C181.508 45.792 180.503 46 179.359 46H173.327ZM171.299 46V27.28H174.055V46H171.299ZM192.245 46.26C191.361 46.26 190.581 46.078 189.905 45.714C189.229 45.3327 188.701 44.8127 188.319 44.154C187.955 43.4953 187.773 42.7413 187.773 41.892V32.74H190.477V41.268C190.477 42.1867 190.703 42.8713 191.153 43.322C191.604 43.7727 192.245 43.998 193.077 43.998C193.823 43.998 194.481 43.8247 195.053 43.478C195.643 43.1313 196.102 42.6547 196.431 42.048C196.778 41.424 196.951 40.7047 196.951 39.89L197.289 43.062C196.856 44.0327 196.189 44.8127 195.287 45.402C194.403 45.974 193.389 46.26 192.245 46.26ZM197.055 46V42.88H196.951V32.74H199.629V46H197.055ZM204.177 51.33L207.375 44.024L207.921 43.166L211.951 32.74H214.759L206.959 51.33H204.177ZM207.245 46L201.577 32.74H204.515L209.325 44.674L207.245 46ZM222.131 46V27.28H224.887V46H222.131ZM223.483 46V43.738H234.299V46H223.483ZM242.045 46.26C240.693 46.26 239.506 45.9653 238.483 45.376C237.46 44.7693 236.663 43.946 236.091 42.906C235.519 41.8487 235.233 40.6527 235.233 39.318C235.233 37.966 235.519 36.7787 236.091 35.756C236.68 34.7333 237.478 33.936 238.483 33.364C239.506 32.7747 240.693 32.48 242.045 32.48C243.414 32.48 244.61 32.7747 245.633 33.364C246.656 33.936 247.444 34.7333 247.999 35.756C248.571 36.7787 248.857 37.966 248.857 39.318C248.857 40.6527 248.571 41.8487 247.999 42.906C247.444 43.946 246.656 44.7693 245.633 45.376C244.61 45.9653 243.414 46.26 242.045 46.26ZM242.045 44.05C242.86 44.05 243.562 43.8507 244.151 43.452C244.758 43.0533 245.234 42.4987 245.581 41.788C245.928 41.0773 246.101 40.2453 246.101 39.292C246.101 37.8707 245.72 36.7527 244.957 35.938C244.212 35.106 243.241 34.69 242.045 34.69C240.866 34.69 239.896 35.106 239.133 35.938C238.388 36.77 238.015 37.888 238.015 39.292C238.015 40.2453 238.18 41.0773 238.509 41.788C238.856 42.4987 239.332 43.0533 239.939 43.452C240.563 43.8507 241.265 44.05 242.045 44.05ZM257.146 46.26C255.881 46.26 254.754 45.9653 253.766 45.376C252.778 44.7693 251.998 43.946 251.426 42.906C250.872 41.866 250.594 40.6787 250.594 39.344C250.594 38.0093 250.872 36.8307 251.426 35.808C251.998 34.768 252.778 33.9533 253.766 33.364C254.754 32.7747 255.872 32.48 257.12 32.48C258.178 32.48 259.122 32.6793 259.954 33.078C260.786 33.4767 261.471 34.0313 262.008 34.742C262.546 35.4527 262.892 36.2933 263.048 37.264H260.5C260.327 36.484 259.946 35.86 259.356 35.392C258.784 34.924 258.056 34.69 257.172 34.69C256.41 34.69 255.742 34.8807 255.17 35.262C254.598 35.6433 254.156 36.1807 253.844 36.874C253.532 37.5673 253.376 38.3907 253.376 39.344C253.376 40.28 253.532 41.1033 253.844 41.814C254.156 42.5247 254.598 43.0793 255.17 43.478C255.742 43.8593 256.418 44.05 257.198 44.05C258.048 44.05 258.767 43.8247 259.356 43.374C259.963 42.906 260.353 42.282 260.526 41.502H263.074C262.901 42.4553 262.537 43.2873 261.982 43.998C261.445 44.7087 260.76 45.2633 259.928 45.662C259.096 46.0607 258.169 46.26 257.146 46.26ZM265.752 46V26.942H268.456V46H265.752ZM274.358 46L267.832 39.11L274.15 32.74H277.556L270.38 39.708L270.51 38.486L277.816 46H274.358ZM284.827 46.26C283.492 46.26 282.314 45.9653 281.291 45.376C280.286 44.7867 279.497 43.972 278.925 42.932C278.353 41.892 278.067 40.696 278.067 39.344C278.067 37.9747 278.344 36.7787 278.899 35.756C279.471 34.716 280.268 33.91 281.291 33.338C282.314 32.766 283.484 32.48 284.801 32.48C286.084 32.48 287.193 32.7573 288.129 33.312C289.082 33.8493 289.81 34.6033 290.313 35.574C290.833 36.5447 291.093 37.6973 291.093 39.032C291.093 39.24 291.084 39.4393 291.067 39.63C291.067 39.8033 291.05 39.9853 291.015 40.176H279.887V38.148H289.117L288.441 38.954C288.441 37.5327 288.12 36.4493 287.479 35.704C286.838 34.9587 285.945 34.586 284.801 34.586C283.57 34.586 282.591 35.0107 281.863 35.86C281.152 36.692 280.797 37.8533 280.797 39.344C280.797 40.852 281.152 42.0307 281.863 42.88C282.591 43.7293 283.596 44.154 284.879 44.154C285.659 44.154 286.335 43.998 286.907 43.686C287.479 43.3567 287.904 42.88 288.181 42.256H290.729C290.296 43.504 289.559 44.4833 288.519 45.194C287.496 45.9047 286.266 46.26 284.827 46.26ZM293.859 46V32.74H296.433V36.042H296.563V46H293.859ZM296.563 39.084L296.225 35.938C296.537 34.8113 297.074 33.9533 297.837 33.364C298.6 32.7747 299.51 32.48 300.567 32.48C300.966 32.48 301.243 32.5147 301.399 32.584V35.132C301.312 35.0973 301.191 35.08 301.035 35.08C300.879 35.0627 300.688 35.054 300.463 35.054C299.163 35.054 298.184 35.392 297.525 36.068C296.884 36.744 296.563 37.7493 296.563 39.084ZM308.967 46V27.28H316.897C318.249 27.28 319.402 27.5053 320.355 27.956C321.308 28.4067 322.036 29.048 322.539 29.88C323.059 30.712 323.319 31.7 323.319 32.844C323.319 34.0053 323.059 35.0107 322.539 35.86C322.036 36.692 321.3 37.342 320.329 37.81C319.376 38.278 318.232 38.512 316.897 38.512H311.073V36.224H316.767C317.998 36.224 318.934 35.9293 319.575 35.34C320.234 34.7507 320.563 33.9273 320.563 32.87C320.563 31.7953 320.242 30.972 319.601 30.4C318.96 29.828 318.015 29.542 316.767 29.542H311.723V46H308.967ZM326.13 46V32.74H328.704V36.042H328.834V46H326.13ZM328.834 39.084L328.496 35.938C328.808 34.8113 329.346 33.9533 330.108 33.364C330.871 32.7747 331.781 32.48 332.838 32.48C333.237 32.48 333.514 32.5147 333.67 32.584V35.132C333.584 35.0973 333.462 35.08 333.306 35.08C333.15 35.0627 332.96 35.054 332.734 35.054C331.434 35.054 330.455 35.392 329.796 36.068C329.155 36.744 328.834 37.7493 328.834 39.084ZM341.423 46.26C340.088 46.26 338.909 45.9653 337.887 45.376C336.881 44.7867 336.093 43.972 335.521 42.932C334.949 41.892 334.663 40.696 334.663 39.344C334.663 37.9747 334.94 36.7787 335.495 35.756C336.067 34.716 336.864 33.91 337.887 33.338C338.909 32.766 340.079 32.48 341.397 32.48C342.679 32.48 343.789 32.7573 344.725 33.312C345.678 33.8493 346.406 34.6033 346.909 35.574C347.429 36.5447 347.689 37.6973 347.689 39.032C347.689 39.24 347.68 39.4393 347.663 39.63C347.663 39.8033 347.645 39.9853 347.611 40.176H336.483V38.148H345.713L345.037 38.954C345.037 37.5327 344.716 36.4493 344.075 35.704C343.433 34.9587 342.541 34.586 341.397 34.586C340.166 34.586 339.187 35.0107 338.459 35.86C337.748 36.692 337.393 37.8533 337.393 39.344C337.393 40.852 337.748 42.0307 338.459 42.88C339.187 43.7293 340.192 44.154 341.475 44.154C342.255 44.154 342.931 43.998 343.503 43.686C344.075 43.3567 344.499 42.88 344.777 42.256H347.325C346.891 43.504 346.155 44.4833 345.115 45.194C344.092 45.9047 342.861 46.26 341.423 46.26ZM350.455 46V32.74H353.029V35.86H353.159V46H350.455ZM359.399 46V37.342C359.399 36.4407 359.191 35.782 358.775 35.366C358.359 34.95 357.761 34.742 356.981 34.742C356.253 34.742 355.594 34.9153 355.005 35.262C354.433 35.5913 353.982 36.0593 353.653 36.666C353.323 37.2553 353.159 37.9573 353.159 38.772L352.821 35.678C353.254 34.69 353.904 33.91 354.771 33.338C355.655 32.766 356.643 32.48 357.735 32.48C359.052 32.48 360.101 32.8613 360.881 33.624C361.678 34.3867 362.077 35.392 362.077 36.64V46H359.399ZM368.343 46V37.342C368.343 36.4407 368.126 35.782 367.693 35.366C367.277 34.95 366.679 34.742 365.899 34.742C365.188 34.742 364.538 34.9153 363.949 35.262C363.377 35.5913 362.917 36.0593 362.571 36.666C362.241 37.2553 362.077 37.9573 362.077 38.772L361.531 35.678C361.981 34.69 362.657 33.91 363.559 33.338C364.477 32.766 365.5 32.48 366.627 32.48C367.961 32.48 369.027 32.87 369.825 33.65C370.622 34.4127 371.021 35.4353 371.021 36.718V46H368.343ZM374.601 46V32.74H377.305V46H374.601ZM374.471 30.14V27.098H377.461V30.14H374.471ZM385.265 46.26C384.381 46.26 383.601 46.078 382.925 45.714C382.249 45.3327 381.72 44.8127 381.339 44.154C380.975 43.4953 380.793 42.7413 380.793 41.892V32.74H383.497V41.268C383.497 42.1867 383.722 42.8713 384.173 43.322C384.623 43.7727 385.265 43.998 386.097 43.998C386.842 43.998 387.501 43.8247 388.073 43.478C388.662 43.1313 389.121 42.6547 389.451 42.048C389.797 41.424 389.971 40.7047 389.971 39.89L390.309 43.062C389.875 44.0327 389.208 44.8127 388.307 45.402C387.423 45.974 386.409 46.26 385.265 46.26ZM390.075 46V42.88H389.971V32.74H392.649V46H390.075ZM396.437 46V32.74H399.011V35.86H399.141V46H396.437ZM405.381 46V37.342C405.381 36.4407 405.173 35.782 404.757 35.366C404.341 34.95 403.743 34.742 402.963 34.742C402.235 34.742 401.576 34.9153 400.987 35.262C400.415 35.5913 399.964 36.0593 399.635 36.666C399.306 37.2553 399.141 37.9573 399.141 38.772L398.803 35.678C399.236 34.69 399.886 33.91 400.753 33.338C401.637 32.766 402.625 32.48 403.717 32.48C405.034 32.48 406.083 32.8613 406.863 33.624C407.66 34.3867 408.059 35.392 408.059 36.64V46H405.381ZM414.325 46V37.342C414.325 36.4407 414.108 35.782 413.675 35.366C413.259 34.95 412.661 34.742 411.881 34.742C411.17 34.742 410.52 34.9153 409.931 35.262C409.359 35.5913 408.9 36.0593 408.553 36.666C408.224 37.2553 408.059 37.9573 408.059 38.772L407.513 35.678C407.964 34.69 408.64 33.91 409.541 33.338C410.46 32.766 411.482 32.48 412.609 32.48C413.944 32.48 415.01 32.87 415.807 33.65C416.604 34.4127 417.003 35.4353 417.003 36.718V46H414.325ZM433.979 46C433.893 45.6707 433.832 45.3067 433.797 44.908C433.78 44.5093 433.771 44.024 433.771 43.452H433.641V37.134C433.641 36.2847 433.425 35.652 432.991 35.236C432.575 34.8027 431.908 34.586 430.989 34.586C430.105 34.586 429.395 34.7593 428.857 35.106C428.337 35.4527 428.034 35.9467 427.947 36.588H425.373C425.495 35.34 426.058 34.3433 427.063 33.598C428.069 32.8527 429.412 32.48 431.093 32.48C432.827 32.48 434.127 32.8873 434.993 33.702C435.86 34.4993 436.293 35.678 436.293 37.238V43.452C436.293 43.8507 436.319 44.258 436.371 44.674C436.423 45.09 436.501 45.532 436.605 46H433.979ZM429.403 46.26C428.051 46.26 426.977 45.9307 426.179 45.272C425.382 44.596 424.983 43.686 424.983 42.542C424.983 41.3633 425.399 40.436 426.231 39.76C427.081 39.0667 428.294 38.5987 429.871 38.356L434.239 37.654V39.552L430.287 40.176C429.403 40.3147 428.736 40.5487 428.285 40.878C427.852 41.2073 427.635 41.684 427.635 42.308C427.635 42.9147 427.835 43.374 428.233 43.686C428.649 43.9807 429.247 44.128 430.027 44.128C431.067 44.128 431.925 43.8767 432.601 43.374C433.295 42.8713 433.641 42.2387 433.641 41.476L433.979 43.4C433.667 44.3187 433.113 45.0293 432.315 45.532C431.518 46.0173 430.547 46.26 429.403 46.26ZM439.957 46V32.74H442.531V35.86H442.661V46H439.957ZM449.369 46V37.472C449.369 36.5533 449.135 35.8687 448.667 35.418C448.216 34.9673 447.54 34.742 446.639 34.742C445.859 34.742 445.165 34.9153 444.559 35.262C443.969 35.6087 443.501 36.0853 443.155 36.692C442.825 37.2987 442.661 38.018 442.661 38.85L442.323 35.678C442.756 34.69 443.423 33.91 444.325 33.338C445.226 32.766 446.275 32.48 447.471 32.48C448.892 32.48 450.01 32.8787 450.825 33.676C451.639 34.4733 452.047 35.5307 452.047 36.848V46H449.369ZM465.292 46V42.958L465.552 43.036C465.275 44.024 464.703 44.8127 463.836 45.402C462.97 45.974 461.93 46.26 460.716 46.26C459.52 46.26 458.472 45.974 457.57 45.402C456.686 44.83 455.993 44.0327 455.49 43.01C455.005 41.9873 454.762 40.7913 454.762 39.422C454.762 38.0353 455.014 36.822 455.516 35.782C456.019 34.742 456.721 33.936 457.622 33.364C458.524 32.792 459.581 32.506 460.794 32.506C462.06 32.506 463.1 32.8093 463.914 33.416C464.746 34.0053 465.292 34.8373 465.552 35.912L465.188 35.964V27.28H467.866V46H465.292ZM461.392 43.998C462.588 43.998 463.533 43.5907 464.226 42.776C464.92 41.944 465.266 40.8 465.266 39.344C465.266 37.9227 464.911 36.8047 464.2 35.99C463.507 35.158 462.562 34.742 461.366 34.742C460.188 34.742 459.252 35.158 458.558 35.99C457.882 36.8047 457.544 37.9487 457.544 39.422C457.544 40.8607 457.882 41.9873 458.558 42.802C459.252 43.5993 460.196 43.998 461.392 43.998ZM482.393 51.59C480.555 51.59 479.056 51.2 477.895 50.42C476.751 49.64 476.075 48.5827 475.867 47.248H479.559C479.697 47.5773 479.992 47.8287 480.443 48.002C480.911 48.1753 481.5 48.262 482.211 48.262C483.389 48.262 484.247 48.0367 484.785 47.586C485.322 47.1353 485.591 46.4333 485.591 45.48V42.594L485.799 42.646C485.625 43.6167 485.123 44.388 484.291 44.96C483.459 45.5147 482.427 45.792 481.197 45.792C480.018 45.792 478.987 45.5233 478.103 44.986C477.236 44.4313 476.56 43.66 476.075 42.672C475.589 41.684 475.347 40.5227 475.347 39.188C475.347 37.836 475.598 36.6573 476.101 35.652C476.603 34.6467 477.305 33.8667 478.207 33.312C479.125 32.7573 480.191 32.48 481.405 32.48C482.653 32.48 483.667 32.7747 484.447 33.364C485.244 33.9533 485.712 34.7593 485.851 35.782L485.669 35.808V32.74H489.491V45.428C489.491 47.3347 488.858 48.834 487.593 49.926C486.327 51.0353 484.594 51.59 482.393 51.59ZM482.549 42.802C483.467 42.802 484.213 42.49 484.785 41.866C485.357 41.2247 485.643 40.3147 485.643 39.136C485.643 37.9573 485.348 37.056 484.759 36.432C484.187 35.7907 483.433 35.47 482.497 35.47C481.595 35.47 480.85 35.7907 480.261 36.432C479.689 37.0733 479.403 37.9833 479.403 39.162C479.403 40.3407 479.689 41.242 480.261 41.866C480.85 42.49 481.613 42.802 482.549 42.802ZM498.849 46.26C497.375 46.26 496.093 45.974 495.001 45.402C493.909 44.8127 493.059 43.998 492.453 42.958C491.863 41.918 491.569 40.722 491.569 39.37C491.569 38.0007 491.863 36.8047 492.453 35.782C493.059 34.742 493.9 33.936 494.975 33.364C496.049 32.7747 497.297 32.48 498.719 32.48C500.088 32.48 501.275 32.7573 502.281 33.312C503.286 33.8667 504.066 34.638 504.621 35.626C505.175 36.614 505.453 37.7753 505.453 39.11C505.453 39.3873 505.444 39.6473 505.427 39.89C505.409 40.1153 505.383 40.332 505.349 40.54H493.857V37.966H502.203L501.527 38.434C501.527 37.3593 501.267 36.5707 500.747 36.068C500.244 35.548 499.551 35.288 498.667 35.288C497.644 35.288 496.847 35.6347 496.275 36.328C495.72 37.0213 495.443 38.0613 495.443 39.448C495.443 40.8 495.72 41.8053 496.275 42.464C496.847 43.1227 497.696 43.452 498.823 43.452C499.447 43.452 499.984 43.348 500.435 43.14C500.885 42.932 501.223 42.594 501.449 42.126H505.115C504.681 43.4087 503.936 44.4227 502.879 45.168C501.839 45.896 500.495 46.26 498.849 46.26ZM513.475 46.286C511.776 46.286 510.511 45.8787 509.679 45.064C508.864 44.232 508.457 42.9753 508.457 41.294V29.776L512.357 28.32V41.424C512.357 42.0133 512.522 42.4553 512.851 42.75C513.18 43.0447 513.692 43.192 514.385 43.192C514.645 43.192 514.888 43.166 515.113 43.114C515.338 43.062 515.564 43.0013 515.789 42.932V45.896C515.564 46.0173 515.243 46.1127 514.827 46.182C514.428 46.2513 513.978 46.286 513.475 46.286ZM505.987 35.704V32.74H515.789V35.704H505.987ZM522.818 46V27.28H526.822V46H522.818ZM529.679 46V32.74H533.501V35.86H533.579V46H529.679ZM538.909 46V37.784C538.909 37.056 538.718 36.51 538.337 36.146C537.973 35.782 537.436 35.6 536.725 35.6C536.118 35.6 535.572 35.7387 535.087 36.016C534.619 36.2933 534.246 36.6747 533.969 37.16C533.709 37.6453 533.579 38.2173 533.579 38.876L533.241 35.678C533.674 34.7073 534.307 33.936 535.139 33.364C535.988 32.7747 537.028 32.48 538.259 32.48C539.732 32.48 540.859 32.896 541.639 33.728C542.419 34.5427 542.809 35.6433 542.809 37.03V46H538.909ZM551.485 46.286C549.786 46.286 548.521 45.8787 547.689 45.064C546.874 44.232 546.467 42.9753 546.467 41.294V29.776L550.367 28.32V41.424C550.367 42.0133 550.531 42.4553 550.861 42.75C551.19 43.0447 551.701 43.192 552.395 43.192C552.655 43.192 552.897 43.166 553.123 43.114C553.348 43.062 553.573 43.0013 553.799 42.932V45.896C553.573 46.0173 553.253 46.1127 552.837 46.182C552.438 46.2513 551.987 46.286 551.485 46.286ZM543.997 35.704V32.74H553.799V35.704H543.997ZM561.919 46.26C560.446 46.26 559.163 45.974 558.071 45.402C556.979 44.8127 556.13 43.998 555.523 42.958C554.934 41.918 554.639 40.722 554.639 39.37C554.639 38.0007 554.934 36.8047 555.523 35.782C556.13 34.742 556.97 33.936 558.045 33.364C559.12 32.7747 560.368 32.48 561.789 32.48C563.158 32.48 564.346 32.7573 565.351 33.312C566.356 33.8667 567.136 34.638 567.691 35.626C568.246 36.614 568.523 37.7753 568.523 39.11C568.523 39.3873 568.514 39.6473 568.497 39.89C568.48 40.1153 568.454 40.332 568.419 40.54H556.927V37.966H565.273L564.597 38.434C564.597 37.3593 564.337 36.5707 563.817 36.068C563.314 35.548 562.621 35.288 561.737 35.288C560.714 35.288 559.917 35.6347 559.345 36.328C558.79 37.0213 558.513 38.0613 558.513 39.448C558.513 40.8 558.79 41.8053 559.345 42.464C559.917 43.1227 560.766 43.452 561.893 43.452C562.517 43.452 563.054 43.348 563.505 43.14C563.956 42.932 564.294 42.594 564.519 42.126H568.185C567.752 43.4087 567.006 44.4227 565.949 45.168C564.909 45.896 563.566 46.26 561.919 46.26ZM570.609 46V32.74H574.431V35.86H574.509V46H570.609ZM574.509 39.084L574.171 35.938C574.483 34.8113 574.994 33.9533 575.705 33.364C576.415 32.7747 577.299 32.48 578.357 32.48C578.686 32.48 578.929 32.5147 579.085 32.584V36.224C578.998 36.1893 578.877 36.172 578.721 36.172C578.565 36.1547 578.374 36.146 578.149 36.146C576.901 36.146 575.982 36.3713 575.393 36.822C574.803 37.2553 574.509 38.0093 574.509 39.084ZM580.968 46V32.74H584.79V35.86H584.868V46H580.968ZM590.198 46V37.784C590.198 37.056 590.008 36.51 589.626 36.146C589.262 35.782 588.725 35.6 588.014 35.6C587.408 35.6 586.862 35.7387 586.376 36.016C585.908 36.2933 585.536 36.6747 585.258 37.16C584.998 37.6453 584.868 38.2173 584.868 38.876L584.53 35.678C584.964 34.7073 585.596 33.936 586.428 33.364C587.278 32.7747 588.318 32.48 589.548 32.48C591.022 32.48 592.148 32.896 592.928 33.728C593.708 34.5427 594.098 35.6433 594.098 37.03V46H590.198ZM605.508 46L601.582 40.176L595.94 32.74H600.308L603.818 37.966L609.876 46H605.508ZM601.894 37.758L605.404 32.74H609.668L603.74 40.488L601.894 37.758ZM603.402 40.696L599.632 46H595.394L601.556 37.966L603.402 40.696ZM618.262 46.286C616.563 46.286 615.298 45.8787 614.466 45.064C613.651 44.232 613.244 42.9753 613.244 41.294V29.776L617.144 28.32V41.424C617.144 42.0133 617.309 42.4553 617.638 42.75C617.967 43.0447 618.479 43.192 619.172 43.192C619.432 43.192 619.675 43.166 619.9 43.114C620.125 43.062 620.351 43.0013 620.576 42.932V45.896C620.351 46.0173 620.03 46.1127 619.614 46.182C619.215 46.2513 618.765 46.286 618.262 46.286ZM610.774 35.704V32.74H620.576V35.704H610.774ZM623.199 35.08L622.211 31.726C622.003 31.0327 621.847 30.4693 621.743 30.036C621.656 29.5853 621.613 29.1433 621.613 28.71C621.613 28.398 621.682 28.0687 621.821 27.722C621.977 27.3753 622.211 27.0893 622.523 26.864C622.852 26.6213 623.277 26.5 623.797 26.5C624.317 26.5 624.733 26.6213 625.045 26.864C625.374 27.0893 625.608 27.3753 625.747 27.722C625.903 28.0687 625.981 28.398 625.981 28.71C625.981 29.1433 625.929 29.5853 625.825 30.036C625.738 30.4693 625.591 31.0327 625.383 31.726L624.395 35.08H623.199ZM632.307 46.26C630.365 46.26 628.823 45.87 627.679 45.09C626.535 44.31 625.911 43.2353 625.807 41.866H629.291C629.377 42.4553 629.672 42.906 630.175 43.218C630.695 43.5127 631.405 43.66 632.307 43.66C633.121 43.66 633.711 43.5473 634.075 43.322C634.456 43.0793 634.647 42.7413 634.647 42.308C634.647 41.9787 634.534 41.7273 634.309 41.554C634.101 41.3633 633.711 41.2073 633.139 41.086L631.007 40.644C629.429 40.3147 628.268 39.8207 627.523 39.162C626.777 38.486 626.405 37.6193 626.405 36.562C626.405 35.2793 626.899 34.2827 627.887 33.572C628.875 32.844 630.253 32.48 632.021 32.48C633.771 32.48 635.167 32.8353 636.207 33.546C637.247 34.2393 637.819 35.21 637.923 36.458H634.439C634.369 36.0073 634.127 35.6693 633.711 35.444C633.295 35.2013 632.705 35.08 631.943 35.08C631.249 35.08 630.729 35.184 630.383 35.392C630.053 35.5827 629.889 35.86 629.889 36.224C629.889 36.536 630.027 36.7873 630.305 36.978C630.582 37.1513 631.041 37.3073 631.683 37.446L634.075 37.94C635.409 38.2173 636.415 38.7373 637.091 39.5C637.784 40.2453 638.131 41.1293 638.131 42.152C638.131 43.452 637.619 44.466 636.597 45.194C635.591 45.9047 634.161 46.26 632.307 46.26ZM651.087 46.26C649.163 46.26 647.586 45.766 646.355 44.778C645.125 43.79 644.362 42.4033 644.067 40.618H648.045C648.184 41.4153 648.531 42.048 649.085 42.516C649.64 42.9667 650.273 43.192 650.983 43.192C651.798 43.192 652.448 42.9147 652.933 42.36C653.436 41.788 653.687 40.93 653.687 39.786C653.687 38.694 653.453 37.862 652.985 37.29C652.517 36.7007 651.876 36.406 651.061 36.406C650.593 36.406 650.151 36.5187 649.735 36.744C649.319 36.952 648.973 37.2987 648.695 37.784H645.055L646.017 27.28H656.781V30.348H647.421L649.553 30.062L649.085 35.912L647.785 35.73C648.236 35.0193 648.782 34.482 649.423 34.118C650.082 33.7367 650.914 33.546 651.919 33.546C653.115 33.546 654.164 33.806 655.065 34.326C655.967 34.846 656.669 35.574 657.171 36.51C657.674 37.446 657.925 38.5553 657.925 39.838C657.925 41.19 657.639 42.3427 657.067 43.296C656.495 44.2493 655.698 44.986 654.675 45.506C653.653 46.0087 652.457 46.26 651.087 46.26ZM665.386 46V30.348H659.276V27.28H675.5V30.348H669.39V46H665.386ZM680.646 46V43.14H685.482C686.349 43.14 686.999 42.906 687.432 42.438C687.883 41.9527 688.108 41.2853 688.108 40.436C688.108 39.5693 687.866 38.8847 687.38 38.382C686.912 37.8793 686.236 37.628 685.352 37.628H680.646V34.768H685.144C685.959 34.768 686.574 34.5773 686.99 34.196C687.424 33.7973 687.64 33.2167 687.64 32.454C687.64 31.6913 687.432 31.1193 687.016 30.738C686.618 30.3393 686.02 30.14 685.222 30.14H680.646V27.28H686.08C687.744 27.28 689.088 27.7047 690.11 28.554C691.133 29.4033 691.644 30.556 691.644 32.012C691.644 32.9307 691.428 33.7193 690.994 34.378C690.561 35.0367 689.98 35.5393 689.252 35.886C688.524 36.2327 687.71 36.406 686.808 36.406L686.938 35.86C687.909 35.86 688.784 36.068 689.564 36.484C690.362 36.9 690.994 37.4893 691.462 38.252C691.93 38.9973 692.164 39.8813 692.164 40.904C692.164 41.9267 691.922 42.828 691.436 43.608C690.968 44.3707 690.301 44.96 689.434 45.376C688.585 45.792 687.58 46 686.418 46H680.646ZM677.37 46V27.28H681.374V46H677.37ZM707.812 46C707.708 45.6187 707.63 45.2113 707.578 44.778C707.544 44.3447 707.526 43.842 707.526 43.27H707.422V37.004C707.422 36.4667 707.24 36.0507 706.876 35.756C706.53 35.444 706.01 35.288 705.316 35.288C704.658 35.288 704.129 35.4007 703.73 35.626C703.349 35.8513 703.098 36.1807 702.976 36.614H699.258C699.432 35.418 700.047 34.43 701.104 33.65C702.162 32.87 703.609 32.48 705.446 32.48C707.353 32.48 708.809 32.9047 709.814 33.754C710.82 34.6033 711.322 35.8253 711.322 37.42V43.27C711.322 43.7033 711.348 44.1453 711.4 44.596C711.47 45.0293 711.574 45.4973 711.712 46H707.812ZM703.184 46.26C701.867 46.26 700.818 45.9307 700.038 45.272C699.258 44.596 698.868 43.7033 698.868 42.594C698.868 41.3633 699.328 40.3753 700.246 39.63C701.182 38.8673 702.482 38.3733 704.146 38.148L708.02 37.602V39.864L704.796 40.358C704.103 40.462 703.592 40.6527 703.262 40.93C702.933 41.2073 702.768 41.5887 702.768 42.074C702.768 42.5073 702.924 42.8367 703.236 43.062C703.548 43.2873 703.964 43.4 704.484 43.4C705.299 43.4 705.992 43.1833 706.564 42.75C707.136 42.2993 707.422 41.7793 707.422 41.19L707.786 43.27C707.405 44.258 706.824 45.0033 706.044 45.506C705.264 46.0087 704.311 46.26 703.184 46.26ZM714.32 46V32.74H718.142V35.86H718.22V46H714.32ZM723.55 46V37.784C723.55 37.056 723.359 36.51 722.978 36.146C722.614 35.782 722.076 35.6 721.366 35.6C720.759 35.6 720.213 35.7387 719.728 36.016C719.26 36.2933 718.887 36.6747 718.61 37.16C718.35 37.6453 718.22 38.2173 718.22 38.876L717.882 35.678C718.315 34.7073 718.948 33.936 719.78 33.364C720.629 32.7747 721.669 32.48 722.9 32.48C724.373 32.48 725.5 32.896 726.28 33.728C727.06 34.5427 727.45 35.6433 727.45 37.03V46H723.55ZM730.417 46V32.74H734.239V35.86H734.317V46H730.417ZM739.647 46V37.784C739.647 37.056 739.457 36.51 739.075 36.146C738.711 35.782 738.174 35.6 737.463 35.6C736.857 35.6 736.311 35.7387 735.825 36.016C735.357 36.2933 734.985 36.6747 734.707 37.16C734.447 37.6453 734.317 38.2173 734.317 38.876L733.979 35.678C734.413 34.7073 735.045 33.936 735.877 33.364C736.727 32.7747 737.767 32.48 738.997 32.48C740.471 32.48 741.597 32.896 742.377 33.728C743.157 34.5427 743.547 35.6433 743.547 37.03V46H739.647ZM750.373 46.26C749.437 46.26 748.631 46.0607 747.955 45.662C747.297 45.246 746.794 44.7 746.447 44.024C746.101 43.3307 745.927 42.5593 745.927 41.71V32.74H749.827V40.956C749.827 41.684 750.009 42.23 750.373 42.594C750.737 42.958 751.249 43.14 751.907 43.14C752.497 43.14 753.017 43.0013 753.467 42.724C753.918 42.4467 754.273 42.0653 754.533 41.58C754.811 41.0773 754.949 40.5053 754.949 39.864L755.287 43.062C754.854 44.0153 754.221 44.7867 753.389 45.376C752.557 45.9653 751.552 46.26 750.373 46.26ZM755.027 46V42.88H754.949V32.74H758.849V46H755.027ZM769.918 46C769.814 45.6187 769.736 45.2113 769.684 44.778C769.649 44.3447 769.632 43.842 769.632 43.27H769.528V37.004C769.528 36.4667 769.346 36.0507 768.982 35.756C768.635 35.444 768.115 35.288 767.422 35.288C766.763 35.288 766.234 35.4007 765.836 35.626C765.454 35.8513 765.203 36.1807 765.082 36.614H761.364C761.537 35.418 762.152 34.43 763.21 33.65C764.267 32.87 765.714 32.48 767.552 32.48C769.458 32.48 770.914 32.9047 771.92 33.754C772.925 34.6033 773.428 35.8253 773.428 37.42V43.27C773.428 43.7033 773.454 44.1453 773.506 44.596C773.575 45.0293 773.679 45.4973 773.818 46H769.918ZM765.29 46.26C763.972 46.26 762.924 45.9307 762.144 45.272C761.364 44.596 760.974 43.7033 760.974 42.594C760.974 41.3633 761.433 40.3753 762.352 39.63C763.288 38.8673 764.588 38.3733 766.252 38.148L770.126 37.602V39.864L766.902 40.358C766.208 40.462 765.697 40.6527 765.368 40.93C765.038 41.2073 764.874 41.5887 764.874 42.074C764.874 42.5073 765.03 42.8367 765.342 43.062C765.654 43.2873 766.07 43.4 766.59 43.4C767.404 43.4 768.098 43.1833 768.67 42.75C769.242 42.2993 769.528 41.7793 769.528 41.19L769.892 43.27C769.51 44.258 768.93 45.0033 768.15 45.506C767.37 46.0087 766.416 46.26 765.29 46.26ZM776.425 46V27.28H780.325V46H776.425ZM796.47 46.26C795.205 46.26 794.191 45.9653 793.428 45.376C792.666 44.7867 792.215 43.9807 792.076 42.958L792.284 42.932V51.33H788.384V32.74H792.206V35.678L791.972 35.626C792.163 34.6553 792.683 33.8927 793.532 33.338C794.382 32.766 795.43 32.48 796.678 32.48C797.874 32.48 798.906 32.766 799.772 33.338C800.656 33.8927 801.332 34.6813 801.8 35.704C802.286 36.7267 802.528 37.9313 802.528 39.318C802.528 40.722 802.277 41.944 801.774 42.984C801.272 44.024 800.57 44.83 799.668 45.402C798.767 45.974 797.701 46.26 796.47 46.26ZM795.378 43.14C796.297 43.14 797.042 42.8107 797.614 42.152C798.186 41.4933 798.472 40.5573 798.472 39.344C798.472 38.1307 798.178 37.2033 797.588 36.562C797.016 35.9207 796.262 35.6 795.326 35.6C794.425 35.6 793.68 35.9293 793.09 36.588C792.518 37.2293 792.232 38.1567 792.232 39.37C792.232 40.5833 792.518 41.5193 793.09 42.178C793.68 42.8193 794.442 43.14 795.378 43.14ZM804.71 46V27.28H808.61V46H804.71ZM820.064 46C819.96 45.6187 819.882 45.2113 819.83 44.778C819.796 44.3447 819.778 43.842 819.778 43.27H819.674V37.004C819.674 36.4667 819.492 36.0507 819.128 35.756C818.782 35.444 818.262 35.288 817.568 35.288C816.91 35.288 816.381 35.4007 815.982 35.626C815.601 35.8513 815.35 36.1807 815.228 36.614H811.51C811.684 35.418 812.299 34.43 813.356 33.65C814.414 32.87 815.861 32.48 817.698 32.48C819.605 32.48 821.061 32.9047 822.066 33.754C823.072 34.6033 823.574 35.8253 823.574 37.42V43.27C823.574 43.7033 823.6 44.1453 823.652 44.596C823.722 45.0293 823.826 45.4973 823.964 46H820.064ZM815.436 46.26C814.119 46.26 813.07 45.9307 812.29 45.272C811.51 44.596 811.12 43.7033 811.12 42.594C811.12 41.3633 811.58 40.3753 812.498 39.63C813.434 38.8673 814.734 38.3733 816.398 38.148L820.272 37.602V39.864L817.048 40.358C816.355 40.462 815.844 40.6527 815.514 40.93C815.185 41.2073 815.02 41.5887 815.02 42.074C815.02 42.5073 815.176 42.8367 815.488 43.062C815.8 43.2873 816.216 43.4 816.736 43.4C817.551 43.4 818.244 43.1833 818.816 42.75C819.388 42.2993 819.674 41.7793 819.674 41.19L820.038 43.27C819.657 44.258 819.076 45.0033 818.296 45.506C817.516 46.0087 816.563 46.26 815.436 46.26ZM826.572 46V32.74H830.394V35.86H830.472V46H826.572ZM835.802 46V37.784C835.802 37.056 835.611 36.51 835.23 36.146C834.866 35.782 834.328 35.6 833.618 35.6C833.011 35.6 832.465 35.7387 831.98 36.016C831.512 36.2933 831.139 36.6747 830.862 37.16C830.602 37.6453 830.472 38.2173 830.472 38.876L830.134 35.678C830.567 34.7073 831.2 33.936 832.032 33.364C832.881 32.7747 833.921 32.48 835.152 32.48C836.625 32.48 837.752 32.896 838.532 33.728C839.312 34.5427 839.702 35.6433 839.702 37.03V46H835.802ZM848.635 46V31.856C848.635 30.2613 849.068 29.0567 849.935 28.242C850.801 27.4273 852.084 27.02 853.783 27.02C854.147 27.02 854.459 27.0373 854.719 27.072C854.996 27.1067 855.265 27.1673 855.525 27.254V30.244C855.403 30.192 855.256 30.1573 855.083 30.14C854.909 30.1053 854.701 30.088 854.459 30.088C853.8 30.088 853.315 30.244 853.003 30.556C852.691 30.868 852.535 31.3187 852.535 31.908V46H848.635ZM846.425 35.704V32.74H855.239V35.704H846.425ZM863.104 46.26C861.648 46.26 860.365 45.974 859.256 45.402C858.164 44.8127 857.306 43.998 856.682 42.958C856.075 41.9007 855.772 40.6873 855.772 39.318C855.772 37.9487 856.075 36.7527 856.682 35.73C857.306 34.7073 858.164 33.91 859.256 33.338C860.365 32.766 861.648 32.48 863.104 32.48C864.577 32.48 865.86 32.766 866.952 33.338C868.061 33.91 868.919 34.7073 869.526 35.73C870.133 36.7527 870.436 37.9487 870.436 39.318C870.436 40.6873 870.124 41.9007 869.5 42.958C868.893 43.998 868.035 44.8127 866.926 45.402C865.834 45.974 864.56 46.26 863.104 46.26ZM863.104 43.192C863.711 43.192 864.257 43.036 864.742 42.724C865.245 42.412 865.643 41.97 865.938 41.398C866.233 40.8087 866.38 40.1067 866.38 39.292C866.38 38.096 866.059 37.1773 865.418 36.536C864.794 35.8773 864.023 35.548 863.104 35.548C862.185 35.548 861.405 35.8773 860.764 36.536C860.14 37.1947 859.828 38.1133 859.828 39.292C859.828 40.1067 859.975 40.8087 860.27 41.398C860.565 41.97 860.955 42.412 861.44 42.724C861.943 43.036 862.497 43.192 863.104 43.192ZM872.503 46V32.74H876.325V35.86H876.403V46H872.503ZM876.403 39.084L876.065 35.938C876.377 34.8113 876.889 33.9533 877.599 33.364C878.31 32.7747 879.194 32.48 880.251 32.48C880.581 32.48 880.823 32.5147 880.979 32.584V36.224C880.893 36.1893 880.771 36.172 880.615 36.172C880.459 36.1547 880.269 36.146 880.043 36.146C878.795 36.146 877.877 36.3713 877.287 36.822C876.698 37.2553 876.403 38.0093 876.403 39.084Z" fill="#18181B"/>
<path d="M890.128 46C890.388 43.036 891.116 40.1847 892.312 37.446C893.525 34.69 895.059 32.1593 896.914 29.854V30.348H886.878V27.28H900.684V30.14C899.505 31.8213 898.474 33.5113 897.59 35.21C896.706 36.9087 895.995 38.6507 895.458 40.436C894.921 42.204 894.574 44.0587 894.418 46H890.128ZM908.218 46.26C906.294 46.26 904.717 45.766 903.486 44.778C902.256 43.79 901.493 42.4033 901.198 40.618H905.176C905.315 41.4153 905.662 42.048 906.216 42.516C906.771 42.9667 907.404 43.192 908.114 43.192C908.929 43.192 909.579 42.9147 910.064 42.36C910.567 41.788 910.818 40.93 910.818 39.786C910.818 38.694 910.584 37.862 910.116 37.29C909.648 36.7007 909.007 36.406 908.192 36.406C907.724 36.406 907.282 36.5187 906.866 36.744C906.45 36.952 906.104 37.2987 905.826 37.784H902.186L903.148 27.28H913.912V30.348H904.552L906.684 30.062L906.216 35.912L904.916 35.73C905.367 35.0193 905.913 34.482 906.554 34.118C907.213 33.7367 908.045 33.546 909.05 33.546C910.246 33.546 911.295 33.806 912.196 34.326C913.098 34.846 913.8 35.574 914.302 36.51C914.805 37.446 915.056 38.5553 915.056 39.838C915.056 41.19 914.77 42.3427 914.198 43.296C913.626 44.2493 912.829 44.986 911.806 45.506C910.784 46.0087 909.588 46.26 908.218 46.26ZM916.768 46L930.444 27.28H933.434L919.784 46H916.768ZM930.08 46.26C929.352 46.26 928.668 46.0867 928.026 45.74C927.385 45.3933 926.865 44.8647 926.466 44.154C926.068 43.4433 925.868 42.542 925.868 41.45C925.868 40.358 926.059 39.4653 926.44 38.772C926.839 38.0613 927.359 37.5327 928 37.186C928.642 36.8393 929.335 36.666 930.08 36.666C930.86 36.666 931.571 36.8393 932.212 37.186C932.871 37.5327 933.391 38.0613 933.772 38.772C934.154 39.4653 934.344 40.358 934.344 41.45C934.344 42.542 934.145 43.4433 933.746 44.154C933.348 44.8647 932.819 45.3933 932.16 45.74C931.519 46.0867 930.826 46.26 930.08 46.26ZM930.08 44.024C930.618 44.024 931.068 43.8073 931.432 43.374C931.796 42.9233 931.978 42.2733 931.978 41.424C931.978 40.6093 931.796 39.9853 931.432 39.552C931.086 39.1187 930.635 38.902 930.08 38.902C929.526 38.902 929.075 39.1187 928.728 39.552C928.399 39.9853 928.234 40.6093 928.234 41.424C928.234 42.2733 928.399 42.9233 928.728 43.374C929.075 43.8073 929.526 44.024 930.08 44.024ZM919.94 36.614C919.195 36.614 918.502 36.4407 917.86 36.094C917.219 35.7473 916.699 35.2187 916.3 34.508C915.919 33.7973 915.728 32.896 915.728 31.804C915.728 30.712 915.919 29.8193 916.3 29.126C916.699 28.4153 917.219 27.8867 917.86 27.54C918.502 27.1933 919.195 27.02 919.94 27.02C920.72 27.02 921.431 27.1933 922.072 27.54C922.714 27.8867 923.225 28.4153 923.606 29.126C923.988 29.8193 924.178 30.712 924.178 31.804C924.178 32.896 923.979 33.7973 923.58 34.508C923.182 35.2187 922.662 35.7473 922.02 36.094C921.379 36.4407 920.686 36.614 919.94 36.614ZM919.94 34.378C920.478 34.378 920.928 34.1613 921.292 33.728C921.656 33.2773 921.838 32.6273 921.838 31.778C921.838 30.9633 921.656 30.3393 921.292 29.906C920.946 29.4727 920.495 29.256 919.94 29.256C919.386 29.256 918.935 29.4727 918.588 29.906C918.259 30.322 918.094 30.946 918.094 31.778C918.094 32.6273 918.259 33.2773 918.588 33.728C918.935 34.1613 919.386 34.378 919.94 34.378ZM950.583 46.26C949.196 46.26 947.914 46.026 946.735 45.558C945.574 45.09 944.56 44.4313 943.693 43.582C942.844 42.7153 942.176 41.6927 941.691 40.514C941.223 39.318 940.989 38.0007 940.989 36.562C940.989 34.6553 941.396 32.9913 942.211 31.57C943.026 30.1313 944.152 29.0133 945.591 28.216C947.047 27.4187 948.702 27.02 950.557 27.02C952.446 27.02 954.11 27.4187 955.549 28.216C956.988 29.0133 958.114 30.1313 958.929 31.57C959.761 33.0087 960.177 34.6813 960.177 36.588C960.177 38.0093 959.934 39.318 959.449 40.514C958.981 41.6927 958.314 42.7153 957.447 43.582C956.598 44.4313 955.584 45.09 954.405 45.558C953.244 46.026 951.97 46.26 950.583 46.26ZM950.557 43.088C951.649 43.088 952.611 42.8107 953.443 42.256C954.275 41.7013 954.925 40.9387 955.393 39.968C955.878 38.98 956.121 37.836 956.121 36.536C956.121 35.2533 955.887 34.1353 955.419 33.182C954.951 32.2287 954.301 31.492 953.469 30.972C952.637 30.452 951.666 30.192 950.557 30.192C949.465 30.192 948.503 30.452 947.671 30.972C946.839 31.492 946.189 32.2287 945.721 33.182C945.27 34.118 945.045 35.236 945.045 36.536C945.045 37.8533 945.279 39.006 945.747 39.994C946.215 40.9647 946.865 41.7273 947.697 42.282C948.529 42.8193 949.482 43.088 950.557 43.088ZM962.253 46V27.28H966.257V46H962.253ZM964.125 38.746V35.678H974.863V38.746H964.125ZM964.125 30.348V27.28H975.461V30.348H964.125ZM977.589 46V27.28H981.593V46H977.589ZM979.461 38.746V35.678H990.199V38.746H979.461ZM979.461 30.348V27.28H990.797V30.348H979.461Z" fill="#FF0D00"/>
<path d="M1060.24 51.6191L1052.37 59.4941C1052.2 59.6582 1051.98 59.7505 1051.75 59.7505C1051.52 59.7505 1051.3 59.6582 1051.13 59.4941C1050.97 59.3299 1050.87 59.1072 1050.87 58.875C1050.87 58.6428 1050.97 58.4201 1051.13 58.2559L1057.51 51.875H1040.37C1040.14 51.875 1039.92 51.7828 1039.76 51.6187C1039.59 51.4546 1039.5 51.2321 1039.5 51C1039.5 50.7679 1039.59 50.5454 1039.76 50.3813C1039.92 50.2172 1040.14 50.125 1040.37 50.125H1057.51L1051.13 43.7441C1050.97 43.5799 1050.87 43.3572 1050.87 43.125C1050.87 42.8928 1050.97 42.6701 1051.13 42.5059C1051.3 42.3418 1051.52 42.2495 1051.75 42.2495C1051.98 42.2495 1052.2 42.3418 1052.37 42.5059L1060.24 50.3809C1060.33 50.4622 1060.39 50.5587 1060.43 50.6649C1060.48 50.7711 1060.5 50.885 1060.5 51C1060.5 51.115 1060.48 51.2288 1060.43 51.3351C1060.39 51.4413 1060.33 51.5378 1060.24 51.6191Z" fill="black"/>
<path d="M332.436 70.756L332.688 69.256L331.452 70.216L331.02 69.484L332.484 68.944L331.02 68.392L331.452 67.66L332.688 68.62L332.436 67.12H333.3L333.048 68.62L334.284 67.66L334.716 68.392L333.252 68.944L334.716 69.484L334.284 70.216L333.048 69.256L333.3 70.756H332.436ZM338.899 76L335.563 67.36H336.619L339.715 75.568H339.355L342.439 67.36H343.435L340.099 76H338.899ZM347.71 76C347.678 75.864 347.654 75.708 347.638 75.532C347.63 75.356 347.626 75.132 347.626 74.86H347.566V71.932C347.566 71.468 347.458 71.128 347.242 70.912C347.034 70.688 346.694 70.576 346.222 70.576C345.758 70.576 345.386 70.672 345.106 70.864C344.834 71.048 344.682 71.312 344.65 71.656H343.726C343.766 71.064 344.014 70.6 344.47 70.264C344.926 69.928 345.522 69.76 346.258 69.76C347.018 69.76 347.582 69.94 347.95 70.3C348.318 70.66 348.502 71.2 348.502 71.92V74.86C348.502 75.036 348.514 75.22 348.538 75.412C348.562 75.596 348.594 75.792 348.634 76H347.71ZM345.61 76.12C344.978 76.12 344.474 75.968 344.098 75.664C343.73 75.352 343.546 74.928 343.546 74.392C343.546 73.856 343.73 73.44 344.098 73.144C344.466 72.848 345.002 72.64 345.706 72.52L347.842 72.16V72.952L345.85 73.264C345.402 73.336 345.062 73.456 344.83 73.624C344.598 73.792 344.482 74.036 344.482 74.356C344.482 74.668 344.586 74.904 344.794 75.064C345.01 75.224 345.326 75.304 345.742 75.304C346.278 75.304 346.714 75.184 347.05 74.944C347.394 74.696 347.566 74.376 347.566 73.984L347.722 74.836C347.594 75.244 347.342 75.56 346.966 75.784C346.598 76.008 346.146 76.12 345.61 76.12ZM350.353 76V67.36H351.313V76H350.353ZM353.235 76V69.88H354.195V76H353.235ZM353.163 68.488V67.36H354.267V68.488H353.163ZM360.547 76V74.572L360.667 74.608C360.515 75.072 360.235 75.44 359.827 75.712C359.427 75.984 358.947 76.12 358.387 76.12C357.835 76.12 357.351 75.988 356.935 75.724C356.527 75.46 356.207 75.092 355.975 74.62C355.751 74.148 355.639 73.596 355.639 72.964C355.639 72.324 355.755 71.764 355.987 71.284C356.219 70.804 356.543 70.432 356.959 70.168C357.375 69.904 357.863 69.772 358.423 69.772C358.999 69.772 359.483 69.912 359.875 70.192C360.267 70.472 360.535 70.868 360.679 71.38L360.487 71.404V67.36H361.447V76H360.547ZM358.567 75.28C359.183 75.28 359.663 75.072 360.007 74.656C360.359 74.232 360.535 73.656 360.535 72.928C360.535 72.216 360.359 71.652 360.007 71.236C359.655 70.82 359.175 70.612 358.567 70.612C357.959 70.612 357.483 70.82 357.139 71.236C356.795 71.652 356.623 72.228 356.623 72.964C356.623 73.684 356.795 74.252 357.139 74.668C357.483 75.076 357.959 75.28 358.567 75.28ZM366.278 76V69.016C366.278 68.456 366.438 68.02 366.758 67.708C367.086 67.396 367.582 67.24 368.246 67.24C368.406 67.24 368.53 67.248 368.618 67.264C368.714 67.28 368.794 67.3 368.858 67.324V68.08C368.802 68.064 368.722 68.048 368.618 68.032C368.522 68.016 368.418 68.008 368.306 68.008C367.938 68.008 367.666 68.1 367.49 68.284C367.322 68.468 367.238 68.728 367.238 69.064V76H366.278ZM365.018 70.696V69.88H368.726V70.696H365.018ZM372.326 76.12C371.726 76.12 371.198 75.98 370.742 75.7C370.286 75.42 369.93 75.04 369.674 74.56C369.426 74.072 369.302 73.524 369.302 72.916C369.302 72.3 369.43 71.756 369.686 71.284C369.942 70.812 370.294 70.44 370.742 70.168C371.198 69.896 371.726 69.76 372.326 69.76C372.934 69.76 373.462 69.896 373.91 70.168C374.366 70.44 374.718 70.812 374.966 71.284C375.222 71.756 375.35 72.3 375.35 72.916C375.35 73.524 375.222 74.072 374.966 74.56C374.718 75.04 374.366 75.42 373.91 75.7C373.462 75.98 372.934 76.12 372.326 76.12ZM372.326 75.304C372.742 75.304 373.102 75.204 373.406 75.004C373.71 74.796 373.946 74.512 374.114 74.152C374.282 73.792 374.366 73.376 374.366 72.904C374.366 72.2 374.178 71.636 373.802 71.212C373.434 70.788 372.942 70.576 372.326 70.576C371.718 70.576 371.226 70.788 370.85 71.212C370.474 71.636 370.286 72.2 370.286 72.904C370.286 73.376 370.37 73.792 370.538 74.152C370.706 74.512 370.942 74.796 371.246 75.004C371.558 75.204 371.918 75.304 372.326 75.304ZM376.79 76V69.88H377.69V71.44H377.75V76H376.79ZM377.75 72.808L377.594 71.356C377.738 70.836 377.994 70.44 378.362 70.168C378.73 69.896 379.154 69.76 379.634 69.76C379.834 69.76 379.97 69.776 380.042 69.808V70.732C380.002 70.716 379.946 70.708 379.874 70.708C379.802 70.7 379.714 70.696 379.61 70.696C379.002 70.696 378.538 70.88 378.218 71.248C377.906 71.608 377.75 72.128 377.75 72.808ZM387.448 76C387.416 75.864 387.392 75.708 387.376 75.532C387.368 75.356 387.364 75.132 387.364 74.86H387.304V71.932C387.304 71.468 387.196 71.128 386.98 70.912C386.772 70.688 386.432 70.576 385.96 70.576C385.496 70.576 385.124 70.672 384.844 70.864C384.572 71.048 384.42 71.312 384.388 71.656H383.464C383.504 71.064 383.752 70.6 384.208 70.264C384.664 69.928 385.26 69.76 385.996 69.76C386.756 69.76 387.32 69.94 387.688 70.3C388.056 70.66 388.24 71.2 388.24 71.92V74.86C388.24 75.036 388.252 75.22 388.276 75.412C388.3 75.596 388.332 75.792 388.372 76H387.448ZM385.348 76.12C384.716 76.12 384.212 75.968 383.836 75.664C383.468 75.352 383.284 74.928 383.284 74.392C383.284 73.856 383.468 73.44 383.836 73.144C384.204 72.848 384.74 72.64 385.444 72.52L387.58 72.16V72.952L385.588 73.264C385.14 73.336 384.8 73.456 384.568 73.624C384.336 73.792 384.22 74.036 384.22 74.356C384.22 74.668 384.324 74.904 384.532 75.064C384.748 75.224 385.064 75.304 385.48 75.304C386.016 75.304 386.452 75.184 386.788 74.944C387.132 74.696 387.304 74.376 387.304 73.984L387.46 74.836C387.332 75.244 387.08 75.56 386.704 75.784C386.336 76.008 385.884 76.12 385.348 76.12ZM390.091 76V69.88H390.991V71.32H391.051V76H390.091ZM394.471 76V71.992C394.471 71.528 394.355 71.18 394.123 70.948C393.891 70.716 393.547 70.6 393.091 70.6C392.691 70.6 392.335 70.688 392.023 70.864C391.719 71.04 391.479 71.284 391.303 71.596C391.135 71.908 391.051 72.272 391.051 72.688L390.895 71.236C391.103 70.78 391.419 70.42 391.843 70.156C392.275 69.892 392.763 69.76 393.307 69.76C393.947 69.76 394.459 69.944 394.843 70.312C395.235 70.672 395.431 71.148 395.431 71.74V76H394.471ZM397.274 76V69.88H398.174V71.32H398.234V76H397.274ZM401.654 76V71.992C401.654 71.528 401.538 71.18 401.306 70.948C401.074 70.716 400.73 70.6 400.274 70.6C399.874 70.6 399.518 70.688 399.206 70.864C398.902 71.04 398.662 71.284 398.486 71.596C398.318 71.908 398.234 72.272 398.234 72.688L398.078 71.236C398.286 70.78 398.602 70.42 399.026 70.156C399.458 69.892 399.946 69.76 400.49 69.76C401.13 69.76 401.642 69.944 402.026 70.312C402.418 70.672 402.614 71.148 402.614 71.74V76H401.654ZM406.45 76.12C406.05 76.12 405.694 76.04 405.382 75.88C405.07 75.712 404.826 75.48 404.65 75.184C404.474 74.88 404.386 74.532 404.386 74.14V69.88H405.346V73.888C405.346 74.352 405.458 74.7 405.682 74.932C405.914 75.164 406.242 75.28 406.666 75.28C407.05 75.28 407.39 75.192 407.686 75.016C407.982 74.84 408.214 74.596 408.382 74.284C408.558 73.964 408.646 73.6 408.646 73.192L408.802 74.644C408.602 75.1 408.29 75.46 407.866 75.724C407.442 75.988 406.97 76.12 406.45 76.12ZM408.706 76V74.56H408.646V69.88H409.606V76H408.706ZM415.234 76C415.202 75.864 415.178 75.708 415.162 75.532C415.154 75.356 415.15 75.132 415.15 74.86H415.09V71.932C415.09 71.468 414.982 71.128 414.766 70.912C414.558 70.688 414.218 70.576 413.746 70.576C413.282 70.576 412.91 70.672 412.63 70.864C412.358 71.048 412.206 71.312 412.174 71.656H411.25C411.29 71.064 411.538 70.6 411.994 70.264C412.45 69.928 413.046 69.76 413.782 69.76C414.542 69.76 415.106 69.94 415.474 70.3C415.842 70.66 416.026 71.2 416.026 71.92V74.86C416.026 75.036 416.038 75.22 416.062 75.412C416.086 75.596 416.118 75.792 416.158 76H415.234ZM413.134 76.12C412.502 76.12 411.998 75.968 411.622 75.664C411.254 75.352 411.07 74.928 411.07 74.392C411.07 73.856 411.254 73.44 411.622 73.144C411.99 72.848 412.526 72.64 413.23 72.52L415.366 72.16V72.952L413.374 73.264C412.926 73.336 412.586 73.456 412.354 73.624C412.122 73.792 412.006 74.036 412.006 74.356C412.006 74.668 412.11 74.904 412.318 75.064C412.534 75.224 412.85 75.304 413.266 75.304C413.802 75.304 414.238 75.184 414.574 74.944C414.918 74.696 415.09 74.376 415.09 73.984L415.246 74.836C415.118 75.244 414.866 75.56 414.49 75.784C414.122 76.008 413.67 76.12 413.134 76.12ZM417.876 76V67.36H418.836V76H417.876ZM423.233 76V67.36H424.217V76H423.233ZM423.737 76V75.136H428.657V76H423.737ZM432.186 76.12C431.586 76.12 431.058 75.98 430.602 75.7C430.146 75.42 429.79 75.04 429.534 74.56C429.286 74.072 429.162 73.524 429.162 72.916C429.162 72.3 429.29 71.756 429.546 71.284C429.802 70.812 430.154 70.44 430.602 70.168C431.058 69.896 431.586 69.76 432.186 69.76C432.794 69.76 433.322 69.896 433.77 70.168C434.226 70.44 434.578 70.812 434.826 71.284C435.082 71.756 435.21 72.3 435.21 72.916C435.21 73.524 435.082 74.072 434.826 74.56C434.578 75.04 434.226 75.42 433.77 75.7C433.322 75.98 432.794 76.12 432.186 76.12ZM432.186 75.304C432.602 75.304 432.962 75.204 433.266 75.004C433.57 74.796 433.806 74.512 433.974 74.152C434.142 73.792 434.226 73.376 434.226 72.904C434.226 72.2 434.038 71.636 433.662 71.212C433.294 70.788 432.802 70.576 432.186 70.576C431.578 70.576 431.086 70.788 430.71 71.212C430.334 71.636 430.146 72.2 430.146 72.904C430.146 73.376 430.23 73.792 430.398 74.152C430.566 74.512 430.802 74.796 431.106 75.004C431.418 75.204 431.778 75.304 432.186 75.304ZM439.073 76.12C438.513 76.12 438.013 75.984 437.573 75.712C437.141 75.432 436.797 75.052 436.541 74.572C436.293 74.084 436.169 73.532 436.169 72.916C436.169 72.3 436.293 71.756 436.541 71.284C436.797 70.812 437.141 70.44 437.573 70.168C438.013 69.896 438.509 69.76 439.061 69.76C439.517 69.76 439.925 69.848 440.285 70.024C440.653 70.2 440.953 70.452 441.185 70.78C441.425 71.1 441.577 71.476 441.641 71.908H440.753C440.673 71.516 440.489 71.196 440.201 70.948C439.913 70.7 439.541 70.576 439.085 70.576C438.693 70.576 438.353 70.672 438.065 70.864C437.777 71.056 437.553 71.328 437.393 71.68C437.233 72.032 437.153 72.444 437.153 72.916C437.153 73.388 437.233 73.804 437.393 74.164C437.553 74.524 437.777 74.804 438.065 75.004C438.361 75.204 438.705 75.304 439.097 75.304C439.537 75.304 439.905 75.184 440.201 74.944C440.497 74.696 440.685 74.376 440.765 73.984H441.653C441.581 74.408 441.421 74.784 441.173 75.112C440.933 75.432 440.633 75.68 440.273 75.856C439.913 76.032 439.513 76.12 439.073 76.12ZM443.048 76V67.12H444.008V76H443.048ZM447.044 76L443.792 72.82L446.924 69.88H448.244L444.728 73.096L444.788 72.532L448.364 76H447.044ZM451.614 76.12C451.03 76.12 450.514 75.984 450.066 75.712C449.618 75.432 449.266 75.052 449.01 74.572C448.754 74.092 448.626 73.54 448.626 72.916C448.626 72.292 448.75 71.744 448.998 71.272C449.254 70.792 449.61 70.42 450.066 70.156C450.522 69.892 451.046 69.76 451.638 69.76C452.206 69.76 452.698 69.884 453.114 70.132C453.538 70.38 453.862 70.728 454.086 71.176C454.318 71.624 454.434 72.152 454.434 72.76C454.434 72.84 454.43 72.916 454.422 72.988C454.422 73.06 454.414 73.14 454.398 73.228H449.346V72.424H453.81L453.498 72.868C453.498 72.132 453.334 71.568 453.006 71.176C452.686 70.776 452.23 70.576 451.638 70.576C451.03 70.576 450.538 70.788 450.162 71.212C449.794 71.628 449.61 72.192 449.61 72.904C449.61 73.632 449.794 74.216 450.162 74.656C450.538 75.088 451.038 75.304 451.662 75.304C452.054 75.304 452.398 75.22 452.694 75.052C452.99 74.876 453.206 74.628 453.342 74.308H454.254C454.054 74.868 453.718 75.312 453.246 75.64C452.782 75.96 452.238 76.12 451.614 76.12ZM455.88 76V69.88H456.78V71.44H456.84V76H455.88ZM456.84 72.808L456.684 71.356C456.828 70.836 457.084 70.44 457.452 70.168C457.82 69.896 458.244 69.76 458.724 69.76C458.924 69.76 459.06 69.776 459.132 69.808V70.732C459.092 70.716 459.036 70.708 458.964 70.708C458.892 70.7 458.804 70.696 458.7 70.696C458.092 70.696 457.628 70.88 457.308 71.248C456.996 71.608 456.84 72.128 456.84 72.808ZM462.854 76V67.36H466.286C466.902 67.36 467.426 67.46 467.858 67.66C468.29 67.86 468.618 68.148 468.842 68.524C469.074 68.9 469.19 69.352 469.19 69.88C469.19 70.408 469.074 70.864 468.842 71.248C468.618 71.624 468.29 71.916 467.858 72.124C467.426 72.332 466.902 72.436 466.286 72.436H463.574V71.572H466.25C466.89 71.572 467.374 71.428 467.702 71.14C468.038 70.844 468.206 70.424 468.206 69.88C468.206 69.336 468.042 68.924 467.714 68.644C467.386 68.364 466.898 68.224 466.25 68.224H463.838V76H462.854ZM470.657 76V69.88H471.557V71.44H471.617V76H470.657ZM471.617 72.808L471.461 71.356C471.605 70.836 471.861 70.44 472.229 70.168C472.597 69.896 473.021 69.76 473.501 69.76C473.701 69.76 473.837 69.776 473.909 69.808V70.732C473.869 70.716 473.813 70.708 473.741 70.708C473.669 70.7 473.581 70.696 473.477 70.696C472.869 70.696 472.405 70.88 472.085 71.248C471.773 71.608 471.617 72.128 471.617 72.808ZM477.454 76.12C476.87 76.12 476.354 75.984 475.906 75.712C475.458 75.432 475.106 75.052 474.85 74.572C474.594 74.092 474.466 73.54 474.466 72.916C474.466 72.292 474.59 71.744 474.838 71.272C475.094 70.792 475.45 70.42 475.906 70.156C476.362 69.892 476.886 69.76 477.478 69.76C478.046 69.76 478.538 69.884 478.954 70.132C479.378 70.38 479.702 70.728 479.926 71.176C480.158 71.624 480.274 72.152 480.274 72.76C480.274 72.84 480.27 72.916 480.262 72.988C480.262 73.06 480.254 73.14 480.238 73.228H475.186V72.424H479.65L479.338 72.868C479.338 72.132 479.174 71.568 478.846 71.176C478.526 70.776 478.07 70.576 477.478 70.576C476.87 70.576 476.378 70.788 476.002 71.212C475.634 71.628 475.45 72.192 475.45 72.904C475.45 73.632 475.634 74.216 476.002 74.656C476.378 75.088 476.878 75.304 477.502 75.304C477.894 75.304 478.238 75.22 478.534 75.052C478.83 74.876 479.046 74.628 479.182 74.308H480.094C479.894 74.868 479.558 75.312 479.086 75.64C478.622 75.96 478.078 76.12 477.454 76.12ZM481.72 76V69.88H482.62V71.32H482.68V76H481.72ZM485.848 76V71.944C485.848 71.48 485.744 71.14 485.536 70.924C485.328 70.708 485.028 70.6 484.636 70.6C484.268 70.6 483.936 70.688 483.64 70.864C483.344 71.04 483.108 71.284 482.932 71.596C482.764 71.908 482.68 72.272 482.68 72.688L482.524 71.236C482.732 70.78 483.044 70.42 483.46 70.156C483.876 69.892 484.328 69.76 484.816 69.76C485.408 69.76 485.888 69.936 486.256 70.288C486.624 70.632 486.808 71.1 486.808 71.692V76H485.848ZM489.976 76V71.944C489.976 71.48 489.872 71.14 489.664 70.924C489.456 70.708 489.156 70.6 488.764 70.6C488.396 70.6 488.064 70.688 487.768 70.864C487.472 71.04 487.236 71.284 487.06 71.596C486.892 71.908 486.808 72.272 486.808 72.688L486.568 71.236C486.776 70.78 487.096 70.42 487.528 70.156C487.96 69.892 488.424 69.76 488.92 69.76C489.512 69.76 489.996 69.936 490.372 70.288C490.748 70.632 490.936 71.1 490.936 71.692V76H489.976ZM492.782 76V69.88H493.742V76H492.782ZM492.71 68.488V67.36H493.814V68.488H492.71ZM497.657 76.12C497.257 76.12 496.901 76.04 496.589 75.88C496.277 75.712 496.033 75.48 495.857 75.184C495.681 74.88 495.593 74.532 495.593 74.14V69.88H496.553V73.888C496.553 74.352 496.665 74.7 496.889 74.932C497.121 75.164 497.449 75.28 497.873 75.28C498.257 75.28 498.597 75.192 498.893 75.016C499.189 74.84 499.421 74.596 499.589 74.284C499.765 73.964 499.853 73.6 499.853 73.192L500.009 74.644C499.809 75.1 499.497 75.46 499.073 75.724C498.649 75.988 498.177 76.12 497.657 76.12ZM499.913 76V74.56H499.853V69.88H500.813V76H499.913ZM502.731 76V69.88H503.631V71.32H503.691V76H502.731ZM506.859 76V71.944C506.859 71.48 506.755 71.14 506.547 70.924C506.339 70.708 506.039 70.6 505.647 70.6C505.279 70.6 504.947 70.688 504.651 70.864C504.355 71.04 504.119 71.284 503.943 71.596C503.775 71.908 503.691 72.272 503.691 72.688L503.535 71.236C503.743 70.78 504.055 70.42 504.471 70.156C504.887 69.892 505.339 69.76 505.827 69.76C506.419 69.76 506.899 69.936 507.267 70.288C507.635 70.632 507.819 71.1 507.819 71.692V76H506.859ZM510.987 76V71.944C510.987 71.48 510.883 71.14 510.675 70.924C510.467 70.708 510.167 70.6 509.775 70.6C509.407 70.6 509.075 70.688 508.779 70.864C508.483 71.04 508.247 71.284 508.071 71.596C507.903 71.908 507.819 72.272 507.819 72.688L507.579 71.236C507.787 70.78 508.107 70.42 508.539 70.156C508.971 69.892 509.435 69.76 509.931 69.76C510.523 69.76 511.007 69.936 511.383 70.288C511.759 70.632 511.947 71.1 511.947 71.692V76H510.987ZM522.724 76L518.08 71.236C517.816 70.956 517.6 70.7 517.432 70.468C517.264 70.236 517.14 70.012 517.06 69.796C516.98 69.58 516.94 69.36 516.94 69.136C516.94 68.768 517.036 68.444 517.228 68.164C517.42 67.876 517.68 67.652 518.008 67.492C518.344 67.324 518.728 67.24 519.16 67.24C519.576 67.24 519.952 67.32 520.288 67.48C520.624 67.632 520.892 67.848 521.092 68.128C521.292 68.408 521.392 68.744 521.392 69.136C521.392 69.624 521.204 70.056 520.828 70.432C520.452 70.8 519.872 71.112 519.088 71.368L518.584 70.756C519.2 70.604 519.664 70.396 519.976 70.132C520.296 69.86 520.456 69.54 520.456 69.172C520.456 68.82 520.324 68.544 520.06 68.344C519.804 68.144 519.496 68.044 519.136 68.044C518.784 68.044 518.488 68.14 518.248 68.332C518.016 68.524 517.9 68.8 517.9 69.16C517.9 69.32 517.932 69.48 517.996 69.64C518.068 69.8 518.188 69.984 518.356 70.192C518.524 70.4 518.764 70.664 519.076 70.984L523.984 76H522.724ZM518.944 76.12C518.32 76.12 517.772 76.012 517.3 75.796C516.828 75.58 516.46 75.276 516.196 74.884C515.94 74.492 515.812 74.036 515.812 73.516C515.812 72.876 516.036 72.316 516.484 71.836C516.932 71.356 517.54 71.036 518.308 70.876L518.836 71.476C518.388 71.572 518.012 71.712 517.708 71.896C517.404 72.072 517.172 72.288 517.012 72.544C516.86 72.8 516.784 73.096 516.784 73.432C516.784 74.016 516.98 74.472 517.372 74.8C517.764 75.128 518.3 75.292 518.98 75.292C519.484 75.292 519.928 75.204 520.312 75.028C520.704 74.852 521.036 74.596 521.308 74.26C521.58 73.916 521.784 73.5 521.92 73.012C522.064 72.524 522.136 71.968 522.136 71.344H523.084C523.084 71.928 523.02 72.468 522.892 72.964C522.772 73.46 522.592 73.904 522.352 74.296C522.112 74.688 521.82 75.02 521.476 75.292C521.14 75.556 520.76 75.76 520.336 75.904C519.912 76.048 519.448 76.12 518.944 76.12ZM527.729 76V67.36H528.713V76H527.729ZM528.233 72.292V71.428H532.889V72.292H528.233ZM528.233 68.224V67.36H533.225V68.224H528.233ZM538.011 76C537.979 75.864 537.955 75.708 537.939 75.532C537.931 75.356 537.927 75.132 537.927 74.86H537.867V71.932C537.867 71.468 537.759 71.128 537.543 70.912C537.335 70.688 536.995 70.576 536.523 70.576C536.059 70.576 535.687 70.672 535.407 70.864C535.135 71.048 534.983 71.312 534.951 71.656H534.027C534.067 71.064 534.315 70.6 534.771 70.264C535.227 69.928 535.823 69.76 536.559 69.76C537.319 69.76 537.883 69.94 538.251 70.3C538.619 70.66 538.803 71.2 538.803 71.92V74.86C538.803 75.036 538.815 75.22 538.839 75.412C538.863 75.596 538.895 75.792 538.935 76H538.011ZM535.911 76.12C535.279 76.12 534.775 75.968 534.399 75.664C534.031 75.352 533.847 74.928 533.847 74.392C533.847 73.856 534.031 73.44 534.399 73.144C534.767 72.848 535.303 72.64 536.007 72.52L538.143 72.16V72.952L536.151 73.264C535.703 73.336 535.363 73.456 535.131 73.624C534.899 73.792 534.783 74.036 534.783 74.356C534.783 74.668 534.887 74.904 535.095 75.064C535.311 75.224 535.627 75.304 536.043 75.304C536.579 75.304 537.015 75.184 537.351 74.944C537.695 74.696 537.867 74.376 537.867 73.984L538.023 74.836C537.895 75.244 537.643 75.56 537.267 75.784C536.899 76.008 536.447 76.12 535.911 76.12ZM540.653 76V69.88H541.553V71.32H541.613V76H540.653ZM544.781 76V71.944C544.781 71.48 544.677 71.14 544.469 70.924C544.261 70.708 543.961 70.6 543.569 70.6C543.201 70.6 542.869 70.688 542.573 70.864C542.277 71.04 542.041 71.284 541.865 71.596C541.697 71.908 541.613 72.272 541.613 72.688L541.457 71.236C541.665 70.78 541.977 70.42 542.393 70.156C542.809 69.892 543.261 69.76 543.749 69.76C544.341 69.76 544.821 69.936 545.189 70.288C545.557 70.632 545.741 71.1 545.741 71.692V76H544.781ZM548.909 76V71.944C548.909 71.48 548.805 71.14 548.597 70.924C548.389 70.708 548.089 70.6 547.697 70.6C547.329 70.6 546.997 70.688 546.701 70.864C546.405 71.04 546.169 71.284 545.993 71.596C545.825 71.908 545.741 72.272 545.741 72.688L545.501 71.236C545.709 70.78 546.029 70.42 546.461 70.156C546.893 69.892 547.357 69.76 547.853 69.76C548.445 69.76 548.929 69.936 549.305 70.288C549.681 70.632 549.869 71.1 549.869 71.692V76H548.909ZM551.716 76V69.88H552.676V76H551.716ZM551.644 68.488V67.36H552.748V68.488H551.644ZM554.599 76V67.36H555.559V76H554.599ZM558.009 78.46L559.377 75.28L559.593 74.944L561.597 69.88H562.581L559.029 78.46H558.009ZM559.485 76.06L556.737 69.88H557.793L560.157 75.412L559.485 76.06ZM569.189 76.108C568.613 76.108 568.129 75.968 567.737 75.688C567.345 75.408 567.077 75.012 566.933 74.5L567.125 74.476V78.46H566.165V69.88H567.065V71.308L566.933 71.272C567.085 70.8 567.373 70.432 567.797 70.168C568.221 69.896 568.713 69.76 569.273 69.76C569.817 69.76 570.289 69.892 570.689 70.156C571.097 70.42 571.413 70.788 571.637 71.26C571.861 71.732 571.973 72.284 571.973 72.916C571.973 73.556 571.857 74.116 571.625 74.596C571.393 75.076 571.069 75.448 570.653 75.712C570.237 75.976 569.749 76.108 569.189 76.108ZM569.045 75.268C569.653 75.268 570.129 75.06 570.473 74.644C570.817 74.22 570.989 73.644 570.989 72.916C570.989 72.196 570.817 71.632 570.473 71.224C570.129 70.808 569.653 70.6 569.045 70.6C568.437 70.6 567.957 70.812 567.605 71.236C567.253 71.652 567.077 72.224 567.077 72.952C567.077 73.664 567.253 74.228 567.605 74.644C567.957 75.06 568.437 75.268 569.045 75.268ZM573.442 76V67.36H574.402V76H573.442ZM580.081 76C580.049 75.864 580.025 75.708 580.009 75.532C580.001 75.356 579.997 75.132 579.997 74.86H579.937V71.932C579.937 71.468 579.829 71.128 579.613 70.912C579.405 70.688 579.065 70.576 578.593 70.576C578.129 70.576 577.757 70.672 577.477 70.864C577.205 71.048 577.053 71.312 577.021 71.656H576.097C576.137 71.064 576.385 70.6 576.841 70.264C577.297 69.928 577.893 69.76 578.629 69.76C579.389 69.76 579.953 69.94 580.321 70.3C580.689 70.66 580.873 71.2 580.873 71.92V74.86C580.873 75.036 580.885 75.22 580.909 75.412C580.933 75.596 580.965 75.792 581.005 76H580.081ZM577.981 76.12C577.349 76.12 576.845 75.968 576.469 75.664C576.101 75.352 575.917 74.928 575.917 74.392C575.917 73.856 576.101 73.44 576.469 73.144C576.837 72.848 577.373 72.64 578.077 72.52L580.213 72.16V72.952L578.221 73.264C577.773 73.336 577.433 73.456 577.201 73.624C576.969 73.792 576.853 74.036 576.853 74.356C576.853 74.668 576.957 74.904 577.165 75.064C577.381 75.224 577.697 75.304 578.113 75.304C578.649 75.304 579.085 75.184 579.421 74.944C579.765 74.696 579.937 74.376 579.937 73.984L580.093 74.836C579.965 75.244 579.713 75.56 579.337 75.784C578.969 76.008 578.517 76.12 577.981 76.12ZM582.724 76V69.88H583.624V71.32H583.684V76H582.724ZM587.104 76V71.992C587.104 71.528 586.988 71.18 586.756 70.948C586.524 70.716 586.18 70.6 585.724 70.6C585.324 70.6 584.968 70.688 584.656 70.864C584.352 71.04 584.112 71.284 583.936 71.596C583.768 71.908 583.684 72.272 583.684 72.688L583.528 71.236C583.736 70.78 584.052 70.42 584.476 70.156C584.908 69.892 585.396 69.76 585.94 69.76C586.58 69.76 587.092 69.944 587.476 70.312C587.868 70.672 588.064 71.148 588.064 71.74V76H587.104ZM591.96 76.12C591.208 76.12 590.608 75.948 590.16 75.604C589.712 75.252 589.456 74.756 589.392 74.116H590.316C590.372 74.508 590.544 74.808 590.832 75.016C591.12 75.224 591.504 75.328 591.984 75.328C592.408 75.328 592.74 75.248 592.98 75.088C593.22 74.928 593.34 74.7 593.34 74.404C593.34 74.196 593.272 74.016 593.136 73.864C593 73.704 592.728 73.572 592.32 73.468L591.336 73.216C590.776 73.072 590.356 72.852 590.076 72.556C589.796 72.252 589.656 71.892 589.656 71.476C589.656 70.948 589.852 70.532 590.244 70.228C590.636 69.916 591.168 69.76 591.84 69.76C592.504 69.76 593.044 69.92 593.46 70.24C593.876 70.56 594.112 71.004 594.168 71.572H593.244C593.188 71.244 593.036 70.992 592.788 70.816C592.54 70.64 592.212 70.552 591.804 70.552C591.412 70.552 591.108 70.628 590.892 70.78C590.676 70.924 590.568 71.132 590.568 71.404C590.568 71.612 590.644 71.792 590.796 71.944C590.956 72.096 591.22 72.224 591.588 72.328L592.548 72.592C593.116 72.744 593.544 72.976 593.832 73.288C594.12 73.6 594.264 73.976 594.264 74.416C594.264 74.952 594.06 75.372 593.652 75.676C593.244 75.972 592.68 76.12 591.96 76.12ZM595.191 76V74.764H596.427V76H595.191ZM600.772 76V67.36H601.756V76H600.772ZM601.276 76V75.136H606.556V76H601.276ZM601.276 71.932V71.068H606.124V71.932H601.276ZM601.276 68.224V67.36H606.46V68.224H601.276ZM608.353 76V69.88H609.253V71.32H609.313V76H608.353ZM612.481 76V71.944C612.481 71.48 612.377 71.14 612.169 70.924C611.961 70.708 611.661 70.6 611.269 70.6C610.901 70.6 610.569 70.688 610.273 70.864C609.977 71.04 609.741 71.284 609.565 71.596C609.397 71.908 609.313 72.272 609.313 72.688L609.157 71.236C609.365 70.78 609.677 70.42 610.093 70.156C610.509 69.892 610.961 69.76 611.449 69.76C612.041 69.76 612.521 69.936 612.889 70.288C613.257 70.632 613.441 71.1 613.441 71.692V76H612.481ZM616.609 76V71.944C616.609 71.48 616.505 71.14 616.297 70.924C616.089 70.708 615.789 70.6 615.397 70.6C615.029 70.6 614.697 70.688 614.401 70.864C614.105 71.04 613.869 71.284 613.693 71.596C613.525 71.908 613.441 72.272 613.441 72.688L613.201 71.236C613.409 70.78 613.729 70.42 614.161 70.156C614.593 69.892 615.057 69.76 615.553 69.76C616.145 69.76 616.629 69.936 617.005 70.288C617.381 70.632 617.569 71.1 617.569 71.692V76H616.609ZM623.136 76C623.104 75.864 623.08 75.708 623.064 75.532C623.056 75.356 623.052 75.132 623.052 74.86H622.992V71.932C622.992 71.468 622.884 71.128 622.668 70.912C622.46 70.688 622.12 70.576 621.648 70.576C621.184 70.576 620.812 70.672 620.532 70.864C620.26 71.048 620.108 71.312 620.076 71.656H619.152C619.192 71.064 619.44 70.6 619.896 70.264C620.352 69.928 620.948 69.76 621.684 69.76C622.444 69.76 623.008 69.94 623.376 70.3C623.744 70.66 623.928 71.2 623.928 71.92V74.86C623.928 75.036 623.94 75.22 623.964 75.412C623.988 75.596 624.02 75.792 624.06 76H623.136ZM621.036 76.12C620.404 76.12 619.9 75.968 619.524 75.664C619.156 75.352 618.972 74.928 618.972 74.392C618.972 73.856 619.156 73.44 619.524 73.144C619.892 72.848 620.428 72.64 621.132 72.52L623.268 72.16V72.952L621.276 73.264C620.828 73.336 620.488 73.456 620.256 73.624C620.024 73.792 619.908 74.036 619.908 74.356C619.908 74.668 620.012 74.904 620.22 75.064C620.436 75.224 620.752 75.304 621.168 75.304C621.704 75.304 622.14 75.184 622.476 74.944C622.82 74.696 622.992 74.376 622.992 73.984L623.148 74.836C623.02 75.244 622.768 75.56 622.392 75.784C622.024 76.008 621.572 76.12 621.036 76.12ZM625.778 76V69.88H626.738V76H625.778ZM625.706 68.488V67.36H626.81V68.488H625.706ZM628.661 76V67.36H629.621V76H628.661ZM633.946 76V69.88H634.906V76H633.946ZM633.874 68.488V67.36H634.978V68.488H633.874ZM636.829 76V69.88H637.729V71.32H637.789V76H636.829ZM641.209 76V71.992C641.209 71.528 641.093 71.18 640.861 70.948C640.629 70.716 640.285 70.6 639.829 70.6C639.429 70.6 639.073 70.688 638.761 70.864C638.457 71.04 638.217 71.284 638.041 71.596C637.873 71.908 637.789 72.272 637.789 72.688L637.633 71.236C637.841 70.78 638.157 70.42 638.581 70.156C639.013 69.892 639.501 69.76 640.045 69.76C640.685 69.76 641.197 69.944 641.581 70.312C641.973 70.672 642.169 71.148 642.169 71.74V76H641.209ZM646.065 76.12C645.313 76.12 644.713 75.948 644.265 75.604C643.817 75.252 643.561 74.756 643.497 74.116H644.421C644.477 74.508 644.649 74.808 644.937 75.016C645.225 75.224 645.609 75.328 646.089 75.328C646.513 75.328 646.845 75.248 647.085 75.088C647.325 74.928 647.445 74.7 647.445 74.404C647.445 74.196 647.377 74.016 647.241 73.864C647.105 73.704 646.833 73.572 646.425 73.468L645.441 73.216C644.881 73.072 644.461 72.852 644.181 72.556C643.901 72.252 643.761 71.892 643.761 71.476C643.761 70.948 643.957 70.532 644.349 70.228C644.741 69.916 645.273 69.76 645.945 69.76C646.609 69.76 647.149 69.92 647.565 70.24C647.981 70.56 648.217 71.004 648.273 71.572H647.349C647.293 71.244 647.141 70.992 646.893 70.816C646.645 70.64 646.317 70.552 645.909 70.552C645.517 70.552 645.213 70.628 644.997 70.78C644.781 70.924 644.673 71.132 644.673 71.404C644.673 71.612 644.749 71.792 644.901 71.944C645.061 72.096 645.325 72.224 645.693 72.328L646.653 72.592C647.221 72.744 647.649 72.976 647.937 73.288C648.225 73.6 648.369 73.976 648.369 74.416C648.369 74.952 648.165 75.372 647.757 75.676C647.349 75.972 646.785 76.12 646.065 76.12ZM652.109 76.108C651.429 76.108 650.933 75.956 650.621 75.652C650.317 75.34 650.165 74.892 650.165 74.308V68.452L651.125 68.092V74.296C651.125 74.64 651.213 74.892 651.389 75.052C651.565 75.212 651.853 75.292 652.253 75.292C652.413 75.292 652.549 75.284 652.661 75.268C652.781 75.244 652.877 75.216 652.949 75.184V76C652.869 76.032 652.753 76.056 652.601 76.072C652.457 76.096 652.293 76.108 652.109 76.108ZM648.905 70.696V69.88H652.949V70.696H648.905ZM654.185 76V69.88H655.085V71.44H655.145V76H654.185ZM655.145 72.808L654.989 71.356C655.133 70.836 655.389 70.44 655.757 70.168C656.125 69.896 656.549 69.76 657.029 69.76C657.229 69.76 657.365 69.776 657.437 69.808V70.732C657.397 70.716 657.341 70.708 657.269 70.708C657.197 70.7 657.109 70.696 657.005 70.696C656.397 70.696 655.933 70.88 655.613 71.248C655.301 71.608 655.145 72.128 655.145 72.808ZM660.583 76.12C660.183 76.12 659.827 76.04 659.515 75.88C659.203 75.712 658.959 75.48 658.783 75.184C658.607 74.88 658.519 74.532 658.519 74.14V69.88H659.479V73.888C659.479 74.352 659.591 74.7 659.815 74.932C660.047 75.164 660.375 75.28 660.799 75.28C661.183 75.28 661.523 75.192 661.819 75.016C662.115 74.84 662.347 74.596 662.515 74.284C662.691 73.964 662.779 73.6 662.779 73.192L662.935 74.644C662.735 75.1 662.423 75.46 661.999 75.724C661.575 75.988 661.103 76.12 660.583 76.12ZM662.839 76V74.56H662.779V69.88H663.739V76H662.839ZM668.058 76.12C667.498 76.12 666.998 75.984 666.558 75.712C666.126 75.432 665.782 75.052 665.526 74.572C665.278 74.084 665.154 73.532 665.154 72.916C665.154 72.3 665.278 71.756 665.526 71.284C665.782 70.812 666.126 70.44 666.558 70.168C666.998 69.896 667.494 69.76 668.046 69.76C668.502 69.76 668.91 69.848 669.27 70.024C669.638 70.2 669.938 70.452 670.17 70.78C670.41 71.1 670.562 71.476 670.626 71.908H669.738C669.658 71.516 669.474 71.196 669.186 70.948C668.898 70.7 668.526 70.576 668.07 70.576C667.678 70.576 667.338 70.672 667.05 70.864C666.762 71.056 666.538 71.328 666.378 71.68C666.218 72.032 666.138 72.444 666.138 72.916C666.138 73.388 666.218 73.804 666.378 74.164C666.538 74.524 666.762 74.804 667.05 75.004C667.346 75.204 667.69 75.304 668.082 75.304C668.522 75.304 668.89 75.184 669.186 74.944C669.482 74.696 669.67 74.376 669.75 73.984H670.638C670.566 74.408 670.406 74.784 670.158 75.112C669.918 75.432 669.618 75.68 669.258 75.856C668.898 76.032 668.498 76.12 668.058 76.12ZM674.457 76.108C673.777 76.108 673.281 75.956 672.969 75.652C672.665 75.34 672.513 74.892 672.513 74.308V68.452L673.473 68.092V74.296C673.473 74.64 673.561 74.892 673.737 75.052C673.913 75.212 674.201 75.292 674.601 75.292C674.761 75.292 674.897 75.284 675.009 75.268C675.129 75.244 675.225 75.216 675.297 75.184V76C675.217 76.032 675.101 76.056 674.949 76.072C674.805 76.096 674.641 76.108 674.457 76.108ZM671.253 70.696V69.88H675.297V70.696H671.253ZM676.532 76V69.88H677.492V76H676.532ZM676.46 68.488V67.36H677.564V68.488H676.46ZM681.936 76.12C681.336 76.12 680.808 75.98 680.352 75.7C679.896 75.42 679.54 75.04 679.284 74.56C679.036 74.072 678.912 73.524 678.912 72.916C678.912 72.3 679.04 71.756 679.296 71.284C679.552 70.812 679.904 70.44 680.352 70.168C680.808 69.896 681.336 69.76 681.936 69.76C682.544 69.76 683.072 69.896 683.52 70.168C683.976 70.44 684.328 70.812 684.576 71.284C684.832 71.756 684.96 72.3 684.96 72.916C684.96 73.524 684.832 74.072 684.576 74.56C684.328 75.04 683.976 75.42 683.52 75.7C683.072 75.98 682.544 76.12 681.936 76.12ZM681.936 75.304C682.352 75.304 682.712 75.204 683.016 75.004C683.32 74.796 683.556 74.512 683.724 74.152C683.892 73.792 683.976 73.376 683.976 72.904C683.976 72.2 683.788 71.636 683.412 71.212C683.044 70.788 682.552 70.576 681.936 70.576C681.328 70.576 680.836 70.788 680.46 71.212C680.084 71.636 679.896 72.2 679.896 72.904C679.896 73.376 679.98 73.792 680.148 74.152C680.316 74.512 680.552 74.796 680.856 75.004C681.168 75.204 681.528 75.304 681.936 75.304ZM686.399 76V69.88H687.299V71.32H687.359V76H686.399ZM690.779 76V71.992C690.779 71.528 690.663 71.18 690.431 70.948C690.199 70.716 689.855 70.6 689.399 70.6C688.999 70.6 688.643 70.688 688.331 70.864C688.027 71.04 687.787 71.284 687.611 71.596C687.443 71.908 687.359 72.272 687.359 72.688L687.203 71.236C687.411 70.78 687.727 70.42 688.151 70.156C688.583 69.892 689.071 69.76 689.615 69.76C690.255 69.76 690.767 69.944 691.151 70.312C691.543 70.672 691.739 71.148 691.739 71.74V76H690.779ZM695.636 76.12C694.884 76.12 694.284 75.948 693.836 75.604C693.388 75.252 693.132 74.756 693.068 74.116H693.992C694.048 74.508 694.22 74.808 694.508 75.016C694.796 75.224 695.18 75.328 695.66 75.328C696.084 75.328 696.416 75.248 696.656 75.088C696.896 74.928 697.016 74.7 697.016 74.404C697.016 74.196 696.948 74.016 696.812 73.864C696.676 73.704 696.404 73.572 695.996 73.468L695.012 73.216C694.452 73.072 694.032 72.852 693.752 72.556C693.472 72.252 693.332 71.892 693.332 71.476C693.332 70.948 693.528 70.532 693.92 70.228C694.312 69.916 694.844 69.76 695.516 69.76C696.18 69.76 696.72 69.92 697.136 70.24C697.552 70.56 697.788 71.004 697.844 71.572H696.92C696.864 71.244 696.712 70.992 696.464 70.816C696.216 70.64 695.888 70.552 695.48 70.552C695.088 70.552 694.784 70.628 694.568 70.78C694.352 70.924 694.244 71.132 694.244 71.404C694.244 71.612 694.32 71.792 694.472 71.944C694.632 72.096 694.896 72.224 695.264 72.328L696.224 72.592C696.792 72.744 697.22 72.976 697.508 73.288C697.796 73.6 697.94 73.976 697.94 74.416C697.94 74.952 697.736 75.372 697.328 75.676C696.92 75.972 696.356 76.12 695.636 76.12ZM705.39 76C705.358 75.864 705.334 75.708 705.318 75.532C705.31 75.356 705.306 75.132 705.306 74.86H705.246V71.932C705.246 71.468 705.138 71.128 704.922 70.912C704.714 70.688 704.374 70.576 703.902 70.576C703.438 70.576 703.066 70.672 702.786 70.864C702.514 71.048 702.362 71.312 702.33 71.656H701.406C701.446 71.064 701.694 70.6 702.15 70.264C702.606 69.928 703.202 69.76 703.938 69.76C704.698 69.76 705.262 69.94 705.63 70.3C705.998 70.66 706.182 71.2 706.182 71.92V74.86C706.182 75.036 706.194 75.22 706.218 75.412C706.242 75.596 706.274 75.792 706.314 76H705.39ZM703.29 76.12C702.658 76.12 702.154 75.968 701.778 75.664C701.41 75.352 701.226 74.928 701.226 74.392C701.226 73.856 701.41 73.44 701.778 73.144C702.146 72.848 702.682 72.64 703.386 72.52L705.522 72.16V72.952L703.53 73.264C703.082 73.336 702.742 73.456 702.51 73.624C702.278 73.792 702.162 74.036 702.162 74.356C702.162 74.668 702.266 74.904 702.474 75.064C702.69 75.224 703.006 75.304 703.422 75.304C703.958 75.304 704.394 75.184 704.73 74.944C705.074 74.696 705.246 74.376 705.246 73.984L705.402 74.836C705.274 75.244 705.022 75.56 704.646 75.784C704.278 76.008 703.826 76.12 703.29 76.12ZM708.032 76V69.88H708.932V71.44H708.992V76H708.032ZM708.992 72.808L708.836 71.356C708.98 70.836 709.236 70.44 709.604 70.168C709.972 69.896 710.396 69.76 710.876 69.76C711.076 69.76 711.212 69.776 711.284 69.808V70.732C711.244 70.716 711.188 70.708 711.116 70.708C711.044 70.7 710.956 70.696 710.852 70.696C710.244 70.696 709.78 70.88 709.46 71.248C709.148 71.608 708.992 72.128 708.992 72.808ZM714.829 76.12C714.245 76.12 713.729 75.984 713.281 75.712C712.833 75.432 712.481 75.052 712.225 74.572C711.969 74.092 711.841 73.54 711.841 72.916C711.841 72.292 711.965 71.744 712.213 71.272C712.469 70.792 712.825 70.42 713.281 70.156C713.737 69.892 714.261 69.76 714.853 69.76C715.421 69.76 715.913 69.884 716.329 70.132C716.753 70.38 717.077 70.728 717.301 71.176C717.533 71.624 717.649 72.152 717.649 72.76C717.649 72.84 717.645 72.916 717.637 72.988C717.637 73.06 717.629 73.14 717.613 73.228H712.561V72.424H717.025L716.713 72.868C716.713 72.132 716.549 71.568 716.221 71.176C715.901 70.776 715.445 70.576 714.853 70.576C714.245 70.576 713.753 70.788 713.377 71.212C713.009 71.628 712.825 72.192 712.825 72.904C712.825 73.632 713.009 74.216 713.377 74.656C713.753 75.088 714.253 75.304 714.877 75.304C715.269 75.304 715.613 75.22 715.909 75.052C716.205 74.876 716.421 74.628 716.557 74.308H717.469C717.269 74.868 716.933 75.312 716.461 75.64C715.997 75.96 715.453 76.12 714.829 76.12ZM723.573 76.12C722.821 76.12 722.221 75.948 721.773 75.604C721.325 75.252 721.069 74.756 721.005 74.116H721.929C721.985 74.508 722.157 74.808 722.445 75.016C722.733 75.224 723.117 75.328 723.597 75.328C724.021 75.328 724.353 75.248 724.593 75.088C724.833 74.928 724.953 74.7 724.953 74.404C724.953 74.196 724.885 74.016 724.749 73.864C724.613 73.704 724.341 73.572 723.933 73.468L722.949 73.216C722.389 73.072 721.969 72.852 721.689 72.556C721.409 72.252 721.269 71.892 721.269 71.476C721.269 70.948 721.465 70.532 721.857 70.228C722.249 69.916 722.781 69.76 723.453 69.76C724.117 69.76 724.657 69.92 725.073 70.24C725.489 70.56 725.725 71.004 725.781 71.572H724.857C724.801 71.244 724.649 70.992 724.401 70.816C724.153 70.64 723.825 70.552 723.417 70.552C723.025 70.552 722.721 70.628 722.505 70.78C722.289 70.924 722.181 71.132 722.181 71.404C722.181 71.612 722.257 71.792 722.409 71.944C722.569 72.096 722.833 72.224 723.201 72.328L724.161 72.592C724.729 72.744 725.157 72.976 725.445 73.288C725.733 73.6 725.877 73.976 725.877 74.416C725.877 74.952 725.673 75.372 725.265 75.676C724.857 75.972 724.293 76.12 723.573 76.12ZM729.888 76.12C729.304 76.12 728.788 75.984 728.34 75.712C727.892 75.432 727.54 75.052 727.284 74.572C727.028 74.092 726.9 73.54 726.9 72.916C726.9 72.292 727.024 71.744 727.272 71.272C727.528 70.792 727.884 70.42 728.34 70.156C728.796 69.892 729.32 69.76 729.912 69.76C730.48 69.76 730.972 69.884 731.388 70.132C731.812 70.38 732.136 70.728 732.36 71.176C732.592 71.624 732.708 72.152 732.708 72.76C732.708 72.84 732.704 72.916 732.696 72.988C732.696 73.06 732.688 73.14 732.672 73.228H727.62V72.424H732.084L731.772 72.868C731.772 72.132 731.608 71.568 731.28 71.176C730.96 70.776 730.504 70.576 729.912 70.576C729.304 70.576 728.812 70.788 728.436 71.212C728.068 71.628 727.884 72.192 727.884 72.904C727.884 73.632 728.068 74.216 728.436 74.656C728.812 75.088 729.312 75.304 729.936 75.304C730.328 75.304 730.672 75.22 730.968 75.052C731.264 74.876 731.48 74.628 731.616 74.308H732.528C732.328 74.868 731.992 75.312 731.52 75.64C731.056 75.96 730.512 76.12 729.888 76.12ZM734.153 76V69.88H735.053V71.32H735.113V76H734.153ZM738.533 76V71.992C738.533 71.528 738.417 71.18 738.185 70.948C737.953 70.716 737.609 70.6 737.153 70.6C736.753 70.6 736.397 70.688 736.085 70.864C735.781 71.04 735.541 71.284 735.365 71.596C735.197 71.908 735.113 72.272 735.113 72.688L734.957 71.236C735.165 70.78 735.481 70.42 735.905 70.156C736.337 69.892 736.825 69.76 737.369 69.76C738.009 69.76 738.521 69.944 738.905 70.312C739.297 70.672 739.493 71.148 739.493 71.74V76H738.533ZM743.621 76.108C742.941 76.108 742.445 75.956 742.133 75.652C741.829 75.34 741.677 74.892 741.677 74.308V68.452L742.637 68.092V74.296C742.637 74.64 742.725 74.892 742.901 75.052C743.077 75.212 743.365 75.292 743.765 75.292C743.925 75.292 744.061 75.284 744.173 75.268C744.293 75.244 744.389 75.216 744.461 75.184V76C744.381 76.032 744.265 76.056 744.113 76.072C743.969 76.096 743.805 76.108 743.621 76.108ZM740.417 70.696V69.88H744.461V70.696H740.417ZM751.855 76C751.823 75.864 751.799 75.708 751.783 75.532C751.775 75.356 751.771 75.132 751.771 74.86H751.711V71.932C751.711 71.468 751.603 71.128 751.387 70.912C751.179 70.688 750.839 70.576 750.367 70.576C749.903 70.576 749.531 70.672 749.251 70.864C748.979 71.048 748.827 71.312 748.795 71.656H747.871C747.911 71.064 748.159 70.6 748.615 70.264C749.071 69.928 749.667 69.76 750.403 69.76C751.163 69.76 751.727 69.94 752.095 70.3C752.463 70.66 752.647 71.2 752.647 71.92V74.86C752.647 75.036 752.659 75.22 752.683 75.412C752.707 75.596 752.739 75.792 752.779 76H751.855ZM749.755 76.12C749.123 76.12 748.619 75.968 748.243 75.664C747.875 75.352 747.691 74.928 747.691 74.392C747.691 73.856 747.875 73.44 748.243 73.144C748.611 72.848 749.147 72.64 749.851 72.52L751.987 72.16V72.952L749.995 73.264C749.547 73.336 749.207 73.456 748.975 73.624C748.743 73.792 748.627 74.036 748.627 74.356C748.627 74.668 748.731 74.904 748.939 75.064C749.155 75.224 749.471 75.304 749.887 75.304C750.423 75.304 750.859 75.184 751.195 74.944C751.539 74.696 751.711 74.376 751.711 73.984L751.867 74.836C751.739 75.244 751.487 75.56 751.111 75.784C750.743 76.008 750.291 76.12 749.755 76.12ZM754.849 76V69.016C754.849 68.456 755.009 68.02 755.329 67.708C755.657 67.396 756.153 67.24 756.817 67.24C756.977 67.24 757.101 67.248 757.189 67.264C757.285 67.28 757.365 67.3 757.429 67.324V68.08C757.373 68.064 757.293 68.048 757.189 68.032C757.093 68.016 756.989 68.008 756.877 68.008C756.509 68.008 756.237 68.1 756.061 68.284C755.893 68.468 755.809 68.728 755.809 69.064V76H754.849ZM753.589 70.696V69.88H757.297V70.696H753.589ZM761.187 76.108C760.507 76.108 760.011 75.956 759.699 75.652C759.395 75.34 759.243 74.892 759.243 74.308V68.452L760.203 68.092V74.296C760.203 74.64 760.291 74.892 760.467 75.052C760.643 75.212 760.931 75.292 761.331 75.292C761.491 75.292 761.627 75.284 761.739 75.268C761.859 75.244 761.955 75.216 762.027 75.184V76C761.947 76.032 761.831 76.056 761.679 76.072C761.535 76.096 761.371 76.108 761.187 76.108ZM757.983 70.696V69.88H762.027V70.696H757.983ZM765.642 76.12C765.058 76.12 764.542 75.984 764.094 75.712C763.646 75.432 763.294 75.052 763.038 74.572C762.782 74.092 762.654 73.54 762.654 72.916C762.654 72.292 762.778 71.744 763.026 71.272C763.282 70.792 763.638 70.42 764.094 70.156C764.55 69.892 765.074 69.76 765.666 69.76C766.234 69.76 766.726 69.884 767.142 70.132C767.566 70.38 767.89 70.728 768.114 71.176C768.346 71.624 768.462 72.152 768.462 72.76C768.462 72.84 768.458 72.916 768.45 72.988C768.45 73.06 768.442 73.14 768.426 73.228H763.374V72.424H767.838L767.526 72.868C767.526 72.132 767.362 71.568 767.034 71.176C766.714 70.776 766.258 70.576 765.666 70.576C765.058 70.576 764.566 70.788 764.19 71.212C763.822 71.628 763.638 72.192 763.638 72.904C763.638 73.632 763.822 74.216 764.19 74.656C764.566 75.088 765.066 75.304 765.69 75.304C766.082 75.304 766.426 75.22 766.722 75.052C767.018 74.876 767.234 74.628 767.37 74.308H768.282C768.082 74.868 767.746 75.312 767.274 75.64C766.81 75.96 766.266 76.12 765.642 76.12ZM769.907 76V69.88H770.807V71.44H770.867V76H769.907ZM770.867 72.808L770.711 71.356C770.855 70.836 771.111 70.44 771.479 70.168C771.847 69.896 772.271 69.76 772.751 69.76C772.951 69.76 773.087 69.776 773.159 69.808V70.732C773.119 70.716 773.063 70.708 772.991 70.708C772.919 70.7 772.831 70.696 772.727 70.696C772.119 70.696 771.655 70.88 771.335 71.248C771.023 71.608 770.867 72.128 770.867 72.808ZM779.834 76.108C779.258 76.108 778.774 75.968 778.382 75.688C777.99 75.408 777.722 75.012 777.578 74.5L777.77 74.476V78.46H776.81V69.88H777.71V71.308L777.578 71.272C777.73 70.8 778.018 70.432 778.442 70.168C778.866 69.896 779.358 69.76 779.918 69.76C780.462 69.76 780.934 69.892 781.334 70.156C781.742 70.42 782.058 70.788 782.282 71.26C782.506 71.732 782.618 72.284 782.618 72.916C782.618 73.556 782.502 74.116 782.27 74.596C782.038 75.076 781.714 75.448 781.298 75.712C780.882 75.976 780.394 76.108 779.834 76.108ZM779.69 75.268C780.298 75.268 780.774 75.06 781.118 74.644C781.462 74.22 781.634 73.644 781.634 72.916C781.634 72.196 781.462 71.632 781.118 71.224C780.774 70.808 780.298 70.6 779.69 70.6C779.082 70.6 778.602 70.812 778.25 71.236C777.898 71.652 777.722 72.224 777.722 72.952C777.722 73.664 777.898 74.228 778.25 74.644C778.602 75.06 779.082 75.268 779.69 75.268ZM786.079 76.12C785.679 76.12 785.323 76.04 785.011 75.88C784.699 75.712 784.455 75.48 784.279 75.184C784.103 74.88 784.015 74.532 784.015 74.14V69.88H784.975V73.888C784.975 74.352 785.087 74.7 785.311 74.932C785.543 75.164 785.871 75.28 786.295 75.28C786.679 75.28 787.019 75.192 787.315 75.016C787.611 74.84 787.843 74.596 788.011 74.284C788.187 73.964 788.275 73.6 788.275 73.192L788.431 74.644C788.231 75.1 787.919 75.46 787.495 75.724C787.071 75.988 786.599 76.12 786.079 76.12ZM788.335 76V74.56H788.275V69.88H789.235V76H788.335ZM791.153 76V69.88H792.053V71.44H792.113V76H791.153ZM792.113 72.808L791.957 71.356C792.101 70.836 792.357 70.44 792.725 70.168C793.093 69.896 793.517 69.76 793.997 69.76C794.197 69.76 794.333 69.776 794.405 69.808V70.732C794.365 70.716 794.309 70.708 794.237 70.708C794.165 70.7 794.077 70.696 793.973 70.696C793.365 70.696 792.901 70.88 792.581 71.248C792.269 71.608 792.113 72.128 792.113 72.808ZM797.866 76.12C797.306 76.12 796.806 75.984 796.366 75.712C795.934 75.432 795.59 75.052 795.334 74.572C795.086 74.084 794.962 73.532 794.962 72.916C794.962 72.3 795.086 71.756 795.334 71.284C795.59 70.812 795.934 70.44 796.366 70.168C796.806 69.896 797.302 69.76 797.854 69.76C798.31 69.76 798.718 69.848 799.078 70.024C799.446 70.2 799.746 70.452 799.978 70.78C800.218 71.1 800.37 71.476 800.434 71.908H799.546C799.466 71.516 799.282 71.196 798.994 70.948C798.706 70.7 798.334 70.576 797.878 70.576C797.486 70.576 797.146 70.672 796.858 70.864C796.57 71.056 796.346 71.328 796.186 71.68C796.026 72.032 795.946 72.444 795.946 72.916C795.946 73.388 796.026 73.804 796.186 74.164C796.346 74.524 796.57 74.804 796.858 75.004C797.154 75.204 797.498 75.304 797.89 75.304C798.33 75.304 798.698 75.184 798.994 74.944C799.29 74.696 799.478 74.376 799.558 73.984H800.446C800.374 74.408 800.214 74.784 799.966 75.112C799.726 75.432 799.426 75.68 799.066 75.856C798.706 76.032 798.306 76.12 797.866 76.12ZM801.841 76V67.36H802.801V76H801.841ZM806.221 76V71.992C806.221 71.528 806.105 71.18 805.873 70.948C805.641 70.716 805.297 70.6 804.841 70.6C804.441 70.6 804.085 70.688 803.773 70.864C803.469 71.04 803.229 71.284 803.053 71.596C802.885 71.908 802.801 72.272 802.801 72.688L802.645 71.236C802.853 70.78 803.169 70.42 803.593 70.156C804.025 69.892 804.513 69.76 805.057 69.76C805.697 69.76 806.209 69.944 806.593 70.312C806.985 70.672 807.181 71.148 807.181 71.74V76H806.221ZM812.745 76C812.713 75.864 812.689 75.708 812.673 75.532C812.665 75.356 812.661 75.132 812.661 74.86H812.601V71.932C812.601 71.468 812.493 71.128 812.277 70.912C812.069 70.688 811.729 70.576 811.257 70.576C810.793 70.576 810.421 70.672 810.141 70.864C809.869 71.048 809.717 71.312 809.685 71.656H808.761C808.801 71.064 809.049 70.6 809.505 70.264C809.961 69.928 810.557 69.76 811.293 69.76C812.053 69.76 812.617 69.94 812.985 70.3C813.353 70.66 813.537 71.2 813.537 71.92V74.86C813.537 75.036 813.549 75.22 813.573 75.412C813.597 75.596 813.629 75.792 813.669 76H812.745ZM810.645 76.12C810.013 76.12 809.509 75.968 809.133 75.664C808.765 75.352 808.581 74.928 808.581 74.392C808.581 73.856 808.765 73.44 809.133 73.144C809.501 72.848 810.037 72.64 810.741 72.52L812.877 72.16V72.952L810.885 73.264C810.437 73.336 810.097 73.456 809.865 73.624C809.633 73.792 809.517 74.036 809.517 74.356C809.517 74.668 809.621 74.904 809.829 75.064C810.045 75.224 810.361 75.304 810.777 75.304C811.313 75.304 811.749 75.184 812.085 74.944C812.429 74.696 812.601 74.376 812.601 73.984L812.757 74.836C812.629 75.244 812.377 75.56 812.001 75.784C811.633 76.008 811.181 76.12 810.645 76.12ZM817.44 76.12C816.688 76.12 816.088 75.948 815.64 75.604C815.192 75.252 814.936 74.756 814.872 74.116H815.796C815.852 74.508 816.024 74.808 816.312 75.016C816.6 75.224 816.984 75.328 817.464 75.328C817.888 75.328 818.22 75.248 818.46 75.088C818.7 74.928 818.82 74.7 818.82 74.404C818.82 74.196 818.752 74.016 818.616 73.864C818.48 73.704 818.208 73.572 817.8 73.468L816.816 73.216C816.256 73.072 815.836 72.852 815.556 72.556C815.276 72.252 815.136 71.892 815.136 71.476C815.136 70.948 815.332 70.532 815.724 70.228C816.116 69.916 816.648 69.76 817.32 69.76C817.984 69.76 818.524 69.92 818.94 70.24C819.356 70.56 819.592 71.004 819.648 71.572H818.724C818.668 71.244 818.516 70.992 818.268 70.816C818.02 70.64 817.692 70.552 817.284 70.552C816.892 70.552 816.588 70.628 816.372 70.78C816.156 70.924 816.048 71.132 816.048 71.404C816.048 71.612 816.124 71.792 816.276 71.944C816.436 72.096 816.7 72.224 817.068 72.328L818.028 72.592C818.596 72.744 819.024 72.976 819.312 73.288C819.6 73.6 819.744 73.976 819.744 74.416C819.744 74.952 819.54 75.372 819.132 75.676C818.724 75.972 818.16 76.12 817.44 76.12ZM823.755 76.12C823.171 76.12 822.655 75.984 822.207 75.712C821.759 75.432 821.407 75.052 821.151 74.572C820.895 74.092 820.767 73.54 820.767 72.916C820.767 72.292 820.891 71.744 821.139 71.272C821.395 70.792 821.751 70.42 822.207 70.156C822.663 69.892 823.187 69.76 823.779 69.76C824.347 69.76 824.839 69.884 825.255 70.132C825.679 70.38 826.003 70.728 826.227 71.176C826.459 71.624 826.575 72.152 826.575 72.76C826.575 72.84 826.571 72.916 826.563 72.988C826.563 73.06 826.555 73.14 826.539 73.228H821.487V72.424H825.951L825.639 72.868C825.639 72.132 825.475 71.568 825.147 71.176C824.827 70.776 824.371 70.576 823.779 70.576C823.171 70.576 822.679 70.788 822.303 71.212C821.935 71.628 821.751 72.192 821.751 72.904C821.751 73.632 821.935 74.216 822.303 74.656C822.679 75.088 823.179 75.304 823.803 75.304C824.195 75.304 824.539 75.22 824.835 75.052C825.131 74.876 825.347 74.628 825.483 74.308H826.395C826.195 74.868 825.859 75.312 825.387 75.64C824.923 75.96 824.379 76.12 823.755 76.12ZM827.433 76V74.764H828.669V76H827.433Z" fill="#3A3A3B"/>
<path d="M83.8984 56.4016L81.2131 53.5932L78.1721 50.4016H79.2738L81.8098 53.0599L85 56.4016H83.8984ZM81.3393 53.0849L83.9787 50.4016H85L81.8443 53.6266L81.3393 53.0849ZM81.7066 53.6599L79.0213 56.4016H78L81.2016 53.1182L81.7066 53.6599Z" fill="#636367"/>
<g clip-path="url(#clip0_1_21)">
<path d="M42.0526 78.3023H40V68.5532H42.0526V78.3023Z" fill="#18181B"/>
<path d="M53.0518 75.2662V68.5532H55.0904V78.3023H52.9956L48.0469 71.5754V78.3023H45.9943V68.5532H48.089L53.0518 75.2662Z" fill="#18181B"/>
<path d="M58.2725 68.5532H65.316V70.3498H62.8135V78.3023H60.7749V70.3498H58.2725V68.5532Z" fill="#18181B"/>
<path d="M74.531 68.5532V70.3498H70.5383V72.4389H73.9828V74.2355H70.5383V76.5057H74.531V78.3023H68.4857V68.5532H74.531Z" fill="#18181B"/>
<path d="M86.1167 78.3023H83.6285L80.8729 74.2912H80.212V78.3023H78.1595V68.5532H82.1242C83.1364 68.5532 83.9095 68.8224 84.4439 69.361C84.9873 69.8995 85.2592 70.6051 85.2592 71.4779C85.2592 72.8985 84.547 73.7666 83.1223 74.0823L86.1167 78.3023ZM80.212 72.6339H81.8289C82.2789 72.6339 82.6207 72.5457 82.8551 72.3692C83.0989 72.1836 83.2207 71.8864 83.2207 71.4779C83.2207 71.0787 83.0989 70.7908 82.8551 70.6144C82.6207 70.438 82.2789 70.3498 81.8289 70.3498H80.212V72.6339Z" fill="#18181B"/>
<path d="M96.3734 75.2662V68.5532H98.4118V78.3023H96.3171L91.3684 71.5754V78.3023H89.3159V68.5532H91.4105L96.3734 75.2662Z" fill="#18181B"/>
<path d="M107.161 73.2745L110.564 78.3023H108.202L106.051 74.9597L103.914 78.3023H101.566L104.954 73.2885L101.749 68.5532H104.082L106.051 71.6033L108.033 68.5532H110.381L107.161 73.2745Z" fill="#18181B"/>
<path d="M112.957 68.5532H120V70.3498H117.497V78.3023H115.459V70.3498H112.957V68.5532Z" fill="#18181B"/>
</g>
<path d="M113.33 33.2683H105.936C105.966 33.3851 105.986 33.4888 106.013 33.5895C106.346 34.6907 107.374 35.5153 108.521 35.6259C109.804 35.7504 110.842 35.2701 111.74 34.361L112.936 35.7535C112.571 36.2261 112.103 36.6088 111.569 36.8739C109.655 37.8398 107.754 37.8652 105.942 36.6487C104.681 35.8034 103.998 34.5662 103.859 33.0531C103.706 31.4071 104.221 29.9862 105.435 28.8543C106.489 27.8714 107.757 27.4626 109.194 27.5825C110.384 27.6824 111.409 28.1373 112.225 29.018C112.964 29.8149 113.336 30.7731 113.419 31.8497C113.45 32.3246 113.42 32.8011 113.33 33.2683ZM111.306 31.5431C111.097 30.3904 110.211 29.4153 108.857 29.3638C107.271 29.3038 106.268 30.309 105.964 31.5431H111.306Z" fill="black"/>
<path d="M98.6638 24.7277V31.1312L98.6961 31.1466C98.7999 31.0313 98.9044 30.9161 99.0035 30.8008C99.9218 29.7472 100.841 28.6945 101.761 27.6424C101.807 27.5886 101.872 27.5541 101.943 27.5464C102.767 27.5395 103.59 27.541 104.414 27.541C104.433 27.541 104.453 27.5448 104.505 27.5502C103.139 29.1186 101.788 30.6686 100.427 32.2309L104.913 37.4249C104.845 37.4295 104.804 37.4356 104.759 37.4356C103.965 37.4356 103.171 37.4356 102.377 37.431C102.297 37.4264 102.222 37.3918 102.166 37.3342C101.038 36.0301 99.9118 34.7238 98.7845 33.4151C98.756 33.3813 98.7245 33.3505 98.6692 33.2914V37.4218H96.6244C96.6244 37.3749 96.6151 37.3234 96.6151 37.2681V25.7851C96.6051 25.6913 96.6628 25.6037 96.7535 25.5768C97.3459 25.3133 97.9346 25.0389 98.5209 24.7746C98.5593 24.7646 98.6031 24.7492 98.6638 24.7277Z" fill="black"/>
<path d="M86.3463 32.6028C86.3125 33.3559 86.188 34.0875 85.8676 34.7699C85.2636 36.0555 84.24 36.8777 82.8875 37.2397C81.0324 37.7369 79.3703 37.3342 77.9732 35.9871C77.3631 35.3992 77.005 34.6653 76.8251 33.8431C76.6077 32.8818 76.6238 31.8828 76.872 30.9291C77.2132 29.6227 78.0247 28.6752 79.2127 28.1004C81.077 27.2006 82.8844 27.3535 84.5643 28.593C85.5725 29.3376 86.0958 30.3743 86.2641 31.5992C86.3094 31.9312 86.3194 32.2685 86.3463 32.6028ZM84.3614 32.486C84.3429 32.2939 84.3391 32.1018 84.3045 31.9097C84.1016 30.8108 83.493 30.0362 82.4218 29.6811C81.1708 29.2685 79.8575 29.7027 79.1543 30.7393C78.6579 31.4724 78.5526 32.2931 78.7109 33.1453C78.9069 34.2027 79.5071 34.9535 80.5291 35.3101C81.7894 35.7504 83.1188 35.3178 83.8404 34.2711C84.2108 33.7363 84.3476 33.1292 84.3614 32.486Z" fill="black"/>
<path d="M68.3491 37.4241V24.4441H70.3709V35.3815H76.4048V37.4241H68.3491Z" fill="black"/>
<path d="M95.5186 35.9225C94.9737 36.4981 94.2952 36.9292 93.5429 37.179C91.6079 37.8229 89.4531 37.2374 88.1468 35.7043C87.6004 35.0634 87.3122 34.3049 87.1847 33.4827C87.0364 32.5244 87.0717 31.5746 87.3845 30.6494C87.8755 29.197 88.9045 28.2672 90.3323 27.8061C92.2534 27.1914 93.9824 27.5802 95.4579 28.9849C95.4771 29.0049 95.4947 29.0257 95.5116 29.0472C95.3526 29.197 95.1997 29.343 95.0452 29.4875C94.7816 29.7357 94.515 29.9801 94.2545 30.2314C94.2122 30.2905 94.1292 30.3044 94.07 30.2621C94.0646 30.2583 94.0593 30.2536 94.0547 30.249C93.4983 29.8809 92.902 29.6197 92.2296 29.5382C90.8464 29.3584 89.5454 30.2375 89.1957 31.5877C88.9537 32.5183 89.042 33.4235 89.5799 34.2419C90.29 35.3262 91.601 35.7466 92.9027 35.3032C93.3016 35.1672 93.6712 34.9435 94.0508 34.7522C94.1277 34.7145 94.1715 34.6899 94.2437 34.7568C94.6587 35.1456 95.0821 35.5268 95.5186 35.9225Z" fill="black"/>
<path d="M116.558 37.4349H114.466C114.438 37.4349 114.409 37.4349 114.37 37.4295V27.81H116.445V28.5438C117.483 27.6171 118.71 27.4941 120 27.5525V29.781C119.687 29.7534 119.37 29.7042 119.052 29.7042C117.765 29.695 116.824 30.5019 116.62 31.779C116.582 32.0188 116.563 32.2609 116.562 32.5037C116.557 34.0859 116.562 35.6674 116.562 37.2497L116.558 37.4349Z" fill="black"/>
<path d="M63.7053 20.2361C63.7053 19.7658 63.4556 19.4454 63.0037 19.3355C61.3684 18.9221 59.7101 18.6078 58.0372 18.3949C56.8322 18.2512 55.6196 18.1313 54.4078 18.0537C53.4672 17.9938 52.522 18.0091 51.5791 18.0022C50.0975 17.9861 48.6167 18.0583 47.1436 18.2174C46.3436 18.3096 45.5436 18.4003 44.7483 18.5217C43.3981 18.7284 42.0602 19.0012 40.7339 19.3301C40.2482 19.4507 40.0077 19.7474 40.0077 20.2507V26.3553H40.0031C40.0031 28.2388 39.9931 30.1207 40.0092 32.005C40.0092 32.6782 40.0507 33.3506 40.1314 34.0191C40.3228 35.5015 40.9491 36.8017 41.905 37.9428C42.9432 39.177 44.1282 40.2574 45.3823 41.2595C47.056 42.5889 48.8511 43.7585 50.743 44.7537C51.493 45.1502 52.2369 45.1556 52.9784 44.7429C53.584 44.4063 54.1949 44.0782 54.7874 43.7185C57.0828 42.3238 59.2045 40.7062 61.0687 38.7636C61.7834 38.0197 62.4189 37.219 62.8838 36.2907C63.4986 35.0611 63.6945 33.7379 63.6992 32.3861C63.7138 28.3364 63.7053 24.2859 63.7053 20.2361ZM44.1235 34.3449H42.7857V23.6373H44.1235V34.3449ZM46.9768 32.0903H45.6382V25.8919H46.9768V32.0903ZM49.7947 33.2176H48.4561V24.7646H49.7947V33.2176ZM52.6119 36.0355H51.274V21.9467H52.6119V36.0355Z" fill="#268334"/>
<defs>
<linearGradient id="paint0_linear_1_21" x1="0" y1="100" x2="1104" y2="100" gradientUnits="userSpaceOnUse">
<stop stop-color="#F1F5FE"/>
</linearGradient>
<clipPath id="clip0_1_21">
<rect width="80" height="10" fill="white" transform="translate(40 68.5532)"/>
</clipPath>
</defs>
</svg>
