<svg width="382" height="186" viewBox="0 0 382 186" fill="none" xmlns="http://www.w3.org/2000/svg">
<rect width="382" height="185.523" rx="6.85766" fill="url(#paint0_linear_8100_17603)"/>
<path d="M193.669 38.3328L191.828 36.4072L189.743 34.2188H190.498L192.237 36.0415L194.425 38.3328H193.669ZM191.915 36.0586L193.724 34.2188H194.425L192.261 36.43L191.915 36.0586ZM192.166 36.4529L190.325 38.3328H189.625L191.82 36.0815L192.166 36.4529Z" fill="#636367"/>
<g clip-path="url(#clip0_8100_17603)">
<path d="M164.978 53.3506H163.57V46.666H164.978V53.3506Z" fill="#18181B"/>
<path d="M172.519 51.2689V46.666H173.917V53.3506H172.48L169.087 48.7383V53.3506H167.68V46.666H169.116L172.519 51.2689Z" fill="#18181B"/>
<path d="M176.102 46.666H180.931V47.8979H179.215V53.3506H177.817V47.8979H176.102V46.666Z" fill="#18181B"/>
<path d="M187.254 46.666V47.8979H184.517V49.3303H186.879V50.5622H184.517V52.1188H187.254V53.3506H183.109V46.666H187.254Z" fill="#18181B"/>
<path d="M195.198 53.3506H193.492L191.603 50.6004H191.15V53.3506H189.742V46.666H192.461C193.155 46.666 193.685 46.8506 194.051 47.2199C194.424 47.5891 194.61 48.073 194.61 48.6714C194.61 49.6455 194.122 50.2407 193.145 50.4572L195.198 53.3506ZM191.15 49.464H192.258C192.567 49.464 192.801 49.4035 192.962 49.2826C193.129 49.1552 193.213 48.9515 193.213 48.6714C193.213 48.3977 193.129 48.2003 192.962 48.0793C192.801 47.9584 192.567 47.8979 192.258 47.8979H191.15V49.464Z" fill="#18181B"/>
<path d="M202.222 51.2689V46.666H203.62V53.3506H202.183L198.79 48.7383V53.3506H197.383V46.666H198.819L202.222 51.2689Z" fill="#18181B"/>
<path d="M209.626 49.9033L211.959 53.3506H210.339L208.864 51.0588L207.399 53.3506H205.789L208.112 49.9128L205.914 46.666H207.515L208.864 48.7574L210.223 46.666H211.833L209.626 49.9033Z" fill="#18181B"/>
<path d="M213.602 46.666H218.431V47.8979H216.715V53.3506H215.317V47.8979H213.602V46.666Z" fill="#18181B"/>
</g>
<path d="M213.855 22.4691H208.786C208.806 22.5492 208.82 22.6204 208.839 22.6894C209.067 23.4444 209.772 24.0098 210.558 24.0857C211.438 24.171 212.15 23.8417 212.765 23.2184L213.586 24.1731C213.335 24.4972 213.015 24.7596 212.648 24.9414C211.336 25.6037 210.032 25.6211 208.79 24.787C207.925 24.2074 207.457 23.3591 207.362 22.3216C207.257 21.193 207.61 20.2187 208.443 19.4426C209.165 18.7687 210.034 18.4884 211.02 18.5706C211.835 18.6391 212.538 18.951 213.098 19.5548C213.605 20.1012 213.86 20.7583 213.917 21.4965C213.938 21.8221 213.917 22.1488 213.855 22.4691ZM212.468 21.2862C212.325 20.4959 211.717 19.8272 210.789 19.7919C209.701 19.7508 209.013 20.44 208.805 21.2862H212.468Z" fill="black"/>
<path d="M203.804 16.6133V21.004L203.826 21.0145C203.897 20.9355 203.969 20.8564 204.037 20.7774C204.666 20.055 205.297 19.3332 205.927 18.6118C205.959 18.5749 206.004 18.5512 206.052 18.546C206.617 18.5412 207.182 18.5423 207.747 18.5423C207.76 18.5423 207.773 18.5449 207.809 18.5486C206.872 19.624 205.946 20.6868 205.013 21.758L208.089 25.3193C208.042 25.3225 208.014 25.3267 207.983 25.3267C207.439 25.3267 206.894 25.3267 206.35 25.3235C206.295 25.3204 206.243 25.2967 206.205 25.2571C205.432 24.363 204.66 23.4673 203.887 22.5699C203.867 22.5467 203.846 22.5257 203.808 22.4851V25.3172H202.406C202.406 25.2851 202.399 25.2498 202.399 25.2118V17.3383C202.392 17.274 202.432 17.214 202.494 17.1955C202.9 17.0148 203.304 16.8267 203.706 16.6454C203.732 16.6386 203.762 16.628 203.804 16.6133Z" fill="black"/>
<path d="M195.351 22.0121C195.328 22.5285 195.243 23.0301 195.023 23.498C194.609 24.3795 193.907 24.9433 192.98 25.1915C191.708 25.5324 190.568 25.2563 189.61 24.3326C189.192 23.9295 188.946 23.4263 188.823 22.8625C188.674 22.2034 188.685 21.5184 188.855 20.8645C189.089 19.9688 189.645 19.3191 190.46 18.925C191.738 18.308 192.978 18.4128 194.129 19.2627C194.821 19.7733 195.18 20.4841 195.295 21.324C195.326 21.5516 195.333 21.7829 195.351 22.0121ZM193.99 21.932C193.978 21.8003 193.975 21.6686 193.951 21.5369C193.812 20.7834 193.395 20.2523 192.66 20.0088C191.803 19.7259 190.902 20.0236 190.42 20.7344C190.08 21.237 190.007 21.7998 190.116 22.3841C190.25 23.1091 190.662 23.6239 191.363 23.8684C192.227 24.1703 193.138 23.8737 193.633 23.156C193.887 22.7893 193.981 22.3731 193.99 21.932Z" fill="black"/>
<path d="M183.016 25.3179V16.418H184.402V23.9174H188.539V25.3179H183.016Z" fill="black"/>
<path d="M201.639 24.2879C201.266 24.6825 200.801 24.9781 200.285 25.1494C198.958 25.5909 197.481 25.1894 196.585 24.1382C196.21 23.6988 196.013 23.1787 195.925 22.615C195.823 21.9579 195.848 21.3066 196.062 20.6723C196.399 19.6764 197.104 19.0389 198.083 18.7227C199.401 18.3012 200.586 18.5678 201.598 19.531C201.611 19.5447 201.623 19.5589 201.635 19.5737C201.526 19.6764 201.421 19.7765 201.315 19.8756C201.134 20.0458 200.951 20.2133 200.773 20.3856C200.744 20.4262 200.687 20.4357 200.646 20.4067C200.642 20.4041 200.639 20.4009 200.636 20.3977C200.254 20.1454 199.845 19.9662 199.384 19.9104C198.436 19.7871 197.544 20.3898 197.304 21.3156C197.138 21.9537 197.199 22.5744 197.567 23.1355C198.054 23.879 198.953 24.1672 199.846 23.8632C200.119 23.7699 200.373 23.6166 200.633 23.4854C200.686 23.4596 200.716 23.4427 200.765 23.4886C201.05 23.7552 201.34 24.0165 201.639 24.2879Z" fill="black"/>
<path d="M216.07 25.3254H214.636C214.617 25.3254 214.597 25.3254 214.57 25.3217V18.7259H215.993V19.2291C216.705 18.5937 217.546 18.5093 218.43 18.5494V20.0774C218.216 20.0584 217.998 20.0247 217.781 20.0247C216.898 20.0184 216.253 20.5717 216.113 21.4474C216.087 21.6118 216.074 21.7777 216.073 21.9442C216.069 23.0291 216.073 24.1135 216.073 25.1984L216.07 25.3254Z" fill="black"/>
<path d="M179.826 13.5334C179.826 13.2109 179.654 12.9911 179.345 12.9158C178.223 12.6323 177.086 12.4168 175.939 12.2708C175.113 12.1722 174.281 12.09 173.45 12.0368C172.805 11.9957 172.157 12.0063 171.51 12.0015C170.494 11.9905 169.479 12.04 168.469 12.1491C167.92 12.2123 167.372 12.2745 166.826 12.3577C165.9 12.4995 164.983 12.6866 164.074 12.9121C163.741 12.9948 163.576 13.1982 163.576 13.5434V17.7295H163.572C163.572 19.0211 163.566 20.3116 163.577 21.6037C163.577 22.0653 163.605 22.5264 163.66 22.9848C163.792 24.0013 164.221 24.8929 164.877 25.6754C165.589 26.5217 166.401 27.2626 167.261 27.9498C168.409 28.8614 169.64 29.6634 170.937 30.3458C171.451 30.6177 171.962 30.6214 172.47 30.3384C172.885 30.1076 173.304 29.8826 173.71 29.636C175.284 28.6796 176.739 27.5703 178.018 26.2382C178.508 25.7281 178.944 25.179 179.262 24.5425C179.684 23.6993 179.818 22.7919 179.822 21.865C179.832 19.088 179.826 16.3104 179.826 13.5334ZM166.398 23.2082H165.481V15.8657H166.398V23.2082ZM168.355 21.6621H167.437V17.4117H168.355V21.6621ZM170.287 22.4352H169.369V16.6387H170.287V22.4352ZM172.219 24.3675H171.301V14.7064H172.219V24.3675Z" fill="#268334"/>
<path d="M32.3226 82.5234V81.2114H35.7626C36.4133 81.2114 36.92 81.0354 37.2826 80.6834C37.656 80.3314 37.8426 79.8514 37.8426 79.2434C37.8426 78.6034 37.6453 78.0914 37.2506 77.7074C36.8666 77.3234 36.3386 77.1314 35.6666 77.1314H32.3226V75.8514H35.5066C36.1573 75.8514 36.6586 75.6968 37.0106 75.3874C37.3733 75.0674 37.5546 74.6141 37.5546 74.0274C37.5546 73.4728 37.384 73.0514 37.0426 72.7634C36.712 72.4648 36.2213 72.3154 35.5706 72.3154H32.3226V71.0034H35.8266C36.872 71.0034 37.704 71.2594 38.3226 71.7714C38.9413 72.2728 39.2506 72.9608 39.2506 73.8354C39.2506 74.3901 39.1226 74.8808 38.8666 75.3074C38.6213 75.7234 38.28 76.0488 37.8426 76.2834C37.4053 76.5074 36.9093 76.6194 36.3546 76.6194L36.4346 76.2834C37.032 76.2834 37.5653 76.4221 38.0346 76.6994C38.504 76.9661 38.8773 77.3341 39.1546 77.8034C39.432 78.2728 39.5706 78.8168 39.5706 79.4354C39.5706 80.0434 39.4213 80.5821 39.1226 81.0514C38.8346 81.5208 38.424 81.8834 37.8906 82.1394C37.3573 82.3954 36.7386 82.5234 36.0346 82.5234H32.3226ZM31.0746 82.5234V71.0034H32.7706V82.5234H31.0746ZM43.9646 82.6834C43.4206 82.6834 42.9406 82.5714 42.5246 82.3474C42.1086 82.1128 41.7833 81.7928 41.5486 81.3874C41.3246 80.9821 41.2126 80.5181 41.2126 79.9954V74.3634H42.8766V79.6114C42.8766 80.1768 43.0153 80.5981 43.2926 80.8754C43.57 81.1528 43.9646 81.2914 44.4766 81.2914C44.9353 81.2914 45.3406 81.1848 45.6926 80.9714C46.0553 80.7581 46.338 80.4648 46.5406 80.0914C46.754 79.7074 46.8606 79.2648 46.8606 78.7634L47.0686 80.7154C46.802 81.3128 46.3913 81.7928 45.8366 82.1554C45.2926 82.5074 44.6686 82.6834 43.9646 82.6834ZM46.9246 82.5234V80.6034H46.8606V74.3634H48.5086V82.5234H46.9246ZM51.3073 85.8034L53.2753 81.3074L53.6113 80.7794L56.0913 74.3634H57.8193L53.0193 85.8034H51.3073ZM53.1953 82.5234L49.7073 74.3634H51.5153L54.4753 81.7074L53.1953 82.5234ZM62.3559 82.5234V71.0034H64.0519V82.5234H62.3559ZM63.1879 82.5234V81.1314H69.8439V82.5234H63.1879ZM74.6106 82.6834C73.7786 82.6834 73.048 82.5021 72.4186 82.1394C71.7893 81.7661 71.2986 81.2594 70.9466 80.6194C70.5946 79.9688 70.4186 79.2328 70.4186 78.4114C70.4186 77.5794 70.5946 76.8488 70.9466 76.2194C71.3093 75.5901 71.8 75.0994 72.4186 74.7474C73.048 74.3848 73.7786 74.2034 74.6106 74.2034C75.4533 74.2034 76.1893 74.3848 76.8186 74.7474C77.448 75.0994 77.9333 75.5901 78.2746 76.2194C78.6266 76.8488 78.8026 77.5794 78.8026 78.4114C78.8026 79.2328 78.6266 79.9688 78.2746 80.6194C77.9333 81.2594 77.448 81.7661 76.8186 82.1394C76.1893 82.5021 75.4533 82.6834 74.6106 82.6834ZM74.6106 81.3234C75.112 81.3234 75.544 81.2008 75.9066 80.9554C76.28 80.7101 76.5733 80.3688 76.7866 79.9314C77 79.4941 77.1066 78.9821 77.1066 78.3954C77.1066 77.5208 76.872 76.8328 76.4026 76.3314C75.944 75.8194 75.3466 75.5634 74.6106 75.5634C73.8853 75.5634 73.288 75.8194 72.8186 76.3314C72.36 76.8434 72.1306 77.5314 72.1306 78.3954C72.1306 78.9821 72.232 79.4941 72.4346 79.9314C72.648 80.3688 72.9413 80.7101 73.3146 80.9554C73.6986 81.2008 74.1306 81.3234 74.6106 81.3234ZM83.9038 82.6834C83.1251 82.6834 82.4318 82.5021 81.8238 82.1394C81.2158 81.7661 80.7358 81.2594 80.3838 80.6194C80.0424 79.9794 79.8717 79.2488 79.8717 78.4274C79.8717 77.6061 80.0424 76.8808 80.3838 76.2514C80.7358 75.6114 81.2158 75.1101 81.8238 74.7474C82.4318 74.3848 83.1198 74.2034 83.8878 74.2034C84.5384 74.2034 85.1198 74.3261 85.6318 74.5714C86.1438 74.8168 86.5651 75.1581 86.8958 75.5954C87.2264 76.0328 87.4398 76.5501 87.5358 77.1474H85.9678C85.8611 76.6674 85.6264 76.2834 85.2638 75.9954C84.9118 75.7074 84.4638 75.5634 83.9198 75.5634C83.4504 75.5634 83.0398 75.6808 82.6878 75.9154C82.3358 76.1501 82.0638 76.4808 81.8718 76.9074C81.6798 77.3341 81.5838 77.8408 81.5838 78.4274C81.5838 79.0034 81.6798 79.5101 81.8718 79.9474C82.0638 80.3848 82.3358 80.7261 82.6878 80.9714C83.0398 81.2061 83.4558 81.3234 83.9358 81.3234C84.4584 81.3234 84.9011 81.1848 85.2638 80.9074C85.6371 80.6194 85.8771 80.2354 85.9838 79.7554H87.5518C87.4451 80.3421 87.2211 80.8541 86.8798 81.2914C86.5491 81.7288 86.1278 82.0701 85.6158 82.3154C85.1038 82.5608 84.5331 82.6834 83.9038 82.6834ZM89.1993 82.5234V70.7954H90.8633V82.5234H89.1993ZM94.4953 82.5234L90.4793 78.2834L94.3673 74.3634H96.4633L92.0473 78.6514L92.1273 77.8994L96.6233 82.5234H94.4953ZM100.938 82.6834C100.117 82.6834 99.3913 82.5021 98.762 82.1394C98.1433 81.7768 97.658 81.2754 97.306 80.6354C96.954 79.9954 96.778 79.2594 96.778 78.4274C96.778 77.5848 96.9487 76.8488 97.29 76.2194C97.642 75.5794 98.1327 75.0834 98.762 74.7314C99.3913 74.3794 100.111 74.2034 100.922 74.2034C101.711 74.2034 102.394 74.3741 102.97 74.7154C103.557 75.0461 104.005 75.5101 104.314 76.1074C104.634 76.7048 104.794 77.4141 104.794 78.2354C104.794 78.3634 104.789 78.4861 104.778 78.6034C104.778 78.7101 104.767 78.8221 104.746 78.9394H97.898V77.6914H103.578L103.162 78.1874C103.162 77.3128 102.965 76.6461 102.57 76.1874C102.175 75.7288 101.626 75.4994 100.922 75.4994C100.165 75.4994 99.562 75.7608 99.114 76.2834C98.6767 76.7954 98.458 77.5101 98.458 78.4274C98.458 79.3554 98.6767 80.0808 99.114 80.6034C99.562 81.1261 100.181 81.3874 100.97 81.3874C101.45 81.3874 101.866 81.2914 102.218 81.0994C102.57 80.8968 102.831 80.6034 103.002 80.2194H104.57C104.303 80.9874 103.85 81.5901 103.21 82.0274C102.581 82.4648 101.823 82.6834 100.938 82.6834ZM106.496 82.5234V74.3634H108.08V76.3954H108.16V82.5234H106.496ZM108.16 78.2674L107.952 76.3314C108.144 75.6381 108.475 75.1101 108.944 74.7474C109.413 74.3848 109.973 74.2034 110.624 74.2034C110.869 74.2034 111.04 74.2248 111.136 74.2674V75.8354C111.083 75.8141 111.008 75.8034 110.912 75.8034C110.816 75.7928 110.699 75.7874 110.56 75.7874C109.76 75.7874 109.157 75.9954 108.752 76.4114C108.357 76.8274 108.16 77.4461 108.16 78.2674ZM115.793 82.5234V71.0034H120.673C121.505 71.0034 122.215 71.1421 122.801 71.4194C123.388 71.6968 123.836 72.0914 124.145 72.6034C124.465 73.1154 124.625 73.7234 124.625 74.4274C124.625 75.1421 124.465 75.7608 124.145 76.2834C123.836 76.7954 123.383 77.1954 122.785 77.4834C122.199 77.7714 121.495 77.9154 120.673 77.9154H117.089V76.5074H120.593C121.351 76.5074 121.927 76.3261 122.321 75.9634C122.727 75.6008 122.929 75.0941 122.929 74.4434C122.929 73.7821 122.732 73.2754 122.337 72.9234C121.943 72.5714 121.361 72.3954 120.593 72.3954H117.489V82.5234H115.793ZM126.356 82.5234V74.3634H127.94V76.3954H128.02V82.5234H126.356ZM128.02 78.2674L127.812 76.3314C128.004 75.6381 128.334 75.1101 128.804 74.7474C129.273 74.3848 129.833 74.2034 130.484 74.2034C130.729 74.2034 130.9 74.2248 130.996 74.2674V75.8354C130.942 75.8141 130.868 75.8034 130.772 75.8034C130.676 75.7928 130.558 75.7874 130.42 75.7874C129.62 75.7874 129.017 75.9954 128.612 76.4114C128.217 76.8274 128.02 77.4461 128.02 78.2674ZM135.766 82.6834C134.945 82.6834 134.219 82.5021 133.59 82.1394C132.971 81.7768 132.486 81.2754 132.134 80.6354C131.782 79.9954 131.606 79.2594 131.606 78.4274C131.606 77.5848 131.777 76.8488 132.118 76.2194C132.47 75.5794 132.961 75.0834 133.59 74.7314C134.219 74.3794 134.939 74.2034 135.75 74.2034C136.539 74.2034 137.222 74.3741 137.798 74.7154C138.385 75.0461 138.833 75.5101 139.142 76.1074C139.462 76.7048 139.622 77.4141 139.622 78.2354C139.622 78.3634 139.617 78.4861 139.606 78.6034C139.606 78.7101 139.595 78.8221 139.574 78.9394H132.726V77.6914H138.406L137.99 78.1874C137.99 77.3128 137.793 76.6461 137.398 76.1874C137.003 75.7288 136.454 75.4994 135.75 75.4994C134.993 75.4994 134.39 75.7608 133.942 76.2834C133.505 76.7954 133.286 77.5101 133.286 78.4274C133.286 79.3554 133.505 80.0808 133.942 80.6034C134.39 81.1261 135.009 81.3874 135.798 81.3874C136.278 81.3874 136.694 81.2914 137.046 81.0994C137.398 80.8968 137.659 80.6034 137.83 80.2194H139.398C139.131 80.9874 138.678 81.5901 138.038 82.0274C137.409 82.4648 136.651 82.6834 135.766 82.6834ZM141.324 82.5234V74.3634H142.908V76.2834H142.988V82.5234H141.324ZM146.828 82.5234V77.1954C146.828 76.6408 146.7 76.2354 146.444 75.9794C146.188 75.7234 145.82 75.5954 145.34 75.5954C144.892 75.5954 144.487 75.7021 144.124 75.9154C143.772 76.1181 143.495 76.4061 143.292 76.7794C143.09 77.1421 142.988 77.5741 142.988 78.0754L142.78 76.1714C143.047 75.5634 143.447 75.0834 143.98 74.7314C144.524 74.3794 145.132 74.2034 145.804 74.2034C146.615 74.2034 147.26 74.4381 147.74 74.9074C148.231 75.3768 148.476 75.9954 148.476 76.7634V82.5234H146.828ZM152.332 82.5234V77.1954C152.332 76.6408 152.199 76.2354 151.932 75.9794C151.676 75.7234 151.308 75.5954 150.828 75.5954C150.391 75.5954 149.991 75.7021 149.628 75.9154C149.276 76.1181 148.994 76.4061 148.78 76.7794C148.578 77.1421 148.476 77.5741 148.476 78.0754L148.14 76.1714C148.418 75.5634 148.834 75.0834 149.388 74.7314C149.954 74.3794 150.583 74.2034 151.276 74.2034C152.098 74.2034 152.754 74.4434 153.244 74.9234C153.735 75.3928 153.98 76.0221 153.98 76.8114V82.5234H152.332ZM156.184 82.5234V74.3634H157.848V82.5234H156.184ZM156.104 72.7634V70.8914H157.944V72.7634H156.104ZM162.746 82.6834C162.202 82.6834 161.722 82.5714 161.306 82.3474C160.89 82.1128 160.565 81.7928 160.33 81.3874C160.106 80.9821 159.994 80.5181 159.994 79.9954V74.3634H161.658V79.6114C161.658 80.1768 161.797 80.5981 162.074 80.8754C162.351 81.1528 162.746 81.2914 163.258 81.2914C163.717 81.2914 164.122 81.1848 164.474 80.9714C164.837 80.7581 165.119 80.4648 165.322 80.0914C165.535 79.7074 165.642 79.2648 165.642 78.7634L165.85 80.7154C165.583 81.3128 165.173 81.7928 164.618 82.1554C164.074 82.5074 163.45 82.6834 162.746 82.6834ZM165.706 82.5234V80.6034H165.642V74.3634H167.29V82.5234H165.706ZM169.621 82.5234V74.3634H171.205V76.2834H171.285V82.5234H169.621ZM175.125 82.5234V77.1954C175.125 76.6408 174.997 76.2354 174.741 75.9794C174.485 75.7234 174.117 75.5954 173.637 75.5954C173.189 75.5954 172.784 75.7021 172.421 75.9154C172.069 76.1181 171.792 76.4061 171.589 76.7794C171.386 77.1421 171.285 77.5741 171.285 78.0754L171.077 76.1714C171.344 75.5634 171.744 75.0834 172.277 74.7314C172.821 74.3794 173.429 74.2034 174.101 74.2034C174.912 74.2034 175.557 74.4381 176.037 74.9074C176.528 75.3768 176.773 75.9954 176.773 76.7634V82.5234H175.125ZM180.629 82.5234V77.1954C180.629 76.6408 180.496 76.2354 180.229 75.9794C179.973 75.7234 179.605 75.5954 179.125 75.5954C178.688 75.5954 178.288 75.7021 177.925 75.9154C177.573 76.1181 177.29 76.4061 177.077 76.7794C176.874 77.1421 176.773 77.5741 176.773 78.0754L176.437 76.1714C176.714 75.5634 177.13 75.0834 177.685 74.7314C178.25 74.3794 178.88 74.2034 179.573 74.2034C180.394 74.2034 181.05 74.4434 181.541 74.9234C182.032 75.3928 182.277 76.0221 182.277 76.8114V82.5234H180.629ZM192.724 82.5234C192.671 82.3208 192.633 82.0968 192.612 81.8514C192.601 81.6061 192.596 81.3074 192.596 80.9554H192.516V77.0674C192.516 76.5448 192.383 76.1554 192.116 75.8994C191.86 75.6328 191.449 75.4994 190.884 75.4994C190.34 75.4994 189.903 75.6061 189.572 75.8194C189.252 76.0328 189.065 76.3368 189.012 76.7314H187.428C187.503 75.9634 187.849 75.3501 188.468 74.8914C189.087 74.4328 189.913 74.2034 190.948 74.2034C192.015 74.2034 192.815 74.4541 193.348 74.9554C193.881 75.4461 194.148 76.1714 194.148 77.1314V80.9554C194.148 81.2008 194.164 81.4514 194.196 81.7074C194.228 81.9634 194.276 82.2354 194.34 82.5234H192.724ZM189.908 82.6834C189.076 82.6834 188.415 82.4808 187.924 82.0754C187.433 81.6594 187.188 81.0994 187.188 80.3954C187.188 79.6701 187.444 79.0994 187.956 78.6834C188.479 78.2568 189.225 77.9688 190.196 77.8194L192.884 77.3874V78.5554L190.452 78.9394C189.908 79.0248 189.497 79.1688 189.22 79.3714C188.953 79.5741 188.82 79.8674 188.82 80.2514C188.82 80.6248 188.943 80.9074 189.188 81.0994C189.444 81.2808 189.812 81.3714 190.292 81.3714C190.932 81.3714 191.46 81.2168 191.876 80.9074C192.303 80.5981 192.516 80.2088 192.516 79.7394L192.724 80.9234C192.532 81.4888 192.191 81.9261 191.7 82.2354C191.209 82.5341 190.612 82.6834 189.908 82.6834ZM196.402 82.5234V74.3634H197.986V76.2834H198.066V82.5234H196.402ZM202.194 82.5234V77.2754C202.194 76.7101 202.05 76.2888 201.762 76.0114C201.485 75.7341 201.069 75.5954 200.514 75.5954C200.034 75.5954 199.608 75.7021 199.234 75.9154C198.872 76.1288 198.584 76.4221 198.37 76.7954C198.168 77.1688 198.066 77.6114 198.066 78.1234L197.858 76.1714C198.125 75.5634 198.536 75.0834 199.09 74.7314C199.645 74.3794 200.29 74.2034 201.026 74.2034C201.901 74.2034 202.589 74.4488 203.09 74.9394C203.592 75.4301 203.842 76.0808 203.842 76.8914V82.5234H202.194ZM211.994 82.5234V80.6514L212.154 80.6994C211.983 81.3074 211.631 81.7928 211.098 82.1554C210.564 82.5074 209.924 82.6834 209.178 82.6834C208.442 82.6834 207.796 82.5074 207.242 82.1554C206.698 81.8034 206.271 81.3128 205.962 80.6834C205.663 80.0541 205.514 79.3181 205.514 78.4754C205.514 77.6221 205.668 76.8754 205.978 76.2354C206.287 75.5954 206.719 75.0994 207.274 74.7474C207.828 74.3954 208.479 74.2194 209.226 74.2194C210.004 74.2194 210.644 74.4061 211.146 74.7794C211.658 75.1421 211.994 75.6541 212.154 76.3154L211.93 76.3474V71.0034H213.578V82.5234H211.994ZM209.594 81.2914C210.33 81.2914 210.911 81.0408 211.338 80.5394C211.764 80.0274 211.978 79.3234 211.978 78.4274C211.978 77.5528 211.759 76.8648 211.322 76.3634C210.895 75.8514 210.314 75.5954 209.578 75.5954C208.852 75.5954 208.276 75.8514 207.85 76.3634C207.434 76.8648 207.226 77.5688 207.226 78.4754C207.226 79.3608 207.434 80.0541 207.85 80.5554C208.276 81.0461 208.858 81.2914 209.594 81.2914ZM222.517 85.9634C221.386 85.9634 220.464 85.7234 219.749 85.2434C219.045 84.7634 218.629 84.1128 218.501 83.2914H220.773C220.858 83.4941 221.04 83.6488 221.317 83.7554C221.605 83.8621 221.968 83.9154 222.405 83.9154C223.13 83.9154 223.658 83.7768 223.989 83.4994C224.32 83.2221 224.485 82.7901 224.485 82.2034V80.4274L224.613 80.4594C224.506 81.0568 224.197 81.5314 223.685 81.8834C223.173 82.2248 222.538 82.3954 221.781 82.3954C221.056 82.3954 220.421 82.2301 219.877 81.8994C219.344 81.5581 218.928 81.0834 218.629 80.4754C218.33 79.8674 218.181 79.1528 218.181 78.3314C218.181 77.4994 218.336 76.7741 218.645 76.1554C218.954 75.5368 219.386 75.0568 219.941 74.7154C220.506 74.3741 221.162 74.2034 221.909 74.2034C222.677 74.2034 223.301 74.3848 223.781 74.7474C224.272 75.1101 224.56 75.6061 224.645 76.2354L224.533 76.2514V74.3634H226.885V82.1714C226.885 83.3448 226.496 84.2674 225.717 84.9394C224.938 85.6221 223.872 85.9634 222.517 85.9634ZM222.613 80.5554C223.178 80.5554 223.637 80.3634 223.989 79.9794C224.341 79.5848 224.517 79.0248 224.517 78.2994C224.517 77.5741 224.336 77.0194 223.973 76.6354C223.621 76.2408 223.157 76.0434 222.581 76.0434C222.026 76.0434 221.568 76.2408 221.205 76.6354C220.853 77.0301 220.677 77.5901 220.677 78.3154C220.677 79.0408 220.853 79.5954 221.205 79.9794C221.568 80.3634 222.037 80.5554 222.613 80.5554ZM232.644 82.6834C231.737 82.6834 230.948 82.5074 230.276 82.1554C229.604 81.7928 229.081 81.2914 228.708 80.6514C228.345 80.0114 228.164 79.2754 228.164 78.4434C228.164 77.6008 228.345 76.8648 228.708 76.2354C229.081 75.5954 229.598 75.0994 230.26 74.7474C230.921 74.3848 231.689 74.2034 232.564 74.2034C233.406 74.2034 234.137 74.3741 234.756 74.7154C235.374 75.0568 235.854 75.5314 236.196 76.1394C236.537 76.7474 236.708 77.4621 236.708 78.2834C236.708 78.4541 236.702 78.6141 236.692 78.7634C236.681 78.9021 236.665 79.0354 236.644 79.1634H229.572V77.5794H234.708L234.292 77.8674C234.292 77.2061 234.132 76.7208 233.812 76.4114C233.502 76.0914 233.076 75.9314 232.532 75.9314C231.902 75.9314 231.412 76.1448 231.06 76.5714C230.718 76.9981 230.548 77.6381 230.548 78.4914C230.548 79.3234 230.718 79.9421 231.06 80.3474C231.412 80.7528 231.934 80.9554 232.628 80.9554C233.012 80.9554 233.342 80.8914 233.62 80.7634C233.897 80.6354 234.105 80.4274 234.244 80.1394H236.5C236.233 80.9288 235.774 81.5528 235.124 82.0114C234.484 82.4594 233.657 82.6834 232.644 82.6834ZM241.645 82.6994C240.599 82.6994 239.821 82.4488 239.309 81.9474C238.807 81.4354 238.557 80.6621 238.557 79.6274V72.5394L240.957 71.6434V79.7074C240.957 80.0701 241.058 80.3421 241.261 80.5234C241.463 80.7048 241.778 80.7954 242.205 80.7954C242.365 80.7954 242.514 80.7794 242.653 80.7474C242.791 80.7154 242.93 80.6781 243.069 80.6354V82.4594C242.93 82.5341 242.733 82.5928 242.477 82.6354C242.231 82.6781 241.954 82.6994 241.645 82.6994ZM237.037 76.1874V74.3634H243.069V76.1874H237.037ZM247.394 82.5234V71.0034H249.858V82.5234H247.394ZM251.616 82.5234V74.3634H253.968V76.2834H254.016V82.5234H251.616ZM257.296 82.5234V77.4674C257.296 77.0194 257.179 76.6834 256.944 76.4594C256.72 76.2354 256.39 76.1234 255.952 76.1234C255.579 76.1234 255.243 76.2088 254.944 76.3794C254.656 76.5501 254.427 76.7848 254.256 77.0834C254.096 77.3821 254.016 77.7341 254.016 78.1394L253.808 76.1714C254.075 75.5741 254.464 75.0994 254.976 74.7474C255.499 74.3848 256.139 74.2034 256.896 74.2034C257.803 74.2034 258.496 74.4594 258.976 74.9714C259.456 75.4728 259.696 76.1501 259.696 77.0034V82.5234H257.296ZM265.051 82.6994C264.005 82.6994 263.227 82.4488 262.715 81.9474C262.213 81.4354 261.963 80.6621 261.963 79.6274V72.5394L264.363 71.6434V79.7074C264.363 80.0701 264.464 80.3421 264.667 80.5234C264.869 80.7048 265.184 80.7954 265.611 80.7954C265.771 80.7954 265.92 80.7794 266.059 80.7474C266.197 80.7154 266.336 80.6781 266.475 80.6354V82.4594C266.336 82.5341 266.139 82.5928 265.883 82.6354C265.637 82.6781 265.36 82.6994 265.051 82.6994ZM260.443 76.1874V74.3634H266.475V76.1874H260.443ZM271.472 82.6834C270.565 82.6834 269.776 82.5074 269.104 82.1554C268.432 81.7928 267.909 81.2914 267.536 80.6514C267.173 80.0114 266.992 79.2754 266.992 78.4434C266.992 77.6008 267.173 76.8648 267.536 76.2354C267.909 75.5954 268.427 75.0994 269.088 74.7474C269.749 74.3848 270.517 74.2034 271.392 74.2034C272.235 74.2034 272.965 74.3741 273.584 74.7154C274.203 75.0568 274.683 75.5314 275.024 76.1394C275.365 76.7474 275.536 77.4621 275.536 78.2834C275.536 78.4541 275.531 78.6141 275.52 78.7634C275.509 78.9021 275.493 79.0354 275.472 79.1634H268.4V77.5794H273.536L273.12 77.8674C273.12 77.2061 272.96 76.7208 272.64 76.4114C272.331 76.0914 271.904 75.9314 271.36 75.9314C270.731 75.9314 270.24 76.1448 269.888 76.5714C269.547 76.9981 269.376 77.6381 269.376 78.4914C269.376 79.3234 269.547 79.9421 269.888 80.3474C270.24 80.7528 270.763 80.9554 271.456 80.9554C271.84 80.9554 272.171 80.8914 272.448 80.7634C272.725 80.6354 272.933 80.4274 273.072 80.1394H275.328C275.061 80.9288 274.603 81.5528 273.952 82.0114C273.312 82.4594 272.485 82.6834 271.472 82.6834ZM276.819 82.5234V74.3634H279.171V76.2834H279.219V82.5234H276.819ZM279.219 78.2674L279.011 76.3314C279.203 75.6381 279.518 75.1101 279.955 74.7474C280.393 74.3848 280.937 74.2034 281.587 74.2034C281.79 74.2034 281.939 74.2248 282.035 74.2674V76.5074C281.982 76.4861 281.907 76.4754 281.811 76.4754C281.715 76.4648 281.598 76.4594 281.459 76.4594C280.691 76.4594 280.126 76.5981 279.763 76.8754C279.401 77.1421 279.219 77.6061 279.219 78.2674ZM283.194 82.5234V74.3634H285.546V76.2834H285.594V82.5234H283.194ZM288.874 82.5234V77.4674C288.874 77.0194 288.757 76.6834 288.522 76.4594C288.298 76.2354 287.968 76.1234 287.53 76.1234C287.157 76.1234 286.821 76.2088 286.522 76.3794C286.234 76.5501 286.005 76.7848 285.834 77.0834C285.674 77.3821 285.594 77.7341 285.594 78.1394L285.386 76.1714C285.653 75.5741 286.042 75.0994 286.554 74.7474C287.077 74.3848 287.717 74.2034 288.474 74.2034C289.381 74.2034 290.074 74.4594 290.554 74.9714C291.034 75.4728 291.274 76.1501 291.274 77.0034V82.5234H288.874ZM298.311 82.5234L295.895 78.9394L292.423 74.3634H295.111L297.271 77.5794L300.999 82.5234H298.311ZM296.087 77.4514L298.247 74.3634H300.871L297.223 79.1314L296.087 77.4514ZM297.015 79.2594L294.695 82.5234H292.087L295.879 77.5794L297.015 79.2594ZM306.16 82.6994C305.115 82.6994 304.336 82.4488 303.824 81.9474C303.323 81.4354 303.072 80.6621 303.072 79.6274V72.5394L305.472 71.6434V79.7074C305.472 80.0701 305.573 80.3421 305.776 80.5234C305.979 80.7048 306.293 80.7954 306.72 80.7954C306.88 80.7954 307.029 80.7794 307.168 80.7474C307.307 80.7154 307.445 80.6781 307.584 80.6354V82.4594C307.445 82.5341 307.248 82.5928 306.992 82.6354C306.747 82.6781 306.469 82.6994 306.16 82.6994ZM301.552 76.1874V74.3634H307.584V76.1874H301.552ZM309.198 75.8034L308.59 73.7394C308.462 73.3128 308.366 72.9661 308.302 72.6994C308.249 72.4221 308.222 72.1501 308.222 71.8834C308.222 71.6914 308.265 71.4888 308.35 71.2754C308.446 71.0621 308.59 70.8861 308.782 70.7474C308.985 70.5981 309.246 70.5234 309.566 70.5234C309.886 70.5234 310.142 70.5981 310.334 70.7474C310.537 70.8861 310.681 71.0621 310.766 71.2754C310.862 71.4888 310.91 71.6914 310.91 71.8834C310.91 72.1501 310.878 72.4221 310.814 72.6994C310.761 72.9661 310.67 73.3128 310.542 73.7394L309.934 75.8034H309.198ZM314.803 82.6834C313.608 82.6834 312.659 82.4434 311.955 81.9634C311.251 81.4834 310.867 80.8221 310.803 79.9794H312.947C313 80.3421 313.182 80.6194 313.491 80.8114C313.811 80.9928 314.248 81.0834 314.803 81.0834C315.304 81.0834 315.667 81.0141 315.891 80.8754C316.126 80.7261 316.243 80.5181 316.243 80.2514C316.243 80.0488 316.174 79.8941 316.035 79.7874C315.907 79.6701 315.667 79.5741 315.315 79.4994L314.003 79.2274C313.032 79.0248 312.318 78.7208 311.859 78.3154C311.4 77.8994 311.171 77.3661 311.171 76.7154C311.171 75.9261 311.475 75.3128 312.083 74.8754C312.691 74.4274 313.539 74.2034 314.627 74.2034C315.704 74.2034 316.563 74.4221 317.203 74.8594C317.843 75.2861 318.195 75.8834 318.259 76.6514H316.115C316.072 76.3741 315.923 76.1661 315.667 76.0274C315.411 75.8781 315.048 75.8034 314.579 75.8034C314.152 75.8034 313.832 75.8674 313.619 75.9954C313.416 76.1128 313.315 76.2834 313.315 76.5074C313.315 76.6994 313.4 76.8541 313.571 76.9714C313.742 77.0781 314.024 77.1741 314.419 77.2594L315.891 77.5634C316.712 77.7341 317.331 78.0541 317.747 78.5234C318.174 78.9821 318.387 79.5261 318.387 80.1554C318.387 80.9554 318.072 81.5794 317.443 82.0274C316.824 82.4648 315.944 82.6834 314.803 82.6834ZM326.36 82.6834C325.176 82.6834 324.206 82.3794 323.448 81.7714C322.691 81.1634 322.222 80.3101 322.04 79.2114H324.488C324.574 79.7021 324.787 80.0914 325.128 80.3794C325.47 80.6568 325.859 80.7954 326.296 80.7954C326.798 80.7954 327.198 80.6248 327.496 80.2834C327.806 79.9314 327.96 79.4034 327.96 78.6994C327.96 78.0274 327.816 77.5154 327.528 77.1634C327.24 76.8008 326.846 76.6194 326.344 76.6194C326.056 76.6194 325.784 76.6888 325.528 76.8274C325.272 76.9554 325.059 77.1688 324.888 77.4674H322.648L323.24 71.0034H329.864V72.8914H324.104L325.416 72.7154L325.128 76.3154L324.328 76.2034C324.606 75.7661 324.942 75.4354 325.336 75.2114C325.742 74.9768 326.254 74.8594 326.872 74.8594C327.608 74.8594 328.254 75.0194 328.808 75.3394C329.363 75.6594 329.795 76.1074 330.104 76.6834C330.414 77.2594 330.568 77.9421 330.568 78.7314C330.568 79.5634 330.392 80.2728 330.04 80.8594C329.688 81.4461 329.198 81.8994 328.568 82.2194C327.939 82.5288 327.203 82.6834 326.36 82.6834ZM335.16 82.5234V72.8914H331.4V71.0034H341.384V72.8914H337.624V82.5234H335.16ZM344.535 82.5234V80.7634H347.511C348.044 80.7634 348.444 80.6194 348.711 80.3314C348.988 80.0328 349.127 79.6221 349.127 79.0994C349.127 78.5661 348.977 78.1448 348.679 77.8354C348.391 77.5261 347.975 77.3714 347.431 77.3714H344.535V75.6114H347.303C347.804 75.6114 348.183 75.4941 348.439 75.2594C348.705 75.0141 348.839 74.6568 348.839 74.1874C348.839 73.7181 348.711 73.3661 348.455 73.1314C348.209 72.8861 347.841 72.7634 347.351 72.7634H344.535V71.0034H347.879C348.903 71.0034 349.729 71.2648 350.359 71.7874C350.988 72.3101 351.303 73.0194 351.303 73.9154C351.303 74.4808 351.169 74.9661 350.903 75.3714C350.636 75.7768 350.279 76.0861 349.831 76.2994C349.383 76.5128 348.881 76.6194 348.327 76.6194L348.407 76.2834C349.004 76.2834 349.543 76.4114 350.023 76.6674C350.513 76.9234 350.903 77.2861 351.191 77.7554C351.479 78.2141 351.623 78.7581 351.623 79.3874C351.623 80.0168 351.473 80.5714 351.175 81.0514C350.887 81.5208 350.476 81.8834 349.943 82.1394C349.42 82.3954 348.801 82.5234 348.087 82.5234H344.535ZM342.519 82.5234V71.0034H344.983V82.5234H342.519ZM106.698 101.523C106.634 101.289 106.586 101.038 106.554 100.771C106.532 100.505 106.522 100.195 106.522 99.8434H106.458V95.9874C106.458 95.6568 106.346 95.4008 106.122 95.2194C105.908 95.0274 105.588 94.9314 105.162 94.9314C104.756 94.9314 104.431 95.0008 104.186 95.1394C103.951 95.2781 103.796 95.4808 103.722 95.7474H101.434C101.54 95.0114 101.919 94.4034 102.57 93.9234C103.22 93.4434 104.111 93.2034 105.242 93.2034C106.415 93.2034 107.311 93.4648 107.93 93.9874C108.548 94.5101 108.858 95.2621 108.858 96.2434V99.8434C108.858 100.11 108.874 100.382 108.906 100.659C108.948 100.926 109.012 101.214 109.098 101.523H106.698ZM103.85 101.683C103.039 101.683 102.394 101.481 101.914 101.075C101.434 100.659 101.194 100.11 101.194 99.4274C101.194 98.6701 101.476 98.0621 102.042 97.6034C102.618 97.1341 103.418 96.8301 104.442 96.6914L106.826 96.3554V97.7474L104.842 98.0514C104.415 98.1154 104.1 98.2328 103.898 98.4034C103.695 98.5741 103.594 98.8088 103.594 99.1074C103.594 99.3741 103.69 99.5768 103.882 99.7154C104.074 99.8541 104.33 99.9234 104.65 99.9234C105.151 99.9234 105.578 99.7901 105.93 99.5234C106.282 99.2461 106.458 98.9261 106.458 98.5634L106.682 99.8434C106.447 100.451 106.09 100.91 105.61 101.219C105.13 101.529 104.543 101.683 103.85 101.683ZM110.702 101.523V93.3634H113.054V95.2834H113.102V101.523H110.702ZM116.382 101.523V96.4674C116.382 96.0194 116.265 95.6834 116.03 95.4594C115.806 95.2354 115.476 95.1234 115.038 95.1234C114.665 95.1234 114.329 95.2088 114.03 95.3794C113.742 95.5501 113.513 95.7848 113.342 96.0834C113.182 96.3821 113.102 96.7341 113.102 97.1394L112.894 95.1714C113.161 94.5741 113.55 94.0994 114.062 93.7474C114.585 93.3848 115.225 93.2034 115.982 93.2034C116.889 93.2034 117.582 93.4594 118.062 93.9714C118.542 94.4728 118.782 95.1501 118.782 96.0034V101.523H116.382ZM120.608 101.523V93.3634H122.96V95.2834H123.008V101.523H120.608ZM126.288 101.523V96.4674C126.288 96.0194 126.171 95.6834 125.936 95.4594C125.712 95.2354 125.382 95.1234 124.944 95.1234C124.571 95.1234 124.235 95.2088 123.936 95.3794C123.648 95.5501 123.419 95.7848 123.248 96.0834C123.088 96.3821 123.008 96.7341 123.008 97.1394L122.8 95.1714C123.067 94.5741 123.456 94.0994 123.968 93.7474C124.491 93.3848 125.131 93.2034 125.888 93.2034C126.795 93.2034 127.488 93.4594 127.968 93.9714C128.448 94.4728 128.688 95.1501 128.688 96.0034V101.523H126.288ZM132.889 101.683C132.313 101.683 131.817 101.561 131.401 101.315C130.996 101.059 130.686 100.723 130.473 100.307C130.26 99.8808 130.153 99.4061 130.153 98.8834V93.3634H132.553V98.4194C132.553 98.8674 132.665 99.2034 132.889 99.4274C133.113 99.6514 133.428 99.7634 133.833 99.7634C134.196 99.7634 134.516 99.6781 134.793 99.5074C135.07 99.3368 135.289 99.1021 135.449 98.8034C135.62 98.4941 135.705 98.1421 135.705 97.7474L135.913 99.7154C135.646 100.302 135.257 100.777 134.745 101.139C134.233 101.502 133.614 101.683 132.889 101.683ZM135.753 101.523V99.6034H135.705V93.3634H138.105V101.523H135.753ZM144.916 101.523C144.852 101.289 144.804 101.038 144.772 100.771C144.751 100.505 144.74 100.195 144.74 99.8434H144.676V95.9874C144.676 95.6568 144.564 95.4008 144.34 95.2194C144.127 95.0274 143.807 94.9314 143.38 94.9314C142.975 94.9314 142.65 95.0008 142.404 95.1394C142.17 95.2781 142.015 95.4808 141.94 95.7474H139.652C139.759 95.0114 140.138 94.4034 140.788 93.9234C141.439 93.4434 142.33 93.2034 143.46 93.2034C144.634 93.2034 145.53 93.4648 146.148 93.9874C146.767 94.5101 147.076 95.2621 147.076 96.2434V99.8434C147.076 100.11 147.092 100.382 147.124 100.659C147.167 100.926 147.231 101.214 147.316 101.523H144.916ZM142.068 101.683C141.258 101.683 140.612 101.481 140.132 101.075C139.652 100.659 139.412 100.11 139.412 99.4274C139.412 98.6701 139.695 98.0621 140.26 97.6034C140.836 97.1341 141.636 96.8301 142.66 96.6914L145.044 96.3554V97.7474L143.06 98.0514C142.634 98.1154 142.319 98.2328 142.116 98.4034C141.914 98.5741 141.812 98.8088 141.812 99.1074C141.812 99.3741 141.908 99.5768 142.1 99.7154C142.292 99.8541 142.548 99.9234 142.868 99.9234C143.37 99.9234 143.796 99.7901 144.148 99.5234C144.5 99.2461 144.676 98.9261 144.676 98.5634L144.9 99.8434C144.666 100.451 144.308 100.91 143.828 101.219C143.348 101.529 142.762 101.683 142.068 101.683ZM148.921 101.523V90.0034H151.321V101.523H148.921ZM161.256 101.683C160.478 101.683 159.854 101.502 159.384 101.139C158.915 100.777 158.638 100.281 158.552 99.6514L158.68 99.6354V104.803H156.28V93.3634H158.632V95.1714L158.488 95.1394C158.606 94.5421 158.926 94.0728 159.448 93.7314C159.971 93.3794 160.616 93.2034 161.384 93.2034C162.12 93.2034 162.755 93.3794 163.288 93.7314C163.832 94.0728 164.248 94.5581 164.536 95.1874C164.835 95.8168 164.984 96.5581 164.984 97.4114C164.984 98.2754 164.83 99.0274 164.52 99.6674C164.211 100.307 163.779 100.803 163.224 101.155C162.67 101.507 162.014 101.683 161.256 101.683ZM160.584 99.7634C161.15 99.7634 161.608 99.5608 161.96 99.1554C162.312 98.7501 162.488 98.1741 162.488 97.4274C162.488 96.6808 162.307 96.1101 161.944 95.7154C161.592 95.3208 161.128 95.1234 160.552 95.1234C159.998 95.1234 159.539 95.3261 159.176 95.7314C158.824 96.1261 158.648 96.6968 158.648 97.4434C158.648 98.1901 158.824 98.7661 159.176 99.1714C159.539 99.5661 160.008 99.7634 160.584 99.7634ZM166.327 101.523V90.0034H168.727V101.523H166.327ZM175.776 101.523C175.712 101.289 175.664 101.038 175.632 100.771C175.61 100.505 175.6 100.195 175.6 99.8434H175.536V95.9874C175.536 95.6568 175.424 95.4008 175.2 95.2194C174.986 95.0274 174.666 94.9314 174.24 94.9314C173.834 94.9314 173.509 95.0008 173.264 95.1394C173.029 95.2781 172.874 95.4808 172.8 95.7474H170.512C170.618 95.0114 170.997 94.4034 171.648 93.9234C172.298 93.4434 173.189 93.2034 174.32 93.2034C175.493 93.2034 176.389 93.4648 177.008 93.9874C177.626 94.5101 177.936 95.2621 177.936 96.2434V99.8434C177.936 100.11 177.952 100.382 177.984 100.659C178.026 100.926 178.09 101.214 178.176 101.523H175.776ZM172.928 101.683C172.117 101.683 171.472 101.481 170.992 101.075C170.512 100.659 170.272 100.11 170.272 99.4274C170.272 98.6701 170.554 98.0621 171.12 97.6034C171.696 97.1341 172.496 96.8301 173.52 96.6914L175.904 96.3554V97.7474L173.92 98.0514C173.493 98.1154 173.178 98.2328 172.976 98.4034C172.773 98.5741 172.672 98.8088 172.672 99.1074C172.672 99.3741 172.768 99.5768 172.96 99.7154C173.152 99.8541 173.408 99.9234 173.728 99.9234C174.229 99.9234 174.656 99.7901 175.008 99.5234C175.36 99.2461 175.536 98.9261 175.536 98.5634L175.76 99.8434C175.525 100.451 175.168 100.91 174.688 101.219C174.208 101.529 173.621 101.683 172.928 101.683ZM179.78 101.523V93.3634H182.132V95.2834H182.18V101.523H179.78ZM185.46 101.523V96.4674C185.46 96.0194 185.343 95.6834 185.108 95.4594C184.884 95.2354 184.554 95.1234 184.116 95.1234C183.743 95.1234 183.407 95.2088 183.108 95.3794C182.82 95.5501 182.591 95.7848 182.42 96.0834C182.26 96.3821 182.18 96.7341 182.18 97.1394L181.972 95.1714C182.239 94.5741 182.628 94.0994 183.14 93.7474C183.663 93.3848 184.303 93.2034 185.06 93.2034C185.967 93.2034 186.66 93.4594 187.14 93.9714C187.62 94.4728 187.86 95.1501 187.86 96.0034V101.523H185.46ZM193.357 101.523V92.8194C193.357 91.8381 193.624 91.0968 194.157 90.5954C194.691 90.0941 195.48 89.8434 196.525 89.8434C196.749 89.8434 196.941 89.8541 197.101 89.8754C197.272 89.8968 197.437 89.9341 197.597 89.9874V91.8274C197.523 91.7954 197.432 91.7741 197.325 91.7634C197.219 91.7421 197.091 91.7314 196.941 91.7314C196.536 91.7314 196.237 91.8274 196.045 92.0194C195.853 92.2114 195.757 92.4888 195.757 92.8514V101.523H193.357ZM191.997 95.1874V93.3634H197.421V95.1874H191.997ZM202.277 101.683C201.381 101.683 200.592 101.507 199.909 101.155C199.237 100.793 198.709 100.291 198.325 99.6514C197.952 99.0008 197.765 98.2541 197.765 97.4114C197.765 96.5688 197.952 95.8328 198.325 95.2034C198.709 94.5741 199.237 94.0834 199.909 93.7314C200.592 93.3794 201.381 93.2034 202.277 93.2034C203.184 93.2034 203.973 93.3794 204.645 93.7314C205.328 94.0834 205.856 94.5741 206.229 95.2034C206.603 95.8328 206.789 96.5688 206.789 97.4114C206.789 98.2541 206.597 99.0008 206.213 99.6514C205.84 100.291 205.312 100.793 204.629 101.155C203.957 101.507 203.173 101.683 202.277 101.683ZM202.277 99.7954C202.651 99.7954 202.987 99.6994 203.285 99.5074C203.595 99.3154 203.84 99.0434 204.021 98.6914C204.203 98.3288 204.293 97.8968 204.293 97.3954C204.293 96.6594 204.096 96.0941 203.701 95.6994C203.317 95.2941 202.843 95.0914 202.277 95.0914C201.712 95.0914 201.232 95.2941 200.837 95.6994C200.453 96.1048 200.261 96.6701 200.261 97.3954C200.261 97.8968 200.352 98.3288 200.533 98.6914C200.715 99.0434 200.955 99.3154 201.253 99.5074C201.563 99.6994 201.904 99.7954 202.277 99.7954ZM208.062 101.523V93.3634H210.414V95.2834H210.462V101.523H208.062ZM210.462 97.2674L210.254 95.3314C210.446 94.6381 210.76 94.1101 211.198 93.7474C211.635 93.3848 212.179 93.2034 212.83 93.2034C213.032 93.2034 213.182 93.2248 213.278 93.2674V95.5074C213.224 95.4861 213.15 95.4754 213.054 95.4754C212.958 95.4648 212.84 95.4594 212.702 95.4594C211.934 95.4594 211.368 95.5981 211.006 95.8754C210.643 96.1421 210.462 96.6061 210.462 97.2674Z" fill="#18181B"/>
<path d="M218.907 101.523C219.067 99.6994 219.515 97.9448 220.251 96.2594C220.998 94.5634 221.942 93.0061 223.083 91.5874V91.8914H216.907V90.0034H225.403V91.7634C224.678 92.7981 224.043 93.8381 223.499 94.8834C222.955 95.9288 222.518 97.0008 222.187 98.0994C221.857 99.1874 221.643 100.329 221.547 101.523H218.907ZM230.056 101.683C228.872 101.683 227.901 101.379 227.144 100.771C226.386 100.163 225.917 99.3101 225.736 98.2114H228.184C228.269 98.7021 228.482 99.0914 228.824 99.3794C229.165 99.6568 229.554 99.7954 229.992 99.7954C230.493 99.7954 230.893 99.6248 231.192 99.2834C231.501 98.9314 231.656 98.4034 231.656 97.6994C231.656 97.0274 231.512 96.5154 231.224 96.1634C230.936 95.8008 230.541 95.6194 230.04 95.6194C229.752 95.6194 229.48 95.6888 229.224 95.8274C228.968 95.9554 228.754 96.1688 228.584 96.4674H226.344L226.936 90.0034H233.56V91.8914H227.8L229.112 91.7154L228.824 95.3154L228.024 95.2034C228.301 94.7661 228.637 94.4354 229.032 94.2114C229.437 93.9768 229.949 93.8594 230.568 93.8594C231.304 93.8594 231.949 94.0194 232.504 94.3394C233.058 94.6594 233.49 95.1074 233.8 95.6834C234.109 96.2594 234.264 96.9421 234.264 97.7314C234.264 98.5634 234.088 99.2728 233.736 99.8594C233.384 100.446 232.893 100.899 232.264 101.219C231.634 101.529 230.898 101.683 230.056 101.683ZM235.333 101.523L243.749 90.0034H245.589L237.189 101.523H235.333ZM243.525 101.683C243.077 101.683 242.655 101.577 242.261 101.363C241.866 101.15 241.546 100.825 241.301 100.387C241.055 99.9501 240.933 99.3954 240.933 98.7234C240.933 98.0514 241.05 97.5021 241.285 97.0754C241.53 96.6381 241.85 96.3128 242.245 96.0994C242.639 95.8861 243.066 95.7794 243.525 95.7794C244.005 95.7794 244.442 95.8861 244.837 96.0994C245.242 96.3128 245.562 96.6381 245.797 97.0754C246.031 97.5021 246.149 98.0514 246.149 98.7234C246.149 99.3954 246.026 99.9501 245.781 100.387C245.535 100.825 245.21 101.15 244.805 101.363C244.41 101.577 243.983 101.683 243.525 101.683ZM243.525 100.307C243.855 100.307 244.133 100.174 244.357 99.9074C244.581 99.6301 244.693 99.2301 244.693 98.7074C244.693 98.2061 244.581 97.8221 244.357 97.5554C244.143 97.2888 243.866 97.1554 243.525 97.1554C243.183 97.1554 242.906 97.2888 242.693 97.5554C242.49 97.8221 242.389 98.2061 242.389 98.7074C242.389 99.2301 242.49 99.6301 242.693 99.9074C242.906 100.174 243.183 100.307 243.525 100.307ZM237.285 95.7474C236.826 95.7474 236.399 95.6408 236.005 95.4274C235.61 95.2141 235.29 94.8888 235.045 94.4514C234.81 94.0141 234.693 93.4594 234.693 92.7874C234.693 92.1154 234.81 91.5661 235.045 91.1394C235.29 90.7021 235.61 90.3768 236.005 90.1634C236.399 89.9501 236.826 89.8434 237.285 89.8434C237.765 89.8434 238.202 89.9501 238.597 90.1634C238.991 90.3768 239.306 90.7021 239.541 91.1394C239.775 91.5661 239.893 92.1154 239.893 92.7874C239.893 93.4594 239.77 94.0141 239.525 94.4514C239.279 94.8888 238.959 95.2141 238.565 95.4274C238.17 95.6408 237.743 95.7474 237.285 95.7474ZM237.285 94.3714C237.615 94.3714 237.893 94.2381 238.117 93.9714C238.341 93.6941 238.453 93.2941 238.453 92.7714C238.453 92.2701 238.341 91.8861 238.117 91.6194C237.903 91.3528 237.626 91.2194 237.285 91.2194C236.943 91.2194 236.666 91.3528 236.453 91.6194C236.25 91.8754 236.149 92.2594 236.149 92.7714C236.149 93.2941 236.25 93.6941 236.453 93.9714C236.666 94.2381 236.943 94.3714 237.285 94.3714ZM256.142 101.683C255.288 101.683 254.499 101.539 253.774 101.251C253.059 100.963 252.435 100.558 251.902 100.035C251.379 99.5021 250.968 98.8728 250.67 98.1474C250.382 97.4114 250.238 96.6008 250.238 95.7154C250.238 94.5421 250.488 93.5181 250.99 92.6434C251.491 91.7581 252.184 91.0701 253.07 90.5794C253.966 90.0888 254.984 89.8434 256.126 89.8434C257.288 89.8434 258.312 90.0888 259.198 90.5794C260.083 91.0701 260.776 91.7581 261.278 92.6434C261.79 93.5288 262.046 94.5581 262.046 95.7314C262.046 96.6061 261.896 97.4114 261.598 98.1474C261.31 98.8728 260.899 99.5021 260.366 100.035C259.843 100.558 259.219 100.963 258.494 101.251C257.779 101.539 256.995 101.683 256.142 101.683ZM256.126 99.7314C256.798 99.7314 257.39 99.5608 257.902 99.2194C258.414 98.8781 258.814 98.4088 259.102 97.8114C259.4 97.2034 259.55 96.4994 259.55 95.6994C259.55 94.9101 259.406 94.2221 259.118 93.6354C258.83 93.0488 258.43 92.5954 257.918 92.2754C257.406 91.9554 256.808 91.7954 256.126 91.7954C255.454 91.7954 254.862 91.9554 254.35 92.2754C253.838 92.5954 253.438 93.0488 253.15 93.6354C252.872 94.2114 252.734 94.8994 252.734 95.6994C252.734 96.5101 252.878 97.2194 253.166 97.8274C253.454 98.4248 253.854 98.8941 254.366 99.2354C254.878 99.5661 255.464 99.7314 256.126 99.7314ZM263.323 101.523V90.0034H265.787V101.523H263.323ZM264.475 97.0594V95.1714H271.083V97.0594H264.475ZM264.475 91.8914V90.0034H271.451V91.8914H264.475ZM272.761 101.523V90.0034H275.225V101.523H272.761ZM273.913 97.0594V95.1714H280.521V97.0594H273.913ZM273.913 91.8914V90.0034H280.889V91.8914H273.913Z" fill="#FF0D00"/>
<path d="M20.0482 119.153L20.2582 117.903L19.2282 118.703L18.8682 118.093L20.0882 117.643L18.8682 117.183L19.2282 116.573L20.2582 117.373L20.0482 116.123H20.7682L20.5582 117.373L21.5882 116.573L21.9482 117.183L20.7282 117.643L21.9482 118.093L21.5882 118.703L20.5582 117.903L20.7682 119.153H20.0482ZM25.4339 123.523L22.6539 116.323H23.5339L26.1139 123.163H25.8139L28.3839 116.323H29.2139L26.4339 123.523H25.4339ZM32.7767 123.523C32.75 123.41 32.73 123.28 32.7167 123.133C32.71 122.987 32.7067 122.8 32.7067 122.573H32.6567V120.133C32.6567 119.747 32.5667 119.463 32.3867 119.283C32.2133 119.097 31.93 119.003 31.5367 119.003C31.15 119.003 30.84 119.083 30.6067 119.243C30.38 119.397 30.2533 119.617 30.2267 119.903H29.4567C29.49 119.41 29.6967 119.023 30.0767 118.743C30.4567 118.463 30.9533 118.323 31.5667 118.323C32.2 118.323 32.67 118.473 32.9767 118.773C33.2833 119.073 33.4367 119.523 33.4367 120.123V122.573C33.4367 122.72 33.4467 122.873 33.4667 123.033C33.4867 123.187 33.5133 123.35 33.5467 123.523H32.7767ZM31.0267 123.623C30.5 123.623 30.08 123.497 29.7667 123.243C29.46 122.983 29.3067 122.63 29.3067 122.183C29.3067 121.737 29.46 121.39 29.7667 121.143C30.0733 120.897 30.52 120.723 31.1067 120.623L32.8867 120.323V120.983L31.2267 121.243C30.8533 121.303 30.57 121.403 30.3767 121.543C30.1833 121.683 30.0867 121.887 30.0867 122.153C30.0867 122.413 30.1733 122.61 30.3467 122.743C30.5267 122.877 30.79 122.943 31.1367 122.943C31.5833 122.943 31.9467 122.843 32.2267 122.643C32.5133 122.437 32.6567 122.17 32.6567 121.843L32.7867 122.553C32.68 122.893 32.47 123.157 32.1567 123.343C31.85 123.53 31.4733 123.623 31.0267 123.623ZM34.9787 123.523V116.323H35.7787V123.523H34.9787ZM37.3811 123.523V118.423H38.1811V123.523H37.3811ZM37.3211 117.263V116.323H38.2411V117.263H37.3211ZM43.4739 123.523V122.333L43.5739 122.363C43.4472 122.75 43.2139 123.057 42.8739 123.283C42.5405 123.51 42.1405 123.623 41.6739 123.623C41.2139 123.623 40.8105 123.513 40.4639 123.293C40.1239 123.073 39.8572 122.767 39.6639 122.373C39.4772 121.98 39.3839 121.52 39.3839 120.993C39.3839 120.46 39.4805 119.993 39.6739 119.593C39.8672 119.193 40.1372 118.883 40.4839 118.663C40.8305 118.443 41.2372 118.333 41.7039 118.333C42.1839 118.333 42.5872 118.45 42.9139 118.683C43.2405 118.917 43.4639 119.247 43.5839 119.673L43.4239 119.693V116.323H44.2239V123.523H43.4739ZM41.8239 122.923C42.3372 122.923 42.7372 122.75 43.0239 122.403C43.3172 122.05 43.4639 121.57 43.4639 120.963C43.4639 120.37 43.3172 119.9 43.0239 119.553C42.7305 119.207 42.3305 119.033 41.8239 119.033C41.3172 119.033 40.9205 119.207 40.6339 119.553C40.3472 119.9 40.2039 120.38 40.2039 120.993C40.2039 121.593 40.3472 122.067 40.6339 122.413C40.9205 122.753 41.3172 122.923 41.8239 122.923ZM48.2503 123.523V117.703C48.2503 117.237 48.3836 116.873 48.6503 116.613C48.9236 116.353 49.3369 116.223 49.8903 116.223C50.0236 116.223 50.1269 116.23 50.2003 116.243C50.2803 116.257 50.3469 116.273 50.4003 116.293V116.923C50.3536 116.91 50.2869 116.897 50.2003 116.883C50.1203 116.87 50.0336 116.863 49.9403 116.863C49.6336 116.863 49.4069 116.94 49.2603 117.093C49.1203 117.247 49.0503 117.463 49.0503 117.743V123.523H48.2503ZM47.2003 119.103V118.423H50.2903V119.103H47.2003ZM53.2901 123.623C52.7901 123.623 52.3501 123.507 51.9701 123.273C51.5901 123.04 51.2935 122.723 51.0801 122.323C50.8735 121.917 50.7701 121.46 50.7701 120.953C50.7701 120.44 50.8768 119.987 51.0901 119.593C51.3035 119.2 51.5968 118.89 51.9701 118.663C52.3501 118.437 52.7901 118.323 53.2901 118.323C53.7968 118.323 54.2368 118.437 54.6101 118.663C54.9901 118.89 55.2835 119.2 55.4901 119.593C55.7035 119.987 55.8101 120.44 55.8101 120.953C55.8101 121.46 55.7035 121.917 55.4901 122.323C55.2835 122.723 54.9901 123.04 54.6101 123.273C54.2368 123.507 53.7968 123.623 53.2901 123.623ZM53.2901 122.943C53.6368 122.943 53.9368 122.86 54.1901 122.693C54.4435 122.52 54.6401 122.283 54.7801 121.983C54.9201 121.683 54.9901 121.337 54.9901 120.943C54.9901 120.357 54.8335 119.887 54.5201 119.533C54.2135 119.18 53.8035 119.003 53.2901 119.003C52.7835 119.003 52.3735 119.18 52.0601 119.533C51.7468 119.887 51.5901 120.357 51.5901 120.943C51.5901 121.337 51.6601 121.683 51.8001 121.983C51.9401 122.283 52.1368 122.52 52.3901 122.693C52.6501 122.86 52.9501 122.943 53.2901 122.943ZM57.01 123.523V118.423H57.76V119.723H57.81V123.523H57.01ZM57.81 120.863L57.68 119.653C57.8 119.22 58.0133 118.89 58.32 118.663C58.6266 118.437 58.98 118.323 59.38 118.323C59.5466 118.323 59.66 118.337 59.72 118.363V119.133C59.6866 119.12 59.64 119.113 59.58 119.113C59.52 119.107 59.4466 119.103 59.36 119.103C58.8533 119.103 58.4666 119.257 58.2 119.563C57.94 119.863 57.81 120.297 57.81 120.863ZM65.8919 123.523C65.8652 123.41 65.8452 123.28 65.8319 123.133C65.8252 122.987 65.8219 122.8 65.8219 122.573H65.7719V120.133C65.7719 119.747 65.6819 119.463 65.5019 119.283C65.3286 119.097 65.0452 119.003 64.6519 119.003C64.2652 119.003 63.9552 119.083 63.7219 119.243C63.4952 119.397 63.3686 119.617 63.3419 119.903H62.5719C62.6052 119.41 62.8119 119.023 63.1919 118.743C63.5719 118.463 64.0686 118.323 64.6819 118.323C65.3152 118.323 65.7852 118.473 66.0919 118.773C66.3986 119.073 66.5519 119.523 66.5519 120.123V122.573C66.5519 122.72 66.5619 122.873 66.5819 123.033C66.6019 123.187 66.6286 123.35 66.6619 123.523H65.8919ZM64.1419 123.623C63.6152 123.623 63.1952 123.497 62.8819 123.243C62.5752 122.983 62.4219 122.63 62.4219 122.183C62.4219 121.737 62.5752 121.39 62.8819 121.143C63.1886 120.897 63.6352 120.723 64.2219 120.623L66.0019 120.323V120.983L64.3419 121.243C63.9686 121.303 63.6852 121.403 63.4919 121.543C63.2986 121.683 63.2019 121.887 63.2019 122.153C63.2019 122.413 63.2886 122.61 63.4619 122.743C63.6419 122.877 63.9052 122.943 64.2519 122.943C64.6986 122.943 65.0619 122.843 65.3419 122.643C65.6286 122.437 65.7719 122.17 65.7719 121.843L65.9019 122.553C65.7952 122.893 65.5852 123.157 65.2719 123.343C64.9652 123.53 64.5886 123.623 64.1419 123.623ZM68.0939 123.523V118.423H68.8439V119.623H68.8939V123.523H68.0939ZM71.7439 123.523V120.183C71.7439 119.797 71.6473 119.507 71.4539 119.313C71.2606 119.12 70.9739 119.023 70.5939 119.023C70.2606 119.023 69.9639 119.097 69.7039 119.243C69.4506 119.39 69.2506 119.593 69.1039 119.853C68.9639 120.113 68.8939 120.417 68.8939 120.763L68.7639 119.553C68.9373 119.173 69.2006 118.873 69.5539 118.653C69.9139 118.433 70.3206 118.323 70.7739 118.323C71.3073 118.323 71.7339 118.477 72.0539 118.783C72.3806 119.083 72.5439 119.48 72.5439 119.973V123.523H71.7439ZM74.0803 123.523V118.423H74.8303V119.623H74.8803V123.523H74.0803ZM77.7303 123.523V120.183C77.7303 119.797 77.6336 119.507 77.4403 119.313C77.2469 119.12 76.9603 119.023 76.5803 119.023C76.2469 119.023 75.9503 119.097 75.6903 119.243C75.4369 119.39 75.2369 119.593 75.0903 119.853C74.9503 120.113 74.8803 120.417 74.8803 120.763L74.7503 119.553C74.9236 119.173 75.1869 118.873 75.5403 118.653C75.9003 118.433 76.3069 118.323 76.7603 118.323C77.2936 118.323 77.7203 118.477 78.0403 118.783C78.3669 119.083 78.5303 119.48 78.5303 119.973V123.523H77.7303ZM81.7266 123.623C81.3933 123.623 81.0966 123.557 80.8366 123.423C80.5766 123.283 80.3733 123.09 80.2266 122.843C80.0799 122.59 80.0066 122.3 80.0066 121.973V118.423H80.8066V121.763C80.8066 122.15 80.8999 122.44 81.0866 122.633C81.2799 122.827 81.5533 122.923 81.9066 122.923C82.2266 122.923 82.5099 122.85 82.7566 122.703C83.0033 122.557 83.1966 122.353 83.3366 122.093C83.4833 121.827 83.5566 121.523 83.5566 121.183L83.6866 122.393C83.5199 122.773 83.2599 123.073 82.9066 123.293C82.5533 123.513 82.1599 123.623 81.7266 123.623ZM83.6066 123.523V122.323H83.5566V118.423H84.3566V123.523H83.6066ZM89.0462 123.523C89.0195 123.41 88.9995 123.28 88.9862 123.133C88.9795 122.987 88.9762 122.8 88.9762 122.573H88.9262V120.133C88.9262 119.747 88.8362 119.463 88.6562 119.283C88.4829 119.097 88.1995 119.003 87.8062 119.003C87.4195 119.003 87.1095 119.083 86.8762 119.243C86.6495 119.397 86.5229 119.617 86.4962 119.903H85.7262C85.7595 119.41 85.9662 119.023 86.3462 118.743C86.7262 118.463 87.2229 118.323 87.8362 118.323C88.4695 118.323 88.9395 118.473 89.2462 118.773C89.5529 119.073 89.7062 119.523 89.7062 120.123V122.573C89.7062 122.72 89.7162 122.873 89.7362 123.033C89.7562 123.187 89.7829 123.35 89.8162 123.523H89.0462ZM87.2962 123.623C86.7695 123.623 86.3495 123.497 86.0362 123.243C85.7295 122.983 85.5762 122.63 85.5762 122.183C85.5762 121.737 85.7295 121.39 86.0362 121.143C86.3429 120.897 86.7895 120.723 87.3762 120.623L89.1562 120.323V120.983L87.4962 121.243C87.1229 121.303 86.8395 121.403 86.6462 121.543C86.4529 121.683 86.3562 121.887 86.3562 122.153C86.3562 122.413 86.4429 122.61 86.6162 122.743C86.7962 122.877 87.0595 122.943 87.4062 122.943C87.8529 122.943 88.2162 122.843 88.4962 122.643C88.7829 122.437 88.9262 122.17 88.9262 121.843L89.0562 122.553C88.9495 122.893 88.7395 123.157 88.4262 123.343C88.1195 123.53 87.7429 123.623 87.2962 123.623ZM91.2482 123.523V116.323H92.0482V123.523H91.2482ZM95.7125 123.523V116.323H96.5325V123.523H95.7125ZM96.1325 123.523V122.803H100.233V123.523H96.1325ZM103.173 123.623C102.673 123.623 102.233 123.507 101.853 123.273C101.473 123.04 101.176 122.723 100.963 122.323C100.756 121.917 100.653 121.46 100.653 120.953C100.653 120.44 100.76 119.987 100.973 119.593C101.186 119.2 101.48 118.89 101.853 118.663C102.233 118.437 102.673 118.323 103.173 118.323C103.68 118.323 104.12 118.437 104.493 118.663C104.873 118.89 105.166 119.2 105.373 119.593C105.586 119.987 105.693 120.44 105.693 120.953C105.693 121.46 105.586 121.917 105.373 122.323C105.166 122.723 104.873 123.04 104.493 123.273C104.12 123.507 103.68 123.623 103.173 123.623ZM103.173 122.943C103.52 122.943 103.82 122.86 104.073 122.693C104.326 122.52 104.523 122.283 104.663 121.983C104.803 121.683 104.873 121.337 104.873 120.943C104.873 120.357 104.716 119.887 104.403 119.533C104.096 119.18 103.686 119.003 103.173 119.003C102.666 119.003 102.256 119.18 101.943 119.533C101.63 119.887 101.473 120.357 101.473 120.943C101.473 121.337 101.543 121.683 101.683 121.983C101.823 122.283 102.02 122.52 102.273 122.693C102.533 122.86 102.833 122.943 103.173 122.943ZM108.913 123.623C108.446 123.623 108.029 123.51 107.663 123.283C107.303 123.05 107.016 122.733 106.803 122.333C106.596 121.927 106.493 121.467 106.493 120.953C106.493 120.44 106.596 119.987 106.803 119.593C107.016 119.2 107.303 118.89 107.663 118.663C108.029 118.437 108.443 118.323 108.903 118.323C109.283 118.323 109.623 118.397 109.923 118.543C110.229 118.69 110.479 118.9 110.673 119.173C110.873 119.44 110.999 119.753 111.053 120.113H110.313C110.246 119.787 110.093 119.52 109.853 119.313C109.613 119.107 109.303 119.003 108.923 119.003C108.596 119.003 108.313 119.083 108.073 119.243C107.833 119.403 107.646 119.63 107.513 119.923C107.379 120.217 107.313 120.56 107.313 120.953C107.313 121.347 107.379 121.693 107.513 121.993C107.646 122.293 107.833 122.527 108.073 122.693C108.319 122.86 108.606 122.943 108.933 122.943C109.299 122.943 109.606 122.843 109.853 122.643C110.099 122.437 110.256 122.17 110.323 121.843H111.063C111.003 122.197 110.869 122.51 110.663 122.783C110.463 123.05 110.213 123.257 109.913 123.403C109.613 123.55 109.279 123.623 108.913 123.623ZM112.225 123.523V116.123H113.025V123.523H112.225ZM115.555 123.523L112.845 120.873L115.455 118.423H116.555L113.625 121.103L113.675 120.633L116.655 123.523H115.555ZM119.364 123.623C118.877 123.623 118.447 123.51 118.074 123.283C117.7 123.05 117.407 122.733 117.194 122.333C116.98 121.933 116.874 121.473 116.874 120.953C116.874 120.433 116.977 119.977 117.184 119.583C117.397 119.183 117.694 118.873 118.074 118.653C118.454 118.433 118.89 118.323 119.384 118.323C119.857 118.323 120.267 118.427 120.614 118.633C120.967 118.84 121.237 119.13 121.424 119.503C121.617 119.877 121.714 120.317 121.714 120.823C121.714 120.89 121.71 120.953 121.704 121.013C121.704 121.073 121.697 121.14 121.684 121.213H117.474V120.543H121.194L120.934 120.913C120.934 120.3 120.797 119.83 120.524 119.503C120.257 119.17 119.877 119.003 119.384 119.003C118.877 119.003 118.467 119.18 118.154 119.533C117.847 119.88 117.694 120.35 117.694 120.943C117.694 121.55 117.847 122.037 118.154 122.403C118.467 122.763 118.884 122.943 119.404 122.943C119.73 122.943 120.017 122.873 120.264 122.733C120.51 122.587 120.69 122.38 120.804 122.113H121.564C121.397 122.58 121.117 122.95 120.724 123.223C120.337 123.49 119.884 123.623 119.364 123.623ZM122.918 123.523V118.423H123.668V119.723H123.718V123.523H122.918ZM123.718 120.863L123.588 119.653C123.708 119.22 123.921 118.89 124.228 118.663C124.535 118.437 124.888 118.323 125.288 118.323C125.455 118.323 125.568 118.337 125.628 118.363V119.133C125.595 119.12 125.548 119.113 125.488 119.113C125.428 119.107 125.355 119.103 125.268 119.103C124.761 119.103 124.375 119.257 124.108 119.563C123.848 119.863 123.718 120.297 123.718 120.863ZM128.73 123.523V116.323H131.59C132.103 116.323 132.54 116.407 132.9 116.573C133.26 116.74 133.533 116.98 133.72 117.293C133.913 117.607 134.01 117.983 134.01 118.423C134.01 118.863 133.913 119.243 133.72 119.563C133.533 119.877 133.26 120.12 132.9 120.293C132.54 120.467 132.103 120.553 131.59 120.553H129.33V119.833H131.56C132.093 119.833 132.497 119.713 132.77 119.473C133.05 119.227 133.19 118.877 133.19 118.423C133.19 117.97 133.053 117.627 132.78 117.393C132.507 117.16 132.1 117.043 131.56 117.043H129.55V123.523H128.73ZM135.233 123.523V118.423H135.983V119.723H136.033V123.523H135.233ZM136.033 120.863L135.903 119.653C136.023 119.22 136.236 118.89 136.543 118.663C136.849 118.437 137.203 118.323 137.603 118.323C137.769 118.323 137.883 118.337 137.943 118.363V119.133C137.909 119.12 137.863 119.113 137.803 119.113C137.743 119.107 137.669 119.103 137.583 119.103C137.076 119.103 136.689 119.257 136.423 119.563C136.163 119.863 136.033 120.297 136.033 120.863ZM140.897 123.623C140.41 123.623 139.98 123.51 139.607 123.283C139.234 123.05 138.94 122.733 138.727 122.333C138.514 121.933 138.407 121.473 138.407 120.953C138.407 120.433 138.51 119.977 138.717 119.583C138.93 119.183 139.227 118.873 139.607 118.653C139.987 118.433 140.424 118.323 140.917 118.323C141.39 118.323 141.8 118.427 142.147 118.633C142.5 118.84 142.77 119.13 142.957 119.503C143.15 119.877 143.247 120.317 143.247 120.823C143.247 120.89 143.244 120.953 143.237 121.013C143.237 121.073 143.23 121.14 143.217 121.213H139.007V120.543H142.727L142.467 120.913C142.467 120.3 142.33 119.83 142.057 119.503C141.79 119.17 141.41 119.003 140.917 119.003C140.41 119.003 140 119.18 139.687 119.533C139.38 119.88 139.227 120.35 139.227 120.943C139.227 121.55 139.38 122.037 139.687 122.403C140 122.763 140.417 122.943 140.937 122.943C141.264 122.943 141.55 122.873 141.797 122.733C142.044 122.587 142.224 122.38 142.337 122.113H143.097C142.93 122.58 142.65 122.95 142.257 123.223C141.87 123.49 141.417 123.623 140.897 123.623ZM144.451 123.523V118.423H145.201V119.623H145.251V123.523H144.451ZM147.891 123.523V120.143C147.891 119.757 147.805 119.473 147.631 119.293C147.458 119.113 147.208 119.023 146.881 119.023C146.575 119.023 146.298 119.097 146.051 119.243C145.805 119.39 145.608 119.593 145.461 119.853C145.321 120.113 145.251 120.417 145.251 120.763L145.121 119.553C145.295 119.173 145.555 118.873 145.901 118.653C146.248 118.433 146.625 118.323 147.031 118.323C147.525 118.323 147.925 118.47 148.231 118.763C148.538 119.05 148.691 119.44 148.691 119.933V123.523H147.891ZM151.331 123.523V120.143C151.331 119.757 151.245 119.473 151.071 119.293C150.898 119.113 150.648 119.023 150.321 119.023C150.015 119.023 149.738 119.097 149.491 119.243C149.245 119.39 149.048 119.593 148.901 119.853C148.761 120.113 148.691 120.417 148.691 120.763L148.491 119.553C148.665 119.173 148.931 118.873 149.291 118.653C149.651 118.433 150.038 118.323 150.451 118.323C150.945 118.323 151.348 118.47 151.661 118.763C151.975 119.05 152.131 119.44 152.131 119.933V123.523H151.331ZM153.67 123.523V118.423H154.47V123.523H153.67ZM153.61 117.263V116.323H154.53V117.263H153.61ZM157.732 123.623C157.399 123.623 157.102 123.557 156.842 123.423C156.582 123.283 156.379 123.09 156.232 122.843C156.086 122.59 156.012 122.3 156.012 121.973V118.423H156.812V121.763C156.812 122.15 156.906 122.44 157.092 122.633C157.286 122.827 157.559 122.923 157.912 122.923C158.232 122.923 158.516 122.85 158.762 122.703C159.009 122.557 159.202 122.353 159.342 122.093C159.489 121.827 159.562 121.523 159.562 121.183L159.692 122.393C159.526 122.773 159.266 123.073 158.912 123.293C158.559 123.513 158.166 123.623 157.732 123.623ZM159.612 123.523V122.323H159.562V118.423H160.362V123.523H159.612ZM161.961 123.523V118.423H162.711V119.623H162.761V123.523H161.961ZM165.401 123.523V120.143C165.401 119.757 165.314 119.473 165.141 119.293C164.968 119.113 164.718 119.023 164.391 119.023C164.084 119.023 163.808 119.097 163.561 119.243C163.314 119.39 163.118 119.593 162.971 119.853C162.831 120.113 162.761 120.417 162.761 120.763L162.631 119.553C162.804 119.173 163.064 118.873 163.411 118.653C163.758 118.433 164.134 118.323 164.541 118.323C165.034 118.323 165.434 118.47 165.741 118.763C166.048 119.05 166.201 119.44 166.201 119.933V123.523H165.401ZM168.841 123.523V120.143C168.841 119.757 168.754 119.473 168.581 119.293C168.408 119.113 168.158 119.023 167.831 119.023C167.524 119.023 167.248 119.097 167.001 119.243C166.754 119.39 166.558 119.593 166.411 119.853C166.271 120.113 166.201 120.417 166.201 120.763L166.001 119.553C166.174 119.173 166.441 118.873 166.801 118.653C167.161 118.433 167.548 118.323 167.961 118.323C168.454 118.323 168.858 118.47 169.171 118.763C169.484 119.05 169.641 119.44 169.641 119.933V123.523H168.841ZM178.622 123.523L174.752 119.553C174.532 119.32 174.352 119.107 174.212 118.913C174.072 118.72 173.969 118.533 173.902 118.353C173.835 118.173 173.802 117.99 173.802 117.803C173.802 117.497 173.882 117.227 174.042 116.993C174.202 116.753 174.419 116.567 174.692 116.433C174.972 116.293 175.292 116.223 175.652 116.223C175.999 116.223 176.312 116.29 176.592 116.423C176.872 116.55 177.095 116.73 177.262 116.963C177.429 117.197 177.512 117.477 177.512 117.803C177.512 118.21 177.355 118.57 177.042 118.883C176.729 119.19 176.245 119.45 175.592 119.663L175.172 119.153C175.685 119.027 176.072 118.853 176.332 118.633C176.599 118.407 176.732 118.14 176.732 117.833C176.732 117.54 176.622 117.31 176.402 117.143C176.189 116.977 175.932 116.893 175.632 116.893C175.339 116.893 175.092 116.973 174.892 117.133C174.699 117.293 174.602 117.523 174.602 117.823C174.602 117.957 174.629 118.09 174.682 118.223C174.742 118.357 174.842 118.51 174.982 118.683C175.122 118.857 175.322 119.077 175.582 119.343L179.672 123.523H178.622ZM175.472 123.623C174.952 123.623 174.495 123.533 174.102 123.353C173.709 123.173 173.402 122.92 173.182 122.593C172.969 122.267 172.862 121.887 172.862 121.453C172.862 120.92 173.049 120.453 173.422 120.053C173.795 119.653 174.302 119.387 174.942 119.253L175.382 119.753C175.009 119.833 174.695 119.95 174.442 120.103C174.189 120.25 173.995 120.43 173.862 120.643C173.735 120.857 173.672 121.103 173.672 121.383C173.672 121.87 173.835 122.25 174.162 122.523C174.489 122.797 174.935 122.933 175.502 122.933C175.922 122.933 176.292 122.86 176.612 122.713C176.939 122.567 177.215 122.353 177.442 122.073C177.669 121.787 177.839 121.44 177.952 121.033C178.072 120.627 178.132 120.163 178.132 119.643H178.922C178.922 120.13 178.869 120.58 178.762 120.993C178.662 121.407 178.512 121.777 178.312 122.103C178.112 122.43 177.869 122.707 177.582 122.933C177.302 123.153 176.985 123.323 176.632 123.443C176.279 123.563 175.892 123.623 175.472 123.623ZM182.793 123.523V116.323H183.613V123.523H182.793ZM183.213 120.433V119.713H187.093V120.433H183.213ZM183.213 117.043V116.323H187.373V117.043H183.213ZM191.361 123.523C191.334 123.41 191.314 123.28 191.301 123.133C191.294 122.987 191.291 122.8 191.291 122.573H191.241V120.133C191.241 119.747 191.151 119.463 190.971 119.283C190.797 119.097 190.514 119.003 190.121 119.003C189.734 119.003 189.424 119.083 189.191 119.243C188.964 119.397 188.837 119.617 188.811 119.903H188.041C188.074 119.41 188.281 119.023 188.661 118.743C189.041 118.463 189.537 118.323 190.151 118.323C190.784 118.323 191.254 118.473 191.561 118.773C191.867 119.073 192.021 119.523 192.021 120.123V122.573C192.021 122.72 192.031 122.873 192.051 123.033C192.071 123.187 192.097 123.35 192.131 123.523H191.361ZM189.611 123.623C189.084 123.623 188.664 123.497 188.351 123.243C188.044 122.983 187.891 122.63 187.891 122.183C187.891 121.737 188.044 121.39 188.351 121.143C188.657 120.897 189.104 120.723 189.691 120.623L191.471 120.323V120.983L189.811 121.243C189.437 121.303 189.154 121.403 188.961 121.543C188.767 121.683 188.671 121.887 188.671 122.153C188.671 122.413 188.757 122.61 188.931 122.743C189.111 122.877 189.374 122.943 189.721 122.943C190.167 122.943 190.531 122.843 190.811 122.643C191.097 122.437 191.241 122.17 191.241 121.843L191.371 122.553C191.264 122.893 191.054 123.157 190.741 123.343C190.434 123.53 190.057 123.623 189.611 123.623ZM193.563 123.523V118.423H194.313V119.623H194.363V123.523H193.563ZM197.003 123.523V120.143C197.003 119.757 196.916 119.473 196.743 119.293C196.569 119.113 196.319 119.023 195.993 119.023C195.686 119.023 195.409 119.097 195.163 119.243C194.916 119.39 194.719 119.593 194.573 119.853C194.433 120.113 194.363 120.417 194.363 120.763L194.233 119.553C194.406 119.173 194.666 118.873 195.013 118.653C195.359 118.433 195.736 118.323 196.143 118.323C196.636 118.323 197.036 118.47 197.343 118.763C197.649 119.05 197.803 119.44 197.803 119.933V123.523H197.003ZM200.443 123.523V120.143C200.443 119.757 200.356 119.473 200.183 119.293C200.009 119.113 199.759 119.023 199.433 119.023C199.126 119.023 198.849 119.097 198.603 119.243C198.356 119.39 198.159 119.593 198.013 119.853C197.873 120.113 197.803 120.417 197.803 120.763L197.603 119.553C197.776 119.173 198.043 118.873 198.403 118.653C198.763 118.433 199.149 118.323 199.563 118.323C200.056 118.323 200.459 118.47 200.773 118.763C201.086 119.05 201.243 119.44 201.243 119.933V123.523H200.443ZM202.781 123.523V118.423H203.581V123.523H202.781ZM202.721 117.263V116.323H203.641V117.263H202.721ZM205.184 123.523V116.323H205.984V123.523H205.184ZM208.026 125.573L209.166 122.923L209.346 122.643L211.016 118.423H211.836L208.876 125.573H208.026ZM209.256 123.573L206.966 118.423H207.846L209.816 123.033L209.256 123.573ZM217.342 123.613C216.862 123.613 216.459 123.497 216.132 123.263C215.806 123.03 215.582 122.7 215.462 122.273L215.622 122.253V125.573H214.822V118.423H215.572V119.613L215.462 119.583C215.589 119.19 215.829 118.883 216.182 118.663C216.536 118.437 216.946 118.323 217.412 118.323C217.866 118.323 218.259 118.433 218.592 118.653C218.932 118.873 219.196 119.18 219.382 119.573C219.569 119.967 219.662 120.427 219.662 120.953C219.662 121.487 219.566 121.953 219.372 122.353C219.179 122.753 218.909 123.063 218.562 123.283C218.216 123.503 217.809 123.613 217.342 123.613ZM217.222 122.913C217.729 122.913 218.126 122.74 218.412 122.393C218.699 122.04 218.842 121.56 218.842 120.953C218.842 120.353 218.699 119.883 218.412 119.543C218.126 119.197 217.729 119.023 217.222 119.023C216.716 119.023 216.316 119.2 216.022 119.553C215.729 119.9 215.582 120.377 215.582 120.983C215.582 121.577 215.729 122.047 216.022 122.393C216.316 122.74 216.716 122.913 217.222 122.913ZM220.887 123.523V116.323H221.687V123.523H220.887ZM226.419 123.523C226.393 123.41 226.373 123.28 226.359 123.133C226.353 122.987 226.349 122.8 226.349 122.573H226.299V120.133C226.299 119.747 226.209 119.463 226.029 119.283C225.856 119.097 225.573 119.003 225.179 119.003C224.793 119.003 224.483 119.083 224.249 119.243C224.023 119.397 223.896 119.617 223.869 119.903H223.099C223.133 119.41 223.339 119.023 223.719 118.743C224.099 118.463 224.596 118.323 225.209 118.323C225.843 118.323 226.313 118.473 226.619 118.773C226.926 119.073 227.079 119.523 227.079 120.123V122.573C227.079 122.72 227.089 122.873 227.109 123.033C227.129 123.187 227.156 123.35 227.189 123.523H226.419ZM224.669 123.623C224.143 123.623 223.723 123.497 223.409 123.243C223.103 122.983 222.949 122.63 222.949 122.183C222.949 121.737 223.103 121.39 223.409 121.143C223.716 120.897 224.163 120.723 224.749 120.623L226.529 120.323V120.983L224.869 121.243C224.496 121.303 224.213 121.403 224.019 121.543C223.826 121.683 223.729 121.887 223.729 122.153C223.729 122.413 223.816 122.61 223.989 122.743C224.169 122.877 224.433 122.943 224.779 122.943C225.226 122.943 225.589 122.843 225.869 122.643C226.156 122.437 226.299 122.17 226.299 121.843L226.429 122.553C226.323 122.893 226.113 123.157 225.799 123.343C225.493 123.53 225.116 123.623 224.669 123.623ZM228.621 123.523V118.423H229.371V119.623H229.421V123.523H228.621ZM232.271 123.523V120.183C232.271 119.797 232.175 119.507 231.981 119.313C231.788 119.12 231.501 119.023 231.121 119.023C230.788 119.023 230.491 119.097 230.231 119.243C229.978 119.39 229.778 119.593 229.631 119.853C229.491 120.113 229.421 120.417 229.421 120.763L229.291 119.553C229.465 119.173 229.728 118.873 230.081 118.653C230.441 118.433 230.848 118.323 231.301 118.323C231.835 118.323 232.261 118.477 232.581 118.783C232.908 119.083 233.071 119.48 233.071 119.973V123.523H232.271ZM236.318 123.623C235.691 123.623 235.191 123.48 234.818 123.193C234.445 122.9 234.231 122.487 234.178 121.953H234.948C234.995 122.28 235.138 122.53 235.378 122.703C235.618 122.877 235.938 122.963 236.338 122.963C236.691 122.963 236.968 122.897 237.168 122.763C237.368 122.63 237.468 122.44 237.468 122.193C237.468 122.02 237.411 121.87 237.298 121.743C237.185 121.61 236.958 121.5 236.618 121.413L235.798 121.203C235.331 121.083 234.981 120.9 234.748 120.653C234.515 120.4 234.398 120.1 234.398 119.753C234.398 119.313 234.561 118.967 234.888 118.713C235.215 118.453 235.658 118.323 236.218 118.323C236.771 118.323 237.221 118.457 237.568 118.723C237.915 118.99 238.111 119.36 238.158 119.833H237.388C237.341 119.56 237.215 119.35 237.008 119.203C236.801 119.057 236.528 118.983 236.188 118.983C235.861 118.983 235.608 119.047 235.428 119.173C235.248 119.293 235.158 119.467 235.158 119.693C235.158 119.867 235.221 120.017 235.348 120.143C235.481 120.27 235.701 120.377 236.008 120.463L236.808 120.683C237.281 120.81 237.638 121.003 237.878 121.263C238.118 121.523 238.238 121.837 238.238 122.203C238.238 122.65 238.068 123 237.728 123.253C237.388 123.5 236.918 123.623 236.318 123.623ZM239.011 123.523V122.493H240.041V123.523H239.011ZM243.662 123.523V116.323H244.482V123.523H243.662ZM244.082 123.523V122.803H248.482V123.523H244.082ZM244.082 120.133V119.413H248.122V120.133H244.082ZM244.082 117.043V116.323H248.402V117.043H244.082ZM249.979 123.523V118.423H250.729V119.623H250.779V123.523H249.979ZM253.419 123.523V120.143C253.419 119.757 253.332 119.473 253.159 119.293C252.985 119.113 252.735 119.023 252.409 119.023C252.102 119.023 251.825 119.097 251.579 119.243C251.332 119.39 251.135 119.593 250.989 119.853C250.849 120.113 250.779 120.417 250.779 120.763L250.649 119.553C250.822 119.173 251.082 118.873 251.429 118.653C251.775 118.433 252.152 118.323 252.559 118.323C253.052 118.323 253.452 118.47 253.759 118.763C254.065 119.05 254.219 119.44 254.219 119.933V123.523H253.419ZM256.859 123.523V120.143C256.859 119.757 256.772 119.473 256.599 119.293C256.425 119.113 256.175 119.023 255.849 119.023C255.542 119.023 255.265 119.097 255.019 119.243C254.772 119.39 254.575 119.593 254.429 119.853C254.289 120.113 254.219 120.417 254.219 120.763L254.019 119.553C254.192 119.173 254.459 118.873 254.819 118.653C255.179 118.433 255.565 118.323 255.979 118.323C256.472 118.323 256.875 118.47 257.189 118.763C257.502 119.05 257.659 119.44 257.659 119.933V123.523H256.859ZM262.298 123.523C262.271 123.41 262.251 123.28 262.238 123.133C262.231 122.987 262.228 122.8 262.228 122.573H262.178V120.133C262.178 119.747 262.088 119.463 261.908 119.283C261.735 119.097 261.451 119.003 261.058 119.003C260.671 119.003 260.361 119.083 260.128 119.243C259.901 119.397 259.775 119.617 259.748 119.903H258.978C259.011 119.41 259.218 119.023 259.598 118.743C259.978 118.463 260.475 118.323 261.088 118.323C261.721 118.323 262.191 118.473 262.498 118.773C262.805 119.073 262.958 119.523 262.958 120.123V122.573C262.958 122.72 262.968 122.873 262.988 123.033C263.008 123.187 263.035 123.35 263.068 123.523H262.298ZM260.548 123.623C260.021 123.623 259.601 123.497 259.288 123.243C258.981 122.983 258.828 122.63 258.828 122.183C258.828 121.737 258.981 121.39 259.288 121.143C259.595 120.897 260.041 120.723 260.628 120.623L262.408 120.323V120.983L260.748 121.243C260.375 121.303 260.091 121.403 259.898 121.543C259.705 121.683 259.608 121.887 259.608 122.153C259.608 122.413 259.695 122.61 259.868 122.743C260.048 122.877 260.311 122.943 260.658 122.943C261.105 122.943 261.468 122.843 261.748 122.643C262.035 122.437 262.178 122.17 262.178 121.843L262.308 122.553C262.201 122.893 261.991 123.157 261.678 123.343C261.371 123.53 260.995 123.623 260.548 123.623ZM264.5 123.523V118.423H265.3V123.523H264.5ZM264.44 117.263V116.323H265.36V117.263H264.44ZM266.903 123.523V116.323H267.703V123.523H266.903ZM271.307 123.523V118.423H272.107V123.523H271.307ZM271.247 117.263V116.323H272.167V117.263H271.247ZM273.709 123.523V118.423H274.459V119.623H274.509V123.523H273.709ZM277.359 123.523V120.183C277.359 119.797 277.263 119.507 277.069 119.313C276.876 119.12 276.589 119.023 276.209 119.023C275.876 119.023 275.579 119.097 275.319 119.243C275.066 119.39 274.866 119.593 274.719 119.853C274.579 120.113 274.509 120.417 274.509 120.763L274.379 119.553C274.553 119.173 274.816 118.873 275.169 118.653C275.529 118.433 275.936 118.323 276.389 118.323C276.923 118.323 277.349 118.477 277.669 118.783C277.996 119.083 278.159 119.48 278.159 119.973V123.523H277.359ZM281.406 123.623C280.779 123.623 280.279 123.48 279.906 123.193C279.533 122.9 279.319 122.487 279.266 121.953H280.036C280.083 122.28 280.226 122.53 280.466 122.703C280.706 122.877 281.026 122.963 281.426 122.963C281.779 122.963 282.056 122.897 282.256 122.763C282.456 122.63 282.556 122.44 282.556 122.193C282.556 122.02 282.499 121.87 282.386 121.743C282.273 121.61 282.046 121.5 281.706 121.413L280.886 121.203C280.419 121.083 280.069 120.9 279.836 120.653C279.603 120.4 279.486 120.1 279.486 119.753C279.486 119.313 279.649 118.967 279.976 118.713C280.303 118.453 280.746 118.323 281.306 118.323C281.859 118.323 282.309 118.457 282.656 118.723C283.003 118.99 283.199 119.36 283.246 119.833H282.476C282.429 119.56 282.303 119.35 282.096 119.203C281.889 119.057 281.616 118.983 281.276 118.983C280.949 118.983 280.696 119.047 280.516 119.173C280.336 119.293 280.246 119.467 280.246 119.693C280.246 119.867 280.309 120.017 280.436 120.143C280.569 120.27 280.789 120.377 281.096 120.463L281.896 120.683C282.369 120.81 282.726 121.003 282.966 121.263C283.206 121.523 283.326 121.837 283.326 122.203C283.326 122.65 283.156 123 282.816 123.253C282.476 123.5 282.006 123.623 281.406 123.623ZM286.443 123.613C285.876 123.613 285.463 123.487 285.203 123.233C284.949 122.973 284.823 122.6 284.823 122.113V117.233L285.623 116.933V122.103C285.623 122.39 285.696 122.6 285.843 122.733C285.989 122.867 286.229 122.933 286.563 122.933C286.696 122.933 286.809 122.927 286.903 122.913C287.003 122.893 287.083 122.87 287.143 122.843V123.523C287.076 123.55 286.979 123.57 286.853 123.583C286.733 123.603 286.596 123.613 286.443 123.613ZM283.773 119.103V118.423H287.143V119.103H283.773ZM288.172 123.523V118.423H288.922V119.723H288.972V123.523H288.172ZM288.972 120.863L288.842 119.653C288.962 119.22 289.175 118.89 289.482 118.663C289.789 118.437 290.142 118.323 290.542 118.323C290.709 118.323 290.822 118.337 290.882 118.363V119.133C290.849 119.12 290.802 119.113 290.742 119.113C290.682 119.107 290.609 119.103 290.522 119.103C290.015 119.103 289.629 119.257 289.362 119.563C289.102 119.863 288.972 120.297 288.972 120.863ZM293.504 123.623C293.171 123.623 292.874 123.557 292.614 123.423C292.354 123.283 292.151 123.09 292.004 122.843C291.857 122.59 291.784 122.3 291.784 121.973V118.423H292.584V121.763C292.584 122.15 292.677 122.44 292.864 122.633C293.057 122.827 293.331 122.923 293.684 122.923C294.004 122.923 294.287 122.85 294.534 122.703C294.781 122.557 294.974 122.353 295.114 122.093C295.261 121.827 295.334 121.523 295.334 121.183L295.464 122.393C295.297 122.773 295.037 123.073 294.684 123.293C294.331 123.513 293.937 123.623 293.504 123.623ZM295.384 123.523V122.323H295.334V118.423H296.134V123.523H295.384ZM299.733 123.623C299.266 123.623 298.85 123.51 298.483 123.283C298.123 123.05 297.836 122.733 297.623 122.333C297.416 121.927 297.313 121.467 297.313 120.953C297.313 120.44 297.416 119.987 297.623 119.593C297.836 119.2 298.123 118.89 298.483 118.663C298.85 118.437 299.263 118.323 299.723 118.323C300.103 118.323 300.443 118.397 300.743 118.543C301.05 118.69 301.3 118.9 301.493 119.173C301.693 119.44 301.82 119.753 301.873 120.113H301.133C301.066 119.787 300.913 119.52 300.673 119.313C300.433 119.107 300.123 119.003 299.743 119.003C299.416 119.003 299.133 119.083 298.893 119.243C298.653 119.403 298.466 119.63 298.333 119.923C298.2 120.217 298.133 120.56 298.133 120.953C298.133 121.347 298.2 121.693 298.333 121.993C298.466 122.293 298.653 122.527 298.893 122.693C299.14 122.86 299.426 122.943 299.753 122.943C300.12 122.943 300.426 122.843 300.673 122.643C300.92 122.437 301.076 122.17 301.143 121.843H301.883C301.823 122.197 301.69 122.51 301.483 122.783C301.283 123.05 301.033 123.257 300.733 123.403C300.433 123.55 300.1 123.623 299.733 123.623ZM305.066 123.613C304.499 123.613 304.086 123.487 303.826 123.233C303.572 122.973 303.446 122.6 303.446 122.113V117.233L304.246 116.933V122.103C304.246 122.39 304.319 122.6 304.466 122.733C304.612 122.867 304.852 122.933 305.186 122.933C305.319 122.933 305.432 122.927 305.526 122.913C305.626 122.893 305.706 122.87 305.766 122.843V123.523C305.699 123.55 305.602 123.57 305.476 123.583C305.356 123.603 305.219 123.613 305.066 123.613ZM302.396 119.103V118.423H305.766V119.103H302.396ZM306.795 123.523V118.423H307.595V123.523H306.795ZM306.735 117.263V116.323H307.655V117.263H306.735ZM311.298 123.623C310.798 123.623 310.358 123.507 309.978 123.273C309.598 123.04 309.301 122.723 309.088 122.323C308.881 121.917 308.778 121.46 308.778 120.953C308.778 120.44 308.885 119.987 309.098 119.593C309.311 119.2 309.605 118.89 309.978 118.663C310.358 118.437 310.798 118.323 311.298 118.323C311.805 118.323 312.245 118.437 312.618 118.663C312.998 118.89 313.291 119.2 313.498 119.593C313.711 119.987 313.818 120.44 313.818 120.953C313.818 121.46 313.711 121.917 313.498 122.323C313.291 122.723 312.998 123.04 312.618 123.273C312.245 123.507 311.805 123.623 311.298 123.623ZM311.298 122.943C311.645 122.943 311.945 122.86 312.198 122.693C312.451 122.52 312.648 122.283 312.788 121.983C312.928 121.683 312.998 121.337 312.998 120.943C312.998 120.357 312.841 119.887 312.528 119.533C312.221 119.18 311.811 119.003 311.298 119.003C310.791 119.003 310.381 119.18 310.068 119.533C309.755 119.887 309.598 120.357 309.598 120.943C309.598 121.337 309.668 121.683 309.808 121.983C309.948 122.283 310.145 122.52 310.398 122.693C310.658 122.86 310.958 122.943 311.298 122.943ZM315.018 123.523V118.423H315.768V119.623H315.818V123.523H315.018ZM318.668 123.523V120.183C318.668 119.797 318.571 119.507 318.378 119.313C318.184 119.12 317.898 119.023 317.518 119.023C317.184 119.023 316.888 119.097 316.628 119.243C316.374 119.39 316.174 119.593 316.028 119.853C315.888 120.113 315.818 120.417 315.818 120.763L315.688 119.553C315.861 119.173 316.124 118.873 316.478 118.653C316.838 118.433 317.244 118.323 317.698 118.323C318.231 118.323 318.658 118.477 318.978 118.783C319.304 119.083 319.468 119.48 319.468 119.973V123.523H318.668ZM322.715 123.623C322.088 123.623 321.588 123.48 321.215 123.193C320.841 122.9 320.628 122.487 320.575 121.953H321.345C321.391 122.28 321.535 122.53 321.775 122.703C322.015 122.877 322.335 122.963 322.735 122.963C323.088 122.963 323.365 122.897 323.565 122.763C323.765 122.63 323.865 122.44 323.865 122.193C323.865 122.02 323.808 121.87 323.695 121.743C323.581 121.61 323.355 121.5 323.015 121.413L322.195 121.203C321.728 121.083 321.378 120.9 321.145 120.653C320.911 120.4 320.795 120.1 320.795 119.753C320.795 119.313 320.958 118.967 321.285 118.713C321.611 118.453 322.055 118.323 322.615 118.323C323.168 118.323 323.618 118.457 323.965 118.723C324.311 118.99 324.508 119.36 324.555 119.833H323.785C323.738 119.56 323.611 119.35 323.405 119.203C323.198 119.057 322.925 118.983 322.585 118.983C322.258 118.983 322.005 119.047 321.825 119.173C321.645 119.293 321.555 119.467 321.555 119.693C321.555 119.867 321.618 120.017 321.745 120.143C321.878 120.27 322.098 120.377 322.405 120.463L323.205 120.683C323.678 120.81 324.035 121.003 324.275 121.263C324.515 121.523 324.635 121.837 324.635 122.203C324.635 122.65 324.465 123 324.125 123.253C323.785 123.5 323.315 123.623 322.715 123.623ZM330.843 123.523C330.816 123.41 330.796 123.28 330.783 123.133C330.776 122.987 330.773 122.8 330.773 122.573H330.723V120.133C330.723 119.747 330.633 119.463 330.453 119.283C330.28 119.097 329.996 119.003 329.603 119.003C329.216 119.003 328.906 119.083 328.673 119.243C328.446 119.397 328.32 119.617 328.293 119.903H327.523C327.556 119.41 327.763 119.023 328.143 118.743C328.523 118.463 329.02 118.323 329.633 118.323C330.266 118.323 330.736 118.473 331.043 118.773C331.35 119.073 331.503 119.523 331.503 120.123V122.573C331.503 122.72 331.513 122.873 331.533 123.033C331.553 123.187 331.58 123.35 331.613 123.523H330.843ZM329.093 123.623C328.566 123.623 328.146 123.497 327.833 123.243C327.526 122.983 327.373 122.63 327.373 122.183C327.373 121.737 327.526 121.39 327.833 121.143C328.14 120.897 328.586 120.723 329.173 120.623L330.953 120.323V120.983L329.293 121.243C328.92 121.303 328.636 121.403 328.443 121.543C328.25 121.683 328.153 121.887 328.153 122.153C328.153 122.413 328.24 122.61 328.413 122.743C328.593 122.877 328.856 122.943 329.203 122.943C329.65 122.943 330.013 122.843 330.293 122.643C330.58 122.437 330.723 122.17 330.723 121.843L330.853 122.553C330.746 122.893 330.536 123.157 330.223 123.343C329.916 123.53 329.54 123.623 329.093 123.623ZM333.045 123.523V118.423H333.795V119.723H333.845V123.523H333.045ZM333.845 120.863L333.715 119.653C333.835 119.22 334.048 118.89 334.355 118.663C334.662 118.437 335.015 118.323 335.415 118.323C335.582 118.323 335.695 118.337 335.755 118.363V119.133C335.722 119.12 335.675 119.113 335.615 119.113C335.555 119.107 335.482 119.103 335.395 119.103C334.888 119.103 334.502 119.257 334.235 119.563C333.975 119.863 333.845 120.297 333.845 120.863ZM338.709 123.623C338.223 123.623 337.793 123.51 337.419 123.283C337.046 123.05 336.753 122.733 336.539 122.333C336.326 121.933 336.219 121.473 336.219 120.953C336.219 120.433 336.323 119.977 336.529 119.583C336.743 119.183 337.039 118.873 337.419 118.653C337.799 118.433 338.236 118.323 338.729 118.323C339.203 118.323 339.613 118.427 339.959 118.633C340.313 118.84 340.583 119.13 340.769 119.503C340.963 119.877 341.059 120.317 341.059 120.823C341.059 120.89 341.056 120.953 341.049 121.013C341.049 121.073 341.043 121.14 341.029 121.213H336.819V120.543H340.539L340.279 120.913C340.279 120.3 340.143 119.83 339.869 119.503C339.603 119.17 339.223 119.003 338.729 119.003C338.223 119.003 337.813 119.18 337.499 119.533C337.193 119.88 337.039 120.35 337.039 120.943C337.039 121.55 337.193 122.037 337.499 122.403C337.813 122.763 338.229 122.943 338.749 122.943C339.076 122.943 339.363 122.873 339.609 122.733C339.856 122.587 340.036 122.38 340.149 122.113H340.909C340.743 122.58 340.463 122.95 340.069 123.223C339.683 123.49 339.229 123.623 338.709 123.623ZM345.996 123.623C345.369 123.623 344.869 123.48 344.496 123.193C344.122 122.9 343.909 122.487 343.856 121.953H344.626C344.672 122.28 344.816 122.53 345.056 122.703C345.296 122.877 345.616 122.963 346.016 122.963C346.369 122.963 346.646 122.897 346.846 122.763C347.046 122.63 347.146 122.44 347.146 122.193C347.146 122.02 347.089 121.87 346.976 121.743C346.862 121.61 346.636 121.5 346.296 121.413L345.476 121.203C345.009 121.083 344.659 120.9 344.426 120.653C344.192 120.4 344.076 120.1 344.076 119.753C344.076 119.313 344.239 118.967 344.566 118.713C344.892 118.453 345.336 118.323 345.896 118.323C346.449 118.323 346.899 118.457 347.246 118.723C347.592 118.99 347.789 119.36 347.836 119.833H347.066C347.019 119.56 346.892 119.35 346.686 119.203C346.479 119.057 346.206 118.983 345.866 118.983C345.539 118.983 345.286 119.047 345.106 119.173C344.926 119.293 344.836 119.467 344.836 119.693C344.836 119.867 344.899 120.017 345.026 120.143C345.159 120.27 345.379 120.377 345.686 120.463L346.486 120.683C346.959 120.81 347.316 121.003 347.556 121.263C347.796 121.523 347.916 121.837 347.916 122.203C347.916 122.65 347.746 123 347.406 123.253C347.066 123.5 346.596 123.623 345.996 123.623ZM351.258 123.623C350.771 123.623 350.341 123.51 349.968 123.283C349.595 123.05 349.301 122.733 349.088 122.333C348.875 121.933 348.768 121.473 348.768 120.953C348.768 120.433 348.871 119.977 349.078 119.583C349.291 119.183 349.588 118.873 349.968 118.653C350.348 118.433 350.785 118.323 351.278 118.323C351.751 118.323 352.161 118.427 352.508 118.633C352.861 118.84 353.131 119.13 353.318 119.503C353.511 119.877 353.608 120.317 353.608 120.823C353.608 120.89 353.605 120.953 353.598 121.013C353.598 121.073 353.591 121.14 353.578 121.213H349.368V120.543H353.088L352.828 120.913C352.828 120.3 352.691 119.83 352.418 119.503C352.151 119.17 351.771 119.003 351.278 119.003C350.771 119.003 350.361 119.18 350.048 119.533C349.741 119.88 349.588 120.35 349.588 120.943C349.588 121.55 349.741 122.037 350.048 122.403C350.361 122.763 350.778 122.943 351.298 122.943C351.625 122.943 351.911 122.873 352.158 122.733C352.405 122.587 352.585 122.38 352.698 122.113H353.458C353.291 122.58 353.011 122.95 352.618 123.223C352.231 123.49 351.778 123.623 351.258 123.623ZM354.813 123.523V118.423H355.563V119.623H355.613V123.523H354.813ZM358.463 123.523V120.183C358.463 119.797 358.366 119.507 358.173 119.313C357.979 119.12 357.693 119.023 357.313 119.023C356.979 119.023 356.683 119.097 356.423 119.243C356.169 119.39 355.969 119.593 355.823 119.853C355.683 120.113 355.613 120.417 355.613 120.763L355.483 119.553C355.656 119.173 355.919 118.873 356.273 118.653C356.633 118.433 357.039 118.323 357.493 118.323C358.026 118.323 358.453 118.477 358.773 118.783C359.099 119.083 359.263 119.48 359.263 119.973V123.523H358.463ZM362.702 123.613C362.136 123.613 361.722 123.487 361.462 123.233C361.209 122.973 361.082 122.6 361.082 122.113V117.233L361.882 116.933V122.103C361.882 122.39 361.956 122.6 362.102 122.733C362.249 122.867 362.489 122.933 362.822 122.933C362.956 122.933 363.069 122.927 363.162 122.913C363.262 122.893 363.342 122.87 363.402 122.843V123.523C363.336 123.55 363.239 123.57 363.112 123.583C362.992 123.603 362.856 123.613 362.702 123.613ZM360.032 119.103V118.423H363.402V119.103H360.032ZM160.579 135.523C160.553 135.41 160.533 135.28 160.519 135.133C160.513 134.987 160.509 134.8 160.509 134.573H160.459V132.133C160.459 131.747 160.369 131.463 160.189 131.283C160.016 131.097 159.733 131.003 159.339 131.003C158.953 131.003 158.643 131.083 158.409 131.243C158.183 131.397 158.056 131.617 158.029 131.903H157.259C157.293 131.41 157.499 131.023 157.879 130.743C158.259 130.463 158.756 130.323 159.369 130.323C160.003 130.323 160.473 130.473 160.779 130.773C161.086 131.073 161.239 131.523 161.239 132.123V134.573C161.239 134.72 161.249 134.873 161.269 135.033C161.289 135.187 161.316 135.35 161.349 135.523H160.579ZM158.829 135.623C158.303 135.623 157.883 135.497 157.569 135.243C157.263 134.983 157.109 134.63 157.109 134.183C157.109 133.737 157.263 133.39 157.569 133.143C157.876 132.897 158.323 132.723 158.909 132.623L160.689 132.323V132.983L159.029 133.243C158.656 133.303 158.373 133.403 158.179 133.543C157.986 133.683 157.889 133.887 157.889 134.153C157.889 134.413 157.976 134.61 158.149 134.743C158.329 134.877 158.593 134.943 158.939 134.943C159.386 134.943 159.749 134.843 160.029 134.643C160.316 134.437 160.459 134.17 160.459 133.843L160.589 134.553C160.483 134.893 160.273 135.157 159.959 135.343C159.653 135.53 159.276 135.623 158.829 135.623ZM163.074 135.523V129.703C163.074 129.237 163.208 128.873 163.474 128.613C163.748 128.353 164.161 128.223 164.714 128.223C164.848 128.223 164.951 128.23 165.024 128.243C165.104 128.257 165.171 128.273 165.224 128.293V128.923C165.178 128.91 165.111 128.897 165.024 128.883C164.944 128.87 164.858 128.863 164.764 128.863C164.458 128.863 164.231 128.94 164.084 129.093C163.944 129.247 163.874 129.463 163.874 129.743V135.523H163.074ZM162.024 131.103V130.423H165.114V131.103H162.024ZM168.357 135.613C167.79 135.613 167.377 135.487 167.117 135.233C166.863 134.973 166.737 134.6 166.737 134.113V129.233L167.537 128.933V134.103C167.537 134.39 167.61 134.6 167.757 134.733C167.903 134.867 168.143 134.933 168.477 134.933C168.61 134.933 168.723 134.927 168.817 134.913C168.917 134.893 168.997 134.87 169.057 134.843V135.523C168.99 135.55 168.893 135.57 168.767 135.583C168.647 135.603 168.51 135.613 168.357 135.613ZM165.687 131.103V130.423H169.057V131.103H165.687ZM172.069 135.623C171.582 135.623 171.152 135.51 170.779 135.283C170.405 135.05 170.112 134.733 169.899 134.333C169.685 133.933 169.579 133.473 169.579 132.953C169.579 132.433 169.682 131.977 169.889 131.583C170.102 131.183 170.399 130.873 170.779 130.653C171.159 130.433 171.595 130.323 172.089 130.323C172.562 130.323 172.972 130.427 173.319 130.633C173.672 130.84 173.942 131.13 174.129 131.503C174.322 131.877 174.419 132.317 174.419 132.823C174.419 132.89 174.415 132.953 174.409 133.013C174.409 133.073 174.402 133.14 174.389 133.213H170.179V132.543H173.899L173.639 132.913C173.639 132.3 173.502 131.83 173.229 131.503C172.962 131.17 172.582 131.003 172.089 131.003C171.582 131.003 171.172 131.18 170.859 131.533C170.552 131.88 170.399 132.35 170.399 132.943C170.399 133.55 170.552 134.037 170.859 134.403C171.172 134.763 171.589 134.943 172.109 134.943C172.435 134.943 172.722 134.873 172.969 134.733C173.215 134.587 173.395 134.38 173.509 134.113H174.269C174.102 134.58 173.822 134.95 173.429 135.223C173.042 135.49 172.589 135.623 172.069 135.623ZM175.623 135.523V130.423H176.373V131.723H176.423V135.523H175.623ZM176.423 132.863L176.293 131.653C176.413 131.22 176.627 130.89 176.933 130.663C177.24 130.437 177.593 130.323 177.993 130.323C178.16 130.323 178.273 130.337 178.333 130.363V131.133C178.3 131.12 178.253 131.113 178.193 131.113C178.133 131.107 178.06 131.103 177.973 131.103C177.467 131.103 177.08 131.257 176.813 131.563C176.553 131.863 176.423 132.297 176.423 132.863ZM183.895 135.613C183.415 135.613 183.012 135.497 182.685 135.263C182.359 135.03 182.135 134.7 182.015 134.273L182.175 134.253V137.573H181.375V130.423H182.125V131.613L182.015 131.583C182.142 131.19 182.382 130.883 182.735 130.663C183.089 130.437 183.499 130.323 183.965 130.323C184.419 130.323 184.812 130.433 185.145 130.653C185.485 130.873 185.749 131.18 185.935 131.573C186.122 131.967 186.215 132.427 186.215 132.953C186.215 133.487 186.119 133.953 185.925 134.353C185.732 134.753 185.462 135.063 185.115 135.283C184.769 135.503 184.362 135.613 183.895 135.613ZM183.775 134.913C184.282 134.913 184.679 134.74 184.965 134.393C185.252 134.04 185.395 133.56 185.395 132.953C185.395 132.353 185.252 131.883 184.965 131.543C184.679 131.197 184.282 131.023 183.775 131.023C183.269 131.023 182.869 131.2 182.575 131.553C182.282 131.9 182.135 132.377 182.135 132.983C182.135 133.577 182.282 134.047 182.575 134.393C182.869 134.74 183.269 134.913 183.775 134.913ZM189.1 135.623C188.766 135.623 188.47 135.557 188.21 135.423C187.95 135.283 187.746 135.09 187.6 134.843C187.453 134.59 187.38 134.3 187.38 133.973V130.423H188.18V133.763C188.18 134.15 188.273 134.44 188.46 134.633C188.653 134.827 188.926 134.923 189.28 134.923C189.6 134.923 189.883 134.85 190.13 134.703C190.376 134.557 190.57 134.353 190.71 134.093C190.856 133.827 190.93 133.523 190.93 133.183L191.06 134.393C190.893 134.773 190.633 135.073 190.28 135.293C189.926 135.513 189.533 135.623 189.1 135.623ZM190.98 135.523V134.323H190.93V130.423H191.73V135.523H190.98ZM193.328 135.523V130.423H194.078V131.723H194.128V135.523H193.328ZM194.128 132.863L193.998 131.653C194.118 131.22 194.332 130.89 194.638 130.663C194.945 130.437 195.298 130.323 195.698 130.323C195.865 130.323 195.978 130.337 196.038 130.363V131.133C196.005 131.12 195.958 131.113 195.898 131.113C195.838 131.107 195.765 131.103 195.678 131.103C195.172 131.103 194.785 131.257 194.518 131.563C194.258 131.863 194.128 132.297 194.128 132.863ZM198.923 135.623C198.456 135.623 198.039 135.51 197.673 135.283C197.313 135.05 197.026 134.733 196.813 134.333C196.606 133.927 196.503 133.467 196.503 132.953C196.503 132.44 196.606 131.987 196.813 131.593C197.026 131.2 197.313 130.89 197.673 130.663C198.039 130.437 198.453 130.323 198.913 130.323C199.293 130.323 199.633 130.397 199.933 130.543C200.239 130.69 200.489 130.9 200.683 131.173C200.883 131.44 201.009 131.753 201.063 132.113H200.323C200.256 131.787 200.103 131.52 199.863 131.313C199.623 131.107 199.313 131.003 198.933 131.003C198.606 131.003 198.323 131.083 198.083 131.243C197.843 131.403 197.656 131.63 197.523 131.923C197.389 132.217 197.323 132.56 197.323 132.953C197.323 133.347 197.389 133.693 197.523 133.993C197.656 134.293 197.843 134.527 198.083 134.693C198.329 134.86 198.616 134.943 198.943 134.943C199.309 134.943 199.616 134.843 199.863 134.643C200.109 134.437 200.266 134.17 200.333 133.843H201.073C201.013 134.197 200.879 134.51 200.673 134.783C200.473 135.05 200.223 135.257 199.923 135.403C199.623 135.55 199.289 135.623 198.923 135.623ZM202.235 135.523V128.323H203.035V135.523H202.235ZM205.885 135.523V132.183C205.885 131.797 205.788 131.507 205.595 131.313C205.401 131.12 205.115 131.023 204.735 131.023C204.401 131.023 204.105 131.097 203.845 131.243C203.591 131.39 203.391 131.593 203.245 131.853C203.105 132.113 203.035 132.417 203.035 132.763L202.905 131.553C203.078 131.173 203.341 130.873 203.695 130.653C204.055 130.433 204.461 130.323 204.915 130.323C205.448 130.323 205.875 130.477 206.195 130.783C206.521 131.083 206.685 131.48 206.685 131.973V135.523H205.885ZM211.322 135.523C211.295 135.41 211.275 135.28 211.262 135.133C211.255 134.987 211.252 134.8 211.252 134.573H211.202V132.133C211.202 131.747 211.112 131.463 210.932 131.283C210.758 131.097 210.475 131.003 210.082 131.003C209.695 131.003 209.385 131.083 209.152 131.243C208.925 131.397 208.798 131.617 208.772 131.903H208.002C208.035 131.41 208.242 131.023 208.622 130.743C209.002 130.463 209.498 130.323 210.112 130.323C210.745 130.323 211.215 130.473 211.522 130.773C211.828 131.073 211.982 131.523 211.982 132.123V134.573C211.982 134.72 211.992 134.873 212.012 135.033C212.032 135.187 212.058 135.35 212.092 135.523H211.322ZM209.572 135.623C209.045 135.623 208.625 135.497 208.312 135.243C208.005 134.983 207.852 134.63 207.852 134.183C207.852 133.737 208.005 133.39 208.312 133.143C208.618 132.897 209.065 132.723 209.652 132.623L211.432 132.323V132.983L209.772 133.243C209.398 133.303 209.115 133.403 208.922 133.543C208.728 133.683 208.632 133.887 208.632 134.153C208.632 134.413 208.718 134.61 208.892 134.743C209.072 134.877 209.335 134.943 209.682 134.943C210.128 134.943 210.492 134.843 210.772 134.643C211.058 134.437 211.202 134.17 211.202 133.843L211.332 134.553C211.225 134.893 211.015 135.157 210.702 135.343C210.395 135.53 210.018 135.623 209.572 135.623ZM215.234 135.623C214.607 135.623 214.107 135.48 213.734 135.193C213.361 134.9 213.147 134.487 213.094 133.953H213.864C213.911 134.28 214.054 134.53 214.294 134.703C214.534 134.877 214.854 134.963 215.254 134.963C215.607 134.963 215.884 134.897 216.084 134.763C216.284 134.63 216.384 134.44 216.384 134.193C216.384 134.02 216.327 133.87 216.214 133.743C216.101 133.61 215.874 133.5 215.534 133.413L214.714 133.203C214.247 133.083 213.897 132.9 213.664 132.653C213.431 132.4 213.314 132.1 213.314 131.753C213.314 131.313 213.477 130.967 213.804 130.713C214.131 130.453 214.574 130.323 215.134 130.323C215.687 130.323 216.137 130.457 216.484 130.723C216.831 130.99 217.027 131.36 217.074 131.833H216.304C216.257 131.56 216.131 131.35 215.924 131.203C215.717 131.057 215.444 130.983 215.104 130.983C214.777 130.983 214.524 131.047 214.344 131.173C214.164 131.293 214.074 131.467 214.074 131.693C214.074 131.867 214.137 132.017 214.264 132.143C214.397 132.27 214.617 132.377 214.924 132.463L215.724 132.683C216.197 132.81 216.554 133.003 216.794 133.263C217.034 133.523 217.154 133.837 217.154 134.203C217.154 134.65 216.984 135 216.644 135.253C216.304 135.5 215.834 135.623 215.234 135.623ZM220.496 135.623C220.01 135.623 219.58 135.51 219.206 135.283C218.833 135.05 218.54 134.733 218.326 134.333C218.113 133.933 218.006 133.473 218.006 132.953C218.006 132.433 218.11 131.977 218.316 131.583C218.53 131.183 218.826 130.873 219.206 130.653C219.586 130.433 220.023 130.323 220.516 130.323C220.99 130.323 221.4 130.427 221.746 130.633C222.1 130.84 222.37 131.13 222.556 131.503C222.75 131.877 222.846 132.317 222.846 132.823C222.846 132.89 222.843 132.953 222.836 133.013C222.836 133.073 222.83 133.14 222.816 133.213H218.606V132.543H222.326L222.066 132.913C222.066 132.3 221.93 131.83 221.656 131.503C221.39 131.17 221.01 131.003 220.516 131.003C220.01 131.003 219.6 131.18 219.286 131.533C218.98 131.88 218.826 132.35 218.826 132.943C218.826 133.55 218.98 134.037 219.286 134.403C219.6 134.763 220.016 134.943 220.536 134.943C220.863 134.943 221.15 134.873 221.396 134.733C221.643 134.587 221.823 134.38 221.936 134.113H222.696C222.53 134.58 222.25 134.95 221.856 135.223C221.47 135.49 221.016 135.623 220.496 135.623ZM223.562 135.523V134.493H224.592V135.523H223.562Z" fill="#3A3A3B"/>
<path d="M199.049 163.01L192.861 169.198C192.732 169.327 192.557 169.399 192.375 169.399C192.193 169.399 192.018 169.327 191.889 169.198C191.76 169.069 191.687 168.894 191.687 168.711C191.687 168.529 191.76 168.354 191.889 168.225L196.903 163.211H183.438C183.255 163.211 183.08 163.139 182.951 163.01C182.822 162.881 182.75 162.706 182.75 162.524C182.75 162.341 182.822 162.167 182.951 162.038C183.08 161.909 183.255 161.836 183.438 161.836H196.903L191.889 156.823C191.76 156.694 191.687 156.519 191.687 156.336C191.687 156.154 191.76 155.979 191.889 155.85C192.018 155.721 192.193 155.648 192.375 155.648C192.557 155.648 192.732 155.721 192.861 155.85L199.049 162.037C199.113 162.101 199.164 162.177 199.198 162.261C199.233 162.344 199.251 162.433 199.251 162.524C199.251 162.614 199.233 162.704 199.198 162.787C199.164 162.871 199.113 162.946 199.049 163.01Z" fill="black"/>
<defs>
<linearGradient id="paint0_linear_8100_17603" x1="0" y1="185.523" x2="382" y2="185.523" gradientUnits="userSpaceOnUse">
<stop stop-color="#F1F5FE"/>
</linearGradient>
<clipPath id="clip0_8100_17603">
<rect width="54.8607" height="6.85759" fill="white" transform="translate(163.57 46.666)"/>
</clipPath>
</defs>
</svg>
