<?xml version="1.0" ?><!DOCTYPE svg  PUBLIC '-//W3C//DTD SVG 1.1//EN'  'http://www.w3.org/Graphics/SVG/1.1/DTD/svg11.dtd'><svg enable-background="new 0 0 512 512" height="512px" id="Layer_1" version="1.1" viewBox="0 0 512 512" width="512px" xml:space="preserve" xmlns="http://www.w3.org/2000/svg" xmlns:xlink="http://www.w3.org/1999/xlink"><g><g><path d="M270.405,251.702c0,6.52,3.76,11.281,12.283,14.543c6.517,2.754,7.52,3.509,7.52,6.016    c0,3.256-3.007,4.762-9.276,4.762c-4.763,0-9.275-0.75-14.54-2.256l-2.006,12.283h0.753l2.757,0.756    c1.005,0,2.508,0.249,4.263,0.249c3.761,0.502,6.768,0.502,9.024,0.502c16.795,0,24.817-5.519,24.817-17.549    c0-7.272-3.258-11.532-11.53-14.79c-6.769-2.508-7.52-3.258-7.52-5.767c0-2.758,2.757-4.261,8.02-4.261    c3.008,0,7.521,0.25,11.532,0.752l2.254-12.034c-4.26-0.752-10.528-1.003-14.038-1.003    C276.674,233.904,270.405,241.925,270.405,251.702z" fill="#333333"/><path d="M325.807,272.006c0-0.497,0.251-1.252,0.501-2.252l4.012-22.063h8.272l2.257-12.786h-8.274l2.257-12.032    h-15.793l-7.269,40.358l-0.753,4.012l-1.002,5.266c-0.25,1.755-0.501,3.261-0.501,4.767c0,7.516,4.513,11.527,12.534,11.527    c3.761,0,7.019-0.501,11.532-1.755l2.004-11.533c-1.003,0.254-2.506,0.502-4.261,0.502    C327.562,276.018,325.807,274.765,325.807,272.006z" fill="#333333"/><path d="M263.638,265.742c1.252-5.263,1.755-9.027,1.755-13.039c0-11.53-8.271-19.051-21.308-19.051    c-16.044,0-27.828,13.288-27.828,31.334c0,15.545,9.275,23.816,27.075,23.816c5.515,0,10.78-0.75,16.295-2.257l2.505-13.034    c-5.512,2.257-10.777,3.262-16.543,3.262c-9.276,0-13.789-3.261-13.789-9.276c0-0.502,0-0.756,0-1.755H263.638z M243.582,245.686    c4.763,0,7.521,2.508,7.521,6.769c0,0.751,0,1.755,0,2.759h-17.55C235.059,249.196,238.569,245.686,243.582,245.686z" fill="#333333"/><path d="M192.442,233.902c-6.018,0-11.03,0.752-19.053,2.758l-2.255,11.783l1.503-0.25l2.257-0.752    c3.508-0.753,8.523-1.253,13.035-1.253c7.52,0,10.28,1.254,10.28,4.761c0,0.753,0,1.506-0.502,3.261    c-2.509-0.251-4.765-0.251-6.518-0.251c-17.8,0-28.077,7.519-28.077,20.304c0,8.525,6.016,14.292,14.539,14.292    c7.27,0,12.786-2.008,16.797-6.268l-0.251,5.518h13.035l0.253-1.508l0.25-1.755l0.502-2.759l0.502-3.256l3.256-18.806    c1.004-5.762,1.252-7.769,1.252-10.526C213.247,239.168,206.228,233.902,192.442,233.902z M184.169,277.525    c-3.51,0-5.515-2.257-5.515-5.518c0-5.264,4.513-8.018,13.537-8.018c1.003,0,1.755,0,3.508,0.249    C195.449,272.006,190.687,277.524,184.169,277.525z" fill="#333333"/><polygon fill="#333333" points="142.305,222.874 124.756,262.983 123.503,222.874 98.434,222.874 86.151,287.804 100.691,287.804     110.217,238.166 112.723,287.804 127.264,287.804 149.073,237.915 139.546,287.804 155.59,287.804 168.125,222.874   "/><path d="M379.956,235.409c-1.256-0.502-1.504-0.502-1.756-0.502c-0.753-0.251-1.255-0.251-1.255-0.501    c-0.5,0-1.002,0-1.753,0c-5.267,0-9.023,2.255-13.789,8.523l1.504-8.022H348.37l-9.778,52.897h16.044    c5.766-32.342,8.02-38.107,15.793-38.107c0.502,0,1.253,0.25,2.006,0.25l1.755,0.502L379.956,235.409z" fill="#333333"/><path d="M404.774,233.403c-19.052,0-31.338,12.786-31.338,31.336c0,13.536,7.27,24.318,25.068,24.318    c16.295,0,28.581-7.775,31.086-25.323c0.502-3.007,0.502-3.256,0.502-6.517C430.094,243.931,421.32,233.403,404.774,233.403z     M412.545,263.486c-1.255,8.023-8.772,12.786-12.283,12.786c-5.514,0-9.024-4.763-9.024-11.781    c0-8.526,5.013-18.051,13.034-18.051c6.519,0,8.773,5.011,8.773,10.53C413.045,259.225,413.045,261.477,412.545,263.486z" fill="#333333"/><path d="M481.641,97.198H29.909c-16.638,0-30.126,13.488-30.126,30.126v257.901    c0,16.638,13.488,30.126,30.126,30.126h451.732c16.638,0,30.126-13.488,30.126-30.126V127.324    C511.767,110.686,498.279,97.198,481.641,97.198z M343.925,384.583c-30.366,0-57.994-10.628-79.818-28.439    c16.645-16.071,29.352-36.194,36.17-58.938h-10.529c-6.596,20.219-18.184,38.064-33.251,52.378    c-14.976-14.277-26.457-32.188-33.035-52.321h-10.531c6.791,22.616,19.28,42.768,35.797,58.79    c-21.77,17.63-49.269,28.529-79.463,28.529c-69.977,0-126.708-56.731-126.708-126.706c0-69.978,56.731-126.709,126.708-126.709    c30.194,0,57.693,10.898,79.463,28.53c-16.518,16.02-29.007,36.171-35.797,58.787h10.532c6.577-20.13,18.058-38.041,33.034-52.321    c15.067,14.318,26.656,32.159,33.251,52.381l10.529-0.001c-6.818-22.743-19.525-42.868-36.17-58.937    c21.823-17.813,49.451-28.439,79.818-28.439c69.977,0,126.708,56.73,126.708,126.709    C470.633,327.854,413.902,384.585,343.925,384.583z" fill="#333333"/></g></g></svg>