<?xml version="1.0" ?><!DOCTYPE svg  PUBLIC '-//W3C//DTD SVG 1.1//EN'  'http://www.w3.org/Graphics/SVG/1.1/DTD/svg11.dtd'><svg enable-background="new 0 0 512 512" height="512px" id="Layer_1" version="1.1" viewBox="0 0 512 512" width="512px" xml:space="preserve" xmlns="http://www.w3.org/2000/svg" xmlns:xlink="http://www.w3.org/1999/xlink"><g><g><polygon fill="#333333" points="203.878,255.636 212.959,255.636 220.087,222.531 210.988,222.531   "/><path d="M158.332,200.029l-7.612,36.674c-0.671,3.232-2.163,5.716-4.45,7.466    c-2.286,1.762-5.232,2.636-8.807,2.636c-3.109,0-5.343-0.886-6.72-2.672c-0.945-1.201-1.411-2.74-1.399-4.619    c-0.012-0.852,0.081-1.797,0.315-2.812l7.588-36.674h-11.618l-7.693,37.095c-0.373,1.808-0.56,3.488-0.56,5.051    c0,3.779,1.097,6.905,3.302,9.367c3.179,3.465,8.16,5.191,14.954,5.191c7.221,0,13.118-1.691,17.691-5.062    c4.614-3.43,7.589-8.259,8.871-14.547l7.699-37.095H158.332z" fill="#333333"/><path d="M191.047,221.68c-3.815,0-7.046,1.411-9.706,4.258l-1.178,1.365l0.939-4.783h-8.206l-6.62,33.129h8.451    l3.761-19.026c0.484-2.391,1.47-4.269,2.964-5.623c1.488-1.342,3.313-2.018,5.482-2.018c1.767,0,2.993,0.501,3.633,1.516    c0.648,1.015,0.765,2.59,0.345,4.701l-4.083,20.449h8.434l4.521-22.56c0.729-3.581,0.309-6.369-1.231-8.388    C196.99,222.683,194.499,221.68,191.047,221.68z" fill="#333333"/><path d="M241.23,317.239l2.636-9.634h11.351l1.849-6.755h-11.35l1.779-6.52h11.665l1.849-6.754h-29.005    l-1.843,6.754h6.935l-1.779,6.52h-7.256l-1.843,6.755h7.256l-3.371,12.295c-1.056,3.861,0.099,5.785,3.465,5.785h17.76    l1.714-6.276h-9.25C241.435,319.574,240.577,318.851,241.23,317.239z" fill="#333333"/><polygon fill="#333333" points="212.138,218.506 221.318,218.506 223.032,210.469 213.852,210.469   "/><path d="M272.605,236.623c0.466-2.391,1.457-4.269,2.95-5.623c1.505-1.342,3.324-2.018,5.494-2.018    c1.761,0,2.963,0.501,3.628,1.516c0.641,1.015,0.759,2.59,0.339,4.701l-4.083,20.449h8.445l4.503-22.56    c0.747-3.581,0.304-6.369-1.226-8.388c-1.551-2.018-4.046-3.021-7.5-3.021c-3.802,0-7.046,1.411-9.706,4.258l-1.165,1.365    l0.932-4.783h-8.212l-6.62,33.129h8.441L272.605,236.623z" fill="#333333"/><path d="M358.319,253.583l1.516,1.796l10.463,0.268l6.871-31.216l-9.075,0.793l-3.851,2.649    c-4.024-3.15-7.698-5.098-14.79-1.809C339.795,230.545,331.723,264.899,358.319,253.583z M351.483,238.932    c1.68-4.97,5.459-8.236,8.376-7.303c2.939,0.91,4,5.692,2.285,10.662c-1.679,4.957-5.435,8.235-8.375,7.302    C350.831,248.684,349.781,243.901,351.483,238.932z" fill="#333333"/><path d="M364.664,274.592l-0.442-3.849h-10.428l0.361,8.433c0.139,2.415,1.644,3.535,4.572,3.383h7.665l1.865-6.52    h-1.842C365.178,276.039,364.596,275.571,364.664,274.592z" fill="#333333"/><path d="M311.611,236.249h12.786c5.156,0,9.635-1.563,13.415-4.666c3.767-3.114,6.206-7.221,7.256-12.33    c0.197-0.933,0.349-1.832,0.466-2.718c0.07-0.898,0.118-1.727,0.118-2.462v-0.117c0-3.861-1.213-6.824-3.64-8.889    c-2.439-2.041-5.984-3.079-10.569-3.079h-23.844l-11.013,53.659h11.071L311.611,236.249z M316.791,211.181h9.006    c2.939,0,5.063,0.419,6.416,1.295c1.354,0.864,2.03,2.24,2.03,4.141c0,0.373-0.046,0.758-0.082,1.143    c-0.07,0.409-0.129,0.852-0.222,1.342c-0.583,2.66-1.633,4.62-3.218,5.902c-1.599,1.272-3.792,1.914-6.557,1.914H313.56    L316.791,211.181z" fill="#333333"/><path d="M242.425,271.035l-4.123,6.17c-0.461,0.969-1.44,1.458-2.899,1.458h-1.587l-1.785,6.509h8.206    c2.684,0.152,4.917-1.131,6.732-3.861h15.753l1.68-6.219h-13.24l2.304-4.058H242.425z" fill="#333333"/><path d="M290.544,305.179c0,0.805-0.63,1.213-1.902,1.213h-2.52l0.176-4.094h-9.461l-0.724,18.804    c-0.034,3.219,1.528,4.736,4.713,4.584h11.362l1.528-5.54h-4.736c-2.087,0-3.102-0.572-3.009-1.692l0.023-6.998h5.039    c3.826-0.164,6.181-1.844,7.069-5.064l1.05-3.861h-7.863L290.544,305.179z" fill="#333333"/><path d="M237.853,256.488c4.958,0,9.209-1.551,12.75-4.666c3.541-3.091,5.833-7.314,6.889-12.61    c0.146-0.805,0.275-1.622,0.379-2.473c0.087-0.84,0.141-1.622,0.141-2.298c0-3.943-1.191-7.046-3.565-9.344    c-2.374-2.286-5.617-3.429-9.705-3.429c-4.993,0-9.256,1.587-12.79,4.748c-3.541,3.15-5.839,7.419-6.918,12.796    c-0.157,0.758-0.268,1.575-0.356,2.415c-0.088,0.828-0.129,1.586-0.129,2.251c0.012,3.896,1.213,6.964,3.593,9.239    C230.516,255.368,233.747,256.488,237.853,256.488z M233.356,241.301c0.076-0.537,0.157-1.085,0.256-1.633    c0.724-3.57,1.873-6.253,3.494-8.026c1.609-1.773,3.663-2.66,6.182-2.66c1.907,0,3.383,0.56,4.421,1.691    c1.044,1.12,1.563,2.706,1.563,4.748c0,0.478-0.024,1.003-0.082,1.564c-0.058,0.572-0.152,1.143-0.257,1.691    c-0.699,3.51-1.848,6.148-3.452,7.886c-1.604,1.749-3.657,2.625-6.188,2.625c-1.931,0-3.401-0.549-4.439-1.657    c-1.044-1.108-1.564-2.672-1.564-4.701C233.281,242.362,233.298,241.848,233.356,241.301z" fill="#333333"/><path d="M288.281,270.836c-4.969,0-10.439,4.108-10.439,4.108l0.455-3.954h-9.73l-13.776,50.836    c-0.659,2.414,1.002,3.616,4.998,3.616h10.411l1.506-5.54h-4.096c-1.05,0-1.446-0.491-1.166-1.447l4.875-17.849h20.811    c4.41,0,6.906-1.445,7.489-4.352l7.023-25.418H288.281z M289.879,292.638c-0.081,1.132-0.759,1.611-1.971,1.447h-14.816    l1.376-5.063h16.414L289.879,292.638z M292.528,282.992c0,0-5.191-0.071-9.741,0c-4.561,0.07-7.291,2.041-7.291,2.041l1.96-6.859    h16.389L292.528,282.992z" fill="#333333"/><path d="M348.743,291.73h11.676l-1.855,6.508h-11.666l-1.994,6.987h10.755l-8.341,12.062    c-0.945,1.132-1.994,1.691-3.253,1.691h-3.069l-1.913,6.754h9.834c2.612,0.164,4.549-0.886,5.809-3.137l5.331-7.967l1.552,7.489    c0.141,2.414,1.867,3.535,5.204,3.37h6.438l1.913-6.753h-1.82c-1.237,0-1.96-0.397-2.122-1.213l-1.354-8.2h-5.856l2.707-4.096    h11.967l1.996-6.987h-10.744l1.844-6.508h10.755l1.983-7h-33.782L348.743,291.73z" fill="#333333"/><path d="M481.641,97.198H29.909c-16.638,0-30.126,13.488-30.126,30.126v257.901    c0,16.638,13.488,30.126,30.126,30.126h451.732c16.638,0,30.126-13.488,30.126-30.126V127.324    C511.767,110.686,498.279,97.198,481.641,97.198z M441.63,162.339l-43.209,191.18c-2.799,12.273-14.721,22.223-26.993,22.83H344.4    h-56.241c-12.46-0.188-20.205-10.383-17.358-22.911l3.836-16.975h-11.962l-3.836,16.975c-2.846,12.528,4.898,22.724,17.358,22.911    h-89.344c-12.459-0.188-20.205-10.383-17.358-22.911l3.836-16.975h-11.931l-3.837,16.975    c-2.858,12.528,4.899,22.724,17.352,22.911H90.563c-10.026-0.152-17.002-6.802-17.847-15.936v-3.547    c0.087-1.119,0.233-2.262,0.496-3.429l43.219-191.18c2.893-12.669,19.12-22.923,31.776-22.923l83.844,0.024    c-12.586,0.256-28.423,10.393-31.269,22.899l-6.762,29.91h11.922l6.759-29.91c2.847-12.412,18.479-22.479,31.029-22.864    c0.052,0,0.102-0.005,0.153-0.008l52.865-0.015l36.325,0.023c-12.551,0.385-28.183,10.452-31.03,22.864l-6.76,29.91h11.962    l6.759-29.91c2.847-12.412,18.479-22.479,31.03-22.864c0.052,0,0.102-0.005,0.153-0.008l78.733,0.02    C436.59,139.405,444.522,149.682,441.63,162.339z" fill="#333333"/><path d="M395.426,244.893l-0.548-22.362h-5.109l-6.089,0.081l2.892,35.649    c-2.426,4.841-6.684,15.772-14.558,18.198l-0.805,5.68c9.356,0.35,13.24-4.292,15.2-6.287c1.96-2.019,5.296-6.358,8.795-13.799    l19.493-39.522h-9.695L395.426,244.893z" fill="#333333"/><path d="M338.639,315.362l10.347-36.418h2.158l2.181-7.722c0,0-9.635,0-13.718,0c-4.083,0-9.751,2.834-9.751,2.834    l0.478-2.834h-11.094l-2.193,7.722h2.146l-10.357,36.418h-2.123l-2.066,7.233h21.196l-0.898,3.137h10.744l0.898-3.137h2.158    l2.052-7.233H338.639z M326.963,315.362h-8.293l2.136-7.489h8.281L326.963,315.362z M331.081,300.885    c-3.675,0.223-9.029,2.859-9.029,2.859l2.834-10.325h8.318C333.204,293.42,332.142,296.896,331.081,300.885z M335.188,286.422    c-4.165,0.524-8.994,2.379-8.994,2.379l2.823-9.857h8.293C337.31,278.944,336.109,282.979,335.188,286.422z" fill="#333333"/></g></g></svg>