<svg width="41" height="41" viewBox="0 0 41 41" fill="none" xmlns="http://www.w3.org/2000/svg">
<g clip-path="url(#clip0_1230_39753)">
<path d="M29.94 6H12.06C8.71125 6 6 8.71125 6 12.06V29.9438C6 33.2888 8.71125 36 12.06 36H29.9438C33.2888 36 36.0037 33.2888 36.0037 29.94V12.06C36 8.71125 33.2888 6 29.94 6Z" fill="url(#paint0_linear_1230_39753)"/>
<path d="M20.873 12.8926L21.4805 11.8426C21.8555 11.1863 22.6918 10.9651 23.348 11.3401C24.0043 11.7151 24.2255 12.5513 23.8505 13.2076L17.9968 23.3401H22.2305C23.603 23.3401 24.3718 24.9526 23.7755 26.0701H11.363C10.6055 26.0701 9.99805 25.4626 9.99805 24.7051C9.99805 23.9476 10.6055 23.3401 11.363 23.3401H14.843L19.298 15.6188L17.9068 13.2038C17.5318 12.5476 17.753 11.7188 18.4093 11.3363C19.0655 10.9613 19.8943 11.1826 20.2768 11.8388L20.873 12.8926ZM15.608 27.4763L14.2955 29.7526C13.9205 30.4088 13.0843 30.6301 12.428 30.2551C11.7718 29.8801 11.5505 29.0438 11.9255 28.3876L12.9005 26.7001C14.003 26.3588 14.8993 26.6213 15.608 27.4763ZM26.9105 23.3476H30.4618C31.2193 23.3476 31.8268 23.9551 31.8268 24.7126C31.8268 25.4701 31.2193 26.0776 30.4618 26.0776H28.4893L29.8205 28.3876C30.1955 29.0438 29.9743 29.8726 29.318 30.2551C28.6618 30.6301 27.833 30.4088 27.4505 29.7526C25.208 25.8638 23.5243 22.9538 22.4068 21.0151C21.263 19.0426 22.0805 17.0626 22.8868 16.3913C23.783 17.9288 25.1218 20.2501 26.9105 23.3476Z" fill="white"/>
</g>
<defs>
<linearGradient id="paint0_linear_1230_39753" x1="21.0019" y1="6" x2="21.0019" y2="36" gradientUnits="userSpaceOnUse">
<stop stop-color="#18BFFB"/>
<stop offset="1" stop-color="#2072F3"/>
</linearGradient>
<clipPath id="clip0_1230_39753">
<rect width="30" height="30" fill="white" transform="translate(6 6)"/>
</clipPath>
</defs>
</svg>
