
<svg width="122" height="41" viewBox="0 0 122 41" fill="none" xmlns="http://www.w3.org/2000/svg">
<path d="M32.0491 22.0166L24.2419 14.2094C23.971 13.9631 23.5769 13.9631 23.306 14.2094L21.7544 15.761L28.0347 22.0166C28.281 22.2629 28.281 22.7062 28.0347 22.9525L21.582 29.4052L23.1336 30.9568C23.4045 31.203 23.7986 31.203 24.0695 30.9568L32.0491 22.9771C32.2954 22.7062 32.2954 22.2875 32.0491 22.0166Z" fill="#069C9C"/>
<path d="M18.7502 14.8005L18.1838 14.234C17.9129 13.9877 17.5188 13.9877 17.2479 14.234L15.6963 15.7856L16.7307 16.82L18.7502 18.8149L20.7451 16.82L18.7502 14.8005Z" fill="#69C4CF"/>
<path d="M18.5772 26.4004L16.5822 28.3953L15.5479 29.4297L17.0994 30.9813C17.3704 31.2276 17.7644 31.2276 18.0353 30.9813L18.6018 30.4148L20.6213 28.3953L18.5772 26.4004Z" fill="#69C4CF"/>
<path d="M22.0007 22.0166C22.247 22.2875 22.247 22.7062 22.0007 22.9525L18.5527 26.3759L20.5723 28.3954L26.0152 22.9525C26.2615 22.7062 26.2615 22.2629 26.0152 22.0166L20.7693 16.7708L18.7498 18.7657L22.0007 22.0166Z" fill="#2AB5B5"/>
<path d="M9.24332 22.2136L14.6862 16.7707L12.6913 14.7512L12.1002 14.1847C11.8293 13.9384 11.4353 13.9384 11.1643 14.1847L3.18471 22.189C2.93843 22.4353 2.93843 22.8539 3.18471 23.1249L10.9919 30.9321C11.2629 31.1784 11.6815 31.1784 11.9278 30.9321L12.4943 30.3656L14.5138 28.3461L9.26795 23.1002C8.99704 22.9032 8.99704 22.4845 9.24332 22.2136Z" fill="#97D3DD"/>
<path d="M15.3019 22.2137L17.6909 19.8247L15.6713 17.8298L14.6369 16.7954L9.24331 22.2383C8.99702 22.4846 8.99702 22.9033 9.24331 23.1742L14.4645 28.3954L15.4989 27.361L17.4939 25.3415L15.2773 23.1249C15.0556 22.9033 15.0556 22.4846 15.3019 22.2137Z" fill="#69C4CF"/>
<path d="M15.302 23.1496L17.5185 25.3661L19.9075 22.9772C20.1538 22.7309 20.1538 22.3122 19.9075 22.0413L17.691 19.8247L15.302 22.2137C15.0803 22.4846 15.0803 22.9033 15.302 23.1496Z" fill="#48BBC2"/>
<path d="M38.3295 20.3912C38.3542 19.5046 38.5266 18.6426 38.8467 17.8052C39.1669 17.0417 39.6102 16.3521 40.2013 15.7857C40.8416 15.2192 41.5805 14.7513 42.3932 14.505C43.3784 14.1848 44.4128 14.0124 45.4472 14.037C46.6047 14.0124 47.7622 14.1602 48.8459 14.5542C49.6094 14.8498 50.3482 15.2685 50.964 15.8349C51.4565 16.2536 51.8259 16.7954 52.0722 17.3619C52.2693 17.7806 52.3678 18.2239 52.4417 18.6918C52.4663 18.8642 52.417 19.0366 52.2693 19.1598C52.1461 19.2829 51.9737 19.3322 51.8013 19.3322H49.8803C49.7325 19.3322 49.5848 19.3075 49.4862 19.209C49.3877 19.1351 49.3138 19.0366 49.2646 18.9381C49.24 18.8889 49.1414 18.7411 49.0183 18.5441C48.8459 18.2978 48.6242 18.0515 48.378 17.8791C48.0332 17.6328 47.6391 17.4111 47.245 17.2634C46.6786 17.0663 46.0629 16.9678 45.4718 16.9925C44.4374 16.9432 43.4276 17.288 42.6395 17.953C41.9253 18.6179 41.5066 19.5292 41.5066 20.5143C41.4574 21.1054 41.4574 21.7458 41.4574 22.46C41.4574 23.125 41.4574 23.7899 41.5066 24.381C41.5312 25.6863 41.9253 26.6468 42.6395 27.2133C43.4523 27.829 44.462 28.1492 45.4472 28.0999C45.989 28.0999 46.5308 28.0507 47.048 27.9029C47.516 27.7797 47.9346 27.5827 48.3041 27.2872C48.6735 26.9916 48.969 26.6222 49.1414 26.1543C49.3631 25.6124 49.4616 25.046 49.437 24.4549V24.2579H46.5555C46.3831 24.2579 46.2353 24.2086 46.1121 24.0608C45.989 23.9377 45.9151 23.7899 45.9151 23.6175V21.9428C45.9151 21.598 46.2107 21.3024 46.5555 21.3024H51.9737C52.3185 21.3024 52.6141 21.598 52.6141 21.9428V24.5288C52.6387 25.4154 52.4909 26.302 52.1707 27.1394C51.8752 27.9029 51.4073 28.6171 50.8162 29.1836C50.1758 29.7746 49.4124 30.2426 48.575 30.5381C46.5554 31.1785 44.3635 31.1785 42.3193 30.5381C41.5066 30.2672 40.7678 29.8239 40.1274 29.2328C39.561 28.6664 39.093 27.9768 38.7975 27.1887C38.5019 26.3513 38.3049 25.4647 38.3049 24.578C38.3049 24.2825 38.2803 23.9377 38.2803 23.5929C38.2803 23.2235 38.2803 22.854 38.2803 22.46C38.2803 22.0659 38.2803 21.6965 38.2803 21.3517C38.2803 21.0069 38.3049 20.6867 38.3295 20.3912Z" fill="#424A52"/>
<path fill-rule="evenodd" clip-rule="evenodd" d="M54.1162 24.6518C54.1162 23.7898 54.2393 22.9771 54.5103 22.1644C54.7565 21.4009 55.1506 20.7113 55.6678 20.1202C56.1604 19.5291 56.8007 19.0858 57.4903 18.7656C58.2538 18.4455 59.0665 18.2731 59.8546 18.2731C60.6674 18.2484 61.4801 18.4208 62.219 18.7656C62.9086 19.0612 63.5489 19.5291 64.0661 20.0709C64.5587 20.6374 64.9774 21.2531 65.2483 21.992C65.5192 22.7308 65.667 23.4943 65.6423 24.2824V25.3414C65.6423 25.6862 65.3468 25.9818 65.002 25.9818H57.1209C57.1209 26.302 57.1948 26.6468 57.3425 26.9177C57.4903 27.1886 57.6873 27.4102 57.9336 27.6073C58.2045 27.8043 58.5001 27.9274 58.7956 28.026C59.1158 28.1245 59.4606 28.1491 59.83 28.1491C60.2241 28.1737 60.6674 28.1245 61.0614 28.0013C61.3324 27.9274 61.6033 27.7797 61.8249 27.6073C61.9481 27.5088 62.0958 27.4102 62.2436 27.3364C62.3668 27.2871 62.5392 27.2625 62.6869 27.2625H64.5833C64.7557 27.2625 64.9281 27.3364 65.0513 27.4595C65.1744 27.5826 65.2483 27.7304 65.2237 27.9028C65.1744 28.223 65.0513 28.4939 64.8542 28.7648C64.5833 29.1589 64.2385 29.5283 63.8198 29.7992C63.3026 30.1686 62.7116 30.4642 62.1205 30.6366C61.357 30.8829 60.5689 31.006 59.8054 30.9814C58.9926 30.9814 58.1799 30.8336 57.4411 30.5134C56.7515 30.2179 56.1111 29.7746 55.6185 29.2327C55.1013 28.6417 54.7073 27.9521 54.461 27.2132C54.2394 26.3758 54.1162 25.5138 54.1162 24.6518ZM59.9039 21.1053C59.5099 21.0807 59.1158 21.1546 58.7217 21.3024C58.4016 21.4255 58.1307 21.5979 57.909 21.8196C57.712 22.0166 57.5149 22.2629 57.4164 22.5338C57.2933 22.7555 57.2194 23.0017 57.1948 23.2726H62.5145C62.4899 23.0264 62.416 22.7801 62.3421 22.5338C62.2436 22.2629 62.1205 22.0412 61.9234 21.8196C61.7018 21.5979 61.4309 21.4255 61.16 21.3024C60.7413 21.1546 60.3226 21.1053 59.9039 21.1053Z" fill="#424A52"/>
<path d="M71.3562 26.3514C71.3316 26.77 71.4794 27.2134 71.7503 27.5089C71.9966 27.8044 72.4891 27.9522 73.2034 27.9522H74.6318C74.9766 27.9522 75.2722 28.2478 75.2722 28.5926V30.1442C75.2722 30.489 74.9766 30.7845 74.6318 30.7845H72.8832C71.4055 30.7845 70.2726 30.4151 69.4845 29.7008C68.6963 28.9866 68.3023 27.8783 68.3023 26.4252V21.3518H66.7507C66.5783 21.3518 66.4305 21.3025 66.3074 21.1547C66.2089 21.0316 66.1104 20.8838 66.1104 20.7114V19.1598C66.1104 18.9874 66.1596 18.8397 66.3074 18.7165C66.4305 18.5934 66.5783 18.5195 66.7507 18.5195H68.3023V14.6775C68.3023 14.3327 68.5978 14.0371 68.9426 14.0371H70.7405C71.0853 14.0371 71.3808 14.3327 71.3808 14.6775V18.5195H74.3855C74.7303 18.5441 74.9766 18.815 75.0012 19.1598V20.7114C75.0012 21.0562 74.7057 21.3518 74.3609 21.3518H71.307L71.3562 26.3514Z" fill="#424A52"/>
<path fill-rule="evenodd" clip-rule="evenodd" d="M85.543 14.2586C85.7646 14.2339 85.9617 14.3078 86.1094 14.4556C86.2572 14.628 86.3803 14.8497 86.4542 15.0467L92.2173 29.9716C92.2419 30.0208 92.2419 30.0947 92.2419 30.1193C92.2419 30.4641 91.9464 30.7597 91.6016 30.7597H89.9022C89.6806 30.7843 89.4343 30.7104 89.2372 30.5626C89.1141 30.4395 89.0402 30.3164 88.991 30.1686L87.9566 27.558H80.5188L79.4844 30.1686C79.4351 30.3164 79.3366 30.4395 79.2381 30.5626C79.0411 30.7104 78.8194 30.7843 78.5731 30.7597H76.8737C76.5289 30.7597 76.2334 30.4641 76.2334 30.1193C76.2334 30.0701 76.2334 29.9962 76.258 29.9716L82.0211 15.0467C82.095 14.8497 82.2181 14.628 82.3659 14.4556C82.5137 14.3325 82.7353 14.2339 82.9324 14.2586H85.543ZM86.8483 24.6272L84.2377 17.9282L81.6517 24.6518H86.8483V24.6272Z" fill="#424A52"/>
<path fill-rule="evenodd" clip-rule="evenodd" d="M100.172 31.006C99.7286 31.006 99.2853 30.9814 98.8666 30.8829C98.5218 30.809 98.177 30.6859 97.8322 30.5381C97.586 30.415 97.3397 30.2426 97.0934 30.0455C96.921 29.9224 96.7486 29.75 96.6008 29.5776V34.6018C96.6008 34.9466 96.3053 35.2421 95.9605 35.2421H94.1872C93.8424 35.2421 93.5469 34.9466 93.5469 34.6018V19.1597C93.5469 18.8149 93.8424 18.5194 94.1872 18.5194H95.9851C96.3299 18.5194 96.6254 18.8149 96.6254 19.1597V19.7016C96.7732 19.5292 96.921 19.3814 97.118 19.2336C97.3397 19.0612 97.5859 18.9134 97.8569 18.7657C98.177 18.6179 98.5465 18.4948 98.8913 18.4209C99.3099 18.3224 99.7533 18.2977 100.197 18.2977C100.935 18.2731 101.65 18.4455 102.339 18.7657C102.955 19.0612 103.521 19.4799 103.965 19.9971C104.433 20.5143 104.777 21.1054 105.024 21.7704C105.27 22.4599 105.418 23.1495 105.467 23.8638C105.492 24.0854 105.492 24.3563 105.492 24.7011C105.492 25.0213 105.492 25.2922 105.467 25.5385C105.418 26.2527 105.295 26.967 105.024 27.6319C104.777 28.2969 104.433 28.888 103.965 29.4052C103.521 29.9224 102.955 30.3411 102.339 30.6366C101.625 30.8829 100.886 31.0307 100.172 31.006ZM102.339 25.3169C102.389 24.8735 102.389 24.4302 102.339 24.0115C102.241 22.9771 101.945 22.2629 101.403 21.8196C100.862 21.3517 100.172 21.13 99.4577 21.13C98.7435 21.1054 98.0539 21.3517 97.5121 21.8196C96.9456 22.3122 96.6501 23.0264 96.6008 23.7653C96.5762 24.0608 96.5516 24.3563 96.5762 24.6519C96.5762 24.9474 96.6008 25.243 96.6008 25.5385C96.6501 26.2774 96.9702 26.967 97.5121 27.4595C98.0539 27.9275 98.7435 28.1984 99.4577 28.1738C100.172 28.1984 100.862 27.9521 101.403 27.5088C101.945 27.0409 102.241 26.302 102.339 25.3169Z" fill="#424A52"/>
<path fill-rule="evenodd" clip-rule="evenodd" d="M113.471 31.0061C113.028 31.0061 112.584 30.9814 112.166 30.8829C111.821 30.809 111.476 30.6859 111.131 30.5381C110.86 30.415 110.614 30.2426 110.392 30.0702C110.22 29.947 110.048 29.7746 109.9 29.6022V34.6265C109.9 34.7989 109.826 34.9466 109.703 35.0698C109.58 35.1929 109.432 35.2668 109.26 35.2668H107.462C107.117 35.2668 106.821 34.9713 106.821 34.6265V19.1844C106.821 18.8396 107.117 18.544 107.462 18.544H109.26C109.604 18.544 109.9 18.8396 109.9 19.1844V19.7262C110.048 19.5538 110.22 19.406 110.392 19.2583C110.614 19.0859 110.885 18.9381 111.131 18.7903C111.451 18.6426 111.796 18.5194 112.166 18.4455C112.584 18.347 113.028 18.3224 113.471 18.3224C114.21 18.2978 114.924 18.4702 115.614 18.7903C116.229 19.0859 116.796 19.5046 117.239 20.0218C117.707 20.539 118.052 21.13 118.298 21.795C118.544 22.4846 118.717 23.1742 118.741 23.8884C118.766 24.1101 118.766 24.381 118.766 24.7258C118.766 25.046 118.766 25.3169 118.741 25.5632C118.717 26.2774 118.569 26.9916 118.298 27.6566C118.052 28.3216 117.707 28.9126 117.239 29.4298C116.771 29.947 116.229 30.3657 115.614 30.6613C114.924 30.9814 114.21 31.1292 113.471 31.1292M115.663 25.3169C115.688 24.8736 115.688 24.4303 115.663 24.0116C115.564 22.9772 115.269 22.2629 114.727 21.8196C114.185 21.3517 113.496 21.13 112.781 21.13C112.067 21.1054 111.378 21.3517 110.836 21.8196C110.269 22.3122 109.974 23.0264 109.924 23.7653C109.9 24.0608 109.875 24.3564 109.9 24.6519C109.9 24.9475 109.924 25.243 109.924 25.5385C109.974 26.2774 110.294 26.967 110.836 27.4596C111.378 27.9275 112.067 28.1984 112.781 28.1738C113.496 28.1984 114.185 27.9521 114.727 27.5088C115.269 27.0409 115.564 26.302 115.663 25.3169Z" fill="#424A52"/>
</svg>
