<?xml version="1.0" encoding="UTF-8"?>
<svg id="logosandtypes_com" data-name="logosandtypes com" xmlns="http://www.w3.org/2000/svg" viewBox="0 0 150 150">
  <defs>
    <style>
      .cls-1 {
        fill: #00b0ff;
      }

      .cls-2 {
        fill: none;
      }
    </style>
  </defs>
  <g id="Layer_2" data-name="Layer 2">
    <path id="Layer_3" data-name="Layer 3" class="cls-2" d="M0,0H150V150H0V0Z"/>
  </g>
  <path class="cls-1" d="M28.56,20.25H125.66c4.91,0,8.9,3.98,8.9,8.9s-3.98,8.9-8.9,8.9H28.56c-4.91,0-8.9-3.98-8.9-8.9s3.98-8.9,8.9-8.9Z"/>
  <path class="cls-1" d="M15.44,51.57H112.51c4.91,0,8.9,3.98,8.9,8.9s-3.98,8.9-8.9,8.9H15.44c-4.91,0-8.9-3.98-8.9-8.9s3.98-8.9,8.9-8.9Z"/>
  <path class="cls-1" d="M37.46,83.11h97.1c4.89,.05,8.84,4,8.9,8.9,0,4.91-3.98,8.9-8.9,8.9H37.46c-4.91,0-8.9-3.98-8.9-8.9s3.98-8.9,8.9-8.9Z"/>
  <path class="cls-1" d="M24.12,114.43H121.22c4.88,.07,8.83,4.01,8.9,8.9,.02,4.9-3.94,8.88-8.83,8.9-.02,0-.04,0-.06,0H24.12c-4.88-.07-8.83-4.01-8.9-8.9,.22-4.82,4.08-8.68,8.9-8.9Z"/>
</svg>