<svg width="121" height="41" viewBox="0 0 121 41" fill="none" xmlns="http://www.w3.org/2000/svg">
<path d="M33.7543 17.0085H45.3971V19.1808H40.8192V31.3921H38.3018V19.1808H33.7441L33.7543 17.0085ZM44.8998 20.9775H47.0517V22.9873H47.0923C47.1634 22.7031 47.2953 22.429 47.4882 22.1651C47.681 21.9012 47.9145 21.6474 48.1886 21.4342C48.4627 21.2109 48.7672 21.0384 49.1021 20.8963C49.4371 20.7643 49.7822 20.6932 50.1274 20.6932C50.3913 20.6932 50.5841 20.7034 50.6857 20.7136C50.7872 20.7237 50.8887 20.744 51.0003 20.7542V22.967C50.8379 22.9366 50.6755 22.9163 50.5029 22.896C50.3304 22.8756 50.168 22.8655 50.0056 22.8655C49.6198 22.8655 49.2544 22.9467 48.9093 23.099C48.5642 23.2512 48.2698 23.4847 48.016 23.7791C47.7623 24.0836 47.5592 24.449 47.407 24.8956C47.2547 25.3423 47.1837 25.8498 47.1837 26.4284V31.3819H44.8896L44.8998 20.9775ZM61.5469 31.3921H59.2934V29.9405H59.2528C58.9686 30.4684 58.5524 30.8846 57.9942 31.1992C57.4359 31.5139 56.8674 31.6763 56.2888 31.6763C54.9185 31.6763 53.9237 31.3413 53.3147 30.6612C52.7056 29.9811 52.4011 28.9559 52.4011 27.5856V20.9775H54.6952V27.3623C54.6952 28.2758 54.8677 28.9255 55.223 29.301C55.5681 29.6766 56.0655 29.8695 56.6949 29.8695C57.1821 29.8695 57.578 29.7984 57.9028 29.6462C58.2276 29.4939 58.4915 29.301 58.6844 29.0473C58.8874 28.8037 59.0295 28.4991 59.1209 28.154C59.2122 27.8089 59.2528 27.4333 59.2528 27.0273V20.9876H61.5469V31.3921ZM65.4549 28.0525C65.526 28.7225 65.7797 29.1894 66.2162 29.4635C66.6628 29.7274 67.1907 29.8695 67.8099 29.8695C68.023 29.8695 68.2667 29.8492 68.5407 29.8187C68.8148 29.7883 69.0787 29.7172 69.3122 29.6259C69.5558 29.5345 69.7487 29.3924 69.9111 29.2097C70.0633 29.027 70.1344 28.7935 70.1242 28.4991C70.1141 28.2048 70.0024 27.9611 69.7994 27.7784C69.5964 27.5856 69.3426 27.4435 69.028 27.3217C68.7133 27.21 68.358 27.1085 67.952 27.0273C67.546 26.9461 67.1399 26.8547 66.7238 26.7634C66.2974 26.672 65.8813 26.5502 65.4854 26.4182C65.0895 26.2863 64.7342 26.1036 64.4195 25.8701C64.1049 25.6468 63.8511 25.3524 63.6684 24.9971C63.4755 24.6419 63.3842 24.2054 63.3842 23.6776C63.3842 23.1091 63.5263 22.6422 63.8004 22.2565C64.0744 21.8707 64.4297 21.5662 64.8459 21.3327C65.2722 21.0993 65.7391 20.9369 66.2568 20.8354C66.7745 20.744 67.2719 20.6932 67.7388 20.6932C68.2768 20.6932 68.7945 20.7542 69.2817 20.8658C69.769 20.9775 70.2156 21.1602 70.6115 21.4241C71.0074 21.6779 71.3322 22.0128 71.5961 22.4189C71.86 22.8249 72.0224 23.3223 72.0935 23.9009H69.6979C69.5863 23.3527 69.3426 22.9772 68.9468 22.7944C68.5509 22.6016 68.0941 22.5102 67.5866 22.5102C67.4242 22.5102 67.2313 22.5204 67.008 22.5508C66.7847 22.5813 66.5816 22.632 66.3786 22.7031C66.1858 22.7741 66.0234 22.8858 65.8812 23.0279C65.7493 23.17 65.6782 23.3527 65.6782 23.5862C65.6782 23.8704 65.7797 24.0937 65.9726 24.2663C66.1655 24.4389 66.4192 24.581 66.7339 24.7028C67.0486 24.8144 67.4039 24.9159 67.8099 24.9971C68.2159 25.0783 68.6321 25.1697 69.0584 25.2611C69.4746 25.3524 69.8806 25.4742 70.2867 25.6062C70.6927 25.7381 71.048 25.9209 71.3626 26.1543C71.6773 26.3878 71.9311 26.672 72.1239 27.0171C72.3168 27.3623 72.4183 27.7987 72.4183 28.3063C72.4183 28.9255 72.2762 29.4432 71.992 29.8796C71.7077 30.306 71.3423 30.6612 70.8957 30.9252C70.4491 31.1891 69.9415 31.3921 69.3934 31.5139C68.8453 31.6357 68.2971 31.6966 67.7591 31.6966C67.0993 31.6966 66.4903 31.6256 65.932 31.4733C65.3737 31.321 64.8865 31.0977 64.4805 30.8033C64.0744 30.4988 63.7496 30.1232 63.5161 29.6766C63.2827 29.23 63.1609 28.692 63.1406 28.0728H65.4549V28.0525ZM73.0273 20.9775H74.7631V17.8511H77.0572V20.9775H79.1279V22.6929H77.0572V28.2555C77.0572 28.4991 77.0673 28.7022 77.0876 28.8849C77.1079 29.0574 77.1587 29.2097 77.2297 29.3315C77.3008 29.4533 77.4124 29.5447 77.5647 29.6056C77.717 29.6665 77.9098 29.6969 78.1737 29.6969C78.3362 29.6969 78.4986 29.6969 78.661 29.6868C78.8234 29.6766 78.9858 29.6563 79.1482 29.6157V31.3921C78.8944 31.4225 78.6407 31.4428 78.4072 31.4733C78.1636 31.5037 77.92 31.5139 77.6662 31.5139C77.0572 31.5139 76.5699 31.453 76.2045 31.3413C75.8391 31.2297 75.5447 31.0571 75.3417 30.8338C75.1285 30.6105 74.9966 30.3364 74.9154 30.0014C74.8443 29.6665 74.7936 29.2807 74.7834 28.8544V22.7132H73.0476V20.9775H73.0273ZM80.752 20.9775H82.9243V22.3884H82.9649C83.2897 21.7794 83.7363 21.353 84.3149 21.0891C84.8935 20.8252 85.5127 20.6932 86.1928 20.6932C87.015 20.6932 87.7256 20.8354 88.3346 21.1297C88.9436 21.4139 89.4512 21.8098 89.8572 22.3174C90.2632 22.8249 90.5576 23.4136 90.7606 24.0836C90.9636 24.7535 91.0651 25.4742 91.0651 26.2355C91.0651 26.9359 90.9738 27.616 90.7911 28.2657C90.6083 28.9255 90.3343 29.5041 89.9689 30.0116C89.6034 30.5191 89.1365 30.915 88.5681 31.2195C87.9996 31.524 87.3398 31.6763 86.5684 31.6763C86.2334 31.6763 85.8984 31.6459 85.5635 31.5849C85.2285 31.524 84.9037 31.4225 84.5991 31.2906C84.2946 31.1586 84.0002 30.9861 83.7465 30.7729C83.4826 30.5597 83.2694 30.3161 83.0867 30.042H83.0461V35.2392H80.752V20.9775ZM88.7711 26.1949C88.7711 25.728 88.7102 25.2712 88.5884 24.8246C88.4666 24.378 88.2838 23.9922 88.0402 23.6471C87.7966 23.302 87.4921 23.0279 87.1368 22.8249C86.7714 22.6219 86.3552 22.5102 85.8883 22.5102C84.924 22.5102 84.1931 22.8452 83.7059 23.5151C83.2186 24.1851 82.975 25.0784 82.975 26.1949C82.975 26.7228 83.0359 27.21 83.1679 27.6566C83.2998 28.1033 83.4826 28.489 83.7465 28.8138C84.0002 29.1386 84.3048 29.3924 84.66 29.5751C85.0153 29.768 85.4315 29.8593 85.8984 29.8593C86.4263 29.8593 86.8627 29.7477 87.2282 29.5345C87.5936 29.3213 87.888 29.0371 88.1214 28.7022C88.3549 28.357 88.5275 27.9713 88.629 27.5348C88.7203 27.0983 88.7711 26.6517 88.7711 26.1949ZM92.8212 17.0085H95.1153V19.1808H92.8212V17.0085ZM92.8212 20.9775H95.1153V31.3921H92.8212V20.9775ZM97.1657 17.0085H99.4598V31.3921H97.1657V17.0085ZM106.494 31.6763C105.662 31.6763 104.921 31.5342 104.271 31.2601C103.622 30.9861 103.073 30.6003 102.617 30.1233C102.17 29.636 101.825 29.0574 101.591 28.3875C101.358 27.7175 101.236 26.9765 101.236 26.1746C101.236 25.3829 101.358 24.652 101.591 23.9821C101.825 23.3121 102.17 22.7335 102.617 22.2463C103.063 21.7591 103.622 21.3835 104.271 21.1094C104.921 20.8354 105.662 20.6932 106.494 20.6932C107.327 20.6932 108.068 20.8354 108.717 21.1094C109.367 21.3835 109.915 21.7692 110.372 22.2463C110.818 22.7335 111.164 23.3121 111.397 23.9821C111.63 24.652 111.752 25.3829 111.752 26.1746C111.752 26.9765 111.63 27.7175 111.397 28.3875C111.164 29.0574 110.818 29.636 110.372 30.1233C109.925 30.6105 109.367 30.9861 108.717 31.2601C108.068 31.5342 107.327 31.6763 106.494 31.6763ZM106.494 29.8593C107.002 29.8593 107.448 29.7477 107.824 29.5345C108.2 29.3213 108.504 29.0371 108.748 28.692C108.991 28.3469 109.164 27.951 109.286 27.5145C109.397 27.078 109.458 26.6314 109.458 26.1746C109.458 25.728 109.397 25.2915 109.286 24.8449C109.174 24.3983 108.991 24.0125 108.748 23.6674C108.504 23.3223 108.2 23.0482 107.824 22.835C107.448 22.6219 107.002 22.5102 106.494 22.5102C105.987 22.5102 105.54 22.6219 105.164 22.835C104.789 23.0482 104.484 23.3324 104.241 23.6674C103.997 24.0125 103.825 24.3983 103.703 24.8449C103.591 25.2915 103.53 25.728 103.53 26.1746C103.53 26.6314 103.591 27.078 103.703 27.5145C103.814 27.951 103.997 28.3469 104.241 28.692C104.484 29.0371 104.789 29.3213 105.164 29.5345C105.54 29.7578 105.987 29.8593 106.494 29.8593ZM112.422 20.9775H114.158V17.8511H116.452V20.9775H118.523V22.6929H116.452V28.2555C116.452 28.4991 116.462 28.7022 116.482 28.8849C116.503 29.0574 116.554 29.2097 116.625 29.3315C116.696 29.4533 116.807 29.5447 116.96 29.6056C117.112 29.6665 117.305 29.6969 117.569 29.6969C117.731 29.6969 117.893 29.6969 118.056 29.6868C118.218 29.6766 118.381 29.6563 118.543 29.6157V31.3921C118.289 31.4225 118.036 31.4428 117.802 31.4733C117.558 31.5037 117.315 31.5139 117.061 31.5139C116.452 31.5139 115.965 31.453 115.599 31.3413C115.234 31.2297 114.94 31.0571 114.737 30.8338C114.523 30.6105 114.391 30.3364 114.31 30.0014C114.239 29.6665 114.188 29.2807 114.178 28.8544V22.7132H112.442V20.9775H112.422Z" fill="#1D1D1B"/>
<path d="M31.074 17.0086H20.5579L17.3097 7L14.0513 17.0086L3.53516 16.9984L12.0516 23.1904L8.79322 33.1888L17.3097 27.007L25.8159 33.1888L22.5677 23.1904L31.074 17.0086Z" fill="#00B67A"/>
<path d="M23.2852 25.3678L22.553 23.1L17.2852 26.9237L23.2852 25.3678Z" fill="#005128"/>
</svg>
