<svg width="247" height="247" viewBox="0 0 247 247" fill="none" xmlns="http://www.w3.org/2000/svg">
<path d="M96.7207 13.3125C110.602 -4.26433 137.257 -4.26433 151.138 13.3125C158.601 22.7625 170.433 27.6634 182.392 26.2584C204.636 23.6451 223.484 42.4931 220.871 64.7372C219.466 76.6965 224.367 88.5283 233.817 95.9912C251.394 109.872 251.394 136.527 233.817 150.409C224.367 157.872 219.466 169.703 220.871 181.663C223.484 203.907 204.636 222.755 182.392 220.141C170.433 218.736 158.601 223.637 151.138 233.087C137.257 250.664 110.602 250.664 96.7207 233.087C89.2577 223.637 77.426 218.736 65.4667 220.141C43.2226 222.755 24.3746 203.907 26.9879 181.663C28.3929 169.703 23.492 157.872 14.042 150.409C-3.53484 136.527 -3.53484 109.872 14.042 95.9912C23.492 88.5282 28.3929 76.6965 26.9879 64.7372C24.3746 42.4931 43.2226 23.6451 65.4667 26.2584C77.426 27.6634 89.2577 22.7625 96.7207 13.3125Z" fill="#16235C"/>
<path d="M117.477 207.952C117.332 207.736 117.265 207.493 117.277 207.223C117.292 206.802 117.47 206.478 117.811 206.248C118.023 206.099 118.265 206.028 118.535 206.037C118.955 206.051 119.28 206.229 119.51 206.571L120.957 208.709L122.539 206.671C122.792 206.344 123.124 206.188 123.536 206.204C123.811 206.215 124.051 206.3 124.254 206.46C124.581 206.712 124.737 207.047 124.722 207.468C124.711 207.738 124.624 207.977 124.46 208.186L122.884 210.202L125.301 211.076C125.546 211.161 125.743 211.316 125.891 211.538C126.04 211.761 126.108 212.003 126.097 212.268C126.094 212.415 126.072 212.542 126.03 212.646C125.945 212.894 125.791 213.093 125.568 213.242C125.345 213.39 125.103 213.459 124.839 213.448C124.691 213.444 124.563 213.42 124.454 213.376L122.049 212.502L121.965 215.063C121.954 215.397 121.825 215.681 121.575 215.915C121.328 216.149 121.035 216.26 120.701 216.249C120.367 216.238 120.086 216.107 119.855 215.859C119.621 215.61 119.51 215.319 119.521 214.985L119.604 212.424L117.143 213.131C117.036 213.167 116.908 213.184 116.759 213.181C116.496 213.173 116.258 213.088 116.046 212.925C115.834 212.761 115.694 212.553 115.623 212.301C115.589 212.193 115.575 212.064 115.578 211.917C115.589 211.652 115.677 211.413 115.84 211.199C116 210.987 116.205 210.848 116.452 210.781L118.925 210.068L117.477 207.952Z" fill="white"/>
<path d="M95.0455 198.225L95.3852 198.353C95.7165 198.48 96.0297 198.63 96.3262 198.804C96.6241 198.976 96.9262 199.208 97.2339 199.501C97.5388 199.79 97.8019 200.113 98.0246 200.469C98.2474 200.826 98.4311 201.26 98.5759 201.772C98.7179 202.288 98.7931 202.847 98.8042 203.449C98.8126 204.05 98.736 204.749 98.5759 205.548C98.413 206.346 98.1624 207.193 97.8242 208.093L97.568 208.772C95.7081 213.702 92.9991 215.495 89.438 214.151L89.0928 214.023C87.8872 213.566 86.974 212.895 86.3531 212.013C85.7294 211.129 85.451 210.032 85.5178 208.722L87.9624 208.844C87.9178 209.582 88.0543 210.181 88.3689 210.637C88.6849 211.094 89.2139 211.462 89.9559 211.74L90.3012 211.868C91.3592 212.269 92.278 212.177 93.0575 211.595C93.8344 211.012 94.5763 209.783 95.2849 207.909L95.5411 207.23C96.904 203.606 96.5643 201.411 94.522 200.642L94.1824 200.514C93.574 200.284 93.006 200.238 92.4784 200.375C91.948 200.508 91.426 200.882 90.9137 201.494L89.0371 199.94C89.8431 198.983 90.7522 198.348 91.7657 198.036C92.7763 197.721 93.8691 197.784 95.0455 198.225Z" fill="white"/>
<path d="M71.7899 200.049L82.615 190.622C83.3584 189.969 84.1519 189.58 84.9983 189.458C85.8419 189.335 86.6688 189.511 87.4818 189.981L87.7547 190.143C88.1932 190.396 88.615 190.805 89.0187 191.373C89.4196 191.939 89.7259 192.543 89.9375 193.189L90.0322 193.467L87.7157 194.263L87.5709 193.818C87.4484 193.484 87.2911 193.166 87.0976 192.866C86.9055 192.565 86.7175 192.363 86.5352 192.259L86.2623 192.097C85.6136 191.723 84.9454 191.834 84.2577 192.431L82.5426 193.918L82.8266 206.431L80.3486 204.999L80.1537 196.006L74.0284 201.347L71.7899 200.049Z" fill="white"/>
<path d="M64.9432 195.017L64.7372 194.85C64.0397 194.278 63.5052 193.659 63.1335 192.99C62.7632 192.322 62.5627 191.657 62.5321 190.997C62.4987 190.34 62.5961 189.697 62.8216 189.065C63.0485 188.43 63.398 187.826 63.8685 187.249L64.9042 185.985C65.94 184.727 67.1692 184.011 68.5906 183.836C70.0091 183.662 71.372 184.113 72.6778 185.189L72.8839 185.356C73.7498 186.066 74.347 186.953 74.6769 188.018L75.0778 187.533L76.9655 189.081L66.6138 201.677L64.726 200.129L67.7887 196.404C66.8087 196.233 65.8606 195.77 64.9432 195.017ZM71.7368 191.598C72.2908 190.926 72.5261 190.169 72.4439 189.326C72.3632 188.48 71.9915 187.787 71.3303 187.244L71.1242 187.077C70.7567 186.776 70.3948 186.559 70.0384 186.425C69.6792 186.289 69.3479 186.227 69.0472 186.241C68.7465 186.257 68.4541 186.328 68.1674 186.453C67.882 186.58 67.6314 186.734 67.4156 186.915C67.2012 187.093 66.9952 187.302 66.7975 187.539L65.7618 188.803C65.5168 189.104 65.3274 189.408 65.1938 189.716C65.0602 190.021 64.9878 190.351 64.9766 190.707C64.9655 191.066 65.0699 191.44 65.2885 191.827C65.5084 192.212 65.8425 192.591 66.2908 192.963L66.4968 193.13C67.3363 193.82 68.1103 194.115 68.8189 194.015C69.5247 193.915 70.1525 193.531 70.701 192.862L71.7368 191.598Z" fill="white"/>
<path d="M61.2765 182.208L61.928 181.635C62.1104 181.476 62.2565 181.271 62.3679 181.022C62.4793 180.77 62.5489 180.481 62.5739 180.154C62.6004 179.828 62.5322 179.46 62.3679 179.051C62.2009 178.643 61.9447 178.241 61.5995 177.843L61.4213 177.642C60.831 176.971 60.2909 176.538 59.8008 176.345C59.3108 176.148 58.8974 176.109 58.5591 176.228L57.7182 173.934C58.5911 173.615 59.5099 173.63 60.4746 173.978C61.4366 174.327 62.3651 175.012 63.2589 176.033L63.4371 176.233C63.9911 176.865 64.399 177.535 64.6621 178.244C64.9266 178.949 65.0436 179.619 65.0129 180.254C64.9837 180.889 64.8431 181.487 64.5897 182.047C64.3378 182.606 63.9883 183.083 63.5429 183.472L61.1707 185.549C60.1503 186.443 58.9879 186.811 57.6848 186.652C56.379 186.492 55.1609 185.767 54.0319 184.475L53.8537 184.274C52.7261 182.982 52.1693 181.683 52.1832 180.376C52.1985 179.066 52.7164 177.964 53.7368 177.069L55.4574 175.565L61.2765 182.208ZM59.4333 183.823L55.2236 179.018C54.9493 179.289 54.767 179.588 54.6779 179.914C54.5888 180.237 54.5915 180.563 54.6834 180.889C54.7767 181.216 54.9062 181.522 55.0732 181.807C55.2375 182.097 55.4435 182.382 55.6913 182.665L55.8695 182.865C56.1076 183.14 56.3581 183.378 56.6213 183.578C56.8858 183.781 57.1753 183.953 57.4899 184.09C57.8018 184.227 58.1289 184.277 58.47 184.241C58.8083 184.203 59.1298 184.064 59.4333 183.823Z" fill="white"/>
<path d="M46.3199 169.824L46.4591 170.047C46.7306 170.485 47.1218 170.853 47.6341 171.149C48.1464 171.447 48.6796 171.648 49.2322 171.751C49.7821 171.851 50.3376 171.869 50.8972 171.806C51.4582 171.744 51.926 171.595 52.3004 171.361L56.978 168.454L58.2643 170.531L48.1352 176.824L46.8489 174.747L48.0851 173.978C46.4118 173.495 45.177 172.615 44.3821 171.339L44.2429 171.116C43.2002 169.434 42.9287 167.931 43.4299 166.605L45.7185 167.457C45.5 168.037 45.7004 168.826 46.3199 169.824Z" fill="white"/>
<path d="M43.1125 141.808C42.9092 140.928 42.6489 140.235 42.3329 139.725C42.0183 139.217 41.7148 138.996 41.4252 139.062L40.9352 139.179C40.8391 139.202 40.7278 139.295 40.6011 139.458C40.4716 139.618 40.4048 139.797 40.4006 139.998L40.2558 145.344C40.2447 145.8 40.1584 146.223 39.9941 146.613C39.8312 147 39.6252 147.318 39.376 147.565C39.1282 147.815 38.8693 148.015 38.602 148.167C38.3347 148.32 38.0702 148.427 37.8057 148.49L37.6832 148.518C37.402 148.584 37.1208 148.61 36.8424 148.596C36.5612 148.584 36.2465 148.504 35.9013 148.356C35.5533 148.204 35.2303 147.98 34.9324 147.682C34.6359 147.386 34.3477 146.952 34.0693 146.379C33.7881 145.809 33.5556 145.131 33.3732 144.347L33.312 144.085C33.0864 143.116 33.0669 142.129 33.2563 141.123C33.4428 140.113 33.8493 139.293 34.4758 138.661L36.2187 140.388C35.9667 140.648 35.7774 141.07 35.6507 141.652C35.5254 142.235 35.5393 142.863 35.6953 143.534L35.7565 143.796C35.8428 144.163 35.9445 144.497 36.0628 144.798C36.1783 145.099 36.2897 145.331 36.3969 145.494C36.5013 145.654 36.6071 145.788 36.7143 145.895C36.8187 146.003 36.9036 146.073 36.9704 146.107C37.0345 146.14 37.086 146.151 37.1264 146.14L37.2489 146.112C37.3421 146.09 37.4577 146.01 37.5941 145.873C37.7278 145.732 37.7988 145.547 37.8057 145.316L37.9449 139.942C37.9561 139.218 38.1983 138.554 38.6688 137.949C39.1366 137.34 39.7073 136.958 40.3783 136.802L40.8684 136.685C41.4586 136.548 42.0099 136.572 42.5222 136.757C43.0345 136.944 43.48 137.258 43.8586 137.704C44.2373 138.146 44.5631 138.664 44.8331 139.257C45.1046 139.852 45.3259 140.516 45.4958 141.251L45.6628 141.98C45.7631 142.403 45.8132 142.853 45.8132 143.328C45.8104 143.8 45.745 144.277 45.6183 144.759C45.4888 145.238 45.3092 145.683 45.0781 146.095C44.8484 146.507 44.5324 146.869 44.1315 147.181C43.7278 147.493 43.2726 147.709 42.7672 147.827L42.2159 145.449C42.3204 145.424 42.4429 145.36 42.5835 145.26C42.7255 145.157 42.8786 145.003 43.0456 144.798C43.2127 144.595 43.3241 144.294 43.3798 143.896C43.4327 143.495 43.3992 143.042 43.2795 142.537L43.1125 141.808Z" fill="white"/>
<path d="M39.6145 134.318C39.3445 134.333 39.0577 134.306 38.757 134.235C38.4563 134.161 38.1278 134.005 37.7714 133.767C37.4122 133.53 37.0892 133.224 36.8025 132.848C36.5129 132.473 36.2568 131.957 36.034 131.3C35.8113 130.64 35.6721 129.888 35.6164 129.045L35.3992 125.731L35.2377 125.743C34.9969 125.758 34.7839 125.807 34.5974 125.887C34.4122 125.97 34.2243 126.116 34.0349 126.327C33.8428 126.539 33.705 126.865 33.6229 127.302C33.538 127.736 33.5157 128.273 33.5561 128.911L33.5728 129.178C33.6702 130.69 34.0447 131.617 34.6976 131.963L33.5839 134.14C32.111 133.38 31.2939 131.779 31.1338 129.34L31.1171 129.073C31.0614 128.212 31.1087 127.44 31.2563 126.756C31.4052 126.074 31.6154 125.528 31.8855 125.119C32.1528 124.707 32.4799 124.366 32.8656 124.094C33.2484 123.82 33.6173 123.627 33.9737 123.515C34.3301 123.401 34.6976 123.33 35.0762 123.304L42.9445 122.791L43.106 125.23L42.5491 125.269C43.1812 126.254 43.5292 127.25 43.596 128.26L43.6127 128.527C43.6684 129.4 43.6016 130.207 43.4122 130.949C43.2201 131.693 42.9501 132.294 42.6048 132.753C42.2568 133.214 41.8753 133.576 41.4633 133.839C41.0512 134.104 40.6433 134.248 40.2382 134.274L39.6145 134.318ZM38.0609 128.889C38.0944 129.383 38.1667 129.824 38.2781 130.214C38.3867 130.604 38.5009 130.898 38.6234 131.094C38.7431 131.287 38.8725 131.449 39.0132 131.578C39.1551 131.709 39.2623 131.79 39.3361 131.823C39.4113 131.854 39.4628 131.871 39.492 131.873L40.0823 131.835C40.2758 131.823 40.4443 131.77 40.589 131.673C40.731 131.573 40.8549 131.41 40.9621 131.183C41.0665 130.957 41.1375 130.635 41.1737 130.214C41.2113 129.795 41.2113 129.284 41.1737 128.683L41.157 128.415C41.132 128.034 41.0596 127.675 40.9398 127.341C40.8215 127.007 40.6823 126.731 40.5222 126.511C40.3635 126.288 40.1992 126.098 40.0322 125.938C39.8623 125.775 39.7134 125.656 39.5867 125.581C39.4614 125.507 39.3695 125.473 39.3139 125.475L37.8438 125.576L38.0609 128.889Z" fill="white"/>
<path d="M26.8711 118.033L27.4279 112.398L41.221 113.762L41.5329 110.599L43.9663 110.839L43.0976 119.637L40.6642 119.397L40.9816 116.196L29.6219 115.071L29.3045 118.273L26.8711 118.033Z" fill="white"/>
<path d="M39.9725 103.992L40.8133 104.214C41.0472 104.279 41.3006 104.285 41.5706 104.237C41.8421 104.189 42.1205 104.085 42.4059 103.925C42.6885 103.766 42.9544 103.505 43.2022 103.14C43.4514 102.776 43.6449 102.341 43.7813 101.831L43.8537 101.575C44.0834 100.711 44.1446 100.02 44.0375 99.5036C43.9261 98.9885 43.7284 98.6238 43.4416 98.4122L44.8783 96.4353C45.6273 96.981 46.1256 97.7523 46.3706 98.7463C46.6157 99.7374 46.5628 100.89 46.2147 102.204L46.1423 102.46C45.9266 103.271 45.598 103.981 45.1567 104.593C44.714 105.206 44.2212 105.678 43.6755 106.008C43.1298 106.339 42.5549 106.553 41.9493 106.653C41.3409 106.754 40.7507 106.729 40.1785 106.576L37.1326 105.757C35.8226 105.409 34.8745 104.647 34.2871 103.474C33.6968 102.298 33.623 100.882 34.0643 99.2251L34.1367 98.969C34.5794 97.3138 35.3493 96.1277 36.4476 95.4107C37.5432 94.6952 38.746 94.5114 40.056 94.8595L42.2611 95.4553L39.9725 103.992ZM37.6059 103.357L39.2653 97.1815C38.8866 97.1036 38.5386 97.1189 38.2184 97.2261C37.8996 97.3346 37.6309 97.5184 37.411 97.7773C37.1882 98.0335 37.0045 98.3105 36.8597 98.607C36.7149 98.905 36.5952 99.2349 36.4977 99.5982L36.4254 99.8544C36.3335 100.208 36.275 100.55 36.2527 100.885C36.2277 101.216 36.2458 101.55 36.3084 101.887C36.3683 102.225 36.5089 102.524 36.7316 102.783C36.9516 103.044 37.2425 103.234 37.6059 103.357Z" fill="white"/>
<path d="M55.1419 73.0505C55.398 73.0436 55.6389 73.1146 55.8658 73.2621C56.2138 73.496 56.3962 73.819 56.4115 74.2311C56.4226 74.4914 56.353 74.735 56.2055 74.9605C55.9716 75.3099 55.65 75.4923 55.2421 75.5062L52.6639 75.6009L53.5604 78.0232C53.6969 78.4102 53.6509 78.7749 53.4212 79.1202C53.2681 79.3513 53.0718 79.5072 52.831 79.5879C52.4453 79.7327 52.0778 79.6882 51.7284 79.4543C51.5029 79.3067 51.3442 79.1076 51.2551 78.8584L50.3697 76.4473L48.3539 78.051C48.1535 78.2111 47.9196 78.296 47.6523 78.3072C47.385 78.3155 47.1428 78.2445 46.9228 78.0956C46.8003 78.0148 46.7043 77.9271 46.6333 77.8339C46.4704 77.6334 46.3855 77.3995 46.3771 77.1322C46.3701 76.8622 46.4384 76.6171 46.5831 76.3972C46.6653 76.2747 46.7544 76.18 46.8504 76.1132L48.8606 74.5262L46.7279 73.1062C46.4495 72.9211 46.2769 72.6607 46.2101 72.3266C46.1432 71.9925 46.2031 71.6863 46.3882 71.4078C46.5748 71.1294 46.8337 70.9596 47.1678 70.8955C47.5019 70.8287 47.8082 70.8886 48.0866 71.0737L50.2194 72.4937L50.9154 70.0324C50.9419 69.9211 50.9962 69.8027 51.0769 69.676C51.2259 69.4575 51.4249 69.3016 51.6727 69.2083C51.9219 69.1164 52.1711 69.1067 52.4189 69.1805C52.5303 69.2069 52.6472 69.2612 52.7697 69.3419C52.9883 69.4909 53.1456 69.69 53.243 69.9378C53.3391 70.187 53.3488 70.4375 53.2709 70.6895L52.5748 73.1563L55.1419 73.0505Z" fill="white"/>
<path d="M75.2369 59.1252L74.9529 59.3424C74.6661 59.5624 74.371 59.7531 74.0675 59.916C73.7668 60.076 73.4104 60.2097 72.9984 60.3169C72.5891 60.4213 72.1756 60.4728 71.7566 60.4728C71.3362 60.47 70.8712 60.3935 70.3589 60.2445C69.8494 60.0969 69.3371 59.8686 68.822 59.5596C68.3069 59.2477 67.7515 58.8134 67.1571 58.2566C66.564 57.6997 65.9752 57.0398 65.3919 56.2742L64.9519 55.7006C61.7417 51.5215 61.6443 48.2751 64.6624 45.9614L64.9575 45.7331C65.9821 44.9507 67.0346 44.5289 68.1148 44.469C69.1909 44.4064 70.2698 44.7474 71.3501 45.4936L69.958 47.5094C69.3483 47.0792 68.7691 46.8788 68.2151 46.908C67.6624 46.9345 67.0721 47.1892 66.4443 47.6709L66.1492 47.8992C65.2554 48.5869 64.8503 49.4138 64.9352 50.3827C65.0174 51.3489 65.6689 52.6254 66.8898 54.2138L67.3297 54.7874C69.6824 57.8612 71.726 58.734 73.4606 57.4046L73.7446 57.1874C74.2596 56.7907 74.5993 56.3326 74.7636 55.812C74.9306 55.2927 74.8889 54.6524 74.6411 53.8909L76.9464 53.1113C77.339 54.3029 77.4003 55.4138 77.1302 56.4412C76.8629 57.4658 76.2309 58.361 75.2369 59.1252Z" fill="white"/>
<path d="M85.9564 38.4102L88.2617 52.5764C88.4204 53.5564 88.3286 54.439 87.9833 55.2214C87.6409 56.001 87.0562 56.6107 86.2293 57.0534L85.9508 57.2038C85.5054 57.4404 84.9346 57.5797 84.2413 57.6214C83.5466 57.666 82.8687 57.6061 82.2088 57.4432L81.9304 57.3764L82.4761 54.9987L82.9272 55.0989C83.2752 55.1741 83.6288 55.2075 83.9852 55.1991C84.3443 55.1922 84.6158 55.1407 84.7982 55.0432L85.0766 54.8929C85.7364 54.5407 85.9968 53.9156 85.8562 53.0163L85.4886 50.7778L74.7081 44.4186L77.2362 43.071L84.9819 47.6483L83.6733 39.6297L85.9564 38.4102Z" fill="white"/>
<path d="M93.8445 35.2467L94.0951 35.1632C94.9526 34.8736 95.7614 34.7483 96.5229 34.7845C97.283 34.8221 97.9512 35.0003 98.5276 35.3191C99.1067 35.6393 99.6051 36.0625 100.025 36.5887C100.445 37.1163 100.773 37.7344 101.011 38.443L101.535 39.9855C102.058 41.5307 102.019 42.9507 101.418 44.2453C100.819 45.5414 99.7192 46.4616 98.1155 47.0073L97.8649 47.0908C96.8069 47.4514 95.7378 47.4918 94.6575 47.2133L94.8579 47.8092L92.547 48.5943L87.3071 33.1529L89.618 32.3678L91.166 36.9339C91.8259 36.1919 92.7197 35.6295 93.8445 35.2467ZM93.1651 42.8254C93.4463 43.6495 93.967 44.2509 94.7243 44.6296C95.4844 45.0054 96.2696 45.0556 97.0798 44.7799L97.3303 44.6964C97.7828 44.5446 98.16 44.3511 98.4607 44.1173C98.7642 43.8806 98.9898 43.63 99.1345 43.3655C99.2821 43.1024 99.3768 42.817 99.4185 42.508C99.4631 42.2003 99.4645 41.9066 99.4241 41.6282C99.3865 41.3497 99.3183 41.0644 99.2181 40.7706L98.6946 39.2281C98.5679 38.8578 98.4106 38.5349 98.2213 38.2592C98.032 37.985 97.7884 37.7497 97.4918 37.552C97.1939 37.3516 96.8236 37.243 96.3781 37.2235C95.9327 37.2054 95.4329 37.2903 94.8802 37.4796L94.6296 37.5632C93.6009 37.9126 92.9424 38.4138 92.6528 39.0667C92.3661 39.721 92.3633 40.4588 92.6417 41.2829L93.1651 42.8254Z" fill="white"/>
<path d="M106.664 38.8952L106.804 39.7528C106.844 39.9908 106.943 40.2233 107.099 40.4488C107.255 40.6757 107.462 40.886 107.722 41.0781C107.986 41.2716 108.335 41.4066 108.769 41.4846C109.204 41.5597 109.68 41.5542 110.2 41.4679L110.462 41.4233C111.345 41.2785 111.999 41.0502 112.422 40.7384C112.848 40.4238 113.097 40.0911 113.168 39.7416L115.568 40.2428C115.379 41.1491 114.881 41.9189 114.076 42.5537C113.274 43.1885 112.201 43.6159 110.857 43.8345L110.596 43.879C109.767 44.0168 108.984 44.0113 108.246 43.8623C107.507 43.7147 106.876 43.46 106.353 43.0994C105.829 42.7361 105.395 42.3003 105.05 41.7908C104.704 41.2785 104.483 40.7328 104.387 40.1537L103.875 37.0409C103.652 35.7017 103.954 34.5212 104.782 33.4994C105.609 32.4748 106.87 31.8219 108.563 31.5393L108.825 31.4947C110.518 31.2163 111.915 31.4307 113.018 32.1351C114.121 32.8409 114.783 33.8641 115.006 35.2033L115.379 37.4586L106.664 38.8952ZM106.263 36.4785L112.567 35.4372C112.481 35.0586 112.325 34.7467 112.099 34.5017C111.872 34.2567 111.594 34.0882 111.264 33.995C110.937 33.8989 110.607 33.8446 110.273 33.8335C109.941 33.8224 109.591 33.8474 109.22 33.9059L108.959 33.9504C108.598 34.0103 108.263 34.0994 107.951 34.2177C107.642 34.3333 107.347 34.4892 107.065 34.6855C106.783 34.879 106.567 35.1296 106.419 35.4372C106.27 35.7463 106.219 36.0929 106.263 36.4785Z" fill="white"/>
<path d="M125.004 32.7268H124.737C124.225 32.7268 123.707 32.866 123.183 33.1444C122.66 33.4201 122.209 33.7653 121.83 34.1802C121.454 34.5964 121.147 35.0586 120.906 35.5667C120.664 36.0762 120.544 36.5509 120.544 36.9922V42.4995H118.099V30.5718H120.544V32.0307C121.839 30.8655 123.236 30.2822 124.737 30.2822H125.004C126.982 30.2822 128.402 30.8446 129.264 31.9695L127.332 33.4618C126.953 32.9718 126.176 32.7268 125.004 32.7268Z" fill="white"/>
<path d="M150.562 44.7852C151.419 45.0748 152.146 45.2168 152.744 45.214C153.342 45.214 153.687 45.072 153.78 44.7908L153.942 44.3175C153.975 44.2256 153.956 44.0822 153.886 43.8887C153.819 43.6966 153.702 43.5463 153.535 43.4377L149.069 40.492C148.686 40.24 148.373 39.9435 148.128 39.601C147.886 39.2599 147.724 38.9189 147.644 38.5764C147.562 38.2312 147.527 37.9054 147.538 37.5964C147.552 37.2887 147.602 37.0061 147.688 36.7499L147.727 36.6274C147.819 36.3574 147.946 36.104 148.106 35.8701C148.265 35.6363 148.501 35.4135 148.813 35.2019C149.125 34.9875 149.484 34.833 149.893 34.7397C150.301 34.6437 150.82 34.627 151.452 34.6896C152.087 34.7495 152.785 34.9096 153.546 35.1685L153.797 35.252C154.739 35.5722 155.59 36.0789 156.347 36.7722C157.104 37.4669 157.586 38.2465 157.795 39.111L155.406 39.6734C155.324 39.3281 155.068 38.9481 154.638 38.5319C154.21 38.1128 153.669 37.7913 153.012 37.5685L152.761 37.485C152.401 37.3625 152.062 37.2734 151.748 37.2177C151.432 37.1592 151.175 37.1314 150.979 37.1342C150.786 37.1383 150.614 37.1564 150.467 37.1899C150.322 37.2233 150.218 37.2609 150.155 37.3012C150.095 37.3388 150.058 37.3764 150.044 37.4126L150.005 37.5351C149.974 37.6242 149.982 37.7634 150.027 37.9527C150.074 38.1393 150.197 38.2966 150.394 38.4261L154.872 41.3773C155.484 41.7755 155.924 42.3323 156.191 43.0479C156.459 43.7648 156.481 44.4497 156.258 45.1027L156.097 45.576C155.903 46.1509 155.593 46.6075 155.167 46.9458C154.743 47.2869 154.24 47.4999 153.658 47.5862C153.078 47.6711 152.466 47.6711 151.82 47.5862C151.174 47.5041 150.492 47.3412 149.776 47.0962L149.075 46.8567C148.663 46.7189 148.253 46.524 147.85 46.272C147.449 46.0228 147.077 45.7166 146.736 45.3532C146.394 44.9927 146.108 44.6071 145.878 44.195C145.652 43.7801 145.512 43.3193 145.461 42.814C145.408 42.3059 145.466 41.8061 145.633 41.3161L147.944 42.1012C147.911 42.2015 147.9 42.3393 147.911 42.5133C147.922 42.6887 147.969 42.9017 148.056 43.1537C148.145 43.4029 148.342 43.6549 148.652 43.911C148.963 44.1671 149.366 44.3788 149.86 44.5458L150.562 44.7852Z" fill="white"/>
<path d="M158.778 45.764C158.903 45.5273 159.076 45.3004 159.296 45.0846C159.519 44.8702 159.825 44.6725 160.215 44.4944C160.604 44.3162 161.035 44.2034 161.506 44.1547C161.977 44.1032 162.551 44.1575 163.227 44.3162C163.906 44.4763 164.619 44.7547 165.365 45.1514L168.294 46.7162L168.367 46.5714C168.481 46.3598 168.552 46.1565 168.578 45.9589C168.608 45.7584 168.584 45.5217 168.506 45.2461C168.428 44.9677 168.225 44.6781 167.899 44.3774C167.572 44.0739 167.126 43.7705 166.563 43.4698L166.329 43.3417C164.992 42.6289 164.004 42.4605 163.366 42.8349L162.113 40.7356C163.535 39.8864 165.324 40.0368 167.481 41.1867L167.715 41.3148C168.475 41.7199 169.107 42.1667 169.609 42.6568C170.11 43.1468 170.462 43.6145 170.667 44.06C170.874 44.5027 170.992 44.9565 171.023 45.4243C171.052 45.892 171.02 46.3097 170.928 46.6772C170.835 47.0419 170.7 47.39 170.522 47.7241L166.808 54.6791L164.653 53.5264L164.914 53.0364C163.741 53.0503 162.709 52.8206 161.818 52.3459L161.584 52.2178C160.812 51.8058 160.16 51.3213 159.63 50.7644C159.098 50.2104 158.729 49.6647 158.522 49.1273C158.317 48.59 158.211 48.0777 158.204 47.5904C158.196 47.1004 158.289 46.6772 158.483 46.3208L158.778 45.764ZM164.207 47.312C163.769 47.0781 163.355 46.9055 162.965 46.7941C162.578 46.6828 162.271 46.6271 162.041 46.6271C161.81 46.6271 161.603 46.6535 161.417 46.705C161.235 46.7538 161.111 46.8025 161.044 46.8498C160.98 46.8944 160.938 46.9278 160.916 46.95L160.638 47.4735C160.544 47.6447 160.501 47.8173 160.51 47.9914C160.521 48.1626 160.593 48.3533 160.727 48.5649C160.863 48.7723 161.1 49.002 161.434 49.2554C161.768 49.5074 162.202 49.776 162.737 50.0628L162.971 50.1909C163.308 50.3691 163.65 50.4944 163.996 50.5696C164.344 50.6475 164.655 50.6767 164.931 50.6586C165.205 50.6392 165.454 50.6002 165.677 50.5417C165.903 50.4818 166.08 50.4192 166.206 50.3524C166.336 50.2856 166.414 50.2271 166.44 50.1798L167.136 48.8767L164.207 47.312Z" fill="white"/>
<path d="M179.329 43.5369L183.817 46.9838L175.381 57.9815L177.909 59.9138L176.422 61.8516L169.406 56.4725L170.893 54.5347L173.443 56.4948L180.392 47.4349L177.842 45.4748L179.329 43.5369Z" fill="white"/>
<path d="M184.343 62.0794L183.708 62.6697C183.532 62.8367 183.393 63.0455 183.29 63.2989C183.19 63.555 183.131 63.846 183.118 64.1731C183.102 64.4989 183.182 64.8636 183.357 65.2646C183.535 65.6683 183.805 66.0636 184.17 66.4507L184.348 66.6455C184.961 67.2985 185.515 67.7147 186.013 67.8929C186.51 68.0711 186.924 68.0947 187.255 67.9653L188.174 70.2316C187.316 70.5769 186.399 70.5908 185.423 70.2762C184.45 69.9644 183.498 69.3128 182.566 68.3217L182.388 68.1268C181.812 67.5142 181.38 66.8572 181.091 66.1555C180.804 65.4567 180.665 64.7885 180.673 64.1509C180.684 63.5161 180.807 62.9147 181.04 62.3467C181.274 61.7759 181.606 61.2873 182.037 60.8822L184.337 58.7272C185.328 57.8 186.478 57.3963 187.789 57.5188C189.099 57.6385 190.341 58.3235 191.515 59.5736L191.693 59.7685C192.865 61.02 193.465 62.2994 193.492 63.6052C193.521 64.9151 193.041 66.0344 192.049 66.963L190.384 68.5277L184.343 62.0794ZM186.13 60.4033L190.501 65.0697C190.769 64.7871 190.941 64.4808 191.019 64.1509C191.097 63.8237 191.083 63.4966 190.98 63.1708C190.876 62.8479 190.735 62.5472 190.557 62.2687C190.382 61.9875 190.167 61.7105 189.911 61.439L189.733 61.2441C189.484 60.9768 189.223 60.7471 188.953 60.5536C188.682 60.3574 188.387 60.1959 188.068 60.0692C187.748 59.9439 187.419 59.9063 187.082 59.9578C186.744 60.0065 186.427 60.1555 186.13 60.4033Z" fill="white"/>
<path d="M202.62 91.2822C202.493 91.5078 202.305 91.679 202.057 91.7945C201.675 91.9644 201.306 91.9477 200.949 91.7444C200.722 91.6177 200.554 91.4298 200.443 91.182C200.267 90.7992 200.283 90.4303 200.487 90.0739L201.762 87.8298L199.24 87.3175C198.835 87.2312 198.547 87.0001 198.377 86.6214C198.261 86.3722 198.232 86.1217 198.288 85.8697C198.368 85.4646 198.601 85.1764 198.984 85.0066C199.231 84.891 199.482 84.8618 199.735 84.9175L202.247 85.4409L201.963 82.885C201.929 82.6288 201.98 82.3866 202.113 82.1555C202.247 81.9258 202.433 81.7546 202.676 81.6432C202.809 81.5847 202.933 81.5485 203.049 81.5374C203.308 81.504 203.553 81.5541 203.784 81.6878C204.013 81.8214 204.182 82.0093 204.29 82.2502C204.353 82.3838 204.388 82.5091 204.396 82.6233L204.686 85.1736L207.019 84.1156C207.322 83.9778 207.633 83.9667 207.949 84.0822C208.268 84.2005 208.496 84.4121 208.634 84.717C208.77 85.0205 208.78 85.3323 208.662 85.6525C208.542 85.9755 208.33 86.2052 208.027 86.343L205.694 87.401L207.414 89.2887C207.495 89.3695 207.567 89.478 207.632 89.6117C207.739 89.8525 207.767 90.1031 207.715 90.3634C207.662 90.6265 207.54 90.8451 207.348 91.0205C207.261 91.0985 207.153 91.1667 207.019 91.2265C206.777 91.3379 206.526 91.3671 206.267 91.3156C206.007 91.2627 205.79 91.1402 205.616 90.9481L203.884 89.0437L202.62 91.2822Z" fill="white"/>
<path d="M203.843 115.701L203.81 115.345C203.772 114.988 203.766 114.639 203.788 114.298C203.813 113.955 203.889 113.582 204.016 113.179C204.141 112.774 204.314 112.394 204.534 112.037C204.757 111.684 205.066 111.33 205.464 110.974C205.861 110.617 206.327 110.3 206.862 110.021C207.396 109.746 208.056 109.505 208.844 109.297C209.631 109.089 210.503 108.937 211.461 108.841L212.179 108.774C217.428 108.253 220.238 109.888 220.61 113.674L220.649 114.042C220.774 115.325 220.578 116.442 220.059 117.388C219.538 118.335 218.678 119.07 217.475 119.594L216.501 117.355C217.183 117.061 217.659 116.672 217.926 116.186C218.196 115.703 218.294 115.068 218.216 114.281L218.177 113.914C218.068 112.789 217.581 112.007 216.712 111.569C215.846 111.131 214.415 111.01 212.419 111.207L211.701 111.274C207.847 111.656 206.028 112.934 206.243 115.105L206.277 115.462C206.34 116.11 206.55 116.642 206.906 117.054C207.263 117.466 207.828 117.767 208.605 117.956L208.048 120.329C206.834 120.039 205.859 119.507 205.124 118.736C204.392 117.963 203.966 116.951 203.843 115.701Z" fill="white"/>
<path d="M215.785 135.745L202.538 130.226C201.622 129.843 200.921 129.299 200.438 128.595C199.957 127.893 199.746 127.074 199.809 126.139L199.826 125.822C199.859 125.316 200.041 124.758 200.371 124.145C200.699 123.533 201.105 122.989 201.591 122.514L201.803 122.313L203.534 124.034L203.211 124.363C202.964 124.619 202.748 124.899 202.565 125.203C202.38 125.511 202.28 125.769 202.265 125.977L202.248 126.295C202.196 127.044 202.59 127.594 203.429 127.943L205.528 128.817L216.615 123.021L216.425 125.877L208.451 130.042L215.952 133.161L215.785 135.745Z" fill="white"/>
<path d="M214.31 144.106L214.249 144.367C214.044 145.247 213.726 146 213.291 146.628C212.857 147.259 212.352 147.734 211.777 148.054C211.2 148.373 210.579 148.572 209.911 148.65C209.243 148.728 208.544 148.683 207.817 148.516L206.225 148.143C204.639 147.775 203.455 146.993 202.667 145.799C201.88 144.603 201.68 143.181 202.065 141.533L202.126 141.271C202.38 140.183 202.91 139.256 203.719 138.487L203.107 138.342L203.658 135.965L219.539 139.662L218.988 142.04L214.288 140.943C214.569 141.892 214.578 142.947 214.31 144.106ZM208.229 139.534C207.383 139.336 206.599 139.462 205.88 139.907C205.158 140.355 204.702 140.996 204.51 141.828L204.449 142.09C204.34 142.553 204.305 142.975 204.343 143.354C204.379 143.735 204.471 144.058 204.616 144.323C204.763 144.586 204.957 144.816 205.195 145.013C205.436 145.214 205.686 145.371 205.946 145.487C206.205 145.601 206.484 145.694 206.782 145.765L208.374 146.138C208.753 146.223 209.109 146.257 209.443 146.238C209.778 146.223 210.106 146.141 210.429 145.993C210.755 145.844 211.043 145.587 211.292 145.219C211.54 144.852 211.732 144.384 211.866 143.816L211.927 143.554C212.172 142.496 212.094 141.672 211.693 141.082C211.292 140.495 210.668 140.103 209.822 139.907L208.229 139.534Z" fill="white"/>
<path d="M204.446 153.072L203.645 152.738C203.422 152.649 203.173 152.61 202.898 152.621C202.623 152.633 202.333 152.699 202.03 152.822C201.729 152.944 201.43 153.169 201.133 153.496C200.841 153.826 200.593 154.234 200.393 154.721L200.292 154.966C199.951 155.793 199.802 156.471 199.847 156.998C199.889 157.524 200.036 157.911 200.292 158.156L198.605 159.927C197.934 159.288 197.54 158.46 197.425 157.444C197.31 156.426 197.512 155.289 198.032 154.03L198.132 153.785C198.455 153.008 198.875 152.346 199.39 151.797C199.907 151.247 200.457 150.845 201.039 150.589C201.62 150.336 202.22 150.199 202.837 150.177C203.452 150.155 204.034 150.255 204.58 150.478L207.492 151.686C208.747 152.205 209.589 153.085 210.02 154.325C210.455 155.569 210.343 156.983 209.686 158.569L209.586 158.814C208.929 160.398 208.01 161.473 206.83 162.038C205.649 162.606 204.431 162.629 203.177 162.11L201.066 161.236L204.446 153.072ZM206.713 154.008L204.268 159.916C204.636 160.041 204.982 160.073 205.31 160.011C205.639 159.947 205.93 159.801 206.184 159.571C206.436 159.34 206.653 159.088 206.835 158.814C207.02 158.538 207.186 158.226 207.331 157.878L207.431 157.633C207.572 157.295 207.673 156.962 207.737 156.636C207.804 156.313 207.828 155.981 207.81 155.64C207.794 155.297 207.694 154.982 207.509 154.693C207.327 154.406 207.061 154.178 206.713 154.008Z" fill="white"/>
<path d="M199.97 171.966L200.11 171.744C200.38 171.305 200.536 170.792 200.577 170.201C200.618 169.611 200.561 169.044 200.405 168.503C200.252 167.964 200.023 167.459 199.72 166.988C199.415 166.516 199.075 166.164 198.701 165.93L194.023 163.024L195.31 160.946L205.439 167.239L204.152 169.316L202.916 168.547C203.224 170.263 202.98 171.758 202.187 173.036L202.048 173.258C201.003 174.94 199.776 175.849 198.361 175.987L198.122 173.553C198.734 173.494 199.35 172.965 199.97 171.966Z" fill="white"/>
<path d="M176.277 187.258C175.579 187.828 175.074 188.369 174.762 188.878C174.447 189.386 174.382 189.755 174.567 189.986L174.89 190.376C174.954 190.454 175.085 190.512 175.286 190.554C175.483 190.595 175.673 190.574 175.854 190.493L180.709 188.26C181.124 188.066 181.542 187.955 181.962 187.926C182.381 187.899 182.756 187.943 183.087 188.054C183.421 188.168 183.716 188.312 183.972 188.483C184.229 188.653 184.442 188.842 184.613 189.051L184.696 189.151C184.877 189.374 185.026 189.613 185.142 189.869C185.256 190.128 185.321 190.448 185.337 190.827C185.355 191.206 185.295 191.593 185.158 191.991C185.025 192.388 184.764 192.837 184.379 193.338C183.996 193.842 183.493 194.352 182.87 194.864L182.664 195.031C181.895 195.662 181.017 196.117 180.03 196.396C179.043 196.674 178.125 196.674 177.279 196.396L178.053 194.068C178.396 194.179 178.858 194.163 179.44 194.018C180.019 193.873 180.576 193.581 181.11 193.144L181.316 192.977C181.609 192.734 181.863 192.495 182.079 192.258C182.298 192.02 182.455 191.818 182.552 191.651C182.653 191.484 182.726 191.328 182.775 191.183C182.827 191.041 182.85 190.934 182.848 190.86C182.848 190.789 182.834 190.738 182.809 190.705L182.725 190.604C182.669 190.533 182.548 190.467 182.363 190.404C182.181 190.344 181.982 190.365 181.767 190.465L176.895 192.715C176.238 193.027 175.535 193.106 174.784 192.954C174.031 192.801 173.435 192.46 172.997 191.93L172.674 191.54C172.292 191.072 172.07 190.567 172.006 190.025C171.943 189.482 172.028 188.942 172.262 188.405C172.496 187.87 172.819 187.35 173.231 186.846C173.643 186.34 174.141 185.849 174.723 185.37L175.302 184.897C175.636 184.621 176.018 184.379 176.444 184.167C176.867 183.958 177.324 183.805 177.814 183.705C178.301 183.608 178.78 183.571 179.25 183.594C179.718 183.619 180.18 183.744 180.637 183.967C181.096 184.189 181.492 184.501 181.823 184.902L179.935 186.45C179.868 186.364 179.76 186.28 179.607 186.2C179.451 186.122 179.245 186.052 178.989 185.994C178.732 185.934 178.414 185.967 178.031 186.094C177.649 186.223 177.257 186.453 176.856 186.784L176.277 187.258Z" fill="white"/>
<path d="M171.109 193.716C171.245 193.95 171.345 194.217 171.409 194.518C171.476 194.821 171.483 195.186 171.432 195.609C171.379 196.035 171.249 196.461 171.042 196.884C170.833 197.31 170.485 197.77 169.995 198.26C169.502 198.753 168.89 199.212 168.157 199.635L165.284 201.295L165.368 201.434C165.487 201.641 165.624 201.81 165.78 201.941C165.933 202.07 166.146 202.175 166.42 202.253C166.696 202.333 167.048 202.315 167.478 202.197C167.906 202.077 168.396 201.859 168.948 201.54L169.182 201.406C170.492 200.649 171.156 199.9 171.176 199.162L173.62 199.201C173.594 200.856 172.523 202.297 170.407 203.522L170.173 203.656C169.427 204.086 168.714 204.385 168.035 204.552C167.356 204.722 166.774 204.778 166.286 204.719C165.801 204.659 165.35 204.519 164.933 204.296C164.518 204.076 164.18 203.83 163.92 203.556C163.661 203.284 163.435 202.985 163.246 202.659L159.298 195.832L161.42 194.607L161.698 195.091C162.304 194.089 163.043 193.335 163.914 192.831L164.148 192.697C164.905 192.258 165.661 191.959 166.415 191.8C167.165 191.645 167.823 191.62 168.391 191.728C168.957 191.835 169.448 192.015 169.867 192.268C170.283 192.52 170.592 192.821 170.797 193.17L171.109 193.716ZM166.932 197.514C167.364 197.265 167.729 197.003 168.029 196.729C168.327 196.457 168.536 196.225 168.659 196.033C168.778 195.839 168.865 195.65 168.92 195.465C168.973 195.278 168.997 195.147 168.993 195.069C168.99 194.991 168.982 194.938 168.97 194.913L168.675 194.395C168.579 194.228 168.457 194.102 168.308 194.017C168.156 193.935 167.956 193.894 167.706 193.894C167.459 193.897 167.138 193.975 166.749 194.128C166.356 194.28 165.897 194.508 165.373 194.813L165.139 194.947C164.809 195.139 164.521 195.362 164.276 195.615C164.028 195.871 163.839 196.119 163.708 196.361C163.579 196.602 163.48 196.832 163.413 197.052C163.344 197.274 163.305 197.458 163.296 197.603C163.285 197.748 163.293 197.844 163.318 197.892L164.059 199.173L166.932 197.514Z" fill="white"/>
<path d="M162.162 212.349L156.86 214.348L151.971 201.379L148.998 202.498L148.135 200.209L156.409 197.091L157.272 199.38L154.26 200.516L158.286 211.196L161.299 210.06L162.162 212.349Z" fill="white"/>
<path d="M143.763 206.826L143.596 205.974C143.548 205.736 143.443 205.506 143.278 205.283C143.115 205.063 142.898 204.862 142.627 204.676C142.357 204.494 142.003 204.372 141.569 204.309C141.134 204.245 140.658 204.266 140.138 204.37L139.876 204.426C139 204.6 138.356 204.85 137.944 205.178C137.529 205.503 137.291 205.842 137.231 206.191L134.814 205.773C134.974 204.863 135.446 204.076 136.229 203.412C137.008 202.751 138.065 202.289 139.397 202.026L139.659 201.97C140.483 201.806 141.268 201.786 142.014 201.909C142.758 202.034 143.398 202.268 143.935 202.611C144.47 202.956 144.918 203.376 145.277 203.875C145.638 204.376 145.876 204.916 145.99 205.495L146.608 208.585C146.871 209.918 146.608 211.109 145.817 212.16C145.024 213.21 143.785 213.903 142.103 214.237L141.842 214.293C140.16 214.627 138.757 214.46 137.632 213.792C136.504 213.127 135.808 212.128 135.544 210.796L135.093 208.558L143.763 206.826ZM144.242 209.226L137.971 210.479C138.072 210.853 138.242 211.16 138.478 211.398C138.712 211.634 138.996 211.796 139.33 211.882C139.662 211.967 139.991 212.007 140.321 212.005C140.649 212 140.995 211.963 141.363 211.893L141.624 211.837C141.985 211.766 142.319 211.668 142.627 211.542C142.936 211.42 143.227 211.254 143.501 211.047C143.777 210.842 143.983 210.582 144.119 210.267C144.257 209.955 144.297 209.607 144.242 209.226Z" fill="white"/>
<g clip-path="url(#clip0_6884_50701)">
<path d="M141.49 120.474H137.782V108.261C137.782 104.406 134.658 101.282 130.804 101.282H117.282C113.428 101.282 110.304 104.406 110.304 108.261V120.474H106.596C105.631 120.474 104.852 121.253 104.852 122.218V143.154C104.852 144.119 105.631 144.899 106.596 144.899H141.49C142.455 144.899 143.234 144.119 143.234 143.154V122.218C143.234 121.253 142.455 120.474 141.49 120.474ZM125.57 133.395V136.285C125.57 136.525 125.373 136.721 125.133 136.721H122.953C122.713 136.721 122.516 136.525 122.516 136.285V133.395C122.066 133.072 121.73 132.614 121.557 132.088C121.384 131.562 121.382 130.994 121.551 130.467C121.721 129.94 122.054 129.48 122.501 129.153C122.949 128.827 123.489 128.651 124.043 128.651C124.597 128.651 125.137 128.827 125.585 129.153C126.032 129.48 126.365 129.94 126.535 130.467C126.704 130.994 126.702 131.562 126.529 132.088C126.356 132.614 126.02 133.072 125.57 133.395ZM133.857 120.474H114.229V108.261C114.229 106.576 115.598 105.208 117.282 105.208H130.804C132.488 105.208 133.857 106.576 133.857 108.261V120.474Z" fill="white"/>
</g>
<defs>
<clipPath id="clip0_6884_50701">
<rect width="55.8296" height="55.8296" fill="white" transform="translate(96.1289 95.1758)"/>
</clipPath>
</defs>
</svg>
