<svg width="247" height="247" viewBox="0 0 247 247" fill="none" xmlns="http://www.w3.org/2000/svg">
<g clip-path="url(#clip0_6884_49753)">
<path d="M211.183 209.366L197.063 210.837L193.308 224.518L179.166 223.31L172.886 236.025L159.227 232.16L150.663 243.469L137.992 237.079L127.43 246.565L116.187 237.891L104.021 245.204L94.6446 234.553L81.3153 239.428L74.0907 227.219L60.0807 229.481L55.3374 216.108L41.1298 215.668L38.9997 201.658L25.1434 198.54L25.6924 184.354L12.6705 178.689L15.8985 164.876L4.19423 156.839L9.96952 143.883L0 133.782L8.12494 122.166L0.241552 110.352L10.4307 100.47L4.91888 87.3821L16.7989 79.6085L13.8563 65.7083L26.988 60.3282L26.7245 46.1206L40.6467 43.3098L43.0842 29.3436L57.2699 29.2119L62.3205 15.9485L76.2866 18.4958L83.7528 6.44009L96.9723 11.5786L106.59 1.1479L118.58 8.7019L129.999 0.269531L140.364 9.97554L153.166 3.8489L161.511 15.3336L175.235 11.7542L181.252 24.6004L195.416 23.6781L198.885 37.4466L212.961 39.2034L213.774 53.3891L227.257 57.7809L225.368 71.8569L237.775 78.7301L233.252 92.1912L244.144 101.282L237.16 113.645L246.142 124.647L236.941 135.451L243.66 147.946L232.593 156.817L236.831 170.366L224.27 176.998L225.873 191.096L212.281 195.224L211.183 209.366Z" fill="url(#paint0_linear_6884_49753)"/>
<path d="M233.623 123.285C233.623 184.464 184.039 234.048 122.86 234.048C61.6818 234.048 12.0977 184.442 12.0977 123.285C12.0977 62.1285 61.7037 12.5225 122.86 12.5225C184.017 12.5225 233.623 62.1066 233.623 123.285Z" fill="url(#paint1_linear_6884_49753)"/>
<path d="M14.668 123.286C14.668 63.5125 63.1102 15.0703 122.861 15.0703C182.613 15.0703 231.077 63.5125 231.077 123.286C231.077 183.059 182.635 231.501 122.861 231.501C63.0882 231.501 14.668 183.037 14.668 123.286Z" fill="url(#paint2_radial_6884_49753)"/>
<path d="M225.278 123.285C225.278 179.853 179.427 225.704 122.86 225.704C66.2924 225.704 20.4414 179.831 20.4414 123.285C20.4414 66.7402 66.2924 20.8672 122.86 20.8672C179.427 20.8672 225.278 66.7182 225.278 123.285Z" fill="url(#paint3_linear_6884_49753)"/>
<path d="M222.82 123.286C222.82 178.492 178.067 223.245 122.861 223.245C67.6554 223.245 22.9023 178.492 22.9023 123.286C22.9023 68.0802 67.6554 23.3271 122.861 23.3271C178.067 23.3271 222.82 68.0802 222.82 123.286Z" fill="url(#paint4_linear_6884_49753)"/>
<path d="M201.017 123.285C201.017 166.457 166.014 201.439 122.864 201.439C79.7141 201.439 44.7109 166.435 44.7109 123.285C44.7109 80.1354 79.6921 45.1104 122.864 45.1104C166.036 45.1104 201.017 80.1135 201.017 123.264V123.285Z" fill="url(#paint5_linear_6884_49753)"/>
<path d="M198.534 123.286C198.534 165.075 164.673 198.936 122.884 198.936C81.0956 198.936 47.2344 165.053 47.2344 123.286C47.2344 81.5194 81.0737 47.6143 122.862 47.6143C164.651 47.6143 198.512 81.4755 198.512 123.264L198.534 123.286Z" fill="url(#paint6_radial_6884_49753)"/>
<path style="mix-blend-mode:screen" d="M75.5399 182.268C86.5854 164.174 99.761 147.309 114.913 132.157C135.73 111.34 159.776 94.2334 185.841 81.2993C172.271 60.987 149.147 47.5918 122.884 47.5918C81.0956 47.5918 47.2344 81.453 47.2344 123.242C47.2344 147.111 58.3019 168.368 75.5619 182.246L75.5399 182.268Z" fill="url(#paint7_radial_6884_49753)"/>
<path d="M42.3139 78.8623L43.1044 80.7947C42.3797 81.2778 41.9625 81.6731 41.8308 81.9586C41.721 82.1782 41.721 82.4197 41.8088 82.6613C41.8966 82.9028 42.0723 83.0785 42.3139 83.2102C42.775 83.4298 43.3899 83.2102 44.1365 82.5075C44.7074 82.0025 45.1686 81.6511 45.5199 81.4315C45.8932 81.2119 46.3105 81.1022 46.7936 81.0582C47.2767 81.0143 47.7378 81.1241 48.177 81.3217C48.9895 81.717 49.5385 82.3758 49.824 83.32C50.1094 84.2643 50.0435 85.1866 49.6044 86.0869C49.1432 87.0751 48.199 87.8217 46.8155 88.3487L45.8932 86.2406C46.8155 85.9332 47.3865 85.516 47.628 84.989C47.7378 84.7474 47.7378 84.4619 47.628 84.1325C47.5182 83.8031 47.3426 83.5836 47.101 83.4738C46.5959 83.2322 45.9152 83.5616 45.0368 84.418C44.5318 84.9011 44.1145 85.2305 43.8071 85.4062C43.4997 85.5599 43.1264 85.6477 42.6652 85.6477C42.226 85.6477 41.8088 85.5599 41.4355 85.3842C40.5791 84.9889 40.0301 84.3741 39.7666 83.5835C39.5031 82.7711 39.5909 81.9366 40.0081 81.0582C40.5132 80.0042 41.2598 79.2795 42.27 78.8843L42.3139 78.8623Z" fill="black"/>
<path d="M44.9258 72.4278L45.87 70.9346L57.0693 72.9548L55.8396 74.8872L53.6436 74.492L51.4697 77.9176L52.7653 79.7183L51.5575 81.6507L44.9258 72.4498V72.4278ZM48.3075 73.5258L50.2619 76.2268L51.6014 74.1187L48.3075 73.5258Z" fill="black"/>
<path d="M48.9258 66.4332L53.3396 60.8994L55.0963 62.3048L53.5812 64.1933L60.0591 69.3757L58.6537 71.1544L52.1758 65.994L50.6825 67.8605L48.9258 66.4771V66.4332Z" fill="black"/>
<path d="M54.9648 59.1425L56.524 57.4736L64.2317 64.6543L62.6945 66.3232L54.9868 59.1425H54.9648Z" fill="black"/>
<path d="M63.7241 51.8965V54.0046C62.8896 54.1802 62.3406 54.3779 62.0991 54.5975C61.9234 54.7732 61.8136 54.9927 61.8136 55.2563C61.8136 55.5198 61.9015 55.7394 62.0771 55.937C62.4285 56.3103 63.0873 56.3323 64.0315 55.9809C64.7342 55.7394 65.3051 55.5637 65.7224 55.5198C66.1396 55.4539 66.5788 55.5198 67.0399 55.6515C67.5011 55.8052 67.8963 56.0688 68.2257 56.4201C68.8406 57.0789 69.1041 57.9133 69.0163 58.9015C68.9284 59.8897 68.5112 60.7241 67.7866 61.3829C66.9741 62.1295 65.8322 62.4589 64.3609 62.4369L64.295 60.1532C65.2612 60.2191 65.942 60.0434 66.3812 59.6481C66.5788 59.4724 66.6886 59.187 66.7105 58.8576C66.7105 58.5062 66.6447 58.2427 66.469 58.0451C66.0957 57.6498 65.3491 57.6718 64.2072 58.1549C63.5484 58.4184 63.0653 58.5721 62.7139 58.616C62.3626 58.6599 61.9893 58.5721 61.5721 58.4184C61.1548 58.2427 60.8035 58.0012 60.518 57.6937C59.8812 57.013 59.5957 56.2444 59.6616 55.388C59.7275 54.5536 60.1008 53.785 60.8255 53.1262C61.6819 52.3357 62.6481 51.9404 63.7241 51.9404V51.8965Z" fill="black"/>
<path d="M65.4805 49.2166L70.2237 45.6592L71.4534 47.2842L68.5109 49.4801L69.8065 51.1929L72.749 48.997L73.9787 50.6439L71.0581 52.8399L73.6274 56.2655L71.8047 57.627L65.4805 49.1946V49.2166Z" fill="black"/>
<path d="M74.9883 42.5859L76.5035 41.6855L85.5727 48.5588L83.5963 49.7227L81.8176 48.3612L78.3481 50.4253L78.6994 52.6213L76.745 53.7851L75.0102 42.5639L74.9883 42.5859ZM77.5136 45.1112L78.0406 48.4051L80.1926 47.1315L77.5136 45.1112Z" fill="black"/>
<path d="M89.5253 35.8438L90.5794 38.1934C89.2618 38.0397 88.2078 38.1275 87.4172 38.4789C86.6486 38.8302 86.1436 39.3792 85.902 40.1258C85.6824 40.8724 85.7703 41.7069 86.1655 42.6072C86.5608 43.4636 87.1098 44.0346 87.8344 44.342C88.5591 44.6275 89.3277 44.6055 90.1621 44.2322C90.8868 43.9028 91.6114 43.2221 92.3581 42.2119L93.3901 44.5396C92.4239 45.418 91.5675 46.0329 90.8209 46.3623C89.5253 46.9332 88.2077 46.9552 86.8902 46.4062C85.5507 45.8572 84.5845 44.9129 83.9696 43.5295C83.3547 42.1461 83.2889 40.7626 83.772 39.3792C84.2551 37.9958 85.1554 37.0295 86.473 36.4366C87.3294 36.0633 88.3175 35.8657 89.5033 35.8657L89.5253 35.8438Z" fill="black"/>
<path d="M91.3945 34.5705L98.136 32.3965L98.8168 34.5265L96.5111 35.2732L99.0583 43.1565L96.9063 43.8592L94.359 35.9539L92.0753 36.7005L91.3945 34.5705Z" fill="black"/>
<path d="M100.484 31.8259L102.702 31.2988L105.14 41.5538L102.922 42.0808L100.484 31.8259Z" fill="black"/>
<path d="M106.301 35.7564C106.104 34.2192 106.433 32.8797 107.333 31.7378C108.212 30.5959 109.376 29.9372 110.759 29.7615C112.296 29.5639 113.658 29.8933 114.8 30.7716C115.942 31.65 116.622 32.8578 116.82 34.3949C117.018 35.9321 116.688 37.2716 115.81 38.4135C114.931 39.5553 113.746 40.2361 112.23 40.4337C110.715 40.6314 109.398 40.302 108.278 39.4236C107.158 38.5452 106.499 37.3375 106.301 35.7783V35.7564ZM111.132 31.8257C110.254 31.9355 109.595 32.3307 109.134 33.0115C108.673 33.6922 108.519 34.5267 108.651 35.5148C108.761 36.4371 109.156 37.1837 109.771 37.7108C110.408 38.2378 111.132 38.4574 111.967 38.3476C112.845 38.2378 113.504 37.8425 113.965 37.1618C114.426 36.481 114.58 35.6685 114.448 34.6804C114.317 33.7142 113.965 32.9676 113.35 32.4405C112.735 31.9135 112.011 31.7159 111.132 31.8037V31.8257Z" fill="black"/>
<path d="M126.529 29.1025H128.747L128.593 39.6649H126.376L121.654 32.7477L121.566 39.5771H119.305L119.458 29.0146H121.698L126.441 35.8879L126.529 29.1244V29.1025Z" fill="black"/>
<path d="M150.747 35.6682L148.925 36.6345C148.771 36.0196 148.485 35.5365 148.112 35.1412C147.739 34.746 147.3 34.5044 146.817 34.3726C146.026 34.1531 145.257 34.2628 144.489 34.702C143.742 35.1412 143.259 35.778 143.018 36.5905C142.776 37.4689 142.864 38.2814 143.281 39.05C143.698 39.8186 144.313 40.3017 145.148 40.5432C145.587 40.675 146.07 40.675 146.531 40.5432C147.014 40.4334 147.453 40.104 147.893 39.5331L145.477 38.8743L146.026 36.898L150.725 38.1716L150.374 39.4892C150.198 40.1699 149.759 40.8287 149.078 41.4875C148.398 42.1243 147.629 42.5415 146.773 42.6952C145.916 42.8489 145.104 42.827 144.335 42.6074C142.93 42.2341 141.876 41.3996 141.195 40.104C140.514 38.8304 140.361 37.4469 140.778 35.9318C141.173 34.5044 141.985 33.4284 143.259 32.7037C144.533 31.9791 145.85 31.8034 147.256 32.1767C149.034 32.6598 150.198 33.8237 150.725 35.6463L150.747 35.6682Z" fill="black"/>
<path d="M155.031 34.7461L157.096 35.6245L154.57 41.5535C154.329 42.1025 154.307 42.6075 154.46 43.0687C154.614 43.5298 154.944 43.8812 155.449 44.0788C156.02 44.3204 156.525 44.3423 156.986 44.1447C157.447 43.947 157.798 43.5298 158.062 42.915L160.543 37.0957L162.585 37.9741L159.928 44.2545C159.687 44.8035 159.313 45.3085 158.764 45.7916C158.215 46.2747 157.601 46.5382 156.876 46.6041C156.151 46.67 155.427 46.5382 154.68 46.2308C153.341 45.6599 152.528 44.8913 152.243 43.8812C151.935 42.871 151.957 41.9707 152.308 41.1582L155.009 34.7681L155.031 34.7461Z" fill="black"/>
<path d="M168.735 41.29L170.25 42.1904L168.604 53.4555L166.627 52.2916L166.957 50.0738L163.465 48.0315L161.708 49.393L159.754 48.2511L168.735 41.312V41.29ZM167.747 44.7157L165.112 46.7579L167.264 48.0315L167.747 44.7157Z" fill="black"/>
<path d="M176.374 46.0986L179.119 48.2287C179.953 48.8875 180.436 49.6121 180.59 50.4246C180.722 51.2371 180.524 52.0276 179.931 52.7743C179.602 53.2134 179.141 53.5648 178.57 53.8503C177.999 54.1357 177.296 54.1797 176.506 53.982L176.132 59.2523L174.068 57.6492L174.42 52.7523L174.222 52.5986L171.719 55.8046L169.918 54.4212L176.396 46.0986H176.374ZM177.033 48.9753L175.342 51.1493L175.737 51.4567C176.681 52.1814 177.428 52.1594 178.043 51.4128C178.284 51.1054 178.35 50.754 178.263 50.3807C178.153 50.0074 177.889 49.656 177.472 49.3266L177.055 48.9973L177.033 48.9753Z" fill="black"/>
<path d="M187.553 55.6289L188.782 56.8806L184.303 67.3332L182.7 65.7082L183.578 63.666L180.745 60.7893L178.681 61.6458L177.078 60.0208L187.531 55.6289H187.553ZM185.708 58.6813L182.634 59.9769L184.391 61.7556L185.708 58.6813Z" fill="black"/>
<path d="M197.96 67.9267L199.299 69.7054L190.845 75.9858L189.527 74.2071L192.118 66.2798L186.651 70.3422L185.289 68.5196L193.743 62.2393L195.083 64.0399L192.536 71.9672L197.96 67.9267Z" fill="black"/>
<path d="M200.748 72.0547L204.283 78.2033L202.351 79.3232L201.143 77.2371L193.94 81.3654L192.82 79.3891L200.023 75.2608L198.837 73.1746L200.77 72.0547H200.748Z" fill="black"/>
<path d="M205.495 80.6191L207.932 86.0211L206.022 86.8775L204.528 83.5397L202.596 84.4181L204.111 87.7559L202.245 88.5904L200.751 85.2526L198.753 86.1529L200.246 89.4907L198.336 90.3471L195.898 84.9451L205.495 80.6191Z" fill="black"/>
<path d="M209.05 88.9414L210.939 94.563L208.962 95.2218L207.798 91.7522L205.778 92.4329L206.942 95.9025L204.988 96.5613L203.824 93.0917L201.76 93.7944L202.923 97.264L200.947 97.9228L199.059 92.3012L209.05 88.9414Z" fill="black"/>
<path d="M47.3672 164.371L45.4128 163.866C45.4567 163.032 45.4128 162.483 45.2371 162.197C45.1273 161.978 44.9517 161.846 44.7101 161.78C44.4685 161.714 44.227 161.736 44.0074 161.846C43.5682 162.087 43.3925 162.68 43.5023 163.647C43.5682 164.371 43.5682 164.92 43.5243 165.337C43.4804 165.755 43.3486 166.15 43.0851 166.545C42.8216 166.94 42.4922 167.248 42.075 167.467C41.3064 167.885 40.472 167.929 39.5716 167.599C38.6713 167.292 37.9906 166.699 37.5514 165.864C37.0463 164.942 37.0024 163.8 37.3977 162.417L39.5497 162.9C39.2642 163.778 39.2642 164.459 39.5277 164.964C39.6595 165.206 39.879 165.359 40.1865 165.469C40.5159 165.579 40.7794 165.557 40.999 165.447C41.4601 165.206 41.6138 164.481 41.4382 163.317C41.3503 162.636 41.3284 162.153 41.3723 161.802C41.4382 161.473 41.5919 161.121 41.8334 160.792C42.0969 160.441 42.4044 160.177 42.7557 159.979C43.5463 159.562 44.3368 159.474 45.1054 159.716C45.8739 159.957 46.4888 160.506 46.928 161.341C47.455 162.329 47.5868 163.339 47.3233 164.327L47.3672 164.371Z" fill="black"/>
<path d="M51.0995 168.521L52.0437 169.927L46.0049 179.04L44.7752 177.217L45.961 175.417L43.7651 172.211L41.6789 172.672L40.4492 170.871L51.1214 168.521H51.0995ZM48.8377 171.091L45.6975 171.793L47.059 173.792L48.8377 171.113V171.091Z" fill="black"/>
<path d="M54.3922 173.243L58.7621 178.469L57.1151 179.853L55.6219 178.074L49.4952 183.191L48.0898 181.522L54.2165 176.405L52.7452 174.627L54.3922 173.243Z" fill="black"/>
<path d="M59.8203 179.523L61.3355 181.105L54.023 188.131L52.5078 186.55L59.8203 179.523Z" fill="black"/>
<path d="M66.4714 187.187L64.4731 187.384C64.2316 186.594 63.99 186.089 63.7485 185.869C63.5728 185.715 63.3532 185.628 63.0897 185.65C62.8481 185.65 62.6285 185.781 62.4529 185.957C62.1235 186.33 62.1674 186.945 62.5846 187.824C62.8921 188.482 63.0897 189.009 63.1775 189.405C63.2654 189.8 63.2654 190.239 63.1775 190.678C63.0677 191.139 62.8701 191.535 62.5407 191.886C61.9478 192.523 61.1792 192.852 60.235 192.852C59.2907 192.852 58.4563 192.545 57.7316 191.886C56.963 191.183 56.5239 190.129 56.4141 188.702L58.61 188.416C58.632 189.339 58.8735 189.998 59.2907 190.371C59.4884 190.547 59.7519 190.634 60.0813 190.612C60.4107 190.612 60.6742 190.503 60.8498 190.305C61.2012 189.91 61.1134 189.185 60.5424 188.153C60.235 187.56 60.0373 187.077 59.9715 186.748C59.9056 186.418 59.9495 186.045 60.0593 185.628C60.1911 185.21 60.3887 184.859 60.6522 184.552C61.2671 183.893 61.9698 183.541 62.7823 183.52C63.5948 183.52 64.3414 183.805 65.0441 184.442C65.8785 185.188 66.3397 186.089 66.4275 187.121L66.4714 187.187Z" fill="black"/>
<path d="M68.5349 187.736L73.1244 191.14L71.9606 192.721L69.1278 190.613L67.8981 192.282L70.7308 194.39L69.545 195.971L66.7123 193.885L64.2528 197.201L62.4961 195.905L68.5349 187.758V187.736Z" fill="black"/>
<path d="M76.769 193.555L78.1964 194.455L76.3738 205.237L74.5072 204.073L74.8586 201.943L71.5427 199.901L69.8079 201.175L67.9414 200.033L76.7251 193.555H76.769ZM75.737 196.827L73.1458 198.737L75.188 200.011L75.737 196.827Z" fill="black"/>
<path d="M89.0242 200.692L87.9482 202.91C87.2455 201.834 86.5209 201.131 85.7742 200.78C85.0276 200.429 84.3249 200.385 83.6222 200.692C82.9415 200.978 82.3706 201.57 81.9753 202.427C81.58 203.239 81.5141 204.008 81.7337 204.733C81.9753 205.457 82.4803 205.984 83.2709 206.358C83.9516 206.687 84.9178 206.797 86.1256 206.709L85.0715 208.927C83.8199 208.773 82.8537 208.532 82.129 208.18C80.8993 207.587 80.0648 206.643 79.6476 205.326C79.2304 204.008 79.3182 202.712 79.9331 201.395C80.5699 200.077 81.5361 199.155 82.8537 198.672C84.1712 198.189 85.4448 198.233 86.6965 198.826C87.509 199.221 88.2776 199.836 89.0023 200.692H89.0242Z" fill="black"/>
<path d="M90.2082 200.582L96.6203 202.91L95.8737 204.93L93.6778 204.139L90.9548 211.65L88.8906 210.903L91.6136 203.393L89.4396 202.602L90.1643 200.582H90.2082Z" fill="black"/>
<path d="M98.0701 203.283L100.178 203.876L97.3893 213.626L95.2812 213.033L98.0701 203.283Z" fill="black"/>
<path d="M100.925 209.476C101.189 208.004 101.913 206.885 103.077 206.094C104.219 205.325 105.471 205.062 106.81 205.303C108.281 205.567 109.423 206.292 110.192 207.433C110.982 208.575 111.224 209.893 110.96 211.364C110.697 212.835 109.972 213.955 108.852 214.746C107.71 215.536 106.415 215.8 104.966 215.515C103.516 215.251 102.418 214.548 101.65 213.406C100.903 212.265 100.64 210.969 100.925 209.476ZM106.525 207.324C105.69 207.148 104.966 207.324 104.351 207.807C103.736 208.312 103.341 209.015 103.165 209.959C103.011 210.837 103.121 211.628 103.538 212.308C103.955 212.989 104.548 213.406 105.339 213.538C106.173 213.692 106.898 213.538 107.513 213.055C108.128 212.572 108.523 211.869 108.699 210.925C108.874 210.003 108.764 209.212 108.369 208.553C107.974 207.895 107.359 207.477 106.525 207.324Z" fill="black"/>
<path d="M120.315 206.907L122.445 207.016L121.896 217.14L119.766 217.03L115.506 210.222L115.154 216.766L112.98 216.656L113.529 206.533L115.681 206.643L119.964 213.406L120.315 206.907Z" fill="black"/>
<path d="M142.167 207.06L140.981 208.641C140.586 208.18 140.147 207.85 139.664 207.675C139.18 207.499 138.697 207.455 138.214 207.521C137.424 207.653 136.809 208.07 136.326 208.773C135.865 209.475 135.689 210.222 135.821 211.013C135.974 211.869 136.392 212.55 137.072 213.033C137.753 213.538 138.5 213.714 139.312 213.56C139.751 213.494 140.147 213.296 140.52 213.011C140.893 212.725 141.157 212.242 141.289 211.584L138.917 212.001L138.588 210.046L143.199 209.256L143.419 210.551C143.528 211.21 143.419 211.979 143.111 212.813C142.782 213.648 142.277 214.328 141.596 214.79C140.915 215.273 140.191 215.58 139.422 215.712C138.039 215.953 136.787 215.646 135.667 214.812C134.547 213.977 133.844 212.835 133.603 211.364C133.361 209.959 133.647 208.685 134.437 207.543C135.25 206.379 136.326 205.676 137.709 205.457C139.466 205.149 140.937 205.676 142.167 207.06Z" fill="black"/>
<path d="M144.012 204.359L146.076 203.745L147.877 209.674C148.052 210.223 148.338 210.618 148.733 210.859C149.15 211.101 149.589 211.145 150.094 210.991C150.665 210.815 151.061 210.508 151.28 210.091C151.5 209.652 151.5 209.125 151.324 208.51L149.567 202.669L151.632 202.054L153.52 208.334C153.696 208.883 153.718 209.498 153.608 210.179C153.498 210.859 153.191 211.452 152.708 211.935C152.203 212.44 151.588 212.792 150.863 213.011C149.523 213.407 148.447 213.341 147.613 212.792C146.779 212.243 146.23 211.54 145.988 210.728L144.056 204.337L144.012 204.359Z" fill="black"/>
<path d="M156.527 200.077L158.086 199.396L165.926 207.038L163.906 207.917L162.369 206.423L158.811 207.983L158.877 210.135L156.879 211.013L156.549 200.099L156.527 200.077ZM158.635 202.778L158.745 205.984L160.963 205.018L158.657 202.756L158.635 202.778Z" fill="black"/>
<path d="M163.159 197.003L166.035 195.334C166.914 194.829 167.748 194.653 168.517 194.807C169.307 194.982 169.922 195.444 170.383 196.234C170.647 196.673 170.801 197.222 170.844 197.837C170.888 198.452 170.691 199.089 170.208 199.726L174.775 201.944L172.601 203.217L168.363 201.153L168.143 201.285L170.12 204.666L168.231 205.764L163.137 197.003H163.159ZM165.969 197.464L167.309 199.748L167.726 199.506C168.714 198.935 168.978 198.232 168.495 197.442C168.297 197.112 168.034 196.937 167.66 196.871C167.287 196.827 166.87 196.937 166.431 197.2L165.991 197.464H165.969Z" fill="black"/>
<path d="M173.918 190.196L175.279 189.186L184.656 194.807L182.899 196.125L181.055 195.027L177.937 197.376L178.507 199.441L176.751 200.758L173.918 190.218V190.196ZM176.597 192.348L177.431 195.444L179.364 193.995L176.597 192.348Z" fill="black"/>
<path d="M184.504 180.994L186.041 179.501L193.112 186.77L191.597 188.263L183.691 186.791L188.259 191.491L186.7 193.006L179.629 185.737L181.188 184.222L189.071 185.65L184.526 180.972L184.504 180.994Z" fill="black"/>
<path d="M186.919 178.469L191.267 173.221L192.914 174.604L191.421 176.383L197.569 181.477L196.164 183.168L190.015 178.074L188.544 179.852L186.875 178.469H186.919Z" fill="black"/>
<path d="M192.211 171.969L195.461 167.27L197.108 168.411L195.11 171.31L196.8 172.474L198.799 169.575L200.424 170.695L198.425 173.594L200.16 174.78L202.158 171.881L203.805 173.023L200.555 177.722L192.233 171.947L192.211 171.969Z" fill="black"/>
<path d="M196.493 165.623L199.304 160.66L201.039 161.648L199.304 164.701L201.083 165.711L202.817 162.658L204.53 163.647L202.795 166.699L204.618 167.731L206.353 164.679L208.088 165.667L205.255 170.63L196.449 165.623H196.493Z" fill="black"/>
<path d="M43.1707 129.236L38.164 126.25L33.1353 129.236L34.409 123.549L30.0391 119.706L35.8363 119.157L38.164 113.799L40.4697 119.157L46.267 119.684L41.8971 123.549L43.1707 129.236Z" fill="url(#paint8_radial_6884_49753)"/>
<path style="mix-blend-mode:screen" d="M90.9755 192.326L124.024 124.252L89.1529 191.403C89.7678 191.711 90.3607 192.04 90.9755 192.326ZM83.3117 188.022L124.024 124.252L81.5989 186.902C82.1698 187.275 82.7408 187.648 83.3117 188V188.022ZM116.229 199.528L124.002 124.274L114.208 199.287C114.889 199.375 115.548 199.484 116.229 199.55V199.528ZM76.1749 182.883L124.002 124.274L74.6158 181.566C75.1429 182.005 75.6479 182.466 76.1749 182.883ZM107.555 198.123L124.002 124.274L105.578 197.662C106.237 197.837 106.896 197.969 107.577 198.123H107.555ZM99.0785 195.729L123.98 124.296L97.1461 195.049C97.7829 195.29 98.4197 195.51 99.0785 195.751V195.729ZM58.9808 162.988L123.98 124.296L57.9487 161.231C58.2781 161.824 58.6075 162.417 58.9589 163.01L58.9808 162.988ZM51.8001 146.958L124.002 124.296L51.2292 145.003C51.4049 145.662 51.6025 146.321 51.8001 146.98V146.958ZM49.692 138.438L124.002 124.274L49.3187 136.417C49.4285 137.098 49.5603 137.757 49.6701 138.438H49.692ZM54.9403 155.171L124.002 124.274L54.1278 153.282C54.3913 153.919 54.6768 154.534 54.9403 155.149V155.171ZM63.9436 170.257L124.002 124.274L62.7139 168.61C63.1092 169.159 63.5264 169.708 63.9436 170.257ZM124.002 199.946C124.354 199.946 124.683 199.924 125.012 199.924L124.002 124.296L122.97 199.924C123.322 199.924 123.651 199.946 124.002 199.946ZM142.426 197.662L124.002 124.274L140.45 198.123C141.109 197.969 141.789 197.837 142.448 197.662H142.426ZM193.877 153.282L124.002 124.274L193.064 155.171C193.35 154.556 193.613 153.919 193.877 153.304V153.282ZM185.269 168.61L123.98 124.274L184.039 170.257C184.456 169.708 184.852 169.159 185.269 168.61ZM190.012 161.209L123.98 124.274L188.98 162.966C189.331 162.373 189.661 161.78 189.99 161.187L190.012 161.209ZM196.753 144.981L123.98 124.274L196.183 146.936C196.38 146.277 196.556 145.618 196.753 144.959V144.981ZM199.433 129.698C199.476 129.017 199.52 128.336 199.564 127.656L124.002 124.274L199.454 129.698H199.433ZM198.664 136.417L124.002 124.274L198.313 138.438C198.444 137.779 198.554 137.098 198.664 136.417ZM179.735 175.417L124.002 124.274L178.33 176.888C178.813 176.405 179.274 175.922 179.735 175.417ZM158.852 191.403L123.98 124.252L157.029 192.326C157.644 192.018 158.237 191.711 158.852 191.403ZM150.815 195.005L123.98 124.252L148.882 195.685C149.519 195.466 150.178 195.224 150.815 194.983V195.005ZM48.5721 129.654L124.024 124.23L48.4623 127.612C48.4843 128.292 48.5501 128.973 48.5941 129.654H48.5721ZM133.818 199.243L124.024 124.23L131.798 199.484C132.479 199.419 133.159 199.309 133.818 199.221V199.243ZM166.428 186.902L124.002 124.252L164.693 188.022C165.264 187.648 165.857 187.297 166.406 186.902H166.428ZM173.389 181.544L124.002 124.252L171.83 182.861C172.357 182.422 172.862 181.983 173.389 181.544ZM69.675 176.888L124.002 124.274L68.2696 175.417C68.7307 175.922 69.2138 176.405 69.675 176.888ZM178.33 71.6373L124.002 124.274L179.735 73.1306C179.274 72.6255 178.813 72.1424 178.33 71.6593V71.6373ZM171.83 65.6644L124.002 124.274L173.389 66.982C172.884 66.5428 172.357 66.0816 171.83 65.6644ZM157.051 56.2L124.002 124.274L158.874 57.1442C158.259 56.8368 157.666 56.5074 157.051 56.2ZM164.715 60.504L124.024 124.274L166.45 61.6239C165.879 61.2506 165.308 60.8773 164.737 60.504H164.715ZM140.45 50.4247L124.002 124.274L142.426 50.8858C141.767 50.7101 141.109 50.5784 140.428 50.4247H140.45ZM148.904 52.8182L124.002 124.252L150.837 53.499C150.2 53.2574 149.563 53.0378 148.904 52.7963V52.8182ZM184.061 78.2691L124.002 124.252L185.291 79.916C184.895 79.367 184.478 78.818 184.061 78.2691ZM198.313 110.11L124.002 124.274L198.664 112.13C198.554 111.45 198.422 110.791 198.313 110.11ZM131.776 48.9973L124.002 124.252L133.796 49.2608C133.115 49.173 132.457 49.0632 131.776 48.9973ZM199.433 118.85L123.98 124.274L199.542 120.892C199.52 120.211 199.454 119.531 199.411 118.85H199.433ZM196.183 101.59L123.98 124.252L196.753 103.544C196.578 102.885 196.38 102.227 196.183 101.59ZM193.042 93.377L123.98 124.274L193.855 95.2655C193.591 94.6287 193.306 94.0139 193.042 93.399V93.377ZM188.98 85.5595L123.98 124.252L190.012 87.3163C189.683 86.7234 189.353 86.1305 189.002 85.5376L188.98 85.5595ZM81.555 61.6019L123.98 124.252L83.2678 60.482C82.6969 60.8553 82.104 61.2067 81.555 61.6019ZM57.9487 87.3163L123.98 124.252L58.9808 85.5595C58.6295 86.1524 58.3001 86.7453 57.9707 87.3382L57.9487 87.3163ZM54.0839 95.2216L123.958 124.23L54.8964 93.3331C54.6109 93.948 54.3254 94.5629 54.0839 95.1997V95.2216ZM68.2257 73.0867L123.958 124.23L69.6311 71.5934C69.148 72.0765 68.6868 72.5596 68.2257 73.0647V73.0867ZM62.67 79.894L123.958 124.23L63.8997 78.2471C63.4825 78.7961 63.0872 79.3451 62.67 79.894ZM49.2748 112.108L123.958 124.252L49.6481 110.088C49.5164 110.747 49.4066 111.428 49.2968 112.108H49.2748ZM51.1853 103.544L123.958 124.252L51.7562 101.59C51.5586 102.249 51.3829 102.907 51.1853 103.544ZM97.1241 53.499L123.958 124.252L99.0565 52.8182C98.4197 53.0378 97.7609 53.2794 97.1241 53.5209V53.499ZM105.513 50.8638L123.936 124.252L107.489 50.4027C106.83 50.5564 106.149 50.6882 105.491 50.8638H105.513ZM74.55 66.96L123.936 124.252L76.1091 65.6425C75.582 66.0816 75.077 66.5208 74.55 66.96ZM114.121 49.2389L123.914 124.23L116.141 48.9753C115.46 49.0412 114.779 49.151 114.121 49.2389ZM123.914 48.5801C123.563 48.5801 123.234 48.5801 122.882 48.602L123.914 124.23L124.925 48.602C124.573 48.602 124.244 48.5801 123.914 48.5801ZM89.0431 57.1003L123.914 124.23L90.8657 56.156C90.2509 56.4635 89.658 56.7709 89.0431 57.1003ZM48.3306 120.87L123.893 124.252L48.4403 118.828C48.3964 119.509 48.3525 120.189 48.3086 120.87H48.3306Z" fill="url(#paint9_radial_6884_49753)"/>
<path d="M65.3087 120.931C59.9055 120.931 56.3245 118.142 55.9918 114.022L55.9759 113.832H61.5217L61.5534 114.006C61.7436 115.305 63.1221 116.351 65.2929 116.351C67.4637 116.351 68.8105 115.226 68.8105 113.642V113.61C68.8105 111.772 67.3845 110.758 64.8492 110.758H62.3615V106.812H64.8175C67.0517 106.812 68.4144 105.751 68.4144 104.135V104.103C68.4144 102.534 67.2418 101.568 65.2612 101.568C63.2647 101.568 61.9654 102.582 61.8069 104.071L61.7911 104.214H56.5146L56.5305 103.992C56.8316 99.9039 60.1907 97.242 65.2612 97.242C70.4901 97.242 73.8176 99.6504 73.8176 103.311V103.342C73.8176 106.21 71.6785 108.033 69.0799 108.555V108.666C72.5183 109.015 74.7208 110.916 74.7208 113.943V113.974C74.7208 118.205 71.0605 120.931 65.3087 120.931ZM86.9216 120.931C80.837 120.931 77.1134 116.383 77.1134 109.094V109.062C77.1134 101.774 80.837 97.242 86.9216 97.242C93.0061 97.242 96.7139 101.774 96.7139 109.062V109.094C96.7139 116.383 93.0061 120.931 86.9216 120.931ZM86.9216 116.383C89.441 116.383 90.8354 113.737 90.8354 109.094V109.062C90.8354 104.42 89.441 101.79 86.9216 101.79C84.4022 101.79 82.992 104.42 82.992 109.062V109.094C82.992 113.737 84.4022 116.383 86.9216 116.383ZM105.999 120.519V97.6539H115.284C122.177 97.6539 126.249 101.647 126.249 108.92V108.952C126.249 116.256 122.177 120.519 115.284 120.519H105.999ZM111.814 115.828H114.524C118.311 115.828 120.339 113.531 120.339 108.967V108.936C120.339 104.658 118.184 102.344 114.524 102.344H111.814V115.828ZM126.661 120.519L134.362 97.6539H141.477L149.177 120.519H143.077L141.651 115.496H134.188L132.762 120.519H126.661ZM137.864 102.629L135.392 111.312H140.447L137.975 102.629H137.864ZM154.628 120.519V112.659L146.753 97.6539H152.933L157.48 107.161H157.591L162.139 97.6539H168.318L160.443 112.659V120.519H154.628ZM177.715 120.931C172.026 120.931 168.429 118.411 168.176 114.038L168.16 113.753H173.563L173.595 113.927C173.88 115.401 175.591 116.367 177.826 116.367C180.139 116.367 181.565 115.385 181.565 113.959V113.943C181.565 112.643 180.551 112.041 177.873 111.518L175.528 111.075C170.996 110.235 168.604 108.001 168.604 104.499V104.483C168.604 100.078 172.422 97.242 177.667 97.242C183.403 97.242 186.651 99.9356 186.857 104.087L186.873 104.42H181.47L181.454 104.246C181.28 102.74 179.806 101.805 177.715 101.805C175.575 101.805 174.371 102.772 174.371 104.087V104.103C174.371 105.339 175.449 105.989 177.905 106.448L180.25 106.892C185.098 107.827 187.348 109.791 187.348 113.452V113.467C187.348 118.031 183.767 120.931 177.715 120.931Z" fill="#FFEF98"/>
<path d="M65.3087 120.931C59.9055 120.931 56.3245 118.142 55.9918 114.022L55.9759 113.832H61.5217L61.5534 114.006C61.7436 115.305 63.1221 116.351 65.2929 116.351C67.4637 116.351 68.8105 115.226 68.8105 113.642V113.61C68.8105 111.772 67.3845 110.758 64.8492 110.758H62.3615V106.812H64.8175C67.0517 106.812 68.4144 105.751 68.4144 104.135V104.103C68.4144 102.534 67.2418 101.568 65.2612 101.568C63.2647 101.568 61.9654 102.582 61.8069 104.071L61.7911 104.214H56.5146L56.5305 103.992C56.8316 99.9039 60.1907 97.242 65.2612 97.242C70.4901 97.242 73.8176 99.6504 73.8176 103.311V103.342C73.8176 106.21 71.6785 108.033 69.0799 108.555V108.666C72.5183 109.015 74.7208 110.916 74.7208 113.943V113.974C74.7208 118.205 71.0605 120.931 65.3087 120.931ZM86.9216 120.931C80.837 120.931 77.1134 116.383 77.1134 109.094V109.062C77.1134 101.774 80.837 97.242 86.9216 97.242C93.0061 97.242 96.7139 101.774 96.7139 109.062V109.094C96.7139 116.383 93.0061 120.931 86.9216 120.931ZM86.9216 116.383C89.441 116.383 90.8354 113.737 90.8354 109.094V109.062C90.8354 104.42 89.441 101.79 86.9216 101.79C84.4022 101.79 82.992 104.42 82.992 109.062V109.094C82.992 113.737 84.4022 116.383 86.9216 116.383ZM105.999 120.519V97.6539H115.284C122.177 97.6539 126.249 101.647 126.249 108.92V108.952C126.249 116.256 122.177 120.519 115.284 120.519H105.999ZM111.814 115.828H114.524C118.311 115.828 120.339 113.531 120.339 108.967V108.936C120.339 104.658 118.184 102.344 114.524 102.344H111.814V115.828ZM126.661 120.519L134.362 97.6539H141.477L149.177 120.519H143.077L141.651 115.496H134.188L132.762 120.519H126.661ZM137.864 102.629L135.392 111.312H140.447L137.975 102.629H137.864ZM154.628 120.519V112.659L146.753 97.6539H152.933L157.48 107.161H157.591L162.139 97.6539H168.318L160.443 112.659V120.519H154.628ZM177.715 120.931C172.026 120.931 168.429 118.411 168.176 114.038L168.16 113.753H173.563L173.595 113.927C173.88 115.401 175.591 116.367 177.826 116.367C180.139 116.367 181.565 115.385 181.565 113.959V113.943C181.565 112.643 180.551 112.041 177.873 111.518L175.528 111.075C170.996 110.235 168.604 108.001 168.604 104.499V104.483C168.604 100.078 172.422 97.242 177.667 97.242C183.403 97.242 186.651 99.9356 186.857 104.087L186.873 104.42H181.47L181.454 104.246C181.28 102.74 179.806 101.805 177.715 101.805C175.575 101.805 174.371 102.772 174.371 104.087V104.103C174.371 105.339 175.449 105.989 177.905 106.448L180.25 106.892C185.098 107.827 187.348 109.791 187.348 113.452V113.467C187.348 118.031 183.767 120.931 177.715 120.931Z" fill="url(#paint10_linear_6884_49753)" fill-opacity="0.47"/>
<path d="M56.1208 144.334V129.635H59.6758L63.8521 140.198H63.9132L68.0896 129.635H71.6446V144.334H68.9045V134.392H68.8128L64.8504 144.334H62.915L58.9424 134.392H58.8609V144.334H56.1208ZM80.7205 144.589C76.3506 144.589 73.6309 141.665 73.6309 136.99V136.969C73.6309 132.294 76.3709 129.381 80.7205 129.381C85.0801 129.381 87.81 132.304 87.81 136.969V136.99C87.81 141.665 85.0903 144.589 80.7205 144.589ZM80.7205 141.981C83.1651 141.981 84.6727 140.035 84.6727 136.99V136.969C84.6727 133.903 83.1346 131.988 80.7205 131.988C78.3165 131.988 76.7682 133.893 76.7682 136.969V136.99C76.7682 140.066 78.3063 141.981 80.7205 141.981ZM89.7964 144.334V129.635H92.4855L99.1269 139.19H99.188V129.635H102.254V144.334H99.5853L92.9235 134.708H92.8624V144.334H89.7964ZM104.709 144.334V129.635H114.447V132.172H107.785V135.696H114.07V138.1H107.785V141.798H114.447V144.334H104.709ZM120.844 144.334V138.844L115.73 129.635H119.051L122.351 135.91H122.423L125.713 129.635H129.044L123.92 138.844V144.334H120.844ZM134.677 144.334V129.635H141.074C143.844 129.635 145.586 131.061 145.586 133.323V133.343C145.586 134.952 144.364 136.328 142.744 136.542V136.603C144.792 136.755 146.269 138.202 146.269 140.127V140.147C146.269 142.725 144.323 144.334 141.186 144.334H134.677ZM140.279 131.917H137.753V135.778H139.902C141.634 135.778 142.561 135.054 142.561 133.781V133.761C142.561 132.589 141.715 131.917 140.279 131.917ZM140.269 137.866H137.753V142.042H140.401C142.164 142.042 143.131 141.319 143.131 139.954V139.934C143.131 138.589 142.153 137.866 140.269 137.866ZM147.084 144.334L152.217 129.635H155.833L160.957 144.334H157.728L156.618 140.769H151.423L150.313 144.334H147.084ZM153.99 132.487L152.136 138.467H155.905L154.051 132.487H153.99ZM168.291 144.589C163.993 144.589 161.293 141.716 161.293 136.98V136.969C161.293 132.233 164.003 129.381 168.291 129.381C171.856 129.381 174.413 131.632 174.698 134.749L174.709 134.84H171.714L171.673 134.667C171.327 133.048 170.125 131.988 168.291 131.988C165.938 131.988 164.431 133.883 164.431 136.959V136.969C164.431 140.066 165.938 141.981 168.291 141.981C170.064 141.981 171.306 140.962 171.704 139.221L171.724 139.119H174.719L174.709 139.231C174.423 142.358 171.846 144.589 168.291 144.589ZM176.624 144.334V129.635H179.7V136.358H179.771L185.16 129.635H188.582L183.316 136.124L188.959 144.334H185.282L181.075 138.131L179.7 139.832V144.334H176.624Z" fill="#FFEF98"/>
</g>
<defs>
<linearGradient id="paint0_linear_6884_49753" x1="0" y1="123.417" x2="246.142" y2="123.417" gradientUnits="userSpaceOnUse">
<stop stop-color="#EEBE47"/>
<stop offset="0.12" stop-color="#F8DB76"/>
<stop offset="0.21" stop-color="#FFEE96"/>
<stop offset="0.45" stop-color="#A2621E"/>
<stop offset="0.67" stop-color="#EEA54C"/>
<stop offset="1" stop-color="#EEBE47"/>
</linearGradient>
<linearGradient id="paint1_linear_6884_49753" x1="36.8238" y1="37.2267" x2="250.51" y2="250.913" gradientUnits="userSpaceOnUse">
<stop stop-color="#EEBE47"/>
<stop offset="0.12" stop-color="#F8DB76"/>
<stop offset="0.21" stop-color="#FFEE96"/>
<stop offset="0.45" stop-color="#A2621E"/>
<stop offset="0.67" stop-color="#EEA54C"/>
<stop offset="1" stop-color="#EEBE47"/>
</linearGradient>
<radialGradient id="paint2_radial_6884_49753" cx="0" cy="0" r="1" gradientUnits="userSpaceOnUse" gradientTransform="translate(122.861 123.286) rotate(-180) scale(108.215)">
<stop offset="0.1" stop-color="#CB1919"/>
<stop offset="0.39" stop-color="#900808"/>
<stop offset="0.56" stop-color="#700000"/>
<stop offset="1" stop-color="#2B0000"/>
</radialGradient>
<linearGradient id="paint3_linear_6884_49753" x1="200.09" y1="200.494" x2="23.0765" y2="23.5023" gradientUnits="userSpaceOnUse">
<stop stop-color="#EEBE47"/>
<stop offset="0.12" stop-color="#F8DB76"/>
<stop offset="0.21" stop-color="#FFEE96"/>
<stop offset="0.45" stop-color="#A2621E"/>
<stop offset="0.67" stop-color="#EEA54C"/>
<stop offset="1" stop-color="#EEBE47"/>
</linearGradient>
<linearGradient id="paint4_linear_6884_49753" x1="46.5086" y1="59.7796" x2="197.391" y2="185.255" gradientUnits="userSpaceOnUse">
<stop stop-color="#EEBE47"/>
<stop offset="0.12" stop-color="#F8DB76"/>
<stop offset="0.21" stop-color="#FFEE96"/>
<stop offset="0.45" stop-color="#A2621E"/>
<stop offset="0.67" stop-color="#EEA54C"/>
<stop offset="1" stop-color="#EEBE47"/>
</linearGradient>
<linearGradient id="paint5_linear_6884_49753" x1="181.298" y1="181.697" x2="52.1991" y2="52.6204" gradientUnits="userSpaceOnUse">
<stop stop-color="#EEBE47"/>
<stop offset="0.12" stop-color="#F8DB76"/>
<stop offset="0.21" stop-color="#FFEE96"/>
<stop offset="0.45" stop-color="#A2621E"/>
<stop offset="0.67" stop-color="#EEA54C"/>
<stop offset="1" stop-color="#EEBE47"/>
</linearGradient>
<radialGradient id="paint6_radial_6884_49753" cx="0" cy="0" r="1" gradientUnits="userSpaceOnUse" gradientTransform="translate(45.6314 -18.7028) scale(219.681 219.681)">
<stop offset="0.1" stop-color="#CB1919"/>
<stop offset="0.39" stop-color="#900808"/>
<stop offset="0.56" stop-color="#700000"/>
<stop offset="1" stop-color="#2B0000"/>
</radialGradient>
<radialGradient id="paint7_radial_6884_49753" cx="0" cy="0" r="1" gradientUnits="userSpaceOnUse" gradientTransform="translate(164.19 -10.4906) scale(205.166 205.166)">
<stop stop-color="#FFC94C"/>
<stop offset="0.14" stop-color="#A2621E"/>
<stop offset="0.16" stop-color="#955A1B"/>
<stop offset="0.25" stop-color="#6E4214"/>
<stop offset="0.34" stop-color="#4C2E0E"/>
<stop offset="0.44" stop-color="#301D08"/>
<stop offset="0.55" stop-color="#1A1004"/>
<stop offset="0.66" stop-color="#0B0702"/>
<stop offset="0.8" stop-color="#020100"/>
<stop offset="1"/>
</radialGradient>
<radialGradient id="paint8_radial_6884_49753" cx="0" cy="0" r="1" gradientUnits="userSpaceOnUse" gradientTransform="translate(127.077 239.055) scale(321.55 321.55)">
<stop offset="0.1" stop-color="#CB1919"/>
<stop offset="0.39" stop-color="#900808"/>
<stop offset="0.56" stop-color="#700000"/>
<stop offset="1" stop-color="#2B0000"/>
</radialGradient>
<radialGradient id="paint9_radial_6884_49753" cx="0" cy="0" r="1" gradientUnits="userSpaceOnUse" gradientTransform="translate(62.9554 28.4434) scale(198.007 198.007)">
<stop stop-color="#FFF1D1"/>
<stop offset="0.05" stop-color="#FFC94C"/>
<stop offset="0.14" stop-color="#A2621E"/>
<stop offset="0.17" stop-color="#91571A"/>
<stop offset="0.25" stop-color="#6A4013"/>
<stop offset="0.34" stop-color="#492C0D"/>
<stop offset="0.43" stop-color="#2E1C08"/>
<stop offset="0.54" stop-color="#190F04"/>
<stop offset="0.65" stop-color="#0B0602"/>
<stop offset="0.79" stop-color="#020100"/>
<stop offset="1"/>
</radialGradient>
<linearGradient id="paint10_linear_6884_49753" x1="54.8984" y1="109.519" x2="188.898" y2="109.519" gradientUnits="userSpaceOnUse">
<stop stop-color="#FC9100"/>
<stop offset="1" stop-color="#FFCE00"/>
</linearGradient>
<clipPath id="clip0_6884_49753">
<rect width="246.142" height="246.296" fill="white" transform="translate(0 0.269531)"/>
</clipPath>
</defs>
</svg>
