<svg width="106" height="72" viewBox="0 0 106 72" fill="none" xmlns="http://www.w3.org/2000/svg">
<path d="M103.182 33.2071L36.2329 8.79105C35.6527 8.57948 35.0173 8.52087 34.4063 8.63319L18.6813 11.4209C17.515 11.6277 16.5492 12.4406 16.1422 13.5566L10.1772 29.8949C9.77016 31.011 9.98591 32.2548 10.7452 33.1639L20.9836 45.4203C21.3794 45.8994 21.8995 46.2566 22.483 46.4754L89.4317 70.8914C90.9853 71.458 92.7102 70.6551 93.2767 69.1015L104.964 37.0549C105.538 35.498 104.735 33.7736 103.182 33.2071ZM18.1133 26.4549C16.6914 25.9359 15.9548 24.3536 16.473 22.9314C16.9918 21.5089 18.5746 20.772 19.9971 21.2908C21.4196 21.8096 22.1562 23.3919 21.6374 24.8143C21.122 26.2441 19.5391 26.9809 18.1133 26.4549Z" fill="#ED1C24"/>
<path d="M6.87779 19.4314C6.63035 20.1099 6.98148 20.8641 7.66332 21.1188L17.6304 24.7538C18.3089 25.0012 19.0632 24.6501 19.3179 23.9683C19.5653 23.2898 19.2144 22.5361 18.5326 22.2814L8.55736 18.6495C7.87608 18.3945 7.12184 18.7457 6.87779 19.4314Z" fill="#333333"/>
<path d="M74.1168 39.0074C74.51 39.5598 75.0517 39.962 75.708 40.2014C76.3423 40.4327 76.9936 40.4655 77.6615 40.3002C78.3214 40.1379 78.9211 39.7866 79.4547 39.2742C79.9852 38.7552 80.3939 38.1105 80.6764 37.3524C80.9597 36.5757 81.0693 35.8158 81.009 35.0813C80.9484 34.3462 80.7198 33.6988 80.33 33.1538C79.936 32.6011 79.4058 32.203 78.7201 31.959C78.0416 31.7116 77.369 31.671 76.7189 31.8368C76.0625 32.0064 75.4703 32.3548 74.9476 32.8703C74.4208 33.3972 74.0121 34.0419 73.7321 34.8259C73.4533 35.5918 73.3474 36.3404 73.4186 37.0794C73.487 37.8108 73.7156 38.4582 74.1168 39.0074ZM76.8104 34.1201C77.2132 33.7959 77.6138 33.7006 78.0219 33.8555C78.4488 34.0111 78.7013 34.3385 78.7867 34.8348C78.8727 35.3308 78.7899 35.9143 78.5539 36.5779C78.3148 37.2348 78.0028 37.7161 77.6062 38.0552C77.2138 38.3827 76.8099 38.4708 76.4051 38.3231C75.9785 38.168 75.7258 37.8401 75.637 37.3365C75.5481 36.833 75.6231 36.2531 75.8625 35.5968C76.0909 34.936 76.4102 34.4513 76.8104 34.1201Z" fill="white"/>
<path d="M72.7508 45.6924C72.6429 45.9882 72.6716 46.2837 72.8403 46.5685C73.0095 46.853 73.2252 47.0431 73.477 47.1354C73.8053 47.2546 74.1567 47.1911 74.5319 46.9436L87.6386 37.2631C87.8685 37.0745 88.0177 36.8866 88.0856 36.7006C88.1932 36.4056 88.1644 36.1101 87.9958 35.8254C87.8272 35.5406 87.6112 35.35 87.3597 35.2582C87.0314 35.139 86.6794 35.2028 86.3042 35.4503L73.1975 45.1307C72.9676 45.3194 72.8187 45.5064 72.7508 45.6924Z" fill="white"/>
<path d="M86.0151 49.6007C86.5453 49.0811 86.9543 48.437 87.2365 47.6783C87.5198 46.9016 87.6296 46.1423 87.5691 45.4072C87.5088 44.6727 87.2836 44.0326 86.8901 43.4797C86.4964 42.9276 85.9659 42.529 85.2804 42.2855C84.602 42.038 83.9363 41.9935 83.2793 42.1633C82.6226 42.3323 82.0309 42.6805 81.508 43.1967C80.9775 43.7158 80.5722 44.3678 80.2889 45.1446C80.01 45.9104 79.915 46.6635 79.9974 47.4061C80.0799 48.1487 80.3199 48.8002 80.7131 49.3526C81.1138 49.9021 81.6261 50.2997 82.2715 50.5346C82.906 50.7664 83.5574 50.7993 84.2253 50.6339C84.8823 50.4641 85.4773 50.1232 86.0151 49.6007ZM84.1629 48.3738C83.7705 48.7014 83.3669 48.79 82.9546 48.6452C82.5279 48.49 82.2752 48.1621 82.1864 47.6585C82.097 47.1552 82.1726 46.5752 82.4153 45.9261C82.6547 45.2698 82.9739 44.7851 83.3661 44.4569C83.7697 44.133 84.1736 44.0449 84.5784 44.1926C85.0053 44.3483 85.2577 44.6757 85.3395 45.1641C85.425 45.6604 85.3427 46.2436 85.107 46.9078C84.8715 47.5534 84.5556 48.0454 84.1629 48.3738Z" fill="white"/>
<path d="M73.7299 50.1966C73.3458 49.7033 72.8437 49.3465 72.2201 49.1191C71.5965 48.8917 70.9826 48.8414 70.3675 48.9638C69.756 49.0941 69.2179 49.363 68.7382 49.7951C68.2657 50.2239 67.9157 50.7597 67.6839 51.3941C67.4528 52.0289 67.3757 52.6641 67.4612 53.2964C67.5468 53.9287 67.7815 54.4915 68.1729 54.9815C68.557 55.4748 69.0591 55.8315 69.6827 56.0589C70.3065 56.2869 70.9204 56.3372 71.5319 56.2069C72.1439 56.0765 72.6893 55.8042 73.1618 55.3754C73.6377 54.9538 73.9879 54.4187 74.2267 53.7803C74.458 53.1461 74.5349 52.5103 74.4387 51.8741C74.3487 51.2527 74.1139 50.6899 73.7299 50.1966ZM72.2859 54.4117C71.983 54.6976 71.6428 54.8832 71.2605 54.9795C70.8787 55.0756 70.4924 55.0466 70.1094 54.9065C69.7156 54.7633 69.4086 54.5335 69.1744 54.2248C68.9475 53.9127 68.8064 53.5512 68.7665 53.1337C68.7266 52.7162 68.7863 52.298 68.938 51.864C69.0937 51.4371 69.3254 51.0755 69.6241 50.782C69.9234 50.4883 70.2639 50.3019 70.6387 50.2097C71.0132 50.117 71.3995 50.146 71.7936 50.2898C72.1763 50.4293 72.483 50.6586 72.7209 50.9751C72.9514 51.295 73.0922 51.656 73.14 52.0698C73.1872 52.4839 73.1275 52.9022 72.9752 53.3364C72.82 53.763 72.5886 54.1252 72.2859 54.4117Z" fill="white"/>
<path d="M80.3062 52.1856L77.1769 51.0443C77.013 50.9845 76.8504 50.9875 76.6939 51.0603C76.5368 51.1335 76.4377 51.2524 76.3707 51.4196L74.3395 56.9891C74.2759 57.1636 74.2788 57.3262 74.3555 57.4721C74.425 57.6214 74.5582 57.7322 74.7333 57.7956C74.8972 57.8553 75.0564 57.8452 75.2164 57.7795C75.3766 57.7145 75.4834 57.5919 75.5505 57.4247L76.3687 55.1812L78.4475 55.9393C78.6116 55.9996 78.7734 55.9964 78.9227 55.9269C79.0725 55.8572 79.1786 55.7534 79.2303 55.6116C79.2898 55.4472 79.2872 55.2851 79.2104 55.1392C79.1337 54.9933 79.022 54.8909 78.8467 54.8269L76.7679 54.0688L77.3867 52.3732L79.9031 53.2909C80.0669 53.3507 80.2295 53.3478 80.3788 53.2783C80.5281 53.2088 80.6342 53.105 80.6856 52.9627C80.746 52.7985 80.7431 52.6359 80.6657 52.4903C80.589 52.3444 80.4701 52.2453 80.3062 52.1856Z" fill="white"/>
<path d="M85.1439 55.2023C85.3078 55.262 85.4704 55.2591 85.6197 55.1896C85.769 55.1201 85.8751 55.0163 85.9265 54.874C85.9868 54.7099 85.9839 54.5473 85.9066 54.4016C85.8298 54.2557 85.7148 54.146 85.5437 54.0896L82.4144 52.9484C82.2503 52.8881 82.0879 52.8915 81.9314 52.9644C81.7743 53.0376 81.6749 53.1559 81.6082 53.3237L79.5767 58.8926C79.5134 59.0677 79.516 59.2297 79.5928 59.3756C79.6623 59.5249 79.7955 59.6357 79.9708 59.6996C80.1347 59.7594 80.2936 59.7487 80.4538 59.6836C80.6138 59.618 80.7207 59.4955 80.7877 59.3282L81.6062 57.0853L83.685 57.8434C83.8489 57.9032 84.0109 57.9005 84.1602 57.831C84.3095 57.7615 84.4156 57.6577 84.4676 57.5151C84.5273 57.3513 84.5247 57.1892 84.4477 57.0428C84.3703 56.8971 84.2559 56.7871 84.0842 56.731L82.0053 55.9729L82.6239 54.2767L85.1439 55.2023Z" fill="white"/>
<path d="M38.5932 45.3887C34.3208 43.8293 32.1306 40.6021 33.2606 37.5061C34.1194 35.1532 36.4859 34.0523 39.0973 34.4721L39.1244 34.3978C37.209 33.1093 36.3408 31.0663 37.0504 29.122C38.0629 26.348 41.5286 25.3114 45.4047 26.7262C49.2809 28.1409 51.2562 31.1493 50.2347 33.9481C49.5341 35.8676 47.5664 36.8755 45.2792 36.6442L45.2521 36.7185C47.5154 38.0919 48.604 40.4539 47.7452 42.8068C46.6152 45.9028 42.8533 46.9435 38.5932 45.3887ZM42.6069 34.3918C44.2911 35.0065 45.8754 34.434 46.4087 32.9727C46.9466 31.499 46.1036 30.0406 44.4194 29.4259C42.7228 28.8066 41.1509 29.3837 40.6131 30.8574C40.0797 32.3187 40.9103 33.7726 42.6069 34.3918ZM39.5876 42.6642C41.5566 43.3829 43.3437 42.716 43.9358 41.0937C44.5234 39.4838 43.5816 37.8349 41.6125 37.1162C39.6435 36.3976 37.8485 37.0476 37.2609 38.6575C36.6688 40.2798 37.6186 41.9455 39.5876 42.6642Z" fill="white"/>
<path d="M50.0072 49.1055C48.8307 48.6761 48.4882 47.8073 48.8317 46.8661C49.0894 46.1603 49.5336 45.7891 50.5421 45.3713L57.7248 42.2251C60.7021 40.912 61.5881 40.2531 62.0582 38.9651C62.5961 37.4915 61.8409 36.023 60.2434 35.4399C58.8069 34.9156 57.554 35.2723 56.3858 36.4738C55.6935 37.0631 55.1335 37.2517 54.3286 36.9579C53.3255 36.5918 52.948 35.7804 53.287 34.8516C53.391 34.5668 53.5354 34.3248 53.717 34.0964C55.047 32.3364 57.962 31.3094 61.3428 32.5433C65.1322 33.9264 66.9059 36.9875 65.7849 40.0587C64.9894 42.2383 63.4272 43.2118 59.4967 44.9067L54.277 47.2116L54.2498 47.2859L60.9867 49.7448C61.9526 50.0973 62.3222 50.8918 61.9923 51.7958C61.6713 52.6751 60.8678 53.0694 59.9019 52.7169L50.0072 49.1055Z" fill="white"/>
</svg>
