<svg width="897" height="580" viewBox="0 0 897 580" fill="none" xmlns="http://www.w3.org/2000/svg">
<g clip-path="url(#clip0_6924_6575)">
<g opacity="0.3">
<rect x="517" y="-7" width="118" height="105" fill="url(#paint0_linear_6924_6575)"/>
<rect x="753" y="98" width="116" height="105" fill="url(#paint1_linear_6924_6575)"/>
<rect x="517" y="203" width="117" height="106" fill="url(#paint2_linear_6924_6575)"/>
<rect x="168" y="-8" width="117" height="104" fill="url(#paint3_linear_6924_6575)"/>
<rect x="285" y="204" width="116" height="105" fill="url(#paint4_linear_6924_6575)"/>
</g>
<path fill-rule="evenodd" clip-rule="evenodd" d="M-67.3009 627.139V706.585H-65.9294V627.139H49.6873V706.585H51.0589V627.139H166.676V706.585H168.047V627.139H283.664V706.585H285.035V627.139H400.652V706.585H402.024V627.139H517.64V706.585H519.012V627.139H634.629V706.585H636V627.139H751.617V706.585H752.988V627.139H868.605V706.585H869.977V627.139H985.594V706.585H986.965V627.139H1102.58V706.585H1103.95V627.139H1173.63V625.767H1103.95V521.374H1173.63V520.003H1103.95V415.61H1173.63V414.238H1103.95V309.845H1173.63V308.474H1103.95V204.081H1173.63V202.709H1103.95V98.3165H1173.63V96.9449H1103.95V-7.44803H1173.63V-8.81961H1103.95V-113.213H1173.63V-114.584H1103.95V-218.977H1173.63V-220.349H1103.95V-324.741H1173.63V-326.113H1103.95V-328H1102.58V-326.113H986.965V-328H985.594V-326.113H869.977V-328H868.605V-326.113H752.988V-328H751.617V-326.113H636V-328H634.629V-326.113H519.012V-328H517.64V-326.113H402.024V-328H400.652V-326.113H285.035V-328H283.664V-326.113H168.047V-328H166.676V-326.113H51.0589V-328H49.6873V-326.113H-65.9294V-328H-67.3009V-326.113H-74V-324.741H-67.3009V-220.349H-74V-218.977H-67.3009V-114.584H-74V-113.213H-67.3009V-8.81961H-74V-7.44803H-67.3009V96.9449H-74V98.3165H-67.3009V202.709H-74V204.081H-67.3009V308.474H-74V309.845H-67.3009V414.238H-74V415.61H-67.3009V520.003H-74V521.374H-67.3009V625.767H-74V627.139H-67.3009ZM1102.58 -324.741H986.965V-220.349H1102.58V-324.741ZM1102.58 -218.977H986.965V-114.584H1102.58V-218.977ZM1102.58 -113.213H986.965V-8.81961H1102.58V-113.213ZM1102.58 -7.44803H986.965V96.9449H1102.58V-7.44803ZM1102.58 98.3165H986.965V202.709H1102.58V98.3165ZM1102.58 204.081H986.965V308.474H1102.58V204.081ZM1102.58 309.845H986.965V414.238H1102.58V309.845ZM1102.58 415.61H986.965V520.003H1102.58V415.61ZM1102.58 521.374H986.965V625.767H1102.58V521.374ZM985.594 521.374V625.767H869.977V521.374H985.594ZM985.594 415.61V520.003H869.977V415.61H985.594ZM985.594 309.845V414.238H869.977V309.845H985.594ZM985.594 204.081V308.474H869.977V204.081H985.594ZM985.594 98.3165V202.709H869.977V98.3165H985.594ZM985.594 -7.44803V96.9449H869.977V-7.44803H985.594ZM985.594 -113.213V-8.81961H869.977V-113.213H985.594ZM985.594 -218.977V-114.584H869.977V-218.977H985.594ZM985.594 -324.741V-220.349H869.977V-324.741H985.594ZM868.605 -324.741H752.988V-220.349H868.605V-324.741ZM868.605 -218.977H752.988V-114.584H868.605V-218.977ZM868.605 -113.213H752.988V-8.81961H868.605V-113.213ZM868.605 -7.44803H752.988V96.9449H868.605V-7.44803ZM868.605 98.3165H752.988V202.709H868.605V98.3165ZM868.605 204.081H752.988V308.474H868.605V204.081ZM868.605 309.845H752.988V414.238H868.605V309.845ZM868.605 415.61H752.988V520.003H868.605V415.61ZM868.605 521.374H752.988V625.767H868.605V521.374ZM751.617 521.374V625.767H636V521.374H751.617ZM751.617 415.61V520.003H636V415.61H751.617ZM751.617 309.845V414.238H636V309.845H751.617ZM751.617 204.081V308.474H636V204.081H751.617ZM751.617 98.3165V202.709H636V98.3165H751.617ZM751.617 -7.44803V96.9449H636V-7.44803H751.617ZM751.617 -113.213V-8.81961H636V-113.213H751.617ZM751.617 -218.977V-114.584H636V-218.977H751.617ZM751.617 -324.741V-220.349H636V-324.741H751.617ZM634.629 -324.741H519.012V-220.349H634.629V-324.741ZM634.629 -218.977H519.012V-114.584H634.629V-218.977ZM634.629 -113.213H519.012V-8.81961H634.629V-113.213ZM634.629 -7.44803H519.012V96.9449H634.629V-7.44803ZM634.629 98.3165H519.012V202.709H634.629V98.3165ZM634.629 204.081H519.012V308.474H634.629V204.081ZM634.629 309.845H519.012V414.238H634.629V309.845ZM634.629 415.61H519.012V520.003H634.629V415.61ZM634.629 521.374H519.012V625.767H634.629V521.374ZM517.64 521.374V625.767H402.024V521.374H517.64ZM517.64 415.61V520.003H402.024V415.61H517.64ZM517.64 309.845V414.238H402.024V309.845H517.64ZM517.64 204.081V308.474H402.024V204.081H517.64ZM517.64 98.3165V202.709H402.024V98.3165H517.64ZM517.64 -7.44803V96.9449H402.024V-7.44803H517.64ZM517.64 -113.213V-8.81961H402.024V-113.213H517.64ZM517.64 -218.977V-114.584H402.024V-218.977H517.64ZM517.64 -324.741V-220.349H402.024V-324.741H517.64ZM400.652 -324.741H285.035V-220.349H400.652V-324.741ZM400.652 -218.977H285.035V-114.584H400.652V-218.977ZM400.652 -113.213H285.035V-8.81961H400.652V-113.213ZM400.652 -7.44803H285.035V96.9449H400.652V-7.44803ZM400.652 98.3165H285.035V202.709H400.652V98.3165ZM400.652 204.081H285.035V308.474H400.652V204.081ZM400.652 309.845H285.035V414.238H400.652V309.845ZM400.652 415.61H285.035V520.003H400.652V415.61ZM400.652 521.374H285.035V625.767H400.652V521.374ZM283.664 521.374V625.767H168.047V521.374H283.664ZM283.664 415.61V520.003H168.047V415.61H283.664ZM283.664 309.845V414.238H168.047V309.845H283.664ZM283.664 204.081V308.474H168.047V204.081H283.664ZM283.664 98.3165V202.709H168.047V98.3165H283.664ZM283.664 -7.44803V96.9449H168.047V-7.44803H283.664ZM283.664 -113.213V-8.81961H168.047V-113.213H283.664ZM283.664 -218.977V-114.584H168.047V-218.977H283.664ZM283.664 -324.741V-220.349H168.047V-324.741H283.664ZM166.676 -324.741H51.0589V-220.349H166.676V-324.741ZM166.676 -218.977H51.0589V-114.584H166.676V-218.977ZM166.676 -113.213H51.0589V-8.81961H166.676V-113.213ZM166.676 -7.44803H51.0589V96.9449H166.676V-7.44803ZM166.676 98.3165H51.0589V202.709H166.676V98.3165ZM166.676 204.081H51.0589V308.474H166.676V204.081ZM166.676 309.845H51.0589V414.238H166.676V309.845ZM166.676 415.61H51.0589V520.003H166.676V415.61ZM166.676 521.374H51.0589V625.767H166.676V521.374ZM49.6873 521.374V625.767H-65.9294V521.374H49.6873ZM49.6873 415.61V520.003H-65.9294V415.61H49.6873ZM49.6873 309.845V414.238H-65.9294V309.845H49.6873ZM49.6873 204.081V308.474H-65.9294V204.081H49.6873ZM49.6873 98.3165V202.709H-65.9294V98.3165H49.6873ZM49.6873 -7.44803V96.9449H-65.9294V-7.44803H49.6873ZM49.6873 -113.213V-8.81961H-65.9294V-113.213H49.6873ZM49.6873 -218.977V-114.584H-65.9294V-218.977H49.6873ZM49.6873 -324.741V-220.349H-65.9294V-324.741H49.6873ZM1173.63 732.903H-74V731.532H1173.63V732.903ZM1219.57 706.585V-328H1220.94V706.585H1219.57ZM1336.56 -328V706.585H1337.93V-328H1336.56Z" fill="url(#paint5_radial_6924_6575)"/>
</g>
<defs>
<linearGradient id="paint0_linear_6924_6575" x1="647.907" y1="-30.5754" x2="588.517" y2="103.543" gradientUnits="userSpaceOnUse">
<stop stop-color="#4ADA85" stop-opacity="0.4"/>
<stop offset="1" stop-color="#4ADA85" stop-opacity="0"/>
</linearGradient>
<linearGradient id="paint1_linear_6924_6575" x1="881.688" y1="74.4246" x2="821.616" y2="207.782" gradientUnits="userSpaceOnUse">
<stop stop-color="#4ADA85" stop-opacity="0.4"/>
<stop offset="1" stop-color="#4ADA85" stop-opacity="0"/>
</linearGradient>
<linearGradient id="paint2_linear_6924_6575" x1="646.797" y1="179.2" x2="586.118" y2="313.787" gradientUnits="userSpaceOnUse">
<stop stop-color="#4ADA85" stop-opacity="0.4"/>
<stop offset="1" stop-color="#4ADA85" stop-opacity="0"/>
</linearGradient>
<linearGradient id="paint3_linear_6924_6575" x1="297.797" y1="-31.3509" x2="239.015" y2="101.536" gradientUnits="userSpaceOnUse">
<stop stop-color="#4ADA85" stop-opacity="0.4"/>
<stop offset="1" stop-color="#4ADA85" stop-opacity="0"/>
</linearGradient>
<linearGradient id="paint4_linear_6924_6575" x1="413.688" y1="180.425" x2="353.616" y2="313.782" gradientUnits="userSpaceOnUse">
<stop stop-color="#4ADA85" stop-opacity="0.4"/>
<stop offset="1" stop-color="#4ADA85" stop-opacity="0"/>
</linearGradient>
<radialGradient id="paint5_radial_6924_6575" cx="0" cy="0" r="1" gradientUnits="userSpaceOnUse" gradientTransform="translate(631.159 -127.614) rotate(90) scale(559.803 743.788)">
<stop stop-color="#C1E1C6" stop-opacity="0.6"/>
<stop offset="1" stop-color="#C1E1C6" stop-opacity="0"/>
</radialGradient>
<clipPath id="clip0_6924_6575">
<rect width="897" height="580" fill="white"/>
</clipPath>
</defs>
</svg>
