<svg width="42" height="43" viewBox="0 0 42 43" fill="none" xmlns="http://www.w3.org/2000/svg">
<g clip-path="url(#clip0_6884_49446)">
<rect width="18" height="18" transform="translate(12 12.0215)" fill="white" fill-opacity="0.01"/>
<path fill-rule="evenodd" clip-rule="evenodd" d="M13.6875 18.0215C13.6875 17.7108 13.9393 17.459 14.25 17.459H16.5C16.8107 17.459 17.0625 17.7108 17.0625 18.0215C17.0625 18.3321 16.8107 18.584 16.5 18.584H14.25C13.9393 18.584 13.6875 18.3321 13.6875 18.0215Z" fill="#1E1E1E"/>
<path fill-rule="evenodd" clip-rule="evenodd" d="M13.6875 24.0215C13.6875 23.7108 13.9393 23.459 14.25 23.459H18.75C19.0607 23.459 19.3125 23.7108 19.3125 24.0215C19.3125 24.3321 19.0607 24.584 18.75 24.584H14.25C13.9393 24.584 13.6875 24.3321 13.6875 24.0215Z" fill="#1E1E1E"/>
<path fill-rule="evenodd" clip-rule="evenodd" d="M24.9375 24.0215C24.9375 23.7108 25.1893 23.459 25.5 23.459H27.75C28.0607 23.459 28.3125 23.7108 28.3125 24.0215C28.3125 24.3321 28.0607 24.584 27.75 24.584H25.5C25.1893 24.584 24.9375 24.3321 24.9375 24.0215Z" fill="#1E1E1E"/>
<path fill-rule="evenodd" clip-rule="evenodd" d="M22.6875 18.0215C22.6875 17.7108 22.9393 17.459 23.25 17.459H27.75C28.0607 17.459 28.3125 17.7108 28.3125 18.0215C28.3125 18.3321 28.0607 18.584 27.75 18.584H23.25C22.9393 18.584 22.6875 18.3321 22.6875 18.0215Z" fill="#1E1E1E"/>
<path fill-rule="evenodd" clip-rule="evenodd" d="M23.25 22.334C22.318 22.334 21.5625 23.0895 21.5625 24.0215C21.5625 24.9535 22.318 25.709 23.25 25.709C24.182 25.709 24.9375 24.9535 24.9375 24.0215C24.9375 23.0895 24.182 22.334 23.25 22.334ZM20.4375 24.0215C20.4375 22.4682 21.6967 21.209 23.25 21.209C24.8033 21.209 26.0625 22.4682 26.0625 24.0215C26.0625 25.5748 24.8033 26.834 23.25 26.834C21.6967 26.834 20.4375 25.5748 20.4375 24.0215Z" fill="#1E1E1E"/>
<path fill-rule="evenodd" clip-rule="evenodd" d="M18.75 16.334C17.818 16.334 17.0625 17.0895 17.0625 18.0215C17.0625 18.9535 17.818 19.709 18.75 19.709C19.682 19.709 20.4375 18.9535 20.4375 18.0215C20.4375 17.0895 19.682 16.334 18.75 16.334ZM15.9375 18.0215C15.9375 16.4682 17.1967 15.209 18.75 15.209C20.3033 15.209 21.5625 16.4682 21.5625 18.0215C21.5625 19.5748 20.3033 20.834 18.75 20.834C17.1967 20.834 15.9375 19.5748 15.9375 18.0215Z" fill="#1E1E1E"/>
</g>
<rect x="0.285714" y="0.307199" width="41.4286" height="41.4286" rx="20.7143" stroke="#1E1E1E" stroke-width="0.571429"/>
<defs>
<clipPath id="clip0_6884_49446">
<rect width="18" height="18" fill="white" transform="translate(12 12.0215)"/>
</clipPath>
</defs>
</svg>
