<svg width="80" height="81" viewBox="0 0 80 81" fill="none" xmlns="http://www.w3.org/2000/svg">
<circle cx="39.6945" cy="40.4352" r="29.9629" stroke="#1E1E1E" stroke-width="1.14286"/>
<g clip-path="url(#clip0_6978_10418)">
<rect width="24" height="24" transform="translate(28 28.1299)" fill="white" fill-opacity="0.01"/>
<path d="M47.7227 46.6968C47.727 46.6903 47.7335 46.6838 47.7378 46.6773C49.1512 44.9965 50.0013 42.8301 50.0013 40.4631C50.0013 38.096 49.1512 35.9296 47.74 34.2488C47.7357 34.2423 47.7292 34.238 47.7249 34.2315C47.7012 34.2035 47.6796 34.1776 47.6558 34.1517C47.6472 34.1409 47.6386 34.1323 47.6299 34.1215L47.5415 34.02L47.5393 34.0179C47.507 33.9812 47.4724 33.9445 47.4401 33.9078L47.4379 33.9057C47.3689 33.8323 47.2998 33.759 47.2286 33.6878L47.2265 33.6856L47.1229 33.582L47.1164 33.5756C47.084 33.5432 47.0517 33.513 47.0193 33.4828C47.0085 33.472 46.9977 33.4612 46.9848 33.4504C46.9632 33.4288 46.9416 33.4094 46.9201 33.39C46.9136 33.3835 46.9049 33.377 46.8985 33.3684C45.1766 31.7717 42.87 30.7964 40.3346 30.7964C37.7993 30.7964 35.4927 31.7717 33.7686 33.3684C33.7622 33.3749 33.7535 33.3814 33.7471 33.39C33.7255 33.4094 33.7039 33.431 33.6823 33.4526C33.6715 33.4634 33.6608 33.4741 33.6478 33.4849C33.6154 33.5151 33.5831 33.5475 33.5507 33.5777L33.5442 33.5842L33.4407 33.6878L33.4385 33.6899C33.3673 33.7611 33.2983 33.8345 33.2292 33.9078L33.227 33.91C33.1925 33.9467 33.1602 33.9834 33.1278 34.02L33.1256 34.0222C33.0954 34.0546 33.0652 34.0891 33.0372 34.1236C33.0285 34.1344 33.0199 34.143 33.0113 34.1538C32.9875 34.1797 32.966 34.2078 32.9422 34.2337C32.9379 34.2401 32.9314 34.2445 32.9271 34.2509C31.5181 35.9296 30.668 38.096 30.668 40.4631C30.668 42.8301 31.5181 44.9965 32.9293 46.6773C32.9336 46.6838 32.9401 46.6903 32.9444 46.6968L33.0113 46.7766C33.0199 46.7874 33.0285 46.796 33.0372 46.8068L33.1256 46.9082C33.1256 46.9104 33.1278 46.9104 33.1278 46.9125C33.1602 46.9492 33.1925 46.9859 33.227 47.0204L33.2292 47.0226C33.2983 47.0959 33.3673 47.1693 33.4363 47.2405L33.4385 47.2427C33.473 47.2772 33.5054 47.3117 33.5399 47.3441L33.5464 47.3506C33.6176 47.4218 33.691 47.4908 33.7643 47.5577C35.4927 49.1544 37.7993 50.1297 40.3346 50.1297C42.87 50.1297 45.1766 49.1544 46.9006 47.5577C46.9741 47.4903 47.0461 47.4213 47.1164 47.3506L47.1229 47.3441C47.1574 47.3096 47.1919 47.2772 47.2243 47.2427L47.2265 47.2405C47.2977 47.1693 47.3667 47.0959 47.4336 47.0226L47.4358 47.0204C47.4681 46.9837 47.5026 46.9492 47.535 46.9125C47.535 46.9104 47.5372 46.9104 47.5372 46.9082C47.5674 46.8759 47.5976 46.8413 47.6256 46.8068C47.6343 46.796 47.6429 46.7874 47.6515 46.7766C47.6759 46.7506 47.6997 46.724 47.7227 46.6968ZM47.8112 43.6198C47.5134 44.3232 47.1207 44.9749 46.6417 45.5661C46.1022 45.0999 45.5124 44.6953 44.8831 44.3599C45.1334 43.3479 45.2888 42.2367 45.3298 41.0672H48.4262C48.3614 41.9497 48.1543 42.8064 47.8112 43.6198ZM48.4262 39.8589H45.3298C45.2888 38.6894 45.1334 37.5782 44.8831 36.5662C45.5154 36.2296 46.1044 35.8239 46.6417 35.36C47.683 36.6416 48.3058 38.212 48.4262 39.8589ZM43.4914 32.9865C44.348 33.349 45.127 33.8496 45.8131 34.4796C45.4145 34.819 44.9855 35.121 44.5314 35.3816C44.1927 34.4106 43.759 33.5669 43.2541 32.8916C43.3339 32.9218 43.4137 32.9541 43.4914 32.9865ZM41.5365 48.1036C41.338 48.259 41.1395 48.3776 40.9388 48.4575V44.4549C41.795 44.5146 42.6369 44.7053 43.4353 45.0202C43.2562 45.551 43.0491 46.0408 42.8096 46.4831C42.4341 47.1823 41.9939 47.7411 41.5365 48.1036ZM42.8096 34.443C43.0469 34.8875 43.2562 35.3773 43.4353 35.9059C42.6369 36.2208 41.795 36.4115 40.9388 36.4712V32.4708C41.1373 32.5506 41.338 32.6671 41.5365 32.8247C41.9939 33.185 42.4341 33.7439 42.8096 34.443ZM40.9388 43.2444V41.0672H44.1215C44.0869 42.0209 43.9683 42.9466 43.7698 43.8248L43.7633 43.8507C42.8578 43.5073 41.9055 43.3029 40.9388 43.2444ZM40.9388 39.8589V37.6817C41.927 37.6213 42.8765 37.412 43.7633 37.0754L43.7698 37.1013C43.9683 37.9795 44.0869 38.903 44.1215 39.8589H40.9388ZM39.7305 41.0672V43.2444C38.7422 43.3048 37.7928 43.5141 36.906 43.8507L36.8995 43.8248C36.701 42.9466 36.5823 42.0231 36.5478 41.0672H39.7305ZM36.5478 39.8589C36.5823 38.9052 36.701 37.9795 36.8995 37.1013L36.906 37.0754C37.7928 37.412 38.7401 37.6213 39.7305 37.6817V39.8589H36.5478ZM39.7305 44.4549V48.4553C39.532 48.3755 39.3313 48.259 39.1328 48.1014C38.6753 47.7411 38.233 47.1801 37.8576 46.481C37.6202 46.0365 37.4109 45.5467 37.2318 45.018C38.0345 44.703 38.8695 44.5153 39.7305 44.4549ZM39.7305 36.4712C38.8743 36.4115 38.0323 36.2208 37.234 35.9059C37.4131 35.3751 37.6202 34.8853 37.8597 34.443C38.2352 33.7439 38.6753 33.1828 39.1349 32.8225C39.3334 32.6671 39.532 32.5485 39.7326 32.4686V36.4712H39.7305ZM37.1779 32.9865C37.2577 32.9541 37.3354 32.9218 37.4152 32.8916C36.9103 33.5669 36.4766 34.4106 36.1378 35.3816C35.6847 35.1227 35.2553 34.8206 34.8561 34.4796C35.5423 33.8496 36.3212 33.349 37.1779 32.9865ZM32.8581 37.3063C33.1558 36.6029 33.5485 35.9512 34.0276 35.36C34.5648 35.8239 35.1539 36.2296 35.7861 36.5662C35.5358 37.5782 35.3805 38.6894 35.3395 39.8589H32.2431C32.3078 38.9764 32.515 38.1198 32.8581 37.3063ZM32.2431 41.0672H35.3395C35.3805 42.2367 35.5358 43.3479 35.7861 44.3599C35.1569 44.6953 34.567 45.0999 34.0276 45.5661C32.9863 44.2845 32.3634 42.7141 32.2431 41.0672ZM37.1779 47.9396C36.3212 47.5771 35.5423 47.0765 34.8561 46.4465C35.2553 46.1055 35.6847 45.8056 36.1378 45.5445C36.4766 46.5155 36.9103 47.3592 37.4152 48.0346C37.3354 48.0044 37.2555 47.972 37.1779 47.9396ZM43.4914 47.9396C43.4116 47.972 43.3339 48.0044 43.2541 48.0346C43.759 47.3592 44.1927 46.5155 44.5314 45.5445C44.9846 45.8035 45.414 46.1055 45.8131 46.4465C45.1308 47.0739 44.3454 47.579 43.4914 47.9396Z" fill="#1E1E1E"/>
</g>
<rect x="0.285714" y="0.415597" width="79.4286" height="79.4286" rx="39.7143" stroke="black" stroke-opacity="0.15" stroke-width="0.571429"/>
<defs>
<clipPath id="clip0_6978_10418">
<rect width="24" height="24" fill="white" transform="translate(28 28.1299)"/>
</clipPath>
</defs>
</svg>
