<svg width="42" height="43" viewBox="0 0 42 43" fill="none" xmlns="http://www.w3.org/2000/svg">
<g clip-path="url(#clip0_6884_49452)">
<rect width="18" height="18" transform="translate(12 12.9219)" fill="white" fill-opacity="0.01"/>
<path d="M26.7911 26.8472C26.7943 26.8423 26.7992 26.8374 26.8024 26.8326C27.8624 25.5719 28.5 23.9472 28.5 22.1719C28.5 20.3966 27.8624 18.7718 26.804 17.5112C26.8008 17.5063 26.7959 17.5031 26.7927 17.4982C26.7749 17.4772 26.7587 17.4578 26.7409 17.4383C26.7344 17.4302 26.728 17.4238 26.7215 17.4157L26.6551 17.3396L26.6535 17.338C26.6292 17.3105 26.6033 17.283 26.5791 17.2555L26.5775 17.2539C26.5257 17.1988 26.4739 17.1438 26.4205 17.0904L26.4189 17.0888L26.3412 17.0111L26.3363 17.0062C26.3121 16.982 26.2878 16.9593 26.2635 16.9367C26.2554 16.9286 26.2473 16.9205 26.2376 16.9124C26.2214 16.8962 26.2052 16.8816 26.1891 16.8671C26.1842 16.8622 26.1777 16.8574 26.1729 16.8509C24.8815 15.6533 23.1515 14.9219 21.25 14.9219C19.3485 14.9219 17.6185 15.6533 16.3255 16.8509C16.3206 16.8557 16.3142 16.8606 16.3093 16.8671C16.2931 16.8816 16.277 16.8978 16.2608 16.914C16.2527 16.9221 16.2446 16.9302 16.2349 16.9383C16.2106 16.9609 16.1863 16.9852 16.1621 17.0079L16.1572 17.0127L16.0795 17.0904L16.0779 17.092C16.0245 17.1454 15.9727 17.2004 15.9209 17.2555L15.9193 17.2571C15.8934 17.2846 15.8691 17.3121 15.8449 17.3396L15.8432 17.3412C15.8206 17.3655 15.7979 17.3914 15.7769 17.4173C15.7704 17.4254 15.764 17.4319 15.7575 17.44C15.7397 17.4594 15.7235 17.4804 15.7057 17.4998C15.7025 17.5047 15.6976 17.5079 15.6944 17.5128C14.6376 18.7718 14 20.3966 14 22.1719C14 23.9472 14.6376 25.5719 15.696 26.8326C15.6992 26.8374 15.7041 26.8423 15.7073 26.8472L15.7575 26.907C15.764 26.9151 15.7704 26.9216 15.7769 26.9297L15.8432 27.0057C15.8432 27.0074 15.8449 27.0074 15.8449 27.009C15.8691 27.0365 15.8934 27.064 15.9193 27.0899L15.9209 27.0915C15.9727 27.1465 16.0245 27.2016 16.0763 27.255L16.0779 27.2566C16.1038 27.2825 16.1281 27.3084 16.154 27.3326L16.1588 27.3375C16.2122 27.3909 16.2672 27.4427 16.3223 27.4929C17.6185 28.6904 19.3485 29.4219 21.25 29.4219C23.1515 29.4219 24.8815 28.6904 26.1745 27.4929C26.2296 27.4423 26.2836 27.3905 26.3363 27.3375L26.3412 27.3326C26.3671 27.3068 26.393 27.2825 26.4172 27.2566L26.4189 27.255C26.4723 27.2016 26.5241 27.1465 26.5742 27.0915L26.5758 27.0899C26.6001 27.0624 26.626 27.0365 26.6503 27.009C26.6503 27.0074 26.6519 27.0074 26.6519 27.0057C26.6746 26.9815 26.6972 26.9556 26.7182 26.9297C26.7247 26.9216 26.7312 26.9151 26.7377 26.907C26.756 26.8875 26.7738 26.8676 26.7911 26.8472ZM26.8574 24.5395C26.6341 25.067 26.3396 25.5557 25.9803 25.9992C25.5757 25.6495 25.1333 25.3461 24.6614 25.0945C24.8491 24.3355 24.9656 23.5021 24.9964 22.625H27.3186C27.2701 23.2869 27.1147 23.9294 26.8574 24.5395ZM27.3186 21.7188H24.9964C24.9656 20.8416 24.8491 20.0082 24.6614 19.2492C25.1355 18.9968 25.5773 18.6925 25.9803 18.3446C26.7612 19.3058 27.2284 20.4836 27.3186 21.7188ZM23.6176 16.5645C24.26 16.8363 24.8443 17.2118 25.3589 17.6843C25.0599 17.9389 24.7381 18.1653 24.3976 18.3608C24.1435 17.6325 23.8182 16.9998 23.4396 16.4932C23.4994 16.5159 23.5593 16.5402 23.6176 16.5645ZM22.1514 27.9023C22.0025 28.0188 21.8536 28.1078 21.7031 28.1677V25.1657C22.3453 25.2105 22.9767 25.3535 23.5755 25.5897C23.4412 25.9878 23.2858 26.3552 23.1062 26.6869C22.8246 27.2113 22.4945 27.6304 22.1514 27.9023ZM23.1062 17.6568C23.2842 17.9902 23.4412 18.3575 23.5755 18.754C22.9767 18.9902 22.3453 19.1332 21.7031 19.178V16.1777C21.852 16.2376 22.0025 16.3249 22.1514 16.4431C22.4945 16.7133 22.8246 17.1325 23.1062 17.6568ZM21.7031 24.2579V22.625H24.0901C24.0642 23.3403 23.9752 24.0345 23.8263 24.6932L23.8215 24.7126C23.1423 24.4551 22.4281 24.3018 21.7031 24.2579ZM21.7031 21.7188V20.0859C22.4443 20.0406 23.1564 19.8836 23.8215 19.6311L23.8263 19.6506C23.9752 20.3092 24.0642 21.0018 24.0901 21.7188H21.7031ZM20.7969 22.625V24.2579C20.0557 24.3032 19.3436 24.4602 18.6785 24.7126L18.6737 24.6932C18.5248 24.0345 18.4358 23.3419 18.4099 22.625H20.7969ZM18.4099 21.7188C18.4358 21.0035 18.5248 20.3092 18.6737 19.6506L18.6785 19.6311C19.3436 19.8836 20.0541 20.0406 20.7969 20.0859V21.7188H18.4099ZM20.7969 25.1657V28.1661C20.648 28.1062 20.4975 28.0188 20.3486 27.9007C20.0055 27.6304 19.6738 27.2097 19.3922 26.6853C19.2142 26.352 19.0572 25.9846 18.9229 25.5881C19.5249 25.3518 20.1512 25.211 20.7969 25.1657ZM20.7969 19.178C20.1547 19.1332 19.5233 18.9902 18.9245 18.754C19.0588 18.3559 19.2142 17.9886 19.3938 17.6568C19.6754 17.1325 20.0055 16.7117 20.3502 16.4415C20.4991 16.3249 20.648 16.2359 20.7985 16.1761V19.178H20.7969ZM18.8824 16.5645C18.9423 16.5402 19.0006 16.5159 19.0604 16.4932C18.6818 16.9998 18.3565 17.6325 18.1024 18.3608C17.7626 18.1666 17.4405 17.94 17.1411 17.6843C17.6557 17.2118 18.24 16.8363 18.8824 16.5645ZM15.6426 19.8043C15.8659 19.2767 16.1604 18.788 16.5197 18.3446C16.9227 18.6925 17.3645 18.9968 17.8386 19.2492C17.6509 20.0082 17.5344 20.8416 17.5036 21.7188H15.1814C15.2299 21.0569 15.3853 20.4144 15.6426 19.8043ZM15.1814 22.625H17.5036C17.5344 23.5021 17.6509 24.3355 17.8386 25.0945C17.3667 25.3461 16.9243 25.6495 16.5197 25.9992C15.7388 25.0379 15.2716 23.8602 15.1814 22.625ZM18.8824 27.7793C18.24 27.5074 17.6557 27.132 17.1411 26.6594C17.4405 26.4037 17.7626 26.1788 18.1024 25.983C18.3565 26.7112 18.6818 27.344 19.0604 27.8505C19.0006 27.8278 18.9407 27.8036 18.8824 27.7793ZM23.6176 27.7793C23.5577 27.8036 23.4994 27.8278 23.4396 27.8505C23.8182 27.344 24.1435 26.7112 24.3976 25.983C24.7374 26.1772 25.0595 26.4037 25.3589 26.6594C24.8471 27.13 24.258 27.5088 23.6176 27.7793Z" fill="#1E1E1E"/>
</g>
<rect x="0.285714" y="1.20759" width="41.4286" height="41.4286" rx="20.7143" stroke="#1E1E1E" stroke-width="0.571429"/>
<defs>
<clipPath id="clip0_6884_49452">
<rect width="18" height="18" fill="white" transform="translate(12 12.9219)"/>
</clipPath>
</defs>
</svg>
