<svg width="81" height="81" viewBox="0 0 81 81" fill="none" xmlns="http://www.w3.org/2000/svg">
<circle cx="40.0304" cy="40.4352" r="29.9629" stroke="#1E1E1E" stroke-width="1.14286"/>
<g clip-path="url(#clip0_6978_10424)">
<rect width="24" height="24" transform="translate(28.3359 28.1299)" fill="white" fill-opacity="0.01"/>
<g clip-path="url(#clip1_6978_10424)">
<path d="M34.5513 33.107C34.4335 33.107 34.3371 33.2034 34.3371 33.3213V34.607C34.3371 34.7249 34.4335 34.8213 34.5513 34.8213H44.8371C44.9549 34.8213 45.0513 34.7249 45.0513 34.607V33.3213C45.0513 33.2034 44.9549 33.107 44.8371 33.107H34.5513ZM39.4799 36.9641H34.5513C34.4335 36.9641 34.3371 37.0606 34.3371 37.1784V38.4641C34.3371 38.582 34.4335 38.6784 34.5513 38.6784H39.4799C39.5978 38.6784 39.6942 38.582 39.6942 38.4641V37.1784C39.6942 37.0606 39.5978 36.9641 39.4799 36.9641ZM38.1942 49.232H32.1942V30.3749H47.1942V38.9463C47.1942 39.0641 47.2906 39.1606 47.4085 39.1606H48.9085C49.0263 39.1606 49.1228 39.0641 49.1228 38.9463V29.3034C49.1228 28.8293 48.7397 28.4463 48.2656 28.4463H31.1228C30.6487 28.4463 30.2656 28.8293 30.2656 29.3034V50.3034C30.2656 50.7775 30.6487 51.1606 31.1228 51.1606H38.1942C38.3121 51.1606 38.4085 51.0641 38.4085 50.9463V49.4463C38.4085 49.3284 38.3121 49.232 38.1942 49.232ZM49.9799 46.8749H46.1228V45.8945C47.3629 45.5249 48.2656 44.3784 48.2656 43.0177C48.2656 41.3597 46.9237 40.0177 45.2656 40.0177C43.6076 40.0177 42.2656 41.3597 42.2656 43.0177C42.2656 44.3758 43.1683 45.5249 44.4085 45.8945V46.8749H40.5513C40.3156 46.8749 40.1228 47.0677 40.1228 47.3034V51.3749C40.1228 51.6106 40.3156 51.8034 40.5513 51.8034H49.9799C50.2156 51.8034 50.4085 51.6106 50.4085 51.3749V47.3034C50.4085 47.0677 50.2156 46.8749 49.9799 46.8749ZM43.9263 43.0177C43.9263 42.2784 44.5263 41.6784 45.2656 41.6784C46.0049 41.6784 46.6049 42.2784 46.6049 43.0177C46.6049 43.757 46.0049 44.357 45.2656 44.357C44.5263 44.357 43.9263 43.757 43.9263 43.0177ZM48.7478 50.1427H41.7835V48.5356H48.7478V50.1427Z" fill="#1E1E1E"/>
</g>
</g>
<rect x="0.621652" y="0.415597" width="79.4286" height="79.4286" rx="39.7143" stroke="black" stroke-opacity="0.15" stroke-width="0.571429"/>
<defs>
<clipPath id="clip0_6978_10424">
<rect width="24" height="24" fill="white" transform="translate(28.3359 28.1299)"/>
</clipPath>
<clipPath id="clip1_6978_10424">
<rect width="24" height="24" fill="white" transform="translate(28.3359 28.1299)"/>
</clipPath>
</defs>
</svg>
