<svg width="42" height="43" viewBox="0 0 42 43" fill="none" xmlns="http://www.w3.org/2000/svg">
<g clip-path="url(#clip0_6884_49449)">
<rect width="18" height="18" transform="translate(12 12.9219)" fill="white" fill-opacity="0.01"/>
<path d="M27.4297 20.9601H26.0636V16.4601C26.0636 15.0398 24.9125 13.8887 23.4922 13.8887H18.51C17.0897 13.8887 15.9386 15.0398 15.9386 16.4601V20.9601H14.5725C14.217 20.9601 13.9297 21.2474 13.9297 21.603V29.3172C13.9297 29.6728 14.217 29.9601 14.5725 29.9601H27.4297C27.7853 29.9601 28.0725 29.6728 28.0725 29.3172V21.603C28.0725 21.2474 27.7853 20.9601 27.4297 20.9601ZM17.385 16.4601C17.385 15.8393 17.8893 15.3351 18.51 15.3351H23.4922C24.1129 15.3351 24.6172 15.8393 24.6172 16.4601V20.9601H17.385V16.4601ZM26.6261 28.5137H15.3761V22.4065H26.6261V28.5137ZM20.4386 25.7213V26.786C20.4386 26.8744 20.5109 26.9467 20.5993 26.9467H21.4029C21.4913 26.9467 21.5636 26.8744 21.5636 26.786V25.7213C21.7294 25.6022 21.8532 25.4336 21.9171 25.2397C21.981 25.0458 21.9818 24.8367 21.9192 24.6423C21.8567 24.448 21.7341 24.2785 21.5691 24.1583C21.4041 24.0381 21.2053 23.9733 21.0011 23.9733C20.797 23.9733 20.5981 24.0381 20.4331 24.1583C20.2681 24.2785 20.1455 24.448 20.083 24.6423C20.0205 24.8367 20.0212 25.0458 20.0851 25.2397C20.149 25.4336 20.2728 25.6022 20.4386 25.7213Z" fill="#1E1E1E"/>
</g>
<rect x="0.285714" y="1.20759" width="41.4286" height="41.4286" rx="20.7143" stroke="#1E1E1E" stroke-width="0.571429"/>
<defs>
<clipPath id="clip0_6884_49449">
<rect width="18" height="18" fill="white" transform="translate(12 12.9219)"/>
</clipPath>
</defs>
</svg>
