<svg width="81" height="81" viewBox="0 0 81 81" fill="none" xmlns="http://www.w3.org/2000/svg">
<circle cx="40.3625" cy="40.4352" r="29.9629" stroke="#1E1E1E" stroke-width="1.14286"/>
<g clip-path="url(#clip0_6978_10412)">
<rect width="24" height="24" transform="translate(28.668 28.1299)" fill="white" fill-opacity="0.01"/>
<path d="M49.2383 38.8475H47.4169V32.8475C47.4169 30.9538 45.882 29.4189 43.9883 29.4189H37.3454C35.4517 29.4189 33.9169 30.9538 33.9169 32.8475V38.8475H32.0954C31.6213 38.8475 31.2383 39.2306 31.2383 39.7047V49.9904C31.2383 50.4645 31.6213 50.8475 32.0954 50.8475H49.2383C49.7124 50.8475 50.0954 50.4645 50.0954 49.9904V39.7047C50.0954 39.2306 49.7124 38.8475 49.2383 38.8475ZM35.8454 32.8475C35.8454 32.0198 36.5177 31.3475 37.3454 31.3475H43.9883C44.816 31.3475 45.4883 32.0198 45.4883 32.8475V38.8475H35.8454V32.8475ZM48.1669 48.9189H33.1669V40.7761H48.1669V48.9189ZM39.9169 45.1957V46.6154C39.9169 46.7332 40.0133 46.8297 40.1311 46.8297H41.2026C41.3204 46.8297 41.4169 46.7332 41.4169 46.6154V45.1957C41.638 45.037 41.803 44.8122 41.8882 44.5537C41.9734 44.2952 41.9744 44.0163 41.891 43.7572C41.8076 43.4981 41.6442 43.2721 41.4242 43.1118C41.2042 42.9515 40.939 42.8651 40.6669 42.8651C40.3947 42.8651 40.1295 42.9515 39.9095 43.1118C39.6895 43.2721 39.5261 43.4981 39.4427 43.7572C39.3593 44.0163 39.3603 44.2952 39.4455 44.5537C39.5307 44.8122 39.6957 45.037 39.9169 45.1957Z" fill="#1E1E1E"/>
</g>
<rect x="0.953683" y="0.415597" width="79.4286" height="79.4286" rx="39.7143" stroke="black" stroke-opacity="0.15" stroke-width="0.571429"/>
<defs>
<clipPath id="clip0_6978_10412">
<rect width="24" height="24" fill="white" transform="translate(28.668 28.1299)"/>
</clipPath>
</defs>
</svg>
