<svg width="42" height="43" viewBox="0 0 42 43" fill="none" xmlns="http://www.w3.org/2000/svg">
<g clip-path="url(#clip0_6884_49455)">
<rect width="18" height="18" transform="translate(12 12.1221)" fill="white" fill-opacity="0.01"/>
<path fill-rule="evenodd" clip-rule="evenodd" d="M21 19.0596C21.3107 19.0596 21.5625 19.3114 21.5625 19.6221V22.6221C21.5625 22.9327 21.3107 23.1846 21 23.1846C20.6893 23.1846 20.4375 22.9327 20.4375 22.6221V19.6221C20.4375 19.3114 20.6893 19.0596 21 19.0596Z" fill="#1E1E1E"/>
<path fill-rule="evenodd" clip-rule="evenodd" d="M21 17.5596C19.8609 17.5596 18.9375 18.483 18.9375 19.6221V24.5081C18.9375 25.8508 18.4041 27.1384 17.4547 28.0878L17.2727 28.2698C17.0531 28.4895 16.6969 28.4895 16.4773 28.2698C16.2576 28.0501 16.2576 27.694 16.4773 27.4743L16.6592 27.2923C17.3977 26.5539 17.8125 25.5524 17.8125 24.5081V19.6221C17.8125 17.8617 19.2396 16.4346 21 16.4346C22.7604 16.4346 24.1875 17.8617 24.1875 19.6221V24.5081C24.1875 25.8508 23.6541 27.1384 22.7047 28.0878L22.5227 28.2698C22.3031 28.4895 21.9469 28.4895 21.7273 28.2698C21.5076 28.0501 21.5076 27.694 21.7273 27.4743L21.9092 27.2923C22.6477 26.5539 23.0625 25.5524 23.0625 24.5081V19.6221C23.0625 18.483 22.1391 17.5596 21 17.5596Z" fill="#1E1E1E"/>
<path fill-rule="evenodd" clip-rule="evenodd" d="M21 14.9346C18.4112 14.9346 16.3125 17.0332 16.3125 19.6221V24.8721C16.3125 25.1827 16.0607 25.4346 15.75 25.4346C15.4393 25.4346 15.1875 25.1827 15.1875 24.8721V19.6221C15.1875 16.4119 17.7898 13.8096 21 13.8096C24.2102 13.8096 26.8125 16.4119 26.8125 19.6221V24.8721C26.8125 25.1827 26.5607 25.4346 26.25 25.4346C25.9393 25.4346 25.6875 25.1827 25.6875 24.8721V19.6221C25.6875 17.0332 23.5888 14.9346 21 14.9346Z" fill="#1E1E1E"/>
</g>
<rect x="0.285714" y="0.407785" width="41.4286" height="41.4286" rx="20.7143" stroke="#1E1E1E" stroke-width="0.571429"/>
<defs>
<clipPath id="clip0_6884_49455">
<rect width="18" height="18" fill="white" transform="translate(12 12.1221)"/>
</clipPath>
</defs>
</svg>
