<svg width="42" height="43" viewBox="0 0 42 43" fill="none" xmlns="http://www.w3.org/2000/svg">
<g clip-path="url(#clip0_6840_11829)">
<rect width="18" height="18" transform="translate(12 12.9521)" fill="white" fill-opacity="0.01"/>
<path fill-rule="evenodd" clip-rule="evenodd" d="M21.9375 19.7021C21.9375 18.5631 22.8609 17.6396 24 17.6396H27C28.1391 17.6396 29.0625 18.5631 29.0625 19.7021V26.4521C29.0625 27.5912 28.1391 28.5146 27 28.5146H24C22.8609 28.5146 21.9375 27.5912 21.9375 26.4521V19.7021ZM24 18.7646C23.4822 18.7646 23.0625 19.1844 23.0625 19.7021V26.4521C23.0625 26.9699 23.4822 27.3896 24 27.3896H27C27.5178 27.3896 27.9375 26.9699 27.9375 26.4521V19.7021C27.9375 19.1844 27.5178 18.7646 27 18.7646H24Z" fill="#1E1E1E"/>
<path fill-rule="evenodd" clip-rule="evenodd" d="M14.4375 17.4521C14.4375 16.3131 15.3609 15.3896 16.5 15.3896H27C27.3107 15.3896 27.5625 15.6415 27.5625 15.9521C27.5625 16.2628 27.3107 16.5146 27 16.5146H16.5C15.9822 16.5146 15.5625 16.9344 15.5625 17.4521V25.1396H20.25C20.5607 25.1396 20.8125 25.3915 20.8125 25.7021C20.8125 26.0128 20.5607 26.2646 20.25 26.2646H14.4375V17.4521Z" fill="#1E1E1E"/>
<path fill-rule="evenodd" clip-rule="evenodd" d="M12.9375 26.8271C12.9375 25.8952 13.693 25.1396 14.625 25.1396H20.25C20.5607 25.1396 20.8125 25.3915 20.8125 25.7021C20.8125 26.0128 20.5607 26.2646 20.25 26.2646H14.625C14.3143 26.2646 14.0625 26.5165 14.0625 26.8271C14.0625 27.1378 14.3143 27.3896 14.625 27.3896H20.25C20.5607 27.3896 20.8125 27.6415 20.8125 27.9521C20.8125 28.2628 20.5607 28.5146 20.25 28.5146H14.625C13.693 28.5146 12.9375 27.7591 12.9375 26.8271Z" fill="#1E1E1E"/>
</g>
<rect x="0.285714" y="1.23786" width="41.4286" height="41.4286" rx="20.7143" stroke="#1E1E1E" stroke-width="0.571429"/>
<defs>
<clipPath id="clip0_6840_11829">
<rect width="18" height="18" fill="white" transform="translate(12 12.9521)"/>
</clipPath>
</defs>
</svg>
