<svg width="42" height="43" viewBox="0 0 42 43" fill="none" xmlns="http://www.w3.org/2000/svg">
<g clip-path="url(#clip0_6840_11837)">
<rect width="18" height="18" transform="translate(12 12.9521)" fill="white" fill-opacity="0.01"/>
<path d="M29.1981 26.9355H17.466C17.3776 26.9355 17.3052 27.0079 17.3052 27.0963V28.2213C17.3052 28.3097 17.3776 28.382 17.466 28.382H29.1981C29.2865 28.382 29.3588 28.3097 29.3588 28.2213V27.0963C29.3588 27.0079 29.2865 26.9355 29.1981 26.9355ZM29.1981 15.5248H17.466C17.3776 15.5248 17.3052 15.5972 17.3052 15.6855V16.8105C17.3052 16.8989 17.3776 16.9713 17.466 16.9713H29.1981C29.2865 16.9713 29.3588 16.8989 29.3588 16.8105V15.6855C29.3588 15.5972 29.2865 15.5248 29.1981 15.5248ZM29.1981 21.2302H17.466C17.3776 21.2302 17.3052 21.3025 17.3052 21.3909V22.5159C17.3052 22.6043 17.3776 22.6766 17.466 22.6766H29.1981C29.2865 22.6766 29.3588 22.6043 29.3588 22.5159V21.3909C29.3588 21.3025 29.2865 21.2302 29.1981 21.2302ZM15.0552 25.9713H12.7249C12.6807 25.9713 12.6445 26.0074 12.6445 26.0516V26.7347C12.6445 26.7789 12.6807 26.815 12.7249 26.815H14.1794V27.2268H13.4622C13.418 27.2268 13.3818 27.263 13.3818 27.3072V27.9902C13.3818 28.0344 13.418 28.0706 13.4622 28.0706H14.1794V28.5025H12.7249C12.6807 28.5025 12.6445 28.5387 12.6445 28.5829V29.2659C12.6445 29.3101 12.6807 29.3463 12.7249 29.3463H15.0552C15.0994 29.3463 15.1356 29.3101 15.1356 29.2659V26.0516C15.1356 26.0074 15.0994 25.9713 15.0552 25.9713ZM12.7249 15.4445H13.4883V17.8552C13.4883 17.8994 13.5244 17.9355 13.5686 17.9355H14.3722C14.4164 17.9355 14.4526 17.8994 14.4526 17.8552V14.7213C14.4526 14.6329 14.3802 14.5605 14.2919 14.5605H12.7249C12.6807 14.5605 12.6445 14.5967 12.6445 14.6409V15.3641C12.6445 15.4083 12.6807 15.4445 12.7249 15.4445ZM15.0552 20.2659H12.7249C12.6807 20.2659 12.6445 20.3021 12.6445 20.3463V21.0695C12.6445 21.1137 12.6807 21.1498 12.7249 21.1498H14.099L12.6867 22.7108C12.6601 22.7407 12.6451 22.7792 12.6445 22.8193V23.5605C12.6445 23.6047 12.6807 23.6409 12.7249 23.6409H15.0552C15.0994 23.6409 15.1356 23.6047 15.1356 23.5605V22.8373C15.1356 22.7931 15.0994 22.757 15.0552 22.757H13.6811L15.0934 21.196C15.1201 21.1661 15.135 21.1276 15.1356 21.0876V20.3463C15.1356 20.3021 15.0994 20.2659 15.0552 20.2659Z" fill="#1E1E1E"/>
</g>
<rect x="0.285714" y="1.23786" width="41.4286" height="41.4286" rx="20.7143" stroke="#1E1E1E" stroke-width="0.571429"/>
<defs>
<clipPath id="clip0_6840_11837">
<rect width="18" height="18" fill="white" transform="translate(12 12.9521)"/>
</clipPath>
</defs>
</svg>
