<svg width="42" height="45" viewBox="0 0 42 45" fill="none" xmlns="http://www.w3.org/2000/svg">
<g clip-path="url(#clip0_6840_11844)">
<rect width="18" height="18" transform="translate(12 14.0518)" fill="white" fill-opacity="0.01"/>
<g clip-path="url(#clip1_6840_11844)">
<path d="M26.5458 26.9453V16.6214C26.5458 16.4446 26.4011 16.3 26.2243 16.3H22.8092V14.9179C22.8092 14.7973 22.6685 14.729 22.5741 14.8034L20.0107 16.8284C19.9934 16.8418 19.9793 16.859 19.9697 16.8786C19.96 16.8983 19.955 16.9199 19.955 16.9419C19.955 16.9638 19.96 16.9854 19.9697 17.0051C19.9793 17.0248 19.9934 17.042 20.0107 17.0554L22.5721 19.0804C22.6665 19.1547 22.8071 19.0884 22.8071 18.9659V17.5857H25.0973V26.9453C24.2094 27.2467 23.5705 28.0884 23.5705 29.0768C23.5705 30.3183 24.579 31.3268 25.8205 31.3268C27.0621 31.3268 28.0705 30.3183 28.0705 29.0768C28.0725 28.0884 27.4337 27.2487 26.5458 26.9453ZM25.8225 30.0411C25.5702 30.0359 25.3299 29.9321 25.1533 29.7518C24.9767 29.5715 24.8777 29.3292 24.8777 29.0768C24.8777 28.8244 24.9767 28.5821 25.1533 28.4018C25.3299 28.2215 25.5702 28.1177 25.8225 28.1125C26.0749 28.1177 26.3151 28.2215 26.4918 28.4018C26.6684 28.5821 26.7673 28.8244 26.7673 29.0768C26.7673 29.3292 26.6684 29.5715 26.4918 29.7518C26.3151 29.9321 26.0749 30.0359 25.8225 30.0411ZM18.4297 17.0232C18.4297 15.7817 17.4212 14.7732 16.1797 14.7732C14.9382 14.7732 13.9297 15.7817 13.9297 17.0232C13.9297 18.0116 14.5685 18.8513 15.4565 19.1547V26.9473C14.5685 27.2487 13.9297 28.0904 13.9297 29.0788C13.9297 30.3203 14.9382 31.3288 16.1797 31.3288C17.4212 31.3288 18.4297 30.3203 18.4297 29.0788C18.4297 28.0904 17.7908 27.2507 16.9029 26.9473V19.1547C17.7908 18.8513 18.4297 18.0116 18.4297 17.0232ZM15.2154 17.0232C15.2206 16.7709 15.3244 16.5306 15.5047 16.354C15.685 16.1773 15.9273 16.0784 16.1797 16.0784C16.4321 16.0784 16.6744 16.1773 16.8547 16.354C17.035 16.5306 17.1388 16.7709 17.144 17.0232C17.1388 17.2756 17.035 17.5158 16.8547 17.6925C16.6744 17.8691 16.4321 17.968 16.1797 17.968C15.9273 17.968 15.685 17.8691 15.5047 17.6925C15.3244 17.5158 15.2206 17.2756 15.2154 17.0232ZM17.144 29.0768C17.1388 29.3291 17.035 29.5694 16.8547 29.746C16.6744 29.9227 16.4321 30.0216 16.1797 30.0216C15.9273 30.0216 15.685 29.9227 15.5047 29.746C15.3244 29.5694 15.2206 29.3291 15.2154 29.0768C15.2206 28.8245 15.3244 28.5842 15.5047 28.4076C15.685 28.2309 15.9273 28.132 16.1797 28.132C16.4321 28.132 16.6744 28.2309 16.8547 28.4076C17.035 28.5842 17.1388 28.8245 17.144 29.0768Z" fill="#1E1E1E"/>
</g>
</g>
<rect x="0.285714" y="2.33747" width="41.4286" height="41.4286" rx="20.7143" stroke="#1E1E1E" stroke-width="0.571429"/>
<defs>
<clipPath id="clip0_6840_11844">
<rect width="18" height="18" fill="white" transform="translate(12 14.0518)"/>
</clipPath>
<clipPath id="clip1_6840_11844">
<rect width="18" height="18" fill="white" transform="translate(12 14.0518)"/>
</clipPath>
</defs>
</svg>
