<svg id="color" enable-background="new 0 0 24 24" height="512" viewBox="0 0 24 24" width="512" xmlns="http://www.w3.org/2000/svg"><path d="m17.25 11c-.552 0-1-.448-1-1v-3.75c0-2.343-1.907-4.25-4.25-4.25s-4.25 1.907-4.25 4.25v3.75c0 .552-.448 1-1 1s-1-.448-1-1v-3.75c0-3.446 2.804-6.25 6.25-6.25s6.25 2.804 6.25 6.25v3.75c0 .552-.448 1-1 1z" fill="#607d8b"/><path d="m18.75 24h-13.5c-1.241 0-2.25-1.009-2.25-2.25v-10.5c0-1.241 1.009-2.25 2.25-2.25h13.5c1.241 0 2.25 1.009 2.25 2.25v10.5c0 1.241-1.009 2.25-2.25 2.25z" fill="#2196f3"/><path d="m12 0c-3.446 0-6.25 2.804-6.25 6.25v2.75h2v-2.75c0-2.343 1.907-4.25 4.25-4.25z" fill="#546d79"/><path d="m12 9h-4.25-2-.5c-1.241 0-2.25 1.009-2.25 2.25v10.5c0 1.241 1.009 2.25 2.25 2.25h6.75z" fill="#1d83d4"/><g fill="#fafafa"><path d="m11.082 20.981c-.404-.093-.655-.496-.562-.899l1.5-6.5c.093-.404.495-.65.899-.563.404.093.655.496.563.899l-1.5 6.5c-.092.396-.486.656-.9.563z"/><path d="m15.5 20c-.205 0-.409-.083-.558-.248-.277-.308-.252-.782.056-1.06l1.881-1.692-1.881-1.692c-.308-.277-.333-.751-.056-1.06s.751-.332 1.06-.056l2.5 2.25c.158.143.248.346.248.558s-.09.415-.248.558l-2.5 2.25c-.144.129-.323.192-.502.192z"/><path d="m8.5 20c-.179 0-.358-.063-.502-.192l-2.5-2.25c-.158-.143-.248-.346-.248-.558s.09-.415.248-.558l2.5-2.25c.308-.275.782-.252 1.06.056.277.308.252.782-.056 1.06l-1.881 1.692 1.881 1.692c.308.277.333.751.056 1.06-.149.164-.353.248-.558.248z"/></g><path d="m12.77 17h-1.54l-.711 3.082c-.093.403.159.806.562.899.058.013.114.019.17.019.348 0 .652-.24.73-.581z" fill="#dadada"/><path d="m18.75 17h-1.871l-1.881 1.692c-.308.277-.333.751-.056 1.06.149.164.353.248.558.248.179 0 .358-.063.502-.192l2.5-2.25c.158-.143.248-.346.248-.558z" fill="#dadada"/><path d="m7.121 17h-1.871c0 .212.09.415.248.558l2.5 2.25c.144.129.323.192.502.192.205 0 .409-.083.558-.248.277-.308.252-.782-.056-1.06z" fill="#dadada"/></svg>