<svg width="67" height="70" viewBox="0 0 67 70" fill="none" xmlns="http://www.w3.org/2000/svg">
<path d="M27.2052 54.885C42.2302 54.885 54.4104 42.7048 54.4104 27.6798C54.4104 12.6548 42.2302 0.474609 27.2052 0.474609C12.1802 0.474609 0 12.6548 0 27.6798C0 42.7048 12.1802 54.885 27.2052 54.885Z" fill="#3DB249"/>
<path d="M27.2046 54.1458C33.4651 54.1458 38.5401 42.2955 38.5401 27.6774C38.5401 13.0593 33.4651 1.20898 27.2046 1.20898C20.9442 1.20898 15.8691 13.0593 15.8691 27.6774C15.8691 42.2955 20.9442 54.1458 27.2046 54.1458Z" fill="#3DB249"/>
<path fill-rule="evenodd" clip-rule="evenodd" d="M20.3008 9.43755C18.3281 14.044 17.0784 20.4919 17.0784 27.6775C17.0784 34.8631 18.3281 41.3111 20.3008 45.9175C21.2882 48.2229 22.4327 50.0112 23.6421 51.2056C24.8463 52.3949 26.0489 52.9368 27.2048 52.9368C28.3607 52.9368 29.5632 52.3949 30.7674 51.2056C31.9768 50.0112 33.1214 48.2229 34.1087 45.9175C36.0815 41.3111 37.3312 34.8631 37.3312 27.6775C37.3312 20.4919 36.0815 14.044 34.1087 9.43755C33.1214 7.13218 31.9768 5.34384 30.7674 4.14942C29.5632 2.96012 28.3607 2.41824 27.2048 2.41824C26.0489 2.41824 24.8463 2.96012 23.6421 4.14942C22.4327 5.34384 21.2882 7.13218 20.3008 9.43755ZM21.9429 2.42885C23.451 0.939406 25.2305 0 27.2048 0C29.1791 0 30.9586 0.939406 32.4667 2.42885C33.9696 3.91319 35.2677 6.00106 36.3317 8.48553C38.4616 13.4588 39.7494 20.245 39.7494 27.6775C39.7494 35.11 38.4616 41.8963 36.3317 46.8695C35.2677 49.354 33.9696 51.4419 32.4667 52.9262C30.9586 54.4156 29.1791 55.355 27.2048 55.355C25.2305 55.355 23.451 54.4156 21.9429 52.9262C20.4399 51.4419 19.1419 49.354 18.0779 46.8695C15.948 41.8963 14.6602 35.11 14.6602 27.6775C14.6602 20.245 15.948 13.4588 18.0779 8.48553C19.1419 6.00106 20.4399 3.91319 21.9429 2.42885Z" fill="white"/>
<path fill-rule="evenodd" clip-rule="evenodd" d="M0.349609 18.6115C0.349609 17.9437 0.890951 17.4023 1.55873 17.4023H52.8519C53.5197 17.4023 54.061 17.9437 54.061 18.6115C54.061 19.2792 53.5197 19.8206 52.8519 19.8206H1.55873C0.890951 19.8206 0.349609 19.2792 0.349609 18.6115Z" fill="white"/>
<path fill-rule="evenodd" clip-rule="evenodd" d="M0.349609 36.7482C0.349609 36.0804 0.890951 35.5391 1.55873 35.5391H52.8519C53.5197 35.5391 54.061 36.0804 54.061 36.7482C54.061 37.416 53.5197 37.9573 52.8519 37.9573H1.55873C0.890951 37.9573 0.349609 37.416 0.349609 36.7482Z" fill="white"/>
<path fill-rule="evenodd" clip-rule="evenodd" d="M52.7266 42.1257L49.6554 45.1969C49.1191 45.7332 48.2496 45.7332 47.7133 45.1969C47.177 44.6606 47.177 43.7911 47.7133 43.2549L50.8083 40.1599C50.8232 40.1449 50.8386 40.1303 50.8542 40.116C52.4257 38.6837 54.4885 37.912 56.6142 37.9612C58.7398 38.0104 60.7648 38.8768 62.2682 40.3802C63.7717 41.8837 64.6381 43.9086 64.6873 46.0343C64.7365 48.1599 63.9648 50.2228 62.5325 51.7942C62.5177 51.8105 62.5025 51.8264 62.4869 51.8419L58.0668 56.2464C58.0661 56.247 58.0655 56.2476 58.0649 56.2483C57.3002 57.0154 56.3916 57.6241 55.3913 58.0395C54.3901 58.4553 53.3167 58.6694 52.2326 58.6694C51.1485 58.6694 50.0751 58.4553 49.074 58.0395C48.0728 57.6237 47.1636 57.0144 46.3985 56.2464C45.8632 55.7091 45.8648 54.8396 46.4021 54.3043C46.9394 53.769 47.8089 53.7706 48.3442 54.3079C48.8541 54.8198 49.4601 55.2259 50.1274 55.5031C50.7947 55.7802 51.5101 55.9228 52.2326 55.9228C52.9551 55.9228 53.6706 55.7802 54.3378 55.5031C55.0051 55.2259 55.6111 54.8198 56.1211 54.3079L56.1246 54.3044L60.5235 49.921C61.4665 48.8746 61.9741 47.5069 61.9415 46.0978C61.9086 44.6784 61.3301 43.3263 60.3261 42.3223C59.3222 41.3184 57.97 40.7399 56.5506 40.707C55.1412 40.6744 53.7731 41.1822 52.7266 42.1257Z" fill="black"/>
<path fill-rule="evenodd" clip-rule="evenodd" d="M56.1248 54.3036L56.1213 54.3072C55.6113 54.819 55.0053 55.2252 54.338 55.5023C53.6708 55.7794 52.9553 55.9221 52.2328 55.9221C51.5103 55.9221 50.7949 55.7794 50.1276 55.5023C49.4603 55.2252 48.8543 54.819 48.3444 54.3072C47.8091 53.7699 46.9396 53.7682 46.4023 54.3035C45.865 54.8388 45.8634 55.7083 46.3987 56.2456L45.1138 57.5257C43.8715 56.2788 43.8753 54.2609 45.1222 53.0187C46.3691 51.7764 48.387 51.7802 49.6292 53.0271C49.9707 53.3698 50.3764 53.6418 50.8232 53.8273C51.27 54.0129 51.749 54.1084 52.2328 54.1084C52.7166 54.1084 53.1956 54.0129 53.6424 53.8273C54.0892 53.6418 54.495 53.3698 54.8364 53.0271L54.8388 53.0247L54.8446 53.0189L59.2056 48.6733C59.82 47.975 60.15 47.0705 60.1285 46.1391C60.1064 45.186 59.718 44.2781 59.0439 43.604C58.3698 42.9299 57.4619 42.5415 56.5088 42.5194C55.5766 42.4978 54.6713 42.8284 53.9728 43.4439L50.938 46.4786C49.6935 47.7232 47.6756 47.7232 46.431 46.4786C45.1864 45.2341 45.1864 43.2162 46.431 41.9716L47.7135 43.2541C47.1772 43.7904 47.1772 44.6599 47.7135 45.1962C48.2498 45.7325 49.1193 45.7325 49.6556 45.1962L52.7268 42.1249C53.7733 41.1814 55.1414 40.6736 56.5508 40.7062C57.9702 40.7391 59.3224 41.3176 60.3264 42.3215C61.3303 43.3255 61.9088 44.6777 61.9417 46.0971C61.9743 47.5061 61.4667 48.8738 60.5238 49.9202L56.1248 54.3036ZM49.526 38.8766L46.431 41.9716L47.7135 43.2541L50.8085 40.1591C50.8235 40.1441 50.8388 40.1295 50.8544 40.1152C52.4259 38.6829 54.4887 37.9112 56.6144 37.9604C58.74 38.0096 60.765 38.876 62.2684 40.3795C63.7719 41.8829 64.6383 43.9079 64.6875 46.0335C64.7367 48.1592 63.965 50.222 62.5327 51.7935C62.5179 51.8097 62.5027 51.8256 62.4871 51.8411L58.067 56.2456L58.0651 56.2475C57.3004 57.0146 56.3918 57.6233 55.3915 58.0388C54.3903 58.4546 53.3169 58.6686 52.2328 58.6686C51.1487 58.6686 50.0753 58.4546 49.0742 58.0388C48.073 57.623 47.1638 57.0136 46.3987 56.2456L45.1138 57.5257C46.0474 58.4628 47.1569 59.2064 48.3785 59.7137C49.6002 60.2211 50.91 60.4823 52.2328 60.4823C53.5556 60.4823 54.8654 60.2211 56.0871 59.7137C57.3075 59.2069 58.4159 58.4644 59.3489 57.5286C59.349 57.5285 59.3492 57.5284 59.3493 57.5282C59.3492 57.5283 59.3494 57.5281 59.3493 57.5282L59.3521 57.5254L63.7672 53.1259C63.7672 53.1259 63.7672 53.1259 63.7672 53.1259M63.7672 53.1259C63.8034 53.0898 63.8388 53.0529 63.8731 53.0152C65.6196 51.099 66.5607 48.5835 66.5007 45.9915C66.4407 43.3995 65.3842 40.9303 63.5509 39.097C61.7176 37.2637 59.2484 36.2072 56.6564 36.1472C54.0644 36.0872 51.5489 37.0283 49.6327 38.7748C49.5964 38.8079 49.5608 38.8419 49.526 38.8766C49.526 38.8766 49.526 38.8766 49.526 38.8766" fill="white"/>
<path fill-rule="evenodd" clip-rule="evenodd" d="M46.9178 50.2231C46.1953 50.2231 45.4799 50.3657 44.8126 50.6429C44.1453 50.92 43.5393 51.3261 43.0294 51.838L43.0258 51.8415L43.0258 51.8415L38.6269 56.2249C37.6839 57.2713 37.1763 58.6391 37.2089 60.0481C37.2418 61.4675 37.8203 62.8197 38.8243 63.8236C39.8282 64.8276 41.1804 65.4061 42.5998 65.4389C44.0092 65.4716 45.3773 64.9637 46.4238 64.0202L49.495 60.949C50.0313 60.4127 50.9008 60.4127 51.4371 60.949C51.9734 61.4853 51.9734 62.3548 51.4371 62.8911L48.3422 65.9861C48.3272 66.001 48.3118 66.0157 48.2962 66.0299C46.7247 67.4622 44.6619 68.2339 42.5362 68.1847C40.4106 68.1355 38.3856 67.2692 36.8822 65.7657C35.3787 64.2622 34.5124 62.2373 34.4632 60.1116C34.4139 57.986 35.1857 55.9231 36.6179 54.3517C36.6328 54.3354 36.648 54.3195 36.6635 54.304L41.0855 49.8977C41.8502 49.1306 42.7588 48.5218 43.7592 48.1064C44.7603 47.6906 45.8337 47.4766 46.9178 47.4766C48.0019 47.4766 49.0753 47.6906 50.0765 48.1064C51.0776 48.5222 51.9868 49.1316 52.752 49.8995C53.2873 50.4368 53.2856 51.3063 52.7483 51.8416C52.211 52.3769 51.3415 52.3753 50.8062 51.838C50.2963 51.3261 49.6903 50.92 49.023 50.6429C48.3558 50.3657 47.6403 50.2231 46.9178 50.2231Z" fill="black"/>
<path fill-rule="evenodd" clip-rule="evenodd" d="M44.3143 53.1174L44.3108 53.1209C44.308 53.1238 44.3051 53.1266 44.3022 53.1295L39.9452 57.4711C39.3308 58.1694 39.0008 59.0739 39.0223 60.0053C39.0444 60.9584 39.4328 61.8663 40.1069 62.5404C40.781 63.2145 41.6889 63.6029 42.642 63.625C43.5742 63.6465 44.4795 63.316 45.178 62.7005L48.2128 59.6657C49.4574 58.4212 51.4752 58.4212 52.7198 59.6657C53.9644 60.9103 53.9644 62.9282 52.7198 64.1728L51.4373 62.8903C51.9736 62.354 51.9736 61.4845 51.4373 60.9482C50.901 60.4119 50.0315 60.4119 49.4952 60.9482L46.424 64.0195C45.3775 64.9629 44.0094 65.4708 42.6 65.4382C41.1806 65.4053 39.8284 64.8268 38.8245 63.8228C37.8205 62.8189 37.242 61.4667 37.2092 60.0473C37.1765 58.6383 37.6841 57.2706 38.6271 56.2242L43.0258 51.841L43.0296 51.8372C43.1054 51.7611 43.1833 51.6874 43.2632 51.616C43.721 51.2076 44.2448 50.878 44.8128 50.6421C45.4801 50.365 46.1955 50.2223 46.918 50.2223C47.6405 50.2223 48.356 50.365 49.0232 50.6421C49.6905 50.9192 50.2965 51.3254 50.8065 51.8372C51.3417 52.3745 52.2112 52.3761 52.7485 51.8409C53.2858 51.3056 53.2875 50.4361 52.7522 49.8988L54.037 48.6187C55.2793 49.8656 55.2755 51.8835 54.0286 53.1257C52.7817 54.368 50.7638 54.3642 49.5216 53.1173C49.1801 52.7746 48.7744 52.5026 48.3276 52.3171C47.8808 52.1315 47.4018 52.036 46.918 52.036C46.4342 52.036 45.9552 52.1315 45.5084 52.3171C45.0616 52.5026 44.6558 52.7746 44.3143 53.1174ZM35.3836 53.0185C35.3474 53.0545 35.3121 53.0914 35.2777 53.1292C33.5312 55.0454 32.5902 57.5608 32.6502 60.1529C32.7102 62.7449 33.7666 65.2141 35.5999 67.0474C37.4332 68.8807 39.9025 69.9371 42.4945 69.9971C45.0865 70.0572 47.6019 69.1161 49.5181 67.3696C49.5545 67.3365 49.59 67.3025 49.6248 67.2677L52.7198 64.1728L51.4373 62.8903L48.3424 65.9853C48.3274 66.0003 48.312 66.0149 48.2964 66.0292C46.725 67.4614 44.6621 68.2332 42.5364 68.184C40.4108 68.1347 38.3858 67.2684 36.8824 65.7649C35.3789 64.2615 34.5126 62.2365 34.4634 60.1109C34.4141 57.9852 35.1859 55.9224 36.6181 54.3509C36.633 54.3347 36.6482 54.3188 36.6638 54.3032L41.0857 49.8969C41.8504 49.1298 42.759 48.5211 43.7594 48.1056C44.7605 47.6898 45.8339 47.4758 46.918 47.4758C48.0021 47.4758 49.0755 47.6898 50.0767 48.1056C51.0778 48.5214 51.987 49.1308 52.7522 49.8988L54.037 48.6187C53.1034 47.6816 51.9939 46.938 50.7723 46.4306C49.5506 45.9233 48.2408 45.6621 46.918 45.6621C45.5952 45.6621 44.2854 45.9233 43.0637 46.4306C41.8441 46.9372 40.7362 47.6792 39.8035 48.6142L35.3836 53.0185C35.3836 53.0185 35.3836 53.0185 35.3836 53.0185Z" fill="white"/>
</svg>
