<svg width="69" height="70" viewBox="0 0 69 70" fill="none" xmlns="http://www.w3.org/2000/svg">
<path fill-rule="evenodd" clip-rule="evenodd" d="M13.3915 42.4657H0V40.1367H14.2233C15.0502 40.1367 15.7205 40.807 15.7205 41.6339V62.0123C15.7205 62.8392 15.0502 63.5095 14.2233 63.5095H0V61.1806H13.3915V42.4657Z" fill="#161922"/>
<path fill-rule="evenodd" clip-rule="evenodd" d="M8.15039 62.5938V41.4668H10.4794V62.5938H8.15039Z" fill="#161922"/>
<path fill-rule="evenodd" clip-rule="evenodd" d="M28.7115 43.6297H14.6396V41.3008H29.0571C29.4477 41.3008 29.8309 41.4525 30.1177 41.7411C31.6979 43.3314 33.8544 45.45 35.8672 47.4275C38.4334 49.9487 40.7661 52.2405 41.3733 52.9152C42.2386 53.8765 42.4217 55.1565 42.2521 56.2914C42.0813 57.4345 41.5386 58.5828 40.7307 59.4691C39.9185 60.3603 38.7748 61.0497 37.4032 61.1037C36.0159 61.1583 34.6054 60.555 33.289 59.2679C29.5143 55.577 27.6474 53.3192 26.9441 52.4108L28.7856 50.9851C29.4132 51.7956 31.206 53.974 34.9172 57.6027C35.8975 58.5612 36.7166 58.8 37.3117 58.7765C37.9225 58.7525 38.514 58.4439 39.0095 57.9003C39.5093 57.3518 39.8469 56.6287 39.9487 55.9472C40.0518 55.2574 39.8999 54.7595 39.6422 54.4732C39.0715 53.839 36.8708 51.6778 34.3888 49.2402C32.4545 47.3405 30.3492 45.273 28.7115 43.6297Z" fill="#161922"/>
<path fill-rule="evenodd" clip-rule="evenodd" d="M68.6414 50.0632C68.4318 50.7621 68.0092 51.5394 67.2989 51.9572C67.2277 51.9991 66.8447 52.2296 66.2143 52.6088C63.8525 54.0298 58.0192 57.5395 52.1139 61.0421C48.385 63.2539 44.6379 65.4565 41.7533 67.1073C40.3124 67.9319 39.0786 68.6234 38.1671 69.1106C37.7132 69.3533 37.3265 69.552 37.0288 69.6925C36.8816 69.762 36.7396 69.8252 36.6136 69.8734C36.5511 69.8973 36.4769 69.9236 36.3985 69.9454C36.3398 69.9617 36.1938 70.0005 36.016 70.0005C35.7352 70.0005 35.4457 69.907 35.3004 69.8592C35.0992 69.7931 34.8611 69.7025 34.6012 69.5969C34.0785 69.3847 33.4061 69.0871 32.6443 68.738C31.1181 68.0384 29.1817 67.108 27.2652 66.1835C27.0134 66.0621 26.762 65.9407 26.5118 65.82C24.8519 65.0188 23.2476 64.2445 21.9658 63.6447C21.2274 63.299 20.6077 63.0169 20.1519 62.8227C19.9224 62.7249 19.7487 62.6556 19.6288 62.6127C19.6127 62.6069 19.5985 62.6019 19.5863 62.5978H14.7227V60.2688H19.7133C19.9038 60.2688 20.0695 60.3129 20.1349 60.3306C20.2278 60.3558 20.3237 60.3877 20.4143 60.4202C20.5971 60.4857 20.8189 60.5754 21.0646 60.68C21.5591 60.8907 22.2086 61.1869 22.9531 61.5353C24.2486 62.1416 25.8675 62.923 27.5255 63.7232C27.7755 63.8438 28.0263 63.9649 28.277 64.0858C30.1971 65.012 32.1128 65.9324 33.6148 66.6208C34.3671 66.9657 35.0027 67.2464 35.4772 67.439C35.6751 67.5194 35.8346 67.5801 35.9568 67.6227C35.9806 67.6118 36.0065 67.5997 36.0345 67.5865C36.28 67.4706 36.6269 67.2931 37.0693 67.0566C37.9506 66.5856 39.1611 65.9074 40.5966 65.0859C43.4649 63.4444 47.1994 61.2493 50.9258 59.039C56.8119 55.5478 62.7044 52.0027 65.0592 50.5859C65.6767 50.2144 66.0509 49.9893 66.1181 49.9498C66.1179 49.9499 66.1183 49.9496 66.1191 49.9488C66.1339 49.9352 66.2919 49.7899 66.4105 49.3943C66.5246 49.0138 66.5453 48.5725 66.4451 48.1908C66.3502 47.8291 66.1557 47.5398 65.826 47.346C65.4816 47.1436 64.8599 46.9704 63.7848 47.1138C59.8275 47.6414 44.6908 50.2917 37.3125 51.6787L36.8822 49.3898C44.254 48.0041 59.4493 45.3423 63.477 44.8052C64.8973 44.6159 66.0847 44.7966 67.0061 45.3382C67.9423 45.8885 68.4704 46.7333 68.6978 47.5994C68.9199 48.4454 68.8626 49.3253 68.6414 50.0632ZM19.5254 62.5784C19.5265 62.5787 19.5278 62.5791 19.5293 62.5795C19.5143 62.5762 19.5119 62.5748 19.5254 62.5784Z" fill="#161922"/>
<path d="M59.2019 18.5863C59.2019 28.8513 50.8806 37.1726 40.6156 37.1726C30.3507 37.1726 22.0293 28.8513 22.0293 18.5863C22.0293 8.32138 30.3507 0 40.6156 0C50.8806 0 59.2019 8.32138 59.2019 18.5863Z" fill="#3DB249"/>
<path fill-rule="evenodd" clip-rule="evenodd" d="M35.0179 17.5116C36.4879 17.5116 37.6796 16.3199 37.6796 14.8499C37.6796 13.3799 36.4879 12.1883 35.0179 12.1883C33.5479 12.1883 32.3562 13.3799 32.3562 14.8499C32.3562 16.3199 33.5479 17.5116 35.0179 17.5116ZM35.0179 18.8424C37.2229 18.8424 39.0104 17.0549 39.0104 14.8499C39.0104 12.6449 37.2229 10.8574 35.0179 10.8574C32.8129 10.8574 31.0254 12.6449 31.0254 14.8499C31.0254 17.0549 32.8129 18.8424 35.0179 18.8424Z" fill="white"/>
<path fill-rule="evenodd" clip-rule="evenodd" d="M45.6634 25.496C47.1334 25.496 48.3251 24.3043 48.3251 22.8343C48.3251 21.3643 47.1334 20.1726 45.6634 20.1726C44.1934 20.1726 43.0017 21.3643 43.0017 22.8343C43.0017 24.3043 44.1934 25.496 45.6634 25.496ZM45.6634 26.8268C47.8684 26.8268 49.6559 25.0393 49.6559 22.8343C49.6559 20.6293 47.8684 18.8418 45.6634 18.8418C43.4584 18.8418 41.6709 20.6293 41.6709 22.8343C41.6709 25.0393 43.4584 26.8268 45.6634 26.8268Z" fill="white"/>
<path fill-rule="evenodd" clip-rule="evenodd" d="M32.8552 25.3302L45.9972 10.8573L46.9824 11.752L33.8404 26.2248L32.8552 25.3302Z" fill="white"/>
</svg>
