<svg width="85" height="70" viewBox="0 0 85 70" fill="none" xmlns="http://www.w3.org/2000/svg">
<path fill-rule="evenodd" clip-rule="evenodd" d="M57.4365 31.8962L59.7859 33.8378L60.0869 33.6145C63.058 31.0743 67.0267 30.0303 70.8632 30.7797C76.793 31.8797 81.1892 36.9109 81.4841 42.9346C81.5687 43.6963 81.2617 44.4491 80.6686 44.9345C79.8468 45.6166 78.9589 46.215 78.0183 46.7208C74.7632 48.282 71.1669 48.9966 67.5623 48.7984H67.0575V51.7983C67.1675 51.804 67.2776 51.804 67.3876 51.7983C71.6808 52.1353 75.9846 51.2927 79.8337 49.3615C81.2435 48.6695 82.4832 47.675 83.4646 46.449C84.2163 45.5472 84.6071 44.3989 84.5617 43.2258C84.4574 37.1079 80.8522 31.5924 75.2902 29.0419C75.1239 28.9588 74.9541 28.8829 74.7805 28.8054C74.6703 28.7562 74.5587 28.7064 74.4456 28.6536C77.8371 26.0812 79.2076 21.6307 77.8506 17.5961C76.4936 13.5615 72.7122 10.8438 68.4555 10.8438C64.1988 10.8438 60.4174 13.5615 59.0604 17.5961C57.7035 21.6307 59.0739 26.0812 62.4655 28.6536C60.6056 29.419 58.9013 30.5179 57.4365 31.8962ZM74.9027 24.2417C73.5419 26.4587 71.0349 27.7044 68.4461 27.4499V27.4693C64.9476 27.1761 62.2482 24.2663 62.218 20.7557C62.1878 17.245 64.8366 14.2892 68.3296 13.9358C70.9137 13.6367 73.4418 14.839 74.8406 17.0322C76.2394 19.2254 76.2636 22.0247 74.9027 24.2417Z" fill="black"/>
<path fill-rule="evenodd" clip-rule="evenodd" d="M26.5184 31.0357C25.1313 29.7217 23.5159 28.6722 21.7516 27.9387C24.8297 25.9141 26.4965 22.3216 26.0548 18.6639C25.6131 15.0062 23.1391 11.9137 19.6676 10.6799C16.1961 9.44615 12.3253 10.2837 9.6744 12.8422C7.79137 14.3171 6.55269 16.4639 6.21823 18.8323C5.65363 22.3124 7.03969 25.8223 9.82974 27.9776L9.42199 28.1717C4.41632 30.3408 0.915403 34.9767 0.19904 40.3849C-0.185255 41.8905 -0.00929216 43.4845 0.694166 44.8701C1.4381 46.0739 2.46878 47.0746 3.69405 47.7826C6.69041 49.53 10.064 50.5291 13.5286 50.6951C14.2359 50.7406 14.9475 50.7253 15.6519 50.7101C16.0014 50.7026 16.3491 50.6951 16.6936 50.6951L16.8392 47.6855H15.4023C13.3087 47.6795 11.2255 47.3922 9.2084 46.8312C7.36092 46.3832 5.6385 45.5237 4.16976 44.3167C3.43696 43.747 3.06631 42.8278 3.19892 41.9091C3.23315 41.666 3.26014 41.4218 3.28712 41.1777C3.33667 40.7293 3.38618 40.2812 3.48047 39.8412C4.73927 34.0472 9.86151 29.9106 15.7907 29.8998C18.0813 29.9435 20.3244 30.561 22.3147 31.6959C22.7205 31.9357 23.1069 32.2105 23.5009 32.4909C23.729 32.6531 23.9596 32.8172 24.1981 32.9774L26.5184 31.0357ZM22.2668 20.2485C22.2614 23.857 19.3319 26.7779 15.7234 26.7725C13.9873 26.7803 12.3204 26.0928 11.0947 24.8634C9.86892 23.634 9.18637 21.9651 9.19936 20.2291C9.20472 16.6206 12.1343 13.6997 15.7428 13.7051C19.3513 13.7104 22.2722 16.64 22.2668 20.2485Z" fill="black"/>
<path d="M41.9787 61.3345C35.5802 61.2359 30.074 60.3812 24.8943 57.9378C22.9713 57.1102 21.2515 55.8685 19.8561 54.3C19.0506 53.3583 18.627 52.1455 18.67 50.9033C18.9627 39.2773 27.8942 29.7341 39.4026 28.7506C50.911 27.7672 61.3119 35.6583 63.5463 47.0683C63.7857 48.2846 63.8401 49.5447 63.9816 50.7828C64.0934 51.9442 63.6959 53.0968 62.8934 53.9384C61.7196 55.286 60.3061 56.4009 58.7257 57.2256C54.8972 59.2779 50.7106 60.5652 46.3967 61.0167C44.6882 61.1811 42.9689 61.2578 41.9787 61.3345Z" fill="#3DB249"/>
<path d="M40.9228 24.6355C35.3793 24.9973 28.6879 20.0526 28.666 12.3671C28.666 5.53692 34.1878 0 40.9993 0C47.8108 0 53.3326 5.53692 53.3326 12.3671C53.3107 20.4144 46.2694 25.0959 40.9228 24.6355Z" fill="#3DB249"/>
<path fill-rule="evenodd" clip-rule="evenodd" d="M64.8689 43.8687C64.8689 42.8366 64.0323 42 63.0003 42C61.9682 42 61.1316 42.8366 61.1316 43.8687V52.4646H52.5357C51.5036 52.4646 50.667 53.3012 50.667 54.3333C50.667 55.3653 51.5036 56.202 52.5357 56.202H61.1316V64.7979C61.1316 65.8299 61.9682 66.6665 63.0003 66.6665C64.0323 66.6665 64.8689 65.8299 64.8689 64.7979V56.202H73.4649C74.4969 56.202 75.3335 55.3653 75.3335 54.3333C75.3335 53.3012 74.4969 52.4646 73.4649 52.4646H64.8689V43.8687Z" fill="black"/>
<path fill-rule="evenodd" clip-rule="evenodd" d="M62.9996 38.666C65.8726 38.666 68.2016 40.995 68.2016 43.868V49.1306H73.4642C76.3372 49.1306 78.6662 51.4596 78.6662 54.3326C78.6662 57.2056 76.3372 59.5346 73.4642 59.5346H68.2016V64.7972C68.2016 67.6702 65.8726 69.9992 62.9996 69.9992C60.1266 69.9992 57.7976 67.6702 57.7976 64.7972V59.5346H52.535C49.662 59.5346 47.333 57.2056 47.333 54.3326C47.333 51.4596 49.662 49.1306 52.535 49.1306H57.7976V43.868C57.7976 40.995 60.1266 38.666 62.9996 38.666ZM61.1309 43.868C61.1309 42.836 61.9676 41.9993 62.9996 41.9993C64.0316 41.9993 64.8683 42.836 64.8683 43.868V52.4639H73.4642C74.4962 52.4639 75.3329 53.3006 75.3329 54.3326C75.3329 55.3647 74.4962 56.2013 73.4642 56.2013H64.8683V64.7972C64.8683 65.8293 64.0316 66.6659 62.9996 66.6659C61.9676 66.6659 61.1309 65.8293 61.1309 64.7972V56.2013H52.535C51.503 56.2013 50.6663 55.3647 50.6663 54.3326C50.6663 53.3006 51.503 52.4639 52.535 52.4639H61.1309V43.868Z" fill="white"/>
</svg>
