<svg width="54" height="51" viewBox="0 0 54 51" fill="none" xmlns="http://www.w3.org/2000/svg">
<path d="M53.3669 6.36719H38.5098V50.9386H53.3669V6.36719Z" fill="#3DB249"/>
<path d="M2.30566 29.7148H17.1628V50.9393H2.30566V29.7148Z" fill="#3DB249"/>
<path d="M20.4082 19.1016H35.2653V50.9383H20.4082V19.1016Z" fill="#3DB249"/>
<path fill-rule="evenodd" clip-rule="evenodd" d="M29.7091 0.276289C30.1236 0.644675 30.1236 1.24195 29.7091 1.61033L16.9744 12.9301C16.56 13.2984 15.8881 13.2984 15.4736 12.9301L10.9179 8.88053L2.11729 16.7033C1.70285 17.0717 1.03092 17.0717 0.61649 16.7033C0.202056 16.3349 0.202056 15.7376 0.61649 15.3693L10.1675 6.87946C10.5819 6.51108 11.2539 6.51108 11.6683 6.87946L16.224 10.929L28.2083 0.276289C28.6228 -0.0920964 29.2947 -0.0920964 29.7091 0.276289Z" fill="#161922"/>
<path fill-rule="evenodd" clip-rule="evenodd" d="M17.2861 1.06122C17.2861 0.475126 17.8563 0 18.5596 0H28.7474C29.4507 0 30.0208 0.475126 30.0208 1.06122V9.55102C30.0208 10.1371 29.4507 10.6122 28.7474 10.6122C28.044 10.6122 27.4739 10.1371 27.4739 9.55102V2.12245H18.5596C17.8563 2.12245 17.2861 1.64732 17.2861 1.06122Z" fill="#161922"/>
</svg>
