<svg width="52" height="52" viewBox="0 0 52 52" fill="none" xmlns="http://www.w3.org/2000/svg">
<path fill-rule="evenodd" clip-rule="evenodd" d="M9.94806 31.5465H0V29.8164H10.5659C11.1802 29.8164 11.6782 30.3144 11.6782 30.9286V46.067C11.6782 46.6812 11.1802 47.1792 10.5659 47.1792H0V45.4491H9.94806V31.5465Z" fill="#161922"/>
<path fill-rule="evenodd" clip-rule="evenodd" d="M6.05469 46.4991V30.8047H7.78478V46.4991H6.05469Z" fill="#161922"/>
<path fill-rule="evenodd" clip-rule="evenodd" d="M21.3284 32.4117H10.875V30.6816H21.5852C21.8753 30.6816 22.16 30.7943 22.373 31.0088C23.5469 32.1901 25.1489 33.7639 26.6441 35.2329C28.5505 37.1058 30.2833 38.8083 30.7344 39.3095C31.3771 40.0237 31.5132 40.9745 31.3872 41.8176C31.2603 42.6667 30.8572 43.5198 30.257 44.1782C29.6537 44.8402 28.8041 45.3524 27.7852 45.3925C26.7546 45.433 25.7068 44.9849 24.7289 44.0287C21.9248 41.2869 20.5379 39.6097 20.0155 38.9348L21.3835 37.8757C21.8497 38.4779 23.1815 40.096 25.9384 42.7917C26.6666 43.5037 27.2751 43.6811 27.7172 43.6637C28.1709 43.6458 28.6103 43.4166 28.9784 43.0127C29.3497 42.6053 29.6005 42.0682 29.6761 41.5619C29.7527 41.0495 29.6399 40.6796 29.4484 40.4669C29.0245 39.9958 27.3897 38.3903 25.5459 36.5795C24.1089 35.1683 22.545 33.6324 21.3284 32.4117Z" fill="#161922"/>
<path fill-rule="evenodd" clip-rule="evenodd" d="M50.9916 37.1905C50.8359 37.7097 50.522 38.2871 49.9943 38.5975C49.9415 38.6286 49.6569 38.7998 49.1887 39.0815C47.4342 40.1371 43.1008 42.7444 38.714 45.3463C35.9439 46.9894 33.1604 48.6256 31.0175 49.8519C29.9471 50.4645 29.0306 50.9782 28.3535 51.3401C28.0162 51.5203 27.729 51.6679 27.5079 51.7724C27.3985 51.824 27.293 51.8709 27.1994 51.9067C27.153 51.9245 27.0979 51.944 27.0396 51.9602C26.996 51.9723 26.8876 52.0012 26.7555 52.0012C26.5469 52.0012 26.3318 51.9316 26.2239 51.8962C26.0744 51.8471 25.8976 51.7797 25.7045 51.7013C25.3162 51.5437 24.8167 51.3226 24.2508 51.0632C23.117 50.5435 21.6785 49.8524 20.2548 49.1656C20.0678 49.0754 19.881 48.9853 19.6952 48.8956C18.4621 48.3004 17.2704 47.7253 16.3182 47.2796C15.7696 47.0229 15.3093 46.8133 14.9707 46.669C14.8002 46.5964 14.6712 46.5449 14.5821 46.513C14.5701 46.5087 14.5596 46.505 14.5505 46.5019H10.9375V44.7718H14.6449C14.7864 44.7718 14.9094 44.8046 14.9581 44.8178C15.027 44.8365 15.0983 44.8602 15.1656 44.8843C15.3014 44.9329 15.4662 44.9996 15.6487 45.0773C16.0161 45.2338 16.4985 45.4538 17.0515 45.7127C18.014 46.1631 19.2166 46.7435 20.4483 47.338C20.6339 47.4276 20.8203 47.5175 21.0065 47.6074C22.4328 48.2954 23.856 48.9791 24.9717 49.4905C25.5306 49.7467 26.0028 49.9552 26.3553 50.0983C26.5023 50.158 26.6207 50.2031 26.7115 50.2347C26.7292 50.2266 26.7484 50.2177 26.7693 50.2078C26.9516 50.1218 27.2093 49.9899 27.5379 49.8142C28.1926 49.4643 29.0919 48.9605 30.1582 48.3503C32.289 47.1309 35.0632 45.5002 37.8314 43.8583C42.2039 41.2648 46.5813 38.6313 48.3306 37.5788C48.7893 37.3028 49.0673 37.1356 49.1171 37.1063C49.117 37.1063 49.1173 37.1061 49.1179 37.1055C49.1289 37.0954 49.2463 36.9875 49.3344 36.6936C49.4191 36.411 49.4345 36.0831 49.3601 35.7995C49.2896 35.5309 49.1451 35.316 48.9002 35.172C48.6443 35.0217 48.1825 34.893 47.3839 34.9995C44.4441 35.3914 33.1997 37.3602 27.7186 38.3906L27.399 36.6902C32.8752 35.6608 44.1632 33.6835 47.1552 33.2846C48.2103 33.1439 49.0923 33.2782 49.7768 33.6805C50.4723 34.0893 50.8646 34.7168 51.0335 35.3602C51.1985 35.9887 51.1559 36.6424 50.9916 37.1905ZM14.5053 46.4876C14.5061 46.4878 14.507 46.488 14.5081 46.4884C14.497 46.4859 14.4953 46.4848 14.5053 46.4876Z" fill="#161922"/>
<path d="M43.9774 13.8071C43.9774 21.4325 37.7958 27.6141 30.1703 27.6141C22.5449 27.6141 16.3633 21.4325 16.3633 13.8071C16.3633 6.18163 22.5449 0 30.1703 0C37.7958 0 43.9774 6.18163 43.9774 13.8071Z" fill="#3DB249"/>
<path fill-rule="evenodd" clip-rule="evenodd" d="M26.0137 13.0095C27.1057 13.0095 27.991 12.1243 27.991 11.0323C27.991 9.94028 27.1057 9.05503 26.0137 9.05503C24.9217 9.05503 24.0365 9.94028 24.0365 11.0323C24.0365 12.1243 24.9217 13.0095 26.0137 13.0095ZM26.0137 13.9982C27.6517 13.9982 28.9796 12.6703 28.9796 11.0323C28.9796 9.39428 27.6517 8.06641 26.0137 8.06641C24.3757 8.06641 23.0479 9.39428 23.0479 11.0323C23.0479 12.6703 24.3757 13.9982 26.0137 13.9982Z" fill="white"/>
<path fill-rule="evenodd" clip-rule="evenodd" d="M33.9219 18.9412C35.0139 18.9412 35.8992 18.0559 35.8992 16.9639C35.8992 15.8719 35.0139 14.9867 33.9219 14.9867C32.8299 14.9867 31.9447 15.8719 31.9447 16.9639C31.9447 18.0559 32.8299 18.9412 33.9219 18.9412ZM33.9219 19.9298C35.5599 19.9298 36.8878 18.6019 36.8878 16.9639C36.8878 15.3259 35.5599 13.998 33.9219 13.998C32.2839 13.998 30.9561 15.3259 30.9561 16.9639C30.9561 18.6019 32.2839 19.9298 33.9219 19.9298Z" fill="white"/>
<path fill-rule="evenodd" clip-rule="evenodd" d="M24.4068 18.8172L34.1695 8.06587L34.9014 8.73047L25.1387 19.4818L24.4068 18.8172Z" fill="white"/>
</svg>
