<svg width="35" height="52" viewBox="0 0 35 52" fill="none" xmlns="http://www.w3.org/2000/svg">
<path d="M17.8263 51.9989C12.9334 51.9269 8.7229 51.3034 4.762 49.5207C3.29144 48.9169 1.97639 48.011 0.909283 46.8667C0.293305 46.1796 -0.0305482 45.2947 0.00227125 44.3885C0.226147 35.9064 7.05598 28.9439 15.8564 28.2263C24.6568 27.5088 32.6103 33.266 34.3189 41.5906C34.502 42.4779 34.5436 43.3972 34.6518 44.3006C34.7373 45.1479 34.4334 45.9888 33.8197 46.6029C32.9221 47.586 31.8412 48.3994 30.6326 49.0011C27.705 50.4984 24.5036 51.4376 21.2047 51.767C19.8983 51.887 18.5835 51.9429 17.8263 51.9989Z" fill="#3DB249"/>
<path d="M17.8008 25.0112C13.2993 25.3051 7.86541 21.2897 7.84766 15.0486C7.84766 9.50216 12.3317 5.00586 17.863 5.00586C23.3943 5.00586 27.8783 9.50216 27.8783 15.0486C27.8605 21.5835 22.1426 25.3852 17.8008 25.0112Z" fill="#3DB249"/>
<path fill-rule="evenodd" clip-rule="evenodd" d="M7.74574 5.79144C5.72256 8.3998 4.84728 11.5429 4.66618 13.6255L3.53906 13.5275C3.73509 11.2731 4.67001 7.91083 6.85177 5.09803C9.05079 2.26296 12.5096 0 17.6791 0C22.8385 0 26.296 2.15975 28.4988 4.8763C30.6842 7.57132 31.6221 10.7948 31.8189 12.9596L30.6922 13.062C30.5119 11.0784 29.6396 8.07934 27.6201 5.5889C25.618 3.11999 22.4758 1.13137 17.6791 1.13137C12.8925 1.13137 9.75165 3.20534 7.74574 5.79144Z" fill="#161922"/>
<path fill-rule="evenodd" clip-rule="evenodd" d="M5.23396 19.798V15.2725C5.23396 14.6477 4.72743 14.1411 4.10259 14.1411C3.47775 14.1411 2.97122 14.6477 2.97122 15.2725V19.798C2.97122 20.4228 3.47775 20.9294 4.10259 20.9294C4.72743 20.9294 5.23396 20.4228 5.23396 19.798ZM4.10259 13.0098C2.85291 13.0098 1.83984 14.0228 1.83984 15.2725V19.798C1.83984 21.0477 2.85291 22.0608 4.10259 22.0608C5.35227 22.0608 6.36534 21.0477 6.36534 19.798V15.2725C6.36534 14.0228 5.35227 13.0098 4.10259 13.0098Z" fill="#161922"/>
<path fill-rule="evenodd" clip-rule="evenodd" d="M32.3863 19.5734V15.0479C32.3863 14.4231 31.8798 13.9165 31.2549 13.9165C30.6301 13.9165 30.1236 14.4231 30.1236 15.0479V19.5734C30.1236 20.1982 30.6301 20.7048 31.2549 20.7048C31.8798 20.7048 32.3863 20.1982 32.3863 19.5734ZM31.2549 12.7852C30.0053 12.7852 28.9922 13.7982 28.9922 15.0479V19.5734C28.9922 20.8231 30.0053 21.8361 31.2549 21.8361C32.5046 21.8361 33.5177 20.8231 33.5177 19.5734V15.0479C33.5177 13.7982 32.5046 12.7852 31.2549 12.7852Z" fill="black"/>
<path fill-rule="evenodd" clip-rule="evenodd" d="M31.2559 20.9297C31.5683 20.9297 31.8215 21.183 31.8215 21.4954C31.8215 22.9431 31.6431 24.0746 31.2026 24.9351C30.7465 25.8261 30.0375 26.3733 29.1082 26.6966C28.2074 27.0099 27.09 27.1164 25.7823 27.152C24.9309 27.1752 23.9641 27.1683 22.8915 27.1607C22.3155 27.1566 21.709 27.1522 21.0735 27.1522C20.7611 27.1522 20.5078 26.899 20.5078 26.5866C20.5078 26.2741 20.7611 26.0209 21.0735 26.0209C21.7316 26.0209 22.3485 26.0253 22.9282 26.0295C23.9852 26.037 24.9184 26.0437 25.7515 26.0211C27.0425 25.9859 28.011 25.8804 28.7366 25.628C29.4336 25.3855 29.8914 25.0135 30.1955 24.4196C30.5151 23.7952 30.6902 22.8761 30.6902 21.4954C30.6902 21.183 30.9434 20.9297 31.2559 20.9297Z" fill="#161922"/>
</svg>
