<svg width="55" height="52" viewBox="0 0 55 52" fill="none" xmlns="http://www.w3.org/2000/svg">
<path d="M0 2.36364C0 1.05824 1.05824 0 2.36364 0H21.2727C22.5781 0 23.6364 1.05824 23.6364 2.36364V21.2727C23.6364 22.5781 22.5781 23.6364 21.2727 23.6364H2.36364C1.05824 23.6364 0 22.5781 0 21.2727V2.36364Z" fill="#3DB249"/>
<path d="M23.6364 40.182C23.6364 46.709 18.3452 52.0001 11.8182 52.0001C5.29118 52.0001 0 46.709 0 40.182C0 33.655 5.29118 28.3638 11.8182 28.3638C18.3452 28.3638 23.6364 33.655 23.6364 40.182Z" fill="#3DB249"/>
<path d="M40.3933 29.9392C40.9998 28.8887 42.5161 28.8887 43.1226 29.9392L54.0398 48.8483C54.6463 49.8988 53.8882 51.212 52.6751 51.212H30.8408C29.6278 51.212 28.8696 49.8988 29.4762 48.8483L40.3933 29.9392Z" fill="#3DB249"/>
<path fill-rule="evenodd" clip-rule="evenodd" d="M41.3795 3.93953C37.2447 3.93953 33.8795 7.30446 33.8795 11.4395C33.8795 15.5746 37.2447 18.9395 41.3795 18.9395C45.5142 18.9395 48.8795 15.5746 48.8795 11.4395C48.8795 7.30446 45.5142 3.93953 41.3795 3.93953ZM32.3037 11.4395C32.3037 6.43415 36.3745 2.36377 41.3795 2.36377C46.3844 2.36377 50.4552 6.43415 50.4552 11.4395C50.4552 16.4449 46.3844 20.5153 41.3795 20.5153C36.3745 20.5153 32.3037 16.4449 32.3037 11.4395Z" fill="black"/>
<path d="M44.6711 11.2326H41.8078V8.3694C41.8078 8.1937 41.6654 8.05127 41.4897 8.05127C41.314 8.05127 41.1716 8.1937 41.1716 8.3694V11.2326H38.3084C38.1327 11.2326 37.9902 11.375 37.9902 11.5507C37.9902 11.7264 38.1327 11.8689 38.3084 11.8689H41.1716V14.7321C41.1716 14.9078 41.314 15.0502 41.4897 15.0502C41.6654 15.0502 41.8078 14.9078 41.8078 14.7321V11.8689H44.6711C44.8468 11.8689 44.9892 11.7264 44.9892 11.5507C44.9892 11.375 44.8468 11.2326 44.6711 11.2326Z" fill="#161922"/>
<path fill-rule="evenodd" clip-rule="evenodd" d="M40.9753 8.36911C40.9753 8.08462 41.2059 7.854 41.4904 7.854C41.7749 7.854 42.0055 8.08462 42.0055 8.36911V11.0353H44.6717C44.9562 11.0353 45.1868 11.266 45.1868 11.5504C45.1868 11.8349 44.9562 12.0656 44.6717 12.0656H42.0055V14.7318C42.0055 15.0163 41.7749 15.2469 41.4904 15.2469C41.2059 15.2469 40.9753 15.0163 40.9753 14.7318V12.0656H38.309C38.0246 12.0656 37.7939 11.8349 37.7939 11.5504C37.7939 11.266 38.0246 11.0353 38.309 11.0353H40.9753V8.36911ZM41.4904 8.24794C41.4235 8.24794 41.3692 8.30219 41.3692 8.36911V11.4293H38.309C38.2421 11.4293 38.1879 11.4835 38.1879 11.5504C38.1879 11.6174 38.2421 11.6716 38.309 11.6716H41.3692V14.7318C41.3692 14.7987 41.4235 14.853 41.4904 14.853C41.5573 14.853 41.6116 14.7987 41.6116 14.7318V11.6716H44.6717C44.7386 11.6716 44.7929 11.6174 44.7929 11.5504C44.7929 11.4835 44.7386 11.4293 44.6717 11.4293H41.6116V8.36911C41.6116 8.30219 41.5573 8.24794 41.4904 8.24794Z" fill="#161922" stroke="black" stroke-width="0.5"/>
</svg>
