<svg width="82" height="62" viewBox="0 0 82 62" fill="none" xmlns="http://www.w3.org/2000/svg">
<g clip-path="url(#clip0_1053_37858)">
<rect x="10" width="62" height="62" rx="31" fill="url(#paint0_linear_1053_37858)" fill-opacity="0.2"/>
<rect x="24" y="10.3965" width="34.5412" height="42.217" rx="5.07842" fill="#F6F6F6" stroke="url(#paint1_linear_1053_37858)" stroke-width="1.2793"/>
<ellipse opacity="0.2" cx="26.772" cy="26.439" rx="26.772" ry="26.439" transform="matrix(0.999885 0.015191 -0.0155762 0.999879 41.4541 5.2793)" stroke="url(#paint2_linear_1053_37858)" stroke-width="0.522382" stroke-linecap="round" stroke-linejoin="round" stroke-dasharray="1.39 2.79"/>
<path d="M61.5978 56.3476L61.4875 56.0756C60.9934 54.8569 59.7881 53.8915 58.2565 53.5308L57.8544 53.4361L58.203 53.2144C58.6315 52.9419 58.9591 52.5392 59.1371 52.067C59.315 51.5948 59.3339 51.0782 59.1909 50.5946C59.0478 50.1109 58.7505 49.6859 58.3431 49.3834C57.9357 49.0808 57.4402 48.9172 56.9308 48.9172C56.4214 48.9172 55.9259 49.0808 55.5185 49.3834C55.1111 49.6859 54.8138 50.1109 54.6707 50.5946C54.5277 51.0782 54.5466 51.5948 54.7245 52.067C54.9025 52.5392 55.2301 52.9419 55.6586 53.2144L56.0073 53.4362L55.605 53.5308C54.0714 53.8915 52.8682 54.8569 52.3741 56.0756L52.2635 56.3484L52.0777 56.1202C51.4505 55.35 51.0186 54.4417 50.8186 53.4715C50.6186 52.5014 50.6562 51.4978 50.9283 50.5451C51.2004 49.5924 51.699 48.7184 52.3821 47.9965C53.0652 47.2746 53.9129 46.7259 54.854 46.3962C55.795 46.0664 56.8021 45.9654 57.7906 46.1014C58.7792 46.2374 59.7205 46.6066 60.5356 47.178C61.3506 47.7494 62.0157 48.5065 62.4748 49.3857C62.9339 50.2649 63.1736 51.2406 63.1738 52.2308L61.5978 56.3476ZM61.5978 56.3476L61.7836 56.1205M61.5978 56.3476L61.7836 56.1205M61.7836 56.1205C62.6835 55.0208 63.1745 53.6474 63.1738 52.2309L61.7836 56.1205Z" fill="#77B280" stroke="white" stroke-width="0.348254"/>
<path d="M61.6491 56.0106C61.081 56.7092 60.3624 57.2727 59.546 57.6599C58.7295 58.0471 57.836 58.2481 56.931 58.2481C56.0259 58.2481 55.1324 58.0471 54.316 57.6599C53.4995 57.2727 52.7809 56.7092 52.2129 56.0106C52.7319 54.7304 53.987 53.7329 55.5653 53.3617C55.1059 53.0691 54.7543 52.6369 54.5634 52.1296C54.3725 51.6224 54.3524 51.0675 54.5061 50.548C54.6599 50.0285 54.9793 49.5724 55.4164 49.2479C55.8535 48.9234 56.3849 48.748 56.931 48.748C57.477 48.748 58.0084 48.9234 58.4455 49.2479C58.8827 49.5724 59.202 50.0285 59.3558 50.548C59.5096 51.0675 59.4895 51.6224 59.2985 52.1296C59.1076 52.6369 58.7561 53.0691 58.2966 53.3617C59.8729 53.7329 61.13 54.7304 61.6491 56.0106Z" fill="white"/>
<path d="M28.0757 23.6796L28.003 23.5003C27.6772 22.6968 26.8826 22.0602 25.8727 21.8224L25.6076 21.7599L25.8374 21.6138C26.1199 21.4341 26.3359 21.1686 26.4533 20.8573C26.5706 20.5459 26.5831 20.2053 26.4887 19.8864C26.3944 19.5675 26.1984 19.2873 25.9298 19.0878C25.6612 18.8884 25.3344 18.7805 24.9986 18.7805C24.6627 18.7805 24.336 18.8884 24.0674 19.0878C23.7988 19.2873 23.6028 19.5675 23.5084 19.8864C23.4141 20.2053 23.4266 20.5459 23.5439 20.8573C23.6613 21.1686 23.8773 21.4341 24.1598 21.6138L24.3897 21.76L24.1245 21.8224C23.1133 22.0602 22.32 22.6967 21.9942 23.5003L21.9213 23.6801L21.7988 23.5297C21.3852 23.0218 21.1005 22.423 20.9686 21.7833C20.8367 21.1437 20.8615 20.482 21.0409 19.8538C21.2203 19.2257 21.5491 18.6494 21.9995 18.1734C22.4499 17.6975 23.0088 17.3356 23.6293 17.1183C24.2498 16.9009 24.9137 16.8342 25.5655 16.9239C26.2173 17.0136 26.8379 17.257 27.3753 17.6338C27.9128 18.0105 28.3512 18.5097 28.654 19.0894C28.9567 19.6691 29.1147 20.3124 29.1148 20.9652L28.0757 23.6796ZM28.0757 23.6796L28.1982 23.5299M28.0757 23.6796L28.1982 23.5299M28.1982 23.5299C28.7916 22.8048 29.1153 21.8993 29.1148 20.9653L28.1982 23.5299Z" fill="#77B280" stroke="white" stroke-width="0.229617"/>
<path d="M28.1093 23.4574C27.7348 23.918 27.261 24.2896 26.7227 24.5449C26.1844 24.8001 25.5952 24.9326 24.9985 24.9326C24.4018 24.9326 23.8126 24.8001 23.2743 24.5449C22.736 24.2896 22.2622 23.918 21.8877 23.4574C22.2299 22.6133 23.0574 21.9556 24.0981 21.7109C23.7951 21.518 23.5634 21.233 23.4375 20.8985C23.3116 20.5641 23.2983 20.1982 23.3997 19.8557C23.5011 19.5132 23.7117 19.2125 23.9999 18.9985C24.2881 18.7846 24.6385 18.6689 24.9985 18.6689C25.3585 18.6689 25.7089 18.7846 25.9971 18.9985C26.2853 19.2125 26.4959 19.5132 26.5973 19.8557C26.6987 20.1982 26.6854 20.5641 26.5595 20.8985C26.4336 21.233 26.2019 21.518 25.8989 21.7109C26.9382 21.9556 27.7671 22.6133 28.1093 23.4574Z" fill="white"/>
<path d="M46.4442 30.4551L46.4442 30.4546C46.4395 29.4662 46.1962 28.4933 45.7346 27.6173C45.2731 26.7414 44.6067 25.9879 43.7915 25.4198C42.9763 24.8517 42.0358 24.4855 41.0487 24.3517C40.0617 24.2178 39.0567 24.3203 38.1177 24.6505C37.1787 24.9807 36.333 25.5291 35.6513 26.2499C34.9696 26.9707 34.4719 27.8429 34.1997 28.7938C33.9276 29.7447 33.8891 30.7463 34.0874 31.715C34.2857 32.6837 34.715 33.5911 35.3394 34.3613L35.5252 34.5905L35.636 34.3171C36.1302 33.0983 37.3333 32.1329 38.8669 31.7722L39.269 31.6777L38.9206 31.4558C38.4928 31.1834 38.1657 30.7811 37.9881 30.3093C37.8105 29.8376 37.7919 29.3216 37.9349 28.8385C38.0779 28.3553 38.375 27.9309 38.7819 27.6288C39.189 27.3266 39.6839 27.1632 40.1927 27.1632C40.7015 27.1632 41.1965 27.3266 41.6035 27.6288C42.0105 27.9309 42.3076 28.3553 42.4506 28.8385C42.5936 29.3216 42.5749 29.8376 42.3973 30.3093C42.2197 30.7811 41.8927 31.1834 41.4648 31.4558L41.1165 31.6777L41.5185 31.7722C43.0521 32.1329 44.2553 33.0983 44.7494 34.3171L44.8594 34.5883L45.0453 34.3622C45.9522 33.2591 46.4465 31.8787 46.4442 30.4551Z" fill="#4D8CEC" stroke="white" stroke-width="0.348254"/>
<path d="M44.9108 34.2525C44.3427 34.9511 43.6241 35.5146 42.8077 35.9018C41.9913 36.289 41.0977 36.49 40.1927 36.49C39.2877 36.49 38.3941 36.289 37.5777 35.9018C36.7612 35.5146 36.0426 34.9511 35.4746 34.2525C35.9936 32.9723 37.2487 31.9748 38.827 31.6036C38.3669 31.311 38.0148 30.8784 37.8235 30.3707C37.6321 29.863 37.6118 29.3076 37.7656 28.7875C37.9194 28.2674 38.239 27.8107 38.6766 27.4858C39.1141 27.1609 39.646 26.9854 40.1927 26.9854C40.7393 26.9854 41.2713 27.1609 41.7088 27.4858C42.1463 27.8107 42.4659 28.2674 42.6197 28.7875C42.7735 29.3076 42.7532 29.863 42.5619 30.3707C42.3705 30.8784 42.0184 31.311 41.5583 31.6036C43.1452 31.9642 44.4002 32.9618 44.9108 34.2525Z" fill="white"/>
<path d="M38.0718 9.46691L38.0718 9.46669C38.0698 9.05937 37.9695 8.65845 37.7793 8.29748C37.5891 7.93651 37.3146 7.62601 36.9786 7.39191C36.6427 7.15781 36.2551 7.00689 35.8484 6.95175C35.4416 6.89661 35.0275 6.93882 34.6405 7.07489C34.2536 7.21096 33.9051 7.43694 33.6241 7.73397C33.3432 8.031 33.1381 8.39046 33.026 8.78229C32.9138 9.17413 32.8979 9.58691 32.9797 9.98608C33.0614 10.3853 33.2383 10.7592 33.4956 11.0766L33.5722 11.171L33.6178 11.0584C33.8215 10.5561 34.3173 10.1583 34.9493 10.0097L35.1149 9.9707L34.9714 9.87929C34.7951 9.76702 34.6603 9.60123 34.5871 9.40682C34.5139 9.21242 34.5062 8.99978 34.5652 8.8007C34.6241 8.60161 34.7465 8.42669 34.9142 8.3022C35.082 8.17769 35.2859 8.11035 35.4956 8.11035C35.7053 8.11035 35.9092 8.17769 36.077 8.3022C36.2447 8.42669 36.3671 8.60161 36.426 8.8007C36.485 8.99978 36.4773 9.21242 36.4041 9.40682C36.3309 9.60123 36.1961 9.76702 36.0198 9.87929L35.8763 9.9707L36.0419 10.0097C36.6739 10.1583 37.1697 10.5561 37.3734 11.0584L37.4187 11.1701L37.4953 11.077C37.869 10.6224 38.0727 10.0535 38.0718 9.46691Z" fill="#4D8CEC" stroke="white" stroke-width="0.143511"/>
<path d="M37.4403 11.0318C37.2062 11.3197 36.9101 11.5519 36.5736 11.7115C36.2372 11.871 35.869 11.9538 35.496 11.9538C35.1231 11.9538 34.7548 11.871 34.4184 11.7115C34.082 11.5519 33.7858 11.3197 33.5518 11.0318C33.7656 10.5043 34.2828 10.0932 34.9332 9.94023C34.7436 9.81964 34.5985 9.64139 34.5197 9.43218C34.4408 9.22297 34.4325 8.99406 34.4959 8.77974C34.5592 8.56542 34.6909 8.37723 34.8712 8.24335C35.0515 8.10947 35.2707 8.03711 35.496 8.03711C35.7213 8.03711 35.9405 8.10947 36.1208 8.24335C36.3011 8.37723 36.4328 8.56542 36.4962 8.77974C36.5595 8.99406 36.5512 9.22297 36.4723 9.43218C36.3935 9.64139 36.2484 9.81964 36.0588 9.94023C36.7127 10.0888 37.2299 10.4999 37.4403 11.0318Z" fill="white"/>
<path d="M63.1738 10.0141C63.1736 9.02384 62.9339 8.04816 62.4748 7.16892C62.0157 6.2897 61.3506 5.53265 60.5356 4.96121C59.7205 4.38979 58.7792 4.02062 57.7906 3.8846C56.8021 3.74858 55.795 3.84965 54.854 4.17936C53.9129 4.50907 53.0652 5.05784 52.3821 5.77974C51.699 6.50164 51.2004 7.3756 50.9283 8.32832C50.6562 9.28104 50.6186 10.2846 50.8186 11.2547C51.0186 12.2249 51.4505 13.1332 52.0777 13.9034L52.2632 14.1312L52.374 13.8591C52.8703 12.6401 54.0736 11.6747 55.6071 11.314L56.0098 11.2193L55.6607 10.9976C55.232 10.7252 54.9041 10.3226 54.7259 9.85038C54.5477 9.37816 54.5287 8.86148 54.6716 8.37766C54.8146 7.89383 55.1119 7.46866 55.5193 7.16605C55.9268 6.86342 56.4224 6.69972 56.9319 6.69972C57.4413 6.69972 57.9369 6.86342 58.3444 7.16605C58.7519 7.46866 59.0492 7.89383 59.1921 8.37766C59.335 8.86148 59.316 9.37816 59.1378 9.85038C58.9596 10.3226 58.6318 10.7252 58.2031 10.9976L57.854 11.2193L58.2566 11.314C59.7902 11.6747 60.9934 12.6401 61.4875 13.8589L61.5977 14.1306L61.7836 13.9038C62.6844 12.8046 63.1755 11.4308 63.1738 10.0141ZM63.1738 10.0141L62.9996 10.0141L63.1738 10.0139C63.1738 10.0139 63.1738 10.014 63.1738 10.0141Z" fill="#FFA520" stroke="white" stroke-width="0.348254"/>
<path d="M61.65 13.7825C61.082 14.4811 60.3634 15.0446 59.547 15.4318C58.7305 15.819 57.837 16.0199 56.932 16.0199C56.0269 16.0199 55.1334 15.819 54.3169 15.4318C53.5005 15.0446 52.7819 14.4811 52.2139 13.7825C52.735 12.5023 53.9901 11.5048 55.5684 11.1336C55.1081 10.8411 54.7557 10.4086 54.5641 9.9009C54.3726 9.39319 54.3521 8.83759 54.5058 8.31737C54.6595 7.79715 54.9791 7.34032 55.4166 7.01532C55.8542 6.69032 56.3863 6.51465 56.933 6.51465C57.4798 6.51465 58.0118 6.69032 58.4494 7.01532C58.887 7.34032 59.2066 7.79715 59.3602 8.31737C59.5139 8.83759 59.4935 9.39319 59.3019 9.9009C59.1103 10.4086 58.7579 10.8411 58.2976 11.1336C59.876 11.5048 61.131 12.5023 61.65 13.7825Z" fill="white"/>
<path d="M34.1276 45.6878L34.1912 45.8445L35 43.4696L35.1005 43.4696C35.1005 43.4696 35.1005 43.4696 35.1005 43.4695C35.1004 42.8983 34.9621 42.3354 34.6972 41.8282C34.4323 41.321 34.0487 40.8842 33.5784 40.5545C33.1082 40.2249 32.5651 40.0119 31.9948 39.9334C31.4245 39.855 30.8435 39.9133 30.3006 40.1035C29.7577 40.2937 29.2687 40.6103 28.8745 41.0268C28.4804 41.4432 28.1928 41.9474 28.0358 42.4971C27.8788 43.0467 27.8571 43.6257 27.9725 44.1854C28.0879 44.7451 28.3371 45.2691 28.6989 45.7134L28.806 45.8449L28.8699 45.6879C29.1562 44.9846 29.8504 44.4277 30.7351 44.2196L30.9674 44.165L30.766 44.037C30.5187 43.8799 30.3295 43.6476 30.2267 43.3752C30.1239 43.1028 30.1129 42.8047 30.1954 42.5256C30.2779 42.2464 30.4494 42.0011 30.6845 41.8266C30.9195 41.652 31.2055 41.5575 31.4994 41.5575C31.7933 41.5575 32.0792 41.652 32.3143 41.8266C32.5494 42.0011 32.7209 42.2464 32.8034 42.5256C32.8858 42.8047 32.8748 43.1028 32.772 43.3752C32.6692 43.6476 32.4801 43.8799 32.2328 44.037L32.0314 44.165L32.2636 44.2196C33.1484 44.4277 33.8425 44.9846 34.1276 45.6878Z" fill="#FFA520" stroke="white" stroke-width="0.200914"/>
<path d="M34.2212 45.6431C33.8935 46.0462 33.479 46.3713 33.0079 46.5947C32.5369 46.818 32.0214 46.934 31.4993 46.934C30.9772 46.934 30.4617 46.818 29.9906 46.5947C29.5196 46.3713 29.105 46.0462 28.7773 45.6431C29.078 44.9046 29.8021 44.3291 30.7127 44.1149C30.4471 43.9462 30.2438 43.6967 30.1333 43.4038C30.0227 43.1109 30.0109 42.7903 30.0996 42.4902C30.1883 42.1901 30.3726 41.9265 30.6251 41.739C30.8775 41.5515 31.1845 41.4502 31.4999 41.4502C31.8153 41.4502 32.1223 41.5515 32.3747 41.739C32.6272 41.9265 32.8116 42.1901 32.9002 42.4902C32.9889 42.7903 32.9771 43.1109 32.8666 43.4038C32.756 43.6967 32.5527 43.9462 32.2872 44.1149C33.1977 44.3291 33.9218 44.9046 34.2212 45.6431Z" fill="white"/>
</g>
<defs>
<linearGradient id="paint0_linear_1053_37858" x1="41" y1="0" x2="41" y2="62" gradientUnits="userSpaceOnUse">
<stop/>
<stop offset="1" stop-opacity="0"/>
</linearGradient>
<linearGradient id="paint1_linear_1053_37858" x1="41.9102" y1="10.3965" x2="41.9102" y2="52.6134" gradientUnits="userSpaceOnUse">
<stop stop-color="#E4F0E6"/>
<stop offset="0.0001" stop-color="#E2E2E3"/>
<stop offset="1" stop-color="#AED1B3"/>
</linearGradient>
<linearGradient id="paint2_linear_1053_37858" x1="-0.404742" y1="26.8748" x2="26.457" y2="26.4459" gradientUnits="userSpaceOnUse">
<stop stop-color="#268334"/>
<stop offset="1" stop-color="#268334" stop-opacity="0"/>
</linearGradient>
<clipPath id="clip0_1053_37858">
<rect width="82" height="62" rx="2.87547" fill="white"/>
</clipPath>
</defs>
</svg>
