<svg width="82" height="62" viewBox="0 0 82 62" fill="none" xmlns="http://www.w3.org/2000/svg">
<rect x="10.25" width="62.7812" height="62" rx="31" fill="url(#paint0_linear_1053_37502)" fill-opacity="0.2"/>
<g clip-path="url(#clip0_1053_37502)">
<ellipse opacity="0.2" cx="20.927" cy="20.6667" rx="20.927" ry="20.6667" transform="matrix(0.999885 0.015191 -0.0155762 0.999879 21.3857 9.67285)" stroke="#268334" stroke-width="0.408333" stroke-linecap="round" stroke-linejoin="round" stroke-dasharray="1.09 2.18"/>
<path d="M60.9533 42.3662H23.2278C21.0879 42.3662 16.1787 44.1117 16.1787 46.2662V50.5218C16.1787 52.6762 17.9131 54.4218 20.053 54.4218H63.9265C66.0644 54.4218 67.7989 52.6762 67.7989 50.5218V46.2662C67.7989 44.1117 63.0892 42.3662 60.9533 42.3662Z" fill="#0D2C11"/>
<path d="M24.5673 34.4405L24.4811 34.2279C24.0949 33.2753 23.1528 32.5206 21.9556 32.2387L21.6412 32.1646L21.9137 31.9913C22.2486 31.7783 22.5047 31.4636 22.6438 31.0945C22.783 30.7254 22.7977 30.3216 22.6859 29.9435C22.5741 29.5654 22.3417 29.2332 22.0232 28.9967C21.7048 28.7602 21.3174 28.6323 20.9193 28.6323C20.5211 28.6323 20.1338 28.7602 19.8153 28.9967C19.4968 29.2332 19.2644 29.5654 19.1526 29.9435C19.0408 30.3216 19.0556 30.7254 19.1947 31.0945C19.3338 31.4636 19.5899 31.7783 19.9248 31.9913L20.1974 32.1647L19.8829 32.2387C18.6841 32.5206 17.7436 33.2752 17.3574 34.2279L17.271 34.4411L17.1257 34.2627C16.6354 33.6607 16.2979 32.9507 16.1415 32.1923C15.9851 31.434 16.0145 30.6495 16.2272 29.9048C16.4399 29.1601 16.8297 28.477 17.3636 27.9127C17.8976 27.3484 18.5603 26.9194 19.2959 26.6617C20.0315 26.404 20.8186 26.325 21.5914 26.4313C22.3641 26.5376 23.0999 26.8262 23.737 27.2728C24.3741 27.7195 24.894 28.3113 25.2529 28.9986C25.6117 29.6858 25.7991 30.4485 25.7992 31.2225L24.5673 34.4405ZM24.5673 34.4405L24.7126 34.263M24.5673 34.4405L24.7126 34.263M24.7126 34.263C25.416 33.4034 25.7998 32.3298 25.7992 31.2225L24.7126 34.263Z" fill="#77B280" stroke="white" stroke-width="0.272222"/>
<path d="M24.6075 34.177C24.1635 34.723 23.6017 35.1635 22.9636 35.4662C22.3254 35.7688 21.6269 35.9259 20.9195 35.9259C20.212 35.9259 19.5136 35.7688 18.8754 35.4662C18.2372 35.1635 17.6755 34.723 17.2314 34.177C17.6372 33.1763 18.6182 32.3965 19.852 32.1064C19.4928 31.8777 19.218 31.5398 19.0688 31.1433C18.9195 30.7468 18.9038 30.3131 19.024 29.907C19.1442 29.5009 19.3939 29.1444 19.7356 28.8907C20.0772 28.6371 20.4926 28.5 20.9195 28.5C21.3463 28.5 21.7617 28.6371 22.1034 28.8907C22.445 29.1444 22.6947 29.5009 22.8149 29.907C22.9351 30.3131 22.9194 30.7468 22.7701 31.1433C22.6209 31.5398 22.3461 31.8777 21.987 32.1064C23.2191 32.3965 24.2018 33.1763 24.6075 34.177Z" fill="white"/>
<path d="M48.7007 38.0404H46.456V22.8737C46.456 21.3224 45.2754 20.0596 43.8238 20.0596H39.1282C37.6766 20.0596 36.496 21.3224 36.496 22.8737V32.6233H34.2529V22.8687C34.2529 20.0909 36.4395 17.8291 39.1282 17.8291H43.8188C46.5075 17.8242 48.7007 20.0909 48.7007 22.8687V38.0404Z" fill="url(#paint1_linear_1053_37502)"/>
<path d="M48.8338 52.7864H36.1885C33.8706 52.7864 31.2833 49.5503 31.0938 47.7368L31.9916 36.0881C31.9916 34.9846 32.4338 33.9262 33.2209 33.1459C34.0079 32.3656 35.0754 31.9272 36.1885 31.9272L47.6748 31.3057C49.9578 31.6799 53.0306 33.79 53.0306 36.0865V48.6238C53.0308 49.1703 52.9224 49.7116 52.7116 50.2166C52.5008 50.7216 52.1917 51.1805 51.802 51.5671C51.4122 51.9536 50.9495 52.2603 50.4402 52.4695C49.9309 52.6787 49.3851 52.7864 48.8338 52.7864Z" fill="#195723"/>
<path d="M47.2291 31.2822H35.2671C32.9493 31.2822 31.0703 33.1451 31.0703 35.4432V47.3029C31.0703 49.6009 32.9493 51.4639 35.2671 51.4639H47.2291C49.5469 51.4639 51.4259 49.6009 51.4259 47.3029V35.4432C51.4259 33.1451 49.5469 31.2822 47.2291 31.2822Z" fill="url(#paint2_linear_1053_37502)"/>
<path d="M43.6552 39.6505C43.6562 39.2323 43.5463 38.8212 43.3367 38.4583C43.127 38.0954 42.8248 37.7935 42.4605 37.5828C42.0961 37.3722 41.6823 37.2601 41.2605 37.2578C40.8386 37.2556 40.4236 37.3633 40.057 37.5701C39.6904 37.7768 39.385 38.0755 39.1714 38.4361C38.9578 38.7968 38.8435 39.2067 38.8399 39.6249C38.8364 40.0431 38.9437 40.4549 39.1512 40.819C39.3587 41.1831 39.659 41.4868 40.0221 41.6997L39.3885 45.4815H43.0948L42.468 41.6997C42.8288 41.4903 43.1281 41.191 43.3364 40.8316C43.5446 40.4722 43.6545 40.065 43.6552 39.6505Z" fill="#18471D"/>
<path d="M65.7533 44.4326H18.2235C16.3235 44.4326 14.7832 45.8791 14.7832 47.6634V51.1907C14.7832 52.975 16.3235 54.4215 18.2235 54.4215H65.7533C67.6533 54.4215 69.1936 52.975 69.1936 51.1907V47.6634C69.1936 45.8791 67.6533 44.4326 65.7533 44.4326Z" fill="url(#paint3_linear_1053_37502)"/>
<path d="M27.2503 50.1778C27.1328 50.2526 27.0114 50.3235 26.8862 50.3905C26.7615 50.4581 26.6384 50.529 26.5137 50.6032C26.4705 50.5224 26.4256 50.4383 26.379 50.3575C26.3325 50.2768 26.2843 50.1927 26.2344 50.1136C26.3641 50.046 26.4904 49.9784 26.6118 49.9108C26.7332 49.8432 26.8546 49.774 26.9793 49.7064L26.6118 49.4855C26.4899 49.4118 26.3668 49.3409 26.2427 49.2728C26.2809 49.1986 26.3208 49.1244 26.3641 49.0502L26.4954 48.8293C26.6185 48.8969 26.7448 48.9678 26.8729 49.042L27.2503 49.2629V48.376H27.809C27.8024 48.5243 27.799 48.6711 27.799 48.8161C27.799 48.9596 27.799 49.1096 27.799 49.2629L28.1898 49.0469L28.5722 48.8392C28.6088 48.9118 28.6487 48.9859 28.6936 49.0601L28.8233 49.2827C28.6986 49.3503 28.5755 49.4212 28.4508 49.4937C28.3261 49.5662 28.1964 49.6421 28.0601 49.7163L28.4375 49.9339C28.5573 50.0048 28.6836 50.0773 28.815 50.1498C28.7701 50.224 28.7252 50.3015 28.6786 50.3806C28.6321 50.4597 28.5839 50.5455 28.534 50.6213C28.4109 50.5537 28.2879 50.4812 28.1665 50.4037C28.0451 50.3262 27.9188 50.2553 27.7891 50.1877C27.7891 50.3229 27.7891 50.4597 27.7891 50.5982C27.7891 50.7367 27.7891 50.8768 27.7891 51.0186H27.2503V50.1778Z" fill="#268334"/>
<path d="M31.3209 50.1778C31.2029 50.252 31.0832 50.3229 30.9584 50.3905C30.8337 50.4581 30.709 50.529 30.586 50.6032C30.5428 50.5224 30.4979 50.4383 30.4496 50.3575C30.4014 50.2768 30.3549 50.1927 30.3066 50.1136C30.4363 50.046 30.5627 49.9784 30.6841 49.9108C30.8055 49.8432 30.9269 49.774 31.0516 49.7064C30.9269 49.6322 30.8038 49.5596 30.6841 49.4855C30.5644 49.4113 30.4397 49.3404 30.315 49.2728C30.3532 49.1986 30.3931 49.1244 30.4363 49.0502L30.5677 48.8293C30.6907 48.8969 30.8171 48.9678 30.9435 49.042L31.3209 49.2629V48.376H31.8813C31.8746 48.5243 31.8713 48.6711 31.8713 48.8161C31.8713 48.9596 31.8713 49.1096 31.8713 49.2629C32.001 49.1904 32.1307 49.1178 32.2621 49.0469L32.6445 48.8392C32.6811 48.9118 32.721 48.9859 32.7659 49.0601L32.8956 49.2827C32.7709 49.3503 32.6478 49.4212 32.5231 49.4937C32.3984 49.5662 32.2687 49.6421 32.1307 49.7163C32.2621 49.7904 32.3884 49.863 32.5081 49.9339C32.6279 50.0048 32.7559 50.0773 32.8856 50.1498L32.7509 50.3806C32.7043 50.4614 32.6561 50.5455 32.6062 50.6213C32.4815 50.5537 32.3602 50.4812 32.2388 50.4037C32.1174 50.3262 31.991 50.2553 31.8613 50.1877C31.8613 50.3229 31.8613 50.4597 31.8613 50.5982C31.8613 50.7367 31.8613 50.8768 31.8613 51.0186H31.3392L31.3209 50.1778Z" fill="#268334"/>
<path d="M35.3109 50.1778C35.1923 50.2526 35.0709 50.3235 34.9467 50.3905C34.822 50.4581 34.699 50.529 34.5743 50.6032C34.531 50.5224 34.4861 50.4383 34.4396 50.3575C34.393 50.2768 34.3448 50.1927 34.2949 50.1136C34.4246 50.046 34.551 49.9784 34.6724 49.9108C34.7938 49.8432 34.9151 49.774 35.0398 49.7064L34.6724 49.4855C34.5504 49.4118 34.4274 49.3409 34.3032 49.2728C34.3415 49.1986 34.3814 49.1244 34.4246 49.0502L34.556 48.8293C34.679 48.8969 34.8054 48.9678 34.9334 49.042L35.3109 49.2629V48.376H35.8696C35.8629 48.5243 35.8596 48.6711 35.8596 48.8161C35.8596 48.9596 35.8596 49.1096 35.8596 49.2629L36.2503 49.0469L36.6328 48.8392C36.6693 48.9118 36.7109 48.9859 36.7541 49.0601L36.8838 49.2827C36.7591 49.3503 36.6361 49.4212 36.5114 49.4937C36.3867 49.5662 36.257 49.6421 36.1206 49.7163L36.4981 49.9339C36.6178 50.0048 36.7442 50.0773 36.8755 50.1498C36.8306 50.224 36.7857 50.3015 36.7392 50.3806C36.6926 50.4597 36.6444 50.5455 36.5945 50.6213C36.4715 50.5537 36.3484 50.4812 36.2271 50.4037C36.1057 50.3262 35.981 50.2553 35.8496 50.1877C35.8496 50.3229 35.8496 50.4597 35.8496 50.5982C35.8496 50.7367 35.8496 50.8768 35.8496 51.0186H35.3275L35.3109 50.1778Z" fill="#268334"/>
<path d="M39.096 50.1778C38.978 50.252 38.8566 50.3229 38.7335 50.3905C38.6105 50.4581 38.4841 50.529 38.3611 50.6032L38.2247 50.3575C38.1782 50.2751 38.13 50.1927 38.0801 50.1136C38.2114 50.046 38.3378 49.9784 38.4575 49.9108L38.8267 49.7064L38.4575 49.4855C38.3378 49.4113 38.2148 49.3404 38.0901 49.2728C38.1266 49.1986 38.1682 49.1244 38.2114 49.0502L38.3411 48.8293C38.4658 48.8969 38.5922 48.9678 38.7186 49.042L39.096 49.2629V48.376H39.6547C39.6547 48.5243 39.6464 48.6711 39.6464 48.8161C39.6464 48.9612 39.6464 49.1096 39.6364 49.2629L40.0288 49.0469L40.4096 48.8392C40.4479 48.9118 40.4878 48.9859 40.531 49.0601L40.6624 49.2827C40.5377 49.3503 40.4129 49.4212 40.2899 49.4937C40.1669 49.5662 40.0338 49.6421 39.8975 49.7163L40.2749 49.9339C40.3963 50.0048 40.5227 50.0773 40.6524 50.1498L40.5177 50.3806C40.4711 50.4614 40.4229 50.5455 40.373 50.6213C40.2483 50.5537 40.1253 50.4812 40.0056 50.4037C39.8858 50.3262 39.7578 50.2553 39.6281 50.1877C39.6281 50.3229 39.6281 50.4597 39.6281 50.5982C39.6281 50.7367 39.6281 50.8768 39.6281 51.0186H39.106L39.096 50.1778Z" fill="#268334"/>
<path d="M43.2132 50.1778C43.0957 50.2526 42.9743 50.3235 42.8491 50.3905C42.726 50.4581 42.6013 50.529 42.4766 50.6032C42.4334 50.5224 42.3885 50.4383 42.3419 50.3575C42.2954 50.2768 42.2471 50.1927 42.1973 50.1136C42.3286 50.046 42.4533 49.9784 42.5747 49.9108L42.9422 49.7064L42.5747 49.4855C42.4533 49.4113 42.3303 49.3404 42.2072 49.2728C42.2438 49.1986 42.2837 49.1244 42.3286 49.0502L42.4583 48.8293C42.583 48.8969 42.7077 48.9678 42.8358 49.042L43.2132 49.2629V48.376H43.7719C43.7719 48.5243 43.7636 48.6711 43.7636 48.8161C43.7636 48.9612 43.7636 49.1096 43.7536 49.2629L44.1444 49.0469L44.5268 48.8392C44.565 48.9118 44.6049 48.9859 44.6482 49.0601L44.7779 49.2827C44.6548 49.3503 44.5301 49.4212 44.4054 49.4937C44.2807 49.5662 44.151 49.6421 44.0147 49.7163L44.3921 49.9339C44.5135 50.0048 44.6382 50.0773 44.7696 50.1498L44.6349 50.3806C44.5883 50.4614 44.5401 50.5455 44.4902 50.6213C44.3661 50.5532 44.243 50.4806 44.1211 50.4037C43.9997 50.3279 43.875 50.2553 43.7436 50.1877C43.7436 50.3229 43.7436 50.4597 43.7436 50.5982C43.7436 50.7367 43.7436 50.8768 43.7436 51.0186H43.2132V50.1778Z" fill="#268334"/>
<path d="M47.5032 50.1778C47.3846 50.2526 47.2633 50.3235 47.1391 50.3905C47.0144 50.4581 46.8914 50.529 46.7666 50.6032C46.7234 50.5224 46.6785 50.4383 46.632 50.3575C46.5854 50.2768 46.5372 50.1927 46.4873 50.1136C46.617 50.046 46.7434 49.9784 46.8647 49.9108C46.9861 49.8432 47.1075 49.774 47.2322 49.7064L46.8714 49.4855C46.75 49.4113 46.627 49.3404 46.5039 49.2728C46.5405 49.1992 46.5804 49.125 46.6237 49.0502C46.6685 48.9777 46.7118 48.9035 46.755 48.8293C46.8797 48.8969 47.0044 48.9678 47.1325 49.042L47.5099 49.2629V48.376H48.0686C48.0619 48.5243 48.0586 48.6711 48.0586 48.8161C48.0586 48.9596 48.0586 49.1096 48.0503 49.2629L48.441 49.0469L48.8235 48.8392C48.8601 48.9118 48.9016 48.9859 48.9449 49.0601L49.0746 49.2827C48.9499 49.3503 48.8268 49.4212 48.7021 49.4937C48.5774 49.5662 48.4477 49.6421 48.3114 49.7163L48.6888 49.9339C48.8102 50.0048 48.9349 50.0773 49.0662 50.1498C49.0214 50.224 48.9765 50.3015 48.9299 50.3806C48.8833 50.4597 48.8351 50.5455 48.7869 50.6213C48.6627 50.5532 48.5397 50.4806 48.4178 50.4037C48.2964 50.3279 48.1717 50.2553 48.0403 50.1877C48.0403 50.3229 48.0403 50.4597 48.0403 50.5982C48.0403 50.7367 48.0403 50.8768 48.0403 51.0186H47.5032V50.1778Z" fill="#268334"/>
<path d="M51.638 50.1778C51.5194 50.2526 51.398 50.3235 51.2739 50.3905C51.1508 50.4581 51.0261 50.529 50.9014 50.6032C50.8582 50.5224 50.8133 50.4383 50.7667 50.3575C50.7202 50.2768 50.672 50.1927 50.6221 50.1136C50.7534 50.046 50.8781 49.9784 50.9995 49.9108L51.3603 49.7064L50.9929 49.4855C50.8715 49.4113 50.7484 49.3404 50.6254 49.2728C50.662 49.1986 50.7019 49.1244 50.7468 49.0502L50.8765 48.8293C51.0012 48.8969 51.1259 48.9678 51.2539 49.042L51.6314 49.2629V48.376H52.1917C52.1917 48.5243 52.1917 48.6711 52.1917 48.8161C52.1917 48.9612 52.1917 49.1096 52.1817 49.2629L52.5725 49.0469L52.9549 48.8392C52.9932 48.9118 53.0331 48.9859 53.0763 49.0601L53.206 49.2827C53.083 49.3503 52.9582 49.4212 52.8335 49.4937C52.7088 49.5662 52.5791 49.6421 52.4428 49.7163L52.8202 49.9339C52.9416 50.0048 53.0663 50.0773 53.1977 50.1498L53.063 50.3806C53.0164 50.4614 52.9682 50.5455 52.9183 50.6213C52.7942 50.5532 52.6711 50.4806 52.5492 50.4037C52.4278 50.3279 52.3031 50.2553 52.1718 50.1877C52.1718 50.3229 52.1718 50.4597 52.1718 50.5982C52.1718 50.7367 52.1718 50.8768 52.1718 51.0186H51.6497L51.638 50.1778Z" fill="#268334"/>
<path d="M55.7884 50.1778C55.6704 50.252 55.549 50.3229 55.4259 50.3905C55.3029 50.4581 55.1765 50.529 55.0535 50.6032L54.9171 50.3575C54.8706 50.2751 54.8223 50.1927 54.7725 50.1136C54.9038 50.046 55.0302 49.9784 55.1499 49.9108L55.5174 49.7064L55.1482 49.4855C55.0285 49.4113 54.9055 49.3404 54.7808 49.2728C54.8174 49.1986 54.8589 49.1244 54.9022 49.0502L55.0319 48.8293C55.1566 48.8969 55.2829 48.9678 55.4093 49.042L55.7867 49.2629V48.376H56.3488C56.3488 48.5243 56.3404 48.6711 56.3404 48.8161C56.3404 48.9612 56.3405 49.1096 56.3305 49.2629L56.7229 49.0469L57.1037 48.8392C57.1419 48.9118 57.1818 48.9859 57.225 49.0601L57.3564 49.2827C57.2317 49.3503 57.107 49.4212 56.9839 49.4937C56.8609 49.5662 56.7279 49.6421 56.5915 49.7163L56.969 49.9339C57.0904 50.0048 57.2167 50.0773 57.3464 50.1498L57.2117 50.3806C57.1652 50.4614 57.117 50.5455 57.0671 50.6213C56.9424 50.5537 56.8193 50.4812 56.6996 50.4037C56.5799 50.3262 56.4519 50.2553 56.3222 50.1877C56.3222 50.3229 56.3222 50.4597 56.3222 50.5982C56.3222 50.7367 56.3222 50.8768 56.3222 51.0186H55.8001L55.7884 50.1778Z" fill="#268334"/>
<path d="M46.723 10.1902L46.723 10.1897C46.7194 9.4171 46.5291 8.65661 46.1684 7.9719C45.8076 7.28719 45.2867 6.69821 44.6494 6.25414C44.0122 5.81008 43.2771 5.52382 42.5055 5.41922C41.734 5.31462 40.9484 5.3947 40.2144 5.6528C39.4804 5.91091 38.8193 6.33955 38.2865 6.90299C37.7536 7.46642 37.3645 8.14827 37.1518 8.89153C36.9391 9.63479 36.9089 10.4178 37.064 11.175C37.219 11.9321 37.5546 12.6414 38.0426 13.2435L38.1879 13.4227L38.2745 13.2089C38.6608 12.2562 39.6012 11.5016 40.8 11.2197L41.1143 11.1458L40.842 10.9724C40.5076 10.7594 40.2519 10.4449 40.1131 10.0762C39.9743 9.70743 39.9597 9.30408 40.0715 8.92645C40.1832 8.5488 40.4155 8.21699 40.7336 7.98084C41.0518 7.74468 41.4387 7.61694 41.8364 7.61694C42.2341 7.61694 42.621 7.74468 42.9392 7.98084C43.2573 8.21699 43.4895 8.5488 43.6013 8.92645C43.7131 9.30408 43.6985 9.70743 43.5597 10.0762C43.4208 10.4449 43.1652 10.7594 42.8308 10.9724L42.5585 11.1458L42.8727 11.2197C44.0715 11.5016 45.012 12.2562 45.3983 13.2089L45.4842 13.421L45.6295 13.2442C46.3384 12.3819 46.7248 11.3029 46.723 10.1902Z" fill="#4D8CEC" stroke="white" stroke-width="0.272222"/>
<path d="M45.5245 13.1571C45.0804 13.7032 44.5187 14.1437 43.8805 14.4464C43.2423 14.749 42.5439 14.9061 41.8364 14.9061C41.129 14.9061 40.4305 14.749 39.7924 14.4464C39.1542 14.1437 38.5924 13.7032 38.1484 13.1571C38.5542 12.1565 39.5352 11.3767 40.7689 11.0865C40.4093 10.8578 40.1341 10.5197 39.9845 10.1228C39.8349 9.72598 39.8191 9.29177 39.9393 8.88524C40.0595 8.4787 40.3093 8.12173 40.6513 7.86777C40.9933 7.61382 41.4091 7.47656 41.8364 7.47656C42.2637 7.47656 42.6795 7.61382 43.0216 7.86777C43.3636 8.12173 43.6134 8.4787 43.7336 8.88524C43.8538 9.29177 43.838 9.72598 43.6884 10.1228C43.5388 10.5197 43.2636 10.8578 42.9039 11.0865C44.1444 11.3684 45.1254 12.1482 45.5245 13.1571Z" fill="white"/>
<path d="M67.3815 34.5726L67.4676 34.7851L68.5635 31.5673L68.6996 31.5673C68.6996 31.5672 68.6996 31.5672 68.6996 31.5671C68.6995 30.7931 68.5121 30.0305 68.1533 29.3433C67.7944 28.656 67.2745 28.0642 66.6374 27.6176C66.0003 27.1709 65.2645 26.8823 64.4918 26.776C63.719 26.6697 62.9318 26.7487 62.1962 27.0064C61.4606 27.2641 60.798 27.6931 60.264 28.2574C59.7301 28.8217 59.3403 29.5048 59.1276 30.2496C58.9149 30.9943 58.8855 31.7787 59.0419 32.5371C59.1982 33.2954 59.5358 34.0054 60.0261 34.6075L60.1711 34.7855L60.2577 34.5728C60.6456 33.62 61.5862 32.8653 62.785 32.5834L63.0997 32.5094L62.8268 32.336C62.4917 32.1231 62.2354 31.8085 62.0961 31.4393C61.9568 31.0702 61.942 30.6663 62.0537 30.2881C62.1654 29.9099 62.3978 29.5776 62.7163 29.341C63.0348 29.1045 63.4222 28.9765 63.8205 28.9765C64.2187 28.9765 64.6061 29.1045 64.9246 29.341C65.2431 29.5776 65.4755 29.9099 65.5873 30.2881C65.699 30.6663 65.6841 31.0702 65.5448 31.4393C65.4055 31.8085 65.1493 32.1231 64.8142 32.336L64.5413 32.5094L64.856 32.5834C66.0548 32.8653 66.9953 33.62 67.3815 34.5726Z" fill="#FFA520" stroke="white" stroke-width="0.272222"/>
<path d="M67.5088 34.5131C67.0648 35.0592 66.5031 35.4997 65.8649 35.8024C65.2267 36.105 64.5283 36.2621 63.8208 36.2621C63.1134 36.2621 62.4149 36.105 61.7767 35.8024C61.1385 35.4997 60.5768 35.0592 60.1328 34.5131C60.5402 33.5125 61.5212 32.7327 62.755 32.4425C62.3952 32.2139 62.1197 31.8759 61.97 31.479C61.8202 31.0821 61.8042 30.6478 61.9243 30.2412C62.0445 29.8345 62.2943 29.4774 62.6363 29.2234C62.9784 28.9693 63.3943 28.832 63.8217 28.832C64.249 28.832 64.6649 28.9693 65.007 29.2234C65.349 29.4774 65.5988 29.8345 65.719 30.2412C65.8391 30.6478 65.8231 31.0821 65.6733 31.479C65.5236 31.8759 65.2482 32.2139 64.8883 32.4425C66.1221 32.7327 67.1031 33.5125 67.5088 34.5131Z" fill="white"/>
</g>
<defs>
<linearGradient id="paint0_linear_1053_37502" x1="41.6406" y1="0" x2="41.6406" y2="62" gradientUnits="userSpaceOnUse">
<stop/>
<stop offset="1" stop-opacity="0"/>
</linearGradient>
<linearGradient id="paint1_linear_1053_37502" x1="34.2529" y1="27.9348" x2="48.6957" y2="27.9348" gradientUnits="userSpaceOnUse">
<stop stop-color="#E4F0E6"/>
<stop offset="1" stop-color="#AED1B3"/>
</linearGradient>
<linearGradient id="paint2_linear_1053_37502" x1="31.0703" y1="41.373" x2="51.4259" y2="41.373" gradientUnits="userSpaceOnUse">
<stop stop-color="#268334"/>
<stop offset="0.0001" stop-color="#41934D"/>
<stop offset="1" stop-color="#206D2B"/>
</linearGradient>
<linearGradient id="paint3_linear_1053_37502" x1="2704.83" y1="2917.94" x2="19304.4" y2="2917.94" gradientUnits="userSpaceOnUse">
<stop stop-color="#E4F0E6"/>
<stop offset="1" stop-color="#AED1B3"/>
</linearGradient>
<clipPath id="clip0_1053_37502">
<rect width="54.7592" height="55.1111" fill="white" transform="translate(14.7842 2.06641)"/>
</clipPath>
</defs>
</svg>
