<svg width="82" height="62" viewBox="0 0 82 62" fill="none" xmlns="http://www.w3.org/2000/svg">
<rect x="10" width="62" height="62" rx="31" fill="url(#paint0_linear_1053_37475)" fill-opacity="0.2"/>
<g clip-path="url(#clip0_1053_37475)">
<path d="M54.0252 54.3165H34.919C32.9836 54.3165 29.1113 51.2562 29.1113 49.2281L31.2393 31.6063C31.2385 31.1237 31.3333 30.6458 31.5181 30.1998C31.703 29.7538 31.9743 29.3486 32.3165 29.0073C32.6588 28.666 33.0652 28.3954 33.5125 28.211C33.9599 28.0265 34.4393 27.9319 34.9234 27.9325L51.696 26.2373C54.4029 26.2373 57.7123 27.995 57.7123 31.6019V50.647C57.7123 51.1294 57.6168 51.607 57.4315 52.0526C57.2461 52.4982 56.9744 52.9029 56.632 53.2438C56.2895 53.5846 55.883 53.8547 55.4357 54.0388C54.9884 54.2229 54.5091 54.3172 54.0252 54.3165Z" fill="#195723"/>
<path d="M52.0114 35.0273H49.0944V15.1972C49.0944 13.1618 47.5601 11.519 45.6728 11.519H39.5749C37.6876 11.519 36.1533 13.1691 36.1533 15.1972V21.8179H33.2363V15.1972C33.2363 11.5626 36.0789 8.61133 39.5749 8.61133H45.6728C49.1732 8.61133 52.0114 11.5655 52.0114 15.1972V35.0273Z" fill="url(#paint1_linear_1053_37475)"/>
<path d="M51.8841 26.1934H32.7838C30.7507 26.1934 29.1025 27.8362 29.1025 29.8628V48.9021C29.1025 50.9287 30.7507 52.5715 32.7838 52.5715H51.8841C53.9172 52.5715 55.5653 50.9287 55.5653 48.9021V29.8628C55.5653 27.8362 53.9172 26.1934 51.8841 26.1934Z" fill="url(#paint2_linear_1053_37475)"/>
<path d="M45.462 37.1311C45.4627 36.585 45.3195 36.0483 45.0467 35.5747C44.7739 35.1011 44.3812 34.7071 43.9077 34.4324C43.4343 34.1576 42.8968 34.0115 42.3489 34.0088C41.8011 34.0061 41.2621 34.1469 40.786 34.417C40.3099 34.6872 39.9133 35.0772 39.6358 35.5481C39.3584 36.019 39.2099 36.5543 39.2052 37.1004C39.2005 37.6465 39.3397 38.1842 39.6089 38.6598C39.8782 39.1354 40.268 39.5322 40.7394 39.8105L39.9241 44.7535H44.7371L43.9218 39.8105C44.3901 39.5359 44.7785 39.1444 45.0486 38.6745C45.3187 38.2046 45.4612 37.6726 45.462 37.1311Z" fill="#0D2C11"/>
<path d="M38.5871 23.4092H15.5693C14.0155 23.4092 12.7559 24.6648 12.7559 26.2136V28.1225C12.7559 29.6713 14.0155 30.9269 15.5693 30.9269H38.5871C40.1409 30.9269 41.4005 29.6713 41.4005 28.1225V26.2136C41.4005 24.6648 40.1409 23.4092 38.5871 23.4092Z" fill="url(#paint3_linear_1053_37475)"/>
<path d="M18.626 27.5355C18.5371 27.5922 18.4452 27.6459 18.3504 27.6983C18.2556 27.7506 18.1608 27.8044 18.0674 27.8597L17.9639 27.6736C17.9289 27.6096 17.8924 27.5471 17.8545 27.486C17.9537 27.4337 18.0485 27.3828 18.1462 27.3305L18.4248 27.1749L18.1462 27.0063C18.0528 26.9496 17.9595 26.8943 17.8662 26.8434C17.8934 26.7872 17.924 26.7305 17.958 26.6733C17.9901 26.6166 18.0237 26.5599 18.0572 26.5047C18.152 26.5556 18.2468 26.6094 18.3489 26.6661L18.6406 26.8362V26.1572H19.0665C19.0665 26.2706 19.0592 26.3826 19.0592 26.4931C19.0592 26.6036 19.0592 26.7184 19.0592 26.8362C19.1564 26.779 19.2537 26.7237 19.3509 26.6704L19.6426 26.5105C19.6698 26.5677 19.7004 26.6244 19.7345 26.6806C19.7666 26.7373 19.8001 26.794 19.8337 26.8507C19.7389 26.9016 19.6441 26.9568 19.542 27.0121C19.4399 27.0673 19.348 27.1255 19.2503 27.1822L19.542 27.3479C19.6338 27.4017 19.7301 27.4584 19.8337 27.5136L19.7301 27.691C19.6951 27.7521 19.6586 27.8131 19.6207 27.8742C19.5259 27.8219 19.4326 27.7681 19.3407 27.7085C19.2464 27.6483 19.149 27.593 19.049 27.5427C19.049 27.6459 19.049 27.7506 19.049 27.8568C19.049 27.9629 19.049 28.0705 19.049 28.178H18.626V27.5355Z" fill="#268334"/>
<path d="M21.0015 27.5355C20.9111 27.5922 20.8192 27.6459 20.7244 27.6983C20.6296 27.7506 20.5363 27.8044 20.4415 27.8597L20.3394 27.6736C20.3029 27.6096 20.2664 27.5471 20.2285 27.486C20.3277 27.4337 20.424 27.3828 20.5202 27.3305L20.8002 27.1749L20.5217 27.0063C20.4298 26.9496 20.3364 26.8943 20.2416 26.8434C20.2708 26.7872 20.3014 26.7305 20.3335 26.6733L20.4327 26.5047C20.5275 26.5556 20.6238 26.6094 20.7244 26.6661L21.0161 26.8362V26.1572H21.4405C21.4405 26.2706 21.4405 26.3826 21.4405 26.4931C21.4405 26.6036 21.4405 26.7184 21.4405 26.8362C21.5377 26.779 21.635 26.7237 21.7322 26.6704L22.0239 26.5105C22.0531 26.5677 22.0837 26.6244 22.1158 26.6806C22.1493 26.7373 22.1829 26.794 22.215 26.8507C22.1202 26.9016 22.0268 26.9568 21.932 27.0121C21.8372 27.0673 21.738 27.1255 21.6403 27.1822L21.932 27.3479C22.0239 27.4017 22.1187 27.4584 22.2237 27.5136L22.1216 27.691C22.0866 27.7521 22.0502 27.8131 22.0122 27.8742C21.9174 27.8219 21.8241 27.7681 21.7322 27.7085C21.6379 27.6483 21.5405 27.593 21.4405 27.5427C21.4405 27.6455 21.4405 27.7501 21.4405 27.8568C21.4405 27.9629 21.4405 28.0705 21.4405 28.178H21.0438L21.0015 27.5355Z" fill="#268334"/>
<path d="M23.3765 27.5355C23.2861 27.5922 23.1942 27.6459 23.0994 27.6983C23.0046 27.7506 22.9113 27.8044 22.8165 27.8597C22.7829 27.7986 22.7494 27.7361 22.7129 27.6736C22.6764 27.6111 22.6414 27.5471 22.6035 27.486C22.7027 27.4337 22.799 27.3828 22.8952 27.3305L23.1752 27.1749L22.8952 27.0063C22.8033 26.9496 22.71 26.8943 22.6152 26.8434C22.6424 26.7872 22.673 26.7305 22.7071 26.6733C22.7406 26.6166 22.7727 26.5599 22.8062 26.5047C22.901 26.5556 22.9958 26.6094 23.0979 26.6661L23.3896 26.8362V26.1572H23.8141C23.8141 26.2706 23.8141 26.3826 23.8141 26.4931C23.8141 26.6036 23.8141 26.7184 23.8141 26.8362C23.9113 26.779 24.0085 26.7237 24.1058 26.6704L24.3975 26.5105C24.4257 26.5677 24.4563 26.6244 24.4893 26.6806L24.5885 26.8507C24.4937 26.9016 24.3989 26.9568 24.3056 27.0121C24.2122 27.0673 24.1116 27.1255 24.0139 27.1822L24.3056 27.3479C24.3989 27.4017 24.4937 27.4584 24.5973 27.5136C24.5637 27.5703 24.5302 27.63 24.4952 27.691C24.4602 27.7521 24.4222 27.8131 24.3843 27.8742C24.291 27.8219 24.1976 27.7681 24.1043 27.7085C24.01 27.6482 23.9126 27.5929 23.8126 27.5427C23.8126 27.6455 23.8126 27.7501 23.8126 27.8568C23.8126 27.9629 23.8126 28.0705 23.8126 28.178H23.4159L23.3765 27.5355Z" fill="#268334"/>
<path d="M25.7491 27.5355C25.6601 27.5922 25.5682 27.6459 25.4734 27.6983C25.3786 27.7506 25.2838 27.8044 25.1905 27.8597L25.0869 27.6736C25.0519 27.6096 25.0155 27.5471 24.9775 27.486C25.0767 27.4337 25.1715 27.3828 25.2692 27.3305L25.5493 27.1749L25.2692 27.0063C25.1759 26.9496 25.0826 26.8943 24.9892 26.8434C25.0164 26.7872 25.0471 26.7305 25.0811 26.6733C25.1146 26.6166 25.1467 26.5599 25.1803 26.5047C25.2751 26.5556 25.3699 26.6094 25.472 26.6661L25.7637 26.8362V26.1572H26.1895C26.1895 26.2706 26.1895 26.3826 26.1895 26.4931C26.1895 26.6036 26.1895 26.7184 26.1822 26.8362L26.4739 26.6704L26.7656 26.5105C26.7929 26.5677 26.8235 26.6244 26.8575 26.6806C26.8896 26.7373 26.9232 26.794 26.9567 26.8507C26.8619 26.9016 26.7671 26.9568 26.6723 27.0121C26.5775 27.0673 26.4798 27.1255 26.3806 27.1822L26.6723 27.3479C26.7642 27.4017 26.8604 27.4584 26.964 27.5136L26.8604 27.691C26.8254 27.7521 26.789 27.8131 26.7511 27.8742C26.6563 27.8219 26.5629 27.7681 26.471 27.7085C26.3767 27.6483 26.2793 27.593 26.1793 27.5427C26.1793 27.6459 26.1793 27.7506 26.1793 27.8568C26.1793 27.9629 26.1793 28.0705 26.1793 28.178H25.7812L25.7491 27.5355Z" fill="#268334"/>
<path d="M28.1241 27.5355C28.0351 27.5922 27.9418 27.6459 27.8484 27.6983C27.7551 27.7506 27.6588 27.8044 27.564 27.8597C27.5319 27.7986 27.4969 27.7361 27.4619 27.6736C27.4269 27.6111 27.389 27.5471 27.3525 27.486C27.4517 27.4337 27.5465 27.3828 27.6442 27.3305L27.9243 27.1749L27.6442 27.0063C27.5524 26.9496 27.459 26.8943 27.3642 26.8434C27.3934 26.7867 27.424 26.73 27.4576 26.6733C27.4911 26.6166 27.5232 26.5599 27.5567 26.5047C27.6501 26.5556 27.7463 26.6094 27.8484 26.6661L28.1401 26.8362V26.1572H28.5441C28.5441 26.2706 28.5441 26.3826 28.5441 26.4931C28.5441 26.6036 28.5441 26.7184 28.5368 26.8362L28.8285 26.6704L29.1202 26.5105C29.1494 26.5677 29.18 26.6244 29.2121 26.6806C29.2457 26.7373 29.2792 26.794 29.3113 26.8507C29.2179 26.9016 29.1231 26.9568 29.0283 27.0121C28.9335 27.0673 28.8344 27.1255 28.7366 27.1822L29.0283 27.3479C29.1202 27.4017 29.2165 27.4584 29.32 27.5136L29.2165 27.691C29.1815 27.7521 29.145 27.8131 29.1071 27.8742C29.0123 27.8219 28.919 27.7681 28.8271 27.7085C28.7327 27.6483 28.6354 27.593 28.5354 27.5427C28.5354 27.6459 28.5354 27.7506 28.5354 27.8568C28.5354 27.9629 28.5354 28.0705 28.5354 28.178H28.1387L28.1241 27.5355Z" fill="#268334"/>
<path d="M30.4976 27.5355C30.4072 27.5922 30.3153 27.6459 30.2205 27.6983C30.1257 27.7506 30.0323 27.8044 29.9375 27.8597L29.8355 27.6736C29.799 27.6096 29.7625 27.5471 29.7246 27.486C29.8238 27.4337 29.92 27.3828 30.0163 27.3305L30.2963 27.1749L30.0163 27.0063C29.9244 26.9496 29.8311 26.8943 29.7363 26.8434C29.7654 26.7872 29.7961 26.7305 29.8282 26.6733L29.9273 26.5047C30.0221 26.5556 30.1184 26.6094 30.219 26.6661L30.5107 26.8362V26.1572H30.9351C30.9351 26.2706 30.9351 26.3826 30.9351 26.4931C30.9351 26.6036 30.9352 26.7184 30.9279 26.8362L31.2196 26.6704L31.5113 26.5105C31.5385 26.5677 31.5691 26.6244 31.6031 26.6806L31.7023 26.8507C31.6075 26.9016 31.5142 26.9568 31.4194 27.0121C31.3246 27.0673 31.2254 27.1255 31.1277 27.1822L31.4194 27.3479C31.5113 27.4017 31.6061 27.4584 31.7111 27.5136L31.609 27.691C31.574 27.7521 31.536 27.8131 31.4996 27.8742C31.4048 27.8219 31.3114 27.7681 31.2196 27.7085C31.1277 27.6489 31.0314 27.5936 30.9279 27.5427C30.9279 27.6455 30.9279 27.7501 30.9279 27.8568C30.9279 27.9629 30.9279 28.0705 30.9279 28.178H30.4976V27.5355Z" fill="#268334"/>
<path d="M32.8726 27.5355C32.7822 27.5922 32.6903 27.6459 32.5955 27.6983C32.5007 27.7506 32.4059 27.8044 32.3125 27.8597C32.279 27.7986 32.2455 27.7361 32.209 27.6736C32.1725 27.6111 32.1375 27.5471 32.0996 27.486C32.1988 27.4337 32.295 27.3828 32.3913 27.3305L32.6713 27.1749L32.3913 27.0063C32.2994 26.9496 32.2061 26.8943 32.1113 26.8434C32.1385 26.7872 32.1691 26.7305 32.2032 26.6733C32.2367 26.6166 32.2688 26.5599 32.3023 26.5047C32.3971 26.5556 32.4919 26.6094 32.594 26.6661L32.8857 26.8362V26.1572H33.3102C33.3102 26.2706 33.3029 26.3826 33.3029 26.4931C33.3029 26.6036 33.3029 26.7184 33.3029 26.8362C33.4001 26.779 33.4973 26.7237 33.5946 26.6704L33.8863 26.5105C33.9135 26.5677 33.9441 26.6244 33.9781 26.6806C34.0102 26.7373 34.0438 26.794 34.0773 26.8507C33.9825 26.9016 33.8877 26.9568 33.7944 27.0121C33.701 27.0673 33.6004 27.1255 33.4954 27.1822L33.7871 27.3479C33.879 27.4017 33.9752 27.4584 34.0788 27.5136C34.0452 27.5703 34.0117 27.63 33.9767 27.691C33.9417 27.7521 33.9038 27.8131 33.8658 27.8742C33.771 27.8219 33.6777 27.7681 33.5858 27.7085C33.4915 27.6482 33.3941 27.5929 33.2941 27.5427C33.2941 27.6455 33.2941 27.7501 33.2941 27.8568C33.2941 27.9629 33.2941 28.0705 33.2941 28.178H32.8974L32.8726 27.5355Z" fill="#268334"/>
<path d="M35.253 27.5355C35.164 27.5922 35.0721 27.6459 34.9773 27.6983C34.8825 27.7506 34.7877 27.8044 34.6929 27.8597C34.6608 27.7986 34.6258 27.7361 34.5908 27.6736C34.5558 27.6111 34.5194 27.5471 34.4814 27.486C34.5806 27.4337 34.6754 27.3828 34.7731 27.3305L35.0532 27.1749L34.7731 27.0063C34.6813 26.9496 34.5879 26.8943 34.4946 26.8434C34.5218 26.7872 34.5524 26.7305 34.5865 26.6733C34.6185 26.6166 34.6521 26.5599 34.6856 26.5047C34.7804 26.5556 34.8752 26.6094 34.9773 26.6661L35.269 26.8362V26.1572H35.6949C35.6949 26.2706 35.6876 26.3826 35.6876 26.4931C35.6876 26.6036 35.6876 26.7184 35.6876 26.8362C35.7848 26.779 35.8821 26.7237 35.9793 26.6704L36.271 26.5105C36.3002 26.5672 36.3308 26.6239 36.3644 26.6806C36.3979 26.7373 36.43 26.794 36.4635 26.8507C36.3687 26.9016 36.2739 26.9568 36.1791 27.0121C36.0843 27.0673 35.9851 27.1255 35.8874 27.1822L36.1791 27.3479C36.271 27.4017 36.3673 27.4584 36.4708 27.5136L36.3673 27.691C36.3323 27.7521 36.2958 27.8131 36.2579 27.8742C36.1631 27.8219 36.0697 27.7681 35.9779 27.7085C35.8835 27.6483 35.7862 27.593 35.6862 27.5427C35.6862 27.6459 35.6862 27.7506 35.6862 27.8568C35.6862 27.9629 35.6862 28.0705 35.6862 28.178H35.253V27.5355Z" fill="#268334"/>
<path fill-rule="evenodd" clip-rule="evenodd" d="M19.5834 16.9611C19.969 16.4588 20.5568 16.123 21.3116 16.123C22.7773 16.123 23.8176 17.0335 24.6645 17.918C25.0182 17.543 25.3942 17.1671 25.8003 16.8625C26.3656 16.4384 27.0256 16.123 27.8238 16.123C28.6225 16.123 29.2555 16.4412 29.6813 16.9405C30.0977 17.4288 30.293 18.0618 30.293 18.6751C30.293 19.2883 30.0977 19.9213 29.6813 20.4096C29.2555 20.9089 28.6225 21.2271 27.8238 21.2271C27.0259 21.2271 26.366 20.9117 25.8009 20.4877C25.3947 20.1829 25.0184 19.8067 24.6646 19.4315C23.8178 20.3162 22.7777 21.2271 21.3116 21.2271C20.5568 21.2271 19.969 20.8913 19.5834 20.389C19.2087 19.9009 19.0371 19.2753 19.0371 18.6751C19.0371 18.0748 19.2087 17.4493 19.5834 16.9611ZM23.9568 18.6748C23.1189 17.7996 22.35 17.1564 21.3116 17.1564C20.8945 17.1564 20.6034 17.3294 20.4031 17.5904C20.1918 17.8655 20.0704 18.2577 20.0704 18.6751C20.0704 19.0925 20.1918 19.4846 20.4031 19.7598C20.6034 20.0207 20.8945 20.1938 21.3116 20.1938C22.3502 20.1938 23.1189 19.5503 23.9568 18.6748ZM25.3716 18.6747C25.7278 19.054 26.0644 19.3936 26.421 19.6611C26.8732 20.0003 27.3199 20.1938 27.8238 20.1938C28.3267 20.1938 28.67 20.0031 28.895 19.7391C29.1295 19.4641 29.2596 19.0795 29.2596 18.6751C29.2596 18.2707 29.1295 17.886 28.895 17.611C28.67 17.3471 28.3267 17.1564 27.8238 17.1564C27.3194 17.1564 26.8725 17.3499 26.4204 17.6891C26.064 17.9564 25.7275 18.2957 25.3716 18.6747Z" fill="#41934D"/>
<path d="M67.8646 44.0205H48.8168C48.2449 44.0205 47.7812 44.4826 47.7812 45.0527V56.8345C47.7812 57.4046 48.2449 57.8667 48.8168 57.8667H67.8646C68.4365 57.8667 68.9001 57.4046 68.9001 56.8345V45.0527C68.9001 44.4826 68.4365 44.0205 67.8646 44.0205Z" fill="url(#paint4_linear_1053_37475)"/>
<path d="M54.6594 52.3711H50.0506C49.9612 52.3711 49.8887 52.4433 49.8887 52.5325V53.1998C49.8887 53.2889 49.9612 53.3611 50.0506 53.3611H54.6594C54.7488 53.3611 54.8213 53.2889 54.8213 53.1998V52.5325C54.8213 52.4433 54.7488 52.3711 54.6594 52.3711Z" fill="white"/>
<path d="M56.2112 54.7363H49.9762C49.9278 54.7363 49.8887 54.7754 49.8887 54.8236V55.3426C49.8887 55.3907 49.9278 55.4298 49.9762 55.4298H56.2112C56.2595 55.4298 56.2987 55.3907 56.2987 55.3426V54.8236C56.2987 54.7754 56.2595 54.7363 56.2112 54.7363Z" fill="white"/>
<path d="M66.9835 54.7363H64.6383C64.59 54.7363 64.5508 54.7754 64.5508 54.8236V55.3426C64.5508 55.3907 64.59 55.4298 64.6383 55.4298H66.9835C67.0319 55.4298 67.0711 55.3907 67.0711 55.3426V54.8236C67.0711 54.7754 67.0319 54.7363 66.9835 54.7363Z" fill="white"/>
<path d="M58.899 52.3711H55.9397C55.8511 52.3711 55.7793 52.4427 55.7793 52.531V53.2012C55.7793 53.2895 55.8511 53.3611 55.9397 53.3611H58.899C58.9876 53.3611 59.0594 53.2895 59.0594 53.2012V52.531C59.0594 52.4427 58.9876 52.3711 58.899 52.3711Z" fill="white"/>
<path d="M64.1181 52.3711H60.1131C60.0237 52.3711 59.9512 52.4433 59.9512 52.5325V53.1998C59.9512 53.2889 60.0237 53.3611 60.1131 53.3611H64.1181C64.2075 53.3611 64.28 53.2889 64.28 53.1998V52.5325C64.28 52.4433 64.2075 52.3711 64.1181 52.3711Z" fill="white"/>
<g opacity="0.9">
<path opacity="0.9" d="M53.2986 46.3623H50.1264C49.9951 46.3623 49.8887 46.4684 49.8887 46.5993V48.9661C49.8887 49.097 49.9951 49.2031 50.1264 49.2031H53.2986C53.4299 49.2031 53.5363 49.097 53.5363 48.9661V46.5993C53.5363 46.4684 53.4299 46.3623 53.2986 46.3623Z" fill="url(#paint5_linear_1053_37475)"/>
<path opacity="0.9" fill-rule="evenodd" clip-rule="evenodd" d="M50.1265 46.4054C50.0188 46.4054 49.9318 46.4924 49.9318 46.5994V48.9662C49.9318 49.0732 50.0188 49.1601 50.1265 49.1601H53.2987C53.4063 49.1601 53.4934 49.0732 53.4934 48.9662V46.5994C53.4934 46.4924 53.4063 46.4054 53.2987 46.4054H50.1265ZM49.8457 46.5994C49.8457 46.4446 49.9715 46.3193 50.1265 46.3193H53.2987C53.4536 46.3193 53.5795 46.4446 53.5795 46.5994V48.9662C53.5795 49.121 53.4536 49.2462 53.2987 49.2462H50.1265C49.9715 49.2462 49.8457 49.121 49.8457 48.9662V46.5994Z" fill="#6D6E71"/>
<path opacity="0.9" d="M49.8887 47.0732H51.0073C51.094 47.0732 51.1771 47.1076 51.2383 47.1686C51.2996 47.2297 51.334 47.3125 51.334 47.3989V48.168C51.334 48.2543 51.2996 48.3372 51.2383 48.3982C51.1771 48.4593 51.094 48.4936 51.0073 48.4936H49.8887V47.0732Z" fill="url(#paint6_linear_1053_37475)"/>
<path opacity="0.9" fill-rule="evenodd" clip-rule="evenodd" d="M49.8888 47.0733H49.8457V48.5368H51.0074C51.1054 48.5368 51.1995 48.498 51.2688 48.4288C51.3382 48.3597 51.3772 48.2659 51.3772 48.1681V47.399C51.3772 47.3011 51.3382 47.2074 51.2688 47.1382C51.1995 47.0691 51.1054 47.0303 51.0074 47.0303H49.8888V47.0733ZM51.0074 47.1164H49.9318V48.4507H51.0074C51.0827 48.4507 51.1548 48.4209 51.208 48.3678C51.2612 48.3148 51.2911 48.243 51.2911 48.1681V47.399C51.2911 47.3241 51.2612 47.2522 51.208 47.1992C51.1548 47.1462 51.0827 47.1164 51.0074 47.1164Z" fill="#6D6E71"/>
<path opacity="0.9" d="M53.5361 48.4932H52.4175C52.3746 48.4932 52.3321 48.4847 52.2925 48.4684C52.2528 48.452 52.2168 48.428 52.1865 48.3978C52.1561 48.3675 52.1321 48.3316 52.1157 48.2921C52.0992 48.2526 52.0908 48.2103 52.0908 48.1675V47.3984C52.0908 47.3557 52.0992 47.3133 52.1157 47.2738C52.1321 47.2343 52.1561 47.1984 52.1865 47.1682C52.2168 47.1379 52.2528 47.1139 52.2925 47.0976C52.3321 47.0812 52.3746 47.0728 52.4175 47.0728H53.5361V48.4932Z" fill="url(#paint7_linear_1053_37475)"/>
<path opacity="0.9" fill-rule="evenodd" clip-rule="evenodd" d="M53.536 48.4931H53.5791V47.0296H52.4174C52.3689 47.0296 52.3208 47.0392 52.2759 47.0577C52.2311 47.0762 52.1903 47.1033 52.156 47.1376C52.1216 47.1718 52.0944 47.2125 52.0758 47.2572C52.0572 47.3019 52.0476 47.3499 52.0476 47.3983V48.1674C52.0476 48.2159 52.0572 48.2638 52.0758 48.3086C52.0944 48.3533 52.1216 48.394 52.156 48.4282C52.1903 48.4624 52.2311 48.4896 52.2759 48.5081C52.3208 48.5266 52.3689 48.5361 52.4174 48.5361H53.536V48.4931ZM52.4174 48.45H53.493V47.1157H52.4174C52.3801 47.1157 52.3432 47.1231 52.3088 47.1373C52.2744 47.1515 52.2431 47.1723 52.2168 47.1986C52.1904 47.2248 52.1696 47.256 52.1553 47.2902C52.1411 47.3245 52.1338 47.3613 52.1338 47.3983V48.1674C52.1338 48.2045 52.1411 48.2412 52.1553 48.2755C52.1696 48.3098 52.1904 48.3409 52.2168 48.3672C52.2431 48.3934 52.2744 48.4143 52.3088 48.4285C52.3432 48.4427 52.3801 48.45 52.4174 48.45Z" fill="#6D6E71"/>
<path opacity="0.9" fill-rule="evenodd" clip-rule="evenodd" d="M51.1201 47.1445V46.3623H51.2062V47.1445H51.1201Z" fill="#6D6E71"/>
<path opacity="0.9" fill-rule="evenodd" clip-rule="evenodd" d="M51.334 47.4023H52.0909V47.4885H51.334V47.4023Z" fill="#6D6E71"/>
<path opacity="0.9" fill-rule="evenodd" clip-rule="evenodd" d="M51.334 48.1318H52.0909V48.2179H51.334V48.1318Z" fill="#6D6E71"/>
<path opacity="0.9" fill-rule="evenodd" clip-rule="evenodd" d="M51.1201 49.2025V48.416H51.2062V49.2025H51.1201Z" fill="#6D6E71"/>
<path opacity="0.9" fill-rule="evenodd" clip-rule="evenodd" d="M52.2246 47.1416V46.3623H52.3107V47.1416H52.2246Z" fill="#6D6E71"/>
<path opacity="0.9" fill-rule="evenodd" clip-rule="evenodd" d="M52.2246 49.2025V48.416H52.3107V49.2025H52.2246Z" fill="#6D6E71"/>
</g>
<path d="M63.3953 48.8744C64.1653 48.8744 64.7896 48.2522 64.7896 47.4846C64.7896 46.717 64.1653 46.0947 63.3953 46.0947C62.6252 46.0947 62.001 46.717 62.001 47.4846C62.001 48.2522 62.6252 48.8744 63.3953 48.8744Z" fill="#C5C6C8"/>
<path d="M65.3015 48.8744C66.0716 48.8744 66.6959 48.2522 66.6959 47.4846C66.6959 46.717 66.0716 46.0947 65.3015 46.0947C64.5315 46.0947 63.9072 46.717 63.9072 47.4846C63.9072 48.2522 64.5315 48.8744 65.3015 48.8744Z" fill="white"/>
</g>
<defs>
<linearGradient id="paint0_linear_1053_37475" x1="41" y1="0" x2="41" y2="62" gradientUnits="userSpaceOnUse">
<stop/>
<stop offset="1" stop-opacity="0"/>
</linearGradient>
<linearGradient id="paint1_linear_1053_37475" x1="33.2363" y1="21.8193" x2="52.0114" y2="21.8193" gradientUnits="userSpaceOnUse">
<stop stop-color="#E4F0E6"/>
<stop offset="1" stop-color="#AED1B3"/>
</linearGradient>
<linearGradient id="paint2_linear_1053_37475" x1="29.1025" y1="39.3825" x2="55.5653" y2="39.3825" gradientUnits="userSpaceOnUse">
<stop stop-color="#268334"/>
<stop offset="0.0001" stop-color="#41934D"/>
<stop offset="1" stop-color="#206D2B"/>
</linearGradient>
<linearGradient id="paint3_linear_1053_37475" x1="12.7559" y1="983.047" x2="5638.57" y2="983.047" gradientUnits="userSpaceOnUse">
<stop stop-color="#E4F0E6"/>
<stop offset="1" stop-color="#AED1B3"/>
</linearGradient>
<linearGradient id="paint4_linear_1053_37475" x1="47.7812" y1="50.9436" x2="68.9001" y2="50.9436" gradientUnits="userSpaceOnUse">
<stop stop-color="#005AE4"/>
<stop offset="1" stop-color="#0048B6"/>
</linearGradient>
<linearGradient id="paint5_linear_1053_37475" x1="49.8887" y1="47.7827" x2="53.5363" y2="47.7827" gradientUnits="userSpaceOnUse">
<stop stop-color="#FF9800"/>
<stop offset="1" stop-color="#FFD89F"/>
</linearGradient>
<linearGradient id="paint6_linear_1053_37475" x1="49.8887" y1="47.7827" x2="51.334" y2="47.7827" gradientUnits="userSpaceOnUse">
<stop stop-color="#FF9800"/>
<stop offset="0.33" stop-color="#FF9902"/>
<stop offset="0.49" stop-color="#FF9C0A"/>
<stop offset="0.61" stop-color="#FFA116"/>
<stop offset="0.71" stop-color="#FFA829"/>
<stop offset="0.79" stop-color="#FFB240"/>
<stop offset="0.87" stop-color="#FFBE5E"/>
<stop offset="0.95" stop-color="#FFCB80"/>
<stop offset="1" stop-color="#FFD89F"/>
</linearGradient>
<linearGradient id="paint7_linear_1053_37475" x1="53.5361" y1="47.7822" x2="52.0908" y2="47.7822" gradientUnits="userSpaceOnUse">
<stop stop-color="#FFD89F"/>
<stop offset="1" stop-color="#FFBF60"/>
</linearGradient>
<clipPath id="clip0_1053_37475">
<rect width="56.1444" height="49.2556" fill="white" transform="translate(12.7559 8.61133)"/>
</clipPath>
</defs>
</svg>
