<svg width="82" height="62" viewBox="0 0 82 62" fill="none" xmlns="http://www.w3.org/2000/svg">
<rect x="10" width="62" height="62" rx="31" fill="url(#paint0_linear_1053_37742)" fill-opacity="0.2"/>
<path d="M43.9129 39.3066H52.4544L53.9083 45.92H42.2773L43.9129 39.3066Z" fill="#A8A9AC"/>
<path d="M24 37.2329C23.9992 37.8856 24.1016 38.532 24.3012 39.1351C24.5009 39.7383 24.794 40.2863 25.1637 40.7478C25.5334 41.2093 25.9724 41.5751 26.4555 41.8244C26.9387 42.0737 27.4565 42.2015 27.9793 42.2005H67.7885C68.8439 42.1998 69.8559 41.6763 70.6024 40.7449C71.3489 39.8136 71.7687 38.5504 71.7698 37.2329V35.1738H24V37.2329Z" fill="#A8A9AC"/>
<path d="M56.1918 46.333L39.5762 46.333" stroke="url(#paint1_linear_1053_37742)" stroke-width="1.69967" stroke-miterlimit="10" stroke-linecap="round"/>
<path d="M24 36.1987C23.9992 36.8514 24.1016 37.4978 24.3012 38.101C24.5009 38.7041 24.794 39.2521 25.1637 39.7136C25.5334 40.1751 25.9724 40.541 26.4555 40.7902C26.9387 41.0395 27.4565 41.1673 27.9793 41.1663H67.7885C68.8439 41.1656 69.8559 40.6421 70.6024 39.7107C71.3489 38.7794 71.7687 37.5162 71.7698 36.1987V34.1396H24V36.1987Z" fill="url(#paint2_linear_1053_37742)"/>
<path d="M67.7887 5H27.9812C26.9253 5 25.9127 5.40776 25.1661 6.13357C24.4194 6.85939 24 7.84381 24 8.87027V34.3467H71.7698V8.87027C71.7693 7.84397 71.3497 6.85986 70.6032 6.13416C69.8567 5.40846 68.8444 5.00053 67.7887 5Z" fill="url(#paint3_linear_1053_37742)"/>
<path d="M48.0919 38.48C48.7801 38.48 49.338 37.9248 49.338 37.24C49.338 36.5552 48.7801 36 48.0919 36C47.4036 36 46.8457 36.5552 46.8457 37.24C46.8457 37.9248 47.4036 38.48 48.0919 38.48Z" fill="#6D6F75"/>
<path d="M48.0919 38.48C48.7801 38.48 49.338 37.9248 49.338 37.24C49.338 36.5552 48.7801 36 48.0919 36C47.4036 36 46.8457 36.5552 46.8457 37.24C46.8457 37.9248 47.4036 38.48 48.0919 38.48Z" fill="url(#paint4_linear_1053_37742)"/>
<path d="M66.5767 6.24023H29.1916C27.1283 6.24023 25.4531 7.88707 25.4531 9.91894V34.1402H70.3152V9.91894C70.3234 7.88707 68.6502 6.24023 66.5767 6.24023Z" fill="url(#paint5_linear_1053_37742)"/>
<path d="M66.5767 6.24023H29.1916C27.1283 6.24023 25.4531 7.88707 25.4531 9.91894V34.1402H70.3152V9.91894C70.3234 7.88707 68.6502 6.24023 66.5767 6.24023Z" fill="white" fill-opacity="0.2"/>
<rect x="28" y="22" width="39" height="3" rx="1" fill="white" fill-opacity="0.5"/>
<rect x="28" y="28" width="39" height="3" rx="1" fill="white" fill-opacity="0.5"/>
<rect x="20" y="21" width="27" height="33" rx="3.96968" fill="#F6F6F6" stroke="url(#paint6_linear_1053_37742)"/>
<path d="M39.4559 37.9043H26.8266C26.1102 37.9043 24.4668 38.4886 24.4668 39.2099V40.6345C24.4668 41.3558 25.0474 41.9401 25.7638 41.9401H40.4512C41.1669 41.9401 41.7475 41.3558 41.7475 40.6345V39.2099C41.7475 38.4886 40.1709 37.9043 39.4559 37.9043Z" fill="#0D2C11"/>
<path d="M35.3542 36.4565H34.6028V31.3792C34.6028 30.8599 34.2075 30.4371 33.7216 30.4371H32.1496C31.6637 30.4371 31.2685 30.8599 31.2685 31.3792V34.643H30.5176V31.3775C30.5176 30.4476 31.2496 29.6904 32.1496 29.6904H33.7199C34.62 29.6888 35.3542 30.4476 35.3542 31.3775V36.4565Z" fill="url(#paint7_linear_1053_37742)"/>
<path d="M35.3978 41.3932H31.1645C30.3886 41.3932 29.5224 40.3098 29.459 39.7028L29.7596 35.8032C29.7596 35.4337 29.9076 35.0794 30.1711 34.8182C30.4346 34.557 30.7919 34.4102 31.1645 34.4102L35.0098 34.2021C35.7741 34.3274 36.8027 35.0338 36.8027 35.8026V39.9997C36.8028 40.1827 36.7665 40.3639 36.6959 40.5329C36.6254 40.702 36.5219 40.8556 36.3914 40.985C36.261 41.1144 36.1061 41.2171 35.9356 41.2871C35.7651 41.3571 35.5823 41.3932 35.3978 41.3932Z" fill="#195723"/>
<path d="M34.8606 34.1943H30.8561C30.0802 34.1943 29.4512 34.818 29.4512 35.5873V39.5575C29.4512 40.3268 30.0802 40.9505 30.8561 40.9505H34.8606C35.6365 40.9505 36.2656 40.3268 36.2656 39.5575V35.5873C36.2656 34.818 35.6365 34.1943 34.8606 34.1943Z" fill="url(#paint8_linear_1053_37742)"/>
<path d="M33.6648 36.9953C33.6651 36.8553 33.6283 36.7177 33.5581 36.5962C33.4879 36.4747 33.3868 36.3737 33.2648 36.3031C33.1428 36.2326 33.0043 36.1951 32.8631 36.1943C32.7219 36.1936 32.5829 36.2296 32.4602 36.2989C32.3375 36.3681 32.2352 36.4681 32.1637 36.5888C32.0922 36.7095 32.0539 36.8468 32.0528 36.9868C32.0516 37.1268 32.0875 37.2646 32.157 37.3865C32.2264 37.5084 32.327 37.6101 32.4485 37.6813L32.2364 38.9474H33.4772L33.2673 37.6813C33.3881 37.6112 33.4883 37.5111 33.558 37.3907C33.6277 37.2704 33.6645 37.1341 33.6648 36.9953Z" fill="#18471D"/>
<path d="M41.0631 38.5967H25.1517C24.5156 38.5967 24 39.0809 24 39.6783V40.8591C24 41.4564 24.5156 41.9406 25.1517 41.9406H41.0631C41.6992 41.9406 42.2148 41.4564 42.2148 40.8591V39.6783C42.2148 39.0809 41.6992 38.5967 41.0631 38.5967Z" fill="url(#paint9_linear_1053_37742)"/>
<path d="M28.1741 40.5202C28.1348 40.5452 28.0941 40.5689 28.0522 40.5914C28.0104 40.614 27.9692 40.6378 27.9275 40.6626C27.913 40.6355 27.898 40.6074 27.8824 40.5804C27.8668 40.5533 27.8507 40.5252 27.834 40.4987C27.8774 40.476 27.9197 40.4534 27.9603 40.4308C28.001 40.4082 28.0416 40.385 28.0834 40.3624L27.9603 40.2884C27.9195 40.2638 27.8783 40.24 27.8368 40.2172C27.8496 40.1924 27.8629 40.1675 27.8774 40.1427L27.9214 40.0688C27.9626 40.0914 28.0049 40.1151 28.0477 40.14L28.1741 40.2139V39.917H28.3611C28.3589 39.9667 28.3578 40.0158 28.3578 40.0643C28.3578 40.1124 28.3578 40.1626 28.3578 40.2139L28.4886 40.1416L28.6166 40.0721C28.6289 40.0964 28.6422 40.1212 28.6573 40.146L28.7007 40.2205C28.6589 40.2432 28.6177 40.2669 28.576 40.2912C28.5342 40.3155 28.4908 40.3408 28.4452 40.3657L28.5715 40.4385C28.6116 40.4623 28.6539 40.4865 28.6979 40.5108C28.6829 40.5357 28.6678 40.5616 28.6522 40.5881C28.6367 40.6146 28.6205 40.6433 28.6038 40.6687C28.5626 40.646 28.5214 40.6217 28.4808 40.5958C28.4402 40.5699 28.3979 40.5461 28.3544 40.5235C28.3544 40.5688 28.3544 40.6146 28.3544 40.6609C28.3544 40.7073 28.3544 40.7542 28.3544 40.8017H28.1741V40.5202Z" fill="#268334"/>
<path d="M29.5358 40.5202C29.4963 40.545 29.4562 40.5688 29.4145 40.5914C29.3727 40.614 29.331 40.6378 29.2898 40.6626C29.2753 40.6355 29.2603 40.6074 29.2442 40.5804C29.228 40.5533 29.2124 40.5252 29.1963 40.4987C29.2397 40.476 29.282 40.4534 29.3226 40.4308C29.3633 40.4082 29.4039 40.385 29.4457 40.3624C29.4039 40.3375 29.3627 40.3132 29.3226 40.2884C29.2826 40.2636 29.2408 40.2398 29.1991 40.2172C29.2119 40.1924 29.2252 40.1675 29.2397 40.1427L29.2837 40.0688C29.3249 40.0914 29.3672 40.1151 29.4095 40.14L29.5358 40.2139V39.917H29.7234C29.7212 39.9667 29.7201 40.0158 29.7201 40.0643C29.7201 40.1124 29.7201 40.1626 29.7201 40.2139C29.7635 40.1896 29.8069 40.1653 29.8509 40.1416L29.9789 40.0721C29.9912 40.0964 30.0045 40.1212 30.0196 40.146L30.063 40.2205C30.0212 40.2432 29.98 40.2669 29.9383 40.2912C29.8965 40.3155 29.8531 40.3408 29.8069 40.3657C29.8509 40.3905 29.8932 40.4148 29.9333 40.4385C29.9734 40.4623 30.0162 40.4865 30.0596 40.5108L30.0145 40.5881C29.999 40.6151 29.9828 40.6433 29.9661 40.6687C29.9244 40.646 29.8837 40.6217 29.8431 40.5958C29.8025 40.5699 29.7602 40.5461 29.7167 40.5235C29.7167 40.5688 29.7167 40.6146 29.7167 40.6609C29.7167 40.7073 29.7167 40.7542 29.7167 40.8017H29.542L29.5358 40.5202Z" fill="#268334"/>
<path d="M30.8723 40.5202C30.8326 40.5452 30.792 40.5689 30.7504 40.5914C30.7087 40.614 30.6675 40.6378 30.6257 40.6626C30.6113 40.6355 30.5962 40.6074 30.5807 40.5804C30.5651 40.5533 30.5489 40.5252 30.5322 40.4987C30.5756 40.476 30.6179 40.4534 30.6586 40.4308C30.6992 40.4082 30.7399 40.385 30.7816 40.3624L30.6586 40.2884C30.6178 40.2638 30.5766 40.24 30.535 40.2172C30.5478 40.1924 30.5612 40.1675 30.5756 40.1427L30.6196 40.0688C30.6608 40.0914 30.7031 40.1151 30.746 40.14L30.8723 40.2139V39.917H31.0594C31.0571 39.9667 31.056 40.0158 31.056 40.0643C31.056 40.1124 31.056 40.1626 31.056 40.2139L31.1868 40.1416L31.3149 40.0721C31.3271 40.0964 31.341 40.1212 31.3555 40.146L31.3989 40.2205C31.3572 40.2432 31.316 40.2669 31.2742 40.2912C31.2325 40.3155 31.1891 40.3408 31.1434 40.3657L31.2698 40.4385C31.3098 40.4623 31.3522 40.4865 31.3961 40.5108C31.3811 40.5357 31.3661 40.5616 31.3505 40.5881C31.3349 40.6146 31.3188 40.6433 31.3021 40.6687C31.2609 40.646 31.2197 40.6217 31.179 40.5958C31.1384 40.5699 31.0967 40.5461 31.0527 40.5235C31.0527 40.5688 31.0527 40.6146 31.0527 40.6609C31.0527 40.7073 31.0527 40.7542 31.0527 40.8017H30.8779L30.8723 40.5202Z" fill="#268334"/>
<path d="M32.1399 40.5202C32.1004 40.545 32.0598 40.5688 32.0186 40.5914C31.9774 40.614 31.9351 40.6378 31.8939 40.6626L31.8482 40.5804C31.8326 40.5528 31.8165 40.5252 31.7998 40.4987C31.8438 40.476 31.8861 40.4534 31.9262 40.4308L32.0497 40.3624L31.9262 40.2884C31.8861 40.2636 31.8449 40.2398 31.8031 40.2172C31.8154 40.1924 31.8293 40.1675 31.8438 40.1427L31.8872 40.0688C31.9289 40.0914 31.9713 40.1151 32.0136 40.14L32.1399 40.2139V39.917H32.3269C32.3269 39.9667 32.3242 40.0158 32.3242 40.0643C32.3242 40.1129 32.3242 40.1626 32.3208 40.2139L32.4522 40.1416L32.5797 40.0721C32.5925 40.0964 32.6058 40.1212 32.6203 40.146L32.6643 40.2205C32.6225 40.2432 32.5808 40.2669 32.5396 40.2912C32.4984 40.3155 32.4539 40.3408 32.4082 40.3657L32.5346 40.4385C32.5752 40.4623 32.6175 40.4865 32.6609 40.5108L32.6158 40.5881C32.6003 40.6151 32.5841 40.6433 32.5674 40.6687C32.5257 40.646 32.4845 40.6217 32.4444 40.5958C32.4043 40.5699 32.3615 40.5461 32.318 40.5235C32.318 40.5688 32.318 40.6146 32.318 40.6609C32.318 40.7073 32.318 40.7542 32.318 40.8017H32.1433L32.1399 40.5202Z" fill="#268334"/>
<path d="M33.5178 40.5202C33.4785 40.5452 33.4379 40.5689 33.3959 40.5914C33.3547 40.614 33.313 40.6378 33.2712 40.6626C33.2568 40.6355 33.2417 40.6074 33.2262 40.5804C33.2106 40.5533 33.1944 40.5252 33.1777 40.4987C33.2217 40.476 33.2635 40.4534 33.3041 40.4308L33.4271 40.3624L33.3041 40.2884C33.2635 40.2636 33.2223 40.2398 33.1811 40.2172C33.1933 40.1924 33.2067 40.1675 33.2217 40.1427L33.2651 40.0688C33.3069 40.0914 33.3486 40.1151 33.3915 40.14L33.5178 40.2139V39.917H33.7049C33.7049 39.9667 33.7021 40.0158 33.7021 40.0643C33.7021 40.1129 33.7021 40.1626 33.6987 40.2139L33.8296 40.1416L33.9576 40.0721C33.9704 40.0964 33.9837 40.1212 33.9982 40.146L34.0416 40.2205C34.0004 40.2432 33.9587 40.2669 33.917 40.2912C33.8752 40.3155 33.8318 40.3408 33.7861 40.3657L33.9125 40.4385C33.9531 40.4623 33.9949 40.4865 34.0389 40.5108L33.9938 40.5881C33.9782 40.6151 33.962 40.6433 33.9453 40.6687C33.9038 40.6458 33.8626 40.6216 33.8218 40.5958C33.7811 40.5704 33.7394 40.5461 33.6954 40.5235C33.6954 40.5688 33.6954 40.6146 33.6954 40.6609C33.6954 40.7073 33.6954 40.7542 33.6954 40.8017H33.5178V40.5202Z" fill="#268334"/>
<path d="M34.9534 40.5202C34.9137 40.5452 34.873 40.5689 34.8315 40.5914C34.7897 40.614 34.7485 40.6378 34.7068 40.6626C34.6923 40.6355 34.6773 40.6074 34.6617 40.5804C34.6461 40.5533 34.63 40.5252 34.6133 40.4987C34.6567 40.476 34.699 40.4534 34.7396 40.4308C34.7803 40.4082 34.8209 40.385 34.8627 40.3624L34.7419 40.2884C34.7012 40.2636 34.66 40.2398 34.6188 40.2172C34.6311 40.1926 34.6445 40.1677 34.6589 40.1427C34.674 40.1184 34.6884 40.0936 34.7029 40.0688C34.7446 40.0914 34.7864 40.1151 34.8293 40.14L34.9556 40.2139V39.917H35.1426C35.1404 39.9667 35.1393 40.0158 35.1393 40.0643C35.1393 40.1124 35.1393 40.1626 35.1365 40.2139L35.2673 40.1416L35.3954 40.0721C35.4076 40.0964 35.4215 40.1212 35.436 40.146L35.4794 40.2205C35.4377 40.2432 35.3965 40.2669 35.3547 40.2912C35.313 40.3155 35.2696 40.3408 35.2239 40.3657L35.3503 40.4385C35.3909 40.4623 35.4327 40.4865 35.4766 40.5108C35.4616 40.5357 35.4466 40.5616 35.431 40.5881C35.4154 40.6146 35.3993 40.6433 35.3831 40.6687C35.3415 40.6458 35.3004 40.6216 35.2595 40.5958C35.2189 40.5704 35.1772 40.5461 35.1332 40.5235C35.1332 40.5688 35.1332 40.6146 35.1332 40.6609C35.1332 40.7073 35.1332 40.7542 35.1332 40.8017H34.9534V40.5202Z" fill="#268334"/>
<path d="M36.3382 40.5202C36.2984 40.5452 36.2578 40.5689 36.2163 40.5914C36.1751 40.614 36.1333 40.6378 36.0916 40.6626C36.0771 40.6355 36.0621 40.6074 36.0465 40.5804C36.0309 40.5533 36.0147 40.5252 35.998 40.4987C36.042 40.476 36.0838 40.4534 36.1244 40.4308L36.2452 40.3624L36.1222 40.2884C36.0815 40.2636 36.0404 40.2398 35.9992 40.2172C36.0114 40.1924 36.0248 40.1675 36.0398 40.1427L36.0832 40.0688C36.125 40.0914 36.1667 40.1151 36.2096 40.14L36.3359 40.2139V39.917H36.5235C36.5235 39.9667 36.5235 40.0158 36.5235 40.0643C36.5235 40.1129 36.5235 40.1626 36.5202 40.2139L36.651 40.1416L36.779 40.0721C36.7918 40.0964 36.8052 40.1212 36.8196 40.146L36.8631 40.2205C36.8219 40.2432 36.7801 40.2669 36.7384 40.2912C36.6966 40.3155 36.6532 40.3408 36.6076 40.3657L36.7339 40.4385C36.7746 40.4623 36.8163 40.4865 36.8603 40.5108L36.8152 40.5881C36.7996 40.6151 36.7835 40.6433 36.7668 40.6687C36.7252 40.6458 36.684 40.6216 36.6432 40.5958C36.6026 40.5704 36.5608 40.5461 36.5168 40.5235C36.5168 40.5688 36.5168 40.6146 36.5168 40.6609C36.5168 40.7073 36.5168 40.7542 36.5168 40.8017H36.342L36.3382 40.5202Z" fill="#268334"/>
<path d="M37.7258 40.5202C37.6863 40.545 37.6457 40.5688 37.6045 40.5914C37.5633 40.614 37.521 40.6378 37.4798 40.6626L37.4342 40.5804C37.4186 40.5528 37.4024 40.5252 37.3857 40.4987C37.4297 40.476 37.472 40.4534 37.5121 40.4308L37.6351 40.3624L37.5115 40.2884C37.4715 40.2636 37.4303 40.2398 37.3885 40.2172C37.4008 40.1924 37.4147 40.1675 37.4292 40.1427L37.4726 40.0688C37.5143 40.0914 37.5566 40.1151 37.5989 40.14L37.7253 40.2139V39.917H37.9134C37.9134 39.9667 37.9107 40.0158 37.9107 40.0643C37.9107 40.1129 37.9107 40.1626 37.9073 40.2139L38.0387 40.1416L38.1662 40.0721C38.179 40.0964 38.1923 40.1212 38.2068 40.146L38.2508 40.2205C38.209 40.2432 38.1673 40.2669 38.1261 40.2912C38.0849 40.3155 38.0403 40.3408 37.9947 40.3657L38.1211 40.4385C38.1617 40.4623 38.204 40.4865 38.2474 40.5108L38.2023 40.5881C38.1867 40.6151 38.1706 40.6433 38.1539 40.6687C38.1122 40.646 38.071 40.6217 38.0309 40.5958C37.9908 40.5699 37.9479 40.5461 37.9045 40.5235C37.9045 40.5688 37.9045 40.6146 37.9045 40.6609C37.9045 40.7073 37.9045 40.7542 37.9045 40.8017H37.7297L37.7258 40.5202Z" fill="#268334"/>
<rect x="10" y="34" width="15.9977" height="26.6426" rx="4.45655" fill="url(#paint10_linear_1053_37742)"/>
<rect x="11.0107" y="35.0049" width="13.977" height="24.6318" rx="3.34241" fill="#F6F6F6"/>
<path d="M14.4691 35.8723L13.8538 35.107C13.6584 34.864 13.8314 34.5029 14.1433 34.5029H21.6865C21.9983 34.5029 22.1713 34.864 21.9759 35.107L21.3606 35.8723C21.2901 35.96 21.1837 36.011 21.0712 36.011H14.7586C14.6461 36.011 14.5396 35.96 14.4691 35.8723Z" fill="url(#paint11_linear_1053_37742)"/>
<rect x="28" y="16" width="39" height="3" rx="1" fill="white" fill-opacity="0.5"/>
<rect x="28" y="10" width="16" height="3" rx="1" fill="white" fill-opacity="0.5"/>
<g clip-path="url(#clip0_1053_37742)">
<path d="M19.2019 53.7075C19.1624 53.6485 19.1477 53.5761 19.161 53.5061C19.1743 53.4362 19.2145 53.3744 19.2727 53.3345L20.184 52.7094C20.2129 52.6896 20.2453 52.6757 20.2794 52.6686C20.3135 52.6615 20.3487 52.6613 20.3829 52.6679C20.4172 52.6746 20.4497 52.688 20.4788 52.7074C20.5079 52.7268 20.533 52.7518 20.5525 52.781C20.5721 52.8102 20.5858 52.843 20.5928 52.8775C20.5998 52.9121 20.6 52.9477 20.5935 52.9823C20.5869 53.017 20.5737 53.05 20.5545 53.0794C20.5353 53.1089 20.5106 53.1342 20.4818 53.154L19.5704 53.7791C19.5416 53.799 19.5092 53.8128 19.475 53.8199C19.4409 53.827 19.4057 53.8273 19.3715 53.8206C19.3373 53.814 19.3047 53.8005 19.2756 53.7811C19.2465 53.7617 19.2214 53.7367 19.2019 53.7075Z" fill="#CCDEFA"/>
<path d="M16.7815 55.0446L17.2076 54.7523C17.2659 54.7124 17.3374 54.6974 17.4065 54.7109C17.4756 54.7243 17.5367 54.765 17.5761 54.8239C17.6156 54.8829 17.6303 54.9553 17.6171 55.0253C17.6038 55.0953 17.5636 55.157 17.5054 55.197L17.0792 55.4892C17.021 55.5292 16.9494 55.5441 16.8803 55.5307C16.8112 55.5173 16.7502 55.4766 16.7107 55.4176C16.6713 55.3587 16.6565 55.2862 16.6698 55.2163C16.6831 55.1463 16.7232 55.0845 16.7815 55.0446Z" fill="#CCDEFA"/>
<path d="M16.1028 55.5088L16.2063 55.4379C16.2352 55.4181 16.2676 55.4042 16.3017 55.3971C16.3358 55.39 16.371 55.3898 16.4052 55.3964C16.4395 55.4031 16.472 55.4165 16.5011 55.4359C16.5302 55.4553 16.5553 55.4803 16.5748 55.5095C16.5944 55.5387 16.6081 55.5715 16.6151 55.606C16.6221 55.6406 16.6223 55.6762 16.6158 55.7108C16.6092 55.7455 16.596 55.7785 16.5768 55.8079C16.5576 55.8374 16.5329 55.8627 16.5041 55.8825L16.4005 55.9534C16.3423 55.9934 16.2707 56.0083 16.2016 55.9949C16.1325 55.9814 16.0715 55.9408 16.032 55.8818C15.9925 55.8228 15.9778 55.7504 15.9911 55.6805C16.0044 55.6105 16.0445 55.5487 16.1028 55.5088Z" fill="#4BBFD7"/>
<path d="M17.2155 53.4036C17.1761 53.3447 17.1614 53.2723 17.1747 53.2023C17.188 53.1324 17.2281 53.0707 17.2864 53.0308L18.1977 52.4056C18.2559 52.3657 18.3275 52.3508 18.3966 52.3642C18.4657 52.3776 18.5267 52.4183 18.5662 52.4773C18.6057 52.5362 18.6204 52.6087 18.6071 52.6786C18.5939 52.7486 18.5537 52.8103 18.4954 52.8503L17.5845 53.4756C17.5556 53.4954 17.5231 53.5093 17.489 53.5164C17.4548 53.5236 17.4195 53.5238 17.3853 53.5171C17.351 53.5104 17.3183 53.497 17.2892 53.4775C17.2601 53.458 17.2351 53.4329 17.2155 53.4036Z" fill="#0048B6"/>
<path d="M14.7903 54.741L15.2164 54.4486C15.2453 54.4288 15.2777 54.415 15.3118 54.4079C15.3459 54.4007 15.3811 54.4005 15.4153 54.4072C15.4496 54.4138 15.4821 54.4272 15.5112 54.4466C15.5403 54.466 15.5654 54.491 15.5849 54.5202C15.6045 54.5494 15.6182 54.5822 15.6252 54.6168C15.6322 54.6513 15.6324 54.6869 15.6259 54.7216C15.6193 54.7562 15.6061 54.7892 15.5869 54.8187C15.5677 54.8481 15.543 54.8735 15.5142 54.8933L15.088 55.1857C15.0298 55.2256 14.9582 55.2405 14.8891 55.2271C14.82 55.2137 14.759 55.173 14.7195 55.114C14.68 55.0551 14.6653 54.9826 14.6786 54.9127C14.6919 54.8427 14.732 54.781 14.7903 54.741Z" fill="#30388E"/>
<path d="M14.1164 55.204L14.22 55.1332C14.2488 55.1134 14.2812 55.0996 14.3154 55.0924C14.3495 55.0853 14.3847 55.0851 14.4189 55.0917C14.4531 55.0984 14.4857 55.1118 14.5148 55.1312C14.5438 55.1506 14.5689 55.1756 14.5884 55.2047C14.608 55.2339 14.6217 55.2667 14.6287 55.3013C14.6357 55.3358 14.636 55.3714 14.6294 55.4061C14.6228 55.4407 14.6096 55.4737 14.5904 55.5031C14.5713 55.5326 14.5466 55.5579 14.5178 55.5777L14.4142 55.6486C14.3559 55.6886 14.2844 55.7035 14.2153 55.6901C14.1462 55.6766 14.0852 55.636 14.0457 55.577C14.0062 55.518 13.9915 55.4456 14.0048 55.3756C14.018 55.3057 14.0582 55.2439 14.1164 55.204Z" fill="#30388E"/>
<path d="M19.8309 54.4317L19.0628 49.6819L15.5417 48.5528C14.835 48.3262 14.8297 47.3155 15.5343 47.0817L29.5431 43.0184C29.7289 42.9566 29.8785 43.1796 29.7533 43.3317L21.3397 54.8481C20.8682 55.421 19.9499 55.167 19.8309 54.4317Z" fill="#0048B6"/>
<path d="M19.0668 49.6819L15.2901 48.4709C14.6632 48.27 14.6587 47.3735 15.2835 47.1659L29.5892 43.0042C29.6718 42.9768 29.7244 43.0921 29.6502 43.138L19.0668 49.6819Z" fill="url(#paint12_linear_1053_37742)"/>
<rect x="18.3516" y="47.9922" width="4.16341" height="4.16341" rx="2.0817" transform="rotate(-29.3353 18.3516 47.9922)" fill="white"/>
<mask id="mask0_1053_37742" style="mask-type:luminance" maskUnits="userSpaceOnUse" x="19" y="46" width="5" height="5">
<rect x="18.3516" y="47.9922" width="4.16341" height="4.16341" rx="2.0817" transform="rotate(-29.3353 18.3516 47.9922)" fill="white"/>
</mask>
<g mask="url(#mask0_1053_37742)">
<path fill-rule="evenodd" clip-rule="evenodd" d="M21.721 47.0858C21.6955 47.0403 21.6542 47.0227 21.6052 47.0363C21.4267 47.084 21.2514 47.1426 21.0802 47.2117C20.9574 47.2624 20.8352 47.3158 20.7154 47.3733C20.6436 47.4078 20.5741 47.4467 20.5045 47.4856L20.4427 47.52C20.3005 47.5979 20.1631 47.6842 20.0312 47.7786L20.0212 47.7859C19.9532 47.8353 19.8853 47.8846 19.8193 47.9365C19.7017 48.0288 19.5888 48.127 19.4802 48.2299C19.4404 48.2676 19.4336 48.3091 19.4609 48.3578L19.7926 48.948L19.7922 48.9483L19.8769 49.0994C19.9507 49.2312 20.0245 49.363 20.0997 49.4942C20.1364 49.5592 20.1768 49.622 20.2208 49.6823C20.3196 49.8154 20.45 49.9075 20.6032 49.9666C20.7693 50.0302 20.9411 50.0712 21.1152 50.1008C21.3471 50.1396 21.5819 50.1564 21.8165 50.1512C21.9096 50.1493 21.9808 50.11 22.0292 50.0303L22.0547 49.9884L22.0547 49.9884L22.0547 49.9884L22.0547 49.9884C22.0859 49.9375 22.1171 49.8865 22.1461 49.8343C22.2893 49.5764 22.4038 49.3062 22.4761 49.0184C22.5039 48.9082 22.521 48.7967 22.515 48.682C22.5068 48.5302 22.4536 48.3917 22.3806 48.2608C22.2206 47.9737 22.0594 47.6873 21.8983 47.4009L21.721 47.0858ZM20.6187 49.4998L20.4911 49.5715L19.9093 48.5363L20.037 48.4645L20.6187 49.4998ZM20.6434 49.2014L20.7711 49.1296L20.4344 48.5303L20.3066 48.6021L20.6434 49.2014ZM21.099 49.087L20.9713 49.1588L20.512 48.3415L20.6397 48.2697L21.099 49.087ZM21.3936 49.2801L21.5212 49.2084L20.7557 47.8462L20.6281 47.918L21.3936 49.2801Z" fill="#62AD56"/>
</g>
<path d="M20.2245 54.55L20.4436 50.1143L28.9543 43.7001C29.14 43.5655 29.3633 43.8087 29.2172 43.9865L21.2526 54.9566C20.8948 55.3914 20.1961 55.1149 20.2245 54.55Z" fill="#4BBFD7"/>
<path d="M26.3085 53.5163L20.4424 50.1138L29.7747 43.1038C29.8912 43.0193 30.0439 43.1432 29.9872 43.2771L27.3641 53.1597C27.3226 53.2574 27.2611 53.3451 27.1838 53.4171C27.1064 53.4891 27.0149 53.5437 26.9152 53.5774C26.8156 53.611 26.71 53.623 26.6054 53.6125C26.5009 53.602 26.3997 53.5692 26.3085 53.5163Z" fill="url(#paint13_linear_1053_37742)"/>
</g>
<defs>
<linearGradient id="paint0_linear_1053_37742" x1="41" y1="0" x2="41" y2="62" gradientUnits="userSpaceOnUse">
<stop/>
<stop offset="1" stop-opacity="0"/>
</linearGradient>
<linearGradient id="paint1_linear_1053_37742" x1="38.4685" y1="46.833" x2="56.9302" y2="46.833" gradientUnits="userSpaceOnUse">
<stop stop-color="#E2E2E3"/>
<stop offset="1" stop-color="#C5C6C8"/>
</linearGradient>
<linearGradient id="paint2_linear_1053_37742" x1="24" y1="37.653" x2="71.7698" y2="37.653" gradientUnits="userSpaceOnUse">
<stop offset="0.411458" stop-color="#E2E2E3"/>
<stop offset="1" stop-color="#C5C6C8"/>
</linearGradient>
<linearGradient id="paint3_linear_1053_37742" x1="24" y1="19.6733" x2="71.7698" y2="19.6733" gradientUnits="userSpaceOnUse">
<stop stop-color="#E2E2E3"/>
<stop offset="0.0001" stop-color="#E2E2E3"/>
<stop offset="1" stop-color="#C5C6C8"/>
</linearGradient>
<linearGradient id="paint4_linear_1053_37742" x1="46.2918" y1="37.1022" x2="49.7534" y2="37.1022" gradientUnits="userSpaceOnUse">
<stop stop-color="#C5C6C8"/>
<stop offset="1" stop-color="#A8A9AC"/>
</linearGradient>
<linearGradient id="paint5_linear_1053_37742" x1="25.4531" y1="20.1902" x2="70.3152" y2="20.1902" gradientUnits="userSpaceOnUse">
<stop stop-color="#55BC60" stop-opacity="0.72"/>
<stop offset="0.291667" stop-color="#55BC60" stop-opacity="0.72"/>
<stop offset="1" stop-color="#3B8C47"/>
</linearGradient>
<linearGradient id="paint6_linear_1053_37742" x1="34" y1="21" x2="34" y2="54" gradientUnits="userSpaceOnUse">
<stop stop-color="#E4F0E6"/>
<stop offset="0.0001" stop-color="#E2E2E3"/>
<stop offset="1" stop-color="#AED1B3"/>
</linearGradient>
<linearGradient id="paint7_linear_1053_37742" x1="30.5176" y1="33.0735" x2="35.3526" y2="33.0735" gradientUnits="userSpaceOnUse">
<stop stop-color="#E4F0E6"/>
<stop offset="1" stop-color="#AED1B3"/>
</linearGradient>
<linearGradient id="paint8_linear_1053_37742" x1="29.4512" y1="37.5724" x2="36.2656" y2="37.5724" gradientUnits="userSpaceOnUse">
<stop stop-color="#268334"/>
<stop offset="0.0001" stop-color="#41934D"/>
<stop offset="1" stop-color="#206D2B"/>
</linearGradient>
<linearGradient id="paint9_linear_1053_37742" x1="924.542" y1="1000.55" x2="6481.53" y2="1000.55" gradientUnits="userSpaceOnUse">
<stop stop-color="#E4F0E6"/>
<stop offset="1" stop-color="#AED1B3"/>
</linearGradient>
<linearGradient id="paint10_linear_1053_37742" x1="18.2951" y1="34" x2="18.2951" y2="60.6426" gradientUnits="userSpaceOnUse">
<stop stop-color="#E4F0E6"/>
<stop offset="0.0001" stop-color="#E2E2E3"/>
<stop offset="1" stop-color="#AED1B3"/>
</linearGradient>
<linearGradient id="paint11_linear_1053_37742" x1="18.0833" y1="34.5029" x2="18.0833" y2="37.7076" gradientUnits="userSpaceOnUse">
<stop stop-color="#E4F0E6"/>
<stop offset="0.0001" stop-color="#E2E2E3"/>
<stop offset="1" stop-color="#AED1B3"/>
</linearGradient>
<linearGradient id="paint12_linear_1053_37742" x1="14.8174" y1="46.3409" x2="29.6857" y2="46.3409" gradientUnits="userSpaceOnUse">
<stop stop-color="#80ADF2"/>
<stop offset="1" stop-color="#005AE4"/>
</linearGradient>
<linearGradient id="paint13_linear_1053_37742" x1="20.4424" y1="48.3462" x2="29.9994" y2="48.3462" gradientUnits="userSpaceOnUse">
<stop stop-color="#80ADF2"/>
<stop offset="1" stop-color="#005AE4"/>
</linearGradient>
<clipPath id="clip0_1053_37742">
<rect width="16" height="13" fill="white" transform="translate(14 43)"/>
</clipPath>
</defs>
</svg>
