<svg width="88" height="88" viewBox="0 0 88 88" fill="none" xmlns="http://www.w3.org/2000/svg">
<path d="M53.5126 34.3037H34.3027V53.5135H53.5126V34.3037Z" fill="#3AB34A"/>
<path d="M68.6058 16.4658H19.2091C17.6935 16.4658 16.4648 17.6945 16.4648 19.2101V68.6068C16.4648 70.1224 17.6935 71.3511 19.2091 71.3511H68.6058C70.1214 71.3511 71.3501 70.1224 71.3501 68.6068V19.2101C71.3501 17.6945 70.1214 16.4658 68.6058 16.4658Z" stroke="black" stroke-width="3" stroke-linecap="round" stroke-linejoin="round"/>
<path d="M71.3516 35.6758H79.5844" stroke="black" stroke-width="3" stroke-linecap="round" stroke-linejoin="round"/>
<path d="M71.3516 52.1406H79.5844" stroke="black" stroke-width="3" stroke-linecap="round" stroke-linejoin="round"/>
<path d="M8.23242 35.6758H16.4652" stroke="black" stroke-width="3" stroke-linecap="round" stroke-linejoin="round"/>
<path d="M8.23242 52.1406H16.4652" stroke="black" stroke-width="3" stroke-linecap="round" stroke-linejoin="round"/>
<path d="M52.1406 71.3506V79.5834" stroke="black" stroke-width="3" stroke-linecap="round" stroke-linejoin="round"/>
<path d="M35.6758 71.3506V79.5834" stroke="black" stroke-width="3" stroke-linecap="round" stroke-linejoin="round"/>
<path d="M52.1406 8.23242V16.4652" stroke="black" stroke-width="3" stroke-linecap="round" stroke-linejoin="round"/>
<path d="M35.6758 8.23242V16.4652" stroke="black" stroke-width="3" stroke-linecap="round" stroke-linejoin="round"/>
</svg>
