<svg width="101" height="66" viewBox="0 0 101 66" fill="none" xmlns="http://www.w3.org/2000/svg">
<path fill-rule="evenodd" clip-rule="evenodd" d="M7.07113 3.14286C4.9016 3.14286 3.14286 4.9016 3.14286 7.07113V58.9289C3.14286 61.0984 4.9016 62.8571 7.07113 62.8571H64.3687C66.5382 62.8571 68.2969 61.0984 68.2969 58.9289V7.07113C68.2969 4.9016 66.5382 3.14286 64.3687 3.14286H7.07113ZM0 7.07113C0 3.16585 3.16585 0 7.07113 0H64.3687C68.2739 0 71.4398 3.16585 71.4398 7.07113V58.9289C71.4398 62.8342 68.2739 66 64.3687 66H7.07113C3.16585 66 0 62.8342 0 58.9289V7.07113Z" fill="#161922"/>
<path fill-rule="evenodd" clip-rule="evenodd" d="M0 15.9336H71.4398V19.0765H0V15.9336Z" fill="#161922"/>
<path fill-rule="evenodd" clip-rule="evenodd" d="M9.16797 9.54408C9.16797 8.67621 9.87152 7.97266 10.7394 7.97266H23.2605C24.1284 7.97266 24.8319 8.67621 24.8319 9.54408C24.8319 10.412 24.1284 11.1155 23.2605 11.1155H10.7394C9.87152 11.1155 9.16797 10.412 9.16797 9.54408Z" fill="#161922"/>
<path d="M14.4047 26.3203H56.5691C58.5941 26.3203 60.2356 27.9618 60.2356 29.9868V51.9856C60.2356 54.0105 58.5941 55.652 56.5691 55.652H14.4047C12.3798 55.652 10.7383 54.0105 10.7383 51.9856V29.9868C10.7383 27.9618 12.3798 26.3203 14.4047 26.3203Z" fill="#3AB34A"/>
<path d="M43.7344 14.9288C43.7344 12.6144 45.6105 10.7383 47.9249 10.7383H96.3741C98.6885 10.7383 100.565 12.6144 100.565 14.9288V32.2131C100.565 34.5274 98.6885 36.4036 96.3741 36.4036H47.9249C45.6105 36.4036 43.7344 34.5274 43.7344 32.2131V14.9288Z" fill="white"/>
<path fill-rule="evenodd" clip-rule="evenodd" d="M96.3741 13.8811H47.9249C47.3463 13.8811 46.8772 14.3502 46.8772 14.9288V32.2131C46.8772 32.7917 47.3463 33.2607 47.9249 33.2607H96.3741C96.9527 33.2607 97.4217 32.7917 97.4217 32.2131V14.9288C97.4217 14.3502 96.9527 13.8811 96.3741 13.8811ZM47.9249 10.7383C45.6105 10.7383 43.7344 12.6144 43.7344 14.9288V32.2131C43.7344 34.5274 45.6105 36.4036 47.9249 36.4036H96.3741C98.6885 36.4036 100.565 34.5274 100.565 32.2131V14.9288C100.565 12.6144 98.6885 10.7383 96.3741 10.7383H47.9249Z" fill="#161922"/>
<path fill-rule="evenodd" clip-rule="evenodd" d="M57.9275 25.6315L58.0564 27.9087H55.8114L55.9295 25.6315L54.0283 26.8883L52.9004 24.9441L54.9413 23.9129L52.9004 22.8817L54.0283 20.9374L55.9295 22.1942L55.8114 19.9062H58.0564L57.9275 22.1835L59.8287 20.9374L60.9566 22.8817L58.9157 23.9129L60.9566 24.9333L59.8395 26.8776L57.9275 25.6315ZM68.1212 25.6315L68.2501 27.9087H66.0051L66.1233 25.6315L64.222 26.8883L63.0942 24.9441L65.1351 23.9129L63.0942 22.8817L64.222 20.9374L66.1233 22.1942L66.0051 19.9062H68.2501L68.1212 22.1835L70.0225 20.9374L71.1504 22.8817L69.1095 23.9129L71.1504 24.9333L70.0332 26.8776L68.1212 25.6315ZM78.4439 27.9087L78.315 25.6315L80.227 26.8776L81.3442 24.9333L79.3032 23.9129L81.3442 22.8817L80.2163 20.9374L78.315 22.1835L78.4439 19.9062H76.1989L76.3171 22.1942L74.4158 20.9374L73.288 22.8817L75.3289 23.9129L73.288 24.9441L74.4158 26.8883L76.3171 25.6315L76.1989 27.9087H78.4439ZM88.5088 25.6315L88.6377 27.9087H86.3927L86.5109 25.6315L84.6096 26.8883L83.4817 24.9441L85.5226 23.9129L83.4817 22.8817L84.6096 20.9374L86.5109 22.1942L86.3927 19.9062H88.6377L88.5088 22.1835L90.4101 20.9374L91.5379 22.8817L89.497 23.9129L91.5379 24.9333L90.4208 26.8776L88.5088 25.6315Z" fill="#161922"/>
</svg>
