<svg width="44" height="49" viewBox="0 0 44 49" fill="none" xmlns="http://www.w3.org/2000/svg">
<path d="M6.00521 31.6354C6.00521 32.3427 5.72426 33.0209 5.22416 33.521C4.72406 34.0211 4.04578 34.3021 3.33854 34.3021C2.6313 34.3021 1.95302 34.0211 1.45292 33.521C0.952827 33.0209 0.671875 32.3427 0.671875 31.6354V19.6354C0.671875 18.9282 0.952827 18.2499 1.45292 17.7498C1.95302 17.2497 2.6313 16.9688 3.33854 16.9688C4.04578 16.9688 4.72406 17.2497 5.22416 17.7498C5.72426 18.2499 6.00521 18.9282 6.00521 19.6354V31.6354ZM43.3385 31.6354C43.3385 32.3427 43.0576 33.0209 42.5575 33.521C42.0574 34.0211 41.3791 34.3021 40.6719 34.3021C39.9646 34.3021 39.2863 34.0211 38.7862 33.521C38.2861 33.0209 38.0052 32.3427 38.0052 31.6354V19.6354C38.0052 18.9282 38.2861 18.2499 38.7862 17.7498C39.2863 17.2497 39.9646 16.9688 40.6719 16.9688C41.3791 16.9688 42.0574 17.2497 42.5575 17.7498C43.0576 18.2499 43.3385 18.9282 43.3385 19.6354V31.6354ZM19.3385 46.3007C19.3385 47.008 19.0576 47.6863 18.5575 48.1864C18.0574 48.6864 17.3791 48.9674 16.6719 48.9674C15.9646 48.9674 15.2864 48.6864 14.7863 48.1864C14.2862 47.6863 14.0052 47.008 14.0052 46.3007V34.3007C14.0052 33.5935 14.2862 32.9152 14.7863 32.4151C15.2864 31.915 15.9646 31.6341 16.6719 31.6341C17.3791 31.6341 18.0574 31.915 18.5575 32.4151C19.0576 32.9152 19.3385 33.5935 19.3385 34.3007V46.3007ZM30.0052 46.3007C30.0052 47.008 29.7242 47.6863 29.2242 48.1864C28.7241 48.6864 28.0458 48.9674 27.3385 48.9674C26.6313 48.9674 25.953 48.6864 25.4529 48.1864C24.9528 47.6863 24.6719 47.008 24.6719 46.3007V34.3007C24.6719 33.5935 24.9528 32.9152 25.4529 32.4151C25.953 31.915 26.6313 31.6341 27.3385 31.6341C28.0458 31.6341 28.7241 31.915 29.2242 32.4151C29.7242 32.9152 30.0052 33.5935 30.0052 34.3007V46.3007Z" fill="#7CB342"/>
<path d="M8.66406 17.0222V37.0208C8.66406 37.7281 8.94501 38.4064 9.44511 38.9065C9.94521 39.4066 10.6235 39.6875 11.3307 39.6875H32.6641C33.3713 39.6875 34.0496 39.4066 34.5497 38.9065C35.0498 38.4064 35.3307 37.7281 35.3307 37.0208V17.0222H8.66406ZM21.9974 3.6875C13.9974 3.6875 9.12406 8.5475 8.66406 14.3542H35.3307C34.8694 8.5475 29.9974 3.6875 21.9974 3.6875ZM16.6641 11.1515C16.3104 11.1515 15.9713 11.011 15.7213 10.761C15.4712 10.5109 15.3307 10.1718 15.3307 9.81817C15.3307 9.46455 15.4712 9.12541 15.7213 8.87536C15.9713 8.62531 16.3104 8.48483 16.6641 8.48483C17.0177 8.48483 17.3568 8.62531 17.6069 8.87536C17.8569 9.12541 17.9974 9.46455 17.9974 9.81817C17.9974 10.1718 17.8569 10.5109 17.6069 10.761C17.3568 11.011 17.0177 11.1515 16.6641 11.1515ZM27.3307 11.1515C26.9771 11.1515 26.638 11.011 26.3879 10.761C26.1379 10.5109 25.9974 10.1718 25.9974 9.81817C25.9974 9.46455 26.1379 9.12541 26.3879 8.87536C26.638 8.62531 26.9771 8.48483 27.3307 8.48483C27.6844 8.48483 28.0235 8.62531 28.2735 8.87536C28.5236 9.12541 28.6641 9.46455 28.6641 9.81817C28.6641 10.1718 28.5236 10.5109 28.2735 10.761C28.0235 11.011 27.6844 11.1515 27.3307 11.1515Z" fill="#7CB342"/>
<path fill-rule="evenodd" clip-rule="evenodd" d="M13.2942 1.19497C13.9144 0.797914 14.739 0.978775 15.1361 1.59894L16.9134 4.37494C17.3105 4.9951 17.1296 5.81972 16.5095 6.21677C15.8893 6.61383 15.0647 6.43297 14.6676 5.81281L12.8903 3.03681C12.4932 2.41665 12.6741 1.59203 13.2942 1.19497ZM26.6824 4.91027L28.9038 1.57827L31.1226 3.05747L28.9012 6.38947L26.6824 4.91027Z" fill="#7CB342"/>
</svg>
