<svg width="33" height="32" viewBox="0 0 33 32" fill="none" xmlns="http://www.w3.org/2000/svg">
<path d="M16.5 20C19.2614 20 21.5 17.7614 21.5 15C21.5 12.2386 19.2614 10 16.5 10C13.7386 10 11.5 12.2386 11.5 15C11.5 17.7614 13.7386 20 16.5 20Z" stroke="black" stroke-width="2" stroke-linecap="round" stroke-linejoin="round"/>
<path d="M8.47461 24.9248C9.227 23.4428 10.3751 22.1981 11.7915 21.3287C13.208 20.4592 14.8376 19.999 16.4996 19.999C18.1616 19.999 19.7912 20.4592 21.2077 21.3287C22.6242 22.1981 23.7722 23.4428 24.5246 24.9248" stroke="black" stroke-width="2" stroke-linecap="round" stroke-linejoin="round"/>
<path d="M25.5 16L28.5 19L31.5 16" stroke="#3DB249" stroke-width="2" stroke-linecap="round" stroke-linejoin="round"/>
<path d="M1.5 16L4.5 13L7.5 16" stroke="#3DB249" stroke-width="2" stroke-linecap="round" stroke-linejoin="round"/>
<path d="M28.4996 18.9999V15.9999C28.5024 13.4073 27.6655 10.8834 26.1141 8.80614C24.5627 6.72888 22.3802 5.20996 19.8934 4.47672C17.4065 3.74348 14.7491 3.83537 12.3189 4.73863C9.88867 5.6419 7.81634 7.30796 6.41211 9.48742" stroke="#3DB249" stroke-width="2" stroke-linecap="round" stroke-linejoin="round"/>
<path d="M4.50001 13V16C4.49718 18.5927 5.33411 21.1165 6.88554 23.1938C8.43696 25.271 10.6194 26.79 13.1062 27.5232C15.5931 28.2564 18.2505 28.1646 20.6807 27.2613C23.1109 26.358 25.1833 24.692 26.5875 22.5125" stroke="#3DB249" stroke-width="2" stroke-linecap="round" stroke-linejoin="round"/>
</svg>
