<svg width="80" height="66" viewBox="0 0 80 66" fill="none" xmlns="http://www.w3.org/2000/svg">
<path fill-rule="evenodd" clip-rule="evenodd" d="M27.7891 13.3316V20.8398H51.2961V13.3316C51.2961 6.85099 46.0232 1.57812 39.5426 1.57812C33.0619 1.57812 27.7891 6.85099 27.7891 13.3316ZM49.4934 13.3316V19.0372H29.5918V13.3316C29.5918 7.84246 34.0534 3.38081 39.5426 3.38081C45.0318 3.38081 49.4934 7.84246 49.4934 13.3316Z" fill="#161922"/>
<path fill-rule="evenodd" clip-rule="evenodd" d="M39.5437 1.98669C33.2881 1.98669 28.1976 7.07715 28.1976 13.3328V20.4336H50.8899V13.3328C50.8899 7.07715 45.7994 1.98669 39.5437 1.98669ZM27.3828 13.3328C27.3828 6.62714 32.8381 1.17188 39.5437 1.17188C46.2494 1.17188 51.7047 6.62714 51.7047 13.3328V21.2484H27.3828V13.3328ZM29.1855 13.3328C29.1855 7.61862 33.8296 2.97456 39.5437 2.97456C45.2579 2.97456 49.902 7.61862 49.902 13.3328V19.4457H29.1855V13.3328ZM39.5437 3.78938C34.2796 3.78938 30.0003 8.06863 30.0003 13.3328V18.6309H49.0872V13.3328C49.0872 8.06863 44.8079 3.78938 39.5437 3.78938Z" fill="#161922"/>
<path d="M23.2227 19.9648H57.4449V48.4834H23.2227V19.9648Z" fill="#3DB249"/>
<path fill-rule="evenodd" clip-rule="evenodd" d="M41.5719 34.601C42.7465 33.8012 43.5178 32.4531 43.5178 30.9249C43.5178 28.4703 41.5279 26.4805 39.0734 26.4805C36.6188 26.4805 34.6289 28.4703 34.6289 30.9249C34.6289 32.4384 35.3854 33.7752 36.541 34.5778L35.3696 42.7768H42.7771L41.5719 34.601Z" fill="white"/>
<path fill-rule="evenodd" clip-rule="evenodd" d="M26.2584 50.2887H52.8301C55.1645 50.2887 57.2466 48.7203 57.8956 46.476C58.0308 45.9983 58.1029 45.5025 58.1029 44.9978V24.3209C58.1029 23.8432 58.0398 23.3655 57.9136 22.9058C57.2827 20.6254 55.1916 19.0391 52.821 19.0391H26.2584C23.8969 19.0391 21.7968 20.6254 21.1658 22.9058C21.0397 23.3655 20.9766 23.8432 20.9766 24.3209V45.0068C20.9766 45.5115 21.0397 46.0073 21.1839 46.485C21.8328 48.7203 23.924 50.2887 26.2584 50.2887ZM22.9054 23.3926C23.3201 21.8873 24.6991 20.8418 26.2584 20.8418V20.8327H52.821C54.3804 20.8327 55.7594 21.8873 56.174 23.3835C56.2552 23.69 56.3002 24.0055 56.3002 24.3209V45.0068C56.3002 45.3403 56.2552 45.6648 56.165 45.9802C55.7324 47.4584 54.3623 48.486 52.821 48.486H26.2584C24.7171 48.486 23.3471 47.4584 22.9145 45.9802C22.8243 45.6648 22.7793 45.3403 22.7793 45.0068V24.33C22.7793 24.0055 22.8243 23.699 22.9054 23.3926Z" fill="#161922"/>
<path fill-rule="evenodd" clip-rule="evenodd" d="M26.2596 19.4476C24.0802 19.4476 22.1417 20.9127 21.5598 23.0152C21.4435 23.4389 21.3851 23.8802 21.3851 24.3221V45.0079C21.3851 45.4787 21.444 45.9342 21.5751 46.3684L21.5763 46.3725C22.1746 48.4333 24.1058 49.8824 26.2596 49.8824H52.8312C54.9835 49.8824 56.9062 48.4348 57.5051 46.3648C57.6303 45.9222 57.6967 45.4642 57.6967 44.9989V24.3221C57.6967 23.8802 57.6383 23.439 57.5221 23.0154C56.9401 20.9124 55.0103 19.4476 52.8222 19.4476H26.2596ZM20.7743 22.7983C21.4544 20.3403 23.7161 18.6328 26.2596 18.6328H52.8222C55.3751 18.6328 57.6275 20.3407 58.3074 22.7983C58.4435 23.2939 58.5115 23.8087 58.5115 24.3221V44.9989C58.5115 45.5427 58.4338 46.0757 58.2888 46.5881L58.2881 46.5903C57.5889 49.0085 55.3476 50.6972 52.8312 50.6972H26.2596C23.7451 50.6972 21.4947 49.0106 20.7944 46.6018C20.6375 46.0812 20.5703 45.5459 20.5703 45.0079V24.3221C20.5703 23.8087 20.6383 23.2939 20.7743 22.7983ZM25.8522 20.4569C24.2817 20.6226 22.9408 21.7353 22.5138 23.2855L22.5128 23.2895C22.4237 23.6259 22.373 23.9675 22.373 24.3311V45.0079C22.373 45.3787 22.4232 45.7408 22.5239 46.0933L22.5246 46.0958C23.008 47.7476 24.5373 48.8945 26.2596 48.8945H52.8222C54.5445 48.8945 56.0737 47.7476 56.5572 46.0958L56.5579 46.0933C56.6586 45.7408 56.7088 45.3787 56.7088 45.0079V24.3221C56.7088 23.968 56.6582 23.6174 56.569 23.2804L56.5678 23.2759C56.1044 21.6038 54.5652 20.4265 52.8222 20.4265H25.8522V20.4569ZM26.667 21.2413V21.2503H26.2596C24.8835 21.2503 23.6663 22.1733 23.2999 23.5C23.2271 23.7758 23.1878 24.0465 23.1878 24.3311V45.0079C23.1878 45.3038 23.2277 45.5901 23.307 45.8682C23.6892 47.1722 24.8998 48.0797 26.2596 48.0797H52.8222C54.1821 48.0797 55.3926 47.1721 55.7748 45.8681C55.8541 45.5901 55.894 45.3037 55.894 45.0079V24.3221C55.894 24.046 55.8546 23.7665 55.782 23.4913C55.4153 22.1721 54.1971 21.2413 52.8222 21.2413H26.667Z" fill="#161922"/>
<path d="M17.5864 24.0483H10.7812V9.20312H12.5839V22.2456H17.5864V24.0483Z" fill="#161922"/>
<path fill-rule="evenodd" clip-rule="evenodd" d="M10.375 8.79688H12.9925V21.8393H17.995V24.4568H10.375V8.79688ZM11.1898 9.61169V23.642H17.1801V22.6541H12.1777V9.61169H11.1898Z" fill="#161922"/>
<path d="M68.3051 24.0483H61.5V22.2456H66.5025V9.20312H68.3051V24.0483Z" fill="#161922"/>
<path fill-rule="evenodd" clip-rule="evenodd" d="M66.0962 8.79688H68.7137V24.4568H61.0938V21.8393H66.0962V8.79688ZM66.911 9.61169V22.6541H61.9086V23.642H67.8989V9.61169H66.911Z" fill="#161922"/>
<path fill-rule="evenodd" clip-rule="evenodd" d="M6.83398 5.25548C6.83398 7.93247 9.00622 10.1047 11.6832 10.1047C14.3602 10.1047 16.5324 7.93247 16.5324 5.25548C16.5324 2.57849 14.3602 0.40625 11.6832 0.40625C9.00622 0.40625 6.83398 2.57849 6.83398 5.25548ZM8.63667 5.25548C8.63667 3.57898 10.0067 2.20894 11.6832 2.20894C13.3687 2.20894 14.7298 3.57898 14.7298 5.25548C14.7298 6.93198 13.3597 8.30202 11.6832 8.30202C10.0067 8.30202 8.63667 6.93198 8.63667 5.25548Z" fill="#161922"/>
<path fill-rule="evenodd" clip-rule="evenodd" d="M11.6824 0.814815C9.23043 0.814815 7.2406 2.80465 7.2406 5.25664C7.2406 7.70862 9.23043 9.69846 11.6824 9.69846C14.1344 9.69846 16.1242 7.70862 16.1242 5.25664C16.1242 2.80465 14.1344 0.814815 11.6824 0.814815ZM6.42578 5.25664C6.42578 2.35464 8.78042 0 11.6824 0C14.5844 0 16.9391 2.35464 16.9391 5.25664C16.9391 8.15863 14.5844 10.5133 11.6824 10.5133C8.78042 10.5133 6.42578 8.15863 6.42578 5.25664ZM8.22847 5.25664C8.22847 3.35513 9.78091 1.80269 11.6824 1.80269C13.5937 1.80269 15.1364 3.35592 15.1364 5.25664C15.1364 7.15814 13.5839 8.71059 11.6824 8.71059C9.78091 8.71059 8.22847 7.15814 8.22847 5.25664ZM11.6824 2.6175C10.2309 2.6175 9.04328 3.80514 9.04328 5.25664C9.04328 6.70813 10.2309 7.89577 11.6824 7.89577C13.1339 7.89577 14.3216 6.70813 14.3216 5.25664C14.3216 3.80436 13.1421 2.6175 11.6824 2.6175Z" fill="#161922"/>
<path fill-rule="evenodd" clip-rule="evenodd" d="M62.5547 5.25548C62.5547 7.93247 64.7269 10.1047 67.4039 10.1047C70.0719 10.1047 72.2531 7.93247 72.2531 5.25548C72.2531 2.57849 70.0809 0.40625 67.4039 0.40625C64.7269 0.40625 62.5547 2.57849 62.5547 5.25548ZM64.3574 5.25548C64.3574 3.57898 65.7274 2.20894 67.4039 2.20894C69.0804 2.20894 70.4414 3.57898 70.4505 5.25548C70.4505 6.93198 69.0804 8.30202 67.4039 8.30202C65.7274 8.30202 64.3574 6.93198 64.3574 5.25548Z" fill="#161922"/>
<path fill-rule="evenodd" clip-rule="evenodd" d="M67.4051 0.814815C64.9531 0.814815 62.9633 2.80465 62.9633 5.25664C62.9633 7.70862 64.9531 9.69846 67.4051 9.69846C69.8485 9.69846 71.8469 7.70813 71.8469 5.25664C71.8469 2.80465 69.8571 0.814815 67.4051 0.814815ZM62.1484 5.25664C62.1484 2.35464 64.5031 0 67.4051 0C70.3071 0 72.6617 2.35464 72.6617 5.25664C72.6617 8.15913 70.2976 10.5133 67.4051 10.5133C64.5031 10.5133 62.1484 8.15863 62.1484 5.25664ZM63.9511 5.25664C63.9511 3.35513 65.5036 1.80269 67.4051 1.80269C69.3086 1.80269 70.8488 3.35665 70.859 5.25445L70.859 5.25664C70.859 7.15814 69.3066 8.71059 67.4051 8.71059C65.5036 8.71059 63.9511 7.15814 63.9511 5.25664ZM67.4051 2.6175C65.9536 2.6175 64.7659 3.80514 64.7659 5.25664C64.7659 6.70813 65.9536 7.89577 67.4051 7.89577C68.8562 7.89577 70.0436 6.7087 70.0442 5.25768C70.0358 3.80301 68.8542 2.6175 67.4051 2.6175Z" fill="#161922"/>
<path d="M12.5839 56.7971H10.7812V45.332H17.5864V47.1347H12.5839V56.7971Z" fill="#161922"/>
<path fill-rule="evenodd" clip-rule="evenodd" d="M10.375 44.9219H17.995V47.5394H12.9925V57.2018H10.375V44.9219ZM11.1898 45.7367V56.387H12.1777V46.7246H17.1801V45.7367H11.1898Z" fill="#161922"/>
<path d="M68.3051 56.7971H66.5025V47.1347H61.5V45.332H68.3051V56.7971Z" fill="#161922"/>
<path fill-rule="evenodd" clip-rule="evenodd" d="M61.0938 44.9219H68.7137V57.2018H66.0962V47.5394H61.0938V44.9219ZM61.9086 45.7367V46.7246H66.911V56.387H67.8989V45.7367H61.9086Z" fill="#161922"/>
<path fill-rule="evenodd" clip-rule="evenodd" d="M6.83398 60.7399C6.83398 63.4168 9.00622 65.5891 11.6832 65.5891C14.3602 65.5891 16.5324 63.4168 16.5324 60.7399C16.5324 58.0629 14.3602 55.8906 11.6832 55.8906C9.00622 55.8906 6.83398 58.0629 6.83398 60.7399ZM8.63667 60.7399C8.63667 59.0634 10.0067 57.6933 11.6832 57.6933C13.3687 57.6933 14.7298 59.0634 14.7298 60.7399C14.7298 62.4164 13.3597 63.7864 11.6832 63.7864C10.0067 63.7864 8.63667 62.4164 8.63667 60.7399Z" fill="#161922"/>
<path fill-rule="evenodd" clip-rule="evenodd" d="M11.6824 56.2992C9.23043 56.2992 7.2406 58.289 7.2406 60.741C7.2406 63.193 9.23043 65.1828 11.6824 65.1828C14.1344 65.1828 16.1242 63.193 16.1242 60.741C16.1242 58.289 14.1344 56.2992 11.6824 56.2992ZM6.42578 60.741C6.42578 57.839 8.78042 55.4844 11.6824 55.4844C14.5844 55.4844 16.9391 57.839 16.9391 60.741C16.9391 63.643 14.5844 65.9976 11.6824 65.9976C8.78042 65.9976 6.42578 63.643 6.42578 60.741ZM8.22847 60.741C8.22847 58.8395 9.78091 57.2871 11.6824 57.2871C13.5937 57.2871 15.1364 58.8403 15.1364 60.741C15.1364 62.6425 13.5839 64.195 11.6824 64.195C9.78091 64.195 8.22847 62.6425 8.22847 60.741ZM11.6824 58.1019C10.2309 58.1019 9.04328 59.2895 9.04328 60.741C9.04328 62.1925 10.2309 63.3801 11.6824 63.3801C13.1339 63.3801 14.3216 62.1925 14.3216 60.741C14.3216 59.2887 13.1421 58.1019 11.6824 58.1019Z" fill="#161922"/>
<path fill-rule="evenodd" clip-rule="evenodd" d="M62.5547 60.7399C62.5547 63.4168 64.7269 65.5891 67.4039 65.5891C70.0719 65.5891 72.2531 63.4168 72.2531 60.7399C72.2531 58.0629 70.0809 55.8906 67.4039 55.8906C64.7269 55.8906 62.5547 58.0629 62.5547 60.7399ZM64.3574 60.7399C64.3574 59.0634 65.7274 57.6933 67.4039 57.6933C69.0804 57.6933 70.4505 59.0634 70.4505 60.7399C70.4505 62.4164 69.0804 63.7864 67.4039 63.7864C65.7274 63.7864 64.3574 62.4164 64.3574 60.7399Z" fill="#161922"/>
<path fill-rule="evenodd" clip-rule="evenodd" d="M67.4051 56.2992C64.9531 56.2992 62.9633 58.289 62.9633 60.741C62.9633 63.193 64.9531 65.1828 67.4051 65.1828C69.8485 65.1828 71.8469 63.1925 71.8469 60.741C71.8469 58.289 69.8571 56.2992 67.4051 56.2992ZM62.1484 60.741C62.1484 57.839 64.5031 55.4844 67.4051 55.4844C70.3071 55.4844 72.6617 57.839 72.6617 60.741C72.6617 63.6435 70.2976 65.9976 67.4051 65.9976C64.5031 65.9976 62.1484 63.643 62.1484 60.741ZM63.9511 60.741C63.9511 58.8395 65.5036 57.2871 67.4051 57.2871C69.3066 57.2871 70.859 58.8395 70.859 60.741C70.859 62.6425 69.3066 64.195 67.4051 64.195C65.5036 64.195 63.9511 62.6425 63.9511 60.741ZM67.4051 58.1019C65.9536 58.1019 64.7659 59.2895 64.7659 60.741C64.7659 62.1925 65.9536 63.3801 67.4051 63.3801C68.8566 63.3801 70.0442 62.1925 70.0442 60.741C70.0442 59.2895 68.8566 58.1019 67.4051 58.1019Z" fill="#161922"/>
<path fill-rule="evenodd" clip-rule="evenodd" d="M0.40625 34.2711C0.40625 36.9481 2.57849 39.1203 5.25548 39.1203C7.92346 39.1203 10.1047 36.9481 10.1047 34.2711C10.1047 31.5941 7.93247 29.4219 5.25548 29.4219C2.57849 29.4219 0.40625 31.5941 0.40625 34.2711ZM2.20894 34.2711C2.20894 32.5946 3.57898 31.2246 5.25548 31.2246C6.93198 31.2246 8.29301 32.5946 8.30202 34.2711C8.30202 35.9476 6.93198 37.3176 5.25548 37.3176C3.57898 37.3176 2.20894 35.9476 2.20894 34.2711Z" fill="#161922"/>
<path fill-rule="evenodd" clip-rule="evenodd" d="M5.25664 29.8304C2.80465 29.8304 0.814815 31.8203 0.814815 34.2723C0.814815 36.7242 2.80465 38.7141 5.25664 38.7141C7.7001 38.7141 9.69846 36.7238 9.69846 34.2723C9.69846 31.8203 7.70862 29.8304 5.25664 29.8304ZM0 34.2723C0 31.3703 2.35464 29.0156 5.25664 29.0156C8.15863 29.0156 10.5133 31.3703 10.5133 34.2723C10.5133 37.1748 8.14913 39.5289 5.25664 39.5289C2.35464 39.5289 0 37.1743 0 34.2723ZM1.80269 34.2723C1.80269 32.3708 3.35513 30.8183 5.25664 30.8183C7.16012 30.8183 8.70038 32.3723 8.71058 34.2701L8.71059 34.2723C8.71059 36.1738 7.15814 37.7262 5.25664 37.7262C3.35513 37.7262 1.80269 36.1738 1.80269 34.2723ZM5.25664 31.6331C3.80514 31.6331 2.6175 32.8208 2.6175 34.2723C2.6175 35.7238 3.80514 36.9114 5.25664 36.9114C6.70779 36.9114 7.8952 35.7243 7.89577 34.2733C7.88734 32.8186 6.70577 31.6331 5.25664 31.6331Z" fill="#161922"/>
<path fill-rule="evenodd" clip-rule="evenodd" d="M68.9824 34.2711C68.9824 36.9481 71.1547 39.1203 73.8317 39.1203C76.5086 39.1203 78.6809 36.9481 78.6809 34.2711C78.6809 31.5941 76.5086 29.4219 73.8317 29.4219C71.1547 29.4219 68.9824 31.5941 68.9824 34.2711ZM70.7851 34.2711C70.7851 32.5946 72.1552 31.2246 73.8317 31.2246C75.5172 31.2246 76.8782 32.5946 76.8782 34.2711C76.8782 35.9476 75.5082 37.3176 73.8317 37.3176C72.1552 37.3176 70.7851 35.9476 70.7851 34.2711Z" fill="#161922"/>
<path fill-rule="evenodd" clip-rule="evenodd" d="M73.8309 29.8304C71.3789 29.8304 69.389 31.8203 69.389 34.2723C69.389 36.7242 71.3789 38.7141 73.8309 38.7141C76.2828 38.7141 78.2727 36.7242 78.2727 34.2723C78.2727 31.8203 76.2828 29.8304 73.8309 29.8304ZM68.5742 34.2723C68.5742 31.3703 70.9289 29.0156 73.8309 29.0156C76.7329 29.0156 79.0875 31.3703 79.0875 34.2723C79.0875 37.1743 76.7329 39.5289 73.8309 39.5289C70.9289 39.5289 68.5742 37.1743 68.5742 34.2723ZM70.3769 34.2723C70.3769 32.3708 71.9294 30.8183 73.8309 30.8183C75.7422 30.8183 77.2848 32.3715 77.2848 34.2723C77.2848 36.1738 75.7324 37.7262 73.8309 37.7262C71.9294 37.7262 70.3769 36.1738 70.3769 34.2723ZM73.8309 31.6331C72.3794 31.6331 71.1917 32.8208 71.1917 34.2723C71.1917 35.7238 72.3794 36.9114 73.8309 36.9114C75.2824 36.9114 76.47 35.7238 76.47 34.2723C76.47 32.82 75.2906 31.6331 73.8309 31.6331Z" fill="#161922"/>
<path d="M9.19531 33.3711H17.5868V35.1738H9.19531V33.3711Z" fill="#161922"/>
<path fill-rule="evenodd" clip-rule="evenodd" d="M8.78906 32.9609H17.9954V35.5784H8.78906V32.9609ZM9.60388 33.7758V34.7636H17.1806V33.7758H9.60388Z" fill="#161922"/>
<path d="M61.5 33.3711H69.8915V35.1738H61.5V33.3711Z" fill="#161922"/>
<path fill-rule="evenodd" clip-rule="evenodd" d="M61.0938 32.9609H70.3001V35.5784H61.0938V32.9609ZM61.9086 33.7758V34.7636H69.4853V33.7758H61.9086Z" fill="#161922"/>
</svg>
