<svg width="41" height="66" viewBox="0 0 41 66" fill="none" xmlns="http://www.w3.org/2000/svg">
<path d="M13.2122 57.8629C13.0829 57.8629 12.9559 57.8227 12.8486 57.744C12.6665 57.6119 12.57 57.3903 12.5987 57.1663L13.5383 49.7557L8.42119 44.3122C8.26614 44.1472 8.21455 43.9119 8.28463 43.6972C8.35387 43.4826 8.5343 43.3231 8.75667 43.2809L16.0961 41.8841L19.6912 35.3354C19.9091 34.9403 20.5577 34.9403 20.7754 35.3354L24.3705 41.8841L31.7102 43.2809C31.9329 43.3229 32.1133 43.4823 32.1831 43.697C32.2526 43.9116 32.2005 44.1472 32.0465 44.3119L26.9296 49.7557L27.8682 57.1663C27.8975 57.3903 27.8009 57.6119 27.6183 57.744C27.4362 57.877 27.195 57.9005 26.9917 57.8033L20.2336 54.6193L13.4754 57.8033C13.3921 57.8431 13.3016 57.8629 13.2122 57.8629Z" fill="#3AB34A"/>
<path fill-rule="evenodd" clip-rule="evenodd" d="M20.2661 63.5716C29.6899 63.5716 37.3294 55.9321 37.3294 46.5083C37.3294 37.0845 29.6899 29.445 20.2661 29.445C10.8423 29.445 3.20286 37.0845 3.20286 46.5083C3.20286 55.9321 10.8423 63.5716 20.2661 63.5716ZM20.2661 66.001C31.0316 66.001 39.7588 57.2738 39.7588 46.5083C39.7588 35.7428 31.0316 27.0156 20.2661 27.0156C9.50061 27.0156 0.773438 35.7428 0.773438 46.5083C0.773438 57.2738 9.50061 66.001 20.2661 66.001Z" fill="#161922"/>
<path fill-rule="evenodd" clip-rule="evenodd" d="M28.3837 2.42942L17.2208 26.8948C18.2826 26.7643 19.6166 26.645 20.9558 26.645C22.5183 26.645 24.0185 26.9121 25.1114 27.171C25.4072 27.241 25.6761 27.3112 25.9115 27.3765L37.8307 2.42942H28.3837ZM26.1428 29.9887L26.1409 29.9881L26.1238 29.982C26.1074 29.9763 26.0811 29.9672 26.0456 29.9553C25.9745 29.9314 25.8667 29.8961 25.727 29.8532C25.4473 29.7672 25.0422 29.6512 24.5514 29.535C23.5616 29.3005 22.262 29.0744 20.9558 29.0744C19.5951 29.0744 18.2096 29.212 17.1533 29.3527C16.6279 29.4227 16.19 29.4926 15.885 29.5447C15.7327 29.5707 15.6138 29.5922 15.5341 29.607L15.4448 29.6239L15.4236 29.628L15.4191 29.6289L13.0918 30.0918L26.2816 1.18413C26.6107 0.462817 27.3306 0 28.1234 0H38.4729C39.9621 0 40.9416 1.55361 40.2996 2.89729L27.1773 30.3624L26.1428 29.9887Z" fill="#161922"/>
<path fill-rule="evenodd" clip-rule="evenodd" d="M0.181202 2.85656C-0.422824 1.51672 0.557137 0 2.02684 0H11.8511C12.6233 0 13.3282 0.439218 13.6685 1.13234L21.6103 17.3096L16.0718 29.4152L12.6837 30.5895L0.181202 2.85656ZM2.65352 2.42942L13.986 27.5669L14.2948 27.4599L18.922 17.3463L11.5989 2.42942H2.65352Z" fill="#161922"/>
</svg>
