<svg width="116" height="116" viewBox="0 0 116 116" fill="none" xmlns="http://www.w3.org/2000/svg">
<g filter="url(#filter0_d_828_1752)">
<path d="M18 56C18 33.9086 35.9086 16 58 16V16C80.0914 16 98 33.9086 98 56V56C98 78.0914 80.0914 96 58 96V96C35.9086 96 18 78.0914 18 56V56Z" fill="white"/>
</g>
<path d="M42.0052 62.6354C42.0052 63.3427 41.7243 64.0209 41.2242 64.521C40.7241 65.0211 40.0458 65.3021 39.3385 65.3021C38.6313 65.3021 37.953 65.0211 37.4529 64.521C36.9528 64.0209 36.6719 63.3427 36.6719 62.6354V50.6354C36.6719 49.9282 36.9528 49.2499 37.4529 48.7498C37.953 48.2497 38.6313 47.9688 39.3385 47.9688C40.0458 47.9688 40.7241 48.2497 41.2242 48.7498C41.7243 49.2499 42.0052 49.9282 42.0052 50.6354V62.6354ZM79.3385 62.6354C79.3385 63.3427 79.0576 64.0209 78.5575 64.521C78.0574 65.0211 77.3791 65.3021 76.6719 65.3021C75.9646 65.3021 75.2863 65.0211 74.7862 64.521C74.2861 64.0209 74.0052 63.3427 74.0052 62.6354V50.6354C74.0052 49.9282 74.2861 49.2499 74.7862 48.7498C75.2863 48.2497 75.9646 47.9688 76.6719 47.9688C77.3791 47.9688 78.0574 48.2497 78.5575 48.7498C79.0576 49.2499 79.3385 49.9282 79.3385 50.6354V62.6354ZM55.3385 77.3007C55.3385 78.008 55.0576 78.6863 54.5575 79.1864C54.0574 79.6864 53.3791 79.9674 52.6719 79.9674C51.9646 79.9674 51.2864 79.6864 50.7863 79.1864C50.2862 78.6863 50.0052 78.008 50.0052 77.3007V65.3007C50.0052 64.5935 50.2862 63.9152 50.7863 63.4151C51.2864 62.915 51.9646 62.6341 52.6719 62.6341C53.3791 62.6341 54.0574 62.915 54.5575 63.4151C55.0576 63.9152 55.3385 64.5935 55.3385 65.3007V77.3007ZM66.0052 77.3007C66.0052 78.008 65.7242 78.6863 65.2242 79.1864C64.7241 79.6864 64.0458 79.9674 63.3385 79.9674C62.6313 79.9674 61.953 79.6864 61.4529 79.1864C60.9528 78.6863 60.6719 78.008 60.6719 77.3007V65.3007C60.6719 64.5935 60.9528 63.9152 61.4529 63.4151C61.953 62.915 62.6313 62.6341 63.3385 62.6341C64.0458 62.6341 64.7241 62.915 65.2242 63.4151C65.7242 63.9152 66.0052 64.5935 66.0052 65.3007V77.3007Z" fill="#7CB342"/>
<path d="M44.6641 48.0222V68.0208C44.6641 68.7281 44.945 69.4064 45.4451 69.9065C45.9452 70.4066 46.6235 70.6875 47.3307 70.6875H68.6641C69.3713 70.6875 70.0496 70.4066 70.5497 69.9065C71.0498 69.4064 71.3307 68.7281 71.3307 68.0208V48.0222H44.6641ZM57.9974 34.6875C49.9974 34.6875 45.1241 39.5475 44.6641 45.3542H71.3307C70.8694 39.5475 65.9974 34.6875 57.9974 34.6875ZM52.6641 42.1515C52.3104 42.1515 51.9713 42.011 51.7213 41.761C51.4712 41.5109 51.3307 41.1718 51.3307 40.8182C51.3307 40.4645 51.4712 40.1254 51.7213 39.8754C51.9713 39.6253 52.3104 39.4848 52.6641 39.4848C53.0177 39.4848 53.3568 39.6253 53.6069 39.8754C53.8569 40.1254 53.9974 40.4645 53.9974 40.8182C53.9974 41.1718 53.8569 41.5109 53.6069 41.761C53.3568 42.011 53.0177 42.1515 52.6641 42.1515ZM63.3307 42.1515C62.9771 42.1515 62.638 42.011 62.3879 41.761C62.1379 41.5109 61.9974 41.1718 61.9974 40.8182C61.9974 40.4645 62.1379 40.1254 62.3879 39.8754C62.638 39.6253 62.9771 39.4848 63.3307 39.4848C63.6844 39.4848 64.0235 39.6253 64.2735 39.8754C64.5236 40.1254 64.6641 40.4645 64.6641 40.8182C64.6641 41.1718 64.5236 41.5109 64.2735 41.761C64.0235 42.011 63.6844 42.1515 63.3307 42.1515Z" fill="#7CB342"/>
<path fill-rule="evenodd" clip-rule="evenodd" d="M49.2942 32.195C49.9144 31.7979 50.739 31.9788 51.1361 32.5989L52.9134 35.3749C53.3105 35.9951 53.1296 36.8197 52.5095 37.2168C51.8893 37.6138 51.0647 37.433 50.6676 36.8128L48.8903 34.0368C48.4932 33.4166 48.6741 32.592 49.2942 32.195ZM62.6824 35.9103L64.9038 32.5783L67.1226 34.0575L64.9012 37.3895L62.6824 35.9103Z" fill="#7CB342"/>
<defs>
<filter id="filter0_d_828_1752" x="0" y="0" width="116" height="116" filterUnits="userSpaceOnUse" color-interpolation-filters="sRGB">
<feFlood flood-opacity="0" result="BackgroundImageFix"/>
<feColorMatrix in="SourceAlpha" type="matrix" values="0 0 0 0 0 0 0 0 0 0 0 0 0 0 0 0 0 0 127 0" result="hardAlpha"/>
<feOffset dy="2"/>
<feGaussianBlur stdDeviation="9"/>
<feColorMatrix type="matrix" values="0 0 0 0 0.231373 0 0 0 0 0.32549 0 0 0 0 0.560784 0 0 0 0.17 0"/>
<feBlend mode="normal" in2="BackgroundImageFix" result="effect1_dropShadow_828_1752"/>
<feBlend mode="normal" in="SourceGraphic" in2="effect1_dropShadow_828_1752" result="shape"/>
</filter>
</defs>
</svg>
