<svg width="684" height="374" viewBox="0 0 684 374" fill="none" xmlns="http://www.w3.org/2000/svg">
<mask id="mask0" mask-type="alpha" maskUnits="userSpaceOnUse" x="38" y="0" width="616" height="369">
<rect x="38" width="616" height="369" fill="white"/>
</mask>
<g mask="url(#mask0)">
<circle cx="342" cy="297" r="292" fill="#F4F7FA"/>
</g>
<path d="M530.334 187.791C529.323 187.791 528.502 188.61 528.502 189.617C528.502 190.624 529.323 191.439 530.334 191.439C531.34 191.439 532.165 190.624 532.165 189.617C532.165 188.61 531.34 187.791 530.334 187.791" fill="#00FAE3"/>
<path d="M532.439 350.371H150.96V115.524C150.96 108.923 156.33 103.571 162.954 103.571H520.445C527.068 103.571 532.439 108.923 532.439 115.524V350.371Z" fill="#78A8FF"/>
<path d="M166.119 320.151H516.439V122.878H166.119V320.151Z" fill="white"/>
<path d="M166.119 320.151H516.439V122.878H166.119V320.151Z" fill="#D0E7FF"/>
<path d="M211.593 351.211H473.491V344.495H211.593V351.211Z" fill="#AAFF00"/>
<path d="M211.593 351.211H473.491V344.495H211.593V351.211Z" fill="#EBF2FF"/>
<path d="M119.802 358.766C119.802 358.766 124.104 363.845 137.014 368H547.206C547.206 368 556.768 365.692 561.071 359.228L119.802 358.766Z" fill="#3771DA"/>
<path d="M558.821 359.605H122.053C120.345 359.605 118.96 358.217 118.96 356.505V352.632C118.96 350.92 120.345 349.532 122.053 349.532H558.821C560.529 349.532 561.913 350.92 561.913 352.632V356.505C561.913 358.217 560.529 359.605 558.821 359.605" fill="#4F89F2"/>
<path d="M344.647 111.126C344.647 109.271 343.139 107.768 341.279 107.768C339.418 107.768 337.91 109.271 337.91 111.126C337.91 112.98 339.418 114.483 341.279 114.483C343.139 114.483 344.647 112.98 344.647 111.126" fill="#1A2E35"/>
<path d="M296.662 108.607H213.26C212.339 108.607 211.593 107.856 211.593 106.929C211.593 106.001 212.339 105.25 213.26 105.25H296.662C297.583 105.25 298.331 106.001 298.331 106.929C298.331 107.856 297.583 108.607 296.662 108.607Z" fill="#90B7DD"/>
<path d="M467.612 108.607H384.211C383.289 108.607 382.542 107.856 382.542 106.929C382.542 106.001 383.289 105.25 384.211 105.25H467.612C468.534 105.25 469.28 106.001 469.28 106.929C469.28 107.856 468.534 108.607 467.612 108.607Z" fill="#90B7DD"/>
<rect x="231.711" y="122.363" width="284.564" height="25.5034" fill="#C3E0FE"/>
<rect x="164.598" y="121.02" width="68.4564" height="198.658" fill="#C3E0FE"/>
<ellipse cx="180.537" cy="131.759" rx="2.51678" ry="2.68456" fill="#DDEEFF"/>
<ellipse cx="191.444" cy="131.759" rx="2.51678" ry="2.68456" fill="#DDEEFF"/>
<ellipse cx="202.349" cy="131.759" rx="2.51678" ry="2.68456" fill="#DDEEFF"/>
<rect opacity="0.33896" x="473.322" y="194.846" width="26.8456" height="26.8456" rx="8" fill="#AED7FF"/>
<rect opacity="0.33896" x="473.322" y="265.987" width="26.8456" height="26.8456" rx="8" fill="#AED7FF"/>
<rect opacity="0.33896" x="473.322" y="159.946" width="26.8456" height="26.8456" rx="8" fill="#AED7FF"/>
<rect opacity="0.33896" x="473.322" y="229.745" width="26.8456" height="26.8456" rx="8" fill="#AED7FF"/>
<g filter="url(#filter0_d)">
<rect x="172.651" y="86.792" width="335.57" height="208.054" rx="6.21" fill="white"/>
</g>
<circle cx="184.911" cy="104.421" r="4.20638" fill="#FF947F"/>
<circle cx="200.054" cy="104.421" r="4.20638" fill="#FFE373"/>
<circle cx="215.197" cy="104.421" r="4.20638" fill="#00B8D9"/>
<g filter="url(#filter1_d)">
<circle cx="133.5" cy="255.5" r="53.5" fill="white"/>
</g>
<g filter="url(#filter2_d)">
<circle cx="72.5" cy="178.5" r="38.5" fill="white"/>
</g>
<path fill-rule="evenodd" clip-rule="evenodd" d="M139.273 217.596C138.815 216.151 137.473 215.169 135.958 215.169H131.042C129.527 215.169 128.186 216.151 127.728 217.596L125.914 223.321C125.573 224.399 124.722 225.23 123.646 225.585C122.155 226.077 120.713 226.679 119.329 227.379C118.316 227.892 117.124 227.907 116.116 227.385L110.78 224.616C109.434 223.918 107.792 224.172 106.72 225.244L103.244 228.72C102.172 229.791 101.919 231.434 102.617 232.78L105.393 238.131C105.915 239.137 105.9 240.327 105.39 241.339C104.695 242.717 104.099 244.152 103.61 245.636C103.256 246.712 102.425 247.565 101.344 247.907L95.5962 249.727C94.1515 250.185 93.1694 251.527 93.1694 253.042V257.958C93.1694 259.473 94.1515 260.814 95.5962 261.273L101.369 263.101C102.446 263.442 103.276 264.291 103.632 265.365C104.12 266.836 104.714 268.259 105.404 269.625C105.916 270.638 105.932 271.83 105.409 272.837L102.617 278.221C101.919 279.566 102.172 281.209 103.244 282.28L106.72 285.756C107.792 286.828 109.434 287.082 110.78 286.384L116.178 283.583C117.184 283.061 118.374 283.076 119.386 283.586C120.746 284.271 122.162 284.86 123.625 285.344C124.7 285.699 125.55 286.529 125.892 287.608L127.728 293.404C128.186 294.849 129.527 295.831 131.042 295.831H135.958C137.473 295.831 138.815 294.849 139.273 293.404L141.108 287.608C141.451 286.529 142.301 285.699 143.375 285.344C144.839 284.86 146.255 284.271 147.614 283.586C148.627 283.077 149.817 283.061 150.822 283.583L156.22 286.384C157.566 287.082 159.209 286.828 160.281 285.756L163.756 282.28C164.828 281.209 165.082 279.566 164.384 278.221L161.591 272.837C161.068 271.83 161.084 270.638 161.596 269.625C162.287 268.259 162.88 266.836 163.368 265.365C163.724 264.291 164.554 263.442 165.632 263.101L171.404 261.273C172.849 260.814 173.831 259.473 173.831 257.958V253.042C173.831 251.527 172.849 250.185 171.404 249.727L165.656 247.907C164.576 247.565 163.745 246.712 163.391 245.636C162.902 244.151 162.305 242.716 161.611 241.337C161.101 240.325 161.086 239.135 161.608 238.13L164.384 232.779C165.082 231.434 164.828 229.791 163.756 228.72L160.281 225.244C159.209 224.172 157.566 223.918 156.22 224.616L150.886 227.384C149.879 227.906 148.687 227.891 147.674 227.378C146.29 226.678 144.847 226.077 143.354 225.585C142.279 225.23 141.428 224.399 141.086 223.32L139.273 217.596ZM114.569 256.323C114.569 245.413 123.414 236.569 134.323 236.569C145.233 236.569 154.077 245.413 154.077 256.323C154.077 267.233 145.233 276.077 134.323 276.077C123.414 276.077 114.569 267.233 114.569 256.323Z" fill="#5388EE"/>
<path fill-rule="evenodd" clip-rule="evenodd" d="M76.0066 155.504C75.7286 154.608 74.9136 154 73.9931 154H71.0069C70.0864 154 69.2714 154.608 68.9934 155.504L67.8917 159.053C67.6842 159.722 67.1674 160.237 66.5141 160.456C65.608 160.762 64.7319 161.134 63.8911 161.569C63.2759 161.886 62.5516 161.896 61.9394 161.572L58.698 159.856C57.8806 159.423 56.8827 159.58 56.2316 160.245L54.1203 162.4C53.4691 163.064 53.3149 164.082 53.7391 164.916L55.4256 168.233C55.7427 168.857 55.7337 169.595 55.4235 170.222C55.0015 171.076 54.6392 171.966 54.3422 172.886C54.1272 173.553 53.6224 174.081 52.9661 174.293L49.4742 175.422C48.5966 175.706 48 176.537 48 177.477V180.523C48 181.463 48.5966 182.294 49.4742 182.578L52.9808 183.712C53.6356 183.923 54.1398 184.45 54.3557 185.115C54.6524 186.027 55.0129 186.909 55.4322 187.756C55.7433 188.384 55.7531 189.123 55.4355 189.747L53.7391 193.084C53.3149 193.918 53.4691 194.936 54.1203 195.6L56.2316 197.755C56.8827 198.419 57.8806 198.577 58.698 198.144L61.9772 196.408C62.5885 196.084 63.311 196.094 63.9262 196.41C64.7519 196.834 65.6122 197.199 66.5012 197.5C67.1539 197.72 67.6704 198.234 67.8782 198.903L68.9934 202.496C69.2714 203.392 70.0864 204 71.0069 204H73.9931C74.9136 204 75.7286 203.392 76.0066 202.496L77.1218 198.903C77.3296 198.234 77.8461 197.72 78.4988 197.5C79.3881 197.199 80.2481 196.834 81.0741 196.41C81.689 196.094 82.4118 196.085 83.0228 196.408L86.302 198.144C87.1194 198.577 88.1173 198.419 88.7684 197.755L90.8797 195.6C91.5309 194.936 91.6851 193.918 91.2609 193.084L89.5645 189.747C89.2468 189.123 89.2567 188.384 89.5678 187.756C89.9871 186.909 90.3476 186.027 90.644 185.115C90.8602 184.45 91.3644 183.923 92.0192 183.712L95.5258 182.578C96.4034 182.294 97 181.463 97 180.523V177.477C97 176.537 96.4034 175.706 95.5258 175.422L92.0342 174.293C91.3776 174.081 90.8728 173.553 90.6578 172.885C90.3608 171.965 89.9985 171.075 89.5768 170.221C89.2669 169.594 89.2576 168.856 89.5747 168.233L91.2609 164.916C91.6851 164.082 91.5309 163.064 90.8797 162.4L88.7684 160.245C88.1173 159.58 87.1194 159.423 86.302 159.856L83.0615 161.571C82.4496 161.896 81.7256 161.886 81.1104 161.568C80.2693 161.134 79.3926 160.762 78.4862 160.456C77.8326 160.237 77.3158 159.722 77.108 159.052L76.0066 155.504ZM61 179.51C61 172.748 66.3726 167.265 73 167.265C79.6274 167.265 85 172.748 85 179.51C85 186.273 79.6274 191.755 73 191.755C66.3726 191.755 61 186.273 61 179.51Z" fill="#598CF1"/>
<path d="M508.221 112.295V331.354C508.221 334.083 506.418 336.295 504.194 336.295H176.678C174.454 336.295 172.651 334.083 172.651 331.354V112.295H508.221Z" fill="#F2F8FF"/>
<circle cx="514.893" cy="111.993" r="48.9933" fill="#FF7474"/>
<path fill-rule="evenodd" clip-rule="evenodd" d="M541.755 124.371L522.47 86.7517C519.371 81.2163 511.818 81.209 508.716 86.7517L489.432 124.371C486.264 130.027 490.099 137.19 496.307 137.19H534.878C541.08 137.19 544.922 130.033 541.755 124.371ZM515.593 129.391C513.443 129.391 511.693 127.641 511.693 125.492C511.693 123.342 513.443 121.592 515.593 121.592C517.742 121.592 519.492 123.342 519.492 125.492C519.492 127.641 517.742 129.391 515.593 129.391ZM515.593 117.693C517.742 117.693 519.492 116.193 519.492 114.35V97.6382C519.492 95.7957 517.742 94.2958 515.593 94.2958C513.443 94.2958 511.693 95.7957 511.693 97.6382V114.35C511.693 116.193 513.443 117.693 515.593 117.693Z" fill="#FFEDED"/>
<path fill-rule="evenodd" clip-rule="evenodd" d="M358.781 260.275C353.012 263.819 346.46 265.591 339.124 265.591C331.707 265.591 325.113 263.819 319.344 260.275C313.575 256.731 309.063 251.559 305.807 244.76C302.552 237.96 300.924 229.904 300.924 220.591C300.924 211.277 302.552 203.221 305.807 196.422C309.063 189.622 313.575 184.45 319.344 180.907C325.113 177.363 331.707 175.591 339.124 175.591C346.46 175.591 353.012 177.363 358.781 180.907C364.55 184.45 369.063 189.622 372.318 196.422C375.574 203.221 377.201 211.277 377.201 220.591C377.201 229.904 375.574 237.96 372.318 244.76C369.063 251.559 364.55 256.731 358.781 260.275ZM283.122 247.294V263.86H259.262V247.294H213.52V231.346L252.339 177.321H277.682L242.449 227.885H260.004V213.173H283.122V227.885H295.979V247.294H283.122ZM339.124 245.563C334.921 245.563 331.604 243.564 329.172 239.567C326.741 235.57 325.526 229.244 325.526 220.591C325.526 211.937 326.741 205.611 329.172 201.614C331.604 197.617 334.921 195.618 339.124 195.618C343.245 195.618 346.521 197.617 348.953 201.614C351.384 205.611 352.6 211.937 352.6 220.591C352.6 229.244 351.384 235.57 348.953 239.567C346.521 243.564 343.245 245.563 339.124 245.563ZM454.344 247.294V263.86H430.484V247.294H384.743V231.346L423.561 177.321H448.905L413.671 227.885H431.226V213.173H454.344V227.885H467.201V247.294H454.344Z" fill="#00338F"/>
<path fill-rule="evenodd" clip-rule="evenodd" d="M571.941 269.637L562.97 256.332V256.331L554 269.635H559.46V293.897H566.48V269.637H571.941ZM591.832 247.724L600.803 261.028H595.342V285.289H588.322V261.028H582.862L591.832 247.724ZM577.012 224.245L585.982 237.549H580.521V261.81H573.501V237.548H568.041L577.011 224.244L577.012 224.245Z" fill="url(#paint0_linear)"/>
<rect width="18" height="18" rx="2" transform="matrix(-1 0 0 1 637 32)" fill="#E9F5FF"/>
<rect width="16" height="16" rx="2" transform="matrix(-1 0 0 1 617 19)" fill="#E9F5FF"/>
<rect width="10" height="10" rx="2" transform="matrix(-1 0 0 1 619 53)" fill="#E9F5FF"/>
<rect width="7" height="7" rx="2" transform="matrix(-1 0 0 1 599 12)" fill="#E9F5FF"/>
<rect x="42" y="368" width="600" height="6" rx="3" fill="#00338F"/>
<rect width="32" height="6" rx="3" transform="matrix(1 0 0 -1 652 374)" fill="#00338F"/>
<rect width="32" height="6" rx="3" transform="matrix(1 0 0 -1 0 374)" fill="#00338F"/>
<defs>
<filter id="filter0_d" x="151.651" y="67.792" width="377.57" height="250.054" filterUnits="userSpaceOnUse" color-interpolation-filters="sRGB">
<feFlood flood-opacity="0" result="BackgroundImageFix"/>
<feColorMatrix in="SourceAlpha" type="matrix" values="0 0 0 0 0 0 0 0 0 0 0 0 0 0 0 0 0 0 127 0" result="hardAlpha"/>
<feOffset dy="2"/>
<feGaussianBlur stdDeviation="10.5"/>
<feColorMatrix type="matrix" values="0 0 0 0 0.36582 0 0 0 0 0.466201 0 0 0 0 0.656926 0 0 0 0.249889 0"/>
<feBlend mode="normal" in2="BackgroundImageFix" result="effect1_dropShadow"/>
<feBlend mode="normal" in="SourceGraphic" in2="effect1_dropShadow" result="shape"/>
</filter>
<filter id="filter1_d" x="59" y="183" width="149" height="149" filterUnits="userSpaceOnUse" color-interpolation-filters="sRGB">
<feFlood flood-opacity="0" result="BackgroundImageFix"/>
<feColorMatrix in="SourceAlpha" type="matrix" values="0 0 0 0 0 0 0 0 0 0 0 0 0 0 0 0 0 0 127 0" result="hardAlpha"/>
<feOffset dy="2"/>
<feGaussianBlur stdDeviation="10.5"/>
<feColorMatrix type="matrix" values="0 0 0 0 0.36582 0 0 0 0 0.466201 0 0 0 0 0.656926 0 0 0 0.249889 0"/>
<feBlend mode="normal" in2="BackgroundImageFix" result="effect1_dropShadow"/>
<feBlend mode="normal" in="SourceGraphic" in2="effect1_dropShadow" result="shape"/>
</filter>
<filter id="filter2_d" x="13" y="121" width="119" height="119" filterUnits="userSpaceOnUse" color-interpolation-filters="sRGB">
<feFlood flood-opacity="0" result="BackgroundImageFix"/>
<feColorMatrix in="SourceAlpha" type="matrix" values="0 0 0 0 0 0 0 0 0 0 0 0 0 0 0 0 0 0 127 0" result="hardAlpha"/>
<feOffset dy="2"/>
<feGaussianBlur stdDeviation="10.5"/>
<feColorMatrix type="matrix" values="0 0 0 0 0.886275 0 0 0 0 0.92549 0 0 0 0 1 0 0 0 1 0"/>
<feBlend mode="normal" in2="BackgroundImageFix" result="effect1_dropShadow"/>
<feBlend mode="normal" in="SourceGraphic" in2="effect1_dropShadow" result="shape"/>
</filter>
<linearGradient id="paint0_linear" x1="554" y1="293.897" x2="554" y2="224.244" gradientUnits="userSpaceOnUse">
<stop stop-color="#D4E6FF"/>
<stop offset="1" stop-color="#F4F7FA"/>
</linearGradient>
</defs>
</svg>
