<svg width="140" height="141" viewBox="0 0 140 141" fill="none" xmlns="http://www.w3.org/2000/svg">
<path d="M23.924 62.3476L65.924 36.2969C68.2278 34.8792 71.0633 34.8792 73.3671 36.2969L115.367 62.702C116.076 63.0564 116.076 63.9425 115.544 64.6514L70.5316 112.677L23.5696 64.1197C23.038 63.4109 23.2152 62.5248 23.924 62.3476Z" fill="#B6D3BD"/>
<path d="M108.278 98.3223H31.5443C30.3038 98.3223 29.2405 97.259 29.2405 96.0185V49.4109C29.2405 48.1703 30.3038 47.1071 31.5443 47.1071H108.278C109.519 47.1071 110.582 48.1703 110.582 49.4109V95.8412C110.582 97.0817 109.519 98.3223 108.278 98.3223Z" fill="#268334"/>
<path d="M23.038 121.36C23.038 124.373 25.519 126.677 28.3544 126.677L109.342 126.854C112.354 126.854 114.835 124.373 114.658 121.36L73.3671 91.7653C71.0633 89.9931 67.8734 89.9931 65.5696 91.7653L23.038 121.36Z" fill="white"/>
<path d="M81.8734 97.9678L115.899 63.5881L114.658 121.36L81.8734 97.9678Z" fill="white"/>
<path d="M23.038 121.36L23.2152 63.4109L57.0633 97.4362L23.038 121.36Z" fill="white"/>
<path opacity="0.5" d="M82.0506 97.9678L85.7722 94.0691L114.658 120.474L82.0506 97.9678Z" fill="#B6D3BD"/>
<path opacity="0.5" d="M57.0633 97.4362L53.6962 93.8919L23.2152 120.474L57.0633 97.4362Z" fill="#B6D3BD"/>
<path d="M83.2911 59.5121C82.4051 58.8032 80.9873 58.9805 80.4557 59.8665L67.3418 77.2336L60.962 70.3222C60.2532 69.4362 58.8354 69.4362 57.9494 70.145C57.0633 70.8539 57.0633 72.2716 57.7721 73.1577L65.7468 81.8412C65.924 82.0184 66.1013 82.1957 66.4557 82.3729C67.3418 82.9045 68.4051 82.5501 69.1139 81.8412L83.6456 62.3475C84.3544 61.4615 84.3544 59.8665 83.2911 59.5121Z" fill="white"/>
<path d="M70.7089 21.9425C70.1772 21.9425 69.8228 21.5881 69.8228 21.0564V15.2083C69.8228 14.6767 70.1772 14.3223 70.7089 14.3223C71.2405 14.3223 71.5949 14.6767 71.5949 15.2083V20.8792C71.5949 21.2337 71.2405 21.9425 70.7089 21.9425Z" fill="#268334"/>
<path d="M82.0506 29.9172C81.519 29.74 81.3418 29.0311 81.6962 28.6767L84.5316 23.7147C84.7089 23.183 85.4177 23.0058 85.7721 23.3602C86.3038 23.5375 86.481 24.2463 86.1266 24.6007L83.2911 29.3856C83.1139 29.9172 82.4051 29.9172 82.0506 29.9172Z" fill="#268334"/>
<path d="M57.5949 29.3856C58.1266 29.2084 58.3038 28.4995 57.9494 28.1451L55.1139 23.1831C54.9367 22.6514 54.2278 22.4742 53.8734 22.8286C53.3418 23.0058 53.1646 23.7147 53.519 24.0691L56.3544 29.0312C56.5316 29.3856 57.0633 29.5628 57.5949 29.3856Z" fill="#268334"/>
<path d="M91.7975 39.664C91.6202 39.1324 91.7975 38.6008 92.3291 38.4235L97.6456 36.1197C98.1772 35.9425 98.7088 36.1197 98.8861 36.6514C99.0633 37.183 98.8861 37.7147 98.3544 37.8919L93.038 40.1957C92.6835 40.5501 91.9747 40.1957 91.7975 39.664Z" fill="#268334"/>
<path d="M40.4051 37.0058C40.5823 36.4742 41.1139 36.297 41.6456 36.4742L46.962 38.778C47.4937 38.9552 47.6709 39.4868 47.4937 40.0185C47.3165 40.5501 46.7848 40.7273 46.2532 40.5501L40.9367 38.2463C40.4051 37.8919 40.0506 37.5375 40.4051 37.0058Z" fill="#268334"/>
</svg>
