<?xml version="1.0" encoding="utf-8"?>
  <!-- Generator: Adobe Illustrator 19.2.1, SVG Export Plug-In . SVG Version: 6.00 Build 0)  -->
<svg version="1.1" id="Layer_1" xmlns="http://www.w3.org/2000/svg" xmlns:xlink="http://www.w3.org/1999/xlink" x="0px" y="0px"
	 viewBox="0 0 64 64" style="enable-background:new 0 0 64 64;" xml:space="preserve">
<style type="text/css">
	.st1{display:inline;fill:#B3BAC6;}
	.st2{display:inline;fill:#E7E8EC;}
	.st3{display:inline;opacity:0.3;fill:none;stroke:#979FB0;stroke-width:0.25;stroke-miterlimit:10;enable-background:new    ;}
	.st4{display:inline;}
	.st5{fill:#97A0B0;}
	.st6{fill:#E7E8EC;}
	.st7{fill:#979FB0;}
	.st8{opacity:0.2;fill:none;stroke:#979FB0;stroke-width:0.25;stroke-miterlimit:10;enable-background:new    ;}
	.st9{fill:#B3BAC6;}
	.st10{fill:url(#SVGID_1_);}
	.st11{fill:#F4F5F7;}
	.st12{display:inline;fill:#CCD2DB;}
	.st13{display:inline;fill:#B3CDFA;}
	.st14{display:inline;fill:#216EF4;}
	.st15{display:inline;fill:#FFFFFF;}
	.st16{display:inline;opacity:0.5;fill:#B3CDFA;enable-background:new    ;}
	.st17{fill:#CCD2DB;}
	.st18{fill:#FFFFFF;}
  .st19{fill:none;stroke:#97A0B0;stroke-width:0.25;stroke-miterlimit:10;}
	.st20{fill:none;stroke:#97A0B0;stroke-width:0.25;stroke-miterlimit:10;stroke-dasharray:0.9932,0.9932;}
	.st21{fill:none;stroke:#97A0B0;stroke-width:0.25;stroke-miterlimit:10;stroke-dasharray:0.9748,0.9748;}
  g.st0 {display: none;}
  g.st0:target {
    display: inline;
  }
</style>
<g id="icon-update" class="st0">
	<rect x="4.1" y="8.5" class="st1" width="58.4" height="41.7"/>
	<rect y="12.6" class="st2" width="58.4" height="41.7"/>
	<line class="st3" x1="0.2" y1="17.2" x2="58.4" y2="17.2"/>
	<g class="st4">
		<ellipse class="st5" cx="2.4" cy="15" rx="0.9" ry="0.9"/>
		<ellipse class="st5" cx="4.8" cy="15" rx="0.9" ry="0.9"/>
		<ellipse class="st5" cx="7.2" cy="15" rx="0.9" ry="0.9"/>
	</g>
	<g class="st4">
		<g>
			<path class="st5" d="M63.2,44.6H44.9c-0.5,0-0.8-0.4-0.8-0.8v-3.6c0-0.5,0.4-0.8,0.8-0.8h18.3c0.5,0,0.8,0.4,0.8,0.8v3.6
				C64,44.3,63.6,44.6,63.2,44.6z"/>
			<g>
				<ellipse class="st6" cx="46.7" cy="42.1" rx="0.7" ry="0.7"/>
				<ellipse class="st6" cx="49.1" cy="42.1" rx="0.7" ry="0.7"/>
				<rect x="51" y="41.4" class="st6" width="11.1" height="1.4"/>
			</g>
		</g>
		<g>
			<path class="st5" d="M63.1,50.6H45c-0.5,0-0.9-0.4-0.9-0.9v-3.3c0-0.5,0.4-0.9,0.9-0.9h18.1c0.5,0,0.9,0.4,0.9,0.9v3.3
				C64,50.2,63.6,50.6,63.1,50.6z"/>
			<g>
				<ellipse class="st6" cx="46.7" cy="48" rx="0.7" ry="0.7"/>
				<ellipse class="st6" cx="49.1" cy="48" rx="0.7" ry="0.7"/>
				<rect x="51" y="47.3" class="st6" width="11.1" height="1.4"/>
			</g>
		</g>
		<g>
			<path class="st5" d="M63.1,56.5H44.9c-0.5,0-0.9-0.4-0.9-0.9v-3.5c0-0.5,0.4-0.9,0.9-0.9h18.2c0.5,0,0.9,0.4,0.9,0.9v3.5
				C64,56.1,63.6,56.5,63.1,56.5z"/>
			<g>
				<ellipse class="st6" cx="46.7" cy="53.9" rx="0.7" ry="0.7"/>
				<ellipse class="st6" cx="49.1" cy="53.9" rx="0.7" ry="0.7"/>
				<rect x="51" y="53.2" class="st6" width="11.1" height="1.4"/>
			</g>
		</g>
	</g>
	<g class="st4">
		<path class="st5" d="M23.1,32.5c0.2,0.1,0.5,0.2,0.7,0.4c0.1,0.1,0.2,0.2,0.2,0.3c0,0.2-0.1,0.3-0.2,0.3c-0.7,0.4-1.4,0.9-2.2,1.3
			c-0.3,0.2-0.6,0-0.6-0.3c-0.1-0.5-0.1-0.9-0.1-1.4c0-0.3-0.1-0.7-0.1-1c0-0.1,0-0.3,0.1-0.4s0.3-0.2,0.4-0.1
			c0.2,0.1,0.5,0.2,0.7,0.4c0.1-0.2,0.3-0.5,0.4-0.7c0.6-0.9,1.4-1.6,2.4-2.2c0.8-0.4,1.6-0.7,2.4-0.8c1.4-0.2,2.7,0,4,0.6
			c1.4,0.7,2.4,1.7,3.2,3.1c0.2,0.3,0.3,0.7,0.4,1.1c0.1,0.2,0,0.4-0.2,0.6c-0.2,0.1-0.3,0.2-0.5,0.1c-0.2-0.1-0.3-0.2-0.4-0.4
			c-0.2-0.5-0.4-1-0.7-1.5s-0.8-1-1.3-1.4c-0.7-0.6-1.6-1-2.5-1.2c-1.1-0.2-2.3-0.1-3.3,0.4C25.2,30,24.5,30.5,24,31
			C23.6,31.6,23.3,32,23.1,32.5z"/>
		<path class="st5" d="M33.3,37.9c-0.2-0.1-0.4-0.2-0.7-0.3c-0.2-0.1-0.2-0.2-0.3-0.3c0-0.2,0.1-0.3,0.2-0.4c0.6-0.3,1.1-0.7,1.7-1
			c0.1-0.1,0.3-0.2,0.4-0.3c0.3-0.2,0.6,0,0.6,0.3c0.1,0.8,0.1,1.6,0.2,2.4c0,0.2,0,0.3-0.2,0.4c-0.1,0.1-0.3,0.1-0.4,0
			c-0.2-0.1-0.4-0.2-0.6-0.3c-0.1,0.2-0.3,0.5-0.4,0.7c-0.6,0.9-1.4,1.6-2.3,2.2c-0.8,0.5-1.7,0.8-2.7,0.9c-1.1,0.1-2.2,0-3.2-0.4
			c-1.5-0.6-2.7-1.6-3.5-3c-0.3-0.4-0.5-0.9-0.6-1.4c-0.1-0.4,0.2-0.8,0.6-0.8c0.2,0,0.4,0.2,0.5,0.4c0.3,0.8,0.6,1.5,1.2,2.1
			s1.2,1.2,2,1.5c0.7,0.3,1.4,0.5,2.2,0.5c1.4,0,2.7-0.4,3.8-1.3C32.5,39.3,32.9,38.7,33.3,37.9C33.3,38,33.3,38,33.3,37.9z"/>
	</g>
</g>
<g id="icon-researcher_1_" class="st0">
	<path class="st1" d="M44.6,28.7c1.7,1.2,3.4,2.4,5.1,3.5c1.4,0.9,2.4,2.2,3,3.8c1.1,2.8,2.2,5.7,3.3,8.5c1.3,3.3,0.6,6.2-1.7,8.8
		c-0.3,0.4-0.6,0.7-0.9,1.1c0,0,0,0.1,0,0.2c0.2,0,0.5,0,0.7,0c1.9,0,3.8,0,5.7,0c0.8,0,1.3,0.4,1.3,1.1c0,0.7-0.5,1.2-1.3,1.2
		c-2.7,0-5.3,0-8,0c-0.6,0-1.7,1-1.7,1.6c0,0.8-0.1,1.7-0.1,2.5s-0.4,1.2-1.3,1.2c-11,0-22.1,0-33.1,0c-0.8,0-1.2-0.4-1.2-1.2
		s-0.1-1.6-0.1-2.4c0-0.8-1-1.9-1.9-1.9c-2.6,0-5.2,0-7.8,0c-0.2,0-0.4,0-0.5,0C3.4,56.6,3,56.2,3,55.5c0-0.6,0.5-1.1,1.2-1.1
		c2,0,4.1,0,6.1,0c0.2,0,0.5,0,0.8,0c-0.5-0.6-1-1.2-1.5-1.8c-2-2.5-2.5-5.3-1.3-8.4c1.1-2.9,2.2-5.8,3.4-8.7
		c0.6-1.4,1.5-2.6,2.8-3.5c1.7-1.1,3.4-2.3,5.2-3.6c-0.3-0.3-0.6-0.4-0.8-0.7c-0.8-0.9-1.6-1.7-2.3-2.7c-0.7-1-0.8-2-0.3-3.2
		c1.7-4.1,3.3-8.2,5.5-12c1.2-2,2.5-3.9,4.3-5.4c1.6-1.4,3.5-2.3,5.6-2.5c1.2-0.2,2.3,0.3,3.4,0.7c2.6,1.1,4.4,3,6,5.2
		c2,2.9,3.5,6,4.9,9.2c0.7,1.6,1.3,3.3,2,4.9c0.4,1,0.4,2-0.2,2.8c-0.8,1.1-1.7,2-2.6,3C45,28.3,44.8,28.5,44.6,28.7z"/>
	<path class="st2" d="M16.1,56.5c10.6,0,21.1,0,31.5,0c0-0.2,0-0.3,0-0.4c0.1-1.9,0.1-3.8,0.2-5.7c0.1-4.5,0.3-9,0.4-13.4
		c0-0.8-0.2-1-1-1c-10.2,0-20.5,0-30.7,0c-0.8,0-1,0.2-1,1c0.2,5.8,0.4,11.6,0.6,17.4C16.1,55.1,16.1,55.8,16.1,56.5z"/>
	<path class="st2" d="M37.7,18.1c-1.8-1.8-3.4-3.5-5.1-5.2c-0.2-0.2-0.3-0.3-0.4-0.5c-0.1-0.2,0-0.5,0.1-0.6s0.4-0.2,0.6-0.1
		c0.2,0.1,0.3,0.2,0.5,0.4c1.8,1.8,3.7,3.6,5.4,5.5c0.8,0.9,1.8,0.9,2.8,1.1c-0.1-0.2-0.3-0.4-0.4-0.5c-2.9-2.9-5.7-5.8-8.6-8.6
		c-0.3-0.3-0.8-0.6-0.3-1.1c0.5-0.5,0.8,0,1.1,0.3c0.1,0.1,0.1,0.1,0.2,0.2c3.4,3.4,6.7,6.8,10.1,10.2c0.2,0.2,0.5,0.4,0.9,0.6
		C44,18.2,43.3,17,42.2,16c-3.3-3.2-6.5-6.5-9.7-9.7c-0.1-0.1-0.3-0.2-0.4-0.4c-0.1-0.2-0.1-0.6,0-0.7c0.2-0.1,0.5-0.1,0.7-0.1
		c0.1,0,0.3,0.2,0.4,0.4c2.7,2.7,5.4,5.4,8.1,8.1c0.1,0.1,0.2,0.3,0.3,0.5c0.1-0.1,0.1-0.1,0.2-0.2c-1.4-2.7-2.8-5.3-5.2-7.3
		c-0.9-0.8-2-1.5-3.2-1.8c-0.7-0.2-1.5-0.3-2.1-0.2c-2.2,0.3-3.9,1.6-5.3,3.2c-2.1,2.4-3.5,5.2-4.9,8.1c-0.6,1.2-1.1,2.5-1.7,3.9
		c4.7-1.8,9.6-2.1,14.6-2c-0.7-0.7-1.2-1.2-1.8-1.7c-0.3-0.3-0.5-0.6-0.1-0.9c0.3-0.3,0.6-0.1,0.9,0.1c0.6,0.6,1.2,1.1,1.7,1.7
		C35.6,18,36.5,18.1,37.7,18.1z"/>
	<path class="st2" d="M32.1,21.2c-0.6,0-1.1,0-1.7,0c-1.7,0-3.4,0-5,0c-1,0-1.3,0.4-1,1.3c0.5,1.7,1.1,3.4,1.7,5.1
		c0.4,1.2,1.2,1.9,2.2,2.4c0.9,0.4,1.8,0.7,2.8,1c0.4,0.1,0.8,0.3,1.1,0.2c1.8-0.3,3.6-0.9,5-2.1c0.2-0.2,0.4-0.4,0.5-0.6
		c0.9-2,1.6-4.1,2.1-6.2c0.1-0.4,0-0.7-0.4-0.8c-0.2-0.2-0.5-0.3-0.8-0.3C36.5,21.2,34.3,21.2,32.1,21.2z"/>
	<path class="st2" d="M49,56.6c-11.3,0-22.6,0-33.9,0c0,1.7-0.1,1.4,1.1,1.4c10.6,0,21.2,0,31.9,0c0.3,0,0.6,0,0.9,0
		C49,57.5,49,57.1,49,56.6z"/>
	<path class="st1" d="M33.9,25.7c-0.6,0-1,0-1.6,0c0-1.1,0-2.3,0-3.4C32.8,23.4,33.3,24.6,33.9,25.7z"/>
	<g class="st4">
		<path class="st7" d="M34.9,48.1c0.8,0.7,1.7,1.3,2.5,2c0.3,0.2,0.4,0.5,0.4,0.8c-0.1,0.3-0.3,0.6-0.6,0.6c-0.2,0-0.5,0-0.6-0.2
			c-0.9-0.7-1.8-1.4-2.7-2.1c-1.1,0.9-2.4,1.3-3.8,1c-1.1-0.2-2-0.8-2.7-1.7c-1.2-1.6-1.2-4,0.1-5.5c1.4-1.7,3.8-2,5.5-1.1
			C34.9,43,36.1,45.6,34.9,48.1z M27.5,46c0,1.9,1.5,3.4,3.4,3.4c1.9,0,3.5-1.6,3.5-3.5s-1.6-3.4-3.4-3.4C29,42.6,27.5,44.1,27.5,46
			z"/>
	</g>
</g>
<g id="icon-hacktivity_1_" class="st0">
	<rect id="icon-hacktivity_3" x="3.6" y="8.5" class="st1" width="60.4" height="43"/>
	<g id="icon-hacktivity_2" class="st4">
		<rect y="12.5" class="st6" width="60.4" height="43"/>
		<line class="st8" x1="0.2" y1="17.2" x2="60.3" y2="17.2"/>
		<g>
			<ellipse class="st9" cx="2.4" cy="14.9" rx="0.9" ry="0.9"/>
			<ellipse class="st9" cx="4.9" cy="14.9" rx="0.9" ry="0.9"/>
			<ellipse class="st9" cx="7.4" cy="14.9" rx="0.9" ry="0.9"/>
		</g>
	</g>
	<g id="icon-hacktivity_1" class="st4">
		<path class="st5" d="M28.6,40.1c1.5,0.3,2.9,0,4.1-0.9c1.4-1,2.2-2.4,2.4-4.1c0.3-2.8-1.7-5.4-4.6-5.9c-1.3-0.2-2.5,0-3.6,0.6
			c-0.1,0.1-0.2,0.1-0.3,0.2c-0.2,0.1-0.5,0-0.6-0.2s-0.1-0.5,0.2-0.7c1.2-0.7,2.4-1.1,3.8-1c2.4,0.1,4.2,1.3,5.4,3.4
			c1.4,2.5,1,5.4-0.9,7.5c-0.9,1-2.1,1.7-3.5,2c-0.9,0.2-1.8,0.2-2.7,0c0,0,0,0-0.1,0c-0.1,0.2-0.2,0.3-0.3,0.5
			c-0.2,0.3-0.5,0.4-0.7,0.1c-0.4-0.6-0.9-1.2-1.3-1.8c-0.1-0.1-0.2-0.3-0.1-0.5s0.2-0.2,0.4-0.2c0.7,0,1.5,0,2.2-0.1
			c0.4,0,0.5,0.2,0.4,0.6C28.8,39.8,28.7,39.9,28.6,40.1z"/>
		<path class="st5" d="M29.2,33.1c0-0.7,0-1.4,0-2.1c0-0.3,0.3-0.5,0.6-0.5c0.2,0,0.3,0.2,0.3,0.4c0,0.1,0,0.2,0,0.2
			c0,1.2,0,2.5,0,3.7c0,0.1,0,0.2,0.1,0.3c0.7,0.5,1.4,1,2.1,1.6c0.2,0.1,0.3,0.3,0.2,0.5c-0.1,0.4-0.4,0.5-0.8,0.3
			c-0.5-0.3-0.9-0.7-1.4-1.1c-0.4-0.3-0.7-0.6-1.1-0.8c-0.1-0.1-0.1-0.1-0.1-0.3C29.2,34.5,29.2,33.8,29.2,33.1L29.2,33.1z"/>
		<path class="st5" d="M24.5,31.2c0.3,0,0.5,0.2,0.5,0.5s-0.2,0.5-0.5,0.5c-0.2,0-0.5-0.2-0.5-0.5C24,31.4,24.2,31.2,24.5,31.2z"/>
		<path class="st5" d="M23.7,34.2c0.3,0,0.5,0.2,0.5,0.5s-0.2,0.5-0.5,0.5c-0.2,0-0.5-0.2-0.5-0.5S23.4,34.2,23.7,34.2z"/>
		<path class="st5" d="M24.5,38.1c-0.3,0-0.5-0.2-0.5-0.5s0.2-0.5,0.5-0.5s0.5,0.2,0.5,0.4C24.9,37.9,24.7,38.1,24.5,38.1z"/>
	</g>
</g>
<g id="icon-report" class="st0">
	<polygon id="icon-noti_3_1_" class="st1" points="18.5,20 64,19.8 64,61.3 18.7,61.5 	"/>
	<g id="icon-noti_2_1_" class="st4">
		<polygon class="st7" points="0.9,53.1 0.7,7.4 23.9,7.3 35.6,19 35.8,52.9 		"/>
		<g>
			<path class="st5" d="M23.6,8L35,19.2l0.1,33L1.5,52.4L1.3,8.1L23.6,8 M24.2,6.6L0,6.7v47l36.5-0.2l-0.2-34.9L24.2,6.6L24.2,6.6z"
				/>
		</g>
		<g>
			<polygon class="st6" points="4.1,2.6 28,2.5 40.4,14.9 40.6,49.9 4.3,50.1 			"/>
			<g>

					<linearGradient id="SVGID_1_" gradientUnits="userSpaceOnUse" x1="25.6934" y1="-289.6086" x2="38.0563" y2="-289.6086" gradientTransform="matrix(1 -4.447892e-03 -4.447892e-03 -1 1.0871 -272.4168)">
					<stop  offset="0" style="stop-color:#C4C7CF;stop-opacity:0"/>
					<stop  offset="1" style="stop-color:#C0C3CC"/>
				</linearGradient>
				<polygon class="st10" points="28.1,15 28.1,19.2 40.4,14.9 				"/>
				<polygon class="st11" points="28,2.5 28.1,15 40.4,14.9 				"/>
			</g>
		</g>
	</g>
	<polygon id="icon-noti_1_2_" class="st12" points="18,61.5 64,61.3 52.3,34.3 6.4,34.5 	"/>
</g>
<g id="icon-noti_1_" class="st0">
	<path id="icon-noti_1_1_" class="st2" d="M51.4,5.5H2.8C1.2,5.5,0,6.7,0,8.3v30C0,39.8,1.2,41,2.8,41h6.8v13.3L22.5,41h28.8
		c1.5,0,2.8-1.2,2.8-2.8v-30C54.1,6.7,52.9,5.5,51.4,5.5z"/>
	<path id="icon-noti_3" class="st1" d="M33.1,29.1h29.2c0.9,0,1.7,0.7,1.7,1.7v18c0,0.9-0.7,1.7-1.7,1.7h-4.1v8l-7.8-8H33.1
		c-0.9,0-1.7-0.7-1.7-1.7v-18C31.5,29.9,32.2,29.1,33.1,29.1z"/>
	<g id="icon-noti_2" class="st4">
		<ellipse class="st9" cx="16.7" cy="23.2" rx="2.5" ry="2.5"/>
		<ellipse class="st9" cx="27.3" cy="23.2" rx="2.5" ry="2.5"/>
		<ellipse class="st9" cx="37.9" cy="23.2" rx="2.5" ry="2.5"/>
	</g>
	<g id="icon-noti_1" class="st4">
		<g>
			<path class="st6" d="M49.7,44.5c-0.3,0.7-1,1.1-1.7,1.1c-0.8,0-1.4-0.5-1.6-1.1C47.5,44.5,48.6,44.5,49.7,44.5z"/>
			<path class="st6" d="M53.3,43.7c-0.1-0.1-0.2-0.3-0.2-0.4c-0.3-0.6-0.7-1.2-0.9-1.9c-0.2-0.5-0.3-1-0.3-1.6c0-0.5,0-0.9,0-1.4
				c0-0.7-0.2-1.4-0.5-2c-0.4-0.7-1-1.2-1.8-1.5c-0.2-0.1-0.3-0.1-0.3-0.4c0-0.4-0.3-0.9-0.7-1c-0.5-0.2-0.9,0-1.2,0.3
				c-0.2,0.2-0.3,0.5-0.3,0.9c0,0.1,0,0.1-0.1,0.2c-0.1,0-0.3,0.1-0.4,0.2c-1.1,0.5-1.8,1.4-2,2.6c-0.1,0.4-0.1,0.8-0.1,1.3
				c0,0.4,0,0.8-0.1,1.1c-0.1,1-0.5,1.9-1,2.8c-0.2,0.3-0.3,0.5-0.5,0.8c-0.1,0.2,0,0.4,0.2,0.4h0.1c1.6,0,3.3,0,4.9,0
				c1.7,0,3.3,0,5,0c0.1,0,0.1,0,0.2,0C53.3,44,53.4,43.8,53.3,43.7z"/>
		</g>
		<g>
			<ellipse class="st9" cx="51.9" cy="36.8" rx="2.4" ry="2.4"/>
			<ellipse class="st6" cx="51.9" cy="36.8" rx="2.2" ry="2.2"/>
			<g>
				<path class="st9" d="M52.8,38l-2.2-2.2c-0.1-0.1-0.1-0.2,0-0.3l0,0c0.1-0.1,0.2-0.1,0.3,0l2.2,2.2c0.1,0.1,0.1,0.2,0,0.3l0,0
					C53.1,38.1,52.9,38.1,52.8,38z"/>
				<path class="st9" d="M51,38l2.2-2.2c0.1-0.1,0.1-0.2,0-0.3l0,0c-0.1-0.1-0.2-0.1-0.3,0l-2.2,2.2c-0.1,0.1-0.1,0.2,0,0.3l0,0
					C50.8,38.1,50.9,38.1,51,38z"/>
			</g>
		</g>
	</g>
</g>
<g id="icon-forgot_1_" class="st0">
	<g id="forgot_1_" transform="translate(-656.000000, -210.000000)" class="st4">
		<g id="Group-4_1_" transform="translate(656.000000, 210.000000)">
			<g id="img-nodata-copy_2_" transform="translate(6.000000, 6.000000)">
				<path id="Rectangle-path_8_" class="st5" d="M-2,6.4h59c0.5,0,1,0.4,1,1v40.1c0,0.5-0.4,1-1,1H-2c-0.5,0-1-0.4-1-1V7.4
					C-3,6.9-2.6,6.4-2,6.4z"/>
				<path id="Rectangle-path_3_" class="st6" d="M4.8,19.2h44.9c0.2,0,0.3,0.2,0.3,0.3V35c0,0.2-0.2,0.3-0.3,0.3H4.8
					c-0.2,0-0.3-0.2-0.3-0.3V19.5C4.4,19.3,4.6,19.2,4.8,19.2z"/>
				<g id="Group_1_" transform="translate(23.000000, 36.000000)">
					<polygon id="Shape_7_" class="st5" points="-9.6,-11 -11,-9.3 -11,-9.3 -8.7,-9.5 -8.7,-8.6 -11,-8.9 -11,-8.9 -9.6,-7.3
						-10.5,-6.8 -11.5,-8.6 -11.5,-8.6 -12.4,-6.7 -13.3,-7.2 -11.8,-8.9 -11.8,-8.9 -14.1,-8.6 -14.1,-9.5 -11.8,-9.3 -11.8,-9.3
						-13.3,-11 -12.3,-11.5 -11.4,-9.6 -11.4,-9.6 -10.4,-11.5 					"/>
					<polygon id="Shape_6_" class="st5" points="-3.2,-11 -4.6,-9.3 -4.6,-9.3 -2.3,-9.5 -2.3,-8.6 -4.6,-8.9 -4.6,-8.9 -3.2,-7.2
						-4.1,-6.7 -5.1,-8.5 -5.1,-8.5 -6,-6.6 -7,-7.2 -5.5,-8.9 -5.5,-8.9 -7.8,-8.6 -7.8,-9.5 -5.5,-9.3 -5.5,-9.3 -7,-11 -6,-11.5
						-5.1,-9.6 -5.1,-9.6 -4.1,-11.5 					"/>
					<polygon id="Shape_5_" class="st5" points="3.1,-11 1.7,-9.3 1.7,-9.3 4,-9.5 4,-8.6 1.7,-8.9 1.7,-8.9 3.1,-7.3 2.2,-6.8
						1.2,-8.6 1.2,-8.6 0.3,-6.7 -0.6,-7.2 0.9,-8.9 0.9,-8.9 -1.4,-8.6 -1.4,-9.5 0.9,-9.3 0.9,-9.3 -0.6,-11 0.4,-11.5 1.3,-9.6
						1.3,-9.6 2.3,-11.5 					"/>
					<polygon id="Shape_4_" class="st5" points="9.5,-11 8.1,-9.3 8.1,-9.3 10.4,-9.5 10.4,-8.6 8.1,-8.9 8.1,-8.9 9.5,-7.3
						8.6,-6.8 7.6,-8.6 7.6,-8.6 6.7,-6.7 5.8,-7.2 7.3,-8.9 7.3,-8.9 5,-8.6 5,-9.5 7.3,-9.3 7.3,-9.3 5.8,-11 6.8,-11.5 7.7,-9.6
						7.7,-9.6 8.7,-11.5 					"/>
					<polygon id="Shape_3_" class="st5" points="15.8,-11 14.4,-9.3 14.4,-9.3 16.7,-9.5 16.7,-8.6 14.4,-8.9 14.4,-8.9 15.8,-7.3
						14.9,-6.8 13.9,-8.6 13.9,-8.6 13,-6.7 12.1,-7.2 13.6,-8.9 13.6,-8.9 11.3,-8.6 11.3,-9.5 13.6,-9.3 13.6,-9.3 12.1,-11
						13.1,-11.5 14,-9.6 14,-9.6 15,-11.5 					"/>
					<polygon id="Shape_2_" class="st5" points="22.2,-11 20.7,-9.3 20.7,-9.3 23,-9.5 23,-8.6 20.7,-8.8 20.7,-8.8 22.1,-7.2
						21.2,-6.7 20.2,-8.5 20.2,-8.5 19.3,-6.6 18.4,-7.1 19.9,-8.8 19.9,-8.8 17.6,-8.5 17.6,-9.5 19.9,-9.3 19.9,-9.3 18.4,-11
						19.4,-11.5 20.3,-9.6 20.3,-9.6 21.3,-11.5 					"/>
				</g>
				<path id="Shape_1_" class="st5" d="M52.7,36.1h-1.3c-0.1-0.1-0.2-0.1-0.2-0.3c0-0.1,0-0.2,0.1-0.3l0.8-1.3l0.8-1.4
					c0-0.2,0.2-0.4,0.4-0.4s0.4,0.2,0.4,0.4l1.7,2.7c0.2,0.1,0.2,0.3,0.1,0.5c-0.1,0.2-0.3,0.2-0.5,0.1h-1V37
					c-0.1,0.8-0.4,1.6-0.9,2.3c-0.9,1.3-2.4,2.1-3.9,2.3c-1.6,0.2-3.2-0.2-4.4-1.2c-1.1-0.9-1.8-2.1-2-3.5c-0.3-1.8,0.4-3.7,1.8-5
					c0.9-0.8,2-1.3,3.2-1.5c1-0.1,2,0.1,2.9,0.5l0.9,0.5c0.1,0,0.2,0.1,0.2,0.2s0,0.2,0,0.3l-0.3,0.5c-0.1,0.1-0.2,0.2-0.3,0.2
					s-0.2,0-0.3-0.1c-0.5-0.4-1.1-0.6-1.7-0.7c-1.2-0.2-2.4,0.1-3.4,0.8c-1,0.7-1.6,1.8-1.7,2.9c-0.2,1.8,0.8,3.5,2.5,4.2
					c1.3,0.7,2.9,0.6,4.1-0.2c1.2-0.7,1.9-1.8,2.1-3.1L52.7,36.1L52.7,36.1z"/>
			</g>
			<g id="img-nodata-copy-2_1_">
				<path id="Rectangle-path_2_" class="st9" d="M1,9.5h59c0.5,0,1,0.4,1,1v40.1c0,0.5-0.4,1-1,1H1c-0.5,0-1-0.4-1-1V10.5
					C0,9.9,0.4,9.5,1,9.5z"/>
				<path id="Rectangle-path_1_" class="st6" d="M7.8,22.2h44.9c0.2,0,0.3,0.2,0.3,0.3V38c0,0.2-0.2,0.3-0.3,0.3H7.8
					c-0.2,0-0.3-0.2-0.3-0.3V22.6C7.4,22.4,7.6,22.2,7.8,22.2z"/>
				<g id="Group_2_" transform="translate(23.000000, 36.000000)">
					<polygon id="Shape_20_" class="st5" points="-6.5,-7.9 -8,-6.2 -8,-6.2 -5.7,-6.5 -5.7,-5.6 -8,-5.8 -8,-5.8 -6.5,-4.2
						-7.5,-3.7 -8.4,-5.6 -8.4,-5.6 -9.4,-3.6 -10.3,-4.1 -8.8,-5.8 -8.8,-5.8 -11.1,-5.6 -11.1,-6.5 -8.8,-6.2 -8.8,-6.2
						-10.3,-7.9 -9.3,-8.4 -8.3,-6.6 -8.3,-6.6 -7.4,-8.5 					"/>
					<polygon id="Shape_19_" class="st5" points="-0.1,-7.9 -1.6,-6.2 -1.6,-6.2 0.7,-6.5 0.7,-5.6 -1.6,-5.8 -1.6,-5.8 -0.1,-4.1
						-1.1,-3.6 -2,-5.5 -2,-5.5 -3,-3.6 -4,-4.1 -2.5,-5.8 -2.5,-5.8 -4.8,-5.6 -4.8,-6.5 -2.5,-6.2 -2.5,-6.2 -4,-7.9 -3,-8.4
						-2,-6.6 -2,-6.6 -1.1,-8.5 					"/>
					<polygon id="Shape_18_" class="st5" points="6.2,-7.9 4.7,-6.2 4.7,-6.2 7,-6.5 7,-5.6 4.7,-5.8 4.7,-5.8 6.2,-4.2 5.2,-3.7
						4.3,-5.6 4.3,-5.6 3.3,-3.6 2.4,-4.1 3.9,-5.8 3.9,-5.8 1.6,-5.6 1.6,-6.5 3.9,-6.2 3.9,-6.2 2.4,-7.9 3.4,-8.4 4.4,-6.6
						4.4,-6.6 5.3,-8.5 					"/>
					<polygon id="Shape_17_" class="st5" points="12.6,-7.9 11.1,-6.2 11.1,-6.2 13.4,-6.5 13.4,-5.6 11.1,-5.8 11.1,-5.8
						12.6,-4.2 11.6,-3.7 10.7,-5.6 10.7,-5.6 9.7,-3.6 8.8,-4.1 10.3,-5.8 10.3,-5.8 8,-5.6 8,-6.5 10.3,-6.2 10.3,-6.2 8.8,-7.9
						9.8,-8.4 10.8,-6.6 10.8,-6.6 11.7,-8.5 					"/>
					<polygon id="Shape_16_" class="st5" points="18.9,-7.9 17.4,-6.2 17.4,-6.2 19.7,-6.5 19.7,-5.6 17.4,-5.8 17.4,-5.8
						18.9,-4.2 17.9,-3.7 17,-5.6 17,-5.6 16,-3.6 15.1,-4.1 16.6,-5.8 16.6,-5.8 14.3,-5.6 14.3,-6.5 16.6,-6.2 16.6,-6.2
						15.1,-7.9 16.1,-8.4 17.1,-6.6 17.1,-6.6 18,-8.5 					"/>
					<polygon id="Shape_15_" class="st5" points="25.3,-7.9 23.7,-6.2 23.7,-6.2 26,-6.5 26,-5.6 23.7,-5.7 23.7,-5.7 25.2,-4.1
						24.2,-3.6 23.3,-5.5 23.3,-5.5 22.3,-3.6 21.4,-4.1 22.9,-5.7 22.9,-5.7 20.6,-5.5 20.6,-6.5 22.9,-6.2 22.9,-6.2 21.4,-7.9
						22.4,-8.4 23.4,-6.6 23.4,-6.6 24.3,-8.5 					"/>
				</g>
				<path id="Shape_14_" class="st5" d="M55.7,39.2h-1.3c-0.1-0.1-0.2-0.1-0.2-0.3s0-0.2,0.1-0.3l0.8-1.3l0.8-1.4
					c0-0.2,0.2-0.4,0.4-0.4s0.4,0.2,0.4,0.4l1.7,2.7c0.2,0.1,0.2,0.3,0.1,0.5c-0.1,0.2-0.3,0.2-0.5,0.1h-1V40
					c-0.1,0.8-0.4,1.6-0.9,2.3c-0.9,1.3-2.4,2.1-3.9,2.3c-1.6,0.2-3.2-0.2-4.4-1.2c-1.1-0.9-1.8-2.1-2-3.5c-0.3-1.8,0.4-3.7,1.8-5
					c0.9-0.8,2-1.3,3.2-1.5c1-0.1,2,0.1,2.9,0.5l0.9,0.5c0.1,0,0.2,0.1,0.2,0.2c0,0.1,0,0.2,0,0.3l-0.3,0.5
					c-0.1,0.1-0.2,0.2-0.3,0.2s-0.2,0-0.3-0.1c-0.5-0.4-1.1-0.6-1.7-0.7c-1.2-0.2-2.4,0.1-3.4,0.8s-1.6,1.8-1.7,2.9
					c-0.2,1.8,0.8,3.5,2.5,4.2c1.3,0.7,2.9,0.6,4.1-0.2c1.2-0.7,1.9-1.8,2.1-3.1L55.7,39.2L55.7,39.2z"/>
			</g>
		</g>
	</g>
</g>
<g id="icon-newpass" class="st0">
	<g id="icon-newpass_3" transform="translate(6.000000, 6.000000)" class="st4">
		<path id="Rectangle-path_7_" class="st5" d="M-2,6.4h59c0.5,0,1,0.4,1,1v40.1c0,0.5-0.4,1-1,1H-2c-0.5,0-1-0.4-1-1V7.4
			C-3,6.9-2.6,6.4-2,6.4z"/>
		<path id="Rectangle-path_6_" class="st6" d="M4.8,19.2h44.9c0.2,0,0.3,0.2,0.3,0.3V35c0,0.2-0.2,0.3-0.3,0.3H4.8
			c-0.2,0-0.3-0.2-0.3-0.3V19.5C4.4,19.3,4.6,19.2,4.8,19.2z"/>
		<g id="Group_3_" transform="translate(23.000000, 36.000000)">
			<polygon id="Shape_27_" class="st5" points="-9.6,-11 -11,-9.3 -11,-9.3 -8.7,-9.5 -8.7,-8.6 -11,-8.9 -11,-8.9 -9.6,-7.3
				-10.5,-6.8 -11.5,-8.6 -11.5,-8.6 -12.4,-6.7 -13.3,-7.2 -11.8,-8.9 -11.8,-8.9 -14.1,-8.6 -14.1,-9.5 -11.8,-9.3 -11.8,-9.3
				-13.3,-11 -12.3,-11.5 -11.4,-9.6 -11.4,-9.6 -10.4,-11.5 			"/>
			<polygon id="Shape_26_" class="st5" points="-3.2,-11 -4.6,-9.3 -4.6,-9.3 -2.3,-9.5 -2.3,-8.6 -4.6,-8.9 -4.6,-8.9 -3.2,-7.2
				-4.1,-6.7 -5.1,-8.5 -5.1,-8.5 -6,-6.6 -7,-7.2 -5.5,-8.9 -5.5,-8.9 -7.8,-8.6 -7.8,-9.5 -5.5,-9.3 -5.5,-9.3 -7,-11 -6,-11.5
				-5.1,-9.6 -5.1,-9.6 -4.1,-11.5 			"/>
			<polygon id="Shape_25_" class="st5" points="3.1,-11 1.7,-9.3 1.7,-9.3 4,-9.5 4,-8.6 1.7,-8.9 1.7,-8.9 3.1,-7.3 2.2,-6.8
				1.2,-8.6 1.2,-8.6 0.3,-6.7 -0.6,-7.2 0.9,-8.9 0.9,-8.9 -1.4,-8.6 -1.4,-9.5 0.9,-9.3 0.9,-9.3 -0.6,-11 0.4,-11.5 1.3,-9.6
				1.3,-9.6 2.3,-11.5 			"/>
			<polygon id="Shape_24_" class="st5" points="9.5,-11 8.1,-9.3 8.1,-9.3 10.4,-9.5 10.4,-8.6 8.1,-8.9 8.1,-8.9 9.5,-7.3
				8.6,-6.8 7.6,-8.6 7.6,-8.6 6.7,-6.7 5.8,-7.2 7.3,-8.9 7.3,-8.9 5,-8.6 5,-9.5 7.3,-9.3 7.3,-9.3 5.8,-11 6.8,-11.5 7.7,-9.6
				7.7,-9.6 8.7,-11.5 			"/>
			<polygon id="Shape_23_" class="st5" points="15.8,-11 14.4,-9.3 14.4,-9.3 16.7,-9.5 16.7,-8.6 14.4,-8.9 14.4,-8.9 15.8,-7.3
				14.9,-6.8 13.9,-8.6 13.9,-8.6 13,-6.7 12.1,-7.2 13.6,-8.9 13.6,-8.9 11.3,-8.6 11.3,-9.5 13.6,-9.3 13.6,-9.3 12.1,-11
				13.1,-11.5 14,-9.6 14,-9.6 15,-11.5 			"/>
			<polygon id="Shape_22_" class="st5" points="22.2,-11 20.7,-9.3 20.7,-9.3 23,-9.5 23,-8.6 20.7,-8.8 20.7,-8.8 22.1,-7.2
				21.2,-6.7 20.2,-8.5 20.2,-8.5 19.3,-6.6 18.4,-7.1 19.9,-8.8 19.9,-8.8 17.6,-8.5 17.6,-9.5 19.9,-9.3 19.9,-9.3 18.4,-11
				19.4,-11.5 20.3,-9.6 20.3,-9.6 21.3,-11.5 			"/>
		</g>
		<path id="Shape_21_" class="st5" d="M52.7,36.1h-1.3c-0.1-0.1-0.2-0.1-0.2-0.3c0-0.1,0-0.2,0.1-0.3l0.8-1.3l0.8-1.4
			c0-0.2,0.2-0.4,0.4-0.4s0.4,0.2,0.4,0.4l1.7,2.7c0.2,0.1,0.2,0.3,0.1,0.5c-0.1,0.2-0.3,0.2-0.5,0.1h-1V37
			c-0.1,0.8-0.4,1.6-0.9,2.3c-0.9,1.3-2.4,2.1-3.9,2.3c-1.6,0.2-3.2-0.2-4.4-1.2c-1.1-0.9-1.8-2.1-2-3.5c-0.3-1.8,0.4-3.7,1.8-5
			c0.9-0.8,2-1.3,3.2-1.5c1-0.1,2,0.1,2.9,0.5l0.9,0.5c0.1,0,0.2,0.1,0.2,0.2s0,0.2,0,0.3l-0.3,0.5c-0.1,0.1-0.2,0.2-0.3,0.2
			s-0.2,0-0.3-0.1c-0.5-0.4-1.1-0.6-1.7-0.7c-1.2-0.2-2.4,0.1-3.4,0.8s-1.6,1.8-1.7,2.9c-0.2,1.8,0.8,3.5,2.5,4.2
			c1.3,0.7,2.9,0.6,4.1-0.2c1.2-0.7,1.9-1.8,2.1-3.1L52.7,36.1L52.7,36.1z"/>
	</g>
	<path id="icon-newpass_2" class="st1" d="M1,9.5h59c0.5,0,1,0.4,1,1v40.1c0,0.5-0.4,1-1,1H1c-0.5,0-1-0.4-1-1V10.5
		C0,9.9,0.4,9.5,1,9.5z"/>
	<g id="icon-newpass_1" class="st4">
		<path id="Rectangle-path_4_" class="st6" d="M7.9,22.3h44.9c0.2,0,0.3,0.2,0.3,0.3V38c0,0.2-0.2,0.3-0.3,0.3H7.9
			c-0.2,0-0.3-0.2-0.3-0.3V22.7C7.5,22.5,7.7,22.3,7.9,22.3z"/>
		<path class="st5" d="M33.4,29.4c0.4,0,0.8-0.1,1.1,0c0.2,0,0.5,0.3,0.5,0.5c0,1.6,0,3.1,0,4.7c0,0.2-0.3,0.5-0.5,0.5
			c-2.3,0-4.7,0-7,0c-0.4,0-0.5-0.2-0.5-0.5c0-1.5,0-3.1,0-4.6c0-0.4,0.2-0.5,0.5-0.5c0.3,0,0.7,0,1.1,0c0-0.6,0-1.1,0-1.6
			c0-1.4,1.1-2.4,2.4-2.4c1.3,0,2.4,1,2.4,2.4C33.4,28.3,33.4,28.8,33.4,29.4z M32.6,29.4c0-0.6,0-1.2,0-1.7
			c-0.1-0.8-0.7-1.4-1.5-1.5c-0.8,0-1.5,0.5-1.6,1.3c-0.1,0.6,0,1.2,0,1.9C30.5,29.4,31.5,29.4,32.6,29.4z"/>
		<polygon id="Shape_28_" class="st5" points="15.8,28.4 14.3,30.1 14.3,30.1 16.6,29.8 16.6,30.7 14.3,30.5 14.3,30.5 15.8,32.1
			14.8,32.6 13.9,30.7 13.9,30.7 12.9,32.7 12,32.2 13.5,30.5 13.5,30.5 11.2,30.7 11.2,29.8 13.5,30.1 13.5,30.1 12,28.4 13,27.9
			14,29.7 14,29.7 14.9,27.8 		"/>
		<polygon id="Shape_43_" class="st5" points="22.8,28.4 21.3,30.1 21.3,30.1 23.6,29.8 23.6,30.7 21.3,30.5 21.3,30.5 22.8,32.1
			21.8,32.6 20.9,30.7 20.9,30.7 19.9,32.7 19,32.2 20.5,30.5 20.5,30.5 18.2,30.7 18.2,29.8 20.5,30.1 20.5,30.1 19,28.4 20,27.9
			21,29.7 21,29.7 21.9,27.8 		"/>
		<polygon id="Shape_45_" class="st5" points="42,28.4 40.5,30.1 40.5,30.1 42.8,29.8 42.8,30.7 40.5,30.5 40.5,30.5 42,32.1
			41,32.6 40.1,30.7 40.1,30.7 39.1,32.7 38.2,32.2 39.7,30.5 39.7,30.5 37.4,30.7 37.4,29.8 39.7,30.1 39.7,30.1 38.2,28.4
			39.2,27.9 40.2,29.7 40.2,29.7 41.1,27.8 		"/>
		<polygon id="Shape_44_" class="st5" points="49,28.4 47.5,30.1 47.5,30.1 49.8,29.8 49.8,30.7 47.5,30.5 47.5,30.5 49,32.1
			48,32.6 47.1,30.7 47.1,30.7 46.1,32.7 45.2,32.2 46.7,30.5 46.7,30.5 44.4,30.7 44.4,29.8 46.7,30.1 46.7,30.1 45.2,28.4
			46.2,27.9 47.2,29.7 47.2,29.7 48.1,27.8 		"/>
	</g>
</g>
<g id="icon-successful" class="st0">
	<path class="st13" d="M6.3,27.4L30,12.7c1.3-0.8,2.9-0.8,4.2,0l23.7,14.9c0.4,0.2,0.4,0.7,0.1,1.1L32.6,55.8L6.1,28.4
		C5.8,28,5.9,27.5,6.3,27.4z"/>
	<path class="st14" d="M53.9,47.7H10.6c-0.7,0-1.3-0.6-1.3-1.3V20.1c0-0.7,0.6-1.3,1.3-1.3h43.3c0.7,0,1.3,0.6,1.3,1.3v26.2
		C55.2,47,54.6,47.7,53.9,47.7z"/>
	<path class="st15" d="M5.8,60.7L5.8,60.7c0,1.7,1.4,3,3,3l45.7,0.1c1.7,0,3.1-1.4,3-3.1l0,0L34.2,44c-1.3-1-3.1-1-4.4,0L5.8,60.7z"
		/>
	<polygon class="st15" points="39,47.5 58.2,28.1 57.5,60.7 	"/>
	<polygon class="st15" points="5.8,60.7 5.9,28 25,47.2 	"/>
	<polygon class="st16" points="39.1,47.5 41.2,45.3 57.5,60.2 	"/>
	<polygon class="st16" points="25,47.2 23.1,45.2 5.9,60.2 	"/>
	<path class="st15" d="M39.8,25.8c-0.5-0.4-1.3-0.3-1.6,0.2l-7.4,9.8l-3.6-3.9c-0.4-0.5-1.2-0.5-1.7-0.1s-0.5,1.2-0.1,1.7l4.5,4.9
		c0.1,0.1,0.2,0.2,0.4,0.3c0.5,0.3,1.1,0.1,1.5-0.3L40,27.4C40.4,26.9,40.4,26,39.8,25.8z"/>
	<path class="st14" d="M32.7,4.6L32.7,4.6c-0.3,0-0.5-0.2-0.5-0.5V0.8c0-0.3,0.2-0.5,0.5-0.5l0,0c0.3,0,0.5,0.2,0.5,0.5v3.2
		C33.2,4.2,33,4.6,32.7,4.6z"/>
	<path class="st14" d="M39.1,9.1L39.1,9.1c-0.3-0.1-0.4-0.5-0.2-0.7l1.6-2.8c0.1-0.3,0.5-0.4,0.7-0.2l0,0c0.3,0.1,0.4,0.5,0.2,0.7
		l-1.6,2.7C39.7,9.1,39.3,9.1,39.1,9.1z"/>
	<path class="st14" d="M25.3,8.8L25.3,8.8c0.3-0.1,0.4-0.5,0.2-0.7l-1.6-2.8c-0.1-0.3-0.5-0.4-0.7-0.2l0,0c-0.3,0.1-0.4,0.5-0.2,0.7
		l1.6,2.8C24.7,8.8,25,8.9,25.3,8.8z"/>
	<path class="st14" d="M44.6,14.6L44.6,14.6c-0.1-0.3,0-0.6,0.3-0.7l3-1.3c0.3-0.1,0.6,0,0.7,0.3l0,0c0.1,0.3,0,0.6-0.3,0.7l-3,1.3
		C45.1,15.1,44.7,14.9,44.6,14.6z"/>
	<path class="st14" d="M15.6,13.1L15.6,13.1c0.1-0.3,0.4-0.4,0.7-0.3l3,1.3c0.3,0.1,0.4,0.4,0.3,0.7l0,0c-0.1,0.3-0.4,0.4-0.7,0.3
		l-3-1.3C15.6,13.6,15.4,13.4,15.6,13.1z"/>
</g>
<g id="icon-error_1_" class="st0">
	<rect id="icon-error_4" x="3.5" y="7" class="st9" width="59.1" height="42.1"/>
	<g id="icon-error_3">
		<rect y="10.9" class="st6" width="59.1" height="42.1"/>
		<line class="st8" x1="0.2" y1="15.5" x2="59" y2="15.5"/>
		<g>
			<ellipse class="st9" cx="2.4" cy="13.2" rx="0.9" ry="0.9"/>
			<ellipse class="st9" cx="4.8" cy="13.2" rx="0.9" ry="0.9"/>
			<ellipse class="st9" cx="7.3" cy="13.2" rx="0.9" ry="0.9"/>
		</g>
	</g>
	<g id="icon-error_2">
		<rect x="7.1" y="21" class="st17" width="17.8" height="22.9"/>
		<rect x="30.2" y="20.9" class="st17" width="18.5" height="4.7"/>
		<rect x="30.2" y="29.8" class="st17" width="18.5" height="4.7"/>
		<rect x="30.2" y="39" class="st17" width="18.5" height="4.7"/>
	</g>
	<g id="icon-error_1">
		<circle class="st5" cx="54.1" cy="47.1" r="9.9"/>
		<g>
			<path class="st18" d="M49.9,50l7-7c0.4-0.4,0.9-0.4,1.3,0l0,0c0.4,0.4,0.4,0.9,0,1.3l-7,7c-0.4,0.4-0.9,0.4-1.3,0l0,0
				C49.6,50.9,49.6,50.4,49.9,50z"/>
			<path class="st18" d="M51.3,43l7,7c0.4,0.4,0.4,0.9,0,1.3l0,0c-0.4,0.4-0.9,0.4-1.3,0l-7-7c-0.4-0.4-0.4-0.9,0-1.3l0,0
				C50.3,42.6,50.9,42.6,51.3,43z"/>
		</g>
	</g>
</g>
<g id="icon-programs" class="st0">
	<rect id="no_x5F_program3" x="3.6" y="7" class="st9" width="60.4" height="43"/>
	<g id="no_x5F_program2">
		<rect y="11" class="st6" width="60.4" height="43"/>
		<line class="st8" x1="0.2" y1="15.7" x2="60.3" y2="15.7"/>
		<g>
			<ellipse class="st9" cx="2.4" cy="13.4" rx="0.9" ry="0.9"/>
			<ellipse class="st9" cx="4.9" cy="13.4" rx="0.9" ry="0.9"/>
			<ellipse class="st9" cx="7.4" cy="13.4" rx="0.9" ry="0.9"/>
		</g>
	</g>
	<g id="no_x5F_program1">
		<g>
			<polyline class="st19" points="54.7,47.3 54.7,47.8 54.2,47.8 			"/>
			<line class="st20" x1="53.2" y1="47.8" x2="6" y2="47.8"/>
			<polyline class="st19" points="5.5,47.8 5,47.8 5,47.3 			"/>
			<line class="st21" x1="5" y1="46.4" x2="5" y2="23.4"/>
			<polyline class="st19" points="5,23 5,22.5 5.5,22.5 			"/>
			<line class="st20" x1="6.5" y1="22.5" x2="53.7" y2="22.5"/>
			<polyline class="st19" points="54.2,22.5 54.7,22.5 54.7,23 			"/>
			<line class="st21" x1="54.7" y1="23.9" x2="54.7" y2="46.8"/>
		</g>
	</g>
</g>
</svg>
