<svg width="113" height="113" viewBox="0 0 113 113" fill="none" xmlns="http://www.w3.org/2000/svg">
<rect width="113" height="113" rx="56.5" fill="url(#paint0_linear_2513_27566)" fill-opacity="0.2"/>
<path d="M47.5658 57.0323C47.5658 57.0693 47.5441 57.0935 47.5172 57.1038C47.5606 57.8966 46.4409 58.152 45.7757 58.0396C35.2373 58.092 24.6503 58.1341 14.1348 58.0473C13.453 58.1379 12.3767 57.8647 12.4546 57.068C12.4444 51.1668 12.4009 45.2515 12.4648 39.3515C12.3154 38.4987 13.4415 38.2076 14.1425 38.3046C23.4667 38.228 32.8344 38.3046 42.1714 38.2957C43.3537 38.2969 44.5449 38.2688 45.7272 38.3212C46.4052 38.1807 47.6334 38.4514 47.5109 39.3209C47.6883 45.1698 47.5185 51.1438 47.5658 57.0323Z" fill="white"/>
<path d="M24.8316 51.9792C24.8354 52.0239 24.8176 52.0737 24.7601 52.0737H16.3028C16.253 52.075 16.2211 52.0252 16.23 51.9792C16.5377 50.0564 18.1298 48.509 20.059 48.3085C17.7787 47.7953 18.1528 44.4629 20.4766 44.4323C22.7862 44.4999 23.1488 47.7008 20.9579 48.3124C22.9088 48.523 24.515 50.0054 24.8316 51.9792Z" fill="#02B676"/>
<path d="M20.9605 48.3124C23.1527 47.7008 22.7876 44.4999 20.4792 44.4323C18.1554 44.4629 17.7813 47.7953 20.0616 48.3085C18.1324 48.509 16.5403 50.0564 16.2326 51.9792C16.225 52.0252 16.2556 52.075 16.3054 52.0737H24.7627C24.8189 52.0737 24.838 52.0239 24.8342 51.9792C24.5176 50.0054 22.9114 48.523 20.9605 48.3124ZM18.661 46.3972C18.744 44.0135 22.199 43.9918 22.2986 46.3985C22.1836 48.7886 18.767 48.7988 18.661 46.3972ZM16.3948 51.9243C17.277 47.3254 23.7988 47.3165 24.6721 51.9243H16.3948Z" fill="black"/>
<path d="M43.6966 52.7531C38.4452 52.785 33.1518 52.6995 27.9042 52.7786C27.834 52.7863 27.834 52.8795 27.9042 52.8884C32.959 52.965 38.3074 52.8833 43.3621 52.9127C43.4719 52.9139 43.5855 52.9114 43.6966 52.9127C43.8 52.9127 43.8 52.7531 43.6966 52.7531Z" fill="black"/>
<path d="M47.5581 39.3898C47.5581 39.3528 47.5364 39.3298 47.5109 39.3209C47.6334 38.4514 46.4052 38.1807 45.7272 38.3212C44.5449 38.2688 43.3537 38.2969 42.1714 38.2957C32.8344 38.3046 23.4667 38.228 14.1425 38.3046C13.4415 38.2076 12.3154 38.4987 12.4648 39.3515C12.4009 45.2515 12.4444 51.1668 12.4546 57.068C12.3767 57.8647 13.453 58.1379 14.1348 58.0473C24.6503 58.1341 35.2373 58.092 45.7757 58.0396C46.4409 58.152 47.5606 57.8966 47.5172 57.1038C47.6577 51.2523 47.5504 45.2809 47.5581 39.3898ZM47.4011 56.8893C47.3078 58.0166 46.552 57.806 45.7106 57.9592C35.1964 57.8954 24.6656 57.9081 14.1552 57.9324C13.4836 57.8558 12.6461 57.9107 12.6078 57.045C12.6091 51.1515 12.655 45.2477 12.595 39.3554C12.6218 38.4565 13.4479 38.4731 14.1425 38.4208C25.018 38.6302 35.9918 38.1578 46.8482 38.5663C47.3461 38.7361 47.281 39.0643 47.4036 39.4703C47.3781 45.2732 47.3959 51.0851 47.4011 56.8893Z" fill="black"/>
<path d="M43.6982 49.3773C38.4443 49.4067 33.1572 49.3237 27.9058 49.4016C27.6607 49.5612 28.3208 49.5305 28.4012 49.5459C33.3794 49.5229 38.3868 49.5395 43.3637 49.5356C43.365 49.5356 43.6982 49.5356 43.6982 49.5356C43.8016 49.5356 43.8016 49.3773 43.6982 49.3773Z" fill="black"/>
<path d="M43.7703 42.8559C43.7601 42.8278 43.7359 42.8061 43.6976 42.8061C41.8067 42.8061 39.8136 42.8061 37.8193 42.8061C35.3641 42.7984 32.8974 42.7895 30.4664 42.8048C29.611 42.7908 28.7542 42.7716 27.9052 42.8303C27.8694 42.8354 27.8516 42.861 27.8516 42.8852C27.8516 42.898 27.8567 42.9108 27.8656 42.921C27.8745 42.9312 27.8873 42.9376 27.9052 42.9401C29.8484 42.9695 31.7981 42.9759 33.749 42.9733C36.3268 42.9721 38.9071 42.9567 41.4811 42.9593C42.1093 42.9593 42.7362 42.9618 43.363 42.9657C43.363 42.9657 43.6082 42.9657 43.6784 42.9657C43.6848 42.9657 43.6912 42.9657 43.6976 42.9657C43.7486 42.9657 43.7754 42.9248 43.7754 42.8852C43.7754 42.875 43.7729 42.8661 43.7703 42.8559Z" fill="black"/>
<path d="M43.6966 46.1862C38.7121 46.2168 32.9041 46.1313 27.9042 46.2104C27.834 46.2194 27.834 46.3126 27.9042 46.319C33.0407 46.3969 38.2218 46.3151 43.3621 46.3445C43.3634 46.3445 43.6966 46.3445 43.6966 46.3445C43.8 46.3445 43.8 46.1862 43.6966 46.1862Z" fill="black"/>
<path d="M89.3198 45.4727C88.8066 47.7441 87.8835 49.8801 86.631 51.7927C86.6463 51.8336 86.6208 51.8808 86.5684 51.8872C82.4393 58.3426 74.1403 61.8218 66.5984 60.1632C66.5678 60.1811 66.5244 60.1722 66.5001 60.1428C58.8599 58.7039 52.6216 52.126 51.4036 44.5254C51.364 44.5011 51.3615 44.4564 51.387 44.4283C50.5865 39.9456 51.553 35.0543 53.9801 31.1895C53.9661 31.1486 53.9878 31.1014 54.0389 31.095C57.1159 26.0926 62.6519 22.556 68.594 22.0657C68.6208 22.0376 68.6528 22.0402 68.6783 22.0568C70.7658 21.8742 72.8712 22.0287 74.9026 22.5062C74.9332 22.4896 74.9766 22.5011 74.9996 22.5292C82.8122 24.2502 88.9279 31.3861 89.6569 39.251C89.7016 39.2778 89.7016 39.3315 89.6684 39.3608C89.8752 41.3807 89.768 43.4439 89.3198 45.4727Z" fill="#FEC801"/>
<path d="M89.6684 39.3608C89.7016 39.3315 89.7016 39.2778 89.6569 39.251C88.9279 31.3861 82.8122 24.2502 74.9996 22.5292C74.9766 22.5011 74.9332 22.4896 74.9026 22.5062C72.8712 22.0287 70.7658 21.8742 68.6783 22.0568C68.6528 22.0402 68.6208 22.0376 68.594 22.0657C62.6519 22.556 57.1159 26.0926 54.0389 31.095C53.9878 31.1014 53.9661 31.1486 53.9801 31.1895C51.553 35.0543 50.5865 39.9456 51.387 44.4283C51.3615 44.4564 51.364 44.5011 51.4036 44.5254C52.6216 52.126 58.8599 58.7039 66.5001 60.1428C66.5244 60.1709 66.5678 60.1811 66.5984 60.1632C74.1403 61.8218 82.4393 58.3426 86.5684 51.8872C86.6208 51.8808 86.6463 51.8336 86.631 51.7927C89.0224 48.205 90.1434 43.6457 89.6684 39.3608ZM89.0849 45.8136C86.4675 45.2314 83.8514 44.6492 81.2341 44.067C81.898 40.9134 82.1891 37.6665 82.0652 34.4389C84.7235 35.7859 87.2425 37.424 89.5241 39.3353C89.7412 41.4866 89.6071 43.6916 89.0849 45.8136ZM60.3793 39.5766C63.773 40.3324 67.1666 41.0883 70.559 41.8429C69.7878 45.2914 69.0192 48.7413 68.2468 52.1898C65.0472 51.5246 61.9293 50.4649 58.98 49.0541C58.9148 45.8455 59.2276 42.614 59.9477 39.4808C60.092 39.5128 60.235 39.546 60.3793 39.5766ZM59.9809 39.3353C60.6857 36.1191 61.951 33.051 63.3248 30.0838C66.5563 30.0302 69.8095 30.366 72.958 31.1091C72.1677 34.638 71.38 38.1683 70.5909 41.6973C67.0543 40.9095 63.5176 40.1218 59.9809 39.3353ZM68.5787 51.3957C69.2873 48.2229 69.9959 45.0501 70.7058 41.8761C74.1608 42.6447 77.6157 43.4146 81.0719 44.1832C80.422 47.2104 79.4236 50.1597 78.0958 52.9572C74.8553 53.104 71.5766 52.8729 68.3949 52.2205C68.4561 51.946 68.5162 51.6702 68.5787 51.3957ZM70.7377 41.7292C71.5268 38.2015 72.3145 34.6725 73.1023 31.1435C76.1691 31.8751 79.1504 32.9706 81.9644 34.3878C81.898 34.375 81.935 35.1143 81.9363 35.1883C81.9886 38.1556 81.7167 41.133 81.1026 44.0376C77.6476 43.269 74.1927 42.4991 70.7377 41.7292ZM86.1956 30.3264C88.0316 32.9476 89.1475 35.9876 89.5024 39.1233C87.2042 37.2158 84.6852 35.579 82.0154 34.2384C81.9746 31.1589 81.4677 28.0371 80.6314 25.0661C82.7968 26.4182 84.7043 28.1955 86.1956 30.3264ZM74.9958 22.6734C76.925 23.1522 78.775 23.9298 80.4706 24.9665C81.3005 27.9656 81.7652 31.0695 81.9031 34.1835C79.1146 32.7931 76.164 31.7257 73.1342 31.0069C73.7547 28.2287 74.3753 25.4504 74.9958 22.6734ZM68.6834 22.1883C70.7671 21.9942 72.8495 22.1576 74.8502 22.6377C74.2297 25.4159 73.6092 28.1942 72.9887 30.9724C69.8683 30.2421 66.661 29.8808 63.4589 29.9255C64.8952 27.1613 66.6278 24.5337 68.6834 22.1883ZM67.7705 22.2968C68.0029 22.2636 68.234 22.2342 68.4676 22.21C66.5065 24.5337 64.608 27.174 63.3503 29.9268C60.2772 29.974 57.2116 30.3685 54.2138 31.0554C57.195 26.3697 62.1961 23.0986 67.7705 22.2968ZM52.4416 34.6444C52.8783 33.4443 53.4375 32.3041 54.1014 31.2342C57.0929 30.5383 60.1444 30.1425 63.2061 30.0864C61.7199 33.0153 60.5861 36.1102 59.8418 39.3046C57.1095 38.6956 54.3759 38.0879 51.6436 37.4789C51.839 36.5162 52.1045 35.5675 52.4416 34.6444ZM51.6155 37.6257C54.3453 38.2334 57.0763 38.8425 59.8086 39.4489C59.0859 42.5693 58.7642 45.7817 58.8255 48.98C56.2375 47.7275 53.7771 46.1967 51.516 44.4245C51.1368 42.1735 51.1802 39.8626 51.6155 37.6257ZM56.2553 54.1611C53.8295 51.5093 52.1965 48.1705 51.5543 44.6415C53.8154 46.3971 56.2579 47.9037 58.8293 49.1409C58.8906 51.8361 59.2111 54.5314 59.7767 57.1692C58.4948 56.3189 57.3087 55.3115 56.2553 54.1611ZM66.504 59.9922C64.1828 59.4968 61.9561 58.5788 59.9554 57.2841C59.3821 54.6272 59.0502 51.9242 58.9851 49.2149C61.9242 50.6143 65.028 51.6612 68.2174 52.3239C67.6467 54.88 67.076 57.4348 66.504 59.9922ZM66.6508 60.0228C67.2228 57.4667 67.7935 54.9093 68.3642 52.3532C71.5293 53.0006 74.7877 53.2636 78.0192 53.118C76.8279 55.5975 75.3928 57.9583 73.7292 60.1454C71.3685 60.5527 68.9656 60.4978 66.6508 60.0228ZM84.2332 54.594C81.483 57.4373 77.8327 59.3831 73.9437 60.1071C75.5933 57.9225 77.0105 55.5758 78.18 53.1129C80.943 52.9827 83.6918 52.5716 86.3833 51.9306C85.75 52.8767 85.0312 53.7692 84.2332 54.594ZM86.5033 51.7493C83.7953 52.4043 81.0336 52.8154 78.2566 52.9508C79.5666 50.161 80.5561 47.2257 81.2021 44.2126C83.8182 44.796 86.4331 45.377 89.0479 45.9592C88.5219 48.0212 87.66 49.9772 86.5033 51.7493Z" fill="black"/>
<mask id="mask0_2513_27566" style="mask-type:luminance" maskUnits="userSpaceOnUse" x="14" y="61" width="37" height="41">
<path d="M14.9883 61.6849H50.9421V101.225H14.9883V61.6849Z" fill="white"/>
</mask>
<g mask="url(#mask0_2513_27566)">
<path d="M50.6273 77.8747C46.3961 89.93 35.6636 100.452 22.4452 101.224C18.1935 96.2883 15.6936 90.0244 15.317 83.4874C15.0386 77.1393 16.2184 70.4107 19.1217 64.7878C25.6818 66.5063 32.8636 64.9895 38.6665 61.8972C38.6678 61.8768 38.6742 61.8563 38.6908 61.8423C38.7087 61.8257 38.7393 61.8129 38.7623 61.818C40.6813 68.3117 44.8078 74.3074 50.6273 77.8747Z" fill="white"/>
</g>
<mask id="mask1_2513_27566" style="mask-type:luminance" maskUnits="userSpaceOnUse" x="15" y="61" width="34" height="41">
<path d="M15.6455 61.6849H48.004V101.225H15.6455V61.6849Z" fill="white"/>
</mask>
<g mask="url(#mask1_2513_27566)">
<path d="M47.7413 84.0972C44.4166 89.8925 39.6734 95.0238 33.6701 98.0881C30.1743 99.8628 26.3542 100.931 22.446 101.223C21.8701 100.592 21.3594 99.8896 20.8564 99.204C20.8615 99.1746 20.8679 99.1453 20.873 99.1146C21.3633 99.799 21.8944 100.478 22.4677 101.149C25.0378 94.9472 27.5671 88.8456 30.1155 82.703C25.2906 80.71 20.4593 78.7144 15.6484 76.7264C16.5549 69.7885 19.1034 64.8576 19.1034 64.8576C28.6804 67.3166 37.1658 62.8058 38.7414 61.8955V61.8942C38.7465 61.8929 38.7503 61.8904 38.7542 61.8878C38.8103 62.0806 38.9061 62.3909 38.8908 62.6373C38.8422 62.4713 38.7937 62.3053 38.7465 62.1393C35.8482 68.9573 33.07 75.8263 30.2126 82.6622C34.9992 84.6399 39.7845 86.6176 44.5711 88.5953C45.6806 87.1538 46.6893 85.6345 47.5945 84.0577C47.643 84.0679 47.6928 84.0819 47.7413 84.0972Z" fill="#F7562B"/>
</g>
<mask id="mask2_2513_27566" style="mask-type:luminance" maskUnits="userSpaceOnUse" x="14" y="61" width="37" height="41">
<path d="M14.9883 61.6849H50.6153V101.225H14.9883V61.6849Z" fill="white"/>
</mask>
<g mask="url(#mask2_2513_27566)">
<path d="M38.7631 61.818C38.7401 61.8129 38.7095 61.8257 38.6916 61.8423C38.675 61.8563 38.6686 61.8768 38.6673 61.8972C32.8325 65.0649 25.606 66.408 19.0383 64.8223C16.2894 70.5933 14.996 77.1061 15.3178 83.4874C15.6944 90.0244 18.1943 96.2883 22.446 101.226C31.2761 100.662 39.4015 95.7482 44.6541 88.7349C47.0838 85.4217 49.4765 81.7178 50.5937 77.7904C44.6822 74.3227 40.714 68.2364 38.7631 61.818ZM15.9038 75.5063C16.5013 71.8573 17.5572 68.2376 19.1659 64.9002C25.6239 66.6915 32.7955 65.1964 38.6175 62.0555C35.7257 68.8862 32.9334 75.7629 30.0747 82.609C25.2932 80.6338 20.5129 78.6586 15.7327 76.6835C15.7838 76.2902 15.8412 75.8983 15.9038 75.5063ZM15.7123 76.8354C20.4797 78.8067 25.2485 80.7755 30.0172 82.7469C27.493 88.8345 24.9701 94.9221 22.446 101.01C16.7452 94.4165 14.4981 85.3923 15.7123 76.8354ZM42.0584 91.5464C37.0126 96.9739 29.9993 100.516 22.5813 101.074C25.1055 94.9821 27.6309 88.8932 30.1551 82.803C34.9302 84.7756 39.7041 86.7495 44.4779 88.7196C43.717 89.7014 42.91 90.645 42.0584 91.5464ZM44.5711 88.5983C39.7845 86.6206 34.9979 84.6429 30.2126 82.6651C33.07 75.8293 35.8495 68.9603 38.7465 62.1423C40.5429 68.5172 44.8061 74.573 50.4698 77.8773C49.0998 81.7331 47.0493 85.3451 44.5711 88.5983Z" fill="black"/>
</g>
<mask id="mask3_2513_27566" style="mask-type:luminance" maskUnits="userSpaceOnUse" x="31" y="12" width="39" height="53">
<path d="M31.332 12.4309H69.247V64.6368H31.332V12.4309Z" fill="white"/>
</mask>
<g mask="url(#mask3_2513_27566)">
<path d="M68.9171 35.4602C69.1112 35.9441 69.0665 36.6399 68.5073 36.8519C68.5073 36.8595 68.5073 36.8672 68.506 36.8761C67.4297 37.3855 66.3534 37.752 65.1877 37.8682C64.728 37.9371 64.4101 37.2579 64.3437 36.8748C64.3361 36.8736 64.3297 36.8748 64.3233 36.8723C63.5534 34.7388 61.0931 24.757 59.7588 23.0704C55.0501 15.397 42.8914 17.0721 38.0512 23.7637C36.3135 26.2674 35.6138 29.7492 36.4859 32.7138C39.2603 42.7429 43.0102 53.4665 45.3901 63.1316C43.9677 63.5185 42.5633 64.0432 41.1282 64.356C40.5319 64.0279 32.0401 33.9613 31.8512 33.8068C30.5502 28.452 31.7593 22.3605 35.6074 18.3068C42.1752 11.1837 54.8803 10.0384 61.5731 17.5752C66.1669 22.3963 66.7581 29.4274 68.9171 35.4602Z" fill="#F7562B"/>
</g>
<path d="M64.3637 36.9969L64.3574 36.9769C64.3637 36.9982 64.365 37.002 64.3637 36.9969Z" fill="black"/>
<mask id="mask4_2513_27566" style="mask-type:luminance" maskUnits="userSpaceOnUse" x="31" y="12" width="39" height="53">
<path d="M31.332 12.4309H69.247V64.6368H31.332V12.4309Z" fill="white"/>
</mask>
<g mask="url(#mask4_2513_27566)">
<path d="M68.8987 35.4293C66.7691 29.3979 66.1511 22.3884 61.5726 17.575C54.8785 10.0395 42.1759 11.1822 35.6069 18.3079C31.7587 22.3603 30.5496 28.4531 31.8519 33.8066C32.0626 34.1653 40.5059 63.8388 41.1277 64.3559C42.5628 64.043 43.9672 63.5183 45.3895 63.1314C43.0084 53.4599 39.2623 42.7478 36.4853 32.7137C35.6133 29.749 36.313 26.2672 38.0507 23.7635C42.8896 17.0719 55.0509 15.3968 59.7583 23.0715C61.0747 24.7019 63.5695 34.7986 64.3228 36.8721C64.3291 36.8746 64.3355 36.8734 64.3432 36.8746C64.4083 37.2564 64.7288 37.9369 65.1871 37.868C66.3528 37.7518 67.4291 37.3866 68.5055 36.8759C68.5067 36.8683 68.5067 36.8593 68.5067 36.8517C69.0736 36.6372 69.1221 35.9094 68.8987 35.4293ZM61.0734 25.4041C60.2116 22.5557 57.8661 20.066 55.1913 18.8454C52.1577 17.4626 48.6849 17.658 45.5249 18.47C39.2023 20.3762 34.5868 25.9608 36.3206 32.7366C38.7771 41.2552 42.8028 54.3153 45.3372 62.9591C43.9353 63.4136 42.4721 63.7405 41.0996 64.2614C38.0928 54.1851 35.0068 44.1267 32.0792 34.0262C30.7948 29.2255 31.6515 23.7494 34.6289 19.7327C40.4561 11.9432 53.2072 9.86202 60.5078 16.7413C63.9959 19.7595 65.5421 24.2231 66.6401 28.559L68.6714 35.3693C67.41 36.1188 65.9634 36.6793 64.4747 36.7495C63.3473 32.9652 62.2161 29.1834 61.0734 25.4041ZM68.831 36.2478C68.7927 36.4316 68.6548 36.5772 68.5118 36.6895C68.5144 36.6716 68.5144 36.655 68.5157 36.6372C67.4815 37.1606 66.3682 37.5679 65.2076 37.725C64.7645 37.6931 64.6458 37.2155 64.4709 36.8861C65.9749 36.8351 67.4636 36.3448 68.7608 35.5494C68.8336 35.7741 68.877 36.0116 68.831 36.2478Z" fill="black"/>
</g>
<path d="M84.4504 79.2989L45.9072 90.7566C46.2724 90.8805 46.6516 90.9405 47.0333 90.9545C47.4636 91.727 48.3637 92.3462 49.2102 92.1955C60.2492 88.8836 71.4886 85.7389 82.4165 82.2763C83.3294 82.1691 83.7073 80.9498 83.4915 80.1645C83.8541 79.9258 84.1822 79.6411 84.4504 79.2989Z" fill="black"/>
<path d="M66.5104 80.1542C65.7393 77.7219 64.6847 75.2233 62.4899 73.7499C62.7963 73.6593 63.1027 73.566 63.4092 73.4728C63.4436 73.4626 63.4628 73.4384 63.4692 73.4116L63.4679 73.4103C63.4692 73.4077 63.4705 73.4052 63.4692 73.4013H63.4705C63.5126 73.5329 63.7296 73.4856 63.6543 73.349C62.3533 71.527 61.0663 69.6936 59.7525 67.8793C61.074 66.7762 61.2195 64.5035 59.8929 63.311C60.7445 61.7355 60.8595 60.0974 60.7203 58.3278C60.5786 56.382 60.2287 54.5154 59.229 52.8134C58.168 51.1587 56.8823 48.452 54.5433 48.8107C54.5318 48.7214 54.4322 48.7099 54.3556 48.7469C50.4895 49.836 46.2123 51.1894 42.331 52.3193C40.2217 53.056 36.5472 53.5476 35.2474 55.4078C34.7814 56.1088 34.4086 57.2068 34.6359 58.089C37.6886 68.2215 40.5907 78.4752 43.7341 88.5604C44.0648 89.9279 45.6352 90.9531 47.0333 90.9531C49.2345 90.911 51.3054 90.0032 53.4031 89.4312C57.2934 88.1863 61.7889 87.1228 65.5592 85.7477C67.1488 84.5833 67.048 81.8395 66.5104 80.1542ZM62.1388 73.6567C60.4088 74.1955 58.6443 74.6398 56.927 75.2156C57.1172 72.9545 57.093 70.6742 57.2194 68.4053C56.1686 68.1998 55.2646 67.4107 54.9276 66.3548C54.0658 63.606 57.5539 61.3601 59.6695 63.3302C59.6567 63.3953 59.7167 63.4425 59.7768 63.4298C59.8636 63.5153 59.9466 63.606 60.0244 63.7017C61.0893 64.9376 60.7573 66.9473 59.4959 67.8525C60.8326 69.6451 62.0864 71.4824 63.3938 73.2941C63.0287 73.3822 62.6686 73.506 62.306 73.6069C62.2499 73.5533 62.1464 73.5826 62.1388 73.6567Z" fill="#02B676"/>
<path d="M55.5717 67.7441C55.5935 67.7645 55.6139 67.7862 55.6356 67.8066C55.6535 67.8219 55.6713 67.8373 55.6892 67.8526C56.0454 68.1641 56.4923 68.3978 57.0337 68.5101C56.9762 70.7611 56.7974 73.0222 56.8166 75.2693C56.7923 75.3077 56.8051 75.36 56.8421 75.3843C56.8409 75.4021 56.8613 75.4136 56.8702 75.397C57.2047 75.3191 57.538 75.231 57.8687 75.1366C57.8967 75.1289 57.9236 75.1212 57.9504 75.1136C58.0691 75.0791 58.1879 75.0446 58.3066 75.0102C58.9041 74.8327 59.4978 74.6425 60.0928 74.4599C60.2128 74.4228 60.3328 74.3871 60.4516 74.3514V74.3501C60.5997 74.3054 60.7478 74.2607 60.8972 74.2186C61.7232 73.9734 62.5557 73.7321 63.3792 73.478C63.4175 73.4717 63.4647 73.4461 63.4686 73.4091L63.4673 73.4078C63.4686 73.4053 63.4699 73.4027 63.4686 73.3989H63.4699C63.5133 73.5329 63.729 73.4819 63.6537 73.3465C62.3527 71.5246 61.0657 69.6911 59.7519 67.8781C61.8356 66.0549 60.6954 62.5808 57.8802 62.4365C57.109 62.4021 56.4693 62.6089 55.9663 62.9626C55.9497 62.974 55.9318 62.9855 55.9152 62.997C55.8858 63.0187 55.8577 63.0404 55.8309 63.0634C55.1045 63.6265 54.7227 64.4857 54.6818 65.3616C54.6295 66.2311 54.9155 67.1159 55.5717 67.7441Z" fill="black"/>
<path d="M65.4791 85.6408C60.2073 87.1576 54.6687 88.8135 49.4186 90.4261C47.1 91.0441 44.987 91.0045 43.8647 88.4982C40.9447 78.4181 37.8141 68.3737 34.8545 58.2962C34.4102 55.6239 36.1632 54.3944 38.4448 53.6538C43.7102 52.1536 49.2246 50.4913 54.4632 48.9145C54.633 48.8608 54.504 48.6476 54.3559 48.7421C51.6875 49.4814 49.0407 50.3202 46.3863 51.1092C44.0473 51.8395 40.651 52.7397 38.3656 53.5198C36.1977 54.0547 34.2187 55.6201 34.6362 58.0842C37.6889 68.2167 40.591 78.4704 43.7345 88.5556C44.0651 89.9231 45.6356 90.9483 47.0336 90.9483C49.2348 90.9062 51.3057 89.9984 53.4034 89.4264C57.0167 88.3322 61.1177 87.1754 64.7054 86.0761C64.9008 85.9753 65.8277 85.8578 65.4791 85.6408Z" fill="black"/>
<path d="M57.8867 70.1503C57.5203 69.434 56.5308 68.9067 55.812 68.6092C54.9425 68.2505 53.9632 68.382 53.109 68.728C48.122 70.1095 43.1234 71.6888 38.1338 73.1431C32.4649 64.2248 18.852 70.6776 22.1882 80.6888C24.8158 90.6501 39.2395 89.021 39.6634 78.7877L39.6646 78.7864C41.6424 79.7452 41.6615 77.4356 43.4018 77.756C45.1624 78.1965 45.2735 77.6003 46.6013 76.8023C48.1922 76.5086 49.0093 76.838 50.2108 75.4068C50.3691 75.3059 50.4789 75.0774 50.7074 75.0799C50.8109 75.0761 50.9092 75.0978 51.0062 75.0735C52.2051 75.6494 52.6009 75.2829 53.2814 74.3062C53.847 73.6014 55.1059 74.6471 55.7136 74.1977C56.7312 73.9283 58.4715 71.1704 57.8867 70.1503ZM27.792 80.3772C27.0259 80.6339 26.2381 80.201 25.8998 79.5193C25.8193 78.78 26.3313 78.0803 27.0361 77.8454C27.7907 77.5926 28.5644 78.0076 28.9117 78.6702C28.9896 79.4299 28.5478 80.1257 27.792 80.3772Z" fill="#FEC801"/>
<path d="M29.0177 78.3481C28.8543 77.8949 28.5875 77.5782 28.2734 77.3791C28.2606 77.3714 28.2479 77.3625 28.2351 77.3548C28.2287 77.351 28.221 77.3471 28.2134 77.342C27.8482 77.125 27.3809 77.0382 26.837 77.1761C26.2216 77.3778 25.8539 77.7787 25.693 78.2383C25.5756 78.5562 25.55 78.9329 25.6547 79.3568C25.8424 79.9186 26.1961 80.2722 26.6072 80.4522C26.9481 80.608 27.363 80.6578 27.8393 80.5352C28.4317 80.3412 28.793 79.9632 28.9616 79.5279C29.0969 79.1972 29.1339 78.8001 29.0177 78.3481ZM27.792 80.3782C27.026 80.6348 26.2382 80.202 25.8986 79.5202C25.8194 78.781 26.3314 78.0813 27.0375 77.8464C27.7908 77.5936 28.5645 78.0085 28.9118 78.6712C28.9897 79.4308 28.5479 80.1267 27.792 80.3782ZM28.7739 78.1885C28.3372 77.7161 27.6708 77.5106 26.9902 77.688C26.2957 77.8693 25.859 78.4707 25.7658 79.1321C25.4709 77.3382 27.9887 76.5185 28.7739 78.1885Z" fill="black"/>
<path d="M57.8867 70.1503C57.519 69.434 56.5308 68.9067 55.812 68.6092C54.9425 68.2505 53.9632 68.382 53.109 68.728C48.122 70.1095 43.1234 71.6888 38.1338 73.1431C32.4649 64.2248 18.852 70.6776 22.1882 80.6888C24.8158 90.6501 39.2395 89.021 39.6634 78.7877L39.6646 78.7864C41.6424 79.7452 41.6615 77.4356 43.4018 77.756C45.1624 78.1965 45.2735 77.6003 46.6013 76.8023C48.1922 76.5086 49.0093 76.838 50.2108 75.4068C50.3691 75.3059 50.4789 75.0774 50.7074 75.0786C50.8109 75.0761 50.9092 75.0978 51.0062 75.0735C52.2051 75.6494 52.6009 75.2829 53.2814 74.3049C53.847 73.6014 55.1059 74.6471 55.7136 74.1964C56.7312 73.927 58.4702 71.1704 57.8867 70.1503ZM57.5101 69.9524C57.4947 69.992 57.519 70.0367 57.5688 70.0392C57.6326 70.0443 57.6007 70.2563 57.5484 70.481C51.3509 72.2685 45.1152 74.1198 38.9292 76.003C38.702 75.989 38.7109 75.7106 38.7262 75.5115C45.0079 73.7393 51.2411 71.7756 57.5101 69.9524ZM35.4219 85.9427C31.1639 88.7146 24.9307 86.8734 22.8968 82.24C27.1497 89.6096 38.5539 87.0931 39.3761 78.7034C39.417 78.7264 39.4604 78.7494 39.505 78.766C39.4208 81.6285 37.9359 84.3557 35.4219 85.9427ZM42.3688 77.6922C41.7202 77.9475 41.3462 78.8821 40.5916 78.8502C41.2951 78.4034 41.83 77.3258 42.8068 77.5811C42.6599 77.5939 42.5144 77.6284 42.3688 77.6922ZM45.8212 77.0972C45.5378 77.3372 45.2633 77.502 44.9722 77.599C45.4944 77.1891 45.8468 76.4078 46.6128 76.6082C46.3153 76.7065 46.0779 76.8802 45.8212 77.0972ZM50.1584 75.1527C50.1469 75.1642 50.1393 75.1821 50.1393 75.1999C50.1048 75.2421 49.958 75.2255 50.0103 75.3314C49.6375 75.7106 49.2328 76.0898 48.7412 76.2916C49.3579 75.8702 49.8967 74.6267 50.7981 74.891C50.5759 74.8807 50.3627 74.9471 50.1584 75.1527ZM53.0682 74.2819C52.4515 75.3366 52.0072 75.2893 50.9513 74.9076C50.7125 74.6445 50.1291 74.8437 49.8865 74.9688C49.2098 75.3659 48.9876 76.2201 48.1577 76.4422C48.1347 76.4256 48.1066 76.4256 48.0926 76.4512C47.6189 76.4793 47.1542 76.5559 46.6818 76.4729C45.7076 76.1499 45.3284 77.3832 44.5904 77.6884C44.2163 77.7509 43.7414 77.659 43.3417 77.599C42.7698 77.3258 42.2603 77.3296 41.7088 77.6718C41.29 77.9335 40.9235 78.6894 40.4243 78.8375C40.1205 78.7966 39.8115 78.6715 39.5076 78.5872C39.5076 78.5923 39.5076 78.5974 39.5076 78.6025C39.468 78.5898 39.4335 78.5681 39.3914 78.5553V78.554C39.3403 78.5425 39.2893 78.5298 39.2356 78.5195C38.3789 87.7621 25.5538 89.4142 22.3619 80.7105C22.3606 80.7092 22.3606 80.7092 22.3606 80.7079C19.0435 70.8513 32.3526 64.4649 37.9755 73.1941C37.9448 73.2043 37.9129 73.2133 37.8836 73.2248C37.9231 73.2758 37.9614 73.3295 37.9997 73.3818C43.0379 71.8676 48.1501 70.4312 53.1448 68.848C54.8748 68.3411 56.052 68.6041 57.4118 69.8056C51.1824 71.7016 44.8943 73.4469 38.6879 75.4004C38.6483 75.394 38.5998 75.4081 38.5922 75.4527C38.5539 75.7094 38.5411 76.1716 38.9126 76.1409C45.1305 74.3905 51.3024 72.4434 57.5075 70.6393C57.362 71.2151 57.1615 71.579 56.8806 72.0655C56.4235 72.9656 55.7673 73.9436 54.6143 73.655C54.6705 73.6678 54.4305 73.5338 54.3807 73.5414C53.8291 73.5338 53.2686 73.6946 53.0682 74.2819ZM57.1424 72.5251C56.8295 73.0996 56.4337 73.5899 55.8809 73.9564C55.6383 73.9679 55.4315 74.1262 55.1634 74.0955C54.599 74.0611 54.0015 73.7125 53.4512 73.9666C53.7806 73.6308 54.3322 73.7138 54.7586 73.8568C55.6038 74.0062 56.3201 73.4559 56.6827 72.7332C57.1449 71.9786 57.6863 71.2139 57.7718 70.2946C58.0642 71.0083 57.4718 71.9289 57.1424 72.5251Z" fill="black"/>
<path d="M85.0676 76.2705C85.0842 76.2488 85.0919 76.2182 85.0816 76.1837C82.071 66.05 79.0144 55.9162 75.9821 45.7953C75.6552 44.9066 74.8432 44.2657 74.0006 43.8852C71.8671 43.0387 68.5641 44.6321 66.3782 45.1684C62.5096 46.343 58.1929 47.5432 54.3549 48.7446C54.3332 48.751 54.3115 48.7587 54.2898 48.765C54.1698 48.8033 54.2247 48.9846 54.3447 48.9514C54.3728 48.9438 54.4009 48.9349 54.4302 48.9285C55.5448 52.8941 56.7922 56.8253 57.9464 60.7795C57.7741 61.4217 56.8369 61.8379 56.9352 62.5299C56.9327 62.5299 56.9289 62.5312 56.9263 62.5325L56.9723 62.6869C60.0914 61.8826 62.027 65.9299 59.4952 67.8502C60.8319 69.6428 62.0857 71.4801 63.3931 73.2918C62.3896 73.5625 61.3976 73.8868 60.3978 74.1715L60.4515 74.3515C60.4949 74.3388 60.5396 74.326 60.583 74.3119C60.6953 74.2992 61.7104 74.8482 61.8227 74.9031C61.801 74.9503 61.8597 74.9708 61.8942 74.9746C62.4866 77.0289 64.5499 83.792 65.1193 85.7224C64.9406 85.7773 64.767 85.8297 64.5933 85.8846C64.7976 85.9037 64.9878 85.9229 65.1768 85.9433C67.775 85.1951 71.0972 84.1686 73.3954 83.4855L77.4504 82.2803C79.4779 81.6355 81.6356 81.2474 83.4908 80.1608C84.7254 79.4088 85.5553 77.6992 85.0676 76.2705Z" fill="#02B676"/>
<path d="M85.0682 76.2683C82.1686 66.1091 78.9818 55.9434 75.9827 45.7931C75.952 45.705 75.9163 45.6207 75.8741 45.5377L75.9124 45.5262C76.035 45.4905 75.9776 45.299 75.855 45.336L75.7771 45.359C74.5769 43.454 72.3145 43.3302 70.3598 44.0094C68.0245 44.6019 64.6794 45.7075 62.3238 46.3715C59.6477 47.1669 56.9511 47.9176 54.2903 48.7629C54.1703 48.8012 54.2252 48.9825 54.3452 48.9493C54.3989 48.9352 54.4512 48.9199 54.5036 48.9046C59.7026 47.3737 65.1876 45.7701 70.3661 44.1639C72.2456 43.6583 74.402 43.5153 75.5562 45.4241C62.2025 49.4421 48.0482 53.5112 34.7634 57.5828C34.6779 57.6096 34.7149 57.7386 34.8004 57.7168C48.1529 53.8687 62.2791 49.5315 75.6584 45.6016C79.0405 55.711 81.7 66.1231 84.9264 76.2913C84.9584 76.6526 85.003 76.9897 84.9852 77.3472C71.5267 81.3486 57.8461 85.4011 44.3979 89.4191L44.3507 89.4331C44.2409 89.4676 44.2907 89.6374 44.4017 89.6055C44.4413 89.594 44.4783 89.5825 44.5179 89.571C57.8755 85.6768 71.597 81.5082 84.9673 77.5553C84.7145 79.5943 83.0138 80.3399 81.3336 80.9387C75.5869 82.5871 69.8427 84.3081 63.9631 86.0816C63.8431 86.1199 63.838 86.3191 63.9593 86.2846C64.35 86.1773 64.7726 86.0573 65.1774 85.9411C69.2656 84.7474 73.5504 83.4221 77.4509 82.2781C79.4785 81.6333 81.6362 81.2452 83.4913 80.1586C84.7273 79.4053 85.5546 77.697 85.0682 76.2683Z" fill="black"/>
<path d="M57.8805 62.4371C57.5651 62.4205 57.237 62.4524 56.9268 62.5328L56.9727 62.6873C60.0919 61.8829 62.0275 65.9303 59.4969 67.8506C60.8324 69.6432 62.0862 71.4804 63.3936 73.2922C63.3808 73.2934 63.3693 73.2922 63.3566 73.296C63.2046 73.3407 63.0527 73.3866 62.9008 73.4313C62.4718 73.5539 62.0453 73.6816 61.6189 73.8105C61.2116 73.9318 60.8056 74.0531 60.3983 74.1719L60.4519 74.3519C61.4261 74.0595 62.4092 73.7761 63.3796 73.4786C63.4191 73.4722 63.4651 73.4467 63.4689 73.4096L63.4677 73.4083C63.4689 73.4058 63.4702 73.4032 63.4689 73.3994H63.4702C63.4753 73.416 63.483 73.4301 63.4932 73.4403C63.5302 73.4824 63.5889 73.485 63.6298 73.4632C63.6656 73.4441 63.686 73.4032 63.6541 73.3471C63.3285 72.8913 63.0042 72.4354 62.6799 71.9784C62.3569 71.5226 62.0326 71.0655 61.7083 70.6097C61.0597 69.6968 60.4085 68.7852 59.7523 67.8774C61.8372 66.0759 60.6843 62.5647 57.8805 62.4371Z" fill="black"/>
<path d="M100.551 79.7909C100.51 80.2225 100.017 80.4382 99.6523 80.2174C98.7113 79.8267 97.6861 79.4934 96.786 78.9968C96.583 79.4807 96.3812 79.9633 96.1782 80.4459C97.1601 80.7332 98.1087 81.2273 99.0459 81.6167C99.7787 81.9946 99.4251 83.3544 98.5313 82.896C97.5891 82.5053 96.5638 82.1721 95.6637 81.6742C95.453 82.1785 95.2411 82.6815 95.0304 83.1859C96.0123 83.4719 96.9596 83.9672 97.8993 84.3554C98.6309 84.7359 98.2785 86.0931 97.3835 85.6347C96.4412 85.2453 95.416 84.9108 94.5159 84.4128C93.829 85.9143 93.331 87.5894 92.5356 89.0054C92.1156 90.106 90.7622 90.623 89.7025 90.1813C89.599 90.2668 89.4305 90.0996 89.313 90.0791C89.2722 90.0498 89.2058 90.0664 89.1777 90.023C87.7656 89.4331 86.3535 88.8432 84.9414 88.2521C84.6694 89.2467 84.1523 90.2055 83.7629 91.1529C83.3812 91.8845 82.0214 91.5283 82.481 90.6371C82.8807 89.691 83.2088 88.6415 83.7272 87.7452C83.2382 87.5409 82.7479 87.3366 82.2576 87.1324C81.9882 88.127 81.4686 89.0858 81.0791 90.0332C80.7051 90.7609 79.3376 90.4149 79.7985 89.5174C80.1982 88.5713 80.525 87.5205 81.0447 86.6255C80.534 86.4123 80.0233 86.199 79.5138 85.9858C79.2444 86.9804 78.7248 87.9393 78.3354 88.8879C78.3354 88.8892 78.3354 88.8892 78.3354 88.8905C77.9511 89.6182 76.5964 89.2658 77.0535 88.3734C77.2131 87.8576 77.4838 87.3532 77.6817 86.8425C77.8655 86.411 78.0085 85.8569 78.3009 85.4789C76.945 84.9006 75.5571 84.3835 74.2114 83.777C74.0812 83.7374 73.9471 83.6442 73.8118 83.5931C73.785 83.5804 73.7773 83.5548 73.7811 83.5306C72.6767 83.108 72.0766 81.7431 72.5886 80.6527C73.1415 79.0951 73.8718 77.5923 74.4936 76.0589C73.5105 75.7729 72.5618 75.2775 71.6234 74.8881C70.8905 74.5089 71.2442 73.1504 72.1392 73.6088C73.0802 73.9995 74.1067 74.334 75.0055 74.8307C75.2086 74.3468 75.4103 73.8642 75.6133 73.3803C74.6302 73.0943 73.6828 72.5989 72.7444 72.2095C72.0128 71.8315 72.3665 70.4718 73.2602 70.9301C74.2012 71.3196 75.2264 71.6541 76.1266 72.152C76.3372 71.6477 76.5479 71.1446 76.7586 70.6403C75.7767 70.3543 74.8294 69.8602 73.8922 69.4708C73.1593 69.0916 73.513 67.7331 74.408 68.1915C75.3503 68.5809 76.373 68.9154 77.2731 69.4121C77.8668 67.9948 78.4579 66.5764 79.0516 65.1604C79.1116 65.0506 79.1295 64.8987 79.2189 64.8119C79.6581 63.7011 81.0306 63.2057 82.0942 63.673C82.1057 63.6411 82.135 63.6142 82.1721 63.6283C83.6927 64.1824 85.1686 64.8795 86.6676 65.4911C86.9408 64.499 87.4553 63.5427 87.8448 62.5967C88.2252 61.8663 89.585 62.2187 89.1266 63.1125C88.7296 64.0573 88.4001 65.1017 87.8856 65.998C88.3733 66.2023 88.8623 66.4053 89.3513 66.6095C89.6258 65.6175 90.1391 64.6625 90.5285 63.7164C90.909 62.9861 92.2688 63.3385 91.8104 64.2322C91.4121 65.177 91.0839 66.2201 90.5694 67.1177C91.0775 67.3284 91.587 67.5416 92.0951 67.7535C92.3709 66.7628 92.8829 65.8052 93.2736 64.8616C93.6579 64.1339 95.0087 64.4761 94.5542 65.3762C94.1584 66.3223 93.8277 67.3641 93.3144 68.2617C94.7648 68.8656 96.2153 69.4695 97.6644 70.0747C97.7704 70.1488 98.0666 70.1551 98.0155 70.3288C99.0714 70.7552 99.6332 72.0409 99.1927 73.1109C99.2782 73.213 99.111 73.3828 99.0905 73.5003C98.4943 74.9226 97.898 76.3449 97.3005 77.7672C98.2836 78.0545 99.2297 78.5486 100.168 78.938C100.463 79.0734 100.614 79.4807 100.551 79.7909Z" fill="#FEC801"/>
<path d="M90.9006 75.0638C89.8626 74.5442 88.7416 74.1509 87.6704 73.7041C86.5736 73.2457 85.4756 72.7861 84.3776 72.3277C84.3048 72.2907 84.1797 72.2383 84.1835 72.366C83.6626 73.4027 83.2694 74.5199 82.8212 75.5898C82.3628 76.6866 81.9032 77.7821 81.4436 78.8775C81.4053 78.949 81.3542 79.0754 81.4819 79.0716C82.5199 79.5912 83.6409 79.9845 84.7121 80.4314C85.842 80.9038 86.9733 81.3762 88.1045 81.8486C88.1645 81.8728 88.2028 81.8205 88.199 81.7694C89.1859 79.6359 89.9941 77.4118 90.9376 75.2579C90.9517 75.2247 90.967 75.1915 90.9798 75.157C91.0053 75.097 90.953 75.06 90.9006 75.0638Z" fill="#F7562B"/>
<path d="M100.168 78.938C99.2297 78.5486 98.2836 78.0545 97.3005 77.7672C97.898 76.3449 98.4943 74.9226 99.0905 73.5003C99.111 73.3828 99.2782 73.2143 99.1927 73.1109C99.6332 72.0409 99.0714 70.7552 98.0155 70.3288C98.0666 70.1551 97.7704 70.1488 97.6644 70.0747C96.2153 69.4695 94.7648 68.8656 93.3144 68.2617C93.8277 67.3641 94.1584 66.3223 94.5542 65.3762C95.0087 64.4761 93.6579 64.1339 93.2736 64.8616C92.8829 65.8052 92.3709 66.7628 92.0951 67.7535C91.587 67.5416 91.0775 67.3284 90.5694 67.1177C91.0839 66.2201 91.4121 65.177 91.8104 64.2322C92.2688 63.3385 90.909 62.9861 90.5285 63.7164C90.1391 64.6625 89.6258 65.6175 89.3513 66.6095C88.8623 66.4053 88.3733 66.2023 87.8856 65.998C88.4001 65.1017 88.7296 64.0573 89.1266 63.1125C89.585 62.2187 88.2252 61.8663 87.8448 62.5967C87.4553 63.5427 86.9408 64.499 86.6676 65.4911C85.1686 64.8795 83.6927 64.1824 82.1721 63.6283C82.135 63.6142 82.1057 63.6411 82.0942 63.673C81.0306 63.2057 79.6581 63.7011 79.2189 64.8119C79.1295 64.8987 79.1116 65.0506 79.0516 65.1604C78.4579 66.5764 77.8668 67.9948 77.2731 69.4121C76.373 68.9154 75.3503 68.5809 74.408 68.1915C73.513 67.7331 73.1593 69.0916 73.8922 69.4708C74.8294 69.8602 75.7767 70.3543 76.7586 70.6403C76.5479 71.1446 76.3372 71.6477 76.1266 72.152C75.2264 71.6541 74.2012 71.3196 73.2602 70.9301C72.3665 70.4718 72.0128 71.8315 72.7444 72.2095C73.6828 72.5989 74.6302 73.0943 75.6133 73.3803C75.4103 73.8642 75.2086 74.3468 75.0055 74.8307C74.1067 74.334 73.0802 73.9995 72.1392 73.6088C71.2442 73.1504 70.8905 74.5089 71.6234 74.8881C72.5618 75.2775 73.5092 75.7729 74.4936 76.0589C73.8718 77.5923 73.1415 79.0951 72.5886 80.6527C72.0766 81.7431 72.6767 83.1093 73.7811 83.5306C73.7773 83.5548 73.785 83.5804 73.8118 83.5931C73.9471 83.6442 74.0812 83.7374 74.2114 83.777C75.5571 84.3835 76.945 84.9006 78.3009 85.4789C77.7851 86.3152 77.5361 87.3188 77.1058 88.201C77.1518 88.2278 77.199 88.2546 77.2463 88.2814C77.5757 87.3481 78.1183 86.4633 78.3545 85.5019C78.7235 85.6551 79.0912 85.8096 79.4589 85.9628C78.9265 86.8451 78.6558 87.8882 78.2102 88.8177C78.209 88.819 78.209 88.819 78.2077 88.8202C78.2498 88.8432 78.292 88.8675 78.3354 88.8905C78.3354 88.8892 78.3354 88.8892 78.3354 88.8879C78.7248 87.9393 79.2444 86.9804 79.5138 85.9858C80.0233 86.199 80.534 86.4123 81.0447 86.6255C80.525 87.5205 80.1982 88.5713 79.7985 89.5174C79.773 89.5557 79.7539 89.5991 79.7411 89.645C79.7896 89.6706 79.8381 89.6948 79.8854 89.7204C79.9007 89.6629 79.916 89.6067 79.9224 89.5493C80.3093 88.6006 80.8289 87.6431 81.0996 86.6485C81.4673 86.8017 81.835 86.9562 82.2027 87.1094C81.6716 87.9916 81.3996 89.0335 80.954 89.963C80.9349 89.9757 80.917 89.9962 80.9195 90.0179C80.8659 90.0651 80.797 90.1238 80.7485 90.1596C80.8021 90.1864 80.8544 90.2119 80.9068 90.2375C80.9859 90.1813 81.0715 90.1072 81.0791 90.0332C81.4686 89.0858 81.9882 88.127 82.2576 87.1324C82.7479 87.3366 83.2382 87.5409 83.7272 87.7452C83.2088 88.6415 82.8807 89.691 82.481 90.6371C82.4261 90.7214 82.4032 90.8299 82.4006 90.9371C82.4491 90.9601 82.4976 90.9831 82.5449 91.0061C82.541 90.8912 82.5947 90.7814 82.6049 90.669C82.993 89.7204 83.5114 88.7641 83.7821 87.7695C84.1498 87.9227 84.5175 88.0759 84.8852 88.2291C84.3541 89.1126 84.0834 90.1545 83.6378 91.0827C83.6186 91.0955 83.5995 91.1172 83.6033 91.1376C83.4833 91.2423 83.3646 91.3495 83.2126 91.3751C83.2714 91.4121 83.3288 91.4478 83.385 91.4849C83.5101 91.4146 83.7221 91.3061 83.7629 91.1529C84.1523 90.2055 84.6694 89.2467 84.9414 88.2521C86.3535 88.8432 87.7656 89.4331 89.1777 90.023C89.2058 90.0664 89.2722 90.0498 89.313 90.0791C89.4305 90.0996 89.599 90.2668 89.7025 90.1813C90.7622 90.623 92.1156 90.106 92.5356 89.0054C93.331 87.5894 93.829 85.9143 94.5159 84.4128C95.416 84.9108 96.4412 85.2453 97.3835 85.6347C98.2785 86.0931 98.6309 84.7359 97.8993 84.3554C96.9596 83.9672 96.0123 83.4719 95.0304 83.1859C95.2411 82.6815 95.453 82.1785 95.6637 81.6742C96.5638 82.1721 97.5891 82.5053 98.5313 82.896C99.4251 83.3544 99.7787 81.9946 99.0459 81.6167C98.1087 81.2273 97.1601 80.7332 96.1782 80.4459C96.3812 79.9633 96.583 79.4807 96.786 78.9968C97.6861 79.4934 98.7113 79.8267 99.6523 80.2174C100.017 80.4382 100.51 80.2225 100.551 79.7909C100.614 79.4807 100.463 79.0734 100.168 78.938ZM93.3987 64.9319C93.4153 64.9204 93.437 64.8987 93.4319 64.877C93.866 64.3969 94.7189 64.6165 94.4303 65.3455C94.0422 66.2904 93.5289 67.2454 93.2544 68.2362C92.888 68.0842 92.5216 67.931 92.1551 67.7778C92.6824 66.8955 92.9544 65.8588 93.3987 64.9319ZM90.6536 63.7866C90.6728 63.7751 90.692 63.7534 90.6881 63.7317C91.1222 63.2516 91.9738 63.4712 91.6866 64.2003C91.2984 65.1451 90.7839 66.1014 90.5107 67.0922C90.263 66.99 89.6667 66.7411 89.4114 66.6338C89.9374 65.7516 90.2093 64.7148 90.6536 63.7866ZM87.9699 62.6669C87.989 62.6554 88.0082 62.6337 88.0044 62.612C88.4397 62.1319 89.2901 62.3528 89.0028 63.0806C88.6146 64.0266 88.1001 64.9817 87.8256 65.9737C87.4604 65.8218 87.0927 65.6686 86.7263 65.5154C87.2536 64.6331 87.5268 63.5951 87.9699 62.6669ZM73.9612 69.3444C73.9497 69.3265 73.928 69.3074 73.9062 69.3112C73.4262 68.8771 73.6458 68.0268 74.3761 68.314C75.3145 68.7035 76.2606 69.1963 77.2425 69.4836C77.0918 69.8449 76.9399 70.2075 76.7892 70.5675C75.9031 70.0594 74.8843 69.781 73.9612 69.3444ZM72.8146 72.0843C72.8031 72.0665 72.7801 72.0473 72.7597 72.0499C72.2784 71.617 72.4992 70.7667 73.2296 71.054C74.1667 71.4434 75.1141 71.9362 76.0959 72.2235C75.9453 72.5848 75.7933 72.9462 75.6427 73.3088C74.7566 72.7981 73.739 72.521 72.8146 72.0843ZM71.6936 74.763C71.6808 74.7451 71.6604 74.726 71.6374 74.7285C71.1561 74.2957 71.377 73.4441 72.1073 73.7326C73.047 74.1208 73.9931 74.6162 74.9775 74.9022C74.8255 75.2635 74.6736 75.6261 74.5217 75.9887C73.6369 75.478 72.6167 75.1997 71.6936 74.763ZM97.8291 84.4805C97.8406 84.4997 97.8636 84.5188 97.8853 84.515C98.3653 84.9491 98.1457 85.7994 97.4141 85.5121C96.4757 85.1227 95.5284 84.6273 94.5452 84.3426C94.6972 83.98 94.8491 83.6187 94.9998 83.2574C95.8871 83.7668 96.906 84.0451 97.8291 84.4805ZM98.9769 81.7418C98.9884 81.7597 99.0114 81.7789 99.0318 81.7763C99.5119 82.2091 99.2923 83.0607 98.562 82.7735C97.6235 82.384 96.6775 81.8887 95.6931 81.6027C95.845 81.2413 95.9969 80.88 96.1489 80.5187C97.0349 81.0281 98.0538 81.3052 98.9769 81.7418ZM90.5656 88.427C85.1929 86.2144 79.8547 83.9098 74.4744 81.724C76.6896 76.3602 78.9993 71.0336 81.1877 65.6609C86.5603 67.8723 91.8972 70.1794 97.2788 72.3627C95.0649 77.7264 92.7539 83.0531 90.5656 88.427ZM99.683 80.0935C98.7445 79.7054 97.7985 79.2113 96.8166 78.924C96.9673 78.5639 97.1192 78.2013 97.2712 77.84C98.1572 78.3495 99.1748 78.6265 100.098 79.0632C100.111 79.081 100.131 79.1002 100.153 79.0976C100.307 79.2598 100.416 79.427 100.409 79.6556C100.418 80.1012 100.055 80.2301 99.683 80.0935Z" fill="#F7562B"/>
<path d="M81.4814 79.0711C82.5194 79.5908 83.6404 79.984 84.7116 80.4309C85.8416 80.9033 86.9728 81.3757 88.104 81.8481C88.164 81.8724 88.2023 81.82 88.1985 81.769C89.1854 79.6355 89.9936 77.4126 90.9372 75.2574C90.9755 75.1872 91.0278 75.0583 90.9002 75.0634C89.8621 74.5437 88.7411 74.1505 87.6699 73.7036C86.5732 73.2452 85.4752 72.7856 84.3771 72.3272C84.3056 72.2915 84.178 72.2379 84.1831 72.3655C83.6621 73.4023 83.2689 74.5207 82.8207 75.5894C82.3624 76.6861 81.9028 77.7816 81.4431 78.8771C81.4061 78.9473 81.3537 79.0762 81.4814 79.0711ZM81.595 78.9192C82.4607 76.7551 83.4668 74.6395 84.289 72.4613C84.3044 72.4677 84.321 72.4728 84.335 72.4805C86.5042 73.3435 88.6211 74.3496 90.8044 75.1693C90.798 75.1847 90.7916 75.2 90.7852 75.2153C89.9196 77.3794 88.9148 79.4938 88.0913 81.6732C85.908 80.8024 83.7745 79.7925 81.5772 78.9652C81.5836 78.9498 81.5899 78.9345 81.595 78.9192Z" fill="black"/>
<path d="M97.3743 72.2565C94.7071 71.0627 91.9659 70.0222 89.2796 68.8667C86.6609 67.7738 84.0423 66.6796 81.4223 65.5867C81.3176 65.565 81.1006 65.3786 81.084 65.565C79.8877 68.2296 78.8458 70.9644 77.6878 73.6457C76.5578 76.3422 75.4292 79.0375 74.3005 81.7327C74.275 81.794 74.3286 81.831 74.3809 81.8272C77.0481 83.021 79.7893 84.0615 82.4757 85.2183C85.0943 86.3099 87.7143 87.4041 90.3329 88.497C90.4389 88.5213 90.6547 88.7039 90.6713 88.5188C92.9477 83.2342 95.1055 77.8922 97.3526 72.5936C97.373 72.4966 97.5633 72.268 97.3743 72.2565ZM93.9743 80.2593C92.8648 82.9916 91.6378 85.6779 90.5666 88.4256C85.1939 86.2129 79.8557 83.9071 74.4754 81.7225C76.6906 76.3588 79.0003 71.0321 81.1887 65.6595C86.5613 67.8708 91.8982 70.1767 97.2798 72.3612C96.1792 74.9939 95.0761 77.6266 93.9743 80.2593Z" fill="black"/>
<path d="M100.445 79.2133C100.392 79.1367 100.279 78.949 100.168 78.9375C99.2298 78.5481 98.2824 78.054 97.3006 77.7667C97.8981 76.3444 98.4944 74.922 99.0894 73.4997C99.1111 73.3823 99.2783 73.2124 99.1928 73.1103C99.6333 72.0404 99.0715 70.7547 98.0156 70.3282C98.0679 70.1546 97.7692 70.1469 97.6645 70.0741C96.2153 69.469 94.7649 68.865 93.3145 68.2611C93.8278 67.3636 94.1585 66.3217 94.5543 65.3756C95.0088 64.4742 93.658 64.1333 93.2737 64.8611C92.883 65.8046 92.371 66.7622 92.0952 67.753C91.5871 67.541 91.0776 67.3278 90.5695 67.1171C91.084 66.2196 91.4121 65.1764 91.8105 64.2316C92.2688 63.3366 90.9091 62.9868 90.5286 63.7158C90.1392 64.6619 89.6259 65.6169 89.3514 66.609C88.8624 66.4047 88.3734 66.2017 87.8857 65.9974C88.4002 65.1011 88.7296 64.0567 89.1267 63.1119C89.5864 62.2182 88.224 61.8671 87.8448 62.5961C87.4554 63.5422 86.9409 64.4985 86.6677 65.4905C85.1687 64.879 83.6928 64.1818 82.1721 63.6277C82.1351 63.6137 82.1058 63.6405 82.0943 63.6724C81.0307 63.2051 79.6582 63.7018 79.219 64.8113C79.1283 64.8981 79.1117 65.05 79.0517 65.1599C78.458 66.5758 77.8669 67.9943 77.2732 69.4115C76.3731 68.9148 75.3491 68.5803 74.4068 68.1909C73.5118 67.7325 73.1594 69.091 73.8923 69.4702C74.8294 69.8596 75.7768 70.3538 76.7586 70.6397C76.548 71.1441 76.3373 71.6471 76.1266 72.1514C75.2265 71.6535 74.2013 71.319 73.2603 70.9296C72.3653 70.4712 72.0129 71.831 72.7445 72.2089C73.6829 72.5983 74.6303 73.0937 75.6134 73.3797C75.4104 73.8636 75.2086 74.3462 75.0056 74.8301C74.1068 74.3334 73.0803 73.9989 72.1393 73.6082C71.243 73.1499 70.8919 74.5096 71.6222 74.8876C72.5619 75.277 73.5105 75.7724 74.4937 76.0584C73.8719 77.5918 73.1416 79.0945 72.5887 80.6522C72.0767 81.7425 72.6768 83.1074 73.7812 83.53C73.7774 83.5543 73.785 83.5798 73.8119 83.5926C73.9472 83.6437 74.0813 83.7369 74.2115 83.7764C75.5572 84.3829 76.9451 84.9 78.301 85.4784C78.0086 85.8563 77.8656 86.4104 77.6817 86.842C77.4838 87.3527 77.2132 87.857 77.0536 88.3728C76.5965 89.2653 77.9511 89.6164 78.3355 88.8899C78.3355 88.8886 78.3355 88.8886 78.3355 88.8874C78.7249 87.9387 79.2445 86.9799 79.5139 85.9853C80.0233 86.1985 80.5341 86.4117 81.0448 86.6249C80.5251 87.5199 80.197 88.5707 79.7986 89.5168C79.3377 90.4144 80.7051 90.7591 81.0792 90.0326C81.4686 89.0853 81.9883 88.1264 82.2577 87.1318C82.748 87.3361 83.2383 87.5404 83.7273 87.7446C83.2076 88.6409 82.8808 89.6904 82.4811 90.6365C82.0215 91.529 83.3825 91.8839 83.763 91.1523C84.1524 90.205 84.6695 89.2461 84.9415 88.2515C86.3536 88.8427 87.7657 89.4325 89.1778 90.0224C89.2059 90.0658 89.2723 90.0492 89.3131 90.0786C89.4306 90.099 89.5991 90.2663 89.7013 90.1807C90.7623 90.6225 92.1156 90.1041 92.5357 89.0048C93.3311 87.5889 93.8278 85.9138 94.516 84.4123C95.4148 84.9102 96.4413 85.2447 97.3836 85.6341C98.2786 86.0925 98.631 84.734 97.8994 84.3548C96.9597 83.9667 96.0123 83.4713 95.0305 83.1853C95.2412 82.681 95.4531 82.1779 95.6638 81.6736C96.5639 82.1715 97.5892 82.5048 98.5314 82.8955C99.4264 83.3538 99.7788 81.9941 99.0459 81.6161C98.1088 81.2267 97.1602 80.7326 96.1783 80.4453C96.3813 79.9627 96.5831 79.4801 96.7861 78.9962C97.6862 79.4929 98.7114 79.8261 99.6511 80.2168C100.315 80.5922 100.814 79.7584 100.445 79.2133ZM92.7681 66.4226C92.9775 65.9246 93.192 65.4292 93.3988 64.9313C93.4154 64.9198 93.4371 64.8981 93.432 64.8764C93.8661 64.3963 94.719 64.6159 94.4304 65.345C94.0423 66.2898 93.529 67.2448 93.2545 68.2356C92.8881 68.0837 92.5217 67.9304 92.1552 67.7772C92.4425 67.3993 92.5855 66.8503 92.7681 66.4226ZM90.023 65.2773C90.2337 64.7807 90.4482 64.2853 90.6537 63.786C90.6729 63.7746 90.6908 63.7529 90.6882 63.7311C91.1236 63.2511 91.9739 63.4707 91.6866 64.1997C91.2985 65.1445 90.7827 66.1008 90.5107 67.0916C90.2656 66.9907 89.663 66.7392 89.4114 66.6332C89.6987 66.2553 89.8417 65.7063 90.023 65.2773ZM87.3405 64.1576C87.5486 63.6609 87.7657 63.1655 87.97 62.6663C87.9891 62.6548 88.0083 62.6331 88.0044 62.6114C88.4411 62.1314 89.2901 62.3522 89.0029 63.08C88.6147 64.0261 88.1002 64.9824 87.8257 65.9732C87.4593 65.8212 87.0928 65.668 86.7264 65.5148C87.0149 65.1369 87.1579 64.5879 87.3405 64.1576ZM75.4551 69.9733C74.9571 69.7639 74.4605 69.5494 73.9612 69.3438C73.9497 69.326 73.928 69.3068 73.9063 69.3106C73.4288 68.8676 73.6357 68.0326 74.3762 68.3135C75.3146 68.7029 76.2607 69.1957 77.2425 69.483C77.0919 69.8443 76.9399 70.2069 76.7893 70.567C76.4114 70.2925 75.8764 70.152 75.4551 69.9733ZM74.3085 72.7132C73.8106 72.5051 73.3139 72.2881 72.8147 72.0838C72.8032 72.0659 72.7802 72.0468 72.7598 72.0493C72.2772 71.6165 72.4993 70.7662 73.2296 71.0521C74.1668 71.4416 75.1154 71.9357 76.096 72.2229C75.9453 72.5843 75.7934 72.9456 75.6427 73.3082C75.2661 73.0324 74.7299 72.8907 74.3085 72.7132ZM73.1862 75.3919C72.6883 75.1825 72.1929 74.9667 71.6937 74.7624C71.6809 74.7446 71.6605 74.7254 71.6375 74.728C71.1562 74.2939 71.3783 73.4435 72.1074 73.7321C73.0471 74.1202 73.9932 74.6156 74.9775 74.9016C74.8256 75.2629 74.6737 75.6255 74.5217 75.9881C74.1451 75.7111 73.6076 75.5706 73.1862 75.3919ZM78.8411 87.3259C78.6317 87.8238 78.4146 88.3192 78.2103 88.8171C78.1912 88.8286 78.172 88.8516 78.1759 88.872C77.7405 89.3534 76.8901 89.1325 77.1774 88.4035C77.5668 87.4561 78.0852 86.496 78.3546 85.5014C78.7236 85.6546 79.0913 85.8091 79.459 85.9623C79.1679 86.3402 79.0236 86.8943 78.8411 87.3259ZM81.5848 88.4711C81.3754 88.9678 81.1597 89.4632 80.9541 89.9624C80.935 89.9752 80.9171 89.9956 80.9196 90.0173C80.4868 90.4974 79.6339 90.279 79.9225 89.5487C80.3093 88.6001 80.829 87.6425 81.0997 86.6479C81.4674 86.8011 81.8351 86.9556 82.2028 87.1088C81.9117 87.4867 81.7674 88.0409 81.5848 88.4711ZM84.2673 89.5909C84.0579 90.0875 83.8434 90.5842 83.6379 91.0821C83.6187 91.0949 83.5996 91.1166 83.6034 91.137C83.1655 91.6196 82.3164 91.3937 82.605 90.6684C82.9931 89.7198 83.5115 88.7635 83.7822 87.7689C84.1499 87.9221 84.5176 88.0753 84.8853 88.2285C84.5942 88.6077 84.4512 89.1606 84.2673 89.5909ZM96.3354 83.8505C96.8333 84.0599 97.3287 84.2757 97.8292 84.4799C97.8407 84.4991 97.8637 84.5182 97.8854 84.5144C98.3629 84.9575 98.1548 85.7925 97.4142 85.5116C96.4758 85.1222 95.5284 84.6268 94.5453 84.342C94.696 83.9794 94.8492 83.6181 94.9999 83.2555C95.3778 83.5326 95.914 83.673 96.3354 83.8505ZM97.4819 81.1118C97.9811 81.3199 98.4765 81.537 98.977 81.7413C98.9885 81.7591 99.0115 81.7783 99.0319 81.7757C99.5132 82.2086 99.2911 83.0602 98.5621 82.7729C97.6236 82.3835 96.6763 81.8881 95.6931 81.6021C95.8451 81.2408 95.997 80.8794 96.149 80.5181C96.5256 80.7939 97.0618 80.9343 97.4819 81.1118ZM95.794 80.9586C94.7292 83.5773 93.5609 86.1563 92.5255 88.7852C92.122 89.43 91.7122 89.9956 90.918 90.1616C90.3882 90.2752 89.8404 90.1335 89.3553 89.9203C86.8502 88.8746 84.3452 87.8302 81.8402 86.7871C79.2624 85.7401 76.7191 84.6038 74.1336 83.576C72.8581 83.1061 72.3014 81.9762 72.7036 80.6867C74.9648 75.4379 77.1327 70.1316 79.3428 64.8611C80.0999 63.583 81.1418 63.3966 82.4773 63.9099C83.6289 64.4346 84.8227 64.8853 85.9897 65.3731C89.8392 66.9805 93.6886 68.5905 97.5381 70.1967C97.9518 70.4406 98.4101 70.6206 98.7204 71.0138C99.3447 71.7084 99.2285 72.6558 98.931 73.4563C97.8841 75.9562 96.8384 78.4574 95.794 80.9586ZM100.113 80.1351C99.9639 80.1887 99.8261 80.1057 99.6831 80.093C98.7446 79.7048 97.7985 79.2107 96.8167 78.9234C96.9674 78.5634 97.1193 78.2008 97.2712 77.8395C98.1573 78.3489 99.1736 78.6259 100.098 79.0626C100.111 79.0805 100.131 79.0996 100.153 79.0971C100.457 79.3588 100.549 79.9615 100.113 80.1351Z" fill="black"/>
<defs>
<linearGradient id="paint0_linear_2513_27566" x1="56.5" y1="0" x2="56.5" y2="113" gradientUnits="userSpaceOnUse">
<stop stop-color="#02B676"/>
<stop offset="0.989583" stop-color="#02B676" stop-opacity="0"/>
</linearGradient>
</defs>
</svg>
