<svg width="113" height="113" viewBox="0 0 113 113" fill="none" xmlns="http://www.w3.org/2000/svg">
<rect width="113" height="113" rx="56.5" fill="url(#paint0_linear_2516_109232)" fill-opacity="0.2"/>
<path d="M64.3637 36.997L64.3574 36.9769C64.3637 36.9983 64.365 37.002 64.3637 36.997Z" fill="black"/>
<path d="M102.667 60.4761C102.416 61.5858 101.965 62.6293 101.353 63.5637C101.36 63.5837 101.348 63.6068 101.322 63.6099C99.3051 66.7636 95.2507 68.4633 91.5661 67.6531C91.5512 67.6618 91.53 67.6574 91.5181 67.6431C87.7855 66.9401 84.7379 63.7265 84.1428 60.0133C84.1235 60.0014 84.1222 59.9796 84.1347 59.9659C83.7436 57.7759 84.2158 55.3862 85.4015 53.4981C85.3947 53.4782 85.4053 53.4551 85.4302 53.452C86.9335 51.0081 89.6381 49.2803 92.5411 49.0407C92.5542 49.027 92.5698 49.0283 92.5822 49.0364C93.6021 48.9472 94.6307 49.0227 95.6231 49.2559C95.638 49.2478 95.6592 49.2534 95.6705 49.2672C99.4872 50.108 102.475 53.5942 102.831 57.4365C102.853 57.4496 102.853 57.4758 102.837 57.4902C102.938 58.477 102.885 59.485 102.667 60.4761Z" fill="#FEC801"/>
<path d="M102.837 57.4902C102.853 57.4758 102.853 57.4496 102.831 57.4365C102.475 53.5942 99.4872 50.108 95.6705 49.2672C95.6592 49.2534 95.638 49.2478 95.6231 49.2559C94.6307 49.0227 93.6021 48.9472 92.5822 49.0364C92.5698 49.0283 92.5542 49.027 92.5411 49.0407C89.6381 49.2803 86.9335 51.0081 85.4302 53.452C85.4053 53.4551 85.3947 53.4782 85.4015 53.4981C84.2158 55.3862 83.7436 57.7759 84.1347 59.9659C84.1222 59.9796 84.1235 60.0014 84.1428 60.0133C84.7379 63.7265 87.7855 66.9401 91.5181 67.6431C91.53 67.6568 91.5512 67.6618 91.5661 67.6531C95.2507 68.4633 99.3051 66.7636 101.322 63.6099C101.348 63.6068 101.36 63.5837 101.353 63.5637C102.521 61.8109 103.069 59.5835 102.837 57.4902ZM102.552 60.6427C101.273 60.3582 99.995 60.0738 98.7163 59.7893C99.0406 58.2487 99.1829 56.6624 99.1223 55.0856C100.421 55.7437 101.652 56.5439 102.766 57.4777C102.872 58.5287 102.807 59.606 102.552 60.6427ZM88.5278 57.5956C90.1858 57.9649 91.8437 58.3341 93.501 58.7028C93.1243 60.3875 92.7488 62.0729 92.3714 63.7577C90.8083 63.4327 89.2851 62.915 87.8442 62.2257C87.8124 60.6582 87.9652 59.0795 88.317 57.5488C88.3875 57.5644 88.4573 57.5806 88.5278 57.5956ZM88.3332 57.4777C88.6775 55.9065 89.2957 54.4076 89.9668 52.9579C91.5456 52.9317 93.1349 53.0958 94.6731 53.4588C94.287 55.1829 93.9021 56.9076 93.5166 58.6317C91.7888 58.2468 90.061 57.8619 88.3332 57.4777ZM92.5336 63.3697C92.8798 61.8197 93.226 60.2696 93.5728 58.719C95.2607 59.0945 96.9486 59.4706 98.6371 59.8461C98.3196 61.325 97.8318 62.7659 97.1831 64.1326C95.6 64.2043 93.9982 64.0914 92.4438 63.7727C92.4737 63.6386 92.503 63.5038 92.5336 63.3697ZM93.5884 58.6472C93.9738 56.9238 94.3587 55.1997 94.7436 53.4757C96.2418 53.8331 97.6983 54.3683 99.0731 55.0606C99.0406 55.0544 99.0587 55.4156 99.0594 55.4517C99.0849 56.9013 98.9521 58.356 98.652 59.775C96.9641 59.3995 95.2763 59.0234 93.5884 58.6472ZM101.14 53.0765C102.037 54.357 102.582 55.8422 102.756 57.3742C101.633 56.4423 100.402 55.6426 99.098 54.9877C99.0781 53.4831 98.8304 51.9581 98.4219 50.5066C99.4798 51.1671 100.412 52.0354 101.14 53.0765ZM95.6686 49.3376C96.6111 49.5716 97.5149 49.9514 98.3433 50.4579C98.7487 51.9231 98.9758 53.4395 99.0431 54.9608C97.6808 54.2816 96.2393 53.7601 94.7592 53.4089C95.0623 52.0516 95.3655 50.6943 95.6686 49.3376ZM92.5847 49.1006C93.6027 49.0058 94.6201 49.0857 95.5975 49.3202C95.2943 50.6775 94.9912 52.0348 94.688 53.3921C93.1636 53.0353 91.5967 52.8588 90.0323 52.8806C90.734 51.5302 91.5805 50.2465 92.5847 49.1006ZM92.1387 49.1536C92.2523 49.1374 92.3652 49.1231 92.4793 49.1112C91.5212 50.2465 90.5937 51.5364 89.9793 52.8812C88.4779 52.9043 86.9803 53.097 85.5157 53.4326C86.9722 51.1434 89.4154 49.5454 92.1387 49.1536ZM84.6499 55.186C84.8632 54.5997 85.1364 54.0427 85.4608 53.52C86.9223 53.18 88.413 52.9866 89.9088 52.9592C89.1828 54.3901 88.6289 55.9021 88.2652 57.4627C86.9304 57.1652 85.5949 56.8683 84.2601 56.5708C84.3555 56.1004 84.4852 55.637 84.6499 55.186ZM84.2463 56.6425C85.5799 56.9394 86.9141 57.2369 88.249 57.5332C87.8959 59.0577 87.7388 60.6271 87.7687 62.1896C86.5043 61.5777 85.3024 60.8298 84.1977 59.964C84.0124 58.8643 84.0336 57.7353 84.2463 56.6425ZM86.5131 64.7208C85.3279 63.4252 84.5301 61.7941 84.2164 60.07C85.3211 60.9277 86.5143 61.6637 87.7706 62.2682C87.8005 63.5849 87.9571 64.9017 88.2334 66.1904C87.6071 65.7749 87.0277 65.2828 86.5131 64.7208ZM91.52 67.5695C90.386 67.3275 89.2982 66.879 88.3207 66.2465C88.0407 64.9485 87.8785 63.628 87.8467 62.3043C89.2826 62.988 90.7989 63.4995 92.3571 63.8232C92.0782 65.072 91.7994 66.3201 91.52 67.5695ZM91.5917 67.5845C91.8712 66.3357 92.15 65.0863 92.4288 63.8375C93.9751 64.1538 95.5669 64.2823 97.1457 64.2112C96.5637 65.4225 95.8626 66.5758 95.0498 67.6443C93.8965 67.8433 92.7226 67.8165 91.5917 67.5845ZM100.181 64.9322C98.8379 66.3213 97.0546 67.272 95.1546 67.6256C95.9605 66.5584 96.6529 65.4119 97.2243 64.2087C98.5741 64.1451 99.917 63.9442 101.232 63.6311C100.923 64.0933 100.571 64.5293 100.181 64.9322ZM101.291 63.5425C99.9675 63.8625 98.6184 64.0633 97.2617 64.1295C97.9017 62.7665 98.3851 61.3325 98.7007 59.8605C99.9788 60.1455 101.256 60.4293 102.534 60.7138C102.277 61.7211 101.856 62.6767 101.291 63.5425Z" fill="black"/>
<mask id="mask0_2516_109232" style="mask-type:luminance" maskUnits="userSpaceOnUse" x="5" y="20" width="51" height="51">
<path d="M5 41.6946L31.1664 20.0001L55.025 48.7766L28.8586 70.4712L5 41.6946Z" fill="white"/>
</mask>
<g mask="url(#mask0_2516_109232)">
<path d="M40.7072 31.9724C44.902 43.2991 43.44 57.4327 34.286 65.9708C28.2134 64.9439 22.6144 61.8937 18.3958 57.3634C14.3628 52.9114 11.1614 47.3026 9.88153 41.4585C15.6928 38.7509 20.0043 33.3135 22.3616 27.5614C22.3502 27.5458 22.3425 27.5271 22.3462 27.5069C22.3491 27.484 22.3637 27.4562 22.3836 27.4461C27.6984 31.0141 34.3194 32.8877 40.7072 31.9724Z" fill="white"/>
</g>
<mask id="mask1_2516_109232" style="mask-type:luminance" maskUnits="userSpaceOnUse" x="5" y="21" width="48" height="50">
<path d="M5.47852 41.2977L29.0283 21.7727L52.8869 50.5492L29.3371 70.0743L5.47852 41.2977Z" fill="white"/>
</mask>
<g mask="url(#mask1_2516_109232)">
<path d="M42.3612 38.2422C43.4384 44.466 43.0826 51.0625 40.5625 56.915C39.0892 60.316 36.9538 63.3988 34.2852 65.9688C33.4855 65.8573 32.6901 65.6544 31.9103 65.4589C31.8963 65.4345 31.8832 65.4092 31.8684 65.3839C32.6382 65.5861 33.4346 65.7599 34.2563 65.9019C32.3849 59.8379 30.5439 53.871 28.6922 47.8629C23.9781 49.3238 19.2579 50.7866 14.5571 52.2427C11.0305 46.6464 9.9099 41.5201 9.9099 41.5201C18.3637 37.531 21.8173 29.128 22.4147 27.5148L22.4139 27.5139C22.4169 27.5099 22.4181 27.5057 22.4194 27.5015C22.5766 27.6079 22.8335 27.7759 22.971 27.9645C22.8355 27.873 22.7001 27.7815 22.5656 27.6892C24.5702 34.4 26.693 41.0755 28.7382 47.7746C33.4151 46.3257 38.0911 44.8776 42.7681 43.4287C42.7058 41.7101 42.5231 39.9958 42.2304 38.302C42.2719 38.2801 42.3166 38.2603 42.3612 38.2422Z" fill="#F7562B"/>
</g>
<mask id="mask2_2516_109232" style="mask-type:luminance" maskUnits="userSpaceOnUse" x="5" y="20" width="50" height="51">
<path d="M5 41.6946L30.9286 20.1973L54.7872 48.9739L28.8586 70.4712L5 41.6946Z" fill="white"/>
</mask>
<g mask="url(#mask2_2516_109232)">
<path d="M22.383 27.4457C22.3632 27.4558 22.3486 27.4836 22.3456 27.5065C22.342 27.5267 22.3497 27.5454 22.3611 27.5611C20.026 33.3872 15.5771 38.7252 9.84043 41.534C11.3221 47.3927 14.3106 52.913 18.3952 57.3631C22.6138 61.8933 28.2128 64.9436 34.2862 65.9714C40.3728 60.2335 43.321 51.7541 42.912 43.4806C42.681 39.6032 42.1874 35.4638 40.6307 31.9315C34.2361 32.9747 27.6756 30.9396 22.383 27.4457ZM14.006 51.201C12.239 48.1848 10.8234 44.9133 9.98035 41.5137C15.7611 38.9207 20.0784 33.5052 22.4203 27.7063C24.4373 34.4226 26.5546 41.1121 28.605 47.8195C23.9333 49.2671 19.2625 50.714 14.5918 52.1609C14.3916 51.8439 14.1969 51.524 14.006 51.201ZM14.6686 52.2838C19.3277 50.8419 23.9863 49.3972 28.6464 47.9545C30.4826 53.908 32.3198 59.8608 34.156 65.8143C26.0287 64.4558 18.9481 59.244 14.6686 52.2838ZM42.7193 47.0929C42.3221 54.0876 39.355 60.897 34.293 65.7791C32.4545 59.8228 30.6184 53.8676 28.7806 47.9122C33.4461 46.4665 38.1115 45.0225 42.7745 43.5757C42.8131 44.7495 42.7952 45.923 42.7193 47.0929ZM42.7691 43.4312C38.0922 44.8801 33.4152 46.329 28.7392 47.7771C26.694 41.078 24.5722 34.4017 22.5666 27.6917C27.7206 31.2473 34.4772 33.0821 40.593 32.0694C41.9226 35.7023 42.6097 39.5683 42.7691 43.4312Z" fill="black"/>
</g>
<path d="M89.9497 77.5425C89.9497 77.6088 89.9108 77.6523 89.8628 77.6706C89.9405 79.0911 87.9344 79.5486 86.7426 79.3473C67.8614 79.4411 48.8932 79.5166 30.0532 79.3611C28.8317 79.5235 26.9033 79.0339 27.0428 77.6065C27.0245 67.0336 26.9468 56.4355 27.0611 45.8649C26.7935 44.3368 28.8111 43.8152 30.0669 43.9891C46.7727 43.8519 63.5563 43.9891 80.2849 43.9731C82.4032 43.9754 84.5374 43.9251 86.6557 44.0188C87.8703 43.7672 90.0709 44.2522 89.8513 45.81C90.1693 56.2891 89.8651 66.9924 89.9497 77.5425Z" fill="white"/>
<path d="M49.2194 68.4893C49.2262 68.5693 49.1942 68.6585 49.0913 68.6585H33.9387C33.8495 68.6608 33.7923 68.5716 33.8083 68.4893C34.3596 65.0442 37.2122 62.2718 40.6686 61.9126C36.5831 60.993 37.2534 55.0226 41.4166 54.9677C45.5548 55.089 46.2044 60.8238 42.279 61.9195C45.7744 62.2969 48.6521 64.9527 49.2194 68.4893Z" fill="#02B676"/>
<path d="M42.2814 61.9195C46.2091 60.8238 45.5548 55.089 41.419 54.9677C37.2557 55.0226 36.5855 60.993 40.671 61.9126C37.2145 62.2718 34.362 65.0442 33.8107 68.4893C33.797 68.5716 33.8519 68.6608 33.9411 68.6585H49.0936C49.1943 68.6585 49.2286 68.5693 49.2217 68.4893C48.6544 64.9527 45.7767 62.2969 42.2814 61.9195ZM38.1616 58.4882C38.3102 54.2174 44.5003 54.1785 44.6787 58.4905C44.4728 62.7727 38.3514 62.791 38.1616 58.4882ZM34.1012 68.3909C35.6819 60.1512 47.3665 60.1352 48.9312 68.3909H34.1012Z" fill="black"/>
<path d="M83.0167 69.8759C73.6081 69.9331 64.124 69.7798 54.7223 69.9216C54.5965 69.9354 54.5965 70.1023 54.7223 70.1184C63.7786 70.2556 73.361 70.1092 82.4173 70.1618C82.6141 70.1641 82.8176 70.1595 83.0167 70.1618C83.2019 70.1618 83.2019 69.8759 83.0167 69.8759Z" fill="black"/>
<path d="M89.936 45.9335C89.936 45.8672 89.8971 45.826 89.8513 45.81C90.0709 44.2522 87.8703 43.7672 86.6557 44.0188C84.5374 43.9251 82.4032 43.9754 80.2849 43.9731C63.5563 43.9891 46.7727 43.8519 30.0669 43.9891C28.8111 43.8152 26.7935 44.3368 27.0611 45.8649C26.9468 56.4355 27.0245 67.0336 27.0428 77.6065C26.9033 79.0339 28.8317 79.5235 30.0532 79.3611C48.8932 79.5166 67.8614 79.4411 86.7426 79.3473C87.9344 79.5486 89.9405 79.0911 89.8628 77.6706C90.1144 67.1869 89.9222 56.4881 89.936 45.9335ZM89.6546 77.2863C89.4876 79.3062 88.1334 78.9287 86.6259 79.2032C67.7882 79.0888 48.9207 79.1117 30.0898 79.1552C28.8866 79.0179 27.386 79.1163 27.3173 77.5653C27.3196 67.0061 27.402 56.4286 27.2945 45.8717C27.3425 44.2613 28.8225 44.2911 30.0669 44.1973C49.552 44.5724 69.2133 43.726 88.6641 44.458C89.5562 44.7623 89.4396 45.3502 89.6592 46.0776C89.6134 56.4744 89.6454 66.8872 89.6546 77.2863Z" fill="black"/>
<path d="M83.0195 63.8274C73.6064 63.88 64.1338 63.7313 54.7252 63.8708C54.286 64.1568 55.4686 64.1019 55.6127 64.1293C64.5318 64.0881 73.5034 64.1179 82.4202 64.111C82.4225 64.111 83.0195 64.111 83.0195 64.111C83.2048 64.111 83.2048 63.8274 83.0195 63.8274Z" fill="black"/>
<path d="M83.1488 52.1433C83.1305 52.093 83.087 52.0541 83.0184 52.0541C79.6306 52.0541 76.0597 52.0541 72.4866 52.0541C68.0877 52.0404 63.6682 52.0244 59.3128 52.0518C57.7801 52.0266 56.2452 51.9923 54.724 52.0976C54.66 52.1067 54.6279 52.1525 54.6279 52.1959C54.6279 52.2188 54.6371 52.2417 54.6531 52.26C54.6691 52.2783 54.692 52.2897 54.724 52.2943C58.2056 52.3469 61.6987 52.3583 65.194 52.3538C69.8125 52.3515 74.4356 52.324 79.0472 52.3286C80.1727 52.3286 81.2959 52.3332 82.419 52.34C82.419 52.34 82.8582 52.34 82.9841 52.34C82.9955 52.34 83.0069 52.34 83.0184 52.34C83.1099 52.34 83.1579 52.2668 83.1579 52.1959C83.1579 52.1776 83.1533 52.1616 83.1488 52.1433Z" fill="black"/>
<path d="M83.0167 58.11C74.0862 58.1649 63.6802 58.0117 54.7223 58.1535C54.5965 58.1695 54.5965 58.3365 54.7223 58.3479C63.925 58.4875 73.2078 58.3411 82.4173 58.3937C82.4196 58.3937 83.0167 58.3937 83.0167 58.3937C83.2019 58.3937 83.2019 58.11 83.0167 58.11Z" fill="black"/>
<path fill-rule="evenodd" clip-rule="evenodd" d="M69 69V91.716L73.5793 85.955L77.0335 94.5607L80.8424 93.0319L77.3099 84.231L85 85L69 69Z" fill="white"/>
<path d="M69 91.716H68.8025V92.282L69.1546 91.839L69 91.716ZM69 69L69.1397 68.8603L68.8025 68.5231V69H69ZM73.5793 85.955L73.7626 85.8814L73.6361 85.5661L73.4247 85.832L73.5793 85.955ZM77.0335 94.5607L76.8502 94.6343L76.9238 94.8176L77.1071 94.744L77.0335 94.5607ZM80.8424 93.0319L80.916 93.2152L81.0993 93.1416L81.0257 92.9583L80.8424 93.0319ZM77.3099 84.231L77.3296 84.0344L77.0051 84.002L77.1266 84.3046L77.3099 84.231ZM85 85L84.9803 85.1966L85.531 85.2516L85.1397 84.8603L85 85ZM69.1975 91.716V69H68.8025V91.716H69.1975ZM73.4247 85.832L68.8454 91.5931L69.1546 91.839L73.734 86.0779L73.4247 85.832ZM77.2168 94.4871L73.7626 85.8814L73.396 86.0285L76.8502 94.6343L77.2168 94.4871ZM80.7688 92.8485L76.9599 94.3774L77.1071 94.744L80.916 93.2152L80.7688 92.8485ZM77.1266 84.3046L80.6591 93.1054L81.0257 92.9583L77.4932 84.1574L77.1266 84.3046ZM85.0197 84.8034L77.3296 84.0344L77.2903 84.4275L84.9803 85.1966L85.0197 84.8034ZM68.8603 69.1397L84.8603 85.1397L85.1397 84.8603L69.1397 68.8603L68.8603 69.1397Z" fill="black"/>
<defs>
<linearGradient id="paint0_linear_2516_109232" x1="56.5" y1="0" x2="56.5" y2="113" gradientUnits="userSpaceOnUse">
<stop stop-color="#02B676"/>
<stop offset="0.989583" stop-color="#02B676" stop-opacity="0"/>
</linearGradient>
</defs>
</svg>
