<svg width="56" height="56" viewBox="0 0 56 56" fill="none" xmlns="http://www.w3.org/2000/svg">
<rect x="0.666016" y="0.279297" width="55" height="55" rx="1.92652" fill="#F5F5F5"/>
<path fill-rule="evenodd" clip-rule="evenodd" d="M22.8698 15.6402C23.361 15.4764 23.8919 15.7419 24.0557 16.2331C24.2194 16.7243 23.9539 17.2552 23.4627 17.4189L23.2703 17.4831C21.3107 18.1363 19.773 19.674 19.1198 21.6336L19.0557 21.826C18.8919 22.3172 18.361 22.5827 17.8698 22.4189C17.3786 22.2552 17.1131 21.7243 17.2769 21.2331L17.341 21.0406C18.1809 18.5212 20.1579 16.5441 22.6774 15.7043L22.8698 15.6402ZM33.4637 15.6402C32.9726 15.4764 32.4416 15.7419 32.2779 16.2331C32.1142 16.7243 32.3796 17.2552 32.8708 17.4189L33.0633 17.4831C35.0229 18.1363 36.5606 19.674 37.2138 21.6336L37.2779 21.826C37.4416 22.3172 37.9726 22.5827 38.4638 22.4189C38.9549 22.2552 39.2204 21.7243 39.0567 21.2331L38.9925 21.0406C38.1527 18.5212 36.1757 16.5441 33.6562 15.7043L33.4637 15.6402ZM28.1657 17.779C24.1294 17.779 20.733 20.8925 20.2652 25.0215L19.8341 28.8271C19.727 29.7727 19.3438 30.6626 18.7351 31.379C17.4433 32.8995 18.4917 35.279 20.4534 35.279H35.878C37.8397 35.279 38.8881 32.8995 37.5963 31.379C36.9876 30.6626 36.6044 29.7727 36.4972 28.8271L36.0661 25.0215C35.5984 20.8925 32.202 17.779 28.1657 17.779ZM28.1656 40.2789C29.8613 40.2789 31.309 39.2779 31.8807 37.8683C31.9046 37.8095 31.9156 37.7464 31.9156 37.683C31.9156 37.3908 31.6787 37.1539 31.3865 37.1539H24.9447C24.6525 37.1539 24.4156 37.3908 24.4156 37.683C24.4156 37.7464 24.4266 37.8095 24.4505 37.8683C25.0222 39.2779 26.4699 40.2789 28.1656 40.2789Z" fill="#268334"/>
</svg>
