<svg width="55" height="56" viewBox="0 0 55 56" fill="none" xmlns="http://www.w3.org/2000/svg">
<rect y="0.779297" width="55" height="55" rx="1.92652" fill="#F5F5F5"/>
<path fill-rule="evenodd" clip-rule="evenodd" d="M20.5932 16.6739C22.7031 15.2673 25.4746 16.5569 25.8857 18.9253H30C31.8985 18.9253 33.4375 20.4643 33.4375 22.3628C33.4375 22.8806 33.0178 23.3003 32.5 23.3003C31.9822 23.3003 31.5625 22.8806 31.5625 22.3628C31.5625 21.4999 30.8629 20.8003 30 20.8003H25.9375V36.4253H30C30.8629 36.4253 31.5625 35.7258 31.5625 34.8628C31.5625 34.345 31.9822 33.9253 32.5 33.9253C33.0178 33.9253 33.4375 34.345 33.4375 34.8628C33.4375 36.7613 31.8985 38.3003 30 38.3003H25.8857C25.4746 40.6687 22.7031 41.9583 20.5932 40.5517L18.0932 38.885C17.1369 38.2475 16.5625 37.1742 16.5625 36.0248V21.2008C16.5625 20.0514 17.1369 18.9781 18.0932 18.3406L20.5932 16.6739ZM31.9126 25.45C32.2787 25.8161 32.2787 26.4097 31.9126 26.7758L31.013 27.6754L37.4996 27.6754C38.0174 27.6754 38.4371 28.0951 38.4371 28.6129C38.4371 29.1306 38.0174 29.5504 37.4996 29.5504L31.013 29.5504L31.9126 30.4499C32.2787 30.8161 32.2787 31.4097 31.9126 31.7758C31.5464 32.1419 30.9529 32.1419 30.5867 31.7758L28.9706 30.1597C28.1164 29.3054 28.1163 27.9203 28.9706 27.0661L30.5867 25.4499C30.9529 25.0838 31.5464 25.0838 31.9126 25.45Z" fill="#268334"/>
</svg>
