<svg width="56" height="56" viewBox="0 0 56 56" fill="none" xmlns="http://www.w3.org/2000/svg">
<rect x="0.333984" y="0.279297" width="55" height="55" rx="1.92652" fill="#F5F5F5"/>
<path fill-rule="evenodd" clip-rule="evenodd" d="M32.3477 16.5303H23.3189C20.8747 16.5303 18.7888 18.2973 18.387 20.7083L16.3036 33.2083C15.7957 36.2559 18.1459 39.0303 21.2356 39.0303H27.8333C28.5237 39.0303 29.0833 38.4706 29.0833 37.7803V34.0303C29.0833 31.2689 31.3219 29.0303 34.0833 29.0303H37.1911C37.9635 29.0303 38.551 28.3367 38.4241 27.5748L37.2796 20.7083C36.8778 18.2973 34.7919 16.5303 32.3477 16.5303ZM32.5207 21.5303C32.5207 24.1191 30.422 26.2178 27.8332 26.2178C25.2444 26.2178 23.1457 24.1191 23.1457 21.5303V20.2803C23.1457 19.7625 23.5654 19.3428 24.0832 19.3428C24.601 19.3428 25.0207 19.7625 25.0207 20.2803V21.5303C25.0207 23.0836 26.2799 24.3428 27.8332 24.3428C29.3865 24.3428 30.6457 23.0836 30.6457 21.5303V20.2803C30.6457 19.7625 31.0654 19.3428 31.5832 19.3428C32.101 19.3428 32.5207 19.7625 32.5207 20.2803V21.5303ZM35.6545 32.474L35.9859 32.1425C36.9012 31.2272 38.3852 31.2272 39.3005 32.1425C40.2158 33.0578 40.2158 34.5418 39.3005 35.4571L36.9803 37.7773C36.2481 38.5095 35.0609 38.5095 34.3287 37.7773L32.0085 35.4571C31.0932 34.5418 31.0932 33.0578 32.0085 32.1425C32.9238 31.2272 34.4077 31.2272 35.323 32.1425L35.6545 32.474Z" fill="#268334"/>
</svg>
