<svg width="56" height="56" viewBox="0 0 56 56" fill="none" xmlns="http://www.w3.org/2000/svg">
<rect x="0.333984" y="0.279297" width="55" height="55" rx="1.92652" fill="#F5F5F5"/>
<path fill-rule="evenodd" clip-rule="evenodd" d="M20.9272 16.1739C23.0371 14.7673 25.8086 16.0569 26.2196 18.4253H30.334C32.2325 18.4253 33.7715 19.9643 33.7715 21.8628C33.7715 22.3806 33.3517 22.8003 32.834 22.8003C32.3162 22.8003 31.8965 22.3806 31.8965 21.8628C31.8965 20.9999 31.1969 20.3003 30.334 20.3003H26.2715V35.9253H30.334C31.1969 35.9253 31.8965 35.2258 31.8965 34.3628C31.8965 33.845 32.3162 33.4253 32.834 33.4253C33.3517 33.4253 33.7715 33.845 33.7715 34.3628C33.7715 36.2613 32.2325 37.8003 30.334 37.8003H26.2196C25.8086 40.1687 23.0371 41.4583 20.9272 40.0517L18.4272 38.385C17.4709 37.7475 16.8965 36.6742 16.8965 35.5248V20.7008C16.8965 19.5514 17.4709 18.4781 18.4272 17.8406L20.9272 16.1739ZM32.2465 24.95C32.6127 25.3161 32.6127 25.9097 32.2465 26.2758L31.347 27.1754L37.8336 27.1754C38.3514 27.1754 38.7711 27.5951 38.7711 28.1129C38.7711 28.6306 38.3514 29.0504 37.8336 29.0504L31.347 29.0504L32.2465 29.9499C32.6127 30.3161 32.6127 30.9097 32.2465 31.2758C31.8804 31.6419 31.2868 31.6419 30.9207 31.2758L29.3046 29.6597C28.4503 28.8054 28.4503 27.4203 29.3046 26.5661L30.9207 24.9499C31.2868 24.5838 31.8804 24.5838 32.2465 24.95Z" fill="#268334"/>
</svg>
