<svg width="55" height="56" viewBox="0 0 55 56" fill="none" xmlns="http://www.w3.org/2000/svg">
<rect y="0.779297" width="55" height="55" rx="1.92652" fill="#F5F5F5"/>
<path fill-rule="evenodd" clip-rule="evenodd" d="M32.0137 17.0303H22.985C20.5408 17.0303 18.4548 18.7973 18.053 21.2083L15.9697 33.7083C15.4617 36.7559 17.8119 39.5303 20.9016 39.5303H27.4993C28.1897 39.5303 28.7493 38.9706 28.7493 38.2803V34.5303C28.7493 31.7689 30.9879 29.5303 33.7493 29.5303H36.8571C37.6295 29.5303 38.2171 28.8367 38.0901 28.0748L36.9457 21.2083C36.5438 18.7973 34.4579 17.0303 32.0137 17.0303ZM32.1867 22.0303C32.1867 24.6191 30.088 26.7178 27.4992 26.7178C24.9104 26.7178 22.8117 24.6191 22.8117 22.0303V20.7803C22.8117 20.2625 23.2314 19.8428 23.7492 19.8428C24.267 19.8428 24.6867 20.2625 24.6867 20.7803V22.0303C24.6867 23.5836 25.9459 24.8428 27.4992 24.8428C29.0525 24.8428 30.3117 23.5836 30.3117 22.0303V20.7803C30.3117 20.2625 30.7314 19.8428 31.2492 19.8428C31.767 19.8428 32.1867 20.2625 32.1867 20.7803V22.0303ZM35.3205 32.974L35.652 32.6425C36.5672 31.7272 38.0512 31.7272 38.9665 32.6425C39.8818 33.5578 39.8818 35.0418 38.9665 35.9571L36.6463 38.2773C35.9141 39.0095 34.7269 39.0095 33.9947 38.2773L31.6745 35.9571C30.7592 35.0418 30.7592 33.5578 31.6745 32.6425C32.5898 31.7272 34.0738 31.7272 34.989 32.6425L35.3205 32.974Z" fill="#268334"/>
</svg>
