<svg width="321" height="320" viewBox="0 0 321 320" fill="none" xmlns="http://www.w3.org/2000/svg">
<path d="M164.689 165.51C164.689 165.51 183.933 173.325 188.142 189.275C192.358 205.221 179.595 194.13 179.595 194.13L164.689 165.51Z" fill="#8BA79E"/>
<path d="M151.892 150.958L207.137 159.152L198.831 147.894C198.831 147.894 133.418 128.698 119.029 116.229L151.892 150.958Z" fill="#8BA79E"/>
<path fill-rule="evenodd" clip-rule="evenodd" d="M164.805 136.904C169.731 142.009 174.423 147.367 178.773 152.932C179.36 153.687 179.948 154.442 180.52 155.204L207.137 159.152L198.831 147.895C198.831 147.895 182.762 143.176 164.805 136.904ZM165.652 167.373L164.689 165.51C164.689 165.51 183.933 173.325 188.142 189.275C190.035 196.432 188.503 198.142 186.242 197.852C185.212 190.982 182.532 184.401 178.379 178.772C174.936 174.099 170.579 170.232 165.652 167.373Z" fill="url(#paint0_linear_6123_6655)"/>
<path d="M191.11 161.153C201.074 174.664 213.857 182.033 219.66 177.62C225.464 173.207 222.092 158.677 212.135 145.166C202.171 131.663 189.389 124.29 183.578 128.711C177.782 133.124 181.146 147.65 191.11 161.153Z" fill="#8BA79E"/>
<path d="M207.252 159.77C203.356 152.788 198.63 146.36 193.901 139.95C190.819 135.775 187.019 132.246 182.736 129.499C182.997 129.209 183.268 128.941 183.577 128.711C189.388 124.29 202.17 131.663 212.134 145.166C222.091 158.677 225.463 173.207 219.659 177.62C218.889 178.207 217.993 178.579 217.008 178.765C214.383 172.136 210.721 165.972 207.252 159.77Z" fill="url(#paint1_linear_6123_6655)"/>
<path d="M69.9486 58.2587C69.9486 58.2587 70.5732 58.6231 71.696 59.3555C71.9674 59.5414 72.2834 59.7459 72.6255 59.9652C72.9675 60.192 73.3356 60.4486 73.7297 60.7163C74.1312 60.9914 74.5625 61.2814 75.0087 61.5937C75.4585 61.9134 75.9419 62.248 76.4363 62.6087C80.4368 65.4678 85.9431 69.7136 92.1669 75.1121C95.2714 77.8076 98.5692 80.7819 101.96 84.0017C105.354 87.2251 108.853 90.6791 112.37 94.3301C115.887 97.9848 119.434 101.822 122.948 105.796C124.71 107.778 126.461 109.789 128.201 111.838C129.937 113.879 131.648 115.942 133.358 118.024C136.756 122.189 140.069 126.412 143.251 130.639C146.434 134.867 149.475 139.09 152.33 143.247C155.19 147.4 157.87 151.478 160.32 155.416C162.774 159.346 165.012 163.127 167.013 166.666C169.009 170.217 170.76 173.526 172.259 176.496C173.753 179.467 174.995 182.114 175.977 184.319C176.965 186.524 177.687 188.29 178.155 189.513C178.639 190.732 178.862 191.402 178.862 191.402C182.669 202.44 178.821 209.147 170.269 206.389C168.173 205.716 165.897 204.463 163.745 202.901C163.745 202.901 163.168 202.492 162.157 201.685C161.135 200.882 159.67 199.678 157.866 198.094C156.056 196.514 153.907 194.565 151.52 192.268C149.129 189.97 146.497 187.338 143.705 184.393C140.92 181.452 137.972 178.207 134.945 174.712C131.926 171.209 128.822 167.454 125.699 163.498C122.576 159.543 119.442 155.39 116.348 151.103C113.248 146.82 110.184 142.392 107.206 137.908C105.715 135.662 104.25 133.409 102.808 131.145C101.373 128.877 99.9523 126.602 98.5692 124.334C95.8068 119.794 93.1856 115.251 90.7244 110.797C88.2631 106.335 85.9766 101.963 83.8908 97.7468C81.8013 93.5344 79.9201 89.4856 78.2433 85.697C74.8934 78.1162 72.4321 71.5577 70.852 66.8508C70.6475 66.2634 70.4691 65.702 70.2943 65.1778C70.1233 64.6535 69.9746 64.1479 69.8296 63.6906C69.6809 63.2221 69.5507 62.7983 69.4318 62.3968C69.3091 62.0027 69.2124 61.642 69.112 61.3148C68.7402 60.0173 68.5655 59.3109 68.5655 59.3109C68.3052 58.2327 68.8443 57.7159 69.7627 58.1583L69.9486 58.2587Z" fill="#9ED7C1"/>
<path d="M76.9844 79.3691C76.9844 79.3691 132.742 160.677 164.702 196.967C164.702 196.967 133.943 176.6 76.9844 79.3691Z" fill="url(#paint2_linear_6123_6655)"/>
<path d="M76.4629 68.5586C76.4629 68.5586 159.38 158.202 175.114 199.184C175.114 199.184 129.823 97.644 76.4629 68.5586Z" fill="url(#paint3_linear_6123_6655)"/>
<path d="M129.031 168.344L121.238 224.481L112.936 213.223C112.936 213.223 113.204 144.073 105.467 126.547L129.031 168.344Z" fill="#9ED7C1"/>
<path d="M123.338 195.09C119.3 189.286 115.564 183.207 112.121 176.969C112.999 196.235 112.935 213.222 112.935 213.222L121.237 224.48L124.996 197.432C124.439 196.659 123.885 195.874 123.338 195.09Z" fill="url(#paint4_linear_6123_6655)"/>
<path d="M127.643 209.426C137.599 222.929 140.972 237.463 135.168 241.876C129.357 246.289 116.578 238.92 106.618 225.413C96.6538 211.902 93.2891 197.376 99.0928 192.959C104.896 188.546 117.679 195.918 127.643 209.426Z" fill="#9ED7C1"/>
<path d="M121.783 224.774C116.277 219.008 111.544 212.59 106.815 206.173C103.733 202.005 101.472 197.306 100.082 192.357C99.7322 192.525 99.4013 192.729 99.0928 192.96C93.2891 197.377 96.6538 211.903 106.618 225.414C116.578 238.921 129.357 246.29 135.168 241.877C135.934 241.289 136.532 240.527 136.986 239.616C131.461 235.195 126.669 229.886 121.783 224.774Z" fill="url(#paint5_linear_6123_6655)"/>
<path d="M143.52 181.609C143.52 181.609 145.49 202.556 159.38 211.152C173.259 219.744 166.374 204.185 166.374 204.185L143.52 181.609Z" fill="#C7E5E6"/>
<path d="M151.212 195.734C148.323 191.815 146.148 187.432 144.739 182.814L143.52 181.609C143.52 181.609 145.49 202.556 159.38 211.152C167.66 216.275 168.545 212.81 167.92 209.174C161.354 206.252 155.562 201.634 151.212 195.734Z" fill="url(#paint6_linear_6123_6655)"/>
<g clip-path="url(#clip0_6123_6655)">
<path d="M18.5 238C18.5 159.576 82.0756 96 160.5 96C238.924 96 302.5 159.576 302.5 238V263H18.5V238Z" fill="url(#paint7_linear_6123_6655)"/>
<path d="M290.5 222.415V466.37H238.937C269.007 413.817 280.442 367.756 281.144 328.521C283.036 223.915 208.646 167.865 207.5 167C243.326 177.795 270.311 197.478 290.5 222.415Z" fill="url(#paint8_linear_6123_6655)"/>
<path d="M167.6 302.436L410.163 328.452L415.662 277.183C360.202 301.477 313.184 307.935 274.098 304.449C169.887 295.174 122.089 215.231 121.352 214C128.264 250.773 144.958 279.703 167.6 302.436Z" fill="url(#paint9_linear_6123_6655)"/>
<path d="M264.323 290.481V393.098H5.5V290.025C38.8655 336.013 96.1806 392.428 160.594 358.055C262.281 303.783 146.318 176.648 146.318 176.648L147.196 170C200.34 206.433 234.635 243.264 256.469 277.389C259.293 281.803 261.904 286.167 264.323 290.481Z" fill="url(#paint10_linear_6123_6655)"/>
<path d="M164.689 165.51C164.689 165.51 183.933 173.325 188.142 189.275C192.358 205.221 179.595 194.13 179.595 194.13L164.689 165.51Z" fill="#8BA79E"/>
<path d="M151.892 150.958L207.137 159.152L198.831 147.894C198.831 147.894 133.418 128.698 119.029 116.229L151.892 150.958Z" fill="#8BA79E"/>
<path fill-rule="evenodd" clip-rule="evenodd" d="M164.805 136.904C169.731 142.009 174.423 147.367 178.773 152.932C179.36 153.687 179.948 154.442 180.52 155.204L207.137 159.152L198.831 147.895C198.831 147.895 182.762 143.176 164.805 136.904ZM165.652 167.373L164.689 165.51C164.689 165.51 183.933 173.325 188.142 189.275C190.035 196.432 188.503 198.142 186.242 197.852C185.212 190.982 182.532 184.401 178.379 178.772C174.936 174.099 170.579 170.232 165.652 167.373Z" fill="url(#paint11_linear_6123_6655)"/>
<path d="M191.11 161.153C201.074 174.664 213.857 182.033 219.66 177.62C225.464 173.207 222.092 158.677 212.135 145.166C202.171 131.663 189.389 124.29 183.578 128.711C177.782 133.124 181.146 147.65 191.11 161.153Z" fill="#8BA79E"/>
<path d="M207.252 159.77C203.356 152.788 198.63 146.36 193.901 139.95C190.819 135.775 187.019 132.246 182.736 129.499C182.997 129.209 183.268 128.941 183.577 128.711C189.388 124.29 202.17 131.663 212.134 145.166C222.091 158.677 225.463 173.207 219.659 177.62C218.889 178.207 217.993 178.579 217.008 178.765C214.383 172.136 210.721 165.972 207.252 159.77Z" fill="url(#paint12_linear_6123_6655)"/>
<path d="M69.9486 58.2587C69.9486 58.2587 70.5732 58.6231 71.696 59.3555C71.9674 59.5414 72.2834 59.7459 72.6255 59.9652C72.9675 60.192 73.3356 60.4486 73.7297 60.7163C74.1312 60.9914 74.5625 61.2814 75.0087 61.5937C75.4585 61.9134 75.9419 62.248 76.4363 62.6087C80.4368 65.4678 85.9431 69.7136 92.1669 75.1121C95.2714 77.8076 98.5692 80.7819 101.96 84.0017C105.354 87.2251 108.853 90.6791 112.37 94.3301C115.887 97.9848 119.434 101.822 122.948 105.796C124.71 107.778 126.461 109.789 128.201 111.838C129.937 113.879 131.648 115.942 133.358 118.024C136.756 122.189 140.069 126.412 143.251 130.639C146.434 134.867 149.475 139.09 152.33 143.247C155.19 147.4 157.87 151.478 160.32 155.416C162.774 159.346 165.012 163.127 167.013 166.666C169.009 170.217 170.76 173.526 172.259 176.496C173.753 179.467 174.995 182.114 175.977 184.319C176.965 186.524 177.687 188.29 178.155 189.513C178.639 190.732 178.862 191.402 178.862 191.402C182.669 202.44 178.821 209.147 170.269 206.389C168.173 205.716 165.897 204.463 163.745 202.901C163.745 202.901 163.168 202.492 162.157 201.685C161.135 200.882 159.67 199.678 157.866 198.094C156.056 196.514 153.907 194.565 151.52 192.268C149.129 189.97 146.497 187.338 143.705 184.393C140.92 181.452 137.972 178.207 134.945 174.712C131.926 171.209 128.822 167.454 125.699 163.498C122.576 159.543 119.442 155.39 116.348 151.103C113.248 146.82 110.184 142.392 107.206 137.908C105.715 135.662 104.25 133.409 102.808 131.145C101.373 128.877 99.9523 126.602 98.5692 124.334C95.8068 119.794 93.1856 115.251 90.7244 110.797C88.2631 106.335 85.9766 101.963 83.8908 97.7468C81.8013 93.5344 79.9201 89.4856 78.2433 85.697C74.8934 78.1162 72.4321 71.5577 70.852 66.8508C70.6475 66.2634 70.4691 65.702 70.2943 65.1778C70.1233 64.6535 69.9746 64.1479 69.8296 63.6906C69.6809 63.2221 69.5507 62.7983 69.4318 62.3968C69.3091 62.0027 69.2124 61.642 69.112 61.3148C68.7402 60.0173 68.5655 59.3109 68.5655 59.3109C68.3052 58.2327 68.8443 57.7159 69.7627 58.1583L69.9486 58.2587Z" fill="#9ED7C1"/>
<path d="M76.9844 79.3691C76.9844 79.3691 132.742 160.677 164.702 196.967C164.702 196.967 133.943 176.6 76.9844 79.3691Z" fill="url(#paint13_linear_6123_6655)"/>
<path d="M76.4629 68.5586C76.4629 68.5586 159.38 158.202 175.114 199.184C175.114 199.184 129.823 97.644 76.4629 68.5586Z" fill="url(#paint14_linear_6123_6655)"/>
<path d="M129.031 168.344L121.238 224.481L112.936 213.223C112.936 213.223 113.204 144.073 105.467 126.547L129.031 168.344Z" fill="#9ED7C1"/>
<path d="M123.338 195.09C119.3 189.286 115.564 183.207 112.121 176.969C112.999 196.235 112.935 213.222 112.935 213.222L121.237 224.48L124.996 197.432C124.439 196.659 123.885 195.874 123.338 195.09Z" fill="url(#paint15_linear_6123_6655)"/>
<path d="M127.643 209.426C137.599 222.929 140.972 237.463 135.168 241.876C129.357 246.289 116.578 238.92 106.618 225.413C96.6538 211.902 93.2891 197.376 99.0928 192.959C104.896 188.546 117.679 195.918 127.643 209.426Z" fill="#9ED7C1"/>
<path d="M121.783 224.774C116.277 219.008 111.544 212.59 106.815 206.173C103.733 202.005 101.472 197.306 100.082 192.357C99.7322 192.525 99.4013 192.729 99.0928 192.96C93.2891 197.377 96.6538 211.903 106.618 225.414C116.578 238.921 129.357 246.29 135.168 241.877C135.934 241.289 136.532 240.527 136.986 239.616C131.461 235.195 126.669 229.886 121.783 224.774Z" fill="url(#paint16_linear_6123_6655)"/>
<path d="M143.52 181.609C143.52 181.609 145.49 202.556 159.38 211.152C173.259 219.744 166.374 204.185 166.374 204.185L143.52 181.609Z" fill="#C7E5E6"/>
<path d="M151.212 195.734C148.323 191.815 146.148 187.432 144.739 182.814L143.52 181.609C143.52 181.609 145.49 202.556 159.38 211.152C167.66 216.275 168.545 212.81 167.92 209.174C161.354 206.252 155.562 201.634 151.212 195.734Z" fill="url(#paint17_linear_6123_6655)"/>
<path d="M256.218 202.718C258.29 204.837 260.319 207.076 262.323 209.406V213.918C261.714 213.09 261.094 212.281 260.465 211.478C258.524 209.005 256.526 206.636 254.485 204.387C252.459 202.117 250.391 199.968 248.323 197.902C244.179 193.774 239.997 190.014 235.879 186.628C231.763 183.23 227.738 180.162 223.87 177.38C216.135 171.837 209.061 167.473 203.144 164.058C197.22 160.66 192.443 158.213 189.15 156.619C185.857 155.015 184.066 154.25 184.066 154.25L184.177 153.998C184.177 153.998 185.978 154.757 189.277 156.34C192.576 157.934 197.39 160.315 203.382 163.634C209.356 166.953 216.532 171.161 224.441 176.526C228.404 179.197 232.548 182.159 236.785 185.458C241.023 188.759 245.379 192.37 249.727 196.389C251.898 198.398 254.083 200.491 256.218 202.718Z" fill="#F4F4F4"/>
<path d="M283.196 129.717C284.358 134.54 282.309 139.993 277.387 145.774C272.473 151.544 264.765 157.553 254.824 163.444C234.949 175.222 206.249 186.468 173.437 194.375C140.625 202.281 109.952 205.341 86.8936 203.909C75.3609 203.192 65.7621 201.354 58.7592 198.455C51.7438 195.551 47.4361 191.629 46.2739 186.806C45.1116 181.983 47.1604 176.53 52.0831 170.749C56.9971 164.979 64.7049 158.97 74.6455 153.079C94.5211 141.301 123.221 130.055 156.033 122.149C188.845 114.242 219.517 111.182 242.576 112.614C254.109 113.331 263.708 115.169 270.711 118.068C277.726 120.972 282.034 124.894 283.196 129.717Z" stroke="url(#paint18_linear_6123_6655)"/>
<path d="M204.179 84.3006C206.894 87.0155 207.759 91.4582 206.833 97.3259C205.909 103.18 203.218 110.342 198.981 118.344C190.51 134.344 175.92 153.602 157.211 172.311C138.502 191.02 119.244 205.61 103.245 214.081C95.2421 218.317 88.0805 221.009 82.2262 221.933C76.3585 222.858 71.9158 221.994 69.2009 219.279C66.486 216.564 65.6216 212.121 66.5473 206.254C67.4709 200.399 70.1626 193.238 74.3993 185.235C82.8697 169.236 97.4598 149.978 116.169 131.269C134.878 112.56 154.136 97.9694 170.135 89.499C178.138 85.2623 185.3 82.5706 191.154 81.647C197.022 80.7213 201.464 81.5857 204.179 84.3006Z" stroke="url(#paint19_linear_6123_6655)"/>
</g>
<defs>
<linearGradient id="paint0_linear_6123_6655" x1="185.913" y1="136.904" x2="185.913" y2="197.883" gradientUnits="userSpaceOnUse">
<stop stop-color="#38464E"/>
<stop offset="1" stop-color="#38464E" stop-opacity="0"/>
</linearGradient>
<linearGradient id="paint1_linear_6123_6655" x1="202.618" y1="127.428" x2="202.618" y2="178.765" gradientUnits="userSpaceOnUse">
<stop stop-color="#C5C6C4"/>
<stop offset="1" stop-color="#C5C6C4" stop-opacity="0"/>
</linearGradient>
<linearGradient id="paint2_linear_6123_6655" x1="120.843" y1="79.3691" x2="120.843" y2="196.967" gradientUnits="userSpaceOnUse">
<stop stop-color="#F4F4F4"/>
<stop offset="1" stop-color="#F4F4F4" stop-opacity="0"/>
</linearGradient>
<linearGradient id="paint3_linear_6123_6655" x1="125.789" y1="68.5586" x2="125.789" y2="199.184" gradientUnits="userSpaceOnUse">
<stop stop-color="#496774"/>
<stop offset="1" stop-color="#496774" stop-opacity="0"/>
</linearGradient>
<linearGradient id="paint4_linear_6123_6655" x1="118.559" y1="176.969" x2="118.559" y2="224.48" gradientUnits="userSpaceOnUse">
<stop stop-color="#496774"/>
<stop offset="1" stop-color="#496774" stop-opacity="0"/>
</linearGradient>
<linearGradient id="paint5_linear_6123_6655" x1="116.618" y1="192.357" x2="116.618" y2="243.156" gradientUnits="userSpaceOnUse">
<stop stop-color="#F4F4F4"/>
<stop offset="1" stop-color="#F4F4F4" stop-opacity="0"/>
</linearGradient>
<linearGradient id="paint6_linear_6123_6655" x1="155.8" y1="181.609" x2="155.8" y2="213.739" gradientUnits="userSpaceOnUse">
<stop stop-color="#F4F4F4"/>
<stop offset="1" stop-color="#F4F4F4" stop-opacity="0"/>
</linearGradient>
<linearGradient id="paint7_linear_6123_6655" x1="160.5" y1="96" x2="160.5" y2="229" gradientUnits="userSpaceOnUse">
<stop stop-color="#FFE7BA"/>
<stop offset="1" stop-color="#FFE7BA" stop-opacity="0"/>
</linearGradient>
<linearGradient id="paint8_linear_6123_6655" x1="201.5" y1="151" x2="253.5" y2="234" gradientUnits="userSpaceOnUse">
<stop stop-color="#FAB95D"/>
<stop offset="1" stop-color="#FAB95D" stop-opacity="0"/>
</linearGradient>
<linearGradient id="paint9_linear_6123_6655" x1="106.083" y1="206.328" x2="183.064" y2="266.883" gradientUnits="userSpaceOnUse">
<stop stop-color="#FAB95D"/>
<stop offset="1" stop-color="#FAB95D" stop-opacity="0"/>
</linearGradient>
<linearGradient id="paint10_linear_6123_6655" x1="134.911" y1="170" x2="149.5" y2="256" gradientUnits="userSpaceOnUse">
<stop stop-color="#F68658"/>
<stop offset="1" stop-color="#F68658" stop-opacity="0"/>
</linearGradient>
<linearGradient id="paint11_linear_6123_6655" x1="185.913" y1="136.904" x2="185.913" y2="197.883" gradientUnits="userSpaceOnUse">
<stop stop-color="#38464E"/>
<stop offset="1" stop-color="#38464E" stop-opacity="0"/>
</linearGradient>
<linearGradient id="paint12_linear_6123_6655" x1="202.618" y1="127.428" x2="202.618" y2="178.765" gradientUnits="userSpaceOnUse">
<stop stop-color="#C5C6C4"/>
<stop offset="1" stop-color="#C5C6C4" stop-opacity="0"/>
</linearGradient>
<linearGradient id="paint13_linear_6123_6655" x1="120.843" y1="79.3691" x2="120.843" y2="196.967" gradientUnits="userSpaceOnUse">
<stop stop-color="#F4F4F4"/>
<stop offset="1" stop-color="#F4F4F4" stop-opacity="0"/>
</linearGradient>
<linearGradient id="paint14_linear_6123_6655" x1="125.789" y1="68.5586" x2="125.789" y2="199.184" gradientUnits="userSpaceOnUse">
<stop stop-color="#496774"/>
<stop offset="1" stop-color="#496774" stop-opacity="0"/>
</linearGradient>
<linearGradient id="paint15_linear_6123_6655" x1="118.559" y1="176.969" x2="118.559" y2="224.48" gradientUnits="userSpaceOnUse">
<stop stop-color="#496774"/>
<stop offset="1" stop-color="#496774" stop-opacity="0"/>
</linearGradient>
<linearGradient id="paint16_linear_6123_6655" x1="116.618" y1="192.357" x2="116.618" y2="243.156" gradientUnits="userSpaceOnUse">
<stop stop-color="#F4F4F4"/>
<stop offset="1" stop-color="#F4F4F4" stop-opacity="0"/>
</linearGradient>
<linearGradient id="paint17_linear_6123_6655" x1="155.8" y1="181.609" x2="155.8" y2="213.739" gradientUnits="userSpaceOnUse">
<stop stop-color="#F4F4F4"/>
<stop offset="1" stop-color="#F4F4F4" stop-opacity="0"/>
</linearGradient>
<linearGradient id="paint18_linear_6123_6655" x1="182.97" y1="191.791" x2="154.501" y2="117.5" gradientUnits="userSpaceOnUse">
<stop stop-color="white"/>
<stop offset="0.494792" stop-color="#9ED7C1" stop-opacity="0.9"/>
<stop offset="1" stop-color="white" stop-opacity="0"/>
</linearGradient>
<linearGradient id="paint19_linear_6123_6655" x1="162.607" y1="166.758" x2="131.5" y2="124.5" gradientUnits="userSpaceOnUse">
<stop stop-color="white"/>
<stop offset="0.494792" stop-color="#9ED7C1" stop-opacity="0.9"/>
<stop offset="1" stop-color="white" stop-opacity="0"/>
</linearGradient>
<clipPath id="clip0_6123_6655">
<path d="M18.5 238C18.5 159.576 82.0756 96 160.5 96C238.924 96 302.5 159.576 302.5 238V263H18.5V238Z" fill="white"/>
</clipPath>
</defs>
</svg>
