<svg width="435" height="411" viewBox="0 0 435 411" fill="none" xmlns="http://www.w3.org/2000/svg">
<path d="M0 59.4289C0 26.6072 26.6072 0 59.4289 0H400V340.571C400 373.393 373.393 400 340.571 400H0V59.4289Z" fill="url(#paint0_linear_3076_234705)"/>
<path d="M229.544 383.831L224.418 406.232L202.568 400.976C205.396 388.606 217.474 380.931 229.544 383.831Z" fill="#4ADA85"/>
<path d="M235.756 379.728C224.405 374.623 219.24 361.051 224.222 349.412L244.771 358.655L235.756 379.728Z" fill="#4ADA85"/>
<path d="M233.434 385.16L224.419 406.233L203.865 396.99C208.843 385.351 222.082 380.059 233.434 385.16Z" fill="#4ADA85"/>
<path d="M240.634 382.544C230.488 375.244 228.034 360.892 235.152 350.491L253.526 363.707L240.634 382.544Z" fill="#4ADA85"/>
<path d="M237.31 387.399L224.419 406.232L206.045 393.016C213.167 382.615 227.164 380.098 237.31 387.399Z" fill="#4ADA85"/>
<path d="M316.906 289.231L415.279 334.514L434.323 258.831L342.694 221.927L316.906 289.231Z" fill="#020202"/>
<path d="M369.084 231.37L409.169 247.512L413.176 237.049C413.581 235.989 413.072 234.791 412.04 234.377L375.706 219.74C375.202 219.539 374.658 219.548 374.162 219.771C373.67 219.989 373.292 220.395 373.096 220.907L369.084 231.37ZM409.408 248.524C409.356 248.524 409.304 248.51 409.256 248.492L368.375 232.029C368.153 231.936 368.04 231.682 368.131 231.459L372.295 220.591C372.574 219.856 373.117 219.281 373.818 218.965C374.523 218.653 375.306 218.635 376.015 218.925L412.354 233.557C413.824 234.15 414.555 235.86 413.972 237.37L409.808 248.243C409.769 248.35 409.687 248.439 409.582 248.483C409.526 248.51 409.469 248.524 409.408 248.524Z" fill="black"/>
<path d="M371.435 232.529L406.041 246.466L409.818 236.618L375.207 222.68L371.435 232.529ZM406.281 247.477C406.233 247.477 406.176 247.464 406.128 247.446L370.721 233.188C370.499 233.099 370.395 232.845 370.477 232.618L374.567 221.95C374.606 221.839 374.689 221.754 374.793 221.705C374.898 221.66 375.02 221.66 375.124 221.7L410.527 235.959C410.749 236.048 410.858 236.302 410.771 236.529L406.685 247.197C406.642 247.308 406.559 247.393 406.459 247.437C406.403 247.464 406.342 247.477 406.281 247.477Z" fill="black"/>
<path d="M316.906 289.231L408.54 326.131L434.323 258.831L342.694 221.927L316.906 289.231Z" fill="white"/>
<path d="M317.461 288.981L408.294 325.564L433.764 259.075L342.931 222.496L317.461 288.981ZM408.534 326.571C408.482 326.571 408.429 326.562 408.377 326.54L316.748 289.64C316.53 289.551 316.417 289.297 316.504 289.07L342.292 221.766C342.335 221.659 342.414 221.57 342.518 221.525C342.627 221.476 342.744 221.476 342.844 221.516L434.478 258.42C434.696 258.509 434.804 258.763 434.722 258.99L408.934 326.295C408.895 326.402 408.812 326.486 408.703 326.535C408.651 326.558 408.595 326.571 408.534 326.571Z" fill="black"/>
<path d="M335.992 261.758L412.789 292.684L434.57 258.176L342.941 221.272L335.992 261.758Z" fill="white"/>
<path d="M336.476 261.482L412.616 292.145L433.927 258.39L343.272 221.883L336.476 261.482ZM412.786 293.125C412.734 293.125 412.681 293.116 412.629 293.094L335.836 262.168C335.645 262.092 335.536 261.891 335.571 261.682L342.519 221.201C342.541 221.068 342.619 220.956 342.728 220.89C342.841 220.827 342.976 220.818 343.098 220.867L434.727 257.767C434.849 257.816 434.94 257.918 434.98 258.043C435.019 258.168 435.001 258.306 434.927 258.417L413.147 292.925C413.069 293.054 412.929 293.125 412.786 293.125Z" fill="black"/>
<path d="M391.279 292.051L398.532 294.968L403.858 281.062L396.609 278.145L391.279 292.051Z" fill="white"/>
<path d="M391.841 291.801L398.289 294.398L403.305 281.311L396.853 278.715L391.841 291.801ZM398.532 295.409C398.48 295.409 398.428 295.396 398.376 295.378L391.127 292.456C390.905 292.371 390.796 292.113 390.883 291.89L396.209 277.984C396.252 277.873 396.335 277.788 396.44 277.739C396.544 277.695 396.661 277.695 396.766 277.735L404.019 280.657C404.236 280.741 404.345 280.995 404.258 281.222L398.933 295.129C398.889 295.24 398.811 295.325 398.702 295.374C398.65 295.396 398.593 295.409 398.532 295.409Z" fill="black"/>
<path d="M346.775 274.128L354.028 277.046L359.354 263.144L352.105 260.222L346.775 274.128Z" fill="white"/>
<path d="M347.331 273.877L353.783 276.479L358.795 263.392L352.343 260.791L347.331 273.877ZM354.023 277.485C353.97 277.485 353.918 277.476 353.866 277.454L346.617 274.537C346.395 274.447 346.287 274.189 346.374 273.966L351.704 260.06C351.743 259.953 351.825 259.864 351.93 259.82C352.034 259.771 352.152 259.771 352.26 259.815L359.509 262.733C359.727 262.822 359.835 263.076 359.748 263.303L354.423 277.209C354.379 277.316 354.297 277.401 354.197 277.45C354.14 277.472 354.083 277.485 354.023 277.485Z" fill="black"/>
<path d="M377.422 225.615L406.425 237.298L408.866 230.924L379.863 219.245L377.422 225.615Z" fill="white"/>
<path d="M377.977 225.371L406.184 236.729L408.307 231.175L380.105 219.816L377.977 225.371ZM406.423 237.736C406.371 237.736 406.319 237.727 406.267 237.705L377.264 226.025C377.042 225.941 376.933 225.682 377.025 225.46L379.465 219.086C379.505 218.979 379.587 218.89 379.692 218.841C379.796 218.796 379.914 218.796 380.018 218.836L409.021 230.515C409.243 230.604 409.352 230.863 409.265 231.09L406.824 237.46C406.785 237.566 406.702 237.656 406.597 237.7C406.545 237.722 406.484 237.736 406.423 237.736Z" fill="black"/>
<path d="M202.399 124.417C202.399 89.8737 174.949 61.874 141.087 61.874C107.689 61.874 80.727 88.5731 79.7959 122.626C79.239 143.013 88.2496 161.272 102.586 173.08C109.895 179.107 113.972 188.318 113.972 197.904C113.972 213.182 126.111 225.565 141.087 225.565C156.062 225.565 168.201 213.182 168.201 197.904V197.899C168.201 188.153 172.543 178.969 179.936 172.795C193.65 161.325 202.399 143.918 202.399 124.417Z" fill="#FED101"/>
<path d="M141.501 247.939C130.162 247.939 120.969 238.558 120.969 226.995H162.037C162.037 238.558 152.843 247.939 141.501 247.939Z" fill="white"/>
<path d="M121.402 227.433C121.633 238.538 130.561 247.5 141.499 247.5C152.442 247.5 161.37 238.538 161.6 227.433H121.402ZM141.499 248.377C129.943 248.377 120.541 238.787 120.541 226.997C120.541 226.752 120.732 226.556 120.967 226.556H162.035C162.27 226.556 162.466 226.752 162.466 226.997C162.466 238.787 153.059 248.377 141.499 248.377Z" fill="black"/>
<path d="M170.188 213.295H111.982V199.006H170.188V213.295Z" fill="white"/>
<path d="M112.41 212.858H169.759V199.446H112.41V212.858ZM170.189 213.735H111.983C111.744 213.735 111.553 213.539 111.553 213.294V199.005C111.553 198.764 111.744 198.568 111.983 198.568H170.189C170.429 198.568 170.62 198.764 170.62 199.005V213.294C170.62 213.539 170.429 213.735 170.189 213.735Z" fill="black"/>
<path d="M170.188 226.996H111.982V212.707H170.188V226.996Z" fill="white"/>
<path d="M112.41 226.554H169.759V213.142H112.41V226.554ZM170.189 227.432H111.983C111.744 227.432 111.553 227.236 111.553 226.995V212.706C111.553 212.461 111.744 212.265 111.983 212.265H170.189C170.429 212.265 170.62 212.461 170.62 212.706V226.995C170.62 227.236 170.429 227.432 170.189 227.432Z" fill="black"/>
<path d="M156.506 123.887C156.506 126.177 156.027 128.359 155.161 130.319C153.599 133.874 150.776 136.725 147.282 138.292V152.738C147.282 154.609 146.538 156.297 145.341 157.517C144.145 158.738 142.492 159.49 140.66 159.49C137.001 159.49 134.038 156.47 134.038 152.738V137.874C130.936 136.248 128.443 133.575 127.007 130.319C126.145 128.355 131.379 124.315 131.379 124.315C131.379 124.315 126.019 120.048 126.663 118.315C128.865 112.377 134.495 108.159 141.086 108.159C147.678 108.159 153.308 112.377 155.509 118.315C156.153 120.048 156.506 121.923 156.506 123.887Z" fill="black"/>
<path d="M253.5 334.522H229.932V383.324H253.5V334.522Z" fill="#955B50"/>
<path d="M229.932 345.07L253.5 354.687V334.522H229.932V345.07Z" fill="#020202"/>
<path d="M253.5 359.386H229.932V383.323H253.5V359.386Z" fill="#020202"/>
<path d="M254.883 374.38L255.244 374.843C259.386 380.175 259.23 384.78 261.405 392.384L233.729 402.642L192.326 403.168L185.252 398.932L187.641 392.941L210.539 385.226L226.281 375.061L229.531 370.112H233.895L237.562 373.604V377.956C241.705 380.486 242.453 381.693 244.515 381.693C244.559 381.68 248.005 382.032 249.101 378.673L250.228 375.212C250.902 373.15 253.556 372.674 254.883 374.38Z" fill="#4ADA85"/>
<path d="M185.252 398.932L198.17 401.453L232.394 400.749L261.405 392.384L265.578 396.241L267.322 405.943L256.167 410.931C256.167 410.931 248.135 410.896 237.95 410.931L235.487 408.45H231.667L229.178 410.931C213.254 410.976 196.012 410.931 196.012 410.931L186.744 406.09L185.252 403.145V398.932Z" fill="#020202"/>
<path d="M261.619 367.413C260.388 367.413 259.222 368.171 258.743 369.409C258.251 370.678 258.347 375.881 258.46 378.705C260.436 376.727 263.995 372.995 264.491 371.721C264.791 370.941 264.782 370.086 264.456 369.315C264.125 368.54 263.52 367.948 262.755 367.636C262.38 367.485 261.997 367.413 261.619 367.413ZM257.699 380.678L257.651 379.721C257.603 378.83 257.216 370.959 257.947 369.084C258.747 367.017 261.045 366.001 263.068 366.821C264.051 367.213 264.821 367.979 265.239 368.964C265.657 369.952 265.674 371.044 265.287 372.046C264.56 373.926 259.004 379.396 258.373 380.015L257.699 380.678Z" fill="black"/>
<path d="M227.056 381.052C226.974 381.052 226.887 381.026 226.817 380.972L222.249 377.756C222.057 377.618 222.005 377.342 222.14 377.146C222.275 376.945 222.54 376.892 222.736 377.03L227.3 380.25C227.496 380.389 227.544 380.66 227.413 380.861C227.326 380.985 227.196 381.052 227.056 381.052Z" fill="black"/>
<path d="M223.109 383.751C223.026 383.751 222.943 383.729 222.87 383.676L218.305 380.455C218.11 380.317 218.062 380.045 218.192 379.845C218.327 379.645 218.597 379.596 218.788 379.734L223.357 382.954C223.548 383.088 223.6 383.364 223.466 383.564C223.383 383.685 223.248 383.751 223.109 383.751Z" fill="black"/>
<path d="M219.167 386.457C219.084 386.457 218.997 386.43 218.923 386.381L214.359 383.16C214.163 383.022 214.115 382.751 214.25 382.55C214.381 382.35 214.651 382.296 214.846 382.434L219.41 385.655C219.606 385.793 219.654 386.069 219.519 386.265C219.437 386.39 219.302 386.457 219.167 386.457Z" fill="black"/>
<path d="M341.088 320.451L323.75 334.322L352.457 371.653L369.791 357.783L341.088 320.451Z" fill="#955B50"/>
<path d="M330.033 342.487L352.226 334.932L341.088 320.451L323.75 334.322L330.033 342.487Z" fill="#020202"/>
<path d="M356.088 339.961L338.75 353.832L352.455 371.653L369.789 357.783L356.088 339.961Z" fill="#020202"/>
<path d="M382.7 358.969C376.391 354.354 373.728 350.635 367.241 349.049L366.675 348.906C364.6 348.403 362.803 350.448 363.521 352.496L364.722 355.926C365.892 359.263 362.973 361.151 362.942 361.191C361.324 362.487 360.006 362.011 355.211 362.63L352.579 359.2L347.584 358.764L344.147 361.512L344.586 367.45L337.442 385.053L323.171 395.191L321.439 401.409L328.892 404.652L354.741 399.569L367.128 384.465L382.7 358.969Z" fill="#4ADA85"/>
<path d="M321.951 401.155L328.939 404.197L354.509 399.164L366.778 384.206L382.124 359.084C380.444 357.841 379.008 356.652 377.729 355.592C374.349 352.794 371.673 350.58 367.139 349.476L366.574 349.333C365.756 349.133 364.925 349.4 364.363 350.042C363.806 350.678 363.641 351.543 363.92 352.349L365.125 355.779C366.243 358.963 363.959 360.977 363.228 361.52L363.206 361.538C362.01 362.496 360.987 362.567 358.951 362.71C357.998 362.781 356.815 362.865 355.266 363.066L355.022 363.097L352.355 359.623L347.713 359.217L344.589 361.716L345.019 367.52L337.788 385.342L323.539 395.462L321.951 401.155ZM328.843 405.11L320.92 401.662L322.795 394.919L322.921 394.829L337.092 384.767L344.149 367.378L343.701 361.311L347.447 358.313L352.799 358.781L355.396 362.162C356.854 361.983 357.976 361.899 358.89 361.837C360.809 361.698 361.683 361.636 362.667 360.852C362.688 360.834 362.706 360.821 362.727 360.808C363.502 360.229 365.207 358.616 364.316 356.077L363.115 352.643C362.723 351.529 362.954 350.336 363.724 349.458C364.498 348.567 365.643 348.206 366.774 348.483L367.339 348.621C372.064 349.774 374.801 352.042 378.269 354.91C379.618 356.028 381.153 357.298 382.946 358.612L383.277 358.848L367.457 384.749L354.97 399.97L354.818 400.001L328.843 405.11Z" fill="black"/>
<path d="M388.321 359.377L382.704 358.967L364.94 383.813L349.129 397.995L334.566 401.278L321.418 401.398L322.232 405.532L324.263 408.116L334.27 410.94C334.27 410.94 339.613 409.977 350.103 407.826C350.103 407.826 364.918 396.793 368.568 393.853L369.025 390.329L372.032 387.924L375.473 388.33C383.466 381.889 389.805 376.86 389.805 376.86L395.561 365.907L388.321 359.377Z" fill="#020202"/>
<path d="M366.702 342.562C367.089 343.876 370.313 347.907 372.11 350.059C372.467 347.257 373.011 342.081 372.628 340.772C372.145 339.106 370.418 338.157 368.786 338.647C367.994 338.887 367.337 339.431 366.946 340.17C366.554 340.91 366.471 341.76 366.702 342.562ZM372.702 352.09L372.084 351.368C371.51 350.7 366.445 344.749 365.88 342.812C365.584 341.787 365.693 340.7 366.193 339.756C366.693 338.803 367.533 338.112 368.542 337.805C370.631 337.177 372.832 338.393 373.45 340.518C374.011 342.455 372.954 350.259 372.832 351.146L372.702 352.09Z" fill="black"/>
<path d="M343.013 372.107C342.787 372.107 342.6 371.929 342.587 371.698C342.57 371.453 342.748 371.243 342.987 371.23L348.526 370.891C348.752 370.878 348.965 371.061 348.979 371.301C348.996 371.546 348.813 371.751 348.578 371.764L343.035 372.107C343.031 372.107 343.022 372.107 343.013 372.107Z" fill="black"/>
<path d="M341.543 376.717C341.317 376.717 341.129 376.539 341.116 376.303C341.099 376.063 341.282 375.853 341.517 375.84L347.055 375.501C347.295 375.492 347.495 375.671 347.512 375.911C347.525 376.152 347.347 376.361 347.108 376.374L341.569 376.717C341.56 376.717 341.551 376.717 341.543 376.717Z" fill="black"/>
<path d="M340.074 381.328C339.848 381.328 339.661 381.15 339.648 380.914C339.63 380.673 339.809 380.464 340.048 380.451L345.587 380.108C345.813 380.099 346.026 380.281 346.039 380.522C346.056 380.763 345.874 380.972 345.639 380.985L340.1 381.328C340.091 381.328 340.083 381.328 340.074 381.328Z" fill="black"/>
<path d="M295.556 294.776L296.192 219.498L332.682 221.396C332.682 221.396 332.469 238.38 332.395 244.255C332.234 257.613 327.822 298.214 327.822 298.214L361.485 338.967L335.619 358.69L303.819 320.495C298.38 313.074 295.474 304.041 295.556 294.776Z" fill="#FED101"/>
<path d="M279.467 223.197L314.796 241.38L258.588 305.557V361.762H226.291V305.98C226.291 298.511 228.693 291.246 233.126 285.304L279.467 223.197Z" fill="#FED101"/>
<path d="M258.587 362.201H226.29C226.173 362.201 226.064 362.156 225.981 362.072C225.903 361.992 225.859 361.88 225.859 361.76V305.979C225.859 298.456 228.322 291.021 232.786 285.035L279.123 222.928C279.271 222.737 279.536 222.701 279.728 222.844C279.915 222.995 279.949 223.267 279.806 223.459L233.469 285.569C229.118 291.4 226.721 298.652 226.721 305.979L226.716 361.323H258.156V305.556C258.156 305.449 258.195 305.342 258.269 305.266L303.013 254.175C303.092 254.082 303.209 254.028 303.331 254.028H308.878C309.118 254.028 309.309 254.224 309.309 254.469C309.309 254.71 309.118 254.906 308.878 254.906H303.522L259.013 305.725V361.76C259.013 362.005 258.822 362.201 258.587 362.201Z" fill="black"/>
<path d="M267.584 239.102C267.584 239.102 286.006 234.652 293.037 236.3C301.112 238.193 309.37 244.594 316.409 245.623C322.905 246.576 332.395 242.474 332.395 242.474L332.603 230.674L276.168 227.957L267.584 239.102Z" fill="#020202"/>
<path d="M277.169 143.593L270.181 139.263C270.181 139.263 267.218 142.974 262.446 141.032C261.34 140.582 259.148 139.45 257.303 138.475C255.21 137.361 252.978 136.542 250.676 136.025L248.031 135.433C246.704 135.139 245.838 133.825 246.078 132.462L246.125 132.168C246.36 130.782 247.644 129.847 249.006 130.056L257.786 131.419L257.059 127.085C256.689 124.863 255.719 122.796 254.257 121.103L248.488 114.159C247.531 113.01 247.552 111.313 248.544 110.181L248.71 109.994L245.255 106.582C244.272 105.549 244.263 103.901 245.233 102.85C246.182 101.816 247.757 101.714 248.832 102.613L275.311 124.711L284.661 130.92L277.169 143.593Z" fill="#FDA4FF"/>
<path d="M270.178 138.827C270.256 138.827 270.335 138.844 270.4 138.889L277.026 142.991L284.075 131.058L275.077 125.081C275.064 125.072 275.051 125.063 275.038 125.05L248.559 102.956C247.667 102.203 246.335 102.293 245.539 103.157C244.73 104.039 244.739 105.411 245.565 106.279L249.011 109.678C249.176 109.843 249.185 110.11 249.029 110.288L248.859 110.48C248.019 111.437 248.002 112.898 248.811 113.878L254.585 120.822C256.094 122.568 257.099 124.711 257.482 127.014L258.209 131.343C258.231 131.482 258.187 131.629 258.091 131.727C257.996 131.829 257.856 131.873 257.722 131.851L248.942 130.493C247.819 130.323 246.744 131.107 246.544 132.243L246.496 132.537C246.301 133.673 247.014 134.76 248.124 135.005L250.765 135.597C253.11 136.123 255.376 136.956 257.5 138.083C259.958 139.388 261.72 140.265 262.608 140.622C267.032 142.426 269.817 139.023 269.847 138.987C269.93 138.885 270.056 138.827 270.178 138.827ZM277.17 144.029C277.096 144.029 277.018 144.011 276.948 143.967L270.252 139.824C269.399 140.689 266.484 143.147 262.29 141.441C261.137 140.974 258.835 139.78 257.104 138.862C255.05 137.775 252.853 136.965 250.582 136.457L247.941 135.865C246.379 135.517 245.378 133.989 245.652 132.381L245.704 132.092C245.983 130.461 247.462 129.375 249.068 129.624L257.26 130.894L256.638 127.161C256.281 125.018 255.342 123.027 253.936 121.397L248.163 114.448C247.105 113.179 247.097 111.299 248.115 110.016L244.96 106.898C243.803 105.682 243.79 103.776 244.917 102.551C246.022 101.357 247.858 101.237 249.103 102.275L275.565 124.355L284.893 130.555C285.084 130.684 285.145 130.947 285.028 131.147L277.54 143.82C277.457 143.958 277.314 144.029 277.17 144.029Z" fill="black"/>
<path d="M251.347 116.231C251.316 116.231 251.282 116.226 251.251 116.222L244.516 114.757C243.032 114.422 242.075 112.921 242.375 111.407C242.663 109.968 244.003 108.975 245.438 109.149L255.411 110.351C256.281 110.454 257.103 110.73 257.86 111.171C258.065 111.291 258.143 111.558 258.021 111.768C257.908 111.982 257.643 112.053 257.438 111.933C256.781 111.554 256.063 111.313 255.311 111.224L245.334 110.017C244.351 109.901 243.415 110.583 243.215 111.581C243.011 112.627 243.676 113.665 244.699 113.897L251.43 115.362C251.664 115.411 251.812 115.643 251.765 115.884C251.717 116.088 251.543 116.231 251.347 116.231Z" fill="black"/>
<path d="M267.01 126.764C266.91 126.764 266.815 126.728 266.732 126.661L262.694 123.187C261.454 122.274 259.966 121.744 258.409 121.664L249.45 121.223C247.936 121.147 246.748 119.828 246.8 118.283C246.848 116.817 248.014 115.61 249.45 115.539L258.169 114.862C260.001 114.724 261.715 115.2 263.904 116.452C264.113 116.572 264.187 116.84 264.069 117.049C263.952 117.263 263.691 117.338 263.486 117.218C261.428 116.042 259.905 115.615 258.235 115.735L249.502 116.416C248.497 116.465 247.692 117.298 247.658 118.314C247.623 119.383 248.445 120.296 249.494 120.345L258.448 120.791C260.171 120.875 261.82 121.463 263.221 122.492L267.289 125.989C267.467 126.145 267.493 126.421 267.341 126.608C267.254 126.71 267.132 126.764 267.01 126.764Z" fill="black"/>
<path d="M261.772 132.529C261.75 132.529 261.729 132.529 261.702 132.525L257.613 131.843C257.378 131.803 257.217 131.581 257.256 131.34C257.295 131.099 257.508 130.935 257.748 130.975L261.842 131.656C262.072 131.692 262.233 131.919 262.194 132.16C262.164 132.373 261.981 132.529 261.772 132.529Z" fill="black"/>
<path d="M210.448 118.315V130.32H127.007C126.145 128.355 125.662 126.177 125.662 123.888C125.662 121.923 126.019 120.048 126.663 118.315H210.448Z" fill="#4ADA85"/>
<path d="M247.039 131.009C243.298 131.009 240.265 127.914 240.265 124.092C240.265 120.275 243.298 117.179 247.039 117.179C250.79 117.179 253.822 120.275 253.822 124.092C253.822 127.914 250.79 131.009 247.039 131.009ZM234.761 97.2949C222.196 97.2949 211.689 106.288 209.1 118.315C208.7 120.177 208.486 122.11 208.486 124.092C208.486 126.234 208.73 128.319 209.2 130.319C211.95 142.123 222.348 150.898 234.761 150.898C249.271 150.898 261.036 138.898 261.036 124.092C261.036 109.29 249.271 97.2949 234.761 97.2949Z" fill="#4ADA85"/>
<path d="M235.227 145.33C234.683 145.33 234.139 145.308 233.608 145.268C233.373 145.25 233.195 145.04 233.212 144.795C233.23 144.555 233.438 144.372 233.673 144.395C234.182 144.435 234.704 144.453 235.227 144.453C239.673 144.453 243.88 142.992 247.396 140.23C247.583 140.083 247.853 140.123 247.996 140.31C248.144 140.506 248.105 140.782 247.918 140.929C244.25 143.807 239.865 145.33 235.227 145.33Z" fill="black"/>
<path d="M224.314 142.111C224.235 142.111 224.157 142.089 224.087 142.044C219.084 138.806 215.66 133.55 214.69 127.612C214.65 127.376 214.807 127.149 215.042 127.109C215.273 127.064 215.495 127.229 215.534 127.47C216.465 133.158 219.75 138.196 224.544 141.3C224.744 141.429 224.805 141.701 224.679 141.906C224.597 142.04 224.457 142.111 224.314 142.111Z" fill="black"/>
<path d="M215.251 120.341C215.221 120.341 215.19 120.337 215.164 120.332C214.929 120.283 214.781 120.052 214.829 119.811C216.8 109.985 225.38 102.854 235.226 102.854C235.461 102.854 235.653 103.05 235.653 103.294C235.653 103.539 235.461 103.731 235.226 103.731C225.785 103.731 217.557 110.568 215.669 119.989C215.626 120.199 215.447 120.341 215.251 120.341Z" fill="black"/>
<path d="M198.178 126.743H149.831C149.592 126.743 149.4 126.547 149.4 126.302C149.4 126.061 149.592 125.865 149.831 125.865H198.178C198.417 125.865 198.609 126.061 198.609 126.302C198.609 126.547 198.417 126.743 198.178 126.743Z" fill="black"/>
<path d="M257.302 138.475C255.209 137.362 252.977 136.542 250.671 136.025L248.03 135.437C246.703 135.139 245.838 133.825 246.077 132.462L246.125 132.168C246.364 130.783 247.643 129.847 249.001 130.057L261.77 132.088L257.302 138.475Z" fill="#FDA4FF"/>
<path d="M257.304 138.911C257.239 138.911 257.169 138.898 257.104 138.862C255.05 137.775 252.853 136.965 250.582 136.457L247.941 135.865C246.379 135.517 245.378 133.989 245.652 132.381L245.704 132.092C245.983 130.461 247.462 129.375 249.068 129.624L257.26 130.894L256.638 127.161C256.281 125.018 255.342 123.027 253.936 121.397L248.163 114.448C247.105 113.179 247.097 111.299 248.115 110.016L244.96 106.898C243.803 105.682 243.79 103.776 244.917 102.551C246.022 101.357 247.858 101.237 249.103 102.275L257.408 109.206C257.591 109.357 257.622 109.633 257.469 109.82C257.317 110.012 257.047 110.039 256.864 109.887L248.559 102.956C247.667 102.203 246.335 102.293 245.539 103.157C244.73 104.039 244.739 105.411 245.565 106.279L249.011 109.678C249.176 109.843 249.185 110.11 249.029 110.288L248.859 110.48C248.019 111.437 248.002 112.898 248.811 113.878L254.585 120.822C256.094 122.568 257.099 124.711 257.482 127.014L258.209 131.343C258.231 131.482 258.187 131.629 258.091 131.727C257.996 131.829 257.856 131.873 257.722 131.851L248.942 130.493C247.819 130.323 246.744 131.107 246.544 132.243L246.496 132.537C246.301 133.673 247.014 134.76 248.124 135.005L250.765 135.597C253.11 136.123 255.376 136.956 257.5 138.083C257.713 138.194 257.791 138.461 257.687 138.675C257.608 138.827 257.461 138.911 257.304 138.911Z" fill="black"/>
<path d="M265.06 124.392L262.967 122.85C261.645 121.875 260.061 121.309 258.429 121.229L249.471 120.788C248.183 120.721 247.182 119.616 247.226 118.298C247.269 117.051 248.244 116.04 249.471 115.977L259.504 115.483C260.313 115.443 261.123 115.568 261.884 115.853L265.991 117.389L265.06 124.392Z" fill="#FDA4FF"/>
<path d="M259.395 120.507L257.585 118.636C256.432 117.451 254.97 116.627 253.369 116.271L244.607 114.324C243.345 114.043 242.54 112.783 242.792 111.496C243.04 110.266 244.167 109.433 245.385 109.58L255.358 110.783C256.167 110.881 256.946 111.144 257.651 111.554L261.449 113.758L259.395 120.507Z" fill="#FDA4FF"/>
<path d="M251.347 116.231C251.316 116.231 251.282 116.226 251.251 116.222L244.516 114.757C243.032 114.422 242.075 112.921 242.375 111.407C242.663 109.968 244.003 108.975 245.438 109.149L255.411 110.351C256.281 110.454 257.103 110.73 257.86 111.171C258.065 111.291 258.143 111.558 258.021 111.768C257.908 111.982 257.643 112.053 257.438 111.933C256.781 111.554 256.063 111.313 255.311 111.224L245.334 110.017C244.351 109.901 243.415 110.583 243.215 111.581C243.011 112.627 243.676 113.665 244.699 113.897L251.43 115.362C251.664 115.411 251.812 115.643 251.765 115.884C251.717 116.088 251.543 116.231 251.347 116.231Z" fill="black"/>
<path d="M267.01 126.764C266.91 126.764 266.815 126.728 266.732 126.661L262.694 123.187C261.454 122.274 259.966 121.744 258.409 121.664L249.45 121.223C247.936 121.147 246.748 119.828 246.8 118.283C246.848 116.817 248.014 115.61 249.45 115.539L258.169 114.862C260.001 114.724 261.715 115.2 263.904 116.452C264.113 116.572 264.187 116.84 264.069 117.049C263.952 117.263 263.691 117.338 263.486 117.218C261.428 116.042 259.905 115.615 258.235 115.735L249.502 116.416C248.497 116.465 247.692 117.298 247.658 118.314C247.623 119.383 248.445 120.296 249.494 120.345L258.448 120.791C260.171 120.875 261.82 121.463 263.221 122.492L267.289 125.989C267.467 126.145 267.493 126.421 267.341 126.608C267.254 126.71 267.132 126.764 267.01 126.764Z" fill="black"/>
<path d="M261.772 132.529C261.75 132.529 261.729 132.529 261.702 132.525L257.613 131.843C257.378 131.803 257.217 131.581 257.256 131.34C257.295 131.099 257.508 130.935 257.748 130.975L261.842 131.656C262.072 131.692 262.233 131.919 262.194 132.16C262.164 132.373 261.981 132.529 261.772 132.529Z" fill="black"/>
<path d="M267.014 146.866L306.676 182.728C306.676 182.728 332.299 190.728 331.267 182.928C330.532 177.343 327.182 173.828 323.083 170.051L283.208 125.236L267.014 146.866Z" fill="#8C7BFF"/>
<path d="M292.303 152.181C292.303 156.849 296.014 160.635 300.591 160.635C305.168 160.635 308.88 156.849 308.88 152.181C308.88 147.513 305.168 143.727 300.591 143.727C296.014 143.727 292.303 147.513 292.303 152.181Z" fill="#FDA4FF"/>
<path d="M308.878 171.041H297.783V151.896H308.878V171.041Z" fill="#FDA4FF"/>
<path d="M308.883 159.022H299.946L298.123 148.225L296.37 148.029C292.071 147.544 288.612 144.221 287.877 139.878H308.883V159.022Z" fill="black"/>
<path d="M297.784 171.481C297.549 171.481 297.354 171.285 297.354 171.04V156.461C297.354 156.22 297.549 156.024 297.784 156.024C298.024 156.024 298.215 156.22 298.215 156.461V171.04C298.215 171.285 298.024 171.481 297.784 171.481Z" fill="black"/>
<path d="M168.389 219.356L174.41 216.768L182.599 238.064L173.562 243.204L168.389 219.356Z" fill="black"/>
<path d="M116.944 240.559L141.77 230.56L144.119 236.631L119.297 246.635C117.727 247.263 115.956 246.484 115.338 244.885L115.225 244.6C114.607 243 115.377 241.192 116.944 240.559Z" fill="#FDA4FF"/>
<path d="M137.426 232.305L150.505 227.035L161.147 232.714L155.786 252.826L146.819 256.434L137.426 232.305Z" fill="#FDA4FF"/>
<path d="M129.943 248.688L128.689 245.449L134.646 243.053L136.073 246.737L145.327 243.004L147.681 249.08L138.862 252.634C135.329 254.055 131.339 252.291 129.943 248.688Z" fill="#FDA4FF"/>
<path d="M136.227 253.904L134.748 250.02L140.704 247.623L142.131 251.302L151.39 247.574L153.74 253.65L144.298 257.489C141.1 258.79 137.476 257.178 136.227 253.904Z" fill="#FDA4FF"/>
<path d="M182.598 238.064L174.41 216.768L150.506 227.035L155.788 252.825L182.598 238.064Z" fill="#FDA4FF"/>
<path d="M152.681 234.025L145.441 238.065C145.441 238.065 142.33 227.214 141.521 224.586C141.434 224.141 140.172 221.437 140.877 217.027C140.912 216.938 141.147 212.8 145.237 211.491L145.341 211.455C147.055 210.907 148.735 212.395 148.439 214.199C148.087 216.337 147.708 217.869 148.422 220.194L152.681 234.025Z" fill="#FDA4FF"/>
<path d="M125.336 244.078L142.87 237.014L145.224 243.085L132.041 248.399C129.639 249.365 126.915 248.163 125.967 245.708L125.336 244.078Z" fill="#FDA4FF"/>
<path d="M141.975 258.4C141.079 258.4 140.187 258.208 139.338 257.834C137.715 257.112 136.462 255.789 135.814 254.11L135.501 253.304C135.414 253.077 135.522 252.823 135.74 252.734C135.962 252.64 136.21 252.752 136.297 252.979L136.61 253.789C137.176 255.25 138.264 256.4 139.678 257.028C141.1 257.656 142.675 257.678 144.111 257.099L155.61 252.426L182.064 237.865L174.171 217.349L150.694 227.438C150.585 227.482 150.459 227.482 150.35 227.429C150.241 227.375 150.159 227.282 150.12 227.166L148.014 220.329C147.339 218.124 147.605 216.552 147.914 214.73L148.014 214.137C148.131 213.438 147.888 212.743 147.366 212.28C146.843 211.812 146.139 211.661 145.477 211.875L145.369 211.91C142.192 212.926 141.474 215.808 141.314 217.001C141.309 217.05 141.305 217.086 141.296 217.117C140.717 220.774 141.522 223.202 141.827 224.115C141.879 224.275 141.918 224.396 141.936 224.471C142.201 225.331 142.736 227.153 143.532 229.888C143.598 230.124 143.472 230.369 143.241 230.436C143.01 230.502 142.775 230.373 142.71 230.142C141.91 227.389 141.374 225.567 141.113 224.716C141.109 224.703 141.105 224.69 141.1 224.672C141.087 224.618 141.057 224.529 141.013 224.4C140.691 223.425 139.834 220.841 140.452 216.957C140.456 216.948 140.456 216.939 140.461 216.93L140.465 216.881C140.648 215.523 141.466 212.24 145.112 211.073L145.221 211.037C146.169 210.734 147.183 210.948 147.931 211.616C148.68 212.284 149.028 213.282 148.862 214.28L148.762 214.881C148.458 216.663 148.218 218.066 148.832 220.062L150.798 226.44L174.245 216.364C174.35 216.32 174.472 216.32 174.576 216.364C174.685 216.413 174.767 216.498 174.811 216.609L182.999 237.905C183.078 238.115 182.995 238.346 182.803 238.453L155.993 253.21C155.98 253.219 155.963 253.228 155.95 253.233L144.429 257.914C143.633 258.235 142.806 258.395 141.975 258.4Z" fill="black"/>
<path d="M136.357 253.56C133.464 253.56 130.718 251.796 129.57 248.91C129.483 248.687 129.587 248.433 129.805 248.34C130.027 248.246 130.275 248.358 130.366 248.58C131.689 251.912 135.426 253.542 138.702 252.224L147.526 248.669C147.748 248.58 147.996 248.692 148.083 248.919C148.17 249.142 148.061 249.4 147.839 249.485L139.02 253.039C138.145 253.396 137.245 253.56 136.357 253.56Z" fill="black"/>
<path d="M130.327 249.17C128.291 249.17 126.363 247.918 125.567 245.869L124.98 244.346C124.893 244.123 124.997 243.865 125.219 243.776C125.437 243.687 125.689 243.798 125.776 244.025L126.368 245.544C127.229 247.771 129.705 248.867 131.885 247.985L144.641 242.849C144.859 242.765 145.107 242.871 145.194 243.099C145.281 243.321 145.172 243.575 144.955 243.669L132.202 248.805C131.589 249.054 130.954 249.17 130.327 249.17Z" fill="black"/>
<path d="M118.179 247.29C116.791 247.29 115.477 246.439 114.937 245.045L114.829 244.76C114.489 243.878 114.502 242.916 114.872 242.047C115.242 241.174 115.921 240.502 116.786 240.15L145.515 228.573C145.737 228.489 145.985 228.6 146.072 228.823C146.159 229.05 146.05 229.304 145.833 229.393L117.1 240.97C116.447 241.232 115.934 241.74 115.655 242.395C115.381 243.05 115.368 243.776 115.625 244.435L115.738 244.72C116.269 246.092 117.792 246.769 119.14 246.226L143.175 236.542C143.392 236.453 143.644 236.564 143.731 236.791C143.818 237.014 143.71 237.272 143.488 237.357L119.454 247.041C119.036 247.21 118.605 247.29 118.179 247.29Z" fill="black"/>
<path d="M219.673 196.404L257.182 175.932C267.071 170.533 278.122 167.709 289.343 167.709H312.799C325.791 167.709 332.221 178.453 332.221 191.704V234.488H270.857V195.851L232.316 217.762C231.799 218.123 231.255 218.448 230.676 218.737L183.021 248.514L167.85 215.343L219.673 196.404Z" fill="#8C7BFF"/>
<path d="M183.019 248.956C182.98 248.956 182.936 248.947 182.897 248.934C182.78 248.898 182.684 248.813 182.632 248.702L167.456 215.531C167.404 215.415 167.404 215.286 167.451 215.175C167.495 215.059 167.586 214.974 167.699 214.93L219.497 196.003L256.975 175.549C266.895 170.133 278.085 167.269 289.337 167.269H297.782C298.021 167.269 298.213 167.469 298.213 167.71C298.213 167.955 298.021 168.151 297.782 168.151H289.337C278.229 168.151 267.173 170.975 257.38 176.324L219.875 196.796C219.853 196.805 219.836 196.814 219.814 196.818L168.435 215.593L183.206 247.882L230.448 218.364C231.035 218.07 231.566 217.754 232.071 217.402L270.645 195.469C270.85 195.353 271.111 195.429 271.224 195.638C271.342 195.852 271.268 196.119 271.063 196.235L232.519 218.146C232.018 218.506 231.448 218.845 230.857 219.134L183.245 248.889C183.175 248.929 183.097 248.956 183.019 248.956Z" fill="black"/>
<path d="M332.103 235.571C332.103 235.571 332.098 235.571 332.094 235.571C331.859 235.566 331.672 235.366 331.676 235.121C331.676 234.791 332.181 201.763 331.794 191.161C331.298 177.799 326.977 170.645 318.193 168.649C315.983 168.146 314.051 168.146 308.878 168.146C308.643 168.146 308.451 167.955 308.451 167.71C308.451 167.465 308.643 167.269 308.878 167.269C314.116 167.269 316.078 167.269 318.384 167.794C327.604 169.888 332.142 177.3 332.646 191.126C333.038 201.754 332.538 234.805 332.533 235.139C332.529 235.375 332.337 235.571 332.103 235.571Z" fill="black"/>
<path d="M270.855 196.292C270.69 196.292 270.533 196.194 270.464 196.034C270.363 195.811 270.459 195.553 270.677 195.45L280.884 190.742C281.101 190.644 281.354 190.742 281.454 190.96C281.55 191.183 281.454 191.446 281.236 191.544L271.029 196.252C270.973 196.279 270.912 196.292 270.855 196.292Z" fill="black"/>
<path d="M249.066 81.3791C250.411 82.996 251.394 84.9381 251.89 87.0762C252.382 84.9381 253.365 82.996 254.709 81.3791C253.365 79.7667 252.382 77.8246 251.89 75.6865C251.394 77.8246 250.411 79.7667 249.066 81.3791Z" fill="#FED101"/>
<path d="M274.457 96.093C275.801 97.7143 276.785 99.6564 277.281 101.794C277.772 99.6564 278.756 97.7143 280.1 96.093C278.756 94.4805 277.772 92.534 277.281 90.4004C276.785 92.534 275.801 94.4805 274.457 96.093Z" fill="#FED101"/>
<path d="M258.908 67.1179C261.058 69.7014 262.633 72.8105 263.424 76.227C264.212 72.8105 265.783 69.7014 267.936 67.1179C265.783 64.53 264.212 61.4209 263.424 58C262.633 61.4209 261.058 64.53 258.908 67.1179Z" fill="#FED101"/>
<defs>
<linearGradient id="paint0_linear_3076_234705" x1="200" y1="0" x2="200" y2="400" gradientUnits="userSpaceOnUse">
<stop stop-color="#F5F5F5"/>
<stop offset="1" stop-color="#F5F5F5" stop-opacity="0"/>
</linearGradient>
</defs>
</svg>
