<svg width="312" height="349" viewBox="0 0 312 349" fill="none" xmlns="http://www.w3.org/2000/svg">
<path d="M180.623 124.345L179.8 126.162C178.524 128.996 178.248 132.178 179.03 135.188L181.311 144.017C181.931 146.407 184.368 147.845 186.759 147.225L187.129 147.131C189.514 146.511 190.952 144.069 190.332 141.678L187.967 132.537C187.243 129.73 187.504 126.761 188.691 124.116L188.92 123.605C189.702 121.881 188.139 120.027 186.311 120.501L184.681 120.923C182.884 121.392 181.389 122.647 180.623 124.345Z" fill="#955B50"/>
<path d="M173.645 154.173L158.53 158.094C156.067 158.735 153.556 157.251 152.921 154.787L152.874 154.62C152.238 152.157 153.718 149.641 156.176 149.006L171.296 145.084L173.645 154.173Z" fill="#955B50"/>
<path d="M157.321 158.771C156.43 158.771 155.55 158.531 154.763 158.068C153.602 157.38 152.774 156.287 152.435 154.974L152.357 154.693C151.664 151.99 153.289 149.219 155.987 148.521L167.867 145.443C168.138 145.37 168.419 145.537 168.492 145.813C168.56 146.089 168.399 146.37 168.123 146.438L156.248 149.516C154.097 150.073 152.8 152.281 153.357 154.432L153.43 154.719C153.701 155.761 154.357 156.636 155.284 157.182C156.211 157.729 157.294 157.88 158.336 157.61L169.55 154.703C169.821 154.63 170.102 154.797 170.175 155.073C170.248 155.349 170.081 155.63 169.805 155.703L158.597 158.604C158.175 158.714 157.748 158.771 157.321 158.771Z" fill="black"/>
<path d="M213.796 129.142L198.478 121.418L181.316 129.277L178.691 152.319L199.431 162.772C205.764 165.96 213.04 166.741 219.905 164.96L231.749 161.892L227.754 146.46C225.811 138.944 220.723 132.632 213.796 129.142Z" fill="#955B50"/>
<path d="M251.764 163.792L230.055 186.574L198.482 156.412L220.191 133.631L251.764 163.792Z" fill="#955B50"/>
<path d="M188.529 119.928L185.217 120.787L187.357 129.084L189.087 128.631C191.076 128.115 193.186 128.344 195.019 129.266L206.873 135.24L207.894 126.126L197.498 120.886C194.722 119.49 191.535 119.146 188.529 119.928Z" fill="#955B50"/>
<path d="M170.004 140.308L168.832 142.896C167.873 145.032 167.665 147.427 168.248 149.693L169.816 155.735C170.431 158.125 172.873 159.563 175.264 158.943L175.629 158.849C178.019 158.229 179.457 155.787 178.837 153.396L177.274 147.354C176.691 145.089 176.894 142.688 177.858 140.558L178.629 138.86C179.332 137.297 177.915 135.615 176.259 136.042L174.535 136.49C172.53 137.011 170.863 138.412 170.004 140.308Z" fill="#955B50"/>
<path d="M174.132 159.604C173.252 159.604 172.388 159.37 171.612 158.912C170.466 158.235 169.648 157.151 169.315 155.865L167.752 149.818C167.138 147.453 167.356 144.917 168.367 142.688L169.533 140.094C170.273 138.464 171.575 137.156 173.205 136.412C173.466 136.297 173.773 136.412 173.888 136.667C174.007 136.927 173.893 137.235 173.632 137.349C172.231 137.99 171.106 139.115 170.471 140.521L169.304 143.11C168.393 145.125 168.195 147.417 168.747 149.563L170.31 155.604C170.575 156.63 171.221 157.49 172.132 158.026C173.044 158.563 174.106 158.709 175.132 158.443L175.502 158.349C177.31 157.88 178.56 156.188 178.461 154.318C178.445 154.031 178.664 153.792 178.945 153.776C179.221 153.75 179.471 153.979 179.487 154.266C179.612 156.615 178.039 158.755 175.757 159.344L175.388 159.443C174.971 159.552 174.549 159.604 174.132 159.604Z" fill="black"/>
<path d="M175.306 131.47L174.483 133.287C173.202 136.121 172.931 139.303 173.707 142.313L175.988 151.141C176.608 153.532 179.045 154.97 181.436 154.355L181.806 154.256C184.196 153.636 185.629 151.194 185.014 148.803L182.649 139.662C181.926 136.855 182.176 133.886 183.373 131.246L183.603 130.73C184.379 129.011 182.821 127.152 180.993 127.626L179.363 128.048C177.561 128.511 176.071 129.772 175.306 131.47Z" fill="#955B50"/>
<path d="M180.306 155.01C179.431 155.01 178.566 154.776 177.785 154.317C176.639 153.64 175.827 152.557 175.493 151.27L173.207 142.442C172.405 139.328 172.686 136.005 174.014 133.078L174.837 131.255C175.624 129.515 177.118 128.198 178.941 127.63C179.212 127.547 179.499 127.703 179.582 127.974C179.665 128.244 179.514 128.531 179.243 128.614C177.702 129.093 176.436 130.208 175.775 131.677L174.952 133.5C173.723 136.213 173.457 139.302 174.202 142.187L176.488 151.01C176.749 152.036 177.4 152.895 178.311 153.432C179.217 153.968 180.285 154.119 181.306 153.854L181.676 153.755C183.785 153.208 185.061 151.041 184.514 148.932L184.113 147.38C184.04 147.104 184.207 146.823 184.483 146.75C184.754 146.677 185.04 146.843 185.108 147.119L185.509 148.672C186.197 151.333 184.592 154.062 181.936 154.755L181.566 154.849C181.15 154.958 180.728 155.01 180.306 155.01Z" fill="black"/>
<path d="M230.072 187.302L208.077 166.062C204.983 165.594 201.993 164.635 199.202 163.229L182.025 154.573C181.769 154.448 181.671 154.135 181.796 153.88C181.926 153.63 182.233 153.526 182.488 153.656L199.665 162.307C202.41 163.693 205.348 164.62 208.389 165.073L208.551 165.094L230.04 185.839L251.035 163.807L219.837 134C217.973 132.234 215.863 130.755 213.566 129.599L197.264 121.344C194.603 120 191.546 119.677 188.655 120.422L184.811 121.422C183.155 121.849 181.801 122.995 181.092 124.557L180.269 126.375C179.046 129.089 178.78 132.172 179.525 135.062L181.806 143.885C182.072 144.911 182.717 145.771 183.629 146.307C184.546 146.844 185.608 146.995 186.629 146.729L186.999 146.635C189.108 146.083 190.384 143.922 189.832 141.807L187.473 132.667C187.296 131.99 187.176 131.286 187.113 130.589C187.014 129.469 187.733 128.453 188.822 128.172L188.957 128.135C191.072 127.589 193.301 127.828 195.254 128.807L207.103 134.781C207.358 134.906 207.462 135.219 207.332 135.474C207.202 135.724 206.894 135.828 206.644 135.698L194.79 129.729C193.066 128.859 191.082 128.646 189.217 129.13L189.082 129.167C188.478 129.323 188.082 129.88 188.139 130.495C188.191 131.141 188.306 131.786 188.467 132.411L190.832 141.547C191.519 144.214 189.915 146.937 187.254 147.63L186.889 147.724C185.598 148.062 184.259 147.87 183.108 147.193C181.962 146.521 181.144 145.437 180.811 144.146L178.53 135.318C177.723 132.208 178.009 128.88 179.332 125.953L180.155 124.13C180.988 122.281 182.592 120.932 184.556 120.422L188.4 119.427C191.53 118.615 194.842 118.969 197.728 120.427L214.03 128.677C216.41 129.88 218.608 131.417 220.54 133.255L252.493 163.771L230.072 187.302Z" fill="black"/>
<path d="M215.342 166.455C214.774 166.455 214.196 166.408 213.623 166.309C213.342 166.257 213.16 165.991 213.207 165.71C213.259 165.428 213.524 165.241 213.8 165.293C217.128 165.887 220.686 164.241 220.717 164.225C220.977 164.106 221.285 164.22 221.399 164.475C221.524 164.736 221.41 165.038 221.154 165.158C221.024 165.22 218.352 166.455 215.342 166.455Z" fill="black"/>
<path d="M215.445 172.615L230.055 186.573L251.763 163.786L242.534 154.969L215.445 172.615Z" fill="black"/>
<path d="M211.763 203.432L113.539 228.891C110.482 229.687 107.357 227.844 106.565 224.786L91.6956 167.286C90.9039 164.224 92.7424 161.104 95.7997 160.307L194.024 134.844C197.081 134.052 200.206 135.896 200.998 138.953L215.867 196.453C216.659 199.51 214.821 202.635 211.763 203.432Z" fill="#FED101"/>
<path d="M195.477 135.172C195.034 135.172 194.597 135.229 194.159 135.344L95.925 160.807C93.1489 161.526 91.4771 164.37 92.1958 167.146L107.066 224.661C107.415 226.005 108.264 227.135 109.467 227.844C110.659 228.547 112.06 228.745 113.404 228.396L211.644 202.927C214.42 202.208 216.092 199.365 215.373 196.589L200.503 139.073C200.154 137.729 199.305 136.599 198.102 135.896C197.29 135.417 196.389 135.172 195.477 135.172ZM112.092 229.594C110.998 229.594 109.909 229.302 108.941 228.729C107.508 227.885 106.487 226.531 106.071 224.922L91.201 167.406C90.3364 164.078 92.3416 160.672 95.6646 159.813L193.904 134.344C195.519 133.927 197.191 134.161 198.623 135.01C200.06 135.854 201.076 137.203 201.493 138.818L216.368 196.328C217.232 199.656 215.227 203.063 211.899 203.927L113.665 229.396C113.144 229.526 112.612 229.594 112.092 229.594Z" fill="black"/>
<path d="M123.155 186.209L108.775 189.933C107.489 190.267 106.171 189.496 105.838 188.204L103.062 177.465C102.728 176.178 103.504 174.86 104.791 174.527L119.171 170.798C120.457 170.465 121.775 171.241 122.109 172.527L124.885 183.267C125.218 184.558 124.447 185.871 123.155 186.209Z" fill="#8C7BFF"/>
<path d="M105.836 188.705C105.607 188.705 105.399 188.548 105.336 188.319C105.263 188.043 105.43 187.762 105.706 187.689L110.685 186.403L108.243 176.949L103.378 178.21C103.102 178.283 102.821 178.116 102.748 177.84C102.68 177.564 102.842 177.283 103.118 177.215L108.482 175.824C108.618 175.788 108.753 175.809 108.873 175.876C108.993 175.949 109.076 176.059 109.107 176.194L111.81 186.642C111.883 186.918 111.717 187.194 111.441 187.267L105.967 188.689C105.92 188.699 105.878 188.705 105.836 188.705Z" fill="black"/>
<path d="M119.404 185.182C119.31 185.182 119.222 185.161 119.138 185.114C119.019 185.047 118.935 184.932 118.904 184.802L116.201 174.349C116.133 174.078 116.295 173.797 116.571 173.724L121.868 172.349C122.144 172.276 122.425 172.448 122.493 172.719C122.566 172.995 122.404 173.276 122.128 173.349L117.326 174.594L119.769 184.042L124.493 182.818C124.769 182.745 125.05 182.911 125.118 183.187C125.191 183.463 125.029 183.745 124.753 183.812L119.529 185.167C119.487 185.182 119.446 185.182 119.404 185.182Z" fill="black"/>
<path d="M104.863 185.261C104.634 185.261 104.425 185.11 104.363 184.876C104.29 184.599 104.457 184.323 104.733 184.251L113.811 181.896L113.03 178.865C112.957 178.594 113.123 178.313 113.394 178.24L122.774 175.808C123.05 175.735 123.332 175.907 123.399 176.178C123.472 176.454 123.306 176.735 123.035 176.808L114.155 179.11L114.936 182.136C115.009 182.412 114.842 182.693 114.566 182.766L104.993 185.245C104.946 185.256 104.905 185.261 104.863 185.261Z" fill="black"/>
<path d="M124.436 163.234L100.749 169.375L99.832 165.828L123.52 159.688L124.436 163.234Z" fill="#FCB503"/>
<path d="M155.02 155.309L131.327 161.449L130.41 157.902L154.103 151.762L155.02 155.309Z" fill="#FCB503"/>
<path d="M179.596 197.302L163.435 201.495L162.289 197.052L178.451 192.859L179.596 197.302Z" fill="#8C7BFF"/>
<path d="M125.977 200.329L109.816 204.521L108.326 198.756L124.488 194.568L125.977 200.329Z" fill="#8C7BFF"/>
<path d="M151.462 193.725L135.3 197.912L133.811 192.152L149.972 187.959L151.462 193.725Z" fill="#8C7BFF"/>
<path d="M176.946 187.121L160.785 191.309L159.295 185.548L175.456 181.355L176.946 187.121Z" fill="#8C7BFF"/>
<path d="M202.43 180.512L186.269 184.704L184.779 178.939L200.941 174.746L202.43 180.512Z" fill="#8C7BFF"/>
<path d="M206.961 197.959L189.398 202.511L186.648 191.87L204.211 187.318L206.961 197.959Z" fill="#FCB503"/>
<path d="M196.192 140.62L193.546 140.162C190.343 139.61 187.634 142.553 188.452 145.704L188.572 146.178C189.015 147.881 190.416 149.167 192.145 149.469L197.093 150.324C200.613 150.928 204.223 150.782 207.681 149.886L219.936 146.704L217.353 136.709L203.436 140.318C201.077 140.933 198.603 141.032 196.192 140.62Z" fill="#955B50"/>
<path d="M201.383 151.209C199.924 151.209 198.461 151.078 197.002 150.828L192.06 149.979C190.127 149.641 188.565 148.203 188.075 146.302L187.95 145.834C187.523 144.182 187.956 142.448 189.112 141.193C190.268 139.938 191.956 139.365 193.633 139.651L196.284 140.11C198.633 140.516 200.997 140.417 203.31 139.818L215.43 136.677C215.706 136.604 215.992 136.771 216.06 137.047C216.133 137.323 215.966 137.604 215.69 137.672L203.57 140.813C201.112 141.453 198.601 141.557 196.107 141.125L193.456 140.667C192.127 140.438 190.789 140.896 189.867 141.891C188.956 142.886 188.607 144.266 188.945 145.573L189.07 146.047C189.456 147.552 190.7 148.698 192.237 148.964L197.18 149.818C200.654 150.412 204.138 150.266 207.555 149.386L219.805 146.209C220.081 146.136 220.362 146.302 220.43 146.578C220.502 146.854 220.341 147.13 220.065 147.203L207.81 150.38C205.69 150.932 203.539 151.209 201.383 151.209Z" fill="black"/>
<path d="M258.722 168.048L230.967 195.376L217.748 181.913L245.508 154.59L258.722 168.048Z" fill="white"/>
<path d="M218.473 181.923L230.973 194.647L257.999 168.043L245.504 155.319L218.473 181.923ZM230.967 195.892C230.967 195.892 230.967 195.892 230.962 195.892C230.827 195.892 230.697 195.834 230.603 195.735L217.384 182.277C217.186 182.074 217.186 181.746 217.389 181.548L245.145 154.22C245.243 154.126 245.389 154.053 245.514 154.074C245.645 154.074 245.775 154.126 245.874 154.225L259.092 167.688C259.29 167.892 259.29 168.215 259.087 168.412L231.327 195.741C231.228 195.834 231.103 195.892 230.967 195.892Z" fill="black"/>
<path d="M228.586 180.292C228.456 180.292 228.32 180.308 228.19 180.344C227.346 180.563 226.836 181.433 227.055 182.271C227.159 182.683 227.419 183.027 227.789 183.245C228.148 183.459 228.575 183.516 228.982 183.412C229.831 183.193 230.336 182.329 230.122 181.48C230.013 181.074 229.752 180.73 229.388 180.516C229.143 180.37 228.872 180.292 228.586 180.292ZM228.586 184.495C228.122 184.495 227.669 184.37 227.263 184.131C226.664 183.777 226.232 183.209 226.06 182.532C225.7 181.141 226.539 179.709 227.935 179.35C228.607 179.172 229.31 179.271 229.909 179.626C230.513 179.98 230.94 180.547 231.117 181.225C231.476 182.615 230.633 184.047 229.242 184.407C229.023 184.464 228.805 184.495 228.586 184.495Z" fill="black"/>
<path d="M287.414 251.943C280.737 251.943 274.201 249.286 269.414 244.411L225.227 197.615C225.034 197.406 225.044 197.089 225.242 196.891L258.55 164.104C258.649 164.005 258.774 163.953 258.919 163.953C259.06 163.958 259.19 164.016 259.289 164.12L291.399 198.62L310.826 193.583C311.102 193.505 311.383 193.677 311.456 193.953C311.524 194.229 311.362 194.505 311.086 194.578L291.362 199.693C291.18 199.74 290.987 199.682 290.857 199.547L258.888 165.208L226.326 197.271L270.159 243.698C276.18 249.833 285.107 252.307 293.44 250.146L310.826 245.641C311.102 245.568 311.383 245.734 311.456 246.005C311.524 246.281 311.362 246.562 311.086 246.635L293.701 251.146C291.623 251.682 289.508 251.943 287.414 251.943Z" fill="black"/>
<path d="M310.956 194.078L291.232 199.193L258.904 164.469L225.602 197.255L269.779 244.047C275.961 250.344 285.029 252.859 293.565 250.646L310.956 246.135V194.078Z" fill="#8C7BFF"/>
<path d="M197.393 227.608L137.481 285.899L113.924 261.629L173.842 203.339L197.393 227.608Z" fill="white"/>
<path d="M151.556 246.355C151.488 246.355 151.421 246.336 151.353 246.312C150.665 246.072 150.057 245.679 149.553 245.151C147.722 243.27 147.771 240.254 149.645 238.429C150.966 237.145 152.926 236.739 154.646 237.39C154.96 237.513 155.113 237.864 154.997 238.177C154.88 238.49 154.53 238.644 154.216 238.527C152.932 238.042 151.476 238.343 150.493 239.301C149.092 240.659 149.061 242.908 150.419 244.309C150.8 244.696 151.255 244.985 151.759 245.175C152.078 245.286 152.244 245.636 152.127 245.949C152.041 246.195 151.802 246.355 151.556 246.355Z" fill="black"/>
<path d="M158.802 252.617C158.66 252.617 158.519 252.61 158.372 252.598C158.04 252.567 157.794 252.272 157.825 251.935C157.856 251.603 158.132 251.357 158.482 251.388C159.508 251.474 160.528 251.117 161.266 250.398C162.666 249.041 162.697 246.792 161.339 245.391C160.94 244.973 160.436 244.666 159.895 244.488C159.576 244.383 159.404 244.039 159.502 243.726C159.607 243.406 159.951 243.228 160.27 243.333C161.001 243.572 161.671 243.99 162.212 244.543C164.037 246.423 163.994 249.44 162.114 251.265C161.223 252.131 160.037 252.617 158.802 252.617Z" fill="black"/>
<path d="M163.421 253.532C163.268 253.532 163.108 253.47 162.985 253.348L147.158 237.035C146.924 236.795 146.93 236.408 147.17 236.175C147.41 235.941 147.791 235.947 148.03 236.193L163.858 252.506C164.091 252.739 164.085 253.126 163.845 253.36C163.729 253.477 163.575 253.532 163.421 253.532Z" fill="black"/>
<path d="M153.161 246.042C152.89 246.042 152.644 245.858 152.577 245.581C152.491 245.262 152.687 244.93 153.007 244.844L157.677 243.628C158.002 243.542 158.334 243.738 158.42 244.064C158.506 244.39 158.309 244.721 157.984 244.801L153.314 246.018C153.265 246.03 153.216 246.042 153.161 246.042Z" fill="black"/>
<path d="M114.784 261.641L137.493 285.044L196.539 227.596L173.83 204.199L114.784 261.641ZM137.48 286.507C137.474 286.507 137.474 286.507 137.468 286.507C137.308 286.507 137.155 286.439 137.044 286.322L113.487 262.053C113.26 261.813 113.26 261.426 113.5 261.193L173.418 202.903C173.535 202.792 173.688 202.749 173.848 202.73C174.008 202.737 174.161 202.798 174.278 202.921L197.829 227.184C198.062 227.424 198.056 227.811 197.817 228.045L137.904 286.335C137.788 286.445 137.64 286.507 137.48 286.507Z" fill="black"/>
<path d="M124.357 272.377C130.286 266.608 130.427 257.121 124.664 251.186L113.924 261.631L124.357 272.377Z" fill="#4ADA85"/>
<path d="M127.047 275.153L137.48 285.9L148.214 275.454C142.45 269.519 132.976 269.384 127.047 275.153Z" fill="#4ADA85"/>
<path d="M186.961 216.863C181.031 222.633 180.896 232.119 186.659 238.055L197.393 227.609L186.961 216.863Z" fill="#4ADA85"/>
<path d="M114.784 261.641L137.493 285.044L196.539 227.596L173.83 204.199L114.784 261.641ZM137.48 286.507C137.474 286.507 137.474 286.507 137.468 286.507C137.308 286.507 137.155 286.439 137.044 286.322L113.487 262.053C113.26 261.813 113.26 261.426 113.5 261.193L173.418 202.903C173.535 202.792 173.688 202.749 173.848 202.73C174.008 202.737 174.161 202.798 174.278 202.921L197.829 227.184C198.062 227.424 198.056 227.811 197.817 228.045L137.904 286.335C137.788 286.445 137.64 286.507 137.48 286.507Z" fill="black"/>
<path d="M137.805 282.017C137.645 282.017 137.492 281.956 137.369 281.833L117.984 261.858C117.75 261.619 117.757 261.231 117.996 260.998L133.185 246.221C133.424 245.988 133.811 245.994 134.045 246.233C134.278 246.473 134.272 246.86 134.033 247.094L119.274 261.446L138.241 280.991C138.475 281.231 138.469 281.618 138.229 281.851C138.112 281.962 137.959 282.017 137.805 282.017Z" fill="black"/>
<path d="M176.348 244.517C176.188 244.517 176.034 244.455 175.912 244.333C175.678 244.093 175.684 243.706 175.924 243.479L191.923 227.909L172.962 208.371C172.729 208.125 172.735 207.744 172.975 207.504C173.214 207.277 173.601 207.277 173.835 207.523L193.22 227.497C193.453 227.737 193.447 228.124 193.208 228.358L176.772 244.345C176.655 244.462 176.501 244.517 176.348 244.517Z" fill="black"/>
<path d="M159.582 258.416C159.569 258.416 159.551 258.416 159.539 258.416C155.471 258.127 151.158 255.922 147.705 252.358C144.043 248.586 141.905 243.805 141.991 239.572C141.997 239.234 142.298 238.964 142.605 238.976C142.943 238.982 143.207 239.259 143.201 239.597C143.121 243.51 145.13 247.965 148.577 251.516C151.828 254.865 155.852 256.942 159.625 257.206C159.956 257.23 160.208 257.519 160.184 257.857C160.159 258.177 159.895 258.416 159.582 258.416Z" fill="black"/>
<path d="M168.717 249.526C168.391 249.526 168.127 249.274 168.108 248.942C167.949 245.163 165.995 241.077 162.744 237.729C159.297 234.177 154.911 232.039 150.997 232.002C150.665 232.002 150.395 231.732 150.395 231.394C150.401 231.062 150.671 230.798 151.009 230.792C155.236 230.829 159.949 233.102 163.617 236.881C167.07 240.438 169.153 244.819 169.325 248.893C169.337 249.231 169.079 249.513 168.741 249.526C168.735 249.526 168.723 249.526 168.717 249.526Z" fill="black"/>
<path d="M181.369 219.542L137.106 290.477L108.443 272.548L152.706 201.613L181.369 219.542Z" fill="white"/>
<path d="M141.191 248.727C141.166 248.727 141.148 248.727 141.129 248.721C140.404 248.647 139.722 248.414 139.102 248.027C136.878 246.638 136.202 243.695 137.584 241.471C138.561 239.91 140.368 239.056 142.192 239.271C142.524 239.308 142.764 239.609 142.721 239.941C142.684 240.273 142.371 240.512 142.045 240.475C140.681 240.309 139.341 240.955 138.616 242.116C137.584 243.769 138.088 245.962 139.741 246.994C140.208 247.283 140.712 247.455 141.252 247.51C141.584 247.547 141.824 247.848 141.793 248.18C141.756 248.494 141.498 248.727 141.191 248.727Z" fill="black"/>
<path d="M149.351 253.145C149.056 253.145 148.798 252.93 148.755 252.629C148.7 252.297 148.927 251.984 149.259 251.941C150.285 251.781 151.182 251.185 151.729 250.313C152.761 248.66 152.258 246.466 150.605 245.428C150.113 245.127 149.554 244.943 148.983 244.9C148.651 244.875 148.399 244.586 148.424 244.248C148.448 243.916 148.743 243.665 149.069 243.689C149.837 243.744 150.592 243.99 151.244 244.402C153.468 245.79 154.144 248.734 152.761 250.958C152.024 252.131 150.814 252.924 149.443 253.139C149.413 253.139 149.382 253.145 149.351 253.145Z" fill="black"/>
<path d="M154.426 252.855C154.315 252.855 154.205 252.831 154.106 252.763L134.838 240.714C134.549 240.536 134.463 240.161 134.641 239.879C134.82 239.596 135.194 239.504 135.477 239.682L154.745 251.737C155.034 251.915 155.12 252.29 154.942 252.573C154.825 252.757 154.629 252.855 154.426 252.855Z" fill="black"/>
<path d="M142.672 248.038C142.457 248.038 142.248 247.922 142.138 247.719C141.978 247.424 142.088 247.055 142.383 246.896L146.629 244.598C146.924 244.438 147.293 244.548 147.452 244.843C147.612 245.138 147.502 245.507 147.207 245.667L142.961 247.965C142.869 248.014 142.77 248.038 142.672 248.038Z" fill="black"/>
<path d="M109.279 272.351L136.915 289.64L180.533 219.732L152.902 202.448L109.279 272.351ZM137.106 291.084C136.995 291.084 136.878 291.054 136.786 290.992L108.117 273.057C107.835 272.885 107.749 272.51 107.927 272.228L152.19 201.287C152.276 201.152 152.417 201.053 152.571 201.016C152.73 200.98 152.896 201.004 153.032 201.096L181.694 219.025C181.977 219.203 182.063 219.578 181.885 219.861L137.622 290.802C137.536 290.937 137.401 291.035 137.241 291.072C137.198 291.078 137.149 291.084 137.106 291.084Z" fill="black"/>
<path d="M121.138 280.492C125.518 273.476 123.386 264.223 116.37 259.842L108.438 272.548L121.138 280.492Z" fill="#4ADA85"/>
<path d="M124.406 282.54L137.106 290.484L145.038 277.772C138.028 273.385 128.787 275.517 124.406 282.54Z" fill="#4ADA85"/>
<path d="M168.675 211.597C164.294 218.62 166.426 227.867 173.443 232.254L181.375 219.541L168.675 211.597Z" fill="#4ADA85"/>
<path d="M109.279 272.351L136.915 289.64L180.533 219.732L152.902 202.448L109.279 272.351ZM137.106 291.084C136.995 291.084 136.878 291.054 136.786 290.992L108.117 273.057C107.835 272.885 107.749 272.51 107.927 272.228L152.19 201.287C152.276 201.152 152.417 201.053 152.571 201.016C152.73 200.98 152.896 201.004 153.032 201.096L181.694 219.025C181.977 219.203 182.063 219.578 181.885 219.861L137.622 290.802C137.536 290.937 137.401 291.035 137.241 291.072C137.198 291.078 137.149 291.084 137.106 291.084Z" fill="black"/>
<path d="M136.349 286.649C136.238 286.649 136.128 286.619 136.029 286.557L112.436 271.793C112.147 271.614 112.061 271.246 112.239 270.957L123.465 252.973C123.643 252.69 124.018 252.604 124.3 252.782C124.583 252.954 124.669 253.335 124.491 253.612L113.591 271.086L136.668 285.525C136.957 285.703 137.043 286.078 136.865 286.36C136.748 286.545 136.552 286.649 136.349 286.649Z" fill="black"/>
<path d="M164.829 241.014C164.718 241.014 164.602 240.984 164.503 240.922C164.221 240.744 164.135 240.369 164.313 240.081L176.134 221.138L153.057 206.699C152.774 206.527 152.688 206.152 152.86 205.863C153.038 205.581 153.413 205.495 153.702 205.673L177.295 220.431C177.578 220.61 177.664 220.978 177.486 221.267L165.339 240.726C165.228 240.91 165.025 241.014 164.829 241.014Z" fill="black"/>
<path d="M149.548 258.717C146.132 258.717 142.415 257.587 139.029 255.467C134.568 252.671 131.349 248.543 130.427 244.414C130.354 244.088 130.556 243.762 130.882 243.689C131.208 243.615 131.533 243.824 131.607 244.149C132.467 247.965 135.478 251.811 139.674 254.435C143.625 256.911 148.03 257.962 151.754 257.323C152.092 257.261 152.399 257.489 152.454 257.814C152.516 258.146 152.294 258.459 151.963 258.515C151.182 258.65 150.371 258.717 149.548 258.717Z" fill="black"/>
<path d="M158.61 247.701C158.346 247.701 158.106 247.529 158.026 247.265C156.97 243.634 154.094 240.132 150.137 237.656C145.947 235.032 141.173 234.006 137.37 234.915C137.044 234.989 136.718 234.786 136.639 234.461C136.565 234.135 136.761 233.809 137.087 233.73C141.204 232.753 146.322 233.834 150.782 236.623C154.991 239.253 158.051 243.007 159.194 246.927C159.286 247.247 159.102 247.585 158.782 247.677C158.727 247.695 158.665 247.701 158.61 247.701Z" fill="black"/>
<path d="M162.955 215.745L135.717 294.821L103.768 283.792L130.999 204.71L162.955 215.745Z" fill="white"/>
<path d="M129.69 253.255C129.168 253.255 128.652 253.175 128.148 252.997C125.672 252.143 124.351 249.433 125.205 246.951C125.801 245.212 127.368 243.965 129.199 243.768C129.537 243.738 129.832 243.977 129.869 244.309C129.899 244.647 129.66 244.942 129.328 244.979C127.964 245.12 126.796 246.054 126.354 247.344C125.715 249.194 126.698 251.215 128.541 251.848C129.058 252.026 129.592 252.088 130.127 252.02C130.465 251.977 130.766 252.21 130.803 252.542C130.846 252.88 130.612 253.181 130.28 253.218C130.084 253.249 129.887 253.255 129.69 253.255Z" fill="black"/>
<path d="M139.146 255.7C138.906 255.7 138.679 255.558 138.581 255.319C138.464 255.005 138.611 254.655 138.925 254.532C139.883 254.145 140.627 253.365 140.965 252.388C141.597 250.545 140.614 248.523 138.771 247.89C138.224 247.7 137.653 247.651 137.081 247.737C136.744 247.786 136.436 247.559 136.387 247.227C136.332 246.901 136.559 246.588 136.891 246.539C137.653 246.416 138.439 246.489 139.171 246.741C141.647 247.595 142.968 250.311 142.114 252.787C141.659 254.102 140.664 255.147 139.373 255.657C139.3 255.687 139.22 255.7 139.146 255.7Z" fill="black"/>
<path d="M144.03 254.287C143.963 254.287 143.895 254.275 143.834 254.25L122.354 246.834C122.034 246.73 121.868 246.386 121.973 246.066C122.083 245.747 122.433 245.581 122.747 245.691L144.227 253.108C144.546 253.212 144.712 253.562 144.602 253.876C144.516 254.127 144.282 254.287 144.03 254.287Z" fill="black"/>
<path d="M131.496 252.228C131.33 252.228 131.158 252.155 131.042 252.019C130.82 251.767 130.845 251.387 131.097 251.165L134.716 247.97C134.968 247.749 135.349 247.774 135.57 248.026C135.791 248.271 135.767 248.659 135.521 248.88L131.896 252.075C131.779 252.173 131.638 252.228 131.496 252.228Z" fill="black"/>
<path d="M104.535 283.417L135.342 294.053L162.18 216.12L131.373 205.484L104.535 283.417ZM135.717 295.429C135.649 295.429 135.588 295.417 135.52 295.398L103.57 284.363C103.251 284.259 103.085 283.909 103.189 283.589L130.427 204.513C130.476 204.366 130.586 204.237 130.734 204.169C130.881 204.101 131.047 204.089 131.195 204.138L163.151 215.167C163.47 215.278 163.636 215.628 163.525 215.947L136.294 295.023C136.239 295.171 136.128 295.3 135.987 295.367C135.901 295.411 135.809 295.429 135.717 295.429Z" fill="black"/>
<path d="M117.918 288.675C120.615 280.854 116.462 272.319 108.646 269.622L103.768 283.791L117.918 288.675Z" fill="#4ADA85"/>
<path d="M121.566 289.935L135.717 294.82L140.601 280.651C132.78 277.954 124.264 282.113 121.566 289.935Z" fill="#4ADA85"/>
<path d="M148.799 210.859C146.108 218.681 150.255 227.215 158.076 229.919L162.955 215.744L148.799 210.859Z" fill="#4ADA85"/>
<path d="M126.119 218.885C133.935 221.582 142.457 217.428 145.154 209.601L130.998 204.71L126.119 218.885Z" fill="#4ADA85"/>
<path d="M104.535 283.417L135.342 294.053L162.18 216.12L131.373 205.484L104.535 283.417ZM135.717 295.429C135.649 295.429 135.588 295.417 135.52 295.398L103.57 284.363C103.251 284.259 103.085 283.909 103.189 283.589L130.427 204.513C130.476 204.366 130.586 204.237 130.734 204.169C130.881 204.101 131.047 204.089 131.195 204.138L163.151 215.167C163.47 215.278 163.636 215.628 163.525 215.947L136.294 295.023C136.239 295.171 136.128 295.3 135.987 295.367C135.901 295.411 135.809 295.429 135.717 295.429Z" fill="black"/>
<path d="M133.985 291.275C133.923 291.275 133.856 291.263 133.788 291.239L107.491 282.164C107.172 282.053 107.006 281.709 107.116 281.389L114.022 261.335C114.127 261.021 114.471 260.855 114.79 260.96C115.11 261.071 115.276 261.415 115.165 261.734L108.462 281.211L134.188 290.09C134.501 290.2 134.673 290.544 134.562 290.864C134.476 291.116 134.243 291.275 133.985 291.275Z" fill="black"/>
<path d="M151.507 240.402C151.439 240.402 151.378 240.389 151.31 240.365C150.991 240.26 150.825 239.91 150.935 239.597L158.21 218.473L132.478 209.595C132.165 209.484 131.999 209.14 132.103 208.821C132.214 208.507 132.558 208.335 132.878 208.446L159.175 217.527C159.494 217.637 159.66 217.982 159.556 218.301L152.084 239.99C151.992 240.242 151.759 240.402 151.507 240.402Z" fill="black"/>
<path d="M136.835 261.495C134.537 261.495 132.122 261.083 129.744 260.266C124.774 258.546 120.712 255.246 118.881 251.431C118.734 251.124 118.863 250.761 119.164 250.62C119.471 250.472 119.834 250.601 119.975 250.902C121.665 254.429 125.468 257.507 130.138 259.117C134.549 260.641 139.077 260.672 142.561 259.209C142.875 259.08 143.225 259.228 143.354 259.541C143.489 259.848 143.342 260.205 143.034 260.328C141.179 261.108 139.065 261.495 136.835 261.495Z" fill="black"/>
<path d="M146.948 248.322C146.739 248.322 146.53 248.205 146.419 248.008C144.576 244.709 140.988 241.938 136.576 240.414C131.907 238.804 127.022 238.872 123.52 240.611C123.219 240.758 122.856 240.635 122.709 240.34C122.562 240.033 122.684 239.671 122.979 239.523C126.77 237.643 131.999 237.551 136.976 239.265C141.664 240.887 145.492 243.855 147.482 247.412C147.642 247.707 147.538 248.076 147.249 248.242C147.151 248.297 147.052 248.322 146.948 248.322Z" fill="black"/>
<path d="M135.926 285.481C134.494 285.893 133.02 286.145 131.533 286.237C132.774 286.126 134.003 285.905 135.201 285.573L151.416 281.07L135.926 285.481ZM152.939 270.102L135.969 274.938C132.719 275.865 129.309 276.105 125.96 275.632L103.988 272.578C102.932 272.271 101.955 271.712 101.15 270.944L99.3126 269.187L120.989 263.067C123.896 262.25 125.591 259.221 124.768 256.308L124.633 255.829C123.816 252.917 120.793 251.221 117.88 252.038L95.577 258.336C91.657 259.442 87.9397 261.181 84.585 263.491L62.9082 278.391L70.9448 302.617L95.3988 301.886L120.234 315.023C122.747 316.35 125.499 317.155 128.332 317.37L143.219 318.512C145.628 318.703 147.809 317.087 148.331 314.721L148.423 314.304C149.062 311.397 146.973 308.602 144.012 308.405L131.975 307.588C130.961 307.514 129.96 307.361 128.971 307.146C131.398 307.342 133.843 307.109 136.196 306.458L150.574 302.445C152.902 301.8 154.402 299.533 154.088 297.137L154.033 296.713C153.646 293.764 150.727 291.847 147.876 292.67L136.276 296.019C133.474 296.817 130.537 297.02 127.65 296.621L123.379 296.025L123.361 295.951L127.429 296.485C130.243 296.873 133.106 296.682 135.846 295.926L155.882 290.36C158.315 289.684 159.882 287.312 159.557 284.805C159.163 281.813 156.276 279.847 153.376 280.529L155.569 279.915C157.818 279.294 159.262 277.107 158.961 274.796L158.856 274.004C158.481 271.165 155.686 269.322 152.939 270.102Z" fill="#FDA4FF"/>
<path d="M70.4468 302.612L62.4102 278.391L74.9321 269.783L90.8517 302.495L70.4468 302.612Z" fill="#020202"/>
<path d="M129.161 286.938C128.184 286.938 127.195 286.87 126.212 286.735L113.954 285.033C113.622 284.99 113.389 284.683 113.432 284.351C113.481 284.019 113.782 283.786 114.12 283.835L126.378 285.531C129.124 285.912 131.877 285.727 134.544 284.99L154.912 279.325C156.853 278.791 158.125 276.874 157.861 274.877L157.756 274.078C157.603 272.904 156.945 271.854 155.956 271.203C154.967 270.545 153.75 270.361 152.607 270.686L135.643 275.522C132.289 276.474 128.836 276.72 125.376 276.235L105.918 273.525C103.233 273.156 100.781 271.971 98.8272 270.097L98.4586 269.74C98.2128 269.513 98.2067 269.126 98.4402 268.886C98.6675 268.64 99.0546 268.634 99.2942 268.862L99.6628 269.218C101.439 270.914 103.657 271.989 106.084 272.327L125.548 275.03C128.836 275.491 132.117 275.258 135.305 274.355L152.276 269.519C153.756 269.101 155.336 269.341 156.626 270.189C157.91 271.031 158.758 272.395 158.961 273.918L159.065 274.717C159.403 277.316 157.756 279.804 155.237 280.499L134.869 286.158C132.995 286.68 131.084 286.938 129.161 286.938Z" fill="black"/>
<path d="M129.8 297.291C128.824 297.291 127.834 297.223 126.851 297.088L116.351 295.632C116.019 295.583 115.786 295.276 115.835 294.944C115.878 294.612 116.185 294.379 116.517 294.428L127.017 295.884C129.764 296.265 132.516 296.081 135.189 295.337L155.225 289.777C157.351 289.181 158.746 287.079 158.457 284.886C158.291 283.614 157.621 282.514 156.571 281.783C155.532 281.064 154.236 280.824 153.013 281.107C152.688 281.187 152.362 280.984 152.282 280.659C152.208 280.327 152.411 280.007 152.737 279.927C154.291 279.559 155.938 279.872 157.259 280.788C158.58 281.697 159.452 283.135 159.661 284.726C160.024 287.522 158.254 290.188 155.551 290.944L135.508 296.511C133.634 297.033 131.724 297.291 129.8 297.291Z" fill="black"/>
<path d="M143.091 319.14C142.95 319.14 142.814 319.134 142.679 319.121L127.792 317.978C124.861 317.751 122.053 316.934 119.454 315.558L95.4118 302.845L70.454 303.226H70.4479C70.1836 303.226 69.9502 303.054 69.8703 302.808L61.8337 278.582C61.7477 278.324 61.846 278.041 62.0672 277.887L83.7501 262.988C87.1662 260.641 90.9265 258.877 94.9141 257.753L117.218 251.455C118.784 251.019 120.425 251.209 121.844 252.008C123.257 252.801 124.283 254.103 124.726 255.664L124.855 256.143C125.764 259.375 123.884 262.742 120.652 263.657L92.7759 271.522C92.4503 271.614 92.1185 271.43 92.0263 271.104C91.9341 270.779 92.1185 270.447 92.4441 270.355L120.327 262.484C122.907 261.759 124.419 259.062 123.687 256.475L123.552 255.996C123.202 254.742 122.385 253.704 121.248 253.065C120.111 252.426 118.803 252.272 117.549 252.629L95.2397 258.926C91.3812 260.014 87.7438 261.716 84.4321 263.989L63.1301 278.631L70.8841 302.003L95.5531 301.629C95.6514 301.641 95.7558 301.653 95.8419 301.696L120.019 314.489C122.471 315.785 125.119 316.553 127.884 316.768L142.771 317.911C144.854 318.077 146.783 316.645 147.238 314.593L147.336 314.175C147.601 312.965 147.33 311.699 146.587 310.704C145.843 309.708 144.713 309.094 143.478 309.008L129.451 307.81C129.119 307.785 128.873 307.49 128.898 307.152C128.928 306.821 129.217 306.562 129.555 306.599L143.57 307.804C145.143 307.902 146.605 308.701 147.558 309.979C148.516 311.251 148.866 312.879 148.516 314.439L148.424 314.857C147.871 317.358 145.616 319.14 143.091 319.14Z" fill="black"/>
<path d="M130.15 307.828C129.167 307.828 128.184 307.755 127.201 307.619L118.071 306.12C117.739 306.065 117.518 305.758 117.573 305.426C117.622 305.094 117.935 304.861 118.267 304.922L127.379 306.421C130.113 306.796 132.86 306.618 135.532 305.875L149.916 301.862C151.944 301.297 153.258 299.3 152.988 297.217L152.933 296.793C152.773 295.558 152.085 294.465 151.047 293.783C150.014 293.107 148.736 292.916 147.544 293.254L146.666 293.506C146.34 293.605 146.002 293.414 145.91 293.095C145.818 292.775 146.002 292.437 146.328 292.345L147.206 292.087C148.742 291.645 150.383 291.896 151.71 292.769C153.043 293.641 153.928 295.048 154.137 296.634L154.192 297.058C154.543 299.736 152.847 302.305 150.242 303.03L135.858 307.042C133.984 307.564 132.073 307.828 130.15 307.828Z" fill="black"/>
<path d="M79.6877 316.51L4.60547 347.87L4.63619 295.024L60.9417 271.51L79.6877 316.51Z" fill="#8C7BFF"/>
<path d="M4.60589 348.478C4.37241 348.478 4.14507 348.337 4.04676 348.103C3.91774 347.79 4.0652 347.44 4.37241 347.311L78.8955 316.184L60.6165 272.302L4.87009 295.583C4.56288 295.712 4.20652 295.571 4.07749 295.257C3.94846 294.944 4.09592 294.594 4.40313 294.465L60.7086 270.945C60.8561 270.883 61.022 270.883 61.1756 270.945C61.3231 271.006 61.4398 271.123 61.5013 271.27L80.2534 316.276C80.3824 316.584 80.2349 316.94 79.9216 317.069L4.83937 348.429C4.76564 348.46 4.68576 348.478 4.60589 348.478Z" fill="black"/>
<path d="M64.4444 312.183C63.363 312.183 62.4783 313.068 62.4783 314.149C62.4783 315.243 63.363 316.122 64.4444 316.122C65.5319 316.122 66.4106 315.243 66.4106 314.149C66.4106 313.068 65.5319 312.183 64.4444 312.183ZM64.4444 317.338C62.6933 317.338 61.2617 315.907 61.2617 314.149C61.2617 312.398 62.6933 310.967 64.4444 310.967C66.2017 310.967 67.6271 312.398 67.6271 314.149C67.6271 315.907 66.2017 317.338 64.4444 317.338Z" fill="black"/>
<path d="M54.4288 315.859C53.3474 315.859 52.4626 316.744 52.4626 317.831C52.4626 318.919 53.3474 319.803 54.4288 319.803C55.5163 319.803 56.3949 318.919 56.3949 317.831C56.3949 316.744 55.5163 315.859 54.4288 315.859ZM54.4288 321.014C52.6777 321.014 51.2461 319.588 51.2461 317.831C51.2461 316.074 52.6777 314.648 54.4288 314.648C56.186 314.648 57.6115 316.074 57.6115 317.831C57.6115 319.588 56.186 321.014 54.4288 321.014Z" fill="black"/>
<path d="M44.4151 319.538C43.3276 319.538 42.449 320.423 42.449 321.51C42.449 322.592 43.3276 323.476 44.4151 323.476C45.4965 323.476 46.3813 322.592 46.3813 321.51C46.3813 320.423 45.4965 319.538 44.4151 319.538ZM44.4151 324.693C42.6579 324.693 41.2324 323.261 41.2324 321.51C41.2324 319.753 42.6579 318.321 44.4151 318.321C46.1662 318.321 47.5978 319.753 47.5978 321.51C47.5978 323.261 46.1662 324.693 44.4151 324.693Z" fill="black"/>
<path d="M34.3995 323.219C33.312 323.219 32.4333 324.098 32.4333 325.186C32.4333 326.273 33.312 327.158 34.3995 327.158C35.4809 327.158 36.3656 326.273 36.3656 325.186C36.3656 324.098 35.4809 323.219 34.3995 323.219ZM34.3995 328.368C32.6423 328.368 31.2168 326.943 31.2168 325.186C31.2168 323.428 32.6423 322.003 34.3995 322.003C36.1506 322.003 37.5761 323.428 37.5761 325.186C37.5761 326.943 36.1506 328.368 34.3995 328.368Z" fill="black"/>
<path d="M0.580078 35.8314C0.580078 140.341 61.4623 160.447 61.4623 160.447C61.4623 160.447 122.339 133.987 122.339 35.8314L61.4623 0.549805L0.580078 35.8314Z" fill="white"/>
<path d="M1.12772 36.1435C1.19339 89.7254 17.6111 120.514 31.391 136.915C45.4062 153.607 59.602 159.183 61.4353 159.856C63.2468 159.008 77.4699 151.998 91.518 134.551C105.298 117.427 121.727 86.4637 121.792 36.1435L61.4627 1.18481L1.12772 36.1435ZM61.4627 161C61.4025 161 61.3423 160.989 61.2876 160.967C61.1343 160.918 45.7455 155.686 30.6029 137.681C21.721 127.125 14.6449 114.303 9.57735 99.5705C3.2456 81.1772 0.0332031 59.7303 0.0332031 35.8316C0.0332031 35.6346 0.137183 35.454 0.306831 35.3555L61.1891 0.073879C61.3532 -0.0246263 61.5667 -0.0246263 61.7363 0.073879L122.619 35.3555C122.788 35.454 122.892 35.6346 122.892 35.8316C122.892 58.28 119.68 78.824 113.348 96.8944C108.275 111.358 101.204 124.279 92.3279 135.29C77.1963 154.066 61.8348 160.885 61.6816 160.951C61.6105 160.984 61.5338 161 61.4627 161Z" fill="black"/>
<path d="M61.4629 146.869C61.4629 146.869 112.002 124.903 112.002 43.4161L61.4629 14.127V146.869Z" fill="#8C7BFF"/>
<path d="M61.4629 147.422C61.4027 147.422 61.348 147.411 61.2878 147.39C61.1619 147.351 48.3616 142.995 35.7692 128.033C24.1838 114.259 10.3711 88.4009 10.3711 43.4164C10.3711 43.2194 10.4751 43.0388 10.6447 42.9403L61.1838 13.6511C61.4465 13.4979 61.7858 13.591 61.9336 13.8536C62.0868 14.1163 61.9992 14.4501 61.7365 14.6034L11.4711 43.7283C11.5313 88.1874 25.1689 113.728 36.612 127.327C49.0019 142.054 61.5067 146.306 61.6326 146.35C61.9226 146.443 62.0758 146.755 61.9828 147.039C61.9062 147.275 61.6928 147.422 61.4629 147.422Z" fill="black"/>
<path d="M73.8094 51.9254C73.8094 48.921 71.3632 46.4802 68.3533 46.4802H55.0166C52.0067 46.4802 49.5605 48.921 49.5605 51.9254V78.7957H73.8094V51.9254ZM41.7676 82.6867V51.9254C41.7676 44.6305 47.7108 38.6982 55.0166 38.6982H68.3533C75.6592 38.6982 81.6024 44.6305 81.6024 51.9254V82.6867C81.6024 84.8374 79.8566 86.5777 77.7059 86.5777H45.664C43.5133 86.5777 41.7676 84.8374 41.7676 82.6867Z" fill="#FED101"/>
<path d="M50.1136 78.2498H73.2625V51.9213C73.2625 49.2233 71.0626 47.0288 68.3537 47.0288H55.017C52.3136 47.0288 50.1136 49.2233 50.1136 51.9213V78.2498ZM73.8098 79.3498H49.5609C49.2599 79.3498 49.0136 79.1035 49.0136 78.7971V51.9213C49.0136 48.6214 51.7061 45.9289 55.017 45.9289H68.3537C71.6646 45.9289 74.3571 48.6214 74.3571 51.9213V78.7971C74.3571 79.1035 74.1163 79.3498 73.8098 79.3498ZM55.017 39.2469C48.0122 39.2469 42.3207 44.9383 42.3207 51.9213V82.688C42.3207 84.5268 43.8202 86.0263 45.6644 86.0263H77.7063C79.5505 86.0263 81.05 84.5268 81.05 82.688V51.9213C81.05 44.9383 75.3585 39.2469 68.3537 39.2469H55.017ZM77.7063 87.1263H45.6644C43.2127 87.1263 41.2207 85.1343 41.2207 82.688V51.9213C41.2207 44.3309 47.4102 38.1523 55.017 38.1523H68.3537C75.9605 38.1523 82.15 44.3309 82.15 51.9213V82.688C82.15 85.1343 80.158 87.1263 77.7063 87.1263Z" fill="black"/>
<path d="M88.3997 71.5459H34.9766V92.8342C40.3068 104.244 50.1684 111.912 61.4638 111.912C73.0875 111.912 83.1898 103.796 88.3997 91.8327V71.5459Z" fill="#FED101"/>
<path d="M35.5222 92.7132C40.9401 104.222 50.8673 111.364 61.4622 111.364C72.4292 111.364 82.5315 103.839 87.8454 91.7172V72.0926H35.5222V92.7132ZM61.4622 112.464C50.4021 112.464 40.0645 105.026 34.477 93.0689C34.4442 92.9977 34.4277 92.9157 34.4277 92.8336V71.5453C34.4277 71.2388 34.674 70.998 34.975 70.998H88.3981C88.6991 70.998 88.9454 71.2388 88.9454 71.5453V91.8321C88.9454 91.9087 88.929 91.9798 88.9016 92.051C83.4181 104.638 72.9053 112.464 61.4622 112.464Z" fill="black"/>
<path d="M56.7285 97.4849L59.1091 87.7546C57.8996 87.0158 57.0897 85.6915 57.0897 84.1701C57.0897 81.8497 58.9723 79.9727 61.2981 79.9727C63.6239 79.9727 65.5065 81.8497 65.5065 84.1701C65.5065 85.6915 64.6966 87.0158 63.4871 87.7546L65.8677 97.4849H56.7285Z" fill="black"/>
<path d="M262.522 136.964C260.865 129.964 257.568 123.593 253.053 118.299C257.568 112.997 260.865 106.634 262.522 99.625C264.187 106.634 267.485 112.997 272 118.299C267.485 123.593 264.187 129.964 262.522 136.964Z" fill="#FDA4FF"/>
<path d="M220.41 82.1276C219.3 77.4136 217.08 73.1221 214.039 69.5597C217.08 65.9972 219.3 61.714 220.41 57C221.528 61.714 223.749 65.9972 226.798 69.5597C223.749 73.1221 221.528 77.4136 220.41 82.1276Z" fill="#4ADA85"/>
<path d="M174.405 82.7824C169.542 88.4823 165.988 95.3338 164.207 102.881C162.417 95.3338 158.863 88.4823 154 82.7824C158.863 77.0742 162.417 70.2227 164.207 62.6836C165.988 70.2227 169.542 77.0742 174.405 82.7824Z" fill="#FED101"/>
<path d="M4.31721 64.4459C4.31721 42.4344 22.161 24.5906 44.1725 24.5906H310.273V308.41C310.273 330.422 292.429 348.266 270.417 348.266H4.31721V64.4459Z" stroke="url(#paint0_linear_3021_230589)" stroke-width="1.1813"/>
<defs>
<linearGradient id="paint0_linear_3021_230589" x1="311.025" y1="23.6251" x2="3.88807" y2="334.896" gradientUnits="userSpaceOnUse">
<stop stop-color="#D9D9D9"/>
<stop offset="1" stop-color="#D9D9D9" stop-opacity="0"/>
</linearGradient>
</defs>
</svg>
