<svg width="360" height="325" viewBox="0 0 360 325" fill="none" xmlns="http://www.w3.org/2000/svg">
<path d="M132.398 59.6035L177.966 206.864L69.8307 255.296L19.8984 93.9264L132.398 59.6035Z" fill="#020202"/>
<path d="M26.5436 91.8691L40.4707 136.885L22.1686 139.348L9.14258 97.2598L26.5436 91.8691Z" fill="#020202"/>
<path d="M126.774 56.5879L177.035 203.843L74.1543 244.374L25.7324 87.89L126.774 56.5879Z" fill="white"/>
<path d="M134.184 50.0625L181.361 202.505L79.877 233.943L32.7051 81.5L134.184 50.0625Z" fill="#4ADA85"/>
<path d="M37.8978 79.8965L51.4499 123.673L32.4447 123.881L20.502 85.2819L37.8978 79.8965Z" fill="#4ADA85"/>
<path d="M295.336 99.3698L238.315 242.578L123.773 212.271L186.263 55.3438L295.336 99.3698Z" fill="#020202"/>
<path d="M192.727 57.9167L175.295 101.698L159.514 92.1042L175.811 51.1719L192.727 57.9167Z" fill="#020202"/>
<path d="M292.857 93.4896L239.482 239.641L133.998 206.49L194.592 54.3125L292.857 93.4896Z" fill="white"/>
<path d="M302.721 93.0723L243.684 241.322L145.002 201.979L204.033 53.7285L302.721 93.0723Z" fill="#FED101"/>
<path d="M209.085 55.7448L192.132 98.3177L177.221 86.5312L192.169 49L209.085 55.7448Z" fill="#FED101"/>
<path d="M292.21 259.813C296.783 254.005 300.137 247.25 301.747 239.787C305.221 223.636 299.825 206.078 288.976 193.828C281.059 184.886 269.882 178.058 258.153 175.558C251.887 174.219 245.044 174.448 238.736 175.448C237.023 175.724 219.684 179.719 220.059 181.297C197.398 86.6356 59.856 88.8856 55.0488 197.776C-9.00854 186.25 -24.7169 281.828 52.2623 281.828C52.2623 281.828 245.408 282.193 245.684 282.193C263.351 282.224 281.268 273.714 292.21 259.813Z" fill="white"/>
<path d="M44.6849 197.35C30.2369 197.35 17.7942 203.209 9.62235 214.136C0.0910988 226.886 -1.65369 243.938 5.17443 257.579C12.8307 272.881 29.5546 281.308 52.2682 281.308L245.685 281.668C245.716 281.668 245.753 281.668 245.789 281.668C263.409 281.668 281.029 273.178 291.799 259.491C296.523 253.491 299.695 246.824 301.237 239.673C304.57 224.183 299.721 206.751 288.591 194.173C280.544 185.095 269.414 178.491 258.044 176.063C252.497 174.881 245.852 174.845 238.82 175.964C236.122 176.397 221.68 179.97 220.586 181.308C220.581 181.537 220.419 181.746 220.185 181.803C219.904 181.871 219.622 181.699 219.555 181.418V181.412C207.294 130.214 163.544 110.537 128.086 113.944C96.2057 117.001 58.0859 140.798 55.5703 197.798C55.5651 197.949 55.4921 198.089 55.3776 198.183C55.2578 198.282 55.1067 198.319 54.9557 198.293C51.4453 197.662 48.0078 197.35 44.6849 197.35ZM245.789 282.714C245.753 282.714 245.716 282.714 245.685 282.714L52.2682 282.355C21.0599 282.355 8.7786 267.126 4.23693 258.053C-2.76307 244.058 -0.981819 226.579 8.78381 213.511C18.9765 199.881 35.638 193.933 54.5546 197.162C55.7526 172.579 63.9453 151.668 78.263 136.652C91.1067 123.183 108.768 114.751 127.982 112.907C147.904 110.996 167.961 116.126 184.471 127.345C202.357 139.501 214.742 157.767 220.341 180.22C223.758 178.126 237.862 175.058 238.659 174.933C245.815 173.793 252.591 173.834 258.263 175.043C269.846 177.511 281.185 184.235 289.372 193.485C300.721 206.303 305.659 224.089 302.258 239.892C300.685 247.204 297.44 254.011 292.622 260.136C281.659 274.069 263.716 282.714 245.789 282.714Z" fill="black"/>
<path d="M27.9661 199.725C12.8516 205.417 3.41406 218.704 1.10156 232.969L27.9661 199.725Z" fill="white"/>
<path d="M1.10077 233.495C1.06952 233.495 1.04348 233.49 1.01744 233.485C0.73098 233.438 0.538271 233.172 0.585147 232.886C3.07994 217.506 13.5018 204.615 27.7779 199.24C28.0487 199.136 28.3508 199.271 28.4549 199.542C28.5539 199.813 28.4185 200.115 28.1476 200.214C14.2206 205.459 4.04869 218.042 1.6164 233.053C1.57473 233.313 1.35077 233.495 1.10077 233.495Z" fill="black"/>
<path d="M246.82 273.61V228.334H98.5391V273.438L246.82 273.61Z" fill="white"/>
<path d="M99.0645 272.911L246.294 273.083V228.859H99.0645V272.911ZM246.82 274.13L98.5384 273.964C98.252 273.958 98.0176 273.724 98.0176 273.438V228.339C98.0176 228.047 98.252 227.812 98.5384 227.812H246.82C247.106 227.812 247.34 228.047 247.34 228.339V273.604C247.34 273.745 247.283 273.875 247.189 273.974C247.09 274.073 246.955 274.13 246.82 274.13Z" fill="black"/>
<path d="M58.2578 301.135V255.697L98.5391 228.338V270.63L58.2578 301.135Z" fill="white"/>
<path d="M58.778 255.975V300.084L98.0176 270.376V229.324L58.778 255.975ZM58.2572 301.657C58.179 301.657 58.0957 301.641 58.0228 301.605C57.8457 301.516 57.7363 301.334 57.7363 301.136V255.699C57.7363 255.527 57.8197 255.36 57.9655 255.266L98.2467 227.907C98.403 227.792 98.6113 227.782 98.7832 227.876C98.9551 227.964 99.0592 228.147 99.0592 228.339V270.631C99.0592 270.798 98.9863 270.954 98.8561 271.053L58.5749 301.553C58.4811 301.621 58.3665 301.657 58.2572 301.657Z" fill="black"/>
<path d="M94.6074 257.605H145.811V206.381H94.6074V257.605Z" fill="#FED101"/>
<path d="M105.873 231.995C105.873 240.204 112.524 246.855 120.727 246.855C128.936 246.855 135.587 240.204 135.587 231.995C135.587 223.787 128.936 217.131 120.727 217.131C112.524 217.131 105.873 223.787 105.873 231.995Z" fill="white"/>
<path d="M126.857 231.995L117.57 226.631V237.355L126.857 231.995Z" fill="white"/>
<path d="M118.09 227.532V236.449L125.809 231.995L118.09 227.532ZM117.57 237.881C117.481 237.881 117.387 237.855 117.309 237.808C117.148 237.714 117.049 237.542 117.049 237.355V226.631C117.049 226.443 117.148 226.271 117.309 226.178C117.471 226.084 117.669 226.084 117.83 226.178L127.117 231.542C127.278 231.631 127.377 231.803 127.377 231.995C127.377 232.178 127.278 232.355 127.117 232.443L117.83 237.808C117.752 237.855 117.658 237.881 117.57 237.881Z" fill="black"/>
<path d="M145.811 257.609H205.326V191.406H145.811V257.609Z" fill="#FCB503"/>
<path d="M183.127 201.756H153.7C153.408 201.756 153.174 201.521 153.174 201.235C153.174 200.943 153.408 200.709 153.7 200.709H183.127C183.413 200.709 183.648 200.943 183.648 201.235C183.648 201.521 183.413 201.756 183.127 201.756Z" fill="white"/>
<path d="M198.517 201.755H187.689C187.402 201.755 187.168 201.52 187.168 201.234C187.168 200.942 187.402 200.713 187.689 200.713H198.517C198.803 200.713 199.038 200.942 199.038 201.234C199.038 201.52 198.803 201.755 198.517 201.755Z" fill="white"/>
<path d="M168.512 209.38H153.695C153.408 209.38 153.174 209.15 153.174 208.859C153.174 208.572 153.408 208.338 153.695 208.338H168.512C168.804 208.338 169.038 208.572 169.038 208.859C169.038 209.15 168.804 209.38 168.512 209.38Z" fill="white"/>
<path d="M198.517 209.38H173.079C172.793 209.38 172.559 209.15 172.559 208.859C172.559 208.572 172.793 208.338 173.079 208.338H198.517C198.803 208.338 199.038 208.572 199.038 208.859C199.038 209.15 198.803 209.38 198.517 209.38Z" fill="white"/>
<path d="M198.519 217.01H153.696C153.404 217.01 153.17 216.775 153.17 216.489C153.17 216.197 153.404 215.963 153.696 215.963H198.519C198.805 215.963 199.04 216.197 199.04 216.489C199.04 216.775 198.805 217.01 198.519 217.01Z" fill="white"/>
<path d="M183.127 232.266H153.7C153.408 232.266 153.174 232.032 153.174 231.745C153.174 231.454 153.408 231.225 153.7 231.225H183.127C183.413 231.225 183.648 231.454 183.648 231.745C183.648 232.032 183.413 232.266 183.127 232.266Z" fill="white"/>
<path d="M198.517 232.266H187.689C187.402 232.266 187.168 232.032 187.168 231.745C187.168 231.454 187.402 231.225 187.689 231.225H198.517C198.803 231.225 199.038 231.454 199.038 231.745C199.038 232.032 198.803 232.266 198.517 232.266Z" fill="white"/>
<path d="M168.512 239.896H153.695C153.408 239.896 153.174 239.662 153.174 239.376C153.174 239.084 153.408 238.85 153.695 238.85H168.512C168.804 238.85 169.038 239.084 169.038 239.376C169.038 239.662 168.804 239.896 168.512 239.896Z" fill="white"/>
<path d="M198.517 239.896H173.079C172.793 239.896 172.559 239.662 172.559 239.37C172.559 239.084 172.793 238.85 173.079 238.85H198.517C198.803 238.85 199.038 239.084 199.038 239.37C199.038 239.662 198.803 239.896 198.517 239.896Z" fill="white"/>
<path d="M198.518 247.52H189.503C189.211 247.52 188.977 247.291 188.977 246.999C188.977 246.713 189.211 246.479 189.503 246.479H198.518C198.805 246.479 199.039 246.713 199.039 246.999C199.039 247.291 198.805 247.52 198.518 247.52Z" fill="white"/>
<path d="M198.519 224.641H153.696C153.404 224.641 153.17 224.406 153.17 224.12C153.17 223.828 153.404 223.594 153.696 223.594H198.519C198.805 223.594 199.04 223.828 199.04 224.12C199.04 224.406 198.805 224.641 198.519 224.641Z" fill="white"/>
<path d="M139.377 257.604H184.731V212.234H139.377V257.604Z" fill="white"/>
<path d="M139.898 257.083H184.206V212.76H139.898V257.083ZM184.732 258.13H139.378C139.091 258.13 138.852 257.895 138.852 257.604V212.234C138.852 211.942 139.091 211.713 139.378 211.713H184.732C185.018 211.713 185.253 211.942 185.253 212.234V257.604C185.253 257.895 185.018 258.13 184.732 258.13Z" fill="black"/>
<path d="M142.748 254.235H181.363L171.363 242.094L165.774 247.584L155.805 233.678L142.748 254.235Z" fill="#FED101"/>
<path d="M165.701 229.016C165.701 231.386 167.618 233.308 169.988 233.308C172.357 233.308 174.279 231.386 174.279 229.016C174.279 226.646 172.357 224.725 169.988 224.725C167.618 224.725 165.701 226.646 165.701 229.016Z" fill="#FED101"/>
<path d="M206.533 301.761H58.6895V255.506H206.533V301.761Z" fill="#8C7BFF"/>
<path d="M154.868 285.937H105.717V278.213C105.717 274.411 108.8 271.322 112.607 271.322H147.982C151.785 271.322 154.868 274.411 154.868 278.213V285.937Z" fill="white"/>
<path d="M106.242 285.417H154.341V278.214C154.341 274.704 151.487 271.844 147.982 271.844H112.607C109.096 271.844 106.242 274.704 106.242 278.214V285.417ZM154.867 286.464H105.716C105.43 286.464 105.195 286.23 105.195 285.938V278.214C105.195 274.126 108.518 270.803 112.607 270.803H147.982C152.065 270.803 155.388 274.126 155.388 278.214V285.938C155.388 286.23 155.154 286.464 154.867 286.464Z" fill="black"/>
<path d="M246.82 273.771L206.539 301.136V255.693L246.82 228.334V273.771Z" fill="white"/>
<path d="M207.059 255.975V300.147L246.293 273.496V229.324L207.059 255.975ZM206.538 301.657C206.454 301.657 206.371 301.636 206.293 301.6C206.121 301.506 206.012 301.329 206.012 301.136V255.699C206.012 255.522 206.1 255.36 206.241 255.266L246.522 227.907C246.684 227.792 246.892 227.782 247.064 227.876C247.23 227.964 247.34 228.141 247.34 228.339V273.772C247.34 273.949 247.251 274.11 247.111 274.204L206.829 301.568C206.741 301.631 206.642 301.657 206.538 301.657Z" fill="black"/>
<path d="M264.072 127.465L241.947 149.601L219.822 127.465H231.354V76.3926H252.536V127.465H264.072Z" fill="white"/>
<path d="M221.082 127.991L241.947 148.861L262.811 127.991H252.535C252.249 127.991 252.02 127.757 252.02 127.465V76.918H231.879V127.465C231.879 127.757 231.645 127.991 231.353 127.991H221.082ZM241.947 150.126C241.811 150.126 241.676 150.074 241.577 149.97L219.452 127.835C219.301 127.684 219.259 127.46 219.337 127.267C219.421 127.069 219.608 126.944 219.822 126.944H230.832V76.3919C230.832 76.1055 231.067 75.8711 231.353 75.8711H252.535C252.827 75.8711 253.061 76.1055 253.061 76.3919V126.944H264.072C264.28 126.944 264.473 127.069 264.556 127.267C264.639 127.46 264.593 127.684 264.442 127.835L242.317 149.97C242.212 150.074 242.077 150.126 241.947 150.126Z" fill="black"/>
<path d="M266.098 59.6589L288.223 37.5234L310.348 59.6589H298.811V110.732H277.629V59.6589H266.098Z" fill="white"/>
<path d="M278.155 110.204H298.296V59.6523C298.296 59.3659 298.525 59.1315 298.817 59.1315H309.088L288.223 38.2617L267.358 59.1315H277.634C277.921 59.1315 278.155 59.3659 278.155 59.6523V110.204ZM298.817 111.251H277.634C277.343 111.251 277.108 111.017 277.108 110.73V60.1784H266.098C265.89 60.1784 265.697 60.0482 265.614 59.8555C265.536 59.6576 265.582 59.4336 265.728 59.2878L287.853 37.1523C288.056 36.9492 288.39 36.9492 288.593 37.1523L310.718 59.2878C310.864 59.4336 310.911 59.6576 310.832 59.8555C310.749 60.0482 310.562 60.1784 310.348 60.1784H299.338V110.73C299.338 111.017 299.108 111.251 298.817 111.251Z" fill="black"/>
<path d="M53.4539 40.4459C53.4539 18.4344 71.2978 0.590648 93.3093 0.590648H359.409V284.41C359.409 306.422 341.566 324.266 319.554 324.266H53.4539V40.4459Z" stroke="url(#paint0_linear_3021_230538)" stroke-width="1.1813"/>
<defs>
<linearGradient id="paint0_linear_3021_230538" x1="360.162" y1="-0.374932" x2="53.0248" y2="310.896" gradientUnits="userSpaceOnUse">
<stop stop-color="#D9D9D9"/>
<stop offset="1" stop-color="#D9D9D9" stop-opacity="0"/>
</linearGradient>
</defs>
</svg>
