<svg width="448" height="401" viewBox="0 0 448 401" fill="none" xmlns="http://www.w3.org/2000/svg">
<path d="M48 59.4289C48 26.6072 74.6072 0 107.429 0H448V340.571C448 373.393 421.393 400 388.571 400H48V59.4289Z" fill="url(#paint0_linear_3076_234517)"/>
<mask id="mask0_3076_234517" style="mask-type:luminance" maskUnits="userSpaceOnUse" x="192" y="74" width="153" height="291">
<path d="M192.338 74.582H344.296V364.946H192.338V74.582Z" fill="white"/>
</mask>
<g mask="url(#mask0_3076_234517)">
<path d="M194.05 364.076H343.471V75.9097H194.05V364.076ZM343.888 364.86H193.637C193.408 364.86 193.221 364.682 193.221 364.47V75.5159C193.221 75.2993 193.408 75.126 193.637 75.126H343.888C344.113 75.126 344.3 75.2993 344.3 75.5159V364.47C344.3 364.682 344.113 364.86 343.888 364.86Z" fill="black"/>
</g>
<path d="M327.423 95.9717H210.102V126.08H327.423V95.9717Z" fill="#8C7BFF"/>
<path d="M327.423 138.805H210.102V168.909H327.423V138.805Z" fill="#8C7BFF"/>
<path d="M327.423 181.638H210.102V211.742H327.423V181.638Z" fill="#8C7BFF"/>
<path d="M327.423 224.467H210.102V254.575H327.423V224.467Z" fill="#8C7BFF"/>
<path d="M327.423 267.3H210.102V297.404H327.423V267.3Z" fill="#8C7BFF"/>
<path d="M327.423 310.133H210.102V340.237H327.423V310.133Z" fill="#8C7BFF"/>
<path d="M220.761 120.677H216.479V103.884H220.761V120.677Z" fill="white"/>
<path d="M228.987 120.677H224.705V107.617H228.987V120.677Z" fill="white"/>
<path d="M237.216 120.677H232.934V103.884H237.216V120.677Z" fill="white"/>
<path d="M245.443 120.677H241.156V107.617H245.443V120.677Z" fill="white"/>
<path d="M253.768 120.677H249.486V103.884H253.768V120.677Z" fill="white"/>
<path d="M261.995 120.677H257.713V107.617H261.995V120.677Z" fill="white"/>
<path d="M270.222 120.677H265.939V103.884H270.222V120.677Z" fill="white"/>
<path d="M278.444 120.677H274.162V107.617H278.444V120.677Z" fill="white"/>
<path d="M286.638 120.677H282.352V103.884H286.638V120.677Z" fill="white"/>
<path d="M294.862 120.677H290.58V107.617H294.862V120.677Z" fill="white"/>
<path d="M303.089 120.677H298.807V103.884H303.089V120.677Z" fill="white"/>
<path d="M311.314 120.673H307.027V107.617H311.314V120.673Z" fill="white"/>
<path d="M319.538 120.677H315.252V107.617H319.538V120.677Z" fill="white"/>
<path d="M220.761 163.258H216.479V146.469H220.761V163.258Z" fill="white"/>
<path d="M228.987 163.262H224.705V150.202H228.987V163.262Z" fill="white"/>
<path d="M237.216 163.258H232.934V146.469H237.216V163.258Z" fill="white"/>
<path d="M245.438 163.262H241.156V150.202H245.438V163.262Z" fill="white"/>
<path d="M253.768 163.258H249.486V146.469H253.768V163.258Z" fill="white"/>
<path d="M261.995 163.262H257.709V150.202H261.995V163.262Z" fill="white"/>
<path d="M270.217 163.258H265.939V146.469H270.217V163.258Z" fill="white"/>
<path d="M278.444 163.262H274.162V150.202H278.444V163.262Z" fill="white"/>
<path d="M286.634 163.262H282.352V146.469H286.634V163.262Z" fill="white"/>
<path d="M294.862 163.262H290.58V150.202H294.862V163.262Z" fill="white"/>
<path d="M303.085 163.262H298.803V146.473H303.085V163.262Z" fill="white"/>
<path d="M311.314 163.262H307.027V150.202H311.314V163.262Z" fill="white"/>
<path d="M319.538 163.262H315.252V150.202H319.538V163.262Z" fill="white"/>
<path d="M220.761 206.232H216.479V189.443H220.761V206.232Z" fill="white"/>
<path d="M228.987 206.232H224.705V193.173H228.987V206.232Z" fill="white"/>
<path d="M237.216 206.232H232.934V189.443H237.216V206.232Z" fill="white"/>
<path d="M245.442 206.228H241.16V193.173H245.442V206.228Z" fill="white"/>
<path d="M253.768 206.228H249.486V189.443H253.768V206.228Z" fill="white"/>
<path d="M261.991 206.232H257.709V193.173H261.991V206.232Z" fill="white"/>
<path d="M270.217 206.228H265.939V189.443H270.217V206.228Z" fill="white"/>
<path d="M278.444 206.228H274.162V193.173H278.444V206.228Z" fill="white"/>
<path d="M286.634 206.232H282.352V189.443H286.634V206.232Z" fill="white"/>
<path d="M294.862 206.232H290.58V193.173H294.862V206.232Z" fill="white"/>
<path d="M303.085 206.232H298.803V189.443H303.085V206.232Z" fill="white"/>
<path d="M311.314 206.232H307.027V193.173H311.314V206.232Z" fill="white"/>
<path d="M319.538 206.232H315.252V193.173H319.538V206.232Z" fill="white"/>
<path d="M220.761 248.558H216.479V231.772H220.761V248.558Z" fill="white"/>
<path d="M228.987 248.557H224.705V235.502H228.987V248.557Z" fill="white"/>
<path d="M237.216 248.558H232.934V231.772H237.216V248.558Z" fill="white"/>
<path d="M245.442 248.557H241.16V235.502H245.442V248.557Z" fill="white"/>
<path d="M253.768 248.558H249.486V231.772H253.768V248.558Z" fill="white"/>
<path d="M261.991 248.561H257.709V235.502H261.991V248.561Z" fill="white"/>
<path d="M270.217 248.558H265.939V231.769H270.217V248.558Z" fill="white"/>
<path d="M278.444 248.557H274.162V235.498H278.444V248.557Z" fill="white"/>
<path d="M286.634 248.561H282.352V231.772H286.634V248.561Z" fill="white"/>
<path d="M294.862 248.557H290.58V235.502H294.862V248.557Z" fill="white"/>
<path d="M303.085 248.561H298.803V231.772H303.085V248.561Z" fill="white"/>
<path d="M311.314 248.557H307.027V235.502H311.314V248.557Z" fill="white"/>
<path d="M319.538 248.561H315.252V235.502H319.538V248.561Z" fill="white"/>
<path d="M220.761 290.748H216.479V273.959H220.761V290.748Z" fill="white"/>
<path d="M228.987 290.749H224.705V277.689H228.987V290.749Z" fill="white"/>
<path d="M237.216 290.748H232.934V273.959H237.216V290.748Z" fill="white"/>
<path d="M245.442 290.745H241.16V277.689H245.442V290.745Z" fill="white"/>
<path d="M253.768 290.748H249.486V273.959H253.768V290.748Z" fill="white"/>
<path d="M261.991 290.749H257.709V277.689H261.991V290.749Z" fill="white"/>
<path d="M270.217 290.748H265.939V273.959H270.217V290.748Z" fill="white"/>
<path d="M278.444 290.749H274.162V277.689H278.444V290.749Z" fill="white"/>
<path d="M286.634 290.748H282.352V273.959H286.634V290.748Z" fill="white"/>
<path d="M294.862 290.749H290.58V277.689H294.862V290.749Z" fill="white"/>
<path d="M303.085 290.748H298.803V273.959H303.085V290.748Z" fill="white"/>
<path d="M311.314 290.749H307.027V277.689H311.314V290.749Z" fill="white"/>
<path d="M319.538 290.749H315.252V277.689H319.538V290.749Z" fill="white"/>
<path d="M220.761 332.936H216.479V316.146H220.761V332.936Z" fill="white"/>
<path d="M228.987 332.935H224.705V319.876H228.987V332.935Z" fill="white"/>
<path d="M237.216 332.936H232.934V316.146H237.216V332.936Z" fill="white"/>
<path d="M245.442 332.935H241.16V319.876H245.442V332.935Z" fill="white"/>
<path d="M253.768 332.936H249.486V316.146H253.768V332.936Z" fill="white"/>
<path d="M261.991 332.935H257.709V319.876H261.991V332.935Z" fill="white"/>
<path d="M270.217 332.936H265.939V316.146H270.217V332.936Z" fill="white"/>
<path d="M278.444 332.935H274.162V319.876H278.444V332.935Z" fill="white"/>
<path d="M286.634 332.936H282.352V316.146H286.634V332.936Z" fill="white"/>
<path d="M294.862 332.935H290.58V319.876H294.862V332.935Z" fill="white"/>
<path d="M303.085 332.936H298.803V316.146H303.085V332.936Z" fill="white"/>
<path d="M311.314 332.935H307.027V319.876H311.314V332.935Z" fill="white"/>
<path d="M319.538 332.935H315.252V319.876H319.538V332.935Z" fill="white"/>
<path d="M20.7205 122.657C15.9385 113.985 20.3623 103.245 28.3351 99.0784C34.2543 95.9868 41.2898 96.1837 47.5756 98.2671C49.9041 89.2641 55.9733 81.4387 63.8378 77.6067C71.7023 73.7787 81.2247 74.0937 88.7684 78.6228C96.308 83.1518 101.64 91.8476 102.377 101.162C109.13 99.9251 116.619 103.178 120.039 109.613C123.459 116.049 121.934 125.311 116.228 129.419C112.208 132.31 107.451 132.44 102.627 132.456C91.8884 132.491 36.5453 132.936 33.0671 131.991C29.0682 130.904 24.4153 129.352 20.7205 122.657Z" fill="black"/>
<path d="M18.214 121.279C13.4612 112.91 17.86 102.544 25.7786 98.5234C31.6603 95.5381 38.6542 95.7232 44.8984 97.7397C47.2102 89.0439 53.2419 81.4902 61.0564 77.796C68.8709 74.098 78.3308 74.4012 85.8246 78.7727C93.3184 83.1443 98.6128 91.5368 99.3501 100.532C106.057 99.3386 113.5 102.477 116.895 108.692C120.294 114.903 118.782 123.847 113.113 127.809C109.118 130.601 104.39 130.727 99.5958 130.743C88.9238 130.778 33.9347 131.203 30.4815 130.294C26.5076 129.242 21.8839 127.75 18.214 121.279Z" fill="white"/>
<path d="M18.579 121.098C22.0572 127.226 26.4226 128.813 30.5923 129.916C33.5332 130.692 75.3758 130.475 93.2459 130.381C95.991 130.365 98.1821 130.353 99.5942 130.353C104.822 130.334 109.117 130.113 112.866 127.494C118.202 123.764 119.909 115.061 116.527 108.87C113.353 103.069 106.159 99.7211 99.4234 100.918C99.3068 100.942 99.186 100.914 99.0943 100.847C98.9985 100.777 98.9444 100.674 98.9319 100.564C98.2112 91.7027 93.1043 83.4834 85.6064 79.108C78.3167 74.8546 68.9776 74.4883 61.2422 78.147C53.5735 81.7742 47.6126 89.1349 45.2966 97.8346C45.2675 97.941 45.1966 98.0276 45.0925 98.0827C44.9925 98.1339 44.8717 98.1458 44.7634 98.1103C37.9445 95.9127 31.2713 96.1845 25.9728 98.8704C22.1613 100.804 19.1247 104.278 17.6334 108.397C16.063 112.749 16.3962 117.258 18.579 121.098ZM62.2628 131.263C45.2508 131.263 32.0919 131.125 30.3674 130.672C26.0269 129.526 21.4823 127.868 17.8458 121.468C15.559 117.436 15.2049 112.702 16.8503 108.145C18.404 103.841 21.5865 100.205 25.5812 98.1773C30.9714 95.4441 37.7112 95.1133 44.6051 97.2321C47.0545 88.493 53.1111 81.1165 60.8715 77.446C68.8651 73.6652 78.5083 74.0472 86.0396 78.4424C93.6375 82.8769 98.8527 91.1316 99.7191 100.076C106.676 99.0398 113.994 102.537 117.26 108.511C120.822 115.017 118.997 124.182 113.357 128.124C109.096 131.105 103.826 131.121 99.5942 131.137C98.1821 131.141 95.9952 131.149 93.2501 131.165C82.6072 131.22 71.8268 131.263 62.2628 131.263Z" fill="black"/>
<path d="M70.2184 113.525L60.9959 122.272L51.7734 113.525H56.5804V93.3447H65.4114V113.525H70.2184Z" fill="#8C7BFF"/>
<path d="M72.5547 100.67L81.7771 91.9268L90.9996 100.67H86.1926V120.85H77.3617V100.67H72.5547Z" fill="#8C7BFF"/>
<path d="M51.6034 114.19L59.8262 121.988L68.0489 114.19H64.2416C64.0125 114.19 63.8251 114.013 63.8251 113.796V94.0103H55.8231V113.796C55.8231 114.013 55.6398 114.19 55.4107 114.19H51.6034ZM59.8262 122.937C59.7137 122.937 59.6095 122.894 59.5304 122.819L50.3079 114.076C50.1913 113.962 50.158 113.796 50.2205 113.647C50.2829 113.501 50.4371 113.406 50.6037 113.406H54.9941V93.6165C54.9941 93.3998 55.1816 93.2266 55.4107 93.2266H64.2416C64.4707 93.2266 64.654 93.3998 64.654 93.6165V113.406H69.0486C69.2152 113.406 69.3652 113.501 69.4318 113.647C69.4943 113.796 69.4568 113.962 69.3402 114.076L60.1177 122.819C60.0428 122.894 59.9345 122.937 59.8262 122.937Z" fill="black"/>
<path d="M76.6094 120.732H84.6114V100.945C84.6114 100.729 84.7947 100.552 85.0238 100.552H88.8352L80.6083 92.7538L72.3856 100.552H76.1929C76.422 100.552 76.6094 100.729 76.6094 100.945V120.732ZM85.0238 121.515H76.1929C75.9637 121.515 75.7805 121.338 75.7805 121.121V101.335H71.3858C71.2192 101.335 71.0693 101.241 71.0026 101.095C70.9401 100.945 70.9776 100.78 71.0943 100.666L80.3167 91.9189C80.4708 91.7731 80.7458 91.7731 80.9041 91.9189L90.1265 100.666C90.2432 100.78 90.2806 100.945 90.214 101.095C90.1515 101.241 89.9974 101.335 89.8308 101.335H85.4403V121.121C85.4403 121.338 85.2529 121.515 85.0238 121.515Z" fill="black"/>
<mask id="mask1_3076_234517" style="mask-type:luminance" maskUnits="userSpaceOnUse" x="0" y="265" width="68" height="3">
<path d="M0.392578 265.133H67.5741V267.149H0.392578V265.133Z" fill="white"/>
</mask>
<g mask="url(#mask1_3076_234517)">
<path d="M66.5288 266.444H0.805224C0.57612 266.444 0.388672 266.271 0.388672 266.054C0.388672 265.837 0.57612 265.66 0.805224 265.66H66.5288C66.7579 265.66 66.9412 265.837 66.9412 266.054C66.9412 266.271 66.7579 266.444 66.5288 266.444Z" fill="black"/>
</g>
<path d="M44.4609 162.675H55.2205V147.119H44.4609V162.675Z" fill="#FDA4FF"/>
<path d="M44.4609 150.987V147.119H55.2205V155.657C54.2499 155.839 52.3129 156.071 50.0927 155.378C46.6103 154.291 44.9025 151.711 44.4609 150.987Z" fill="black"/>
<path d="M42.7591 133.916L42.6758 143.585L59.9335 143.581L59.9419 134.184L42.7591 133.916Z" fill="black"/>
<path d="M42.6387 144.109C42.6387 149.115 46.5168 153.175 51.2946 153.175C56.0766 153.175 59.9506 149.115 59.9506 144.109C59.9506 139.099 56.0766 135.039 51.2946 135.039C46.5168 135.039 42.6387 139.099 42.6387 144.109Z" fill="#FDA4FF"/>
<path d="M47.5352 148.088C48.3724 148.816 49.4471 149.309 50.6635 149.423C53.3752 149.683 55.8162 148.017 56.491 145.595L47.5352 148.088Z" fill="white"/>
<path d="M60.9844 139.241C61.0303 133.487 56.8731 128.75 51.6162 128.628C47.3299 128.525 43.6225 131.522 42.2812 135.752L60.9844 139.241Z" fill="#FED101"/>
<path d="M42.8194 135.453L60.5645 138.765C60.3812 133.464 56.4531 129.132 51.6045 129.021C51.5378 129.021 51.4712 129.018 51.4045 129.018C47.6097 129.018 44.2232 131.566 42.8194 135.453ZM60.9852 139.635C60.9561 139.635 60.9311 139.635 60.9019 139.631L42.2029 136.138C42.0863 136.118 41.9863 136.051 41.928 135.957C41.8655 135.862 41.853 135.744 41.8822 135.642C43.3234 131.109 47.2515 128.139 51.6253 128.238C57.0655 128.364 61.4476 133.302 61.3976 139.245C61.3976 139.363 61.3393 139.474 61.2477 139.549C61.1727 139.604 61.0769 139.635 60.9852 139.635Z" fill="black"/>
<path d="M60.5705 140.214L42.7255 140.182C41.2967 140.182 40.1387 139.084 40.1387 137.733V137.607C40.1428 136.256 41.305 135.161 42.7338 135.165L60.5789 135.193C62.0077 135.193 63.1657 136.291 63.1615 137.646V137.768C63.1615 139.119 61.9993 140.214 60.5705 140.214Z" fill="#FED101"/>
<path d="M42.7299 135.556C42.1467 135.556 41.6052 135.769 41.1928 136.159C40.7804 136.545 40.5555 137.065 40.5555 137.612V137.738C40.5513 138.868 41.5261 139.794 42.7257 139.794L60.5708 139.825C61.154 139.825 61.6955 139.609 62.1079 139.223C62.5203 138.837 62.7452 138.321 62.7452 137.77V137.647C62.7494 136.513 61.7747 135.588 60.575 135.588L42.7299 135.556ZM60.5708 140.609C60.5708 140.609 60.5708 140.609 60.5667 140.609L42.7216 140.578C41.0679 140.578 39.7224 139.302 39.7266 137.734V137.612C39.7266 136.852 40.039 136.139 40.6097 135.603C41.1762 135.068 41.9301 134.772 42.7299 134.772C42.7299 134.772 42.7299 134.772 42.7341 134.772L60.5792 134.8C62.2329 134.808 63.5783 136.08 63.5742 137.647V137.773C63.5742 138.53 63.2618 139.242 62.6911 139.778C62.1246 140.314 61.3706 140.609 60.5708 140.609Z" fill="black"/>
<path d="M56.6032 138.745C56.3824 138.745 56.1991 138.58 56.1908 138.371L56.0534 135.205C56.0409 134.988 56.22 134.803 56.4491 134.795C56.674 134.787 56.8698 134.957 56.8781 135.169L57.0156 138.336C57.0281 138.552 56.849 138.737 56.6199 138.745C56.6157 138.745 56.6074 138.745 56.6032 138.745Z" fill="black"/>
<path d="M54.7652 138.856C54.5445 138.856 54.3612 138.691 54.3528 138.478L54.2112 135.312C54.2029 135.095 54.382 134.914 54.6111 134.906C54.8277 134.894 55.0318 135.063 55.0402 135.28L55.1776 138.446C55.1901 138.663 55.011 138.844 54.7819 138.852C54.7777 138.856 54.7694 138.856 54.7652 138.856Z" fill="black"/>
<path d="M49.0342 135.524C49.0092 135.524 48.9842 135.52 48.9634 135.517C48.7384 135.481 48.5843 135.276 48.6259 135.064L49.1675 132.189C49.2091 131.976 49.4257 131.834 49.6507 131.87C49.8756 131.909 50.0256 132.114 49.9839 132.327L49.4424 135.201C49.4049 135.391 49.2299 135.524 49.0342 135.524Z" fill="black"/>
<path d="M46.3176 135.469C46.2717 135.469 46.2217 135.461 46.1759 135.445C45.9593 135.37 45.851 135.146 45.9302 134.941L46.7008 132.952C46.7799 132.747 47.0174 132.645 47.234 132.72C47.4464 132.791 47.5589 133.015 47.4797 133.22L46.7091 135.213C46.6466 135.37 46.4883 135.469 46.3176 135.469Z" fill="black"/>
<path d="M88.7742 274.857L102.891 294.033L61.8025 321.184L47.6855 302.008L88.7742 274.857Z" fill="#FDA4FF"/>
<path d="M84.8852 305.931L63.1328 291.8L88.7716 274.857L102.889 294.033L84.8852 305.931Z" fill="#020202"/>
<path d="M61.0402 293.182L75.1613 312.357L61.8025 321.183L47.6855 302.007L61.0402 293.182Z" fill="#020202"/>
<path d="M54.3859 295.904L53.7777 295.868C46.8088 295.467 43.0224 298.156 35.3203 300.618L43.264 328.848L67.6239 362.831L75.4301 366.226L79.0374 360.953L71.8228 338.024L70.9438 319.557L73.1641 314.162L70.5481 310.609L65.4162 309.57L61.7505 311.992C57.1393 310.026 55.673 310.089 54.4401 308.416C54.4234 308.368 52.0657 305.765 54.2359 303.001L56.4687 300.157C57.8058 298.46 56.6186 296.034 54.3859 295.904Z" fill="white"/>
<path d="M67.8979 362.52L75.275 365.73L78.5866 360.89L71.4219 338.134C71.4136 338.106 71.4053 338.075 71.4053 338.043L70.5305 319.577C70.5263 319.522 70.5347 319.466 70.5555 319.415L72.6966 314.217L70.3014 310.96L65.5027 309.987L61.987 312.314C61.8662 312.393 61.7121 312.405 61.5788 312.35C60.0876 311.716 58.9254 311.29 57.9923 310.952C56.0012 310.227 55.0015 309.865 54.0975 308.636C54.0975 308.636 54.0934 308.632 54.0934 308.628C53.5102 307.892 51.8482 305.383 53.9018 302.768L56.1386 299.925C56.6718 299.243 56.7676 298.377 56.3886 297.605C56.0095 296.837 55.2514 296.349 54.36 296.297L53.7518 296.262C48.8698 295.978 45.5291 297.262 41.2969 298.885C39.6932 299.503 37.8853 300.196 35.8192 300.87L43.6462 328.682L67.8979 362.52ZM75.4292 366.62C75.3708 366.62 75.3125 366.608 75.2542 366.584L67.448 363.186C67.3814 363.158 67.3189 363.111 67.2772 363.052L42.9214 329.068C42.8923 329.033 42.8756 328.989 42.8631 328.95L34.9195 300.72C34.8653 300.519 34.982 300.31 35.1861 300.247C37.3813 299.543 39.2974 298.81 40.9845 298.16C45.3166 296.498 48.7323 295.183 53.8018 295.478L54.41 295.514C55.6096 295.585 56.6302 296.242 57.1384 297.274C57.6466 298.314 57.5216 299.476 56.801 300.393L54.5682 303.233C52.8979 305.359 54.1309 307.376 54.7432 308.144C54.7557 308.163 54.7724 308.179 54.7848 308.199C55.543 309.219 56.4052 309.534 58.288 310.223C59.1878 310.546 60.2917 310.952 61.7038 311.543L65.1778 309.247C65.2736 309.183 65.3903 309.164 65.5027 309.183L70.6347 310.227C70.7388 310.247 70.8263 310.306 70.8887 310.385L73.5047 313.937C73.5838 314.047 73.6005 314.185 73.5505 314.303L71.3595 319.624L72.23 337.957L79.4364 360.842C79.4697 360.949 79.4531 361.067 79.3864 361.165L75.7749 366.443C75.6958 366.557 75.5666 366.62 75.4292 366.62Z" fill="black"/>
<path d="M75.4315 366.227L65.5675 357.121L45.6563 328.88L35.3217 300.619L29.5732 299.37L20.3633 303.348L22.8418 315.206C22.8418 315.206 27.6821 321.716 33.7513 330.026L37.3169 330.648L39.608 333.756L39.0082 337.166C48.5097 350.147 58.8777 364.151 58.8777 364.151L68.5084 368.995L71.8824 368.574L75.4315 366.227Z" fill="#020202"/>
<path d="M53.5747 285.204C53.354 285.204 53.1374 285.228 52.9166 285.267C52.0585 285.432 51.3254 285.901 50.8422 286.594C50.0549 287.717 49.0343 292.777 48.5553 295.471C50.988 294.002 55.5034 291.139 56.2907 290.017C57.2862 288.591 56.8738 286.665 55.3701 285.724C54.8286 285.381 54.2079 285.204 53.5747 285.204ZM47.4473 297.054L47.5889 296.208C47.643 295.865 48.9885 287.819 50.1507 286.161C50.7547 285.294 51.6794 284.708 52.7541 284.499C53.8247 284.294 54.916 284.495 55.8283 285.07C57.7153 286.252 58.2318 288.666 56.9821 290.45C55.82 292.108 48.5261 296.416 48.2137 296.597L47.4473 297.054Z" fill="black"/>
<path d="M71.2522 324.335C71.2063 324.335 71.1564 324.328 71.1064 324.312L65.662 322.386C65.4496 322.311 65.3413 322.083 65.4204 321.882C65.4996 321.677 65.7412 321.575 65.9536 321.649L71.398 323.575C71.6104 323.65 71.7229 323.875 71.6396 324.079C71.5812 324.237 71.423 324.335 71.2522 324.335Z" fill="black"/>
<path d="M71.3442 329.044C71.2942 329.044 71.2442 329.04 71.1984 329.021L65.754 327.099C65.5374 327.024 65.4291 326.796 65.5083 326.591C65.5874 326.39 65.829 326.288 66.0415 326.362L71.4858 328.288C71.7024 328.363 71.8107 328.588 71.7316 328.792C71.6691 328.946 71.5108 329.044 71.3442 329.044Z" fill="black"/>
<path d="M71.4321 333.759C71.3821 333.759 71.3321 333.751 71.2863 333.736L65.842 331.814C65.6253 331.735 65.517 331.51 65.6004 331.306C65.6795 331.105 65.9169 331.002 66.1294 331.077L71.5779 332.999C71.7903 333.078 71.8986 333.302 71.8195 333.503C71.757 333.661 71.5987 333.759 71.4321 333.759Z" fill="black"/>
<path d="M180.822 203.043L79.1502 225.326L86.873 259.061L116.686 251.366L72.6895 280.446L93.4212 308.605L198.263 239.315C207.498 233.21 209.764 221.163 203.32 212.412L202.145 210.817C197.38 204.342 188.941 201.267 180.822 203.043Z" fill="#FED101"/>
<path d="M94.1124 274.964C98.2738 272.243 101.46 269.08 110 268.647C120.651 268.103 135.563 269.159 142.957 262.838H99.3318L77.6836 277.146C87.7808 277.681 92.442 276.055 94.1124 274.964Z" fill="black"/>
<path d="M162.943 331.529L184.175 323.972L201.016 366.435L179.785 373.992L162.943 331.529Z" fill="#FDA4FF"/>
<path d="M193.597 347.72L173.72 358.692L162.943 331.529L184.175 323.972L193.597 347.72Z" fill="#020202"/>
<path d="M174.662 361.067L195.894 353.51L201.017 366.435L179.786 373.993L174.662 361.067Z" fill="#020202"/>
<path d="M173.907 385.335C173.303 377.789 171.52 373.72 173.62 367.529L173.799 366.986C174.474 365.005 177.198 364.521 178.581 366.139L180.897 368.845C183.146 371.476 186.341 369.979 186.391 369.975C188.374 369.27 188.666 367.935 191.765 364.249L190.215 360.35L192.51 355.97L196.717 354.474L201.604 357.786L220.598 360.578L236.973 353.718L243.259 355.364L242.072 363.189L223.864 382.204L204.22 385.023L173.907 385.335Z" fill="white"/>
<path d="M176.448 365.561C176.302 365.561 176.152 365.573 176.002 365.601C175.14 365.754 174.465 366.317 174.194 367.109L174.011 367.649C172.54 371.981 173.019 375.309 173.628 379.523C173.857 381.118 174.115 382.917 174.29 384.942L204.186 384.634L223.66 381.834L241.68 363.017L242.796 355.652L237.006 354.136L220.769 360.938C220.694 360.969 220.615 360.977 220.536 360.965L201.541 358.177C201.474 358.169 201.412 358.145 201.362 358.106L196.655 354.916L192.81 356.287L190.669 360.374L192.147 364.112C192.202 364.242 192.177 364.384 192.089 364.494C191.085 365.687 190.377 366.632 189.811 367.393C188.598 369.011 187.99 369.826 186.532 370.346C186.532 370.346 186.528 370.346 186.524 370.35C185.637 370.697 182.708 371.587 180.576 369.094L178.26 366.388C177.801 365.853 177.147 365.561 176.448 365.561ZM173.907 385.729C173.69 385.729 173.511 385.572 173.494 385.367C173.324 383.217 173.049 381.311 172.807 379.629C172.186 375.316 171.695 371.914 173.224 367.408L173.407 366.869C173.769 365.798 174.681 365.037 175.848 364.829C177.014 364.624 178.156 365.022 178.905 365.892L181.221 368.602C182.946 370.618 185.266 369.996 186.182 369.633C186.207 369.626 186.232 369.614 186.253 369.61C187.465 369.173 187.99 368.472 189.136 366.94C189.682 366.207 190.352 365.309 191.294 364.179L189.827 360.493C189.786 360.386 189.794 360.276 189.844 360.178L192.139 355.798C192.185 355.708 192.264 355.641 192.364 355.605L196.571 354.109C196.7 354.061 196.846 354.081 196.959 354.156L201.762 357.417L220.544 360.174L236.806 353.36C236.894 353.325 236.989 353.317 237.085 353.341L243.371 354.991C243.571 355.042 243.7 355.227 243.671 355.424L242.484 363.246C242.471 363.324 242.434 363.395 242.38 363.45L224.172 382.468C224.11 382.531 224.022 382.579 223.926 382.59L204.282 385.414C204.261 385.418 204.244 385.418 204.223 385.418L173.911 385.729C173.911 385.729 173.911 385.729 173.907 385.729Z" fill="black"/>
<path d="M176.448 365.561C176.302 365.561 176.152 365.573 176.002 365.6C175.14 365.754 174.465 366.317 174.194 367.108L174.011 367.648C172.54 371.98 173.019 375.308 173.628 379.522C173.857 381.117 174.115 382.917 174.29 384.941L204.186 384.634L223.66 381.834L241.68 363.017L242.796 355.652L237.006 354.136L220.656 360.984L201.441 358.161L196.655 354.915L192.81 356.286L190.669 360.374L192.231 364.32L192.089 364.493C191.085 365.687 190.377 366.632 189.811 367.392C188.598 369.011 187.99 369.826 186.532 370.346L186.516 370.35C185.628 370.7 182.704 371.578 180.576 369.093L178.26 366.388C177.801 365.852 177.147 365.561 176.448 365.561ZM173.523 385.733L173.494 385.366C173.324 383.216 173.049 381.31 172.807 379.628C172.186 375.316 171.695 371.913 173.224 367.408L173.407 366.868C173.769 365.797 174.681 365.037 175.848 364.828C177.014 364.623 178.156 365.021 178.905 365.892L181.221 368.601C182.946 370.618 185.266 369.995 186.182 369.633C186.207 369.625 186.232 369.613 186.253 369.609C187.465 369.172 187.99 368.471 189.136 366.939C189.682 366.207 190.352 365.309 191.294 364.178L189.765 360.331L192.21 355.66L196.78 354.033L201.762 357.416L220.544 360.173L236.939 353.305L243.721 355.081L242.463 363.363L224.072 382.57L204.223 385.418L173.523 385.733Z" fill="black"/>
<path d="M171.258 390.222L173.907 385.335L204.828 382.877L225.51 376.742L236.132 366.242L243.263 355.341L246.391 358.07L247.537 361.051L244.617 370.795C244.617 370.795 240.93 374.769 233.466 382.436C233.466 382.436 216.033 389.301 211.547 390.888L208.264 389.517L204.586 390.829L203.091 393.897C193.264 397.359 185.541 400.143 185.541 400.143H173.141L171.258 390.222Z" fill="#020202"/>
<path d="M165.956 362.843C165.16 362.843 164.402 363.119 163.806 363.631C162.498 364.753 162.394 366.679 163.581 367.924C164.519 368.904 169.338 371.047 171.937 372.134C171.05 369.582 169.276 364.82 168.338 363.844C167.764 363.241 166.972 362.887 166.118 362.847C166.064 362.847 166.01 362.843 165.956 362.843ZM173.283 373.54L172.45 373.205C172.116 373.067 164.356 369.901 162.969 368.448C161.474 366.884 161.603 364.462 163.248 363.048C164.052 362.363 165.085 362.012 166.16 362.064C167.234 362.115 168.226 362.56 168.951 363.316C170.338 364.769 172.9 372.402 173.008 372.725L173.283 373.54Z" fill="black"/>
<path d="M202.829 363.414C202.745 363.414 202.662 363.39 202.591 363.343C202.404 363.217 202.354 362.973 202.487 362.796L205.74 358.349C205.874 358.172 206.128 358.129 206.319 358.251C206.507 358.373 206.553 358.617 206.424 358.794L203.166 363.245C203.087 363.355 202.958 363.414 202.829 363.414Z" fill="black"/>
<path d="M207.861 364.1C207.778 364.1 207.699 364.077 207.624 364.033C207.436 363.907 207.39 363.663 207.524 363.486L210.777 359.04C210.906 358.862 211.164 358.815 211.352 358.941C211.543 359.063 211.589 359.307 211.456 359.489L208.203 363.931C208.119 364.041 207.994 364.1 207.861 364.1Z" fill="black"/>
<path d="M212.696 364.938C212.613 364.938 212.534 364.918 212.459 364.871C212.271 364.749 212.225 364.501 212.355 364.324L215.612 359.877C215.741 359.7 215.999 359.653 216.187 359.779C216.374 359.901 216.42 360.145 216.291 360.326L213.038 364.769C212.959 364.879 212.829 364.938 212.696 364.938Z" fill="black"/>
<path d="M200.926 343.116L171.525 266.012L171.521 266.004L163.078 243.993C159.52 234.726 150.227 228.555 139.817 228.555H34.9297V239.562C34.9297 254.169 47.4304 266.012 62.847 266.012H126.321L160.945 356.802L200.926 343.116Z" fill="#FED101"/>
<path d="M139.817 228.555H135.41C136.343 241.567 147.769 251.85 161.74 251.85C163.178 251.85 164.59 251.74 165.968 251.527L163.078 243.993C159.52 234.726 150.227 228.555 139.817 228.555Z" fill="#FCB503"/>
<path d="M91.8807 232.249H34.9297V239.562C34.9297 241.965 35.2754 244.292 35.9086 246.506C38.462 246.143 41.3196 245.498 43.0358 244.375C47.1971 241.654 50.3838 238.495 58.9231 238.058C69.5743 237.518 84.4869 238.574 91.8807 232.249Z" fill="black"/>
<path d="M35.3446 228.949V239.563C35.3446 253.929 47.6787 265.622 62.8453 265.622H126.611L161.193 356.302L200.395 342.884L171.132 266.146L162.685 244.127C159.202 235.049 150.013 228.949 139.816 228.949H35.3446ZM160.693 357.306L126.028 266.406H62.8453C47.2246 266.406 34.5156 254.363 34.5156 239.563V228.165H139.816C150.359 228.165 159.864 234.47 163.463 243.859L171.907 265.874L201.457 343.353L160.693 357.306Z" fill="black"/>
<path d="M175.891 137.091C175.016 135.602 173.058 135.031 171.45 135.791L166.077 138.536L165.91 138.272C164.952 136.736 162.944 136.102 161.207 136.788L150.748 140.931C148.177 142.002 145.345 142.376 142.566 142.01L137.143 141.289L142.137 131.703C142.912 130.215 142.292 128.411 140.738 127.643L140.413 127.481C138.88 126.725 136.993 127.245 136.127 128.663L134.41 131.487C132.911 133.948 131.078 136.209 128.954 138.217C127.083 139.982 124.896 142.096 123.934 143.203C119.789 147.988 123.059 152.71 123.059 152.71L103.202 178.805L93.0426 171.271L79.9004 188.072L98.5744 201.183C102.561 203.983 108.188 203.164 111.104 199.359L138.363 163.8L174.787 141.313C176.27 140.399 176.753 138.556 175.891 137.091Z" fill="#FDA4FF"/>
<path d="M80.4783 187.986L98.8191 200.865C100.656 202.156 102.918 202.688 105.176 202.361C107.438 202.03 109.425 200.884 110.77 199.132L138.075 163.51L174.565 140.983C175.852 140.183 176.281 138.561 175.527 137.285C174.761 135.977 173.049 135.473 171.637 136.142L165.917 139.061L165.555 138.47C164.705 137.107 162.906 136.54 161.369 137.151L150.909 141.29C148.272 142.389 145.369 142.771 142.507 142.397L136.517 141.605L141.766 131.527C142.436 130.243 141.886 128.656 140.545 127.99L140.22 127.829C138.883 127.167 137.242 127.616 136.484 128.857L134.768 131.68C133.251 134.173 131.389 136.469 129.244 138.494C126.749 140.853 125.024 142.566 124.254 143.452C120.351 147.961 123.375 152.451 123.404 152.494L123.562 152.719L103.285 179.365L93.1248 171.828L80.4783 187.986ZM103.864 203.239C101.881 203.239 99.9521 202.641 98.3276 201.495L79.3203 188.152L92.9624 170.713L103.118 178.243L122.567 152.683C121.963 151.636 119.863 147.288 123.616 142.956C124.608 141.81 126.907 139.596 128.661 137.938C130.752 135.961 132.568 133.724 134.051 131.29L135.767 128.467C136.746 126.86 138.871 126.277 140.603 127.136L140.933 127.297C142.67 128.156 143.374 130.207 142.507 131.873L137.771 140.975L142.624 141.617C145.327 141.975 148.081 141.613 150.58 140.569L161.048 136.426C162.943 135.678 165.159 136.359 166.23 138.009L171.253 135.445C173.078 134.583 175.269 135.225 176.252 136.903C177.214 138.537 176.669 140.62 175.015 141.64L138.654 164.085L111.441 199.589C109.966 201.515 107.783 202.775 105.301 203.133C104.822 203.204 104.343 203.239 103.864 203.239Z" fill="black"/>
<path d="M134.918 145.886C134.851 145.886 134.788 145.874 134.73 145.847C134.526 145.748 134.443 145.512 134.547 145.319L136.771 141.117C136.875 140.924 137.125 140.845 137.329 140.939C137.534 141.038 137.617 141.27 137.513 141.467L135.284 145.669C135.213 145.807 135.068 145.886 134.918 145.886Z" fill="black"/>
<path d="M192.289 135.677H112.211L121.425 75.0547H201.041L192.289 135.677Z" fill="#4ADA85"/>
<path d="M110.079 137.489H187.932L196.355 78.9341H118.497L110.079 137.489ZM188.295 138.273H109.604C109.483 138.273 109.371 138.225 109.291 138.139C109.212 138.052 109.175 137.942 109.191 137.828L117.727 78.4891C117.752 78.2961 117.926 78.1504 118.135 78.1504H196.83C196.946 78.1504 197.059 78.1977 197.138 78.2843C197.217 78.3709 197.255 78.4812 197.238 78.5954L188.703 137.934C188.678 138.131 188.503 138.273 188.295 138.273Z" fill="black"/>
<path d="M148.656 100.733H182.26L183.009 98.3066H149.406L148.656 100.733Z" fill="white"/>
<path d="M118.307 114.47H156.684L157.408 112.044H119.031L118.307 114.47Z" fill="white"/>
<path d="M162.205 114.47H185.711L186.515 112.044H163.009L162.205 114.47Z" fill="white"/>
<path d="M122.797 128.207H149.535L150.227 125.781H123.488L122.797 128.207Z" fill="white"/>
<path d="M153.688 128.207H170.458L171.154 125.781H154.379L153.688 128.207Z" fill="white"/>
<path d="M148.539 107.602H181.343L182.23 105.176H149.426L148.539 107.602Z" fill="white"/>
<path d="M129.5 107.598H143.629L144.196 105.176H130.067L129.5 107.598Z" fill="white"/>
<path d="M146.545 86.9924H176.574L177.211 84.5664H147.178L146.545 86.9924Z" fill="white"/>
<path d="M123.014 86.9924H140.688L141.35 84.5664H123.672L123.014 86.9924Z" fill="white"/>
<path d="M182.336 86.9924H191.317L192.008 84.5664H183.032L182.336 86.9924Z" fill="white"/>
<path d="M126.678 93.8683H138.208L138.904 91.4463H127.369L126.678 93.8683Z" fill="white"/>
<path d="M143.986 93.8723H189.857L190.582 91.4502H144.715L143.986 93.8723Z" fill="white"/>
<path d="M167.488 121.319H181.051L181.743 118.893H168.18L167.488 121.319Z" fill="white"/>
<path d="M143.24 121.354H163.293L163.985 118.932H143.936L143.24 121.354Z" fill="white"/>
<path d="M149.477 147.04L152.392 145.63C154.25 144.732 155.787 143.349 156.825 141.64L162.51 132.279C163.327 130.932 165.131 130.459 166.568 131.216C167.93 131.932 168.484 133.523 167.842 134.87L162.573 145.886C162.148 146.772 161.536 147.571 160.782 148.237L156.7 151.809L149.477 147.04Z" fill="#FDA4FF"/>
<path d="M160.782 148.626C160.67 148.626 160.561 148.583 160.478 148.5C160.324 148.343 160.332 148.094 160.499 147.949C161.224 147.315 161.794 146.566 162.198 145.72L167.464 134.704C168.013 133.554 167.53 132.168 166.364 131.554C165.139 130.908 163.569 131.321 162.869 132.471L158.537 139.678C158.424 139.863 158.17 139.93 157.97 139.824C157.77 139.718 157.704 139.477 157.816 139.288L162.153 132.085C163.073 130.561 165.148 130.014 166.768 130.872C168.309 131.683 168.946 133.507 168.217 135.027L162.952 146.043C162.502 146.988 161.865 147.823 161.065 148.524C160.982 148.591 160.882 148.626 160.782 148.626Z" fill="black"/>
<path d="M142.691 152.156L145.32 150.305C146.994 149.132 148.269 147.525 148.994 145.674L152.972 135.556C153.543 134.099 155.238 133.347 156.783 133.871C158.254 134.363 159.079 135.844 158.679 137.273L155.405 148.962C155.142 149.907 154.68 150.79 154.047 151.566L150.643 155.724L142.691 152.156Z" fill="#FDA4FF"/>
<path d="M139.646 154.09C139.508 154.09 139.371 154.027 139.291 153.908C139.171 153.723 139.229 153.483 139.421 153.369L145.102 149.974C146.685 148.859 147.906 147.32 148.606 145.536L152.58 135.418C153.225 133.768 155.175 132.909 156.924 133.496C158.582 134.055 159.532 135.757 159.078 137.371L156.528 147.623C155.954 149.927 154.541 151.628 153.05 153.424L152.954 153.538C152.813 153.707 152.55 153.739 152.371 153.609C152.192 153.475 152.163 153.227 152.3 153.058L152.4 152.943C153.833 151.211 155.187 149.576 155.72 147.442L158.274 137.182C158.62 135.95 157.903 134.662 156.645 134.236C155.32 133.791 153.846 134.441 153.358 135.69L149.385 145.807C148.626 147.733 147.306 149.399 145.569 150.62L139.866 154.03C139.796 154.07 139.721 154.09 139.646 154.09Z" fill="black"/>
<path d="M31.4005 160.166H27.5723C16.8503 160.166 7.55285 167.192 5.17017 177.101L0.396484 196.938H31.4005V160.166Z" fill="#8C7BFF"/>
<path d="M74.2003 160.166H56.4844V189.018H81.6191L98.352 171.563L88.4839 164.632C84.3475 161.733 79.3447 160.166 74.2003 160.166Z" fill="#8C7BFF"/>
<path d="M75.4591 160.166H26.6934V233.879H96.5575L75.4591 160.166Z" fill="#8C7BFF"/>
<path d="M176.59 228.771H114.207L149.343 184.686H211.73L176.59 228.771Z" fill="black"/>
<path d="M115.036 228.377H176.386L210.898 185.08H149.552L115.036 228.377ZM176.59 229.161H114.208C114.049 229.161 113.908 229.078 113.837 228.945C113.766 228.811 113.783 228.653 113.874 228.535L149.015 184.449C149.09 184.355 149.215 184.296 149.344 184.296H211.731C211.885 184.296 212.026 184.379 212.097 184.513C212.168 184.642 212.156 184.804 212.06 184.922L176.924 229.008C176.844 229.102 176.724 229.161 176.59 229.161Z" fill="white"/>
<path d="M79.6777 228.771V233.883H176.497V228.771H79.6777Z" fill="black"/>
<path d="M80.0946 233.49H176.081V229.162H80.0946V233.49ZM176.497 234.274H79.678C79.4489 234.274 79.2656 234.1 79.2656 233.884V228.772C79.2656 228.555 79.4489 228.378 79.678 228.378H176.497C176.726 228.378 176.91 228.555 176.91 228.772V233.884C176.91 234.1 176.726 234.274 176.497 234.274Z" fill="white"/>
<path d="M162.436 204.571C160.791 204.571 159.454 205.839 159.454 207.399C159.454 208.958 160.791 210.23 162.436 210.23C164.086 210.23 165.423 208.958 165.423 207.399C165.423 205.839 164.086 204.571 162.436 204.571ZM162.436 211.014C160.333 211.014 158.625 209.391 158.625 207.399C158.625 205.406 160.333 203.787 162.436 203.787C164.54 203.787 166.252 205.406 166.252 207.399C166.252 209.391 164.54 211.014 162.436 211.014Z" fill="white"/>
<path d="M4.03711 216.185V197.336H26.6934V205.508C26.6934 207.788 28.6428 209.635 31.0505 209.635L68.3153 209.627V228.968L17.5459 228.976C10.0854 228.98 4.03711 223.25 4.03711 216.185Z" fill="#FDA4FF"/>
<path d="M90.7262 215.642L92.9423 217.91C94.0628 219.056 94.1753 220.789 93.213 222.053L91.0345 224.916L85.7609 219.344H52.6367V212.774H83.8031C86.4316 212.774 88.9434 213.814 90.7262 215.642Z" fill="#FDA4FF"/>
<path d="M89.7057 211.546L90.9595 212.83C92.08 213.976 92.1925 215.709 91.2303 216.977L89.0517 219.836L83.7781 214.263H52.6367V209.691H57.9228C60.1097 209.691 64.0086 207.694 68.9447 207.694H80.4041C83.9364 207.694 87.3063 209.088 89.7057 211.546Z" fill="#FDA4FF"/>
<path d="M91.5001 220.057L94.1577 222.778C95.2783 223.924 95.3907 225.657 94.4285 226.925L92.2499 229.784L86.9805 224.212H66.457V217.643H85.6684C87.8845 217.643 89.9964 218.517 91.5001 220.057Z" fill="#FDA4FF"/>
<path d="M90.5306 224.84L93.3007 227.676C94.3295 228.727 94.4337 230.323 93.5506 231.484C92.3634 233.048 89.9557 233.17 88.602 231.736L87.094 230.145C86.3776 229.385 85.3487 228.952 84.274 228.952H67.0371C62.5341 228.952 59.3642 228.704 55.0195 222.375L84.5947 222.379C86.8483 222.379 88.9977 223.273 90.5306 224.84Z" fill="#FDA4FF"/>
<path d="M4.03711 208.95V197.336H26.6934V204.189C25.173 204.13 23.1027 203.956 21.4948 203.484C19.083 202.783 16.7211 202.456 14.4009 205.461C11.3601 209.399 7.457 209.828 4.03711 208.95Z" fill="black"/>
<path d="M93.3677 222.223C93.2844 222.223 93.1969 222.199 93.1261 222.148C92.9387 222.022 92.897 221.778 93.0303 221.604C93.8301 220.553 93.6801 219.241 92.6387 218.178L90.4227 215.91C88.7232 214.165 86.3113 213.168 83.8037 213.168H77.7054C77.4763 213.168 77.293 212.991 77.293 212.775C77.293 212.558 77.4763 212.385 77.7054 212.385H83.8037C86.5404 212.385 89.173 213.476 91.0309 215.378L93.2469 217.642C94.5507 218.977 94.7298 220.71 93.7051 222.061C93.6218 222.168 93.4968 222.223 93.3677 222.223Z" fill="black"/>
<path d="M93.5799 228.429C93.4966 228.429 93.4133 228.405 93.3383 228.354C93.155 228.232 93.1133 227.984 93.2466 227.807L94.0922 226.696C94.9378 225.582 94.8379 224.05 93.8548 223.045L91.1972 220.324C89.7768 218.871 87.7606 218.032 85.6696 218.032H77.6509C77.4218 218.032 77.2344 217.858 77.2344 217.642C77.2344 217.425 77.4218 217.248 77.6509 217.248H85.6696C87.9939 217.248 90.2308 218.177 91.8054 219.792L94.463 222.51C95.7126 223.79 95.8376 225.739 94.7671 227.153L93.9173 228.267C93.8381 228.374 93.709 228.429 93.5799 228.429Z" fill="black"/>
<path d="M90.9648 233.131C89.9443 233.131 88.9779 232.721 88.2906 231.997L86.7868 230.405C86.1495 229.728 85.2331 229.342 84.275 229.342H65.2136C61.7604 229.342 58.5363 227.723 56.5951 225.01C56.466 224.829 56.516 224.589 56.7076 224.466C56.895 224.344 57.1533 224.392 57.2824 224.573C59.0694 227.066 62.0353 228.558 65.2136 228.558H84.275C85.4663 228.558 86.6077 229.043 87.4033 229.882L88.9112 231.473C89.4694 232.067 90.2775 232.386 91.119 232.343C91.9562 232.3 92.7227 231.902 93.2142 231.256C93.9807 230.248 93.889 228.854 92.9976 227.944L90.2275 225.104C88.7779 223.624 86.7243 222.773 84.5958 222.773H77.9226C77.6935 222.773 77.506 222.6 77.506 222.379C77.506 222.163 77.6935 221.989 77.9226 221.989H84.5958C86.9576 221.989 89.232 222.931 90.8357 224.573L93.6058 227.412C94.7638 228.594 94.8804 230.405 93.8849 231.717C93.2475 232.556 92.252 233.068 91.1606 233.123C91.094 233.127 91.0315 233.131 90.9648 233.131Z" fill="black"/>
<path d="M17.542 229.37C13.8264 229.37 10.3315 228 7.69888 225.511C5.07044 223.018 3.625 219.706 3.625 216.185V196.942H27.1102V205.508C27.1102 206.509 27.5184 207.446 28.2641 208.151C29.0055 208.856 29.9969 209.246 31.0508 209.246H56.9312C58.8723 209.246 60.4177 208.84 62.0547 208.411C64.0459 207.891 66.3036 207.3 69.7068 207.3H80.4039C84.0404 207.3 87.5436 208.753 90.0096 211.278L91.2634 212.562C92.3422 213.664 92.6047 215.259 91.9299 216.618C91.8299 216.815 91.5841 216.898 91.3758 216.807C91.1717 216.713 91.0801 216.48 91.1801 216.283C91.7091 215.216 91.505 213.96 90.6552 213.093L89.4014 211.81C87.0895 209.443 83.8113 208.084 80.4039 208.084H69.7068C66.416 208.084 64.3125 208.635 62.2755 209.167C60.5843 209.612 58.9806 210.029 56.9312 210.029H31.0508C29.7761 210.029 28.5765 209.557 27.6767 208.706C26.777 207.852 26.2813 206.717 26.2813 205.508V197.726H4.45394V216.185C4.45394 219.497 5.8119 222.612 8.28622 224.956C10.7605 227.299 14.0471 228.587 17.542 228.587C17.542 228.587 17.542 228.587 17.5462 228.587H71.7896C72.0187 228.587 72.2061 228.76 72.2061 228.977C72.2061 229.197 72.0187 229.37 71.7896 229.37H17.5462C17.542 229.37 17.542 229.37 17.542 229.37Z" fill="black"/>
<path d="M297.816 283.852C291.676 283.829 286.723 279.087 286.752 273.254C286.781 267.426 291.776 262.719 297.912 262.739C304.052 262.763 309.009 267.508 308.979 273.341C308.95 279.17 303.956 283.876 297.816 283.852ZM321.93 277.575L321.972 269.202L316.473 269.182C316.007 267.264 315.219 265.464 314.17 263.834L318.073 260.156L311.87 254.213L307.967 257.891C306.259 256.879 304.368 256.115 302.356 255.654L302.381 250.436L293.567 250.404L293.542 255.623C291.522 256.068 289.626 256.816 287.91 257.816L284.04 254.106L277.784 260.006L281.649 263.712C280.583 265.334 279.779 267.13 279.292 269.04L273.631 269.245L273.76 277.394L279.254 277.413C279.721 279.331 280.508 281.131 281.562 282.761L277.655 286.44L283.861 292.383L287.764 288.704C289.472 289.717 291.363 290.481 293.375 290.941L293.35 296.16L302.165 296.191L302.19 290.973C304.21 290.528 306.101 289.78 307.821 288.779L311.691 292.485L317.952 286.589L314.082 282.884C315.149 281.261 315.953 279.465 316.436 277.555L321.93 277.575Z" fill="#FED101"/>
<path d="M235.188 332.293C226.311 332.262 219.142 325.393 219.18 316.962C219.221 308.526 226.453 301.712 235.334 301.748C244.215 301.779 251.383 308.644 251.342 317.08C251.3 325.516 244.073 332.329 235.188 332.293ZM270.078 323.208L270.137 311.093L262.189 311.062C261.514 308.289 260.373 305.686 258.852 303.327L264.501 298.006L255.524 289.405L249.876 294.726C247.405 293.261 244.669 292.158 241.757 291.493L241.79 283.943L229.04 283.896L229.006 291.445C226.086 292.087 223.341 293.17 220.854 294.62L215.26 289.256L206.204 297.79L211.798 303.15C210.253 305.497 209.091 308.092 208.391 310.865L200.193 311.156L200.385 322.944L208.333 322.975C209.012 325.748 210.149 328.355 211.669 330.714L206.021 336.035L214.998 344.632L220.646 339.311C223.116 340.777 225.849 341.879 228.765 342.545L228.731 350.098L241.482 350.146L241.519 342.596C244.435 341.95 247.18 340.867 249.667 339.422L255.266 344.786L264.322 336.251L258.723 330.891C260.268 328.544 261.431 325.945 262.13 323.176L270.078 323.208Z" fill="black"/>
<path d="M297.869 263.132C291.991 263.132 287.193 267.665 287.168 273.258C287.155 275.971 288.255 278.527 290.267 280.457C292.279 282.383 294.961 283.45 297.815 283.462C297.831 283.462 297.848 283.462 297.861 283.462C303.742 283.462 308.541 278.929 308.566 273.336C308.574 270.619 307.475 268.063 305.463 266.137C303.451 264.207 300.772 263.144 297.915 263.132C297.898 263.132 297.886 263.132 297.869 263.132ZM297.861 284.245C297.844 284.245 297.831 284.245 297.815 284.245C294.736 284.234 291.841 283.084 289.679 281.008C287.509 278.929 286.322 276.176 286.339 273.254C286.368 267.232 291.537 262.348 297.869 262.348C297.886 262.348 297.898 262.348 297.915 262.348C300.993 262.356 303.888 263.506 306.054 265.586C308.22 267.661 309.407 270.418 309.395 273.34C309.366 279.362 304.196 284.245 297.861 284.245ZM293.766 295.769L301.751 295.797L301.776 290.661L302.097 290.59C304.042 290.161 305.892 289.44 307.604 288.444L307.887 288.282L311.69 291.929L317.364 286.585L313.556 282.938L313.731 282.674C314.789 281.063 315.568 279.307 316.035 277.46L316.11 277.157L321.517 277.18L321.554 269.591L316.143 269.571L316.072 269.268C315.622 267.421 314.864 265.661 313.819 264.038L313.648 263.77L317.488 260.151L311.869 254.767L308.024 258.387L307.745 258.221C306.046 257.213 304.2 256.48 302.259 256.035L301.939 255.964L301.964 250.825L293.978 250.793L293.953 255.933L293.637 256.004C291.687 256.433 289.838 257.154 288.126 258.146L287.847 258.312L284.039 254.665L278.366 260.005L282.173 263.656L281.998 263.916C280.94 265.535 280.165 267.287 279.699 269.134L279.624 269.422L274.046 269.623L274.167 277.003L279.586 277.023L279.657 277.326C280.107 279.173 280.865 280.933 281.915 282.556L282.082 282.82L278.241 286.439L283.864 291.823L287.705 288.203L287.984 288.369C289.684 289.377 291.529 290.114 293.474 290.559L293.791 290.629L293.766 295.769ZM302.576 296.584L292.933 296.549L292.958 291.244C291.15 290.803 289.43 290.114 287.826 289.2L283.856 292.937L277.07 286.435L281.04 282.698C280.086 281.17 279.378 279.523 278.928 277.802L273.351 277.783L273.209 268.866L278.966 268.658C279.432 266.941 280.157 265.298 281.128 263.766L277.195 260.001L284.044 253.554L287.972 257.319C289.584 256.417 291.317 255.744 293.129 255.311L293.153 250.01L302.797 250.045L302.772 255.35C304.58 255.791 306.304 256.48 307.904 257.394L311.873 253.657L318.659 260.159L314.693 263.892C315.643 265.424 316.351 267.071 316.801 268.788L322.383 268.811L322.341 277.968L316.759 277.944C316.293 279.661 315.568 281.3 314.602 282.824L318.534 286.593L311.686 293.04L307.758 289.275C306.146 290.177 304.413 290.85 302.601 291.279L302.576 296.584Z" fill="black"/>
<defs>
<linearGradient id="paint0_linear_3076_234517" x1="248" y1="0" x2="248" y2="400" gradientUnits="userSpaceOnUse">
<stop stop-color="#F5F5F5"/>
<stop offset="1" stop-color="#F5F5F5" stop-opacity="0"/>
</linearGradient>
</defs>
</svg>
