<svg width="36" height="36" viewBox="0 0 36 36" fill="none" xmlns="http://www.w3.org/2000/svg">
<path d="M14.3996 3.59845V16.1978C14.3996 18.1851 16.0107 19.7962 17.9982 19.7962C19.9855 19.7962 21.5965 18.1851 21.5965 16.1976V7.81566C26.1337 9.41527 29.0659 13.8232 28.788 18.6259C28.51 23.4288 25.0889 27.4688 20.3975 28.5344C15.706 29.5999 10.8754 27.434 8.54999 23.2223C6.22476 19.0105 6.96543 13.7687 10.3666 10.3663C11.7485 8.95528 11.7368 6.69459 10.3403 5.29819C8.94374 3.9015 6.68305 3.88983 5.27216 5.27189C-0.799742 11.3435 -1.73701 20.8589 3.03384 27.9989C7.80454 35.1385 16.9543 37.9139 24.8877 34.6276C32.8209 31.3412 37.3278 22.9085 35.6522 14.4868C33.9764 6.06473 26.585 -0.000562461 17.9982 3.91217e-08C16.0107 3.91217e-08 14.3996 1.61114 14.3996 3.59845Z" fill="#4678EB"/>
</svg>
