<svg width="46" height="34" viewBox="0 0 46 34" fill="none" xmlns="http://www.w3.org/2000/svg">
<path d="M24.9813 0.0166594C21.7326 0.232045 17.5064 3.88026 11.7565 13.2581C12.2261 8.00119 12.4177 4.2691 10.1139 2.31157C8.53654 0.973507 4.81634 0.455056 2.5892 3.33322C0.344812 6.22854 -0.172682 11.8762 0.0458157 17.8232C0.501977 30.2469 4.92175 34 8.8432 34H8.84512C15.7891 34 16.7609 25.5389 21.5026 17.989C21.3301 20.688 21.4873 23.0744 22.0125 24.7212C24.0786 31.1981 31.1817 31.7032 34.4074 25.1215C38.9575 15.839 40.2685 13.6546 44.8588 6.97382C47.8871 2.56317 44.3758 -0.292124 40.3087 1.76071C38.2196 2.81668 34.8271 5.44896 30.6009 11.0376C31.3427 6.78702 31.1376 -0.39124 24.9813 0.0166594Z" fill="#FB5222"/>
</svg>
