<svg width="50" height="50" viewBox="0 0 50 50" fill="none" xmlns="http://www.w3.org/2000/svg">
<path d="M7.8125 22.4023V10.9375C7.8125 10.5231 7.97712 10.1257 8.27015 9.83265C8.56317 9.53962 8.9606 9.375 9.375 9.375H40.625C41.0394 9.375 41.4368 9.53962 41.7299 9.83265C42.0229 10.1257 42.1875 10.5231 42.1875 10.9375V22.4023C42.1875 38.8086 28.2617 44.2383 25.4883 45.1562C25.1732 45.2729 24.8268 45.2729 24.5117 45.1562C21.7383 44.2383 7.8125 38.8086 7.8125 22.4023Z" fill="white"/>
<path d="M25 18.75V26.5625" stroke="#F54F64" stroke-width="3" stroke-linecap="round" stroke-linejoin="round"/>
<path d="M25 35.9375C26.2944 35.9375 27.3438 34.8882 27.3438 33.5938C27.3438 32.2993 26.2944 31.25 25 31.25C23.7056 31.25 22.6562 32.2993 22.6562 33.5938C22.6562 34.8882 23.7056 35.9375 25 35.9375Z" fill="#F54F64"/>
</svg>
