<svg width="17" height="16" viewBox="0 0 17 16" fill="none" xmlns="http://www.w3.org/2000/svg">
<path d="M15.3808 6.22953C15.1157 5.9525 14.8415 5.66703 14.7381 5.41602C14.6425 5.18609 14.6369 4.805 14.6312 4.43586C14.6207 3.74961 14.6095 2.97195 14.0687 2.43125C13.528 1.89055 12.7504 1.8793 12.0641 1.86875C11.695 1.86312 11.3139 1.8575 11.084 1.76187C10.8337 1.65852 10.5475 1.3843 10.2705 1.11922C9.78531 0.653047 9.23406 0.125 8.5 0.125C7.76594 0.125 7.21539 0.653047 6.72953 1.11922C6.4525 1.3843 6.16703 1.65852 5.91602 1.76187C5.6875 1.8575 5.305 1.86312 4.93586 1.86875C4.24961 1.8793 3.47195 1.89055 2.93125 2.43125C2.39055 2.97195 2.38281 3.74961 2.36875 4.43586C2.36312 4.805 2.3575 5.18609 2.26187 5.41602C2.15852 5.66633 1.8843 5.9525 1.61922 6.22953C1.15305 6.71469 0.625 7.26594 0.625 8C0.625 8.73406 1.15305 9.28461 1.61922 9.77047C1.8843 10.0475 2.15852 10.333 2.26187 10.584C2.3575 10.8139 2.36312 11.195 2.36875 11.5641C2.3793 12.2504 2.39055 13.028 2.93125 13.5687C3.47195 14.1095 4.24961 14.1207 4.93586 14.1312C5.305 14.1369 5.68609 14.1425 5.91602 14.2381C6.16633 14.3415 6.4525 14.6157 6.72953 14.8808C7.21469 15.347 7.76594 15.875 8.5 15.875C9.23406 15.875 9.78461 15.347 10.2705 14.8808C10.5475 14.6157 10.833 14.3415 11.084 14.2381C11.3139 14.1425 11.695 14.1369 12.0641 14.1312C12.7504 14.1207 13.528 14.1095 14.0687 13.5687C14.6095 13.028 14.6207 12.2504 14.6312 11.5641C14.6369 11.195 14.6425 10.8139 14.7381 10.584C14.8415 10.3337 15.1157 10.0475 15.3808 9.77047C15.847 9.28531 16.375 8.73406 16.375 8C16.375 7.26594 15.847 6.71539 15.3808 6.22953ZM14.5687 8.99211C14.2319 9.34367 13.8831 9.70719 13.6982 10.1537C13.521 10.5826 13.5133 11.0727 13.5062 11.5473C13.4992 12.0395 13.4915 12.5548 13.2728 12.7728C13.0541 12.9908 12.5423 12.9992 12.0473 13.0062C11.5727 13.0133 11.0826 13.021 10.6537 13.1982C10.2072 13.3831 9.84367 13.7319 9.49211 14.0687C9.14055 14.4055 8.78125 14.75 8.5 14.75C8.21875 14.75 7.85664 14.4041 7.50789 14.0687C7.15914 13.7333 6.79281 13.3831 6.34633 13.1982C5.91742 13.021 5.42734 13.0133 4.95273 13.0062C4.46055 12.9992 3.94516 12.9915 3.72719 12.7728C3.50922 12.5541 3.50078 12.0423 3.49375 11.5473C3.48672 11.0727 3.47898 10.5826 3.3018 10.1537C3.11687 9.70719 2.76812 9.34367 2.43133 8.99211C2.09453 8.64055 1.75 8.28125 1.75 8C1.75 7.71875 2.09594 7.35664 2.43133 7.00789C2.76672 6.65914 3.11687 6.29281 3.3018 5.84633C3.47898 5.41742 3.48672 4.92734 3.49375 4.45273C3.50078 3.96055 3.50852 3.44516 3.72719 3.22719C3.94586 3.00922 4.45773 3.00078 4.95273 2.99375C5.42734 2.98672 5.91742 2.97898 6.34633 2.8018C6.79281 2.61687 7.15633 2.26812 7.50789 1.93133C7.85945 1.59453 8.21875 1.25 8.5 1.25C8.78125 1.25 9.14336 1.59594 9.49211 1.93133C9.84086 2.26672 10.2072 2.61687 10.6537 2.8018C11.0826 2.97898 11.5727 2.98672 12.0473 2.99375C12.5395 3.00078 13.0548 3.00852 13.2728 3.22719C13.4908 3.44586 13.4992 3.95773 13.5062 4.45273C13.5133 4.92734 13.521 5.41742 13.6982 5.84633C13.8831 6.29281 14.2319 6.65633 14.5687 7.00789C14.9055 7.35945 15.25 7.71875 15.25 8C15.25 8.28125 14.9041 8.64336 14.5687 8.99211ZM11.7105 5.91453C11.7628 5.96677 11.8043 6.02881 11.8326 6.0971C11.8609 6.16538 11.8754 6.23858 11.8754 6.3125C11.8754 6.38642 11.8609 6.45962 11.8326 6.5279C11.8043 6.59619 11.7628 6.65823 11.7105 6.71047L7.77297 10.648C7.72073 10.7003 7.65869 10.7418 7.5904 10.7701C7.52212 10.7984 7.44892 10.8129 7.375 10.8129C7.30108 10.8129 7.22788 10.7984 7.1596 10.7701C7.09131 10.7418 7.02927 10.7003 6.97703 10.648L5.28953 8.96047C5.18398 8.85492 5.12469 8.71177 5.12469 8.5625C5.12469 8.41323 5.18398 8.27008 5.28953 8.16453C5.39508 8.05898 5.53823 7.99969 5.6875 7.99969C5.83677 7.99969 5.97992 8.05898 6.08547 8.16453L7.375 9.45477L10.9145 5.91453C10.9668 5.86223 11.0288 5.82074 11.0971 5.79244C11.1654 5.76413 11.2386 5.74956 11.3125 5.74956C11.3864 5.74956 11.4596 5.76413 11.5279 5.79244C11.5962 5.82074 11.6582 5.86223 11.7105 5.91453Z" fill="white"/>
</svg>
