<svg width="16" height="16" viewBox="0 0 16 16" fill="none" xmlns="http://www.w3.org/2000/svg">
<path d="M9.68742 6.87492C9.68742 7.0241 9.62815 7.16717 9.52266 7.27266C9.41718 7.37815 9.2741 7.43742 9.12492 7.43742H7.43742V9.12492C7.43742 9.2741 7.37815 9.41718 7.27266 9.52266C7.16717 9.62815 7.0241 9.68742 6.87492 9.68742C6.72573 9.68742 6.58266 9.62815 6.47717 9.52266C6.37168 9.41718 6.31242 9.2741 6.31242 9.12492V7.43742H4.62492C4.47573 7.43742 4.33266 7.37815 4.22717 7.27266C4.12168 7.16717 4.06242 7.0241 4.06242 6.87492C4.06242 6.72573 4.12168 6.58266 4.22717 6.47717C4.33266 6.37168 4.47573 6.31242 4.62492 6.31242H6.31242V4.62492C6.31242 4.47573 6.37168 4.33266 6.47717 4.22717C6.58266 4.12168 6.72573 4.06242 6.87492 4.06242C7.0241 4.06242 7.16717 4.12168 7.27266 4.22717C7.37815 4.33266 7.43742 4.47573 7.43742 4.62492V6.31242H9.12492C9.2741 6.31242 9.41718 6.37168 9.52266 6.47717C9.62815 6.58266 9.68742 6.72573 9.68742 6.87492ZM15.1479 15.1479C15.0956 15.2002 15.0336 15.2417 14.9653 15.27C14.897 15.2983 14.8238 15.3129 14.7499 15.3129C14.676 15.3129 14.6028 15.2983 14.5345 15.27C14.4662 15.2417 14.4042 15.2002 14.3519 15.1479L10.8321 11.6273C9.60705 12.6477 8.03577 13.1566 6.44512 13.048C4.85447 12.9394 3.36692 12.2217 2.29193 11.0443C1.21693 9.86684 0.637251 8.32029 0.673476 6.72635C0.709701 5.13241 1.35904 3.6138 2.48642 2.48642C3.6138 1.35904 5.13241 0.709701 6.72635 0.673476C8.32029 0.637251 9.86684 1.21693 11.0443 2.29193C12.2217 3.36692 12.9394 4.85447 13.048 6.44512C13.1566 8.03577 12.6477 9.60705 11.6273 10.8321L15.1479 14.3519C15.2002 14.4042 15.2417 14.4662 15.27 14.5345C15.2983 14.6028 15.3129 14.676 15.3129 14.7499C15.3129 14.8238 15.2983 14.897 15.27 14.9653C15.2417 15.0336 15.2002 15.0956 15.1479 15.1479ZM6.87492 11.9374C7.87618 11.9374 8.85497 11.6405 9.68749 11.0842C10.52 10.528 11.1689 9.7373 11.5521 8.81225C11.9352 7.8872 12.0355 6.8693 11.8401 5.88727C11.6448 4.90524 11.1626 4.00319 10.4546 3.29519C9.74664 2.58718 8.84459 2.10503 7.86256 1.90969C6.88053 1.71435 5.86263 1.81461 4.93758 2.19778C4.01253 2.58094 3.22188 3.22982 2.6656 4.06234C2.10933 4.89487 1.81242 5.87365 1.81242 6.87492C1.81391 8.21712 2.34775 9.50392 3.29683 10.453C4.24591 11.4021 5.53271 11.9359 6.87492 11.9374Z" fill="white"/>
</svg>
