<svg width="16" height="14" viewBox="0 0 16 14" fill="none" xmlns="http://www.w3.org/2000/svg">
<path d="M15.7104 7.27341L10.0854 12.8984C10.0068 12.9772 9.90649 13.0308 9.79732 13.0526C9.68814 13.0743 9.57498 13.0632 9.47214 13.0205C9.3693 12.9779 9.28142 12.9058 9.21961 12.8132C9.15781 12.7206 9.12487 12.6118 9.12496 12.5004V9.70411C5.11011 9.93193 2.35738 12.5356 1.58464 13.3604C1.46331 13.4899 1.30419 13.578 1.12994 13.6119C0.955681 13.6458 0.77517 13.6239 0.614091 13.5493C0.453012 13.4746 0.319573 13.3511 0.232763 13.1963C0.145954 13.0414 0.110197 12.8631 0.130582 12.6868C0.391442 10.4185 1.63386 8.23669 3.62933 6.54357C5.2866 5.13732 7.30105 4.24505 9.12496 4.08896V1.25044C9.12487 1.13913 9.15781 1.03029 9.21961 0.937703C9.28142 0.845119 9.3693 0.772954 9.47214 0.730343C9.57498 0.687732 9.68814 0.676592 9.79732 0.698333C9.90649 0.720074 10.0068 0.773718 10.0854 0.852474L15.7104 6.47747C15.7627 6.52972 15.8042 6.59175 15.8325 6.66004C15.8608 6.72833 15.8754 6.80152 15.8754 6.87544C15.8754 6.94936 15.8608 7.02256 15.8325 7.09085C15.8042 7.15913 15.7627 7.22117 15.7104 7.27341Z" fill="white"/>
</svg>
