<svg width="18" height="13" viewBox="0 0 18 13" fill="none" xmlns="http://www.w3.org/2000/svg">
<path d="M17.2127 7.57537C17.1536 7.61969 17.0864 7.65194 17.0148 7.67027C16.9433 7.6886 16.8688 7.69266 16.7957 7.68222C16.7225 7.67177 16.6522 7.64702 16.5886 7.60939C16.5251 7.57175 16.4695 7.52197 16.4252 7.46287C16.0862 7.00715 15.6449 6.63739 15.1368 6.38337C14.6288 6.12935 14.0682 5.99817 13.5002 6.00037C13.3896 6.00036 13.2814 5.96774 13.1893 5.90658C13.0971 5.84543 13.025 5.75845 12.982 5.65654C12.9528 5.58734 12.9378 5.51298 12.9378 5.43787C12.9378 5.36276 12.9528 5.2884 12.982 5.2192C13.025 5.11729 13.0971 5.03031 13.1893 4.96916C13.2814 4.908 13.3896 4.87538 13.5002 4.87537C13.8158 4.87534 14.1251 4.7868 14.3929 4.61981C14.6607 4.45282 14.8764 4.21407 15.0153 3.93068C15.1542 3.64729 15.2109 3.33062 15.1789 3.01663C15.1468 2.70265 15.0274 2.40394 14.8341 2.15443C14.6408 1.90493 14.3814 1.71463 14.0854 1.60515C13.7894 1.49567 13.4686 1.4714 13.1595 1.53509C12.8504 1.59879 12.5653 1.7479 12.3367 1.96548C12.1081 2.18306 11.9451 2.4604 11.8662 2.76599C11.8477 2.83755 11.8153 2.90478 11.7709 2.96382C11.7264 3.02287 11.6708 3.07258 11.6071 3.11012C11.5435 3.14767 11.473 3.1723 11.3998 3.18263C11.3267 3.19295 11.2522 3.18876 11.1806 3.17029C11.109 3.15182 11.0418 3.11944 10.9828 3.075C10.9237 3.03055 10.874 2.97491 10.8365 2.91125C10.7989 2.84759 10.7743 2.77716 10.764 2.70398C10.7536 2.6308 10.7578 2.5563 10.7763 2.48474C10.8858 2.06098 11.0927 1.66863 11.3806 1.3389C11.6684 1.00917 12.0292 0.751171 12.4343 0.585428C12.8394 0.419686 13.2776 0.350776 13.714 0.38418C14.1504 0.417585 14.573 0.552382 14.9481 0.777847C15.3233 1.00331 15.6406 1.31322 15.8749 1.68291C16.1092 2.05261 16.254 2.47188 16.2978 2.90738C16.3415 3.34287 16.283 3.78257 16.1269 4.19147C15.9708 4.60038 15.7215 4.96722 15.3987 5.26279C16.1635 5.59396 16.8284 6.11949 17.3273 6.78717C17.3716 6.84641 17.4038 6.91382 17.4221 6.98552C17.4403 7.05723 17.4442 7.13183 17.4335 7.20505C17.4229 7.27826 17.3979 7.34866 17.36 7.41221C17.3221 7.47575 17.2721 7.5312 17.2127 7.57537ZM13.4243 11.9066C13.465 11.9706 13.4923 12.0422 13.5046 12.1171C13.5169 12.192 13.514 12.2685 13.4959 12.3422C13.4779 12.4159 13.4451 12.4852 13.3996 12.5459C13.3541 12.6066 13.2968 12.6574 13.2311 12.6954C13.1654 12.7333 13.0927 12.7576 13.0174 12.7668C12.9421 12.7759 12.8657 12.7697 12.7928 12.7486C12.72 12.7275 12.6522 12.6918 12.5934 12.6438C12.5347 12.5958 12.4863 12.5363 12.4512 12.4691C12.0968 11.8691 11.5922 11.3719 10.987 11.0264C10.3818 10.681 9.69703 10.4993 9.00021 10.4993C8.3034 10.4993 7.61862 10.681 7.01345 11.0264C6.40827 11.3719 5.90362 11.8691 5.54928 12.4691C5.51411 12.5363 5.46571 12.5958 5.40699 12.6438C5.34827 12.6918 5.28044 12.7275 5.20758 12.7486C5.13472 12.7697 5.05834 12.7759 4.98303 12.7668C4.90772 12.7576 4.83503 12.7333 4.76935 12.6954C4.70367 12.6574 4.64635 12.6066 4.60084 12.5459C4.55532 12.4852 4.52255 12.4159 4.5045 12.3422C4.48646 12.2685 4.4835 12.192 4.49581 12.1171C4.50812 12.0422 4.53545 11.9706 4.57615 11.9066C5.12149 10.9696 5.95301 10.2323 6.94849 9.80287C6.38833 9.37399 5.97666 8.78036 5.77132 8.10541C5.56599 7.43046 5.57733 6.70813 5.80375 6.03996C6.03016 5.37179 6.46028 4.79137 7.03362 4.38028C7.60697 3.9692 8.29472 3.74812 9.00021 3.74812C9.7057 3.74812 10.3935 3.9692 10.9668 4.38028C11.5402 4.79137 11.9703 5.37179 12.1967 6.03996C12.4231 6.70813 12.4344 7.43046 12.2291 8.10541C12.0238 8.78036 11.6121 9.37399 11.0519 9.80287C12.0474 10.2323 12.8789 10.9696 13.4243 11.9066ZM9.00021 9.37537C9.44522 9.37537 9.88024 9.24341 10.2502 8.99618C10.6203 8.74894 10.9086 8.39754 11.0789 7.98641C11.2492 7.57527 11.2938 7.12287 11.207 6.68642C11.1202 6.24996 10.9059 5.84905 10.5912 5.53438C10.2765 5.21971 9.87562 5.00542 9.43917 4.9186C9.00271 4.83179 8.55031 4.87634 8.13918 5.04664C7.72804 5.21694 7.37664 5.50533 7.12941 5.87534C6.88217 6.24535 6.75021 6.68036 6.75021 7.12537C6.75021 7.72211 6.98727 8.2944 7.40922 8.71636C7.83118 9.13832 8.40348 9.37537 9.00021 9.37537ZM5.06271 5.43787C5.06271 5.28869 5.00345 5.14561 4.89796 5.04012C4.79247 4.93463 4.6494 4.87537 4.50021 4.87537C4.1846 4.87534 3.87532 4.7868 3.6075 4.61981C3.33969 4.45282 3.12407 4.21407 2.98514 3.93068C2.84621 3.64729 2.78954 3.33062 2.82157 3.01663C2.8536 2.70265 2.97304 2.40394 3.16632 2.15443C3.3596 1.90493 3.61899 1.71463 3.915 1.60515C4.21102 1.49567 4.53181 1.4714 4.84092 1.53509C5.15004 1.59879 5.4351 1.7479 5.66373 1.96548C5.89235 2.18306 6.05537 2.4604 6.13428 2.76599C6.17157 2.91052 6.26475 3.0343 6.39332 3.11012C6.52188 3.18595 6.6753 3.20759 6.81982 3.17029C6.96434 3.133 7.08813 3.03982 7.16395 2.91125C7.23977 2.78269 7.26142 2.62927 7.22412 2.48474C7.1146 2.06098 6.9077 1.66863 6.61986 1.3389C6.33203 1.00917 5.97121 0.751171 5.56612 0.585428C5.16103 0.419686 4.72284 0.350776 4.28643 0.38418C3.85002 0.417585 3.42743 0.552382 3.05229 0.777847C2.67714 1.00331 2.35979 1.31322 2.12549 1.68291C1.89119 2.05261 1.74641 2.47188 1.70267 2.90738C1.65892 3.34287 1.71742 3.78257 1.87351 4.19147C2.0296 4.60038 2.27897 4.96722 2.60178 5.26279C1.83768 5.59427 1.17353 6.11978 0.675213 6.78717C0.58561 6.90651 0.547086 7.05657 0.568118 7.20432C0.58915 7.35207 0.668014 7.48541 0.787362 7.57502C0.906709 7.66462 1.05676 7.70315 1.20451 7.68211C1.35227 7.66108 1.48561 7.58222 1.57521 7.46287C1.91425 7.00715 2.35555 6.63739 2.86359 6.38337C3.37163 6.12935 3.93221 5.99817 4.50021 6.00037C4.6494 6.00037 4.79247 5.94111 4.89796 5.83562C5.00345 5.73013 5.06271 5.58705 5.06271 5.43787Z" fill="white"/>
</svg>
