<svg width="164" height="32" viewBox="0 0 164 32" fill="none" xmlns="http://www.w3.org/2000/svg">
<path fill-rule="evenodd" clip-rule="evenodd" d="M82.4206 18.0612H91.6622C91.7748 17.5086 91.8123 16.9447 91.7737 16.3831C91.6699 15.1096 91.205 13.976 90.281 13.0334C89.2608 11.9916 87.9794 11.4535 86.4925 11.3353C84.6962 11.1935 83.1113 11.6771 81.7943 12.8397C80.2757 14.1787 79.6321 15.8595 79.8242 17.8066C79.9971 19.5965 80.851 21.06 82.4273 22.0599C84.6924 23.4989 87.0688 23.4689 89.4606 22.3263C90.1294 22.0129 90.7141 21.5597 91.1704 21.0009L89.6748 19.3538C88.5529 20.4292 87.2552 20.9973 85.651 20.85C84.2178 20.7191 82.9326 19.7438 82.5167 18.4411C82.498 18.3748 82.4816 18.3074 82.4645 18.2369C82.4509 18.1806 82.4368 18.1224 82.4206 18.0612ZM86.0717 13.4424C87.7633 13.5033 88.8718 14.6569 89.1331 16.0204H82.4552C82.8346 14.5605 84.0882 13.3715 86.0717 13.4424Z" fill="#161922"/>
<path d="M73.3298 7.95837V15.5332L73.3701 15.5514C73.4998 15.4151 73.6304 15.2787 73.7544 15.1424C74.9026 13.8964 76.0514 12.651 77.2009 11.4063C77.2588 11.3425 77.3402 11.3019 77.4285 11.2927C78.4583 11.2845 79.488 11.2863 80.5177 11.2863C80.5417 11.2863 80.5657 11.2908 80.6311 11.2972C78.9232 13.1525 77.2345 14.986 75.5343 16.8341L81.1411 22.9781C81.0566 22.9836 81.0047 22.9909 80.949 22.9909C79.9558 22.9909 78.9635 22.9909 77.9713 22.9854C77.8711 22.98 77.7768 22.9391 77.7071 22.8709C76.2983 21.3286 74.8894 19.7832 73.4806 18.2349C73.4451 18.1949 73.4057 18.1585 73.3365 18.0885V22.9745H70.7804C70.7804 22.919 70.7689 22.8581 70.7689 22.7927C70.7689 18.2652 70.7689 13.7373 70.7689 9.20919C70.7561 9.09833 70.8289 8.99467 70.9418 8.96284C71.6824 8.65105 72.4182 8.32653 73.1511 8.01382C73.1991 8.00201 73.2539 7.98383 73.3298 7.95837Z" fill="#161922"/>
<path fill-rule="evenodd" clip-rule="evenodd" d="M57.3344 19.8374C57.735 19.0302 57.8906 18.1648 57.9329 17.2739C57.922 17.1458 57.9133 17.0173 57.9046 16.8888C57.8865 16.6206 57.8684 16.3522 57.8301 16.0867C57.6197 14.6378 56.9656 13.4115 55.7053 12.5307C53.6055 11.0644 51.3462 10.8835 49.0159 11.948C47.5309 12.6279 46.5165 13.7487 46.09 15.2941C45.7797 16.4221 45.7596 17.6042 46.0314 18.7411C46.2562 19.7137 46.7038 20.5819 47.4665 21.2773C49.2128 22.8708 51.2905 23.3471 53.6093 22.759C55.3 22.3308 56.5794 21.3582 57.3344 19.8374ZM55.4332 16.9162C55.4388 16.9894 55.4443 17.0626 55.4517 17.1358C55.4344 17.8966 55.2634 18.6147 54.8005 19.2474C53.8985 20.4855 52.2367 20.9973 50.6614 20.4764C49.3838 20.0546 48.6336 19.1665 48.3887 17.9157C48.1908 16.9076 48.3224 15.9368 48.9429 15.0695C49.8218 13.8433 51.4634 13.3297 53.0272 13.8178C54.3663 14.2378 55.127 15.1541 55.3806 16.454C55.4099 16.6081 55.4216 16.7621 55.4332 16.9162Z" fill="#161922"/>
<path d="M35.4363 22.9772V7.62292H37.9636V20.561H45.506V22.9772H35.4363Z" fill="#161922"/>
<path d="M69.3982 21.201C68.7171 21.8816 67.8687 22.3922 66.9286 22.6872C64.5098 23.449 61.8164 22.7563 60.1834 20.9428C59.5005 20.1847 59.1403 19.2875 58.9808 18.3149C58.7954 17.1813 58.8396 16.0578 59.2306 14.9633C59.8444 13.2452 61.1306 12.1453 62.9153 11.5999C65.3167 10.8727 67.478 11.3327 69.3223 12.9944C69.3461 13.0177 69.3686 13.0423 69.3895 13.068C69.1907 13.2452 68.9995 13.418 68.8065 13.5889C68.477 13.8825 68.1437 14.1715 67.818 14.4688C67.79 14.5059 67.7462 14.5295 67.6982 14.5335C67.6502 14.5376 67.6028 14.5215 67.5683 14.4897C66.8728 14.0543 66.1274 13.7452 65.2869 13.6488C63.5577 13.4366 61.932 14.4758 61.4946 16.0732C61.192 17.174 61.3025 18.2449 61.9749 19.213C62.8625 20.4956 64.5012 20.9928 66.1284 20.4683C66.6269 20.3074 67.089 20.0429 67.5635 19.8166C67.6595 19.772 67.7143 19.7429 67.8046 19.822C68.3233 20.282 68.8526 20.7328 69.3982 21.201Z" fill="#161922"/>
<path d="M95.6976 22.9899H93.083C93.0474 22.9899 93.0109 22.9899 92.9629 22.9835V11.6044H95.5564V12.4725C96.8542 11.3762 98.3872 11.2308 100 11.2999V13.936C99.6091 13.9033 99.2124 13.8451 98.8156 13.8451C97.2067 13.8342 96.03 14.7887 95.7745 16.2995C95.7274 16.583 95.7033 16.8696 95.7024 17.1567C95.6957 19.0283 95.7024 20.8991 95.7024 22.7708L95.6976 22.9899Z" fill="#161922"/>
<path fill-rule="evenodd" clip-rule="evenodd" d="M29.6316 2.64509C29.6316 2.08877 29.3194 1.70971 28.7546 1.57972C26.7109 1.09024 24.6377 0.718674 22.5465 0.467079C21.0403 0.297093 19.5245 0.155285 18.0097 0.0634741C17.1024 0.00876211 16.1918 0.00709314 15.2816 0.00542516C15.0123 0.00493153 14.743 0.00443799 14.4738 0.00256973C12.622 -0.0162926 10.7706 0.0686983 8.92943 0.257096L8.78889 0.272419C7.8358 0.376308 6.88295 0.480171 5.93533 0.617068C4.24761 0.861595 2.57526 1.1843 0.917322 1.57336C0.310243 1.71607 0.00958482 2.06696 0.00958482 2.66237V9.88363H0.0038214C0.0038214 10.4999 0.00286592 11.1161 0.0019105 11.7322C-0.000588041 13.3434 -0.00308613 14.9544 0.011506 16.5668C0.0124008 17.3631 0.0634012 18.1587 0.164236 18.9493C0.403418 20.7028 1.18628 22.2409 2.38123 23.5908C3.67896 25.0506 5.16015 26.3287 6.7278 27.5141C8.82039 29.0865 11.0638 30.4703 13.4287 31.6474C14.3662 32.1165 15.2961 32.1228 16.223 31.6347C16.3858 31.5491 16.5489 31.4639 16.712 31.3787C17.3073 31.0679 17.9029 30.7569 18.4842 30.423C21.3534 28.7731 24.0056 26.8596 26.3359 24.5616C27.2292 23.6817 28.0236 22.7345 28.6048 21.6364C29.3732 20.1819 29.6182 18.6166 29.6239 17.0176C29.6373 13.5127 29.6352 10.0073 29.6331 6.50219V6.50098V6.50089V6.5008V6.5007C29.6324 5.21546 29.6316 3.93024 29.6316 2.64509ZM5.15439 19.3347H3.48204V6.66842H5.15439V19.3347ZM7.04767 16.6677H8.72098V9.33549H7.04767V16.6677ZM12.2434 18.0012H10.5701V8.00196H12.2434V18.0012ZM14.0925 21.3346H15.7648V4.66857H14.0925V21.3346Z" fill="#3FAF49"/>
<path d="M113.551 15.998L111.632 23H110.318L108.985 18.1025C108.93 17.8942 108.896 17.6663 108.883 17.4189H108.863C108.847 17.6501 108.808 17.8747 108.746 18.0928L107.408 23H106.065L104.107 15.998H105.382L106.651 21.125C106.703 21.3398 106.736 21.5645 106.749 21.7988H106.773C106.786 21.6328 106.832 21.4082 106.91 21.125L108.346 15.998H109.542L110.87 21.1641C110.916 21.3398 110.95 21.5482 110.973 21.7891H110.992C111.002 21.6263 111.039 21.4115 111.104 21.1445L112.35 15.998H113.551ZM120.147 23H118.98V19.9629H115.685V23H114.522V15.998H115.685V18.9424H118.98V15.998H120.147V23ZM123.067 23H121.871V15.998H123.067V23ZM129.288 16.9844H127.276V23H126.114V16.9844H124.107V15.998H129.288V16.9844ZM134.244 23H130.313V15.998H134.088V16.9844H131.476V18.9668H133.883V19.9482H131.476V22.0186H134.244V23ZM136.646 20.4609V23H135.489V15.998H137.613C138.417 15.998 139.041 16.1852 139.483 16.5596C139.926 16.9339 140.147 17.4613 140.147 18.1416C140.147 18.8219 139.916 19.3786 139.454 19.8115C138.992 20.2445 138.367 20.4609 137.579 20.4609H136.646ZM136.646 16.9551V19.5137H137.398C137.896 19.5137 138.276 19.3981 138.536 19.167C138.797 18.9359 138.927 18.6104 138.927 18.1904C138.927 17.3669 138.448 16.9551 137.491 16.9551H136.646ZM146.397 23H145.123L144.493 21.2178H141.739L141.134 23H139.864L142.486 15.998H143.795L146.397 23ZM144.186 20.2705L143.214 17.4775C143.185 17.3864 143.154 17.2399 143.121 17.0381H143.102C143.072 17.2236 143.04 17.3701 143.004 17.4775L142.042 20.2705H144.186ZM148.521 20.4609V23H147.364V15.998H149.488C150.292 15.998 150.916 16.1852 151.358 16.5596C151.801 16.9339 152.022 17.4613 152.022 18.1416C152.022 18.8219 151.791 19.3786 151.329 19.8115C150.867 20.2445 150.242 20.4609 149.454 20.4609H148.521ZM148.521 16.9551V19.5137H149.273C149.771 19.5137 150.151 19.3981 150.411 19.167C150.672 18.9359 150.802 18.6104 150.802 18.1904C150.802 17.3669 150.323 16.9551 149.366 16.9551H148.521ZM157.145 23H153.214V15.998H156.988V16.9844H154.376V18.9668H156.783V19.9482H154.376V22.0186H157.145V23ZM163.8 23H162.442L161.324 21.125C161.223 20.9525 161.124 20.806 161.026 20.6855C160.932 20.5618 160.834 20.4609 160.733 20.3828C160.636 20.3047 160.528 20.2477 160.411 20.2119C160.294 20.1761 160.162 20.1582 160.016 20.1582H159.547V23H158.39V15.998H160.694C161.023 15.998 161.326 16.0371 161.603 16.1152C161.879 16.1934 162.12 16.3122 162.325 16.4717C162.53 16.6279 162.69 16.8249 162.804 17.0625C162.921 17.2969 162.979 17.5719 162.979 17.8877C162.979 18.1351 162.942 18.363 162.867 18.5713C162.796 18.7764 162.691 18.9603 162.555 19.123C162.421 19.2826 162.258 19.4193 162.066 19.5332C161.878 19.6471 161.664 19.735 161.427 19.7969V19.8164C161.554 19.888 161.664 19.9678 161.759 20.0557C161.853 20.1403 161.943 20.2282 162.027 20.3193C162.112 20.4105 162.195 20.5146 162.276 20.6318C162.361 20.7458 162.454 20.8792 162.555 21.0322L163.8 23ZM159.547 16.9404V19.2158H160.514C160.693 19.2158 160.857 19.1882 161.007 19.1328C161.16 19.0775 161.292 18.9977 161.402 18.8936C161.513 18.7894 161.599 18.6624 161.661 18.5127C161.723 18.363 161.754 18.1953 161.754 18.0098C161.754 17.6745 161.648 17.4124 161.437 17.2236C161.225 17.0348 160.921 16.9404 160.523 16.9404H159.547Z" fill="black"/>
</svg>
