<svg width="64" height="64" viewBox="0 0 64 64" fill="none" xmlns="http://www.w3.org/2000/svg">
<rect width="64" height="64" rx="32" fill="#268334"/>
<path d="M48.4844 32.0004V44.5004C48.4803 46.1567 47.8204 47.744 46.6492 48.9152C45.478 50.0864 43.8907 50.7462 42.2344 50.7504H33.25C32.9185 50.7504 32.6005 50.6187 32.3661 50.3843C32.1317 50.1498 32 49.8319 32 49.5004C32 49.1688 32.1317 48.8509 32.3661 48.6165C32.6005 48.3821 32.9185 48.2504 33.25 48.2504H42.2344C43.2277 48.2463 44.1791 47.8498 44.8815 47.1475C45.5839 46.4451 45.9803 45.4937 45.9844 44.5004V44.2816C45.5835 44.4262 45.1606 44.5002 44.7344 44.5004H42.2344C41.2398 44.5004 40.286 44.1053 39.5827 43.402C38.8795 42.6988 38.4844 41.7449 38.4844 40.7504V34.5004C38.4844 33.5058 38.8795 32.552 39.5827 31.8487C40.286 31.1455 41.2398 30.7504 42.2344 30.7504H45.9219C45.6085 27.3163 44.0162 24.1254 41.4608 21.8102C38.9053 19.4949 35.5732 18.2243 32.125 18.2504H32.1094C28.6591 18.2171 25.3231 19.4852 22.766 21.8018C20.209 24.1185 18.6189 27.3136 18.3125 30.7504H22C22.9933 30.7545 23.9447 31.1509 24.6471 31.8533C25.3495 32.5556 25.7459 33.5071 25.75 34.5004V40.7504C25.7459 41.7437 25.3495 42.6951 24.6471 43.3975C23.9447 44.0998 22.9933 44.4963 22 44.5004H19.5C18.5067 44.4963 17.5553 44.0998 16.8529 43.3975C16.1505 42.6951 15.7541 41.7437 15.75 40.7504V32.0004C15.75 29.8572 16.1739 27.7351 16.9973 25.7564C17.8208 23.7777 19.0276 21.9814 20.5481 20.471C22.0687 18.9606 23.873 17.766 25.8572 16.9558C27.8414 16.1456 29.9662 15.7359 32.1094 15.7504H32.2344C36.5429 15.7545 40.6737 17.4679 43.7203 20.5145C46.7669 23.561 48.4802 27.6919 48.4844 32.0004Z" fill="white"/>
</svg>
