<svg width="53" height="37" viewBox="0 0 53 37" fill="none" xmlns="http://www.w3.org/2000/svg">
<path d="M3 33H51V34.75C51 35.2141 50.6839 35.6592 50.1213 35.9874C49.5587 36.3156 48.7957 36.5 48 36.5H6C5.20435 36.5 4.44129 36.3156 3.87868 35.9874C3.31607 35.6592 3 35.2141 3 34.75V33Z" fill="black"/>
<path fill-rule="evenodd" clip-rule="evenodd" d="M3.24279 28.6497H26.47H26.472H50.8236C51.1264 28.6497 51.3767 28.4139 51.3948 28.1117L52.9989 1.35988C53.0289 0.85943 52.4465 0.565084 52.0614 0.886037L36.4114 13.9277C36.1463 14.1486 35.7475 14.0864 35.5623 13.7953L26.9918 0.327389C26.949 0.235082 26.8828 0.160008 26.8034 0.105149C26.7034 0.0322931 26.5867 -0.00103179 26.471 2.42762e-05C26.3552 -0.00103102 26.2385 0.0322926 26.1386 0.105149C26.0592 0.160008 25.9929 0.235083 25.9502 0.327389L17.3797 13.7953C17.1944 14.0864 16.7956 14.1486 16.5306 13.9277L0.938782 0.934538C0.545237 0.606584 -0.0478939 0.921328 0.00307994 1.43107L2.67341 28.1344C2.70266 28.4269 2.94881 28.6497 3.24279 28.6497Z" fill="#3DB249"/>
</svg>
