<svg width="47" height="54" viewBox="0 0 47 54" fill="none" xmlns="http://www.w3.org/2000/svg">
<path fill-rule="evenodd" clip-rule="evenodd" d="M1 21.8346C1 20.0286 2.4641 18.5645 4.27017 18.5645H12.7721C13.6751 18.5645 14.4072 19.2965 14.4072 20.1995C14.4072 21.1026 13.6751 21.8346 12.7721 21.8346H4.27017V49.73L43.4985 49.73V21.8346H34.509C33.6059 21.8346 32.8739 21.1026 32.8739 20.1995C32.8739 19.2965 33.6059 18.5645 34.509 18.5645H43.4985C45.3046 18.5645 46.7687 20.0286 46.7687 21.8346V49.73C46.7687 51.5361 45.3046 53.0002 43.4985 53.0002H4.27017C2.4641 53.0002 1 51.5361 1 49.73V21.8346Z" fill="#161922" stroke="black" stroke-width="0.1" stroke-linecap="round"/>
<path fill-rule="evenodd" clip-rule="evenodd" d="M23.9109 3.51018C24.8139 3.50622 25.5492 4.23505 25.5532 5.13807L25.6659 30.8178C25.6699 31.7208 24.9411 32.4561 24.038 32.46C23.135 32.464 22.3998 31.7352 22.3958 30.8321L22.283 5.15243C22.279 4.24941 23.0079 3.51415 23.9109 3.51018Z" fill="#3DB249"/>
<path fill-rule="evenodd" clip-rule="evenodd" d="M14.8984 11.3329C14.2598 10.6944 14.2598 9.65912 14.8984 9.02058L22.1846 1.73439C23.1424 0.776582 24.6953 0.776579 25.6531 1.73439L33.2149 9.29618C33.8534 9.93472 33.8534 10.97 33.2149 11.6085C32.5763 12.2471 31.5411 12.2471 30.9025 11.6085L23.9188 4.62484L17.2107 11.3329C16.5722 11.9715 15.5369 11.9715 14.8984 11.3329Z" fill="#3DB249"/>
</svg>
