<svg width="40" height="54" viewBox="0 0 40 54" fill="none" xmlns="http://www.w3.org/2000/svg">
<path d="M7.67537 36.5636C5.2943 34.6704 3.36583 32.2478 2.03606 29.4795C0.706284 26.7112 0.0100883 23.6697 0.000213834 20.5855C-0.0497872 9.49033 8.67539 0.261396 19.5256 0.00574683C23.7249 -0.0960466 27.8489 1.15669 31.3127 3.58628C34.7766 6.01587 37.4045 9.49899 38.8238 13.5416C40.243 17.5843 40.3815 21.9813 39.2197 26.1089C38.0579 30.2366 35.6546 33.8855 32.3509 36.538C31.6211 37.1149 31.0299 37.8547 30.6226 38.701C30.2153 39.5473 30.0026 40.4777 30.0008 41.4209V42.9548C30.0008 43.4972 29.7901 44.0174 29.415 44.401C29.0399 44.7845 28.5312 45 28.0008 45H12.0005C11.47 45 10.9613 44.7845 10.5862 44.401C10.2111 44.0174 10.0004 43.4972 10.0004 42.9548V41.4209C9.99416 40.4848 9.78191 39.562 9.37943 38.7212C8.97694 37.8803 8.39452 37.1429 7.67537 36.5636Z" fill="#3DB249"/>
<path fill-rule="evenodd" clip-rule="evenodd" d="M7 51.5059C7 50.5394 7.7835 49.7559 8.75 49.7559H32.0833C33.0498 49.7559 33.8333 50.5394 33.8333 51.5059C33.8333 52.4724 33.0498 53.2559 32.0833 53.2559H8.75C7.7835 53.2559 7 52.4724 7 51.5059Z" fill="black"/>
<path fill-rule="evenodd" clip-rule="evenodd" d="M19.8111 28.4688C20.9053 28.4688 21.7922 29.3557 21.7922 30.4498V42.3362C21.7922 43.4303 20.9053 44.3173 19.8111 44.3173C18.717 44.3173 17.8301 43.4303 17.8301 42.3362V30.4498C17.8301 29.3557 18.717 28.4688 19.8111 28.4688Z" fill="black"/>
<path fill-rule="evenodd" clip-rule="evenodd" d="M10.486 21.1242C11.2597 20.3505 12.514 20.3505 13.2876 21.1242L19.8111 27.6476L26.3345 21.1242C27.1082 20.3505 28.3625 20.3505 29.1361 21.1242C29.9098 21.8978 29.9098 23.1522 29.1361 23.9258L21.2119 31.8501C20.4382 32.6237 19.1839 32.6237 18.4103 31.8501L10.486 23.9258C9.71235 23.1522 9.71235 21.8978 10.486 21.1242Z" fill="black"/>
</svg>
