<svg width="54" height="52" viewBox="0 0 54 52" fill="none" xmlns="http://www.w3.org/2000/svg">
<path d="M41.5495 22.0236C35.4777 22.0236 30.5377 17.0841 30.5377 11.0118C30.5377 4.93952 35.4777 0 41.5495 0C47.6214 0 52.5614 4.93952 52.5614 11.0118C52.5614 17.0841 47.6214 22.0236 41.5495 22.0236Z" fill="#3DB249"/>
<path d="M45.9232 10.7345H42.1192V6.93048C42.1192 6.69705 41.93 6.50781 41.6966 6.50781C41.4631 6.50781 41.2739 6.69705 41.2739 6.93048V10.7345H37.4699C37.2365 10.7345 37.0472 10.9237 37.0472 11.1571C37.0472 11.3906 37.2365 11.5798 37.4699 11.5798H41.2739V15.3838C41.2739 15.6172 41.4631 15.8065 41.6966 15.8065C41.93 15.8065 42.1192 15.6172 42.1192 15.3838V11.5798H45.9232C46.1567 11.5798 46.3459 11.3906 46.3459 11.1571C46.3459 10.9237 46.1567 10.7345 45.9232 10.7345Z" fill="white" stroke="white"/>
<path d="M1.42803 50.3451C1.21796 50.1355 1.09935 49.8513 1.09808 49.5545L1.00002 30.0611C0.998091 29.7607 1.11621 29.472 1.32813 29.2592C1.54006 29.0464 1.82823 28.9271 2.12858 28.9277L22.9467 28.9445C23.5684 28.9455 24.072 29.4497 24.072 30.0714V49.1991C24.0726 49.8143 23.5793 50.3161 22.9642 50.326L2.24414 50.6753C1.99312 50.6794 1.74938 50.5998 1.55046 50.4512L1.42803 50.3451Z" fill="white" stroke="#161922" stroke-width="2"/>
<path d="M1.42803 22.4487C1.21796 22.239 1.09935 21.9548 1.09808 21.6581L1.00002 2.16457C0.998091 1.86423 1.11621 1.57556 1.32813 1.36273C1.54006 1.1499 1.82823 1.03057 2.12858 1.03125L22.9467 1.04799C23.5684 1.04897 24.072 1.5532 24.072 2.17493V21.3026C24.0726 21.9178 23.5793 22.4196 22.9642 22.4295L2.24414 22.7788C1.99312 22.7829 1.74938 22.7033 1.55046 22.5547L1.42803 22.4487Z" fill="white" stroke="#161922" stroke-width="2"/>
<path d="M30.3552 50.3451C30.1451 50.1355 30.0265 49.8513 30.0252 49.5545L29.9271 30.0611C29.9252 29.7607 30.0433 29.472 30.2553 29.2592C30.4672 29.0464 30.7554 28.9271 31.0557 28.9277L51.8738 28.9445C52.4955 28.9455 52.9991 29.4497 52.9991 30.0714V49.1991C52.9997 49.8143 52.5064 50.3161 51.8913 50.326L31.1713 50.6753C30.9202 50.6794 30.6765 50.5998 30.4776 50.4512L30.3552 50.3451Z" fill="white" stroke="#161922" stroke-width="2"/>
<path d="M36.6454 33.5727H45.944" stroke="#161922" stroke-width="1.8" stroke-linecap="round"/>
<path d="M8.75085 5.68404H18.0495" stroke="#161922" stroke-width="1.8" stroke-linecap="round"/>
<path d="M7.71643 33.5727H17.0151" stroke="#161922" stroke-width="1.8" stroke-linecap="round"/>
</svg>
