<svg width="56" height="56" viewBox="0 0 56 56" fill="none" xmlns="http://www.w3.org/2000/svg">
<path d="M28 54C42.3594 54 54 42.3594 54 28C54 13.6406 42.3594 2 28 2C13.6406 2 2 13.6406 2 28C2 42.3594 13.6406 54 28 54Z" fill="#3DB249" stroke="white" stroke-width="3" stroke-miterlimit="10"/>
<path d="M3.48962 19.334H52.5105" stroke="white" stroke-width="3" stroke-linecap="round" stroke-linejoin="round"/>
<path d="M3.48962 36.666H52.5105" stroke="white" stroke-width="3" stroke-linecap="round" stroke-linejoin="round"/>
<path d="M28 53.3026C33.983 53.3026 38.8333 41.9773 38.8333 28.0068C38.8333 14.0363 33.983 2.71094 28 2.71094C22.0169 2.71094 17.1666 14.0363 17.1666 28.0068C17.1666 41.9773 22.0169 53.3026 28 53.3026Z" stroke="white" stroke-width="3" stroke-miterlimit="10"/>
</svg>
