<svg width="65" height="49" viewBox="0 0 65 49" fill="none" xmlns="http://www.w3.org/2000/svg">
<path d="M1.03998 1.03906H50.96V36.3991C50.96 36.9507 50.7408 37.4798 50.3507 37.8698C49.9607 38.2599 49.4316 38.4791 48.88 38.4791H3.11998C2.56833 38.4791 2.03927 38.2599 1.6492 37.8698C1.25912 37.4798 1.03998 36.9507 1.03998 36.3991V1.03906Z" fill="#3DB249"/>
<path fill-rule="evenodd" clip-rule="evenodd" d="M0.273366 0.337252C0.661486 -0.0861513 1.31936 -0.114754 1.74276 0.273366L26 22.5092L50.2572 0.273366C50.6806 -0.114754 51.3385 -0.0861513 51.7266 0.337252C52.1148 0.760656 52.0862 1.41853 51.6627 1.80665L26.7028 24.6866C26.3051 25.0511 25.6949 25.0511 25.2972 24.6866L0.337252 1.80665C-0.0861512 1.41853 -0.114754 0.760656 0.273366 0.337252Z" fill="white"/>
<path fill-rule="evenodd" clip-rule="evenodd" d="M22.2165 19.0578C22.6047 19.4811 22.5763 20.139 22.153 20.5272L2.39297 38.6492C1.96966 39.0374 1.31178 39.009 0.923558 38.5856C0.535337 38.1623 0.563783 37.5045 0.987094 37.1162L20.7471 18.9942C21.1704 18.606 21.8283 18.6345 22.2165 19.0578Z" fill="white"/>
<path fill-rule="evenodd" clip-rule="evenodd" d="M29.7835 19.0578C30.1718 18.6345 30.8296 18.606 31.253 18.9942L51.0129 37.1162C51.4363 37.5045 51.4647 38.1623 51.0765 38.5856C50.6883 39.009 50.0304 39.0374 49.6071 38.6492L29.8471 20.5272C29.4238 20.139 29.3953 19.4811 29.7835 19.0578Z" fill="white"/>
<path d="M49.268 26.0003L38.268 45.0003C38.0927 45.3038 38.0003 45.6481 38 45.9986C37.9997 46.349 38.0915 46.6934 38.2662 46.9973C38.4409 47.3011 38.6924 47.5537 38.9954 47.7297C39.2985 47.9058 39.6425 47.9991 39.993 48.0003H61.993C62.3434 47.9991 62.6874 47.9058 62.9905 47.7297C63.2935 47.5537 63.545 47.3011 63.7197 46.9973C63.8944 46.6934 63.9862 46.349 63.9859 45.9986C63.9856 45.6481 63.8932 45.3038 63.718 45.0003L52.718 26.0003C52.544 25.6964 52.2929 25.4438 51.99 25.2682C51.6871 25.0925 51.3431 25 50.993 25C50.6428 25 50.2988 25.0925 49.9959 25.2682C49.693 25.4438 49.4419 25.6964 49.268 26.0003Z" fill="white" stroke="black" stroke-width="1.5" stroke-linecap="round" stroke-linejoin="round"/>
<path d="M50.9922 34V39" stroke="black" stroke-width="1.7" stroke-linecap="round" stroke-linejoin="round"/>
<path d="M50.9922 45C51.8206 45 52.4922 44.3284 52.4922 43.5C52.4922 42.6716 51.8206 42 50.9922 42C50.1638 42 49.4922 42.6716 49.4922 43.5C49.4922 44.3284 50.1638 45 50.9922 45Z" fill="black"/>
</svg>
