<svg width="52" height="52" viewBox="0 0 52 52" fill="none" xmlns="http://www.w3.org/2000/svg">
<path d="M26 0C40.3 0 52 11.7 52 26C52 40.3 40.3 52 26 52C11.7 52 0 40.3 0 26C0 11.7 11.7 0 26 0ZM33.592 28.106C30.784 28.106 28.47 30.056 27.846 32.656C26.442 32.058 25.116 32.214 24.154 32.63C23.53 30.03 21.19 28.106 18.408 28.106C15.158 28.106 12.532 30.732 12.532 33.982C12.532 37.232 15.158 39.858 18.408 39.858C21.528 39.858 24.024 37.492 24.258 34.45C24.778 34.112 26.104 33.436 27.742 34.476C27.8516 35.9988 28.5502 37.4191 29.6895 38.4354C30.8289 39.4518 32.3193 39.9843 33.8448 39.9201C35.3702 39.8558 36.8106 39.1998 37.8604 38.0912C38.9102 36.9826 39.4868 35.5087 39.468 33.982C39.468 30.732 36.842 28.106 33.592 28.106ZM18.408 29.77C20.8 29.77 22.62 31.668 22.62 33.982C22.62 36.296 20.8 38.194 18.408 38.194C16.094 38.194 14.196 36.296 14.196 33.982C14.196 31.668 16.094 29.77 18.408 29.77ZM33.592 29.77C35.906 29.77 37.804 31.668 37.804 33.982C37.804 36.296 35.906 38.194 33.592 38.194C31.2 38.194 29.38 36.296 29.38 33.982C29.38 31.668 31.2 29.77 33.592 29.77ZM41.158 24.7H10.842V26.442H41.158V24.7ZM31.59 12.714C31.4129 12.3347 31.1055 12.0316 30.7238 11.8598C30.3421 11.688 29.9113 11.659 29.51 11.778L26 13L22.49 11.778L22.386 11.7C21.9768 11.6121 21.5497 11.6739 21.1823 11.8743C20.8149 12.0748 20.5316 12.4004 20.384 12.792L16.536 22.958H35.464L31.616 12.792L31.59 12.714Z" fill="#3DB249"/>
</svg>
