<svg width="58" height="58" viewBox="0 0 58 58" fill="none" xmlns="http://www.w3.org/2000/svg">
<path d="M29 39.8327C34.983 39.8327 39.8333 34.9824 39.8333 28.9993C39.8333 23.0163 34.983 18.166 29 18.166C23.0169 18.166 18.1666 23.0163 18.1666 28.9993C18.1666 34.9824 23.0169 39.8327 29 39.8327Z" stroke="#3DB249" stroke-width="4.5" stroke-linecap="round" stroke-linejoin="round"/>
<path d="M43.3813 50.6605C38.5553 53.8647 32.7975 55.3654 27.0215 54.9246C21.2454 54.4838 15.7821 52.1266 11.4982 48.2272C7.21438 44.3278 4.35546 39.1095 3.37509 33.4002C2.39472 27.691 3.34905 21.8178 6.08667 16.7127C8.82428 11.6076 13.1884 7.56294 18.4865 5.22051C23.7845 2.87808 29.7132 2.37206 35.3316 3.78273C40.95 5.19341 45.9364 8.43998 49.4996 13.0073C53.0628 17.5746 54.9986 23.2011 55 28.9939C55 34.9793 52.8333 39.8272 47.4167 39.8272C42 39.8272 39.8333 34.9793 39.8333 28.9939V18.1606" stroke="#3DB249" stroke-width="4.5" stroke-linecap="round" stroke-linejoin="round"/>
</svg>
