<svg width="33" height="37" viewBox="0 0 33 37" fill="none" xmlns="http://www.w3.org/2000/svg">
<path fill-rule="evenodd" clip-rule="evenodd" d="M26.3407 11.4497H6.25939C6.42471 9.96662 6.91663 8.53857 7.69978 7.26826C8.48292 5.99796 9.53782 4.91698 10.7886 4.10306L9.22837 2.02084C9.04975 1.78268 8.97305 1.48331 9.01515 1.1886C9.05725 0.893893 9.21471 0.627977 9.45287 0.449356C9.69103 0.270734 9.99039 0.194038 10.2851 0.23614C10.5798 0.278241 10.8457 0.435692 11.0244 0.673854L12.7081 2.91883C12.7485 2.97271 12.7833 3.02996 12.8125 3.0872C13.9295 2.67723 15.1102 2.46822 16.3 2.46984C17.5258 2.46984 18.6999 2.6876 19.7876 3.0872C19.8168 3.02996 19.8516 2.97271 19.892 2.91883L21.5757 0.673854C21.7544 0.435692 22.0203 0.278241 22.315 0.23614C22.6097 0.194038 22.9091 0.270734 23.1472 0.449356C23.3854 0.627977 23.5428 0.893893 23.5849 1.1886C23.627 1.48331 23.5504 1.78268 23.3717 2.02084L21.8103 4.10306C23.0614 4.91686 24.1165 5.99779 24.8998 7.2681C25.6832 8.53841 26.1753 9.96653 26.3407 11.4497ZM26.4024 12.5722V27.1646C26.4024 27.76 26.1659 28.331 25.7449 28.752C25.3239 29.173 24.7529 29.4096 24.1575 29.4096H21.9125V33.8995C21.9125 34.4949 21.676 35.0659 21.255 35.487C20.8339 35.908 20.2629 36.1445 19.6675 36.1445C19.0721 36.1445 18.5011 35.908 18.0801 35.487C17.6591 35.0659 17.4225 34.4949 17.4225 33.8995V29.4096H15.1776V33.8995C15.1776 34.4949 14.941 35.0659 14.52 35.487C14.099 35.908 13.528 36.1445 12.9326 36.1445C12.3372 36.1445 11.7662 35.908 11.3451 35.487C10.9241 35.0659 10.6876 34.4949 10.6876 33.8995V29.4096H8.44263C7.84722 29.4096 7.2762 29.173 6.85519 28.752C6.43417 28.331 6.19765 27.76 6.19765 27.1646V12.5722H26.4024ZM29.7699 12.5722C30.3653 12.5722 30.9363 12.8088 31.3574 13.2298C31.7784 13.6508 32.0149 14.2218 32.0149 14.8172V23.7971C32.0149 24.3925 31.7784 24.9635 31.3574 25.3846C30.9363 25.8056 30.3653 26.0421 29.7699 26.0421C29.1745 26.0421 28.6035 25.8056 28.1825 25.3846C27.7615 24.9635 27.5249 24.3925 27.5249 23.7971V14.8172C27.5249 14.2218 27.7615 13.6508 28.1825 13.2298C28.6035 12.8088 29.1745 12.5722 29.7699 12.5722ZM2.83018 12.5722C3.42559 12.5722 3.99661 12.8088 4.41762 13.2298C4.83864 13.6508 5.07516 14.2218 5.07516 14.8172V23.7971C5.07516 24.3925 4.83864 24.9635 4.41762 25.3846C3.99661 25.8056 3.42559 26.0421 2.83018 26.0421C2.23478 26.0421 1.66376 25.8056 1.24274 25.3846C0.821729 24.9635 0.585205 24.3925 0.585205 23.7971V14.8172C0.585205 14.2218 0.821729 13.6508 1.24274 13.2298C1.66376 12.8088 2.23478 12.5722 2.83018 12.5722ZM11.8101 8.64353C12.1078 8.64353 12.3933 8.52526 12.6038 8.31476C12.8143 8.10425 12.9326 7.81874 12.9326 7.52104C12.9326 7.22333 12.8143 6.93782 12.6038 6.72732C12.3933 6.51681 12.1078 6.39855 11.8101 6.39855C11.5124 6.39855 11.2269 6.51681 11.0164 6.72732C10.8059 6.93782 10.6876 7.22333 10.6876 7.52104C10.6876 7.81874 10.8059 8.10425 11.0164 8.31476C11.2269 8.52526 11.5124 8.64353 11.8101 8.64353ZM20.79 8.64353C21.0877 8.64353 21.3732 8.52526 21.5837 8.31476C21.7942 8.10425 21.9125 7.81874 21.9125 7.52104C21.9125 7.22333 21.7942 6.93782 21.5837 6.72732C21.3732 6.51681 21.0877 6.39855 20.79 6.39855C20.4923 6.39855 20.2068 6.51681 19.9963 6.72732C19.7858 6.93782 19.6675 7.22333 19.6675 7.52104C19.6675 7.81874 19.7858 8.10425 19.9963 8.31476C20.2068 8.52526 20.4923 8.64353 20.79 8.64353Z" fill="#717171"/>
</svg>
