<svg width="108" height="108" viewBox="0 0 108 108" fill="none" xmlns="http://www.w3.org/2000/svg">
<path fill-rule="evenodd" clip-rule="evenodd" d="M59.0622 -23.625L-30.3753 65.8124L-31.5685 64.6192L57.869 -24.8183L59.0622 -23.625ZM-65.8126 75.9374L23.6249 -13.5L22.4317 -14.6933L-67.0058 74.7442L-65.8126 75.9374ZM-59.0626 81.0001L30.3749 -8.43743L29.1817 -9.63068L-60.2558 79.8068L-59.0626 81.0001ZM5.06222 120.098L121.786 3.37488L120.593 2.18164L3.86897 118.905L5.06222 120.098ZM64.1247 -13.5L-25.3128 75.9374L-26.506 74.7442L62.9315 -14.6933L64.1247 -13.5ZM-16.8753 103.223L99.8483 -13.5001L98.655 -14.6934L-18.0685 102.03L-16.8753 103.223ZM133.598 11.8124L16.8747 128.536L15.6815 127.343L132.405 10.6191L133.598 11.8124ZM10.1247 175.786L126.848 59.0624L125.655 57.8691L8.93147 174.593L10.1247 175.786ZM74.2497 -6.75005L-15.1878 82.6874L-16.381 81.4942L73.0565 -7.94329L74.2497 -6.75005ZM-3.37528 109.973L113.348 -6.75012L112.155 -7.94336L-4.56852 108.78L-3.37528 109.973ZM143.723 23.6249L26.9997 140.348L25.8065 139.155L142.53 22.4316L143.723 23.6249ZM21.9374 180.848L138.661 64.1249L137.468 62.9316L20.7441 179.655L21.9374 180.848Z" fill="url(#paint0_linear_112_12634)"/>
<defs>
<linearGradient id="paint0_linear_112_12634" x1="-65.975" y1="76.2962" x2="113.17" y2="1.9196" gradientUnits="userSpaceOnUse">
<stop stop-color="#34E98D"/>
<stop offset="1" stop-color="#4C9AFF"/>
</linearGradient>
</defs>
</svg>
