<svg width="51" height="59" viewBox="0 0 51 59" fill="none" xmlns="http://www.w3.org/2000/svg">
<path fill-rule="evenodd" clip-rule="evenodd" d="M48.8265 13.8653L50.2063 10.4752C50.2063 10.4752 48.4509 8.5912 46.3186 6.45663C44.1867 4.32162 39.6714 5.57761 39.6714 5.57761L34.5295 -0.263306H16.4703L11.3284 5.57761C11.3284 5.57761 6.81364 4.32206 4.68175 6.45663C2.54941 8.59165 0.793606 10.4743 0.793606 10.4743L2.17333 13.8644L0.417969 18.8875C0.417969 18.8875 5.58086 38.4707 6.18608 40.8625C7.37732 45.5716 8.19246 47.3922 11.579 49.7778C14.9647 52.1638 21.1102 56.3079 22.1134 56.9355C23.1166 57.5635 24.3708 58.6328 25.4995 58.6328C26.6282 58.6328 27.8824 57.5635 28.8856 56.9355C29.8892 56.3075 36.0343 52.1638 39.4204 49.7778C42.8065 47.3922 43.6217 45.5716 44.8129 40.8625C45.4181 38.4711 50.5819 18.888 50.5819 18.888L48.8265 13.8653Z" fill="url(#paint0_linear_116_14517)"/>
<path fill-rule="evenodd" clip-rule="evenodd" d="M38.2291 9.28173C38.2291 9.28173 44.8432 17.2867 44.8432 18.9978C44.8432 20.7085 44.0111 21.1601 43.1745 22.0498L38.2157 27.3222C37.7467 27.8211 36.7694 28.5773 37.3443 29.9387C37.9187 31.3001 38.766 33.0322 37.8235 34.7894C36.8811 36.5461 35.2664 37.719 34.232 37.5251C33.1971 37.3308 30.7673 36.0596 29.8735 35.479C28.9802 34.8983 26.1484 32.5592 26.1484 31.6646C26.1484 30.7699 29.0758 29.1633 29.6162 28.7984C30.1576 28.4334 32.6245 27.0207 32.6749 26.4664C32.7254 25.9116 32.7062 25.749 31.9782 24.3787C31.2501 23.0084 29.9387 21.1797 30.1571 19.9631C30.3756 18.7468 32.49 18.1139 33.9984 17.5435C35.5076 16.9731 38.4127 15.8954 38.7754 15.7279C39.1385 15.5604 39.0447 15.4009 37.945 15.2964C36.8463 15.1919 33.7264 14.7774 32.3199 15.17C30.9129 15.5626 28.5103 16.1598 28.3156 16.4765C28.1213 16.7931 27.9493 16.8039 28.1494 17.8964C28.3491 18.9885 29.3782 24.2309 29.4782 25.1617C29.5778 26.093 29.773 26.7085 28.7707 26.938C27.768 27.1676 26.0801 27.566 25.4999 27.566C24.9201 27.566 23.2317 27.1676 22.229 26.938C21.2263 26.7085 21.4219 26.093 21.5219 25.1617C21.6216 24.2309 22.6506 18.9889 22.8507 17.8964C23.0504 16.8039 22.8789 16.7931 22.6841 16.476C22.4894 16.1598 20.0864 15.5626 18.6799 15.17C17.2734 14.7774 14.1539 15.1923 13.0547 15.2964C11.955 15.4009 11.8612 15.5599 12.2239 15.7279C12.587 15.8954 15.4925 16.9731 17.0013 17.5435C18.5101 18.1139 20.6246 18.7468 20.8426 19.9631C21.061 21.1797 19.7496 23.0084 19.022 24.3787C18.294 25.749 18.2748 25.9116 18.3252 26.4664C18.3757 27.0207 20.8426 28.4334 21.3835 28.7984C21.9239 29.1633 24.8518 30.7699 24.8518 31.6646C24.8518 32.5592 22.02 34.8983 21.1262 35.479C20.2329 36.0596 17.8031 37.3308 16.7682 37.5247C15.7333 37.719 14.1186 36.5465 13.1762 34.7894C12.2337 33.0322 13.081 31.3001 13.6554 29.9387C14.2303 28.5773 13.2535 27.8211 12.7845 27.3222L7.82524 22.0498C6.98866 21.1601 6.15698 20.7085 6.15698 18.9978C6.15698 17.2871 12.7706 9.28173 12.7706 9.28173C12.7706 9.28173 18.3516 10.3492 19.1042 10.3492C19.8564 10.3492 21.4867 9.72124 22.9919 9.2192C24.4967 8.71671 25.4999 8.71313 25.4999 8.71313C25.4999 8.71313 26.5031 8.71671 28.0083 9.2192C29.5135 9.72124 31.1438 10.3492 31.896 10.3492C32.6486 10.3492 38.2291 9.28173 38.2291 9.28173ZM33.2712 39.9027C33.6804 40.1595 33.4307 40.6432 33.0582 40.9072C32.6852 41.1707 27.6733 45.0566 27.1869 45.4863C26.7005 45.916 25.9858 46.6253 25.4999 46.6253C25.0139 46.6253 24.2993 45.916 23.8128 45.4863C23.326 45.0566 18.3145 41.1712 17.942 40.9072C17.569 40.6432 17.3194 40.1595 17.7285 39.9027C18.1381 39.6463 19.4191 38.9986 21.1865 38.083C22.9535 37.1673 25.1564 36.3888 25.4999 36.3888C25.8438 36.3888 28.0458 37.1673 29.8137 38.083C31.5811 38.9986 32.8616 39.6463 33.2712 39.9027Z" fill="white"/>
<path d="M39.6713 5.57761L34.5294 -0.263306H16.4702L11.3283 5.57761C11.3283 5.57761 6.81353 4.32206 4.68164 6.45663C4.68164 6.45663 10.7012 5.91261 12.7706 9.28173C12.7706 9.28173 18.3515 10.3492 19.1042 10.3492C19.8563 10.3492 21.4866 9.72124 22.9919 9.2192C24.4966 8.71671 25.4998 8.71314 25.4998 8.71314C25.4998 8.71314 26.503 8.71671 28.0082 9.2192C29.5135 9.72124 31.1438 10.3492 31.8959 10.3492C32.6486 10.3492 38.2295 9.28173 38.2295 9.28173C40.2984 5.91261 46.3185 6.45663 46.3185 6.45663C44.1866 4.32162 39.6713 5.57761 39.6713 5.57761Z" fill="url(#paint1_linear_116_14517)"/>
<defs>
<linearGradient id="paint0_linear_116_14517" x1="0.417969" y1="2986.12" x2="5016.81" y2="2986.12" gradientUnits="userSpaceOnUse">
<stop stop-color="#FF5500"/>
<stop offset="0.40988" stop-color="#FF5500"/>
<stop offset="0.58198" stop-color="#FF2000"/>
<stop offset="1" stop-color="#FF2000"/>
</linearGradient>
<linearGradient id="paint1_linear_116_14517" x1="94.1175" y1="537.856" x2="4168.36" y2="537.856" gradientUnits="userSpaceOnUse">
<stop stop-color="#FF452A"/>
<stop offset="1" stop-color="#FF2000"/>
</linearGradient>
</defs>
</svg>
