<svg width="18" height="18" viewBox="0 0 18 18" fill="none" xmlns="http://www.w3.org/2000/svg">
<path d="M2.32609 8.29549C2.19709 8.16649 2.12462 7.99152 2.12462 7.80908C2.12462 7.62664 2.19709 7.45168 2.32609 7.32268C2.4551 7.19367 2.63006 7.1212 2.8125 7.1212C2.99494 7.1212 3.1699 7.19367 3.29891 7.32268L8.3125 12.3371V0.934082C8.3125 0.751746 8.38493 0.576877 8.51386 0.447946C8.6428 0.319015 8.81766 0.246582 9 0.246582C9.18234 0.246582 9.35721 0.319015 9.48614 0.447946C9.61507 0.576877 9.6875 0.751746 9.6875 0.934082V12.3371L14.7011 7.32268C14.765 7.2588 14.8408 7.20813 14.9243 7.17356C15.0077 7.13899 15.0972 7.1212 15.1875 7.1212C15.2778 7.1212 15.3673 7.13899 15.4507 7.17356C15.5342 7.20813 15.61 7.2588 15.6739 7.32268C15.7378 7.38655 15.7885 7.46238 15.823 7.54584C15.8576 7.6293 15.8754 7.71875 15.8754 7.80908C15.8754 7.89942 15.8576 7.98887 15.823 8.07232C15.7885 8.15578 15.7378 8.23161 15.6739 8.29549L9.48641 14.483C9.42256 14.5469 9.34673 14.5976 9.26327 14.6322C9.17981 14.6668 9.09035 14.6846 9 14.6846C8.90965 14.6846 8.82019 14.6668 8.73673 14.6322C8.65327 14.5976 8.57744 14.5469 8.51359 14.483L2.32609 8.29549ZM16.5625 16.0591H1.4375C1.25516 16.0591 1.0803 16.1315 0.951364 16.2604C0.822433 16.3894 0.75 16.5642 0.75 16.7466C0.75 16.9289 0.822433 17.1038 0.951364 17.2327C1.0803 17.3617 1.25516 17.4341 1.4375 17.4341H16.5625C16.7448 17.4341 16.9197 17.3617 17.0486 17.2327C17.1776 17.1038 17.25 16.9289 17.25 16.7466C17.25 16.5642 17.1776 16.3894 17.0486 16.2604C16.9197 16.1315 16.7448 16.0591 16.5625 16.0591Z" fill="white"/>
</svg>
