<svg width="18" height="19" viewBox="0 0 18 19" fill="none" xmlns="http://www.w3.org/2000/svg">
<path opacity="0.3" d="M2.32609 8.91826C2.19709 8.78926 2.12462 8.61429 2.12462 8.43185C2.12462 8.24942 2.19709 8.07445 2.32609 7.94545C2.4551 7.81644 2.63006 7.74397 2.8125 7.74397C2.99494 7.74397 3.1699 7.81644 3.29891 7.94545L8.3125 12.9599V1.55685C8.3125 1.37452 8.38493 1.19965 8.51386 1.07072C8.6428 0.941787 8.81766 0.869354 9 0.869354C9.18234 0.869354 9.35721 0.941787 9.48614 1.07072C9.61507 1.19965 9.6875 1.37452 9.6875 1.55685V12.9599L14.7011 7.94545C14.765 7.88157 14.8408 7.8309 14.9243 7.79633C15.0077 7.76176 15.0972 7.74397 15.1875 7.74397C15.2778 7.74397 15.3673 7.76176 15.4507 7.79633C15.5342 7.8309 15.61 7.88157 15.6739 7.94545C15.7378 8.00932 15.7885 8.08516 15.823 8.16861C15.8576 8.25207 15.8754 8.34152 15.8754 8.43185C15.8754 8.52219 15.8576 8.61164 15.823 8.6951C15.7885 8.77855 15.7378 8.85438 15.6739 8.91826L9.48641 15.1058C9.42256 15.1697 9.34673 15.2204 9.26327 15.255C9.17981 15.2896 9.09035 15.3074 9 15.3074C8.90965 15.3074 8.82019 15.2896 8.73673 15.255C8.65327 15.2204 8.57744 15.1697 8.51359 15.1058L2.32609 8.91826ZM16.5625 16.6819H1.4375C1.25516 16.6819 1.0803 16.7543 0.951364 16.8832C0.822433 17.0121 0.75 17.187 0.75 17.3694C0.75 17.5517 0.822433 17.7266 0.951364 17.8555C1.0803 17.9844 1.25516 18.0569 1.4375 18.0569H16.5625C16.7448 18.0569 16.9197 17.9844 17.0486 17.8555C17.1776 17.7266 17.25 17.5517 17.25 17.3694C17.25 17.187 17.1776 17.0121 17.0486 16.8832C16.9197 16.7543 16.7448 16.6819 16.5625 16.6819Z" fill="#606060"/>
</svg>
