<svg width="18" height="18" viewBox="0 0 18 18" fill="none" xmlns="http://www.w3.org/2000/svg">
<path opacity="0.3" d="M2.32609 8.64363C2.19709 8.51463 2.12462 8.33966 2.12462 8.15723C2.12462 7.97479 2.19709 7.79982 2.32609 7.67082C2.4551 7.54182 2.63006 7.46934 2.8125 7.46934C2.99494 7.46934 3.1699 7.54182 3.29891 7.67082L8.3125 12.6853V1.28223C8.3125 1.09989 8.38493 0.925022 8.51386 0.796091C8.6428 0.667159 8.81766 0.594727 9 0.594727C9.18234 0.594727 9.35721 0.667159 9.48614 0.796091C9.61507 0.925022 9.6875 1.09989 9.6875 1.28223V12.6853L14.7011 7.67082C14.765 7.60694 14.8408 7.55628 14.9243 7.52171C15.0077 7.48714 15.0972 7.46934 15.1875 7.46934C15.2778 7.46934 15.3673 7.48714 15.4507 7.52171C15.5342 7.55628 15.61 7.60694 15.6739 7.67082C15.7378 7.7347 15.7885 7.81053 15.823 7.89399C15.8576 7.97744 15.8754 8.06689 15.8754 8.15723C15.8754 8.24756 15.8576 8.33701 15.823 8.42047C15.7885 8.50393 15.7378 8.57976 15.6739 8.64363L9.48641 14.8311C9.42256 14.8951 9.34673 14.9458 9.26327 14.9804C9.17981 15.015 9.09035 15.0328 9 15.0328C8.90965 15.0328 8.82019 15.015 8.73673 14.9804C8.65327 14.9458 8.57744 14.8951 8.51359 14.8311L2.32609 8.64363ZM16.5625 16.4072H1.4375C1.25516 16.4072 1.0803 16.4797 0.951364 16.6086C0.822433 16.7375 0.75 16.9124 0.75 17.0947C0.75 17.2771 0.822433 17.4519 0.951364 17.5809C1.0803 17.7098 1.25516 17.7822 1.4375 17.7822H16.5625C16.7448 17.7822 16.9197 17.7098 17.0486 17.5809C17.1776 17.4519 17.25 17.2771 17.25 17.0947C17.25 16.9124 17.1776 16.7375 17.0486 16.6086C16.9197 16.4797 16.7448 16.4072 16.5625 16.4072Z" fill="#606060"/>
</svg>
