<svg width="18" height="18" viewBox="0 0 18 18" fill="none" xmlns="http://www.w3.org/2000/svg">
<path d="M2.32609 8.61142C2.19709 8.48242 2.12462 8.30745 2.12462 8.12502C2.12462 7.94258 2.19709 7.76761 2.32609 7.63861C2.4551 7.50961 2.63006 7.43713 2.8125 7.43713C2.99494 7.43713 3.1699 7.50961 3.29891 7.63861L8.3125 12.6531V1.25002C8.3125 1.06768 8.38493 0.892811 8.51386 0.763879C8.6428 0.634948 8.81766 0.562515 9 0.562515C9.18234 0.562515 9.35721 0.634948 9.48614 0.763879C9.61507 0.892811 9.6875 1.06768 9.6875 1.25002V12.6531L14.7011 7.63861C14.765 7.57473 14.8408 7.52406 14.9243 7.48949C15.0077 7.45493 15.0972 7.43713 15.1875 7.43713C15.2778 7.43713 15.3673 7.45493 15.4507 7.48949C15.5342 7.52406 15.61 7.57473 15.6739 7.63861C15.7378 7.70248 15.7885 7.77832 15.823 7.86177C15.8576 7.94523 15.8754 8.03468 15.8754 8.12502C15.8754 8.21535 15.8576 8.3048 15.823 8.38826C15.7885 8.47171 15.7378 8.54755 15.6739 8.61142L9.48641 14.7989C9.42256 14.8628 9.34673 14.9136 9.26327 14.9482C9.17981 14.9827 9.09035 15.0006 9 15.0006C8.90965 15.0006 8.82019 14.9827 8.73673 14.9482C8.65327 14.9136 8.57744 14.8628 8.51359 14.7989L2.32609 8.61142ZM16.5625 16.375H1.4375C1.25516 16.375 1.0803 16.4474 0.951364 16.5764C0.822433 16.7053 0.75 16.8802 0.75 17.0625C0.75 17.2449 0.822433 17.4197 0.951364 17.5487C1.0803 17.6776 1.25516 17.75 1.4375 17.75H16.5625C16.7448 17.75 16.9197 17.6776 17.0486 17.5487C17.1776 17.4197 17.25 17.2449 17.25 17.0625C17.25 16.8802 17.1776 16.7053 17.0486 16.5764C16.9197 16.4474 16.7448 16.375 16.5625 16.375Z" fill="white"/>
</svg>
