<svg width="108" height="109" viewBox="0 0 108 109" fill="none" xmlns="http://www.w3.org/2000/svg">
<path fill-rule="evenodd" clip-rule="evenodd" d="M59.0622 -23.2571L-30.3753 66.1804L-31.5685 64.9871L57.869 -24.4504L59.0622 -23.2571ZM-65.8126 76.3054L23.6249 -13.1321L22.4317 -14.3254L-67.0058 75.1121L-65.8126 76.3054ZM-59.0626 81.368L30.3749 -8.06951L29.1817 -9.26276L-60.2558 80.1747L-59.0626 81.368ZM5.06222 120.466L121.786 3.7428L120.593 2.54956L3.86897 119.273L5.06222 120.466ZM64.1247 -13.1321L-25.3128 76.3054L-26.506 75.1121L62.9315 -14.3254L64.1247 -13.1321ZM-16.8753 103.591L99.8483 -13.1322L98.655 -14.3254L-18.0685 102.398L-16.8753 103.591ZM133.598 12.1803L16.8747 128.904L15.6815 127.711L132.405 10.9871L133.598 12.1803ZM10.1247 176.154L126.848 59.4303L125.655 58.2371L8.93147 174.961L10.1247 176.154ZM74.2497 -6.38213L-15.1878 83.0554L-16.381 81.8621L73.0565 -7.57537L74.2497 -6.38213ZM-3.37528 110.341L113.348 -6.3822L112.155 -7.57544L-4.56852 109.148L-3.37528 110.341ZM143.723 23.9928L26.9997 140.716L25.8065 139.523L142.53 22.7996L143.723 23.9928ZM21.9374 181.216L138.661 64.4928L137.468 63.2996L20.7441 180.023L21.9374 181.216Z" fill="url(#paint0_linear_112_12690)"/>
<defs>
<linearGradient id="paint0_linear_112_12690" x1="-68.5521" y1="78.6117" x2="145.848" y2="78.6117" gradientUnits="userSpaceOnUse">
<stop stop-color="#62AD56"/>
<stop offset="1" stop-color="#7AF072"/>
</linearGradient>
</defs>
</svg>
