<svg width="30" height="36" viewBox="0 0 30 36" fill="none" xmlns="http://www.w3.org/2000/svg">
<path fill-rule="evenodd" clip-rule="evenodd" d="M21.5756 8.72467C22.5937 8.72467 26.2766 8.81672 28.6843 12.2908C28.4767 12.4536 24.8174 14.5133 24.8174 19.1234C24.8174 24.4496 29.4723 26.3489 29.6104 26.3949C29.5879 26.5105 28.8695 28.9654 27.1566 31.491C25.6278 33.6911 24.0069 35.9136 21.5756 35.9136C19.1207 35.9136 18.4944 34.4768 15.6926 34.4768C12.9369 34.4768 11.9637 35.9596 9.74121 35.9596C7.49399 35.9596 5.94271 33.8987 4.15907 31.3978C2.07461 28.4333 0.407715 23.848 0.407715 19.4927C0.407715 12.5221 4.94706 8.8156 9.41681 8.8156C11.7785 8.8156 13.7474 10.368 15.2526 10.368C16.6658 10.368 18.8659 8.72467 21.5756 8.72467ZM20.3016 5.78375C19.0972 7.24299 17.0587 8.3318 15.4378 8.3318C15.2526 8.3318 15.0674 8.30823 14.9518 8.28466C14.9064 8.07135 14.8831 7.85394 14.8822 7.63586C14.8822 5.78375 15.8318 3.93165 16.8511 2.77324C18.1475 1.24441 20.324 0.109572 22.1312 0.039978C22.1761 0.248761 22.2008 0.503566 22.2008 0.758371C22.2008 2.61048 21.4129 4.44013 20.3016 5.78375Z" fill="#62AD56"/>
</svg>
