<svg width="30" height="36" viewBox="0 0 30 36" fill="none" xmlns="http://www.w3.org/2000/svg">
<path d="M28.5319 28.3774C29.2919 29.2361 29.623 29.8771 29.5904 30.4495C29.5579 31.022 29.1415 31.4171 28.6285 31.7314C27.6003 32.3611 26.0512 32.8382 25.1185 33.9899L24.9377 33.8372L25.1173 33.991C24.1385 35.1752 22.9274 35.8588 21.788 35.9497C20.6498 36.0407 19.5823 35.5064 19.0054 34.3334C18.9295 34.1844 18.8718 34.0269 18.8336 33.8642C17.352 33.9483 16.0633 33.4904 15.0318 33.5757C13.5119 33.6599 12.5623 34.0325 11.698 34.037C11.3624 34.7846 10.7124 35.2695 9.90985 35.4558C8.8042 35.7129 7.41793 35.4547 6.05073 34.7273C4.77334 34.0393 3.15247 34.101 1.95477 33.8473C1.35649 33.7205 0.827794 33.496 0.569622 32.9852C0.312572 32.4768 0.359716 31.7752 0.724525 30.7605C0.839019 30.399 0.752588 29.8658 0.668401 29.3024C0.620624 29.0283 0.593236 28.751 0.586459 28.4728C0.586459 28.1731 0.633604 27.8768 0.78065 27.5984C1.08709 26.999 1.59333 26.7509 2.05467 26.5826C2.51602 26.4142 2.93583 26.3019 3.22992 26.0022C3.54422 25.6644 3.82821 25.1604 4.20985 24.7451C4.26149 24.6889 4.31537 24.635 4.37149 24.5845C4.19189 23.3745 4.38721 22.0971 4.79804 20.8444C5.66684 18.1875 7.50324 15.6361 8.80532 14.0601C9.91659 12.456 9.83465 11.2224 9.94914 9.58135C10.0423 7.33861 8.79522 0.578986 15.0318 0.0693764C15.2787 0.0491716 15.5144 0.0401917 15.7423 0.0401917C21.3233 0.0480491 21.009 6.02867 20.9742 9.25246C20.9518 11.3661 22.1012 12.7962 23.2753 14.3037C24.3249 15.5642 25.6999 17.4085 26.4856 19.5244C27.1277 21.2485 27.3769 23.1567 26.7416 25.0728C26.9496 25.1521 27.141 25.2693 27.3062 25.4185C27.763 25.8148 27.9056 26.4254 28.0336 26.9912C28.1615 27.558 28.2805 28.0901 28.5319 28.3774ZM27.3466 30.3059C27.3612 30.0477 27.2007 29.6436 26.7023 29.0431C26.443 28.7265 26.3734 28.2831 26.287 27.8757C26.2005 27.4693 26.1006 27.1056 25.8896 26.9103C25.6168 26.6522 25.3508 26.6331 25.032 26.6409L24.8199 26.6499C24.4573 27.1023 23.5986 27.6557 23.0026 27.4862C22.4582 27.3369 22.1495 26.6488 22.1124 25.9753C22.0966 25.9836 22.0808 25.9922 22.0653 26.0011C21.7285 26.2009 21.5377 26.5556 21.4176 27.081C21.2964 27.6063 21.256 28.2865 21.22 29.0666C21.1864 29.6739 20.9282 30.4226 20.7497 31.15C20.5712 31.8796 20.4826 32.5688 20.697 33.0099C21.0393 33.7541 21.6197 34.0572 22.2909 33.9989C22.9644 33.9416 23.7277 33.4982 24.354 32.69C25.0758 31.7438 26.205 31.3812 26.8415 30.9648C27.1603 30.756 27.3331 30.564 27.3466 30.3059ZM9.89863 32.0828C9.94353 31.6203 9.59443 31.0164 9.14207 30.4159C8.69083 29.8142 8.15765 29.2238 7.90396 28.6872L6.95546 26.9283C6.62657 26.4748 6.28534 26.1964 5.89359 26.1358C5.83603 26.1268 5.77786 26.1223 5.7196 26.1223C5.42439 26.1246 5.22907 26.2649 5.03376 26.4771C4.8014 26.7285 4.60385 27.0832 4.33782 27.3683C4.0527 27.6602 3.69126 27.7466 3.38707 27.8577C3.08287 27.9688 2.83705 28.0856 2.66868 28.4156C2.53847 28.6625 2.56765 29.0161 2.6249 29.4045C2.68439 29.794 2.77307 30.2082 2.65072 30.5932C2.40714 31.2701 2.40938 31.6674 2.52387 31.8953C2.63837 32.122 2.88868 32.2455 3.27258 32.3263C4.04036 32.4891 5.23581 32.4352 6.24156 32.9774C7.15077 33.4601 8.05999 33.615 8.73124 33.4601C9.40249 33.3029 9.83914 32.8741 9.89863 32.0828ZM17.435 9.86197C17.3497 9.69135 17.1746 9.52859 16.8771 9.40512C16.2564 9.13572 15.9881 9.11551 15.6424 8.88765C15.0812 8.51947 14.6164 8.39039 14.2303 8.39263C14.0283 8.39263 13.8475 8.42967 13.6859 8.48692C13.2145 8.6508 12.9024 8.99429 12.7071 9.18287C12.6678 9.22103 12.6184 9.2547 12.4983 9.34338C12.3782 9.43318 12.1964 9.56788 11.9371 9.76768C11.7047 9.94391 11.6295 10.174 11.7103 10.4423C11.7889 10.7117 12.0448 11.0226 12.5118 11.2909C12.8036 11.4649 13.0012 11.6984 13.2279 11.8836C13.3424 11.9767 13.4614 12.0598 13.6051 12.1215C13.7488 12.1844 13.9171 12.2271 14.127 12.2394C14.6209 12.2686 14.9846 12.1182 15.3057 11.9307C15.6267 11.7444 15.8983 11.5165 16.2104 11.4144C16.8524 11.2101 17.3082 10.8004 17.4519 10.412C17.4882 10.3244 17.5055 10.23 17.5026 10.1352C17.4997 10.0403 17.4767 9.94721 17.435 9.86197ZM25.9985 24.9314C26.269 24.0356 26.0243 22.7874 24.5415 21.9276C23.9802 21.6021 22.5266 21.3596 22.2965 21.3664C21.9328 19.3246 20.1256 18.4221 19.7036 17.6251C18.9066 16.1221 18.7932 13.0431 18.2612 10.9104C17.9514 11.3594 17.4081 11.7444 16.7211 11.9621C16.3967 12.0699 16.0555 12.3449 15.6278 12.5941C15.2338 12.8231 14.7612 13.024 14.1551 13.024C14.1012 13.024 14.0451 13.0229 13.989 13.0195C13.5147 12.9978 13.0612 12.8185 12.7004 12.5099C12.3894 12.2562 12.1492 11.9756 11.8282 11.7848C11.7193 11.7208 10.305 17.7452 9.0837 19.5232C8.09928 20.9634 7.74457 22.1622 7.70416 23.6125C7.70416 24.0076 7.70416 24.7451 8.3552 25.194C9.62362 25.9843 10.4857 26.7756 10.9953 27.4761C11.5049 28.1776 11.6643 28.7916 11.506 29.2271C11.465 29.3366 11.4023 29.4367 11.3217 29.5214C11.2411 29.6061 11.1442 29.6736 11.0368 29.7199C10.822 29.8115 10.59 29.8555 10.3566 29.849C10.4924 30.023 10.8168 30.3474 11.506 30.9086C12.1941 31.4699 18.929 33.1536 19.7204 28.6973C19.7732 27.631 19.8282 26.6802 20.0212 25.8956C20.2143 25.1087 20.56 24.4678 21.1954 24.1142C21.2964 24.0581 21.3985 24.0132 21.4995 23.9773C21.5074 23.9099 21.5164 23.8448 21.5276 23.7808C21.7095 22.554 22.787 22.4945 24.1396 23.0984C25.4429 23.6989 25.9323 24.222 25.7347 24.9325C25.8211 24.9303 25.9087 24.9291 25.9985 24.9325V24.9314ZM18.0344 8.43641C18.1956 8.06423 18.2723 7.66093 18.2589 7.25555C18.2563 6.87109 18.1721 6.49156 18.012 6.14204C17.8742 5.81135 17.6501 5.52371 17.3632 5.30915C17.1171 5.11473 16.8125 5.00912 16.4989 5.00945H16.4831C16.1599 5.01282 15.886 5.11047 15.6076 5.32487C15.3257 5.54631 15.1073 5.83827 14.9745 6.17123C14.8169 6.53341 14.7406 6.92578 14.7511 7.32066V7.35321C14.7534 7.47219 14.7624 7.58556 14.777 7.69557C15.0273 7.75618 15.3898 7.86057 15.6727 8.00425C15.6529 7.88559 15.6447 7.7653 15.648 7.64505L15.6491 7.61924C15.657 7.38576 15.6963 7.19045 15.7771 6.99289C15.8407 6.81932 15.9463 6.66426 16.0847 6.54165C16.1941 6.43954 16.3391 6.38433 16.4888 6.38787C16.6358 6.39236 16.7582 6.44848 16.8816 6.56971C17.0108 6.70216 17.1053 6.8645 17.1566 7.04228C17.2195 7.23647 17.2487 7.42617 17.2442 7.64842C17.2442 7.65965 17.2408 7.6675 17.2408 7.67648C17.2341 7.90772 17.1948 8.10303 17.114 8.30059C17.0601 8.43304 16.9175 8.53743 16.8446 8.62611C16.9456 8.66203 17.0421 8.69458 17.1667 8.74285C17.3523 8.8146 17.5357 8.89171 17.7168 8.97408C17.8414 8.82142 17.9446 8.64631 18.0344 8.43641ZM13.3694 7.84935C13.4064 7.83588 13.4434 7.82465 13.4816 7.81343C13.4928 7.68546 13.4928 7.55301 13.485 7.40933C13.4721 7.09837 13.4021 6.79244 13.2784 6.50685C13.1798 6.25754 13.0205 6.03683 12.8149 5.86479C12.6519 5.72001 12.4388 5.64467 12.2211 5.65488C12.0078 5.66611 11.8304 5.75591 11.6542 5.93326C11.4791 6.10949 11.3579 6.32613 11.2669 6.62359C11.1767 6.92231 11.1413 7.23493 11.1625 7.54628C11.1816 7.8819 11.2479 8.16589 11.3702 8.44876C11.4735 8.68897 11.5925 8.86969 11.744 9.01449L11.9236 8.87979C12.0022 8.82255 12.0673 8.76867 12.1616 8.69346C12.0402 8.59638 11.9471 8.46844 11.8922 8.32304C11.8323 8.17808 11.7952 8.02473 11.7822 7.86843L11.7799 7.84935C11.7639 7.6867 11.7745 7.52254 11.8113 7.36331C11.8367 7.22973 11.8923 7.10376 11.9741 6.99513C12.0504 6.89972 12.1313 6.85145 12.23 6.84247C12.2809 6.83975 12.3317 6.84774 12.3793 6.86591C12.4269 6.88409 12.4701 6.91205 12.5062 6.94799C12.606 7.0405 12.6829 7.15504 12.7307 7.28249C12.789 7.42617 12.8238 7.5676 12.8407 7.7371V7.75618C12.8541 7.88414 12.8519 7.99752 12.8362 8.10977C12.9956 8.00313 13.1617 7.92231 13.3694 7.84935Z" fill="#62AD56"/>
</svg>
