<svg width="40" height="32" viewBox="0 0 40 32" fill="none" xmlns="http://www.w3.org/2000/svg">
<g clip-path="url(#clip0_125_3320)">
<path d="M0.917603 9.71399H38.6332V27.0003C38.6332 27.6194 38.5113 28.2325 38.2744 28.8045C38.0374 29.3764 37.6902 29.8962 37.2524 30.3339C36.8146 30.7717 36.2949 31.119 35.7229 31.3559C35.1509 31.5928 34.5379 31.7148 33.9188 31.7148H5.63206C4.3817 31.7148 3.18257 31.2181 2.29843 30.3339C1.4143 29.4498 0.917603 28.2507 0.917603 27.0003L0.917603 9.71399Z" fill="#62AD56" fill-opacity="0.4"/>
<path fill-rule="evenodd" clip-rule="evenodd" d="M5.6323 0.285156C4.38195 0.285156 3.18281 0.781856 2.29868 1.66599C1.41455 2.55012 0.917847 3.74926 0.917847 4.99961L0.917847 9.71406H38.6335V4.99961C38.6335 4.3805 38.5115 3.76745 38.2746 3.19547C38.0377 2.62348 37.6904 2.10377 37.2526 1.66599C36.8149 1.22821 36.2951 0.880946 35.7232 0.644023C35.1512 0.407099 34.5381 0.285156 33.919 0.285156L5.6323 0.285156ZM5.6323 6.57109C6.04908 6.57109 6.4488 6.40553 6.74351 6.11082C7.03822 5.81611 7.20378 5.41639 7.20378 4.99961C7.20378 4.58283 7.03822 4.18311 6.74351 3.8884C6.4488 3.59369 6.04908 3.42812 5.6323 3.42812C5.21552 3.42812 4.8158 3.59369 4.52109 3.8884C4.22638 4.18311 4.06082 4.58283 4.06082 4.99961C4.06082 5.41639 4.22638 5.81611 4.52109 6.11082C4.8158 6.40553 5.21552 6.57109 5.6323 6.57109ZM10.3468 6.57109C10.7635 6.57109 11.1632 6.40553 11.458 6.11082C11.7527 5.81611 11.9182 5.41639 11.9182 4.99961C11.9182 4.58283 11.7527 4.18311 11.458 3.8884C11.1632 3.59369 10.7635 3.42812 10.3468 3.42812C9.92997 3.42812 9.53026 3.59369 9.23555 3.8884C8.94083 4.18311 8.77527 4.58283 8.77527 4.99961C8.77527 5.41639 8.94083 5.81611 9.23555 6.11082C9.53026 6.40553 9.92997 6.57109 10.3468 6.57109ZM16.6327 4.99961C16.6327 5.41639 16.4671 5.81611 16.1724 6.11082C15.8777 6.40553 15.478 6.57109 15.0612 6.57109C14.6444 6.57109 14.2447 6.40553 13.95 6.11082C13.6553 5.81611 13.4897 5.41639 13.4897 4.99961C13.4897 4.58283 13.6553 4.18311 13.95 3.8884C14.2447 3.59369 14.6444 3.42812 15.0612 3.42812C15.478 3.42812 15.8777 3.59369 16.1724 3.8884C16.4671 4.18311 16.6327 4.58283 16.6327 4.99961Z" fill="#62AD56"/>
</g>
<defs>
<clipPath id="clip0_125_3320">
<rect width="38.1646" height="31.4297" fill="white" transform="translate(0.917847 0.285156)"/>
</clipPath>
</defs>
</svg>
