<svg width="32" height="36" viewBox="0 0 32 36" fill="none" xmlns="http://www.w3.org/2000/svg">
<path fill-rule="evenodd" clip-rule="evenodd" d="M26.0407 11.2651H5.95934C6.12466 9.78193 6.61658 8.35387 7.39973 7.08357C8.18287 5.81327 9.23777 4.73229 10.4886 3.91836L8.92832 1.83615C8.7497 1.59799 8.673 1.29862 8.7151 1.00391C8.75721 0.7092 8.91466 0.443285 9.15282 0.264663C9.39098 0.086042 9.69034 0.0093458 9.98505 0.0514473C10.2798 0.0935488 10.5457 0.250999 10.7243 0.489161L12.408 2.73414C12.4484 2.78802 12.4832 2.84527 12.5124 2.90251C13.6294 2.49254 14.8102 2.28353 16 2.28514C17.2258 2.28514 18.3999 2.50291 19.4876 2.90251C19.5168 2.84527 19.5516 2.78802 19.592 2.73414L21.2757 0.489161C21.4543 0.250999 21.7202 0.0935488 22.0149 0.0514473C22.3097 0.00934584 22.609 0.086042 22.8472 0.264664C23.0853 0.443285 23.2428 0.7092 23.2849 1.00391C23.327 1.29862 23.2503 1.59799 23.0717 1.83615L21.5103 3.91836C22.7613 4.73217 23.8164 5.8131 24.5998 7.08341C25.3831 8.35372 25.8752 9.78184 26.0407 11.2651ZM26.1024 12.3875V26.9799C26.1024 27.5753 25.8659 28.1463 25.4449 28.5673C25.0238 28.9884 24.4528 29.2249 23.8574 29.2249H21.6124V33.7148C21.6124 34.3102 21.3759 34.8813 20.9549 35.3023C20.5339 35.7233 19.9629 35.9598 19.3675 35.9598C18.7721 35.9598 18.201 35.7233 17.78 35.3023C17.359 34.8813 17.1225 34.3102 17.1225 33.7148V29.2249H14.8775V33.7148C14.8775 34.3102 14.641 34.8813 14.22 35.3023C13.799 35.7233 13.2279 35.9598 12.6325 35.9598C12.0371 35.9598 11.4661 35.7233 11.0451 35.3023C10.6241 34.8813 10.3876 34.3102 10.3876 33.7148V29.2249H8.14258C7.54717 29.2249 6.97615 28.9884 6.55514 28.5673C6.13412 28.1463 5.8976 27.5753 5.8976 26.9799V12.3875H26.1024ZM29.4699 12.3875C30.0653 12.3875 30.6363 12.6241 31.0573 13.0451C31.4783 13.4661 31.7148 14.0371 31.7148 14.6325V23.6124C31.7148 24.2078 31.4783 24.7789 31.0573 25.1999C30.6363 25.6209 30.0653 25.8574 29.4699 25.8574C28.8745 25.8574 28.3034 25.6209 27.8824 25.1999C27.4614 24.7789 27.2249 24.2078 27.2249 23.6124V14.6325C27.2249 14.0371 27.4614 13.4661 27.8824 13.0451C28.3034 12.6241 28.8745 12.3875 29.4699 12.3875ZM2.53013 12.3875C3.12554 12.3875 3.69656 12.6241 4.11757 13.0451C4.53859 13.4661 4.77511 14.0371 4.77511 14.6325V23.6124C4.77511 24.2078 4.53859 24.7789 4.11757 25.1999C3.69656 25.6209 3.12554 25.8574 2.53013 25.8574C1.93473 25.8574 1.36371 25.6209 0.942695 25.1999C0.52168 24.7789 0.285156 24.2078 0.285156 23.6124V14.6325C0.285156 14.0371 0.52168 13.4661 0.942695 13.0451C1.36371 12.6241 1.93473 12.3875 2.53013 12.3875ZM11.51 8.45883C11.8077 8.45883 12.0933 8.34057 12.3038 8.13006C12.5143 7.91956 12.6325 7.63405 12.6325 7.33634C12.6325 7.03864 12.5143 6.75313 12.3038 6.54262C12.0933 6.33212 11.8077 6.21385 11.51 6.21385C11.2123 6.21385 10.9268 6.33212 10.7163 6.54262C10.5058 6.75313 10.3876 7.03864 10.3876 7.33634C10.3876 7.63405 10.5058 7.91956 10.7163 8.13006C10.9268 8.34057 11.2123 8.45883 11.51 8.45883ZM20.49 8.45883C20.7877 8.45883 21.0732 8.34057 21.2837 8.13006C21.4942 7.91956 21.6124 7.63405 21.6124 7.33634C21.6124 7.03864 21.4942 6.75313 21.2837 6.54262C21.0732 6.33212 20.7877 6.21385 20.49 6.21385C20.1923 6.21385 19.9067 6.33212 19.6962 6.54262C19.4857 6.75313 19.3675 7.03864 19.3675 7.33634C19.3675 7.63405 19.4857 7.91956 19.6962 8.13006C19.9067 8.34057 20.1923 8.45883 20.49 8.45883Z" fill="#62AD56"/>
</svg>
