<svg width="36" height="32" viewBox="0 0 36 32" fill="none" xmlns="http://www.w3.org/2000/svg">
<path fill-rule="evenodd" clip-rule="evenodd" d="M22.4261 25.6216C25.3805 24.9089 27.6075 23.4002 29.0544 21.0845C29.1325 20.9595 29.1853 20.8204 29.2096 20.675C29.234 20.5296 29.2294 20.3808 29.1963 20.2372C29.1631 20.0936 29.102 19.9579 29.0164 19.8379C28.9308 19.7179 28.8225 19.6159 28.6975 19.5378C28.5725 19.4596 28.4333 19.4069 28.2879 19.3825C28.1425 19.3582 27.9938 19.3627 27.8501 19.3959C27.7065 19.429 27.5708 19.4901 27.4508 19.5757C27.3308 19.6613 27.2288 19.7697 27.1507 19.8947C26.0708 21.6222 24.4062 22.7907 22.1129 23.3879C21.9257 21.6679 21.8208 19.9399 21.7986 18.2098C21.7895 17.6209 21.5493 17.0591 21.1297 16.6456C20.7102 16.2322 20.1449 16.0002 19.5559 15.9997H16.3164C17.0123 10.2716 19.7041 3.8375 21.142 0.284821H32.5925C33.4856 0.284821 34.3421 0.639606 34.9737 1.27113C35.6052 1.90265 35.96 2.75918 35.96 3.65229V28.347C35.96 29.2402 35.6052 30.0967 34.9737 30.7282C34.3421 31.3597 33.4856 31.7145 32.5925 31.7145H24.1851C23.4128 30.0016 22.8257 27.9699 22.4261 25.6216ZM25.8576 7.01975C25.5599 7.01975 25.2743 7.13802 25.0638 7.34852C24.8533 7.55903 24.7351 7.84454 24.7351 8.14224V11.5097C24.7351 11.8074 24.8533 12.0929 25.0638 12.3034C25.2743 12.5139 25.5599 12.6322 25.8576 12.6322C26.1553 12.6322 26.4408 12.5139 26.6513 12.3034C26.8618 12.0929 26.9801 11.8074 26.9801 11.5097V8.14224C26.9801 7.84454 26.8618 7.55903 26.6513 7.34852C26.4408 7.13802 26.1553 7.01975 25.8576 7.01975Z" fill="#62AD56"/>
<path opacity="0.6" fill-rule="evenodd" clip-rule="evenodd" d="M20.2115 25.9945C20.5741 28.1272 21.0871 30.0332 21.7493 31.7147H3.40787C2.51476 31.7147 1.65824 31.3599 1.02671 30.7284C0.395191 30.0968 0.0404053 29.2403 0.0404053 28.3472L0.0404053 3.65244C0.0404053 2.75933 0.395191 1.9028 1.02671 1.27128C1.65824 0.639759 2.51476 0.284973 3.40787 0.284973L18.7209 0.284973C17.1718 4.12389 14.7562 10.2336 14.0884 15.7293C14.0501 16.0446 14.0791 16.3644 14.1736 16.6677C14.2681 16.9709 14.4259 17.2506 14.6365 17.4884C14.847 17.7261 15.1057 17.9165 15.3953 18.0469C15.6849 18.1773 15.9989 18.2447 16.3165 18.2448H19.5549C19.5863 20.2148 19.6997 22.0556 19.8972 23.7708C19.2666 23.83 18.6336 23.8589 18.0002 23.8572C13.4934 23.8572 10.493 22.5237 8.8497 19.8949C8.77157 19.7699 8.66959 19.6615 8.54957 19.5759C8.42956 19.4903 8.29386 19.4292 8.15023 19.396C8.0066 19.3629 7.85784 19.3583 7.71246 19.3827C7.56708 19.407 7.42791 19.4598 7.30291 19.5379C7.17791 19.616 7.06952 19.718 6.98393 19.838C6.89834 19.958 6.83723 20.0937 6.80408 20.2374C6.77094 20.381 6.76641 20.5298 6.79075 20.6751C6.81509 20.8205 6.86783 20.9597 6.94596 21.0847C9.04501 24.4421 12.7807 26.1022 18.0002 26.1022C18.7703 26.1022 19.5077 26.0663 20.2115 25.9945ZM10.1428 7.01991C9.8451 7.01991 9.55959 7.13817 9.34909 7.34868C9.13858 7.55918 9.02032 7.84469 9.02032 8.1424V11.5099C9.02032 11.8076 9.13858 12.0931 9.34909 12.3036C9.55959 12.5141 9.8451 12.6324 10.1428 12.6324C10.4405 12.6324 10.726 12.5141 10.9365 12.3036C11.147 12.0931 11.2653 11.8076 11.2653 11.5099V8.1424C11.2653 7.84469 11.147 7.55918 10.9365 7.34868C10.726 7.13817 10.4405 7.01991 10.1428 7.01991Z" fill="#62AD56"/>
</svg>
