<svg width="31" height="37" viewBox="0 0 31 37" fill="none" xmlns="http://www.w3.org/2000/svg">
<path fill-rule="evenodd" clip-rule="evenodd" d="M22.0759 8.90937C23.094 8.90937 26.7768 9.00141 29.1846 12.4755C28.9769 12.6383 25.3176 14.698 25.3176 19.3081C25.3176 24.6343 29.9726 26.5336 30.1106 26.5796C30.0882 26.6952 29.3698 29.1501 27.6569 31.6757C26.128 33.8758 24.5072 36.0983 22.0759 36.0983C19.621 36.0983 18.9946 34.6615 16.1929 34.6615C13.4372 34.6615 12.464 36.1443 10.2415 36.1443C7.99423 36.1443 6.44295 34.0834 4.65932 31.5825C2.57486 28.618 0.907959 24.0327 0.907959 19.6774C0.907959 12.7067 5.4473 9.00029 9.91706 9.00029C12.2788 9.00029 14.2476 10.5527 15.7529 10.5527C17.1661 10.5527 19.3662 8.90937 22.0759 8.90937ZM20.8018 5.96845C19.5974 7.42768 17.559 8.5165 15.9381 8.5165C15.7529 8.5165 15.5677 8.49292 15.452 8.46935C15.4067 8.25604 15.3833 8.03863 15.3825 7.82055C15.3825 5.96845 16.3321 4.11634 17.3513 2.95793C18.6478 1.4291 20.8243 0.294265 22.6315 0.22467C22.6764 0.433453 22.7011 0.688258 22.7011 0.943063C22.7011 2.79517 21.9131 4.62483 20.8018 5.96845Z" fill="#717171"/>
</svg>
