<svg width="30" height="37" viewBox="0 0 30 37" fill="none" xmlns="http://www.w3.org/2000/svg">
<path d="M28.632 28.5621C29.392 29.4209 29.7231 30.0618 29.6905 30.6343C29.658 31.2067 29.2416 31.6018 28.7286 31.9161C27.7004 32.5459 26.1513 33.0229 25.2185 34.1746L25.0378 34.0219L25.2174 34.1757C24.2386 35.3599 23.0275 36.0435 21.8881 36.1345C20.7499 36.2254 19.6824 35.6911 19.1055 34.5181C19.0296 34.3691 18.9719 34.2116 18.9337 34.0489C17.4521 34.1331 16.1634 33.6751 15.1319 33.7604C13.612 33.8446 12.6624 34.2173 11.7981 34.2217C11.4624 34.9693 10.8125 35.4542 10.0099 35.6406C8.9043 35.8976 7.51802 35.6394 6.15083 34.9121C4.87344 34.224 3.25257 34.2857 2.05487 34.032C1.45658 33.9052 0.927892 33.6807 0.66972 33.17C0.41267 32.6615 0.459814 31.9599 0.824623 30.9452C0.939117 30.5838 0.852685 30.0506 0.768499 29.4871C0.720722 29.213 0.693333 28.9357 0.686557 28.6576C0.686557 28.3579 0.733701 28.0615 0.880747 27.7831C1.18719 27.1837 1.69343 26.9357 2.15477 26.7673C2.61612 26.5989 3.03593 26.4867 3.33002 26.187C3.64432 25.8491 3.9283 25.3451 4.30995 24.9298C4.36159 24.8737 4.41546 24.8198 4.47159 24.7693C4.29199 23.5592 4.4873 22.2818 4.89814 21.0291C5.76694 18.3722 7.60333 15.8208 8.90542 14.2448C10.0167 12.6408 9.93474 11.4071 10.0492 9.76607C10.1424 7.52334 8.89532 0.763709 15.1319 0.254099C15.3788 0.233894 15.6145 0.224915 15.8424 0.224915C21.4234 0.232772 21.1091 6.21339 21.0743 9.43718C21.0519 11.5508 22.2013 12.9809 23.3754 14.4884C24.4249 15.7489 25.8 17.5932 26.5857 19.7091C27.2278 21.4332 27.477 23.3415 26.8417 25.2575C27.0497 25.3368 27.2411 25.454 27.4063 25.6033C27.8631 25.9995 28.0057 26.6101 28.1337 27.1759C28.2616 27.7427 28.3806 28.2748 28.632 28.5621ZM27.4467 30.4906C27.4613 30.2324 27.3008 29.8283 26.8024 29.2278C26.5431 28.9112 26.4735 28.4679 26.3871 28.0604C26.3006 27.6541 26.2007 27.2904 25.9897 27.0951C25.7169 26.8369 25.4509 26.8178 25.1321 26.8257L24.92 26.8346C24.5574 27.287 23.6987 27.8404 23.1027 27.6709C22.5583 27.5216 22.2496 26.8335 22.2125 26.16C22.1967 26.1683 22.1809 26.1769 22.1654 26.1858C21.8286 26.3856 21.6378 26.7403 21.5177 27.2657C21.3965 27.791 21.3561 28.4712 21.3201 29.2514C21.2865 29.8586 21.0283 30.6073 20.8498 31.3347C20.6713 32.0643 20.5827 32.7535 20.7971 33.1947C21.1394 33.9389 21.7198 34.2419 22.391 34.1836C23.0645 34.1263 23.8278 33.6829 24.4541 32.8748C25.1759 31.9285 26.3051 31.5659 26.9416 31.1495C27.2604 30.9407 27.4332 30.7488 27.4467 30.4906ZM9.99872 32.2675C10.0436 31.805 9.69453 31.2011 9.24217 30.6006C8.79093 29.9989 8.25774 29.4085 8.00406 28.872L7.05556 27.113C6.72667 26.6595 6.38543 26.3812 5.99368 26.3205C5.93613 26.3115 5.87796 26.307 5.8197 26.3071C5.52448 26.3093 5.32917 26.4496 5.13386 26.6618C4.9015 26.9132 4.70394 27.2679 4.43791 27.553C4.1528 27.8449 3.79136 27.9313 3.48717 28.0424C3.18297 28.1536 2.93715 28.2703 2.76877 28.6003C2.63857 28.8473 2.66775 29.2008 2.725 29.5892C2.78449 29.9787 2.87317 30.3929 2.75081 30.7779C2.50723 31.4548 2.50948 31.8522 2.62397 32.08C2.73847 32.3068 2.98878 32.4302 3.37267 32.5111C4.14046 32.6738 5.33591 32.6199 6.34166 33.1621C7.25087 33.6448 8.16009 33.7997 8.83134 33.6448C9.50258 33.4876 9.93923 33.0588 9.99872 32.2675ZM17.5351 10.0467C17.4498 9.87607 17.2747 9.71331 16.9772 9.58984C16.3565 9.32044 16.0882 9.30024 15.7425 9.07237C15.1813 8.7042 14.7165 8.57511 14.3304 8.57736C14.1284 8.57736 13.9476 8.6144 13.786 8.67164C13.3146 8.83553 13.0025 9.17901 12.8072 9.36759C12.7679 9.40575 12.7185 9.43943 12.5984 9.5281C12.4783 9.6179 12.2965 9.7526 12.0372 9.9524C11.8048 10.1286 11.7296 10.3587 11.8104 10.627C11.889 10.8964 12.1449 11.2073 12.6119 11.4756C12.9037 11.6496 13.1013 11.8831 13.328 12.0683C13.4425 12.1615 13.5615 12.2445 13.7052 12.3063C13.8489 12.3691 14.0172 12.4118 14.2271 12.4241C14.721 12.4533 15.0847 12.3029 15.4058 12.1154C15.7268 11.9291 15.9984 11.7012 16.3105 11.5991C16.9525 11.3948 17.4083 10.9851 17.552 10.5967C17.5883 10.5091 17.6056 10.4147 17.6027 10.3199C17.5998 10.2251 17.5768 10.1319 17.5351 10.0467ZM26.0986 25.1161C26.3691 24.2204 26.1244 22.9722 24.6416 22.1123C24.0803 21.7868 22.6267 21.5443 22.3966 21.5511C22.0329 19.5093 20.2257 18.6068 19.8037 17.8098C19.0067 16.3068 18.8933 13.2278 18.3613 11.0951C18.0515 11.5441 17.5082 11.9291 16.8212 12.1469C16.4968 12.2546 16.1556 12.5296 15.7279 12.7788C15.3339 13.0078 14.8613 13.2087 14.2552 13.2087C14.2013 13.2087 14.1452 13.2076 14.0891 13.2043C13.6148 13.1826 13.1613 13.0032 12.8005 12.6946C12.4895 12.441 12.2493 12.1603 11.9283 11.9695C11.8194 11.9055 10.4051 17.9299 9.1838 19.708C8.19938 21.1481 7.84467 22.3469 7.80426 23.7972C7.80426 24.1923 7.80426 24.9298 8.4553 25.3788C9.72371 26.169 10.5858 26.9604 11.0954 27.6608C11.605 28.3623 11.7644 28.9763 11.6061 29.4119C11.5651 29.5214 11.5024 29.6214 11.4218 29.7061C11.3412 29.7908 11.2443 29.8583 11.1369 29.9046C10.9221 29.9962 10.6901 30.0402 10.4567 30.0337C10.5925 30.2077 10.9169 30.5321 11.6061 31.0934C12.2942 31.6546 19.0291 33.3383 19.8205 28.8821C19.8733 27.8157 19.9283 26.8649 20.1213 26.0803C20.3144 25.2935 20.6601 24.6525 21.2955 24.2989C21.3965 24.2428 21.4986 24.1979 21.5996 24.162C21.6075 24.0946 21.6165 24.0295 21.6277 23.9656C21.8096 22.7387 22.8871 22.6792 24.2397 23.2831C25.5429 23.8836 26.0324 24.4067 25.8348 25.1172C25.9212 25.115 26.0088 25.1139 26.0986 25.1172V25.1161ZM18.1345 8.62113C18.2957 8.24895 18.3724 7.84565 18.359 7.44027C18.3564 7.05581 18.2722 6.67629 18.1121 6.32676C17.9743 5.99607 17.7502 5.70843 17.4633 5.49388C17.2172 5.29945 16.9126 5.19384 16.599 5.19417H16.5832C16.26 5.19754 15.9861 5.2952 15.7077 5.50959C15.4258 5.73103 15.2074 6.023 15.0746 6.35595C14.917 6.71814 14.8407 7.11051 14.8512 7.50538V7.53793C14.8535 7.65691 14.8625 7.77029 14.8771 7.88029C15.1274 7.9409 15.4899 8.0453 15.7728 8.18897C15.753 8.07032 15.7448 7.95003 15.7481 7.82978L15.7492 7.80396C15.7571 7.57048 15.7964 7.37517 15.8772 7.17761C15.9408 7.00404 16.0464 6.84899 16.1848 6.72637C16.2942 6.62426 16.4392 6.56906 16.5889 6.57259C16.7359 6.57708 16.8583 6.6332 16.9817 6.75443C17.1109 6.88688 17.2054 7.04922 17.2567 7.227C17.3196 7.42119 17.3488 7.61089 17.3443 7.83314C17.3443 7.84437 17.3409 7.85223 17.3409 7.86121C17.3342 8.09244 17.2949 8.28775 17.2141 8.48531C17.1602 8.61776 17.0176 8.72216 16.9447 8.81083C17.0457 8.84675 17.1422 8.8793 17.2668 8.92757C17.4524 8.99933 17.6358 9.07644 17.8169 9.1588C17.9415 9.00615 18.0447 8.83104 18.1345 8.62113ZM13.4695 8.03407C13.5065 8.0206 13.5435 8.00938 13.5817 7.99815C13.5929 7.87019 13.5929 7.73773 13.5851 7.59405C13.5722 7.2831 13.5022 6.97716 13.3785 6.69157C13.2799 6.44226 13.1206 6.22155 12.915 6.04951C12.752 5.90473 12.5389 5.8294 12.3212 5.8396C12.1079 5.85083 11.9305 5.94063 11.7543 6.11798C11.5792 6.29421 11.458 6.51085 11.367 6.80831C11.2768 7.10704 11.2414 7.41965 11.2626 7.731C11.2817 8.06662 11.348 8.35061 11.4703 8.63348C11.5736 8.87369 11.6926 9.05441 11.8441 9.19921L12.0237 9.06452C12.1023 9.00727 12.1674 8.95339 12.2617 8.87818C12.1403 8.7811 12.0472 8.65316 11.9923 8.50776C11.9324 8.3628 11.8953 8.20945 11.8823 8.05315L11.88 8.03407C11.864 7.87143 11.8746 7.70726 11.9114 7.54803C11.9368 7.41445 11.9924 7.28848 12.0742 7.17986C12.1505 7.08444 12.2314 7.03618 12.3301 7.0272C12.381 7.02447 12.4318 7.03246 12.4794 7.05063C12.527 7.06881 12.5702 7.09677 12.6063 7.13271C12.7061 7.22522 12.783 7.33976 12.8308 7.46721C12.8891 7.61089 12.9239 7.75233 12.9408 7.92182V7.9409C12.9542 8.06887 12.952 8.18224 12.9363 8.29449C13.0957 8.18785 13.2618 8.10703 13.4695 8.03407Z" fill="#717171"/>
</svg>
