<svg width="37" height="32" viewBox="0 0 37 32" fill="none" xmlns="http://www.w3.org/2000/svg">
<path fill-rule="evenodd" clip-rule="evenodd" d="M23.3263 25.8065C26.2807 25.0937 28.5077 23.585 29.9546 21.2694C30.0327 21.1444 30.0854 21.0052 30.1098 20.8598C30.1341 20.7144 30.1296 20.5657 30.0964 20.422C30.0633 20.2784 30.0022 20.1427 29.9166 20.0227C29.831 19.9027 29.7226 19.8007 29.5976 19.7226C29.4726 19.6444 29.3334 19.5917 29.1881 19.5674C29.0427 19.543 28.8939 19.5475 28.7503 19.5807C28.6067 19.6138 28.471 19.6749 28.3509 19.7605C28.2309 19.8461 28.1289 19.9545 28.0508 20.0795C26.971 21.807 25.3063 22.9755 23.0131 23.5727C22.8258 21.8527 22.721 20.1247 22.6988 18.3947C22.6897 17.8057 22.4494 17.2439 22.0299 16.8305C21.6103 16.417 21.0451 16.185 20.4561 16.1845H17.2166C17.9125 10.4564 20.6042 4.02231 22.0421 0.469635H33.4926C34.3858 0.469635 35.2423 0.824421 35.8738 1.45594C36.5053 2.08747 36.8601 2.94399 36.8601 3.8371V28.5319C36.8601 29.425 36.5053 30.2815 35.8738 30.913C35.2423 31.5445 34.3858 31.8993 33.4926 31.8993H25.0852C24.3129 30.1864 23.7259 28.1547 23.3263 25.8065ZM26.7577 7.20457C26.46 7.20457 26.1745 7.32283 25.964 7.53334C25.7535 7.74385 25.6352 8.02935 25.6352 8.32706V11.6945C25.6352 11.9922 25.7535 12.2777 25.964 12.4882C26.1745 12.6988 26.46 12.817 26.7577 12.817C27.0554 12.817 27.3409 12.6988 27.5514 12.4882C27.7619 12.2777 27.8802 11.9922 27.8802 11.6945V8.32706C27.8802 8.02935 27.7619 7.74385 27.5514 7.53334C27.3409 7.32283 27.0554 7.20457 26.7577 7.20457Z" fill="#717171"/>
<path opacity="0.6" fill-rule="evenodd" clip-rule="evenodd" d="M21.1116 26.1793C21.4741 28.312 21.9871 30.218 22.6494 31.8995H4.3079C3.41479 31.8995 2.55826 31.5447 1.92674 30.9132C1.29522 30.2816 0.94043 29.4251 0.94043 28.532L0.94043 3.83725C0.94043 2.94415 1.29522 2.08762 1.92674 1.4561C2.55826 0.824573 3.41479 0.469788 4.3079 0.469788L19.6209 0.469788C18.0719 4.3087 15.6563 10.4184 14.9884 15.9141C14.9501 16.2294 14.9792 16.5492 15.0737 16.8525C15.1681 17.1557 15.3259 17.4354 15.5365 17.6732C15.7471 17.9109 16.0057 18.1013 16.2953 18.2317C16.5849 18.3621 16.8989 18.4295 17.2165 18.4296H20.4549C20.4863 20.3996 20.5997 22.2405 20.7973 23.9556C20.1667 24.0148 19.5336 24.0437 18.9003 24.0421C14.3935 24.0421 11.393 22.7085 9.74972 20.0797C9.6716 19.9547 9.56961 19.8463 9.4496 19.7607C9.32958 19.6751 9.19389 19.614 9.05025 19.5808C8.90662 19.5477 8.75787 19.5432 8.61248 19.5675C8.4671 19.5918 8.32793 19.6446 8.20293 19.7227C8.07793 19.8008 7.96954 19.9028 7.88395 20.0228C7.79836 20.1429 7.73725 20.2786 7.70411 20.4222C7.67096 20.5658 7.66643 20.7146 7.69077 20.86C7.71512 21.0053 7.76786 21.1445 7.84598 21.2695C9.94504 24.6269 13.6807 26.287 18.9003 26.287C19.6703 26.287 20.4078 26.2511 21.1116 26.1793ZM11.0428 7.20472C10.7451 7.20472 10.4596 7.32298 10.2491 7.53349C10.0386 7.744 9.92034 8.02951 9.92034 8.32721V11.6947C9.92034 11.9924 10.0386 12.2779 10.2491 12.4884C10.4596 12.6989 10.7451 12.8172 11.0428 12.8172C11.3405 12.8172 11.626 12.6989 11.8365 12.4884C12.0471 12.2779 12.1653 11.9924 12.1653 11.6947V8.32721C12.1653 8.02951 12.0471 7.744 11.8365 7.53349C11.626 7.32298 11.3405 7.20472 11.0428 7.20472Z" fill="#A9A9A9"/>
</svg>
