<svg width="108" height="109" viewBox="0 0 108 109" fill="none" xmlns="http://www.w3.org/2000/svg">
<path fill-rule="evenodd" clip-rule="evenodd" d="M59.0622 -23.441L-30.3753 65.9965L-31.5685 64.8033L57.869 -24.6342L59.0622 -23.441ZM-65.8126 76.1215L23.6249 -13.316L22.4317 -14.5092L-67.0058 74.9283L-65.8126 76.1215ZM-59.0626 81.1841L30.3749 -8.25335L29.1817 -9.44659L-60.2558 79.9909L-59.0626 81.1841ZM5.06222 120.282L121.786 3.55896L120.593 2.36572L3.86897 119.089L5.06222 120.282ZM64.1247 -13.316L-25.3128 76.1215L-26.506 74.9283L62.9315 -14.5092L64.1247 -13.316ZM-16.8753 103.407L99.8483 -13.316L98.655 -14.5093L-18.0685 102.214L-16.8753 103.407ZM133.598 11.9965L16.8747 128.72L15.6815 127.527L132.405 10.8032L133.598 11.9965ZM10.1247 175.97L126.848 59.2465L125.655 58.0532L8.93147 174.777L10.1247 175.97ZM74.2497 -6.56597L-15.1878 82.8715L-16.381 81.6783L73.0565 -7.75921L74.2497 -6.56597ZM-3.37528 110.157L113.348 -6.56604L112.155 -7.75928L-4.56852 108.964L-3.37528 110.157ZM143.723 23.809L26.9997 140.532L25.8065 139.339L142.53 22.6157L143.723 23.809ZM21.9374 181.032L138.661 64.309L137.468 63.1157L20.7441 179.839L21.9374 181.032Z" fill="url(#paint0_linear_112_12658)"/>
<defs>
<linearGradient id="paint0_linear_112_12658" x1="-64.5901" y1="78.1991" x2="143.019" y2="78.1987" gradientUnits="userSpaceOnUse">
<stop stop-color="#FF0844"/>
<stop offset="0.494792" stop-color="#FF5C6E"/>
<stop offset="1" stop-color="#FFB199"/>
</linearGradient>
</defs>
</svg>
