<svg width="12" height="10" viewBox="0 0 12 10" fill="none" xmlns="http://www.w3.org/2000/svg">
<path d="M11.122 5.49361L7.18453 9.43111C7.10244 9.51321 6.9911 9.55933 6.875 9.55933C6.7589 9.55933 6.64756 9.51321 6.56547 9.43111C6.48338 9.34902 6.43726 9.23768 6.43726 9.12158C6.43726 9.00548 6.48338 8.89414 6.56547 8.81205L9.75648 5.62158H1.1875C1.07147 5.62158 0.960188 5.57549 0.878141 5.49344C0.796094 5.41139 0.75 5.30011 0.75 5.18408C0.75 5.06805 0.796094 4.95677 0.878141 4.87472C0.960188 4.79267 1.07147 4.74658 1.1875 4.74658H9.75648L6.56547 1.55611C6.48338 1.47402 6.43726 1.36268 6.43726 1.24658C6.43726 1.13048 6.48338 1.01914 6.56547 0.93705C6.64756 0.854957 6.7589 0.808838 6.875 0.808838C6.9911 0.808838 7.10244 0.854957 7.18453 0.93705L11.122 4.87455C11.1627 4.91518 11.195 4.96343 11.217 5.01654C11.239 5.06966 11.2503 5.12659 11.2503 5.18408C11.2503 5.24158 11.239 5.29851 11.217 5.35162C11.195 5.40473 11.1627 5.45298 11.122 5.49361Z" fill="#216AE2"/>
</svg>
