<svg width="59" height="58" viewBox="0 0 59 58" fill="none" xmlns="http://www.w3.org/2000/svg">
<g clip-path="url(#clip0_116_14529)">
<g opacity="0.53" filter="url(#filter0_f_116_14529)">
<path d="M55.9194 30.1002C55.9194 33.4409 55.236 36.7488 53.9084 39.8352C52.5808 42.9216 50.6349 45.726 48.1817 48.0882C45.7286 50.4504 42.8163 52.3242 39.6111 53.6027C36.406 54.8811 32.9707 55.5391 29.5014 55.5391C26.0322 55.5391 22.5969 54.8811 19.3917 53.6027C16.1865 52.3242 13.2743 50.4504 10.8211 48.0882C8.368 45.726 6.42207 42.9216 5.09444 39.8352C3.76682 36.7488 3.0835 33.4409 3.0835 30.1002C3.0835 23.3533 5.86681 16.8829 10.8211 12.1121C15.7755 7.34142 22.495 4.66126 29.5014 4.66125C32.9707 4.66125 36.406 5.31925 39.6111 6.59768C42.8163 7.8761 45.7286 9.74992 48.1817 12.1121C50.6349 14.4744 52.5808 17.2787 53.9084 20.3651C55.236 23.4515 55.9194 26.7595 55.9194 30.1002Z" fill="black"/>
</g>
<path d="M56.9238 27.8539C56.9238 31.4552 56.2144 35.0213 54.8363 38.3485C53.4581 41.6757 51.4381 44.6988 48.8916 47.2453C46.345 49.7919 43.3219 51.8119 39.9947 53.1901C36.6675 54.5682 33.1014 55.2775 29.5001 55.2775C22.2269 55.2775 15.2516 52.3883 10.1086 47.2453C4.96568 42.1024 2.07642 35.1271 2.07642 27.8539C2.07642 20.5807 4.96568 13.6053 10.1086 8.46239C15.2516 3.31945 22.2269 0.430178 29.5001 0.430176C33.1014 0.430176 36.6675 1.13951 39.9947 2.51768C43.3219 3.89585 46.345 5.91587 48.8916 8.46239C51.4381 11.0089 53.4581 14.0321 54.8363 17.3593C56.2144 20.6865 56.9238 24.2525 56.9238 27.8539Z" fill="url(#paint0_linear_116_14529)" stroke="#CDCDCD" stroke-width="0.0814278" stroke-linecap="round" stroke-linejoin="round"/>
<path d="M54.7749 27.8539C54.7749 34.5572 52.1121 40.9859 47.3721 45.7259C42.6322 50.4658 36.2034 53.1287 29.5001 53.1287C22.7968 53.1287 16.3681 50.4658 11.6282 45.7259C6.88821 40.9859 4.22534 34.5572 4.22534 27.8539C4.22534 21.1506 6.88821 14.7219 11.6282 9.98192C16.3681 5.24197 22.7968 2.5791 29.5001 2.5791C36.2034 2.5791 42.6322 5.24197 47.3721 9.98192C52.1121 14.7219 54.7749 21.1506 54.7749 27.8539Z" fill="url(#paint1_radial_116_14529)"/>
<path d="M29.5001 3.89722C29.296 3.89722 29.1316 4.06156 29.1316 4.26571V8.51618C29.1316 8.72033 29.296 8.88467 29.5001 8.88467C29.7043 8.88467 29.8686 8.72033 29.8686 8.51618V4.26571C29.8686 4.06156 29.7043 3.89722 29.5001 3.89722ZM27.0894 4.04958C27.065 4.04695 27.0398 4.04695 27.0145 4.04989C26.8114 4.07107 26.665 4.25159 26.6862 4.45464L26.872 6.23285C26.8931 6.4359 27.0737 6.58231 27.2767 6.56111C27.4798 6.53993 27.6262 6.35941 27.605 6.15636L27.4194 4.37816C27.4008 4.20048 27.2603 4.06617 27.0894 4.04958ZM31.9277 4.05133C31.7568 4.06779 31.6162 4.20209 31.5975 4.37974L31.4105 6.1578C31.3891 6.36083 31.5355 6.54152 31.7386 6.56287C31.9416 6.58423 32.1221 6.43796 32.1435 6.23493L32.3305 4.45672C32.3519 4.25368 32.2054 4.07315 32.0024 4.0518C31.977 4.04918 31.9521 4.04916 31.9277 4.05133ZM24.613 4.40869C24.5885 4.40888 24.5635 4.41132 24.5386 4.41657C24.3389 4.45885 24.2121 4.65372 24.2544 4.85345L25.1347 9.01168C25.177 9.2114 25.3718 9.33816 25.5715 9.29588C25.7713 9.2536 25.898 9.05888 25.8558 8.85915L24.9755 4.70078C24.9384 4.52601 24.7847 4.40735 24.613 4.40869ZM34.4039 4.41219C34.2322 4.41044 34.0784 4.52945 34.0413 4.70418L33.158 8.86192C33.1155 9.06162 33.2422 9.25654 33.4419 9.29896C33.6416 9.34142 33.8365 9.21475 33.8789 9.01507L34.7622 4.85732C34.8047 4.65763 34.678 4.46271 34.4783 4.42029C34.4534 4.41504 34.4284 4.41219 34.4039 4.41219ZM22.2497 5.07506C22.202 5.07068 22.1527 5.07593 22.1042 5.09204C21.91 5.15516 21.8044 5.36212 21.8675 5.55628L22.42 7.25672C22.4831 7.45089 22.6903 7.55646 22.8844 7.49337C23.0786 7.43025 23.184 7.22314 23.1209 7.02898L22.5684 5.32854C22.5211 5.18291 22.3928 5.08723 22.2497 5.07506ZM36.7539 5.07593C36.6107 5.0881 36.4825 5.18382 36.4351 5.32944L35.8823 7.02972C35.8192 7.22387 35.9247 7.431 36.1188 7.49412C36.313 7.55724 36.5201 7.45174 36.5832 7.25763L37.136 5.55719C37.1991 5.36303 37.0937 5.15591 36.8995 5.0928C36.851 5.07704 36.8016 5.07191 36.7539 5.07593ZM19.9126 5.93029C19.8647 5.93116 19.8163 5.94167 19.7696 5.96242C19.5832 6.04532 19.4997 6.26221 19.5826 6.44876L21.309 10.3328C21.3919 10.5193 21.6088 10.6028 21.7953 10.5198C21.9818 10.4369 22.0654 10.22 21.9825 10.0335L20.256 6.14945C20.1938 6.00952 20.0562 5.9275 19.9126 5.93029ZM39.1173 5.94333C38.9737 5.94071 38.836 6.02221 38.7737 6.16201L37.042 10.0437C36.9589 10.2301 37.042 10.4472 37.2284 10.5303C37.4149 10.6135 37.6319 10.5304 37.7151 10.3439L39.4467 6.46228C39.5299 6.27584 39.4467 6.05879 39.2603 5.97562C39.2137 5.95487 39.1652 5.94438 39.1173 5.94333ZM17.7433 7.07807C17.6726 7.07282 17.5997 7.08858 17.5334 7.12692C17.3566 7.229 17.2965 7.45349 17.3985 7.63028L18.2925 9.17869C18.3946 9.35549 18.619 9.41563 18.7958 9.31355C18.9726 9.21147 19.0328 8.987 18.9307 8.81019L18.0367 7.2618C17.9729 7.15129 17.8612 7.08632 17.7433 7.07807ZM41.2569 7.07807C41.139 7.08595 41.0274 7.15126 40.9636 7.26177L40.0695 8.81016C39.9674 8.98697 40.0277 9.21144 40.2045 9.31352C40.3813 9.4156 40.6058 9.35546 40.7079 9.17866L41.6018 7.63026C41.7039 7.45346 41.6438 7.22898 41.467 7.1269C41.4007 7.08864 41.3276 7.07317 41.2569 7.07807ZM15.6369 8.39189C15.5659 8.39452 15.4949 8.41728 15.433 8.46219C15.2677 8.58207 15.2312 8.81159 15.3511 8.97684L17.8469 12.4173C17.9668 12.5826 18.1965 12.6191 18.3617 12.4993C18.527 12.3794 18.5635 12.1499 18.4436 11.9846L15.9476 8.54413C15.8727 8.44085 15.755 8.38786 15.6369 8.39189ZM43.3897 8.41063C43.2716 8.40625 43.1539 8.45921 43.0788 8.56235L40.5783 11.9995C40.4582 12.1646 40.4944 12.3942 40.6595 12.5143C40.8246 12.6344 41.0542 12.5983 41.1743 12.4332L43.6747 8.99609C43.7948 8.831 43.7585 8.60139 43.5935 8.48128C43.5316 8.43629 43.4606 8.41316 43.3897 8.41063ZM13.754 9.97095C13.6599 9.9657 13.5639 9.99713 13.4881 10.0654C13.3363 10.202 13.3242 10.4341 13.4608 10.5858L14.6571 11.9147C14.7936 12.0665 15.0257 12.0787 15.1774 11.942C15.3292 11.8055 15.3414 11.5732 15.2047 11.4215L14.0086 10.0927C13.9403 10.0168 13.8481 9.9759 13.754 9.97095ZM45.2489 9.97358C45.1548 9.97883 45.0626 10.0195 44.9943 10.0954L43.798 11.424C43.6614 11.5757 43.6735 11.8079 43.8252 11.9445C43.9769 12.0811 44.209 12.0689 44.3456 11.9172L45.542 10.5886C45.6787 10.4369 45.6664 10.2047 45.5147 10.0681C45.4388 9.99981 45.343 9.96865 45.2489 9.97358ZM11.9494 11.7044C11.8553 11.7096 11.7632 11.7504 11.6949 11.8262C11.5583 11.978 11.5705 12.21 11.7222 12.3466L14.8812 15.1904C15.033 15.327 15.265 15.3147 15.4016 15.163C15.5382 15.0113 15.5261 14.7793 15.3744 14.6427L12.2152 11.7989C12.1393 11.7306 12.0435 11.6994 11.9494 11.7044ZM47.0623 11.7168C46.9682 11.7116 46.8721 11.7429 46.7962 11.8111L43.6353 14.6527C43.4835 14.7892 43.471 15.0212 43.6075 15.1731C43.7439 15.3249 43.9762 15.3372 44.128 15.2007L47.2891 12.3592C47.4409 12.2227 47.4532 11.9906 47.3167 11.8388C47.2484 11.7629 47.1563 11.7218 47.0623 11.7168ZM10.4487 13.634C10.3306 13.6297 10.2128 13.6829 10.1378 13.7861C10.0178 13.9512 10.0542 14.1807 10.2194 14.3007L11.6658 15.3517C11.831 15.4717 12.0605 15.4354 12.1805 15.2702C12.3005 15.1051 12.2642 14.8754 12.0991 14.7554L10.6526 13.7045C10.5907 13.6595 10.5196 13.6366 10.4487 13.634ZM48.5615 13.6474C48.4906 13.6501 48.4196 13.6727 48.3576 13.7177L46.9105 14.7677C46.7453 14.8876 46.7088 15.1173 46.8286 15.2825C46.9485 15.4478 47.178 15.4842 47.3433 15.3643L48.7905 14.3143C48.9558 14.1944 48.9921 13.9649 48.8723 13.7997C48.7973 13.6964 48.6797 13.6434 48.5615 13.6474ZM9.04629 15.6924C8.92838 15.7002 8.81683 15.7655 8.75302 15.876C8.65095 16.0528 8.71109 16.2773 8.88789 16.3794L12.5688 18.5046C12.7456 18.6067 12.9701 18.5466 13.0722 18.3698C13.1743 18.193 13.1141 17.9685 12.9373 17.8664L9.25638 15.7412C9.19011 15.7029 9.11704 15.6875 9.04629 15.6924ZM49.9539 15.6924C49.8832 15.6871 49.8101 15.7029 49.7438 15.7412L46.0629 17.8664C45.8861 17.9685 45.8259 18.193 45.928 18.3698C46.0301 18.5466 46.2546 18.6067 46.4314 18.5047L50.1125 16.3794C50.2893 16.2774 50.3494 16.0529 50.2473 15.8761C50.1835 15.7656 50.0718 15.7006 49.9539 15.6924ZM7.98598 17.8863C7.84238 17.8828 7.70467 17.965 7.64229 18.1048C7.55913 18.2913 7.64224 18.5083 7.8287 18.5915L9.46169 19.3199C9.64815 19.403 9.8652 19.3199 9.94836 19.1335C10.0315 18.947 9.94825 18.73 9.76181 18.6468L8.12896 17.9184C8.08238 17.8976 8.03384 17.8873 7.98598 17.8863ZM51.0214 17.9014C50.9735 17.9023 50.9249 17.9128 50.8782 17.9336L49.2449 18.6607C49.0584 18.7438 48.975 18.9607 49.058 19.1472C49.1411 19.3337 49.3582 19.4171 49.5447 19.3341L51.178 18.6068C51.3645 18.5238 51.4478 18.3068 51.3647 18.1203C51.3025 17.9804 51.165 17.8986 51.0214 17.9014ZM7.04097 20.1794C6.89785 20.1914 6.76953 20.287 6.7221 20.4325C6.65889 20.6267 6.76412 20.8338 6.95827 20.8971L10.9996 22.2139C11.1937 22.2771 11.4009 22.1718 11.4642 21.9778C11.5274 21.7837 11.4221 21.5765 11.228 21.5132L7.18666 20.1964C7.13816 20.1805 7.08868 20.1753 7.04097 20.1794ZM51.9646 20.1951C51.9169 20.1907 51.8677 20.196 51.8191 20.2121L47.7768 21.5261C47.5827 21.5892 47.4772 21.7963 47.5403 21.9905C47.6035 22.1846 47.8106 22.2901 48.0047 22.227L52.0469 20.913C52.241 20.8499 52.3466 20.6427 52.2835 20.4486C52.2361 20.303 52.1077 20.2073 51.9646 20.1951ZM6.45221 22.5864C6.28054 22.5847 6.12658 22.7038 6.08944 22.8786C6.04699 23.0783 6.17366 23.2732 6.37333 23.3156L8.12228 23.6873C8.32197 23.7298 8.51686 23.6031 8.55931 23.4034C8.60177 23.2037 8.47509 23.0088 8.27543 22.9664L6.52664 22.5947C6.50169 22.5894 6.47673 22.5864 6.45221 22.5864ZM52.5488 22.5899C52.5243 22.5901 52.4995 22.5934 52.4746 22.5978L50.7256 22.9693C50.5259 23.0118 50.3993 23.2065 50.4417 23.4062C50.4842 23.6059 50.6791 23.7327 50.8787 23.6903L52.6275 23.3187C52.8272 23.2763 52.954 23.0814 52.9116 22.8817C52.8745 22.707 52.7204 22.5885 52.5488 22.5899ZM6.00658 25.0076C5.83569 25.024 5.69504 25.1581 5.67627 25.3357C5.65482 25.5387 5.80086 25.7195 6.00388 25.741L10.2308 26.1879C10.4338 26.2093 10.6146 26.0631 10.636 25.8601C10.6575 25.6571 10.5113 25.4763 10.3083 25.4549L6.08134 25.008C6.05595 25.0053 6.03101 25.0053 6.00658 25.0076ZM52.9976 25.0394C52.9732 25.0368 52.948 25.0368 52.9227 25.0397L48.6952 25.4809C48.4922 25.5021 48.3458 25.6826 48.367 25.8856C48.3882 26.0887 48.5687 26.2351 48.7717 26.2139L52.9991 25.7727C53.2022 25.7515 53.3486 25.571 53.3274 25.368C53.3088 25.1903 53.1685 25.056 52.9976 25.0394ZM5.93501 27.4861C5.73086 27.4861 5.56653 27.6504 5.56653 27.8546C5.56653 28.0587 5.73086 28.2231 5.93501 28.2231H7.72293C7.92708 28.2231 8.09158 28.0587 8.09158 27.8546C8.09158 27.6504 7.92708 27.4861 7.72293 27.4861H5.93501ZM51.2773 27.4861C51.0731 27.4861 50.9088 27.6504 50.9088 27.8546C50.9088 28.0587 51.0731 28.2231 51.2773 28.2231H53.0652C53.2693 28.2231 53.4337 28.0587 53.4337 27.8546C53.4337 27.6504 53.2693 27.4861 53.0652 27.4861H51.2773ZM10.3033 29.4949C10.2789 29.4923 10.254 29.4923 10.2286 29.4952L6.001 29.9364C5.79795 29.9576 5.65158 30.1381 5.67275 30.3411C5.69393 30.5442 5.87445 30.6906 6.07749 30.6694L10.3051 30.2282C10.5081 30.207 10.6545 30.0265 10.6333 29.8234C10.6148 29.6458 10.4742 29.5115 10.3033 29.4949ZM48.6946 29.521C48.5237 29.5373 48.3831 29.6714 48.3643 29.8491C48.3429 30.0521 48.4889 30.2329 48.6919 30.2543L52.9189 30.7012C53.1219 30.7227 53.3026 30.5764 53.3241 30.3734C53.3455 30.1704 53.1993 29.9897 52.9963 29.9682L48.7696 29.5213C48.7442 29.5187 48.7191 29.5187 48.6946 29.521ZM8.19607 32.0104C8.17156 32.0106 8.14661 32.013 8.12166 32.0183L6.37271 32.3898C6.17301 32.4323 6.04642 32.6271 6.08882 32.8268C6.13128 33.0265 6.32617 33.1531 6.52587 33.1107L8.27482 32.7394C8.47451 32.6969 8.60111 32.502 8.55869 32.3023C8.52157 32.1276 8.36774 32.009 8.19607 32.0104ZM50.8036 32.0139C50.632 32.0122 50.4782 32.1312 50.441 32.3059C50.3986 32.5056 50.5251 32.7005 50.7248 32.743L52.4737 33.1146C52.6734 33.1571 52.8683 33.0306 52.9108 32.8309C52.9532 32.6312 52.8265 32.4361 52.6269 32.3937L50.8781 32.022C50.8531 32.0168 50.8282 32.0139 50.8036 32.0139ZM11.1411 33.4653C11.0934 33.4609 11.0442 33.4662 10.9956 33.4823L6.95335 34.7963C6.75919 34.8594 6.65374 35.0665 6.71685 35.2607C6.77997 35.4548 6.98709 35.5602 7.18125 35.4971L11.2234 34.1832C11.4175 34.12 11.5231 33.9129 11.46 33.7188C11.4127 33.5732 11.2843 33.4774 11.1411 33.4653ZM47.8551 33.4783C47.7119 33.4903 47.5836 33.586 47.5362 33.7315C47.473 33.9256 47.5782 34.1328 47.7724 34.1961L51.8137 35.5129C52.0078 35.5761 52.215 35.4708 52.2783 35.2768C52.3416 35.0827 52.2362 34.8755 52.0421 34.8122L48.0008 33.4954C47.9523 33.4795 47.9028 33.4743 47.8551 33.4783ZM9.59863 36.3433C9.55074 36.3441 9.50228 36.3545 9.45565 36.3752L7.82217 37.1025C7.63567 37.1855 7.55243 37.4025 7.63546 37.589C7.71854 37.7755 7.93546 37.8587 8.12195 37.7757L9.75545 37.0486C9.94195 36.9656 10.0252 36.7486 9.94216 36.5621C9.87991 36.4222 9.74223 36.3404 9.59863 36.3433ZM49.3957 36.3573C49.2521 36.3538 49.1144 36.436 49.052 36.5758C48.9688 36.7622 49.0519 36.9793 49.2384 37.0625L50.8712 37.7908C51.0577 37.874 51.2747 37.7909 51.3579 37.6045C51.4411 37.418 51.358 37.201 51.1715 37.1178L49.5387 36.3894C49.4921 36.3686 49.4436 36.3582 49.3957 36.3573ZM12.7789 37.1558C12.7082 37.1506 12.6351 37.1663 12.5688 37.2047L8.88789 39.3299C8.71109 39.432 8.65095 39.6565 8.75302 39.8332C8.8551 40.01 9.07958 40.0702 9.25638 39.9681L12.9373 37.843C13.1141 37.741 13.1743 37.5163 13.0722 37.3395C13.0084 37.229 12.8968 37.1641 12.7789 37.1558ZM46.2214 37.1558C46.1035 37.1637 45.9918 37.229 45.928 37.3395C45.8259 37.5163 45.8861 37.7409 46.0629 37.843L49.7438 39.9681C49.9206 40.0702 50.1453 40.01 50.2473 39.8332C50.3494 39.6564 50.2893 39.4319 50.1125 39.3299L46.4314 37.2046C46.3651 37.1664 46.2922 37.1509 46.2214 37.1558ZM11.8608 40.2746C11.7899 40.2772 11.7189 40.3 11.6569 40.345L10.2098 41.395C10.0446 41.5149 10.008 41.7444 10.1279 41.9097C10.2478 42.0749 10.4773 42.1114 10.6425 41.9915L12.0898 40.9415C12.255 40.8217 12.2916 40.5921 12.1717 40.4269C12.0968 40.3236 11.9789 40.2705 11.8608 40.2746ZM47.1307 40.287C47.0125 40.2826 46.8947 40.3358 46.8197 40.439C46.6997 40.6042 46.7361 40.8338 46.9013 40.9538L48.3478 42.0048C48.5129 42.1248 48.7424 42.0884 48.8624 41.9232C48.9824 41.758 48.9461 41.5285 48.781 41.4085L47.3346 40.3576C47.2727 40.3126 47.2015 40.2895 47.1307 40.287ZM15.1383 40.4142C15.0442 40.409 14.9483 40.4403 14.8724 40.5085L11.7113 43.3501C11.5595 43.4865 11.5472 43.7186 11.6836 43.8704C11.8201 44.0223 12.0522 44.0346 12.204 43.8981L15.3651 41.0566C15.5169 40.9201 15.5292 40.688 15.3927 40.5362C15.3245 40.4603 15.2323 40.4192 15.1383 40.4142ZM43.8532 40.4244C43.7591 40.4296 43.6669 40.4703 43.5986 40.5462C43.462 40.6979 43.4742 40.93 43.6259 41.0666L46.7849 43.9103C46.9366 44.0469 47.1688 44.0347 47.3054 43.883C47.442 43.7313 47.4298 43.4992 47.2781 43.3627L44.1189 40.5189C44.043 40.4506 43.9473 40.4194 43.8532 40.4244ZM18.1371 43.1239C18.019 43.1195 17.9011 43.1724 17.826 43.2756L15.3256 46.7128C15.2055 46.8779 15.2417 47.1075 15.4067 47.2276C15.5718 47.3477 15.8014 47.3115 15.9215 47.1464L18.4219 43.7093C18.542 43.5442 18.5059 43.3146 18.3408 43.1945C18.2789 43.1495 18.208 43.1263 18.1371 43.1239ZM40.8426 43.1393C40.7717 43.1419 40.7007 43.1646 40.6387 43.2096C40.4734 43.3295 40.4369 43.559 40.5567 43.7243L43.0525 47.1647C43.1724 47.33 43.4019 47.3665 43.5672 47.2467C43.7324 47.1268 43.769 46.8973 43.6491 46.732L41.1533 43.2915C41.0784 43.1883 40.9607 43.1353 40.8426 43.1393ZM14.9093 43.6702C14.8152 43.6754 14.7229 43.7161 14.6546 43.792L13.4583 45.1206C13.3217 45.2723 13.3338 45.5045 13.4856 45.6411C13.6373 45.7777 13.8693 45.7655 14.0059 45.6137L15.2024 44.2851C15.339 44.1334 15.3267 43.9012 15.1751 43.7646C15.0992 43.6963 15.0033 43.6652 14.9093 43.6702ZM44.0887 43.6719C43.9947 43.6667 43.8988 43.6981 43.823 43.7664C43.6712 43.903 43.659 44.135 43.7956 44.2868L44.9917 45.6157C45.1283 45.7674 45.3603 45.7796 45.5121 45.643C45.6638 45.5064 45.676 45.2742 45.5394 45.1225L44.3433 43.7937C44.275 43.7178 44.1828 43.6769 44.0887 43.6719ZM21.6288 45.1459C21.4852 45.1424 21.3477 45.2246 21.2853 45.3644L19.5535 49.2461C19.4703 49.4325 19.5535 49.6496 19.7399 49.7327C19.9263 49.8159 20.1434 49.7328 20.2266 49.5463L21.9583 45.6647C22.0415 45.4782 21.9584 45.2612 21.7719 45.178C21.7254 45.1572 21.6767 45.1469 21.6288 45.1459ZM37.348 45.1566C37.3001 45.1575 37.2515 45.1678 37.2049 45.1885C37.0184 45.2714 36.9349 45.4883 37.0179 45.6749L38.7442 49.5589C38.8271 49.7454 39.0442 49.8289 39.2307 49.7459C39.4172 49.663 39.5007 49.4462 39.4177 49.2596L37.6914 45.3756C37.6292 45.2357 37.4916 45.1538 37.348 45.1566ZM18.5857 46.346C18.4678 46.3539 18.3563 46.4192 18.2925 46.5297L17.3985 48.0781C17.2965 48.2549 17.3566 48.4794 17.5334 48.5815C17.7102 48.6835 17.9347 48.6234 18.0367 48.4466L18.9307 46.8982C19.0328 46.7214 18.9726 46.4969 18.7958 46.3948C18.7296 46.3566 18.6565 46.3411 18.5857 46.346ZM40.4144 46.346C40.3437 46.3408 40.2708 46.3566 40.2045 46.3949C40.0277 46.4969 39.9676 46.7214 40.0697 46.8982L40.9636 48.4466C41.0657 48.6234 41.2902 48.6836 41.467 48.5815C41.6438 48.4794 41.7039 48.2549 41.6018 48.0781L40.7079 46.5297C40.6441 46.4192 40.5324 46.3543 40.4144 46.346ZM25.4841 46.4015C25.3124 46.3998 25.1586 46.5188 25.1214 46.6935L24.2381 50.8513C24.1957 51.051 24.3224 51.2459 24.522 51.2883C24.7217 51.3308 24.9166 51.2041 24.9591 51.0044L25.8424 46.8467C25.8848 46.647 25.7581 46.4521 25.5585 46.4096C25.5335 46.4044 25.5086 46.4015 25.4841 46.4015ZM33.5031 46.4042C33.4786 46.4043 33.4538 46.4068 33.4289 46.412C33.2291 46.4543 33.1024 46.649 33.1446 46.8488L34.0249 51.0071C34.0672 51.2069 34.2621 51.3336 34.4618 51.2913C34.6615 51.2491 34.7883 51.0542 34.746 50.8545L33.8656 46.6964C33.8286 46.5216 33.6748 46.4028 33.5031 46.4042ZM29.5001 46.8235C29.296 46.8235 29.1316 46.9879 29.1316 47.192V51.4425C29.1316 51.6467 29.296 51.811 29.5001 51.811C29.7043 51.811 29.8686 51.6467 29.8686 51.4425V47.192C29.8686 46.9879 29.7043 46.8235 29.5001 46.8235ZM22.7359 48.197C22.5927 48.2092 22.4643 48.3049 22.417 48.4505L21.8643 50.1509C21.8012 50.3451 21.9067 50.5522 22.1008 50.6153C22.295 50.6785 22.5021 50.5728 22.5652 50.3787L23.1179 48.6784C23.181 48.4843 23.0755 48.2771 22.8814 48.214C22.8329 48.1983 22.7836 48.193 22.7359 48.197ZM36.2615 48.1979C36.2138 48.1935 36.1645 48.1987 36.116 48.2148C35.9218 48.2779 35.8162 48.485 35.8793 48.6792L36.4318 50.3796C36.4949 50.5738 36.702 50.6792 36.8962 50.6161C37.0904 50.553 37.1959 50.346 37.1328 50.1519L36.5802 48.4514C36.5328 48.3058 36.4046 48.21 36.2615 48.1979ZM27.187 49.1449C27.0162 49.1614 26.8754 49.2956 26.8567 49.4732L26.6698 51.2514C26.6485 51.4544 26.7948 51.635 26.9978 51.6563C27.2008 51.6777 27.3815 51.5314 27.4029 51.3284L27.5897 49.5503C27.6111 49.3473 27.4648 49.1666 27.2618 49.1453C27.2364 49.1426 27.2115 49.1426 27.187 49.1449ZM31.7984 49.1467C31.7739 49.1441 31.7488 49.1441 31.7234 49.147C31.5204 49.1682 31.374 49.3487 31.3952 49.5518L31.5809 51.3301C31.6021 51.5332 31.7826 51.6794 31.9857 51.6582C32.1887 51.637 32.3351 51.4565 32.3139 51.2535L32.1283 49.4753C32.1098 49.2976 31.9692 49.1633 31.7984 49.1467Z" fill="#F4F2F3"/>
<g opacity="0.409" filter="url(#filter1_f_116_14529)">
<path d="M46.7707 13.1141L26.6098 24.8277L13.8625 44.8954L32.5107 31.083L46.7707 13.1141Z" fill="black"/>
</g>
<path d="M32.3895 30.8797L26.6107 24.828L47.1104 11.0378L32.3895 30.8797Z" fill="#FF5150"/>
<path d="M32.3894 30.8798L26.6106 24.828L11.8898 44.6699L32.3894 30.8798Z" fill="#F1F1F1"/>
<path opacity="0.243" d="M11.8899 44.6698L32.3895 30.8797L47.1104 11.0378L11.8899 44.6698Z" fill="black"/>
</g>
<defs>
<filter id="filter0_f_116_14529" x="1.00959" y="2.58735" width="56.9836" height="55.0256" filterUnits="userSpaceOnUse" color-interpolation-filters="sRGB">
<feFlood flood-opacity="0" result="BackgroundImageFix"/>
<feBlend mode="normal" in="SourceGraphic" in2="BackgroundImageFix" result="shape"/>
<feGaussianBlur stdDeviation="1.03695" result="effect1_foregroundBlur_116_14529"/>
</filter>
<filter id="filter1_f_116_14529" x="13.2731" y="12.5247" width="34.0871" height="32.9602" filterUnits="userSpaceOnUse" color-interpolation-filters="sRGB">
<feFlood flood-opacity="0" result="BackgroundImageFix"/>
<feBlend mode="normal" in="SourceGraphic" in2="BackgroundImageFix" result="shape"/>
<feGaussianBlur stdDeviation="0.29473" result="effect1_foregroundBlur_116_14529"/>
</filter>
<linearGradient id="paint0_linear_116_14529" x1="29.4991" y1="55.277" x2="29.4991" y2="0.430032" gradientUnits="userSpaceOnUse">
<stop stop-color="#BDBDBD"/>
<stop offset="1" stop-color="white"/>
</linearGradient>
<radialGradient id="paint1_radial_116_14529" cx="0" cy="0" r="1" gradientUnits="userSpaceOnUse" gradientTransform="translate(29.6141 24.1685) scale(27.4236 27.4236)">
<stop stop-color="#06C2E7"/>
<stop offset="0.25" stop-color="#0DB8EC"/>
<stop offset="0.5" stop-color="#12AEF1"/>
<stop offset="0.75" stop-color="#1F86F9"/>
<stop offset="1" stop-color="#107DDD"/>
</radialGradient>
<clipPath id="clip0_116_14529">
<rect width="57.925" height="57.608" fill="white" transform="translate(0.537598 0.380615)"/>
</clipPath>
</defs>
</svg>
