<svg width="108" height="109" viewBox="0 0 108 109" fill="none" xmlns="http://www.w3.org/2000/svg">
<path fill-rule="evenodd" clip-rule="evenodd" d="M59.0622 -22.8912L-30.3753 66.5463L-31.5685 65.353L57.869 -24.0845L59.0622 -22.8912ZM-65.8126 76.6713L23.6249 -12.7662L22.4317 -13.9595L-67.0058 75.478L-65.8126 76.6713ZM-59.0626 81.7339L30.3749 -7.70361L29.1817 -8.89685L-60.2558 80.5406L-59.0626 81.7339ZM5.06222 120.832L121.786 4.10871L120.593 2.91546L3.86897 119.639L5.06222 120.832ZM64.1247 -12.7662L-25.3128 76.6713L-26.506 75.478L62.9315 -13.9595L64.1247 -12.7662ZM-16.8753 103.957L99.8483 -12.7663L98.655 -13.9595L-18.0685 102.764L-16.8753 103.957ZM133.598 12.5462L16.8747 129.27L15.6815 128.076L132.405 11.353L133.598 12.5462ZM10.1247 176.52L126.848 59.7962L125.655 58.603L8.93147 175.326L10.1247 176.52ZM74.2497 -6.01622L-15.1878 83.4213L-16.381 82.228L73.0565 -7.20947L74.2497 -6.01622ZM-3.37528 110.707L113.348 -6.01629L112.155 -7.20954L-4.56852 109.514L-3.37528 110.707ZM143.723 24.3587L26.9997 141.082L25.8065 139.889L142.53 23.1655L143.723 24.3587ZM21.9374 181.582L138.661 64.8587L137.468 63.6655L20.7441 180.389L21.9374 181.582Z" fill="url(#paint0_linear_112_12616)"/>
<defs>
<linearGradient id="paint0_linear_112_12616" x1="-67.0059" y1="78.749" x2="143.019" y2="78.9889" gradientUnits="userSpaceOnUse">
<stop stop-color="#F36CFF"/>
<stop offset="1" stop-color="#9781FF"/>
</linearGradient>
</defs>
</svg>
