<svg width="108" height="108" viewBox="0 0 108 108" fill="none" xmlns="http://www.w3.org/2000/svg">
<path fill-rule="evenodd" clip-rule="evenodd" d="M59.0622 -23.6253L-30.3753 65.8122L-31.5685 64.619L57.869 -24.8185L59.0622 -23.6253ZM-65.8126 75.9372L23.6249 -13.5003L22.4317 -14.6935L-67.0058 74.744L-65.8126 75.9372ZM-59.0626 80.9998L30.3749 -8.43768L29.1817 -9.63092L-60.2558 79.8066L-59.0626 80.9998ZM5.06222 120.098L121.786 3.37464L120.593 2.18139L3.86897 118.905L5.06222 120.098ZM64.1247 -13.5003L-25.3128 75.9372L-26.506 74.744L62.9315 -14.6935L64.1247 -13.5003ZM-16.8753 103.223L99.8483 -13.5004L98.655 -14.6936L-18.0685 102.03L-16.8753 103.223ZM133.598 11.8121L16.8747 128.536L15.6815 127.342L132.405 10.6189L133.598 11.8121ZM10.1247 175.786L126.848 59.0621L125.655 57.8689L8.93147 174.592L10.1247 175.786ZM74.2497 -6.75029L-15.1878 82.6872L-16.381 81.494L73.0565 -7.94353L74.2497 -6.75029ZM-3.37528 109.973L113.348 -6.75036L112.155 -7.94361L-4.56852 108.78L-3.37528 109.973ZM143.723 23.6246L26.9997 140.348L25.8065 139.155L142.53 22.4314L143.723 23.6246ZM21.9374 180.848L138.661 64.1246L137.468 62.9314L20.7441 179.655L21.9374 180.848Z" fill="url(#paint0_linear_112_12707)"/>
<defs>
<linearGradient id="paint0_linear_112_12707" x1="-67.0058" y1="-80.5201" x2="490.351" y2="-51.4732" gradientUnits="userSpaceOnUse">
<stop stop-color="#22A2FF"/>
<stop offset="0.5" stop-color="#2262FF"/>
<stop offset="1" stop-color="#2222FF"/>
</linearGradient>
</defs>
</svg>
