<svg width="39" height="32" viewBox="0 0 39 32" fill="none" xmlns="http://www.w3.org/2000/svg">
<g clip-path="url(#clip0_138_934)">
<path d="M0.817627 9.89871H38.5333V27.185C38.5333 27.8042 38.4113 28.4172 38.1744 28.9892C37.9375 29.5612 37.5902 30.0809 37.1524 30.5187C36.7146 30.9564 36.1949 31.3037 35.6229 31.5406C35.051 31.7776 34.4379 31.8995 33.8188 31.8995H5.53208C4.28173 31.8995 3.08259 31.4028 2.19846 30.5187C1.31433 29.6345 0.817627 28.4354 0.817627 27.185L0.817627 9.89871Z" fill="#C6C6C6"/>
<path fill-rule="evenodd" clip-rule="evenodd" d="M5.53232 0.469879C4.28197 0.469879 3.08283 0.966579 2.1987 1.85071C1.31457 2.73484 0.817871 3.93398 0.817871 5.18433L0.817871 9.89879H38.5335V5.18433C38.5335 4.56522 38.4116 3.95217 38.1746 3.38019C37.9377 2.80821 37.5904 2.28849 37.1527 1.85071C36.7149 1.41293 36.1952 1.06567 35.6232 0.828746C35.0512 0.591822 34.4382 0.469879 33.819 0.469879L5.53232 0.469879ZM5.53232 6.75582C5.94911 6.75582 6.34882 6.59025 6.64353 6.29554C6.93824 6.00083 7.10381 5.60112 7.10381 5.18433C7.10381 4.76755 6.93824 4.36784 6.64353 4.07313C6.34882 3.77841 5.94911 3.61285 5.53232 3.61285C5.11554 3.61285 4.71583 3.77841 4.42112 4.07313C4.12641 4.36784 3.96084 4.76755 3.96084 5.18433C3.96084 5.60112 4.12641 6.00083 4.42112 6.29554C4.71583 6.59025 5.11554 6.75582 5.53232 6.75582ZM10.2468 6.75582C10.6636 6.75582 11.0633 6.59025 11.358 6.29554C11.6527 6.00083 11.8183 5.60112 11.8183 5.18433C11.8183 4.76755 11.6527 4.36784 11.358 4.07313C11.0633 3.77841 10.6636 3.61285 10.2468 3.61285C9.82999 3.61285 9.43028 3.77841 9.13557 4.07313C8.84086 4.36784 8.67529 4.76755 8.67529 5.18433C8.67529 5.60112 8.84086 6.00083 9.13557 6.29554C9.43028 6.59025 9.82999 6.75582 10.2468 6.75582ZM16.5327 5.18433C16.5327 5.60112 16.3671 6.00083 16.0724 6.29554C15.7777 6.59025 15.378 6.75582 14.9612 6.75582C14.5444 6.75582 14.1447 6.59025 13.85 6.29554C13.5553 6.00083 13.3897 5.60112 13.3897 5.18433C13.3897 4.76755 13.5553 4.36784 13.85 4.07313C14.1447 3.77841 14.5444 3.61285 14.9612 3.61285C15.378 3.61285 15.7777 3.77841 16.0724 4.07313C16.3671 4.36784 16.5327 4.76755 16.5327 5.18433Z" fill="#717171"/>
</g>
<defs>
<clipPath id="clip0_138_934">
<rect width="38.1646" height="31.4297" fill="white" transform="translate(0.817871 0.469879)"/>
</clipPath>
</defs>
</svg>
