<svg width="80" height="80" viewBox="0 0 80 80" fill="none" xmlns="http://www.w3.org/2000/svg">
<path d="M73.7498 25H75.6248C78.3348 25 80.4898 22.5025 79.9023 19.6963C79.4748 17.6525 77.5698 16.25 75.481 16.25H66.2498C64.8685 16.25 63.7498 15.1313 63.7498 13.75C63.7498 12.3687 64.8685 11.25 66.2498 11.25H70.481C72.5685 11.25 74.4748 9.8475 74.9023 7.80375C75.4898 4.9975 73.3348 2.5 70.6248 2.5H42.5073H40.6248H10.6248C8.21852 2.5 6.24977 4.46875 6.24977 6.875C6.24977 9.28125 8.21852 11.25 10.6248 11.25H12.4998C13.881 11.25 14.9998 12.3687 14.9998 13.75C14.9998 15.1313 13.881 16.25 12.4998 16.25H5.76852C3.68102 16.25 1.77477 17.6525 1.34727 19.6963C0.759768 22.5025 2.91477 25 5.62477 25H22.4998V40H5.76852C3.68102 40 1.77477 41.4025 1.34727 43.4463C0.759768 46.2525 2.91477 48.75 5.62477 48.75H6.24977C7.63102 48.75 8.74977 49.8688 8.74977 51.25C8.74977 52.6312 7.63102 53.75 6.24977 53.75H5.62477C2.91477 53.75 0.759768 56.2475 1.34727 59.0537C1.77477 61.0975 3.68102 62.5 5.76852 62.5H12.4998C13.881 62.5 14.9998 63.6188 14.9998 65C14.9998 66.3812 13.881 67.5 12.4998 67.5H10.7685C8.68102 67.5 6.77477 68.9025 6.34727 70.9463C5.75977 73.7525 7.91477 76.25 10.6248 76.25H38.7423H40.6248H69.3748C71.781 76.25 73.7498 74.2812 73.7498 71.875C73.7498 69.4688 71.781 67.5 69.3748 67.5H68.7498C67.3685 67.5 66.2498 66.3812 66.2498 65C66.2498 63.6188 67.3685 62.5 68.7498 62.5H74.231C76.3185 62.5 78.2248 61.0975 78.6523 59.0537C79.2398 56.2475 77.0848 53.75 74.3748 53.75H58.7498V38.75H74.231C76.3185 38.75 78.2248 37.3475 78.6523 35.3037C79.2398 32.4975 77.0848 30 74.3748 30H73.7498C72.3685 30 71.2498 28.8813 71.2498 27.5C71.2498 26.1187 72.3685 25 73.7498 25Z" fill="#E7FAEA"/>
<path d="M40 7.5C22.7437 7.5 8.75 21.4937 8.75 38.75C8.75 56.0062 22.7437 70 40 70C57.2562 70 71.25 56.0062 71.25 38.75C71.25 21.4937 57.2562 7.5 40 7.5ZM40 50C33.7862 50 28.75 44.9637 28.75 38.75C28.75 32.5362 33.7862 27.5 40 27.5C46.2137 27.5 51.25 32.5362 51.25 38.75C51.25 44.9637 46.2137 50 40 50Z" fill="url(#paint0_linear_7545_6982)"/>
<path d="M40 7.5V27.5C46.2138 27.5 51.25 32.5362 51.25 38.75H71.25C71.25 21.565 57.185 7.5 40 7.5Z" fill="url(#paint1_linear_7545_6982)"/>
<path d="M51.2492 38.75C51.2492 42.3375 49.5642 45.525 46.9492 47.585L59.2705 63.3175C66.5542 57.5962 71.2492 48.73 71.2492 38.75H51.2492Z" fill="url(#paint2_linear_7545_6982)"/>
<defs>
<linearGradient id="paint0_linear_7545_6982" x1="43.7133" y1="7.5" x2="43.7133" y2="70" gradientUnits="userSpaceOnUse">
<stop stop-color="#00D772"/>
<stop offset="0.746" stop-color="#00B26E"/>
<stop offset="1" stop-color="#00B26E"/>
</linearGradient>
<linearGradient id="paint1_linear_7545_6982" x1="57.4817" y1="7.5" x2="57.4817" y2="38.75" gradientUnits="userSpaceOnUse">
<stop stop-color="#00B25F"/>
<stop offset="1" stop-color="#00774A"/>
</linearGradient>
<linearGradient id="paint2_linear_7545_6982" x1="60.543" y1="38.75" x2="60.543" y2="63.3175" gradientUnits="userSpaceOnUse">
<stop stop-color="#00B25F"/>
<stop offset="0.0001" stop-color="#00502A"/>
<stop offset="1" stop-color="#006941"/>
</linearGradient>
</defs>
</svg>
