<svg width="81" height="80" viewBox="0 0 81 80" fill="none" xmlns="http://www.w3.org/2000/svg">
<g clip-path="url(#clip0_7545_6966)">
<path d="M74.4138 67.5C73.0326 67.5 71.9138 66.3812 71.9138 65C71.9138 63.6188 73.0326 62.5 74.4138 62.5H76.2888C78.6951 62.5 80.6638 60.5312 80.6638 58.125C80.6638 55.7188 78.6951 53.75 76.2888 53.75H63.1638C61.4376 53.75 60.0388 52.3512 60.0388 50.625C60.0388 48.8988 61.4376 47.5 63.1638 47.5H73.1638C75.2263 47.5 76.9138 45.8125 76.9138 43.75C76.9138 41.6875 75.2263 40 73.1638 40H53.1638V32.5H75.6638C78.5826 32.5 80.9388 29.965 80.6376 26.9875C80.3763 24.3925 78.0351 22.5 75.4276 22.5H74.4138C73.0326 22.5 71.9138 21.3813 71.9138 20C71.9138 18.6187 73.0326 17.5 74.4138 17.5H74.8601C76.4951 17.5 77.9838 16.3238 78.1476 14.6975C78.3351 12.8263 76.8713 11.25 75.0388 11.25H56.2888C55.2538 11.25 54.4138 10.41 54.4138 9.375C54.4138 8.34 55.2538 7.5 56.2888 7.5H61.1101C62.7451 7.5 64.2338 6.32375 64.3976 4.6975C64.5851 2.82625 63.1213 1.25 61.2888 1.25H20.2176C18.5826 1.25 17.0938 2.42625 16.9301 4.0525C16.7426 5.92375 18.2063 7.5 20.0388 7.5H24.4138C25.7951 7.5 26.9138 8.61875 26.9138 10C26.9138 11.3813 25.7951 12.5 24.4138 12.5H8.40007C5.79257 12.5 3.45257 14.3925 3.19007 16.9875C2.88882 19.965 5.24507 22.5 8.16382 22.5H11.2888C13.7051 22.5 15.6638 24.4587 15.6638 26.875C15.6638 29.2913 13.7051 31.25 11.2888 31.25H7.15007C4.54257 31.25 2.20257 33.1425 1.94007 35.7375C1.63882 38.715 3.99507 41.25 6.91382 41.25H28.1638V55H8.16382C6.10132 55 4.41382 56.6875 4.41382 58.75C4.41382 60.8125 6.10132 62.5 8.16382 62.5C9.54507 62.5 10.6638 63.6188 10.6638 65C10.6638 66.3812 9.54507 67.5 8.16382 67.5H5.90007C3.29257 67.5 0.952569 69.3925 0.690069 71.9875C0.388819 74.965 2.74507 77.5 5.66382 77.5H74.1776C76.7851 77.5 79.1251 75.6075 79.3876 73.0125C79.6888 70.035 77.3326 67.5 74.4138 67.5Z" fill="#E7FAEA"/>
<path d="M64.4141 15H18.1641C15.4028 15 13.1641 17.2387 13.1641 20V65C13.1641 67.7612 15.4028 70 18.1641 70H64.4141C67.1753 70 69.4141 67.7612 69.4141 65V20C69.4141 17.2387 67.1753 15 64.4141 15Z" fill="url(#paint0_linear_7545_6966)"/>
<path d="M13.1641 20V25H69.4141V20C69.4141 17.2387 67.1753 15 64.4141 15H18.1641C15.4028 15 13.1641 17.2387 13.1641 20Z" fill="url(#paint1_linear_7545_6966)"/>
<path d="M48.1641 57.5H36.9141C35.5328 57.5 34.4141 56.3813 34.4141 55C34.4141 53.6187 35.5328 52.5 36.9141 52.5H48.1641C49.5453 52.5 50.6641 53.6187 50.6641 55C50.6641 56.3813 49.5453 57.5 48.1641 57.5ZM58.1641 46.25C58.1641 44.8687 57.0453 43.75 55.6641 43.75H36.9141C35.5328 43.75 34.4141 44.8687 34.4141 46.25C34.4141 47.6313 35.5328 48.75 36.9141 48.75H55.6641C57.0453 48.75 58.1641 47.6313 58.1641 46.25ZM58.1641 37.5C58.1641 36.1187 57.0453 35 55.6641 35H36.9141C35.5328 35 34.4141 36.1187 34.4141 37.5C34.4141 38.8812 35.5328 40 36.9141 40H55.6641C57.0453 40 58.1641 38.8812 58.1641 37.5ZM30.6641 55C30.6641 53.6187 29.5453 52.5 28.1641 52.5H26.9141C25.5328 52.5 24.4141 53.6187 24.4141 55C24.4141 56.3813 25.5328 57.5 26.9141 57.5H28.1641C29.5453 57.5 30.6641 56.3813 30.6641 55ZM30.6641 46.25C30.6641 44.8687 29.5453 43.75 28.1641 43.75H26.9141C25.5328 43.75 24.4141 44.8687 24.4141 46.25C24.4141 47.6313 25.5328 48.75 26.9141 48.75H28.1641C29.5453 48.75 30.6641 47.6313 30.6641 46.25ZM30.6641 37.5C30.6641 36.1187 29.5453 35 28.1641 35H26.9141C25.5328 35 24.4141 36.1187 24.4141 37.5C24.4141 38.8812 25.5328 40 26.9141 40H28.1641C29.5453 40 30.6641 38.8812 30.6641 37.5Z" fill="white"/>
<path d="M65.6641 50C61.6858 50 57.8705 51.5804 55.0575 54.3934C52.2444 57.2064 50.6641 61.0218 50.6641 65C50.6641 68.9782 52.2444 72.7936 55.0575 75.6066C57.8705 78.4196 61.6858 80 65.6641 80C69.6423 80 73.4576 78.4196 76.2707 75.6066C79.0837 72.7936 80.6641 68.9782 80.6641 65C80.6641 61.0218 79.0837 57.2064 76.2707 54.3934C73.4576 51.5804 69.6423 50 65.6641 50Z" fill="url(#paint2_linear_7545_6966)"/>
<path d="M71.9141 67.5H59.4141C58.0391 67.5 56.9141 66.375 56.9141 65C56.9141 63.625 58.0391 62.5 59.4141 62.5H71.9141C73.2891 62.5 74.4141 63.625 74.4141 65C74.4141 66.375 73.2891 67.5 71.9141 67.5Z" fill="white"/>
<path d="M68.1641 58.75V71.25C68.1641 72.625 67.0391 73.75 65.6641 73.75C64.2891 73.75 63.1641 72.625 63.1641 71.25V58.75C63.1641 57.375 64.2891 56.25 65.6641 56.25C67.0391 56.25 68.1641 57.375 68.1641 58.75Z" fill="white"/>
</g>
<defs>
<linearGradient id="paint0_linear_7545_6966" x1="44.631" y1="15" x2="44.631" y2="70" gradientUnits="userSpaceOnUse">
<stop stop-color="#00D772"/>
<stop offset="0.746" stop-color="#00B26E"/>
<stop offset="1" stop-color="#00B26E"/>
</linearGradient>
<linearGradient id="paint1_linear_7545_6966" x1="44.631" y1="15" x2="44.631" y2="25" gradientUnits="userSpaceOnUse">
<stop stop-color="#00D772"/>
<stop offset="0.746" stop-color="#00B26E"/>
<stop offset="1" stop-color="#00B26E"/>
</linearGradient>
<linearGradient id="paint2_linear_7545_6966" x1="65.6641" y1="103.807" x2="65.6641" y2="51.0529" gradientUnits="userSpaceOnUse">
<stop stop-color="#FEAA53"/>
<stop offset="0.612" stop-color="#FFCD49"/>
<stop offset="1" stop-color="#FFDE44"/>
</linearGradient>
<clipPath id="clip0_7545_6966">
<rect width="80" height="80" fill="white" transform="translate(0.664062)"/>
</clipPath>
</defs>
</svg>
