<svg width="81" height="80" viewBox="0 0 81 80" fill="none" xmlns="http://www.w3.org/2000/svg">
<g clip-path="url(#clip0_7545_6954)">
<path d="M74.0818 25H75.9568C78.6668 25 80.8218 22.5025 80.2343 19.6963C79.8068 17.6525 77.9018 16.25 75.813 16.25H66.5818C65.2005 16.25 64.0818 15.1313 64.0818 13.75C64.0818 12.3687 65.2005 11.25 66.5818 11.25H70.813C72.9005 11.25 74.8068 9.8475 75.2343 7.80375C75.8218 4.9975 73.6668 2.5 70.9568 2.5H42.8393H40.9568H10.9568C8.55055 2.5 6.5818 4.46875 6.5818 6.875C6.5818 9.28125 8.55055 11.25 10.9568 11.25H12.8318C14.213 11.25 15.3318 12.3687 15.3318 13.75C15.3318 15.1313 14.213 16.25 12.8318 16.25H6.10055C4.01305 16.25 2.1068 17.6525 1.6793 19.6963C1.0918 22.5025 3.2468 25 5.9568 25H22.8318V40H6.10055C4.01305 40 2.1068 41.4025 1.6793 43.4463C1.0918 46.2525 3.2468 48.75 5.9568 48.75H6.5818C7.96305 48.75 9.0818 49.8688 9.0818 51.25C9.0818 52.6312 7.96305 53.75 6.5818 53.75H5.9568C3.2468 53.75 1.0918 56.2475 1.6793 59.0537C2.1068 61.0975 4.01305 62.5 6.10055 62.5H12.8318C14.213 62.5 15.3318 63.6188 15.3318 65C15.3318 66.3812 14.213 67.5 12.8318 67.5H11.1005C9.01305 67.5 7.1068 68.9025 6.6793 70.9463C6.0918 73.7525 8.2468 76.25 10.9568 76.25H39.0743H40.9568H69.7068C72.113 76.25 74.0818 74.2812 74.0818 71.875C74.0818 69.4688 72.113 67.5 69.7068 67.5H69.0818C67.7005 67.5 66.5818 66.3812 66.5818 65C66.5818 63.6188 67.7005 62.5 69.0818 62.5H74.563C76.6505 62.5 78.5568 61.0975 78.9843 59.0537C79.5718 56.2475 77.4168 53.75 74.7068 53.75H59.0818V38.75H74.563C76.6505 38.75 78.5568 37.3475 78.9843 35.3037C79.5718 32.4975 77.4168 30 74.7068 30H74.0818C72.7005 30 71.5818 28.8813 71.5818 27.5C71.5818 26.1187 72.7005 25 74.0818 25Z" fill="#E7FAEA"/>
<path d="M71.582 38.75C71.582 56.0062 57.5883 70 40.332 70C23.0758 70 9.08203 56.0062 9.08203 38.75C9.08203 21.4937 23.0758 7.5 40.332 7.5C57.5883 7.5 71.582 21.4937 71.582 38.75Z" fill="url(#paint0_linear_7545_6954)"/>
<path d="M31.582 50V27.5L54.082 38.75L31.582 50Z" fill="white"/>
<path d="M31.582 52.5002C31.1258 52.5002 30.6695 52.3752 30.267 52.1264C29.5308 51.6714 29.082 50.8664 29.082 50.0002V27.5002C29.082 26.6339 29.5308 25.8289 30.267 25.3739C31.0045 24.9177 31.9258 24.8764 32.6995 25.2639L55.1995 36.5139C56.047 36.9377 56.582 37.8039 56.582 38.7502C56.582 39.6964 56.047 40.5627 55.2008 40.9864L32.7008 52.2364C32.347 52.4127 31.9645 52.5002 31.582 52.5002ZM34.082 31.5452V45.9552L48.492 38.7502L34.082 31.5452Z" fill="white"/>
</g>
<defs>
<linearGradient id="paint0_linear_7545_6954" x1="44.0453" y1="7.5" x2="44.0453" y2="70" gradientUnits="userSpaceOnUse">
<stop stop-color="#00D772"/>
<stop offset="0.746" stop-color="#00B26E"/>
<stop offset="1" stop-color="#00B26E"/>
</linearGradient>
<clipPath id="clip0_7545_6954">
<rect width="80" height="80" fill="white" transform="translate(0.332031)"/>
</clipPath>
</defs>
</svg>
