<svg width="80" height="80" viewBox="0 0 80 80" fill="none" xmlns="http://www.w3.org/2000/svg">
<path d="M73.7498 25H75.6248C78.3348 25 80.4898 22.5025 79.9023 19.6963C79.4748 17.6525 77.5698 16.25 75.481 16.25H66.2498C64.8685 16.25 63.7498 15.1313 63.7498 13.75C63.7498 12.3687 64.8685 11.25 66.2498 11.25H70.481C72.5685 11.25 74.4748 9.8475 74.9023 7.80375C75.4898 4.9975 73.3348 2.5 70.6248 2.5H42.5073H40.6248H10.6248C8.21852 2.5 6.24977 4.46875 6.24977 6.875C6.24977 9.28125 8.21852 11.25 10.6248 11.25H12.4998C13.881 11.25 14.9998 12.3687 14.9998 13.75C14.9998 15.1313 13.881 16.25 12.4998 16.25H5.76852C3.68102 16.25 1.77477 17.6525 1.34727 19.6963C0.759768 22.5025 2.91477 25 5.62477 25H22.4998V40H5.76852C3.68102 40 1.77477 41.4025 1.34727 43.4463C0.759768 46.2525 2.91477 48.75 5.62477 48.75H6.24977C7.63102 48.75 8.74977 49.8688 8.74977 51.25C8.74977 52.6312 7.63102 53.75 6.24977 53.75H5.62477C2.91477 53.75 0.759768 56.2475 1.34727 59.0537C1.77477 61.0975 3.68102 62.5 5.76852 62.5H12.4998C13.881 62.5 14.9998 63.6188 14.9998 65C14.9998 66.3812 13.881 67.5 12.4998 67.5H10.7685C8.68102 67.5 6.77477 68.9025 6.34727 70.9463C5.75977 73.7525 7.91477 76.25 10.6248 76.25H38.7423H40.6248H69.3748C71.781 76.25 73.7498 74.2812 73.7498 71.875C73.7498 69.4688 71.781 67.5 69.3748 67.5H68.7498C67.3685 67.5 66.2498 66.3812 66.2498 65C66.2498 63.6188 67.3685 62.5 68.7498 62.5H74.231C76.3185 62.5 78.2248 61.0975 78.6523 59.0537C79.2398 56.2475 77.0848 53.75 74.3748 53.75H58.7498V38.75H74.231C76.3185 38.75 78.2248 37.3475 78.6523 35.3037C79.2398 32.4975 77.0848 30 74.3748 30H73.7498C72.3685 30 71.2498 28.8813 71.2498 27.5C71.2498 26.1187 72.3685 25 73.7498 25Z" fill="#E7FAEA"/>
<path d="M8.75 38.75C8.75 21.565 22.815 7.5 40 7.5V38.75H8.75Z" fill="url(#paint0_linear_7545_6959)"/>
<path d="M71.25 38.75C71.25 21.565 57.185 7.5 40 7.5V38.75L61.355 61.4962C67.4325 55.935 71.25 47.7762 71.25 38.75Z" fill="url(#paint1_linear_7545_6959)"/>
<path d="M40 38.75H8.75C8.75 46.9087 12.0463 54.5512 17.2538 60.105C22.985 66.1825 31.1425 70 40 70C48.1587 70 55.625 66.7037 61.355 61.4962L40 38.75Z" fill="url(#paint2_linear_7545_6959)"/>
<path d="M54.9232 8.29452L43.8657 33.1733C43.3845 34.257 44.492 35.3645 45.5757 34.8833L70.487 23.812C71.1295 23.5258 71.4457 22.7708 71.162 22.127C68.272 15.5758 62.6745 10.4945 56.6382 7.63702C55.9895 7.32952 55.2145 7.63952 54.9232 8.29452Z" fill="url(#paint3_linear_7545_6959)"/>
<defs>
<linearGradient id="paint0_linear_7545_6959" x1="24.375" y1="32.7313" x2="24.375" y2="-33.2512" gradientUnits="userSpaceOnUse">
<stop stop-color="#FF634D"/>
<stop offset="0.204" stop-color="#FE6464"/>
<stop offset="0.521" stop-color="#FC6581"/>
<stop offset="0.794" stop-color="#FA6694"/>
<stop offset="0.989" stop-color="#FA669A"/>
</linearGradient>
<linearGradient id="paint1_linear_7545_6959" x1="55.625" y1="104.346" x2="55.625" y2="9.395" gradientUnits="userSpaceOnUse">
<stop stop-color="#FEAA53"/>
<stop offset="0.612" stop-color="#FFCD49"/>
<stop offset="1" stop-color="#FFDE44"/>
</linearGradient>
<linearGradient id="paint2_linear_7545_6959" x1="38.1779" y1="38.75" x2="38.1779" y2="70" gradientUnits="userSpaceOnUse">
<stop stop-color="#00D772"/>
<stop offset="0.746" stop-color="#00B26E"/>
<stop offset="1" stop-color="#00B26E"/>
</linearGradient>
<linearGradient id="paint3_linear_7545_6959" x1="57.7307" y1="32.1583" x2="54.8782" y2="-19.038" gradientUnits="userSpaceOnUse">
<stop stop-color="#FF634D"/>
<stop offset="0.204" stop-color="#FE6464"/>
<stop offset="0.521" stop-color="#FC6581"/>
<stop offset="0.794" stop-color="#FA6694"/>
<stop offset="0.989" stop-color="#FA669A"/>
</linearGradient>
</defs>
</svg>
