<svg width="81" height="80" viewBox="0 0 81 80" fill="none" xmlns="http://www.w3.org/2000/svg">
<g clip-path="url(#clip0_7545_6975)">
<path d="M69.6497 57.085C70.2747 58.2075 71.5297 58.7562 72.8148 58.75C75.0023 58.74 76.756 60.6038 76.5672 62.8275C76.401 64.7975 74.6248 66.25 72.6473 66.25H60.3323V67.5H32.8323H22.8323H9.08225C6.94475 67.5 5.22475 65.7113 5.33725 63.5488C5.4435 61.52 7.2635 60 9.29475 60H10.3323C11.851 60 13.0523 58.6463 12.7985 57.08C12.5985 55.8513 11.4435 55 10.1985 55H4.08225C1.94475 55 0.224753 53.2113 0.337253 51.0488C0.443503 49.02 2.2635 47.5 4.29475 47.5H12.2073C13.9335 47.5 15.3323 46.1012 15.3323 44.375C15.3323 42.6488 13.9335 41.25 12.2073 41.25C10.481 41.25 9.08225 39.8512 9.08225 38.125C9.08225 36.3988 10.481 35 12.2073 35H22.8323V26.25H13.4573C10.9635 26.25 8.956 24.1625 9.0885 21.64C9.21225 19.2738 11.336 17.5 13.7048 17.5H22.8323V12.5H52.8323H60.3323H70.9573C73.451 12.5 75.4585 14.5875 75.326 17.11C75.2022 19.4762 73.0785 21.25 70.7097 21.25H67.2073C64.7135 21.25 62.706 23.3375 62.8385 25.86C62.9623 28.2262 65.086 30 67.4548 30H70.3323C72.5535 30 74.3248 31.9325 74.0547 34.2075C73.831 36.0937 72.1223 37.4225 70.2248 37.5012C68.7285 37.5637 67.5723 38.9425 67.8822 40.5088C68.1172 41.6938 69.236 42.5 70.4435 42.5H75.9573C78.451 42.5 80.4585 44.5875 80.326 47.11C80.2022 49.4762 78.0785 51.25 75.7097 51.25H72.8323C70.0922 51.25 68.0397 54.1875 69.6497 57.085ZM3.45725 41.25C5.1835 41.25 6.58225 39.8512 6.58225 38.125C6.58225 36.3988 5.1835 35 3.45725 35C1.731 35 0.332253 36.3988 0.332253 38.125C0.332253 39.8512 1.731 41.25 3.45725 41.25Z" fill="#E7FAEA"/>
<path d="M62.832 72.5H20.332C18.2608 72.5 16.582 70.8213 16.582 68.75V11.25C16.582 9.17875 18.2608 7.5 20.332 7.5H46.2783C47.2733 7.5 48.227 7.895 48.9295 8.59875L65.4833 25.1525C66.187 25.855 66.582 26.8088 66.582 27.8037V68.75C66.582 70.8213 64.9033 72.5 62.832 72.5Z" fill="url(#paint0_linear_7545_6975)"/>
<path d="M65.4833 25.1534L48.9295 8.59961C48.6108 8.28086 48.2345 8.03461 47.832 7.84961V22.5009C47.832 24.5721 49.5108 26.2509 51.582 26.2509H66.2333C66.0495 25.8484 65.8033 25.4721 65.4833 25.1534Z" fill="url(#paint1_linear_7545_6975)"/>
<path d="M51.582 26.25C49.5108 26.25 47.832 24.5712 47.832 22.5V26.25C47.832 28.3212 49.5108 30 51.582 30H66.582V27.8038C66.582 27.2613 66.4545 26.735 66.2333 26.25H51.582Z" fill="url(#paint2_linear_7545_6975)"/>
<path d="M40.332 27.5H26.582C25.2008 27.5 24.082 26.3812 24.082 25C24.082 23.6187 25.2008 22.5 26.582 22.5H40.332C41.7133 22.5 42.832 23.6187 42.832 25C42.832 26.3812 41.7133 27.5 40.332 27.5ZM47.832 61.25H26.582C25.2008 61.25 24.082 60.1312 24.082 58.75C24.082 57.3688 25.2008 56.25 26.582 56.25H47.832C49.2133 56.25 50.332 57.3688 50.332 58.75C50.332 60.1312 49.2133 61.25 47.832 61.25ZM46.582 46.25H57.832C59.2133 46.25 60.332 47.3687 60.332 48.75C60.332 50.1313 59.2133 51.25 57.832 51.25H46.582C45.2008 51.25 44.082 50.1313 44.082 48.75C44.082 47.3687 45.2008 46.25 46.582 46.25ZM26.582 46.25H37.832C39.2133 46.25 40.332 47.3687 40.332 48.75C40.332 50.1313 39.2133 51.25 37.832 51.25H26.582C25.2008 51.25 24.082 50.1313 24.082 48.75C24.082 47.3687 25.2008 46.25 26.582 46.25ZM26.582 36.25H46.582C47.9633 36.25 49.082 37.3687 49.082 38.75C49.082 40.1313 47.9633 41.25 46.582 41.25H26.582C25.2008 41.25 24.082 40.1313 24.082 38.75C24.082 37.3687 25.2008 36.25 26.582 36.25ZM55.332 36.25H57.832C59.2133 36.25 60.332 37.3687 60.332 38.75C60.332 40.1313 59.2133 41.25 57.832 41.25H55.332C53.9508 41.25 52.832 40.1313 52.832 38.75C52.832 37.3687 53.9508 36.25 55.332 36.25Z" fill="white"/>
</g>
<defs>
<linearGradient id="paint0_linear_7545_6975" x1="44.5527" y1="7.5" x2="44.5527" y2="72.5" gradientUnits="userSpaceOnUse">
<stop stop-color="#00D772"/>
<stop offset="0.746" stop-color="#00B26E"/>
<stop offset="1" stop-color="#00B26E"/>
</linearGradient>
<linearGradient id="paint1_linear_7545_6975" x1="58.1259" y1="7.84961" x2="58.1259" y2="26.2509" gradientUnits="userSpaceOnUse">
<stop stop-color="#00D772"/>
<stop offset="0.746" stop-color="#00B26E"/>
<stop offset="1" stop-color="#00B26E"/>
</linearGradient>
<linearGradient id="paint2_linear_7545_6975" x1="58.321" y1="22.5" x2="58.321" y2="30" gradientUnits="userSpaceOnUse">
<stop stop-color="#00D772"/>
<stop offset="0.746" stop-color="#00B26E"/>
<stop offset="1" stop-color="#00B26E"/>
</linearGradient>
<clipPath id="clip0_7545_6975">
<rect width="80" height="80" fill="white" transform="translate(0.332031)"/>
</clipPath>
</defs>
</svg>
