<svg width="81" height="80" viewBox="0 0 81 80" fill="none" xmlns="http://www.w3.org/2000/svg">
<g clip-path="url(#clip0_7545_6987)">
<path d="M73.1638 67.5C71.7826 67.5 70.6638 66.3812 70.6638 65C70.6638 63.6188 71.7826 62.5 73.1638 62.5H76.2888C78.6951 62.5 80.6638 60.5312 80.6638 58.125C80.6638 55.7188 78.6951 53.75 76.2888 53.75H63.1638C61.4376 53.75 60.0388 52.3512 60.0388 50.625C60.0388 48.8988 61.4376 47.5 63.1638 47.5H73.1638C75.2263 47.5 76.9138 45.8125 76.9138 43.75C76.9138 41.6875 75.2263 40 73.1638 40H53.1638V32.5H75.6638C78.5826 32.5 80.9388 29.965 80.6376 26.9875C80.3763 24.3925 78.0351 22.5 75.4276 22.5H73.1638C71.7826 22.5 70.6638 21.3813 70.6638 20C70.6638 18.6187 71.7826 17.5 73.1638 17.5H73.6101C75.2451 17.5 76.7338 16.3238 76.8976 14.6975C77.0851 12.8263 75.6213 11.25 73.7888 11.25H56.2888C55.2538 11.25 54.4138 10.41 54.4138 9.375C54.4138 8.34 55.2538 7.5 56.2888 7.5H61.1101C62.7451 7.5 64.2338 6.32375 64.3976 4.6975C64.5851 2.82625 63.1213 1.25 61.2888 1.25H20.2176C18.5826 1.25 17.0938 2.42625 16.9301 4.0525C16.7426 5.92375 18.2063 7.5 20.0388 7.5H24.4138C25.7951 7.5 26.9138 8.61875 26.9138 10C26.9138 11.3813 25.7951 12.5 24.4138 12.5H8.40007C5.79257 12.5 3.45257 14.3925 3.19007 16.9875C2.88882 19.965 5.24507 22.5 8.16382 22.5H11.2888C13.7051 22.5 15.6638 24.4587 15.6638 26.875C15.6638 29.2913 13.7051 31.25 11.2888 31.25H7.15007C4.54257 31.25 2.20257 33.1425 1.94007 35.7375C1.63882 38.715 3.99507 41.25 6.91382 41.25H28.1638V55H8.16382C6.10132 55 4.41382 56.6875 4.41382 58.75C4.41382 60.8125 6.10132 62.5 8.16382 62.5C9.54507 62.5 10.6638 63.6188 10.6638 65C10.6638 66.3812 9.54507 67.5 8.16382 67.5H5.90007C3.29257 67.5 0.952569 69.3925 0.690069 71.9875C0.388819 74.965 2.74507 77.5 5.66382 77.5H72.9276C75.5351 77.5 77.8751 75.6075 78.1376 73.0125C78.4388 70.035 76.0826 67.5 73.1638 67.5Z" fill="#E7FAEA"/>
<path d="M63.1641 15H18.1641C15.4028 15 13.1641 17.2387 13.1641 20V65C13.1641 67.7612 15.4028 70 18.1641 70H63.1641C65.9253 70 68.1641 67.7612 68.1641 65V20C68.1641 17.2387 65.9253 15 63.1641 15Z" fill="url(#paint0_linear_7545_6987)"/>
<path d="M40.6641 18.125C40.6641 16.3987 39.2653 15 37.5391 15H18.1641C15.4028 15 13.1641 17.2387 13.1641 20V51.25H25.6641C27.7353 51.25 29.4141 49.5713 29.4141 47.5C29.4141 45.4288 27.7353 43.75 25.6641 43.75H24.4141C22.3428 43.75 20.6641 42.0712 20.6641 40C20.6641 37.9288 22.3428 36.25 24.4141 36.25H29.4141C31.4853 36.25 33.1641 34.5712 33.1641 32.5C33.1641 30.4288 31.4853 28.75 29.4141 28.75H25.6641C23.5928 28.75 21.9141 27.0712 21.9141 25C21.9141 22.9288 23.5928 21.25 25.6641 21.25H37.5391C39.2653 21.25 40.6641 19.8513 40.6641 18.125Z" fill="url(#paint1_linear_7545_6987)"/>
<path d="M68.164 65V48.75C64.3102 48.75 55.5165 48.75 53.324 48.75C51.5102 48.75 49.8415 49.965 49.489 51.7438C49.0152 54.1338 50.854 56.25 53.164 56.25H53.789C55.5152 56.25 56.914 57.6488 56.914 59.375C56.914 61.1012 55.5152 62.5 53.789 62.5H45.8277C44.014 62.5 42.3415 63.715 41.989 65.4938C41.5152 67.8838 43.354 70 45.664 70H63.164C65.9252 70 68.164 67.7612 68.164 65Z" fill="url(#paint2_linear_7545_6987)"/>
<path d="M54.8878 30.7763L36.9141 48.7437L28.9403 40.7725C27.9053 39.7375 26.2278 39.7375 25.1928 40.7725L25.1903 40.775C24.1553 41.81 24.1553 43.4863 25.1903 44.5213L34.7953 54.1225C35.9653 55.2925 37.8628 55.2925 39.0341 54.1225L58.6378 34.525C59.6728 33.49 59.6728 31.8137 58.6378 30.7787L58.6353 30.7763C57.6003 29.7412 55.9228 29.7412 54.8878 30.7763Z" fill="white"/>
</g>
<defs>
<linearGradient id="paint0_linear_7545_6987" x1="40.6641" y1="11.1562" x2="40.6641" y2="66.1562" gradientUnits="userSpaceOnUse">
<stop stop-color="#42D778"/>
<stop offset="0.428" stop-color="#3DCA76"/>
<stop offset="1" stop-color="#34B171"/>
</linearGradient>
<linearGradient id="paint1_linear_7545_6987" x1="26.9141" y1="4.95125" x2="26.9141" y2="62.1463" gradientUnits="userSpaceOnUse">
<stop stop-color="#62DE8F"/>
<stop offset="0.478" stop-color="#5DD18D"/>
<stop offset="1" stop-color="#56BE89"/>
</linearGradient>
<linearGradient id="paint2_linear_7545_6987" x1="55.039" y1="63.5412" x2="55.039" y2="22.5" gradientUnits="userSpaceOnUse">
<stop stop-color="#37AB6A"/>
<stop offset="0.422" stop-color="#39B66F"/>
<stop offset="1" stop-color="#3AC074"/>
</linearGradient>
<clipPath id="clip0_7545_6987">
<rect width="80" height="80" fill="white" transform="translate(0.664062)"/>
</clipPath>
</defs>
</svg>
