<svg width="54" height="40" viewBox="0 0 54 40" fill="none" xmlns="http://www.w3.org/2000/svg">
<path opacity="0.1" d="M16.1056 39.831C12.9295 39.8187 10.1965 39.0369 7.90676 37.4858C5.6293 35.9347 3.87504 33.688 2.64398 30.7457C1.42523 27.8035 0.822007 24.2642 0.834317 20.1278C0.834317 16.0038 1.44369 12.4891 2.66244 9.5838C3.8935 6.6785 5.64776 4.46875 7.92523 2.95455C10.215 1.42803 12.9418 0.664771 16.1056 0.664771C19.2695 0.664771 21.9901 1.42803 24.2676 2.95455C26.5573 4.48106 28.3177 6.69697 29.5488 9.60227C30.7799 12.4953 31.3892 16.0038 31.3769 20.1278C31.3769 24.2765 30.7614 27.822 29.5303 30.7642C28.3116 33.7064 26.5635 35.9531 24.286 37.5043C22.0086 39.0554 19.2818 39.831 16.1056 39.831ZM16.1056 33.2017C18.2723 33.2017 20.0019 32.1122 21.2945 29.9332C22.5872 27.7543 23.2273 24.4858 23.215 20.1278C23.215 17.2595 22.9195 14.8712 22.3286 12.9631C21.75 11.0549 20.9252 9.62074 19.8542 8.66051C18.7955 7.70028 17.546 7.22017 16.1056 7.22017C13.9513 7.22017 12.2278 8.29735 10.9352 10.4517C9.64256 12.6061 8.99009 15.8314 8.97778 20.1278C8.97778 23.0331 9.26708 25.4583 9.84568 27.4034C10.4366 29.3362 11.2676 30.7888 12.3386 31.7614C13.4096 32.7216 14.6653 33.2017 16.1056 33.2017ZM53.5314 1.18182V39H45.5357V8.7713H45.3141L36.6536 14.2003V7.10938L46.0158 1.18182H53.5314Z" fill="#268334"/>
</svg>
