<svg width="54" height="40" viewBox="0 0 54 40" fill="none" xmlns="http://www.w3.org/2000/svg">
<path opacity="0.1" d="M16.1057 39.5683C12.9296 39.556 10.1967 38.7742 7.90688 37.2231C5.62942 35.672 3.87516 33.4253 2.6441 30.483C1.42535 27.5408 0.822129 24.0015 0.834439 19.8651C0.834439 15.7411 1.44381 12.2264 2.66256 9.32111C3.89363 6.41581 5.64789 4.20605 7.92535 2.69185C10.2151 1.16533 12.9419 0.402076 16.1057 0.402076C19.2696 0.402076 21.9902 1.16533 24.2677 2.69185C26.5575 4.21836 28.3179 6.43427 29.5489 9.33958C30.78 12.2326 31.3894 15.7411 31.3771 19.8651C31.3771 24.0138 30.7615 27.5593 29.5305 30.5015C28.3117 33.4437 26.5636 35.6904 24.2861 37.2416C22.0087 38.7927 19.2819 39.5683 16.1057 39.5683ZM16.1057 32.939C18.2724 32.939 20.0021 31.8495 21.2947 29.6705C22.5873 27.4916 23.2274 24.2231 23.2151 19.8651C23.2151 16.9968 22.9197 14.6085 22.3288 12.7004C21.7502 10.7922 20.9253 9.35804 19.8543 8.39781C18.7956 7.43759 17.5461 6.95748 16.1057 6.95748C13.9514 6.95748 12.2279 8.03465 10.9353 10.189C9.64268 12.3434 8.99022 15.5687 8.97791 19.8651C8.97791 22.7704 9.2672 25.1956 9.8458 27.1407C10.4367 29.0735 11.2677 30.5261 12.3387 31.4987C13.4097 32.4589 14.6654 32.939 16.1057 32.939ZM53.5315 0.919122V38.7373H45.5358V8.50861H45.3142L36.6537 13.9376V6.84668L46.0159 0.919122H53.5315Z" fill="#7797C9"/>
</svg>
