<svg width="65" height="40" viewBox="0 0 65 40" fill="none" xmlns="http://www.w3.org/2000/svg">
<path opacity="0.1" d="M16.1161 39.831C12.94 39.8187 10.207 39.0369 7.91726 37.4858C5.6398 35.9347 3.88554 33.688 2.65447 30.7457C1.43572 27.8035 0.832505 24.2642 0.844815 20.1278C0.844815 16.0038 1.45419 12.4891 2.67294 9.5838C3.904 6.6785 5.65826 4.46875 7.93572 2.95455C10.2255 1.42803 12.9523 0.664771 16.1161 0.664771C19.2799 0.664771 22.0006 1.42803 24.2781 2.95455C26.5678 4.48106 28.3282 6.69697 29.5593 9.60227C30.7904 12.4953 31.3997 16.0038 31.3874 20.1278C31.3874 24.2765 30.7719 27.822 29.5408 30.7642C28.3221 33.7064 26.574 35.9531 24.2965 37.5043C22.0191 39.0554 19.2923 39.831 16.1161 39.831ZM16.1161 33.2017C18.2828 33.2017 20.0124 32.1122 21.305 29.9332C22.5977 27.7543 23.2378 24.4858 23.2255 20.1278C23.2255 17.2595 22.93 14.8712 22.3391 12.9631C21.7605 11.0549 20.9357 9.62074 19.8647 8.66051C18.806 7.70028 17.5565 7.22017 16.1161 7.22017C13.9618 7.22017 12.2383 8.29735 10.9457 10.4517C9.65305 12.6061 9.00059 15.8314 8.98828 20.1278C8.98828 23.0331 9.27758 25.4583 9.85618 27.4034C10.4471 29.3362 11.2781 30.7888 12.3491 31.7614C13.4201 32.7216 14.6758 33.2017 16.1161 33.2017ZM37.0888 39V33.2386L50.5504 20.7741C51.6953 19.6662 52.6555 18.669 53.4311 17.7827C54.219 16.8963 54.8161 16.0284 55.2223 15.179C55.6286 14.3172 55.8317 13.3878 55.8317 12.3906C55.8317 11.2827 55.5793 10.3286 55.0746 9.52841C54.5698 8.71591 53.8804 8.09422 53.0064 7.66335C52.1323 7.22017 51.1413 6.99858 50.0334 6.99858C48.8762 6.99858 47.8667 7.23248 47.005 7.70028C46.1432 8.16809 45.4785 8.83901 45.0107 9.71307C44.5429 10.5871 44.3089 11.6274 44.3089 12.8338H36.7195C36.7195 10.3594 37.2796 8.21117 38.3999 6.3892C39.5201 4.56723 41.0897 3.15767 43.1087 2.16051C45.1276 1.16335 47.4543 0.664771 50.0888 0.664771C52.7971 0.664771 55.1546 1.14489 57.1612 2.10511C59.1802 3.05303 60.7498 4.37026 61.87 6.05682C62.9903 7.74337 63.5504 9.67614 63.5504 11.8551C63.5504 13.2831 63.2673 14.6927 62.701 16.0838C62.147 17.4749 61.156 19.0199 59.728 20.7188C58.3 22.4053 56.2872 24.4304 53.6896 26.794L48.1683 32.2045V32.4631H64.049V39H37.0888Z" fill="#268334"/>
</svg>
