<svg width="65" height="40" viewBox="0 0 65 40" fill="none" xmlns="http://www.w3.org/2000/svg">
<path opacity="0.1" d="M16.1162 39.5683C12.9401 39.556 10.2072 38.7742 7.91738 37.2231C5.63992 35.672 3.88566 33.4253 2.6546 30.483C1.43585 27.5408 0.832627 24.0015 0.844937 19.8651C0.844937 15.7411 1.45431 12.2264 2.67306 9.32111C3.90412 6.41581 5.65838 4.20605 7.93585 2.69185C10.2256 1.16533 12.9524 0.402076 16.1162 0.402076C19.2801 0.402076 22.0007 1.16533 24.2782 2.69185C26.568 4.21836 28.3284 6.43427 29.5594 9.33958C30.7905 12.2326 31.3999 15.7411 31.3876 19.8651C31.3876 24.0138 30.772 27.5593 29.541 30.5015C28.3222 33.4437 26.5741 35.6904 24.2966 37.2416C22.0192 38.7927 19.2924 39.5683 16.1162 39.5683ZM16.1162 32.939C18.2829 32.939 20.0126 31.8495 21.3052 29.6705C22.5978 27.4916 23.2379 24.2231 23.2256 19.8651C23.2256 16.9968 22.9302 14.6085 22.3393 12.7004C21.7607 10.7922 20.9358 9.35804 19.8648 8.39781C18.8061 7.43759 17.5566 6.95748 16.1162 6.95748C13.9619 6.95748 12.2384 8.03465 10.9458 10.189C9.65318 12.3434 9.00071 15.5687 8.9884 19.8651C8.9884 22.7704 9.2777 25.1956 9.8563 27.1407C10.4472 29.0735 11.2782 30.5261 12.3492 31.4987C13.4202 32.4589 14.6759 32.939 16.1162 32.939ZM37.0889 38.7373V32.9759L50.5505 20.5115C51.6954 19.4035 52.6557 18.4063 53.4312 17.52C54.2191 16.6336 54.8162 15.7657 55.2224 14.9163C55.6287 14.0545 55.8318 13.1251 55.8318 12.1279C55.8318 11.02 55.5794 10.0659 55.0747 9.26571C54.57 8.45321 53.8806 7.83153 53.0065 7.40066C52.1325 6.95747 51.1415 6.73588 50.0335 6.73588C48.8763 6.73588 47.8668 6.96979 47.0051 7.43759C46.1434 7.90539 45.4786 8.57632 45.0108 9.45037C44.543 10.3244 44.3091 11.3647 44.3091 12.5711H36.7196C36.7196 10.0967 37.2797 7.94848 38.4 6.12651C39.5202 4.30454 41.0898 2.89497 43.1088 1.89781C45.1277 0.900655 47.4544 0.402076 50.0889 0.402076C52.7972 0.402076 55.1547 0.88219 57.1613 1.84242C59.1803 2.79033 60.7499 4.10757 61.8702 5.79412C62.9904 7.48067 63.5506 9.41344 63.5506 11.5924C63.5506 13.0204 63.2674 14.43 62.7011 15.8211C62.1471 17.2122 61.1561 18.7572 59.7281 20.4561C58.3001 22.1426 56.2873 24.1677 53.6898 26.5313L48.1684 31.9418V32.2004H64.0491V38.7373H37.0889Z" fill="#7797C9"/>
</svg>
