<svg width="66" height="40" viewBox="0 0 66 40" fill="none" xmlns="http://www.w3.org/2000/svg">
<path opacity="0.1" d="M16.0212 39.831C12.845 39.8187 10.1121 39.0369 7.82229 37.4858C5.54483 35.9347 3.79056 33.688 2.5595 30.7457C1.34075 27.8035 0.737534 24.2642 0.749845 20.1278C0.749845 16.0038 1.35922 12.4891 2.57797 9.5838C3.80903 6.6785 5.56329 4.46875 7.84075 2.95455C10.1305 1.42803 12.8573 0.664771 16.0212 0.664771C19.185 0.664771 21.9056 1.42803 24.1831 2.95455C26.4729 4.48106 28.2333 6.69697 29.4643 9.60227C30.6954 12.4953 31.3048 16.0038 31.2925 20.1278C31.2925 24.2765 30.6769 27.822 29.4459 30.7642C28.2271 33.7064 26.479 35.9531 24.2016 37.5043C21.9241 39.0554 19.1973 39.831 16.0212 39.831ZM16.0212 33.2017C18.1878 33.2017 19.9175 32.1122 21.2101 29.9332C22.5027 27.7543 23.1428 24.4858 23.1305 20.1278C23.1305 17.2595 22.8351 14.8712 22.2442 12.9631C21.6656 11.0549 20.8408 9.62074 19.7697 8.66051C18.711 7.70028 17.4615 7.22017 16.0212 7.22017C13.8668 7.22017 12.1433 8.29735 10.8507 10.4517C9.55808 12.6061 8.90562 15.8314 8.89331 20.1278C8.89331 23.0331 9.18261 25.4583 9.76121 27.4034C10.3521 29.3362 11.1831 30.7888 12.2541 31.7614C13.3251 32.7216 14.5808 33.2017 16.0212 33.2017ZM50.9725 39.517C48.2149 39.517 45.759 39.0431 43.6046 38.0952C41.4626 37.1349 39.7698 35.8177 38.5265 34.1435C37.2954 32.4569 36.6614 30.5118 36.6245 28.3082H44.6756C44.7249 29.2315 45.0265 30.044 45.5805 30.7457C46.1467 31.4351 46.8977 31.9706 47.8333 32.3523C48.7689 32.7339 49.8215 32.9247 50.991 32.9247C52.2097 32.9247 53.2869 32.7093 54.2225 32.2784C55.1581 31.8475 55.8906 31.2505 56.4199 30.4872C56.9493 29.724 57.214 28.8437 57.214 27.8466C57.214 26.8371 56.9308 25.9446 56.3645 25.169C55.8106 24.3812 55.0104 23.7656 53.964 23.3224C52.9299 22.8793 51.6988 22.6577 50.2708 22.6577H46.7438V16.7855H50.2708C51.4772 16.7855 52.5421 16.5762 53.4654 16.1577C54.401 15.7391 55.1273 15.1605 55.6444 14.4219C56.1614 13.6709 56.4199 12.7969 56.4199 11.7997C56.4199 10.8518 56.1922 10.0208 55.7367 9.30682C55.2935 8.58049 54.6657 8.0142 53.8532 7.60795C53.053 7.2017 52.1174 6.99858 51.0464 6.99858C49.963 6.99858 48.972 7.19555 48.0734 7.58949C47.1747 7.97112 46.4545 8.51894 45.9128 9.23295C45.3712 9.94697 45.0819 10.7841 45.0449 11.7443H37.3816C37.4185 9.56534 38.0402 7.64489 39.2466 5.98295C40.4531 4.32102 42.0781 3.02225 44.1216 2.08665C46.1775 1.13873 48.4981 0.664771 51.0833 0.664771C53.6931 0.664771 55.9768 1.13873 57.9341 2.08665C59.8915 3.03456 61.4119 4.31487 62.4952 5.92755C63.5909 7.52793 64.1325 9.32528 64.1202 11.3196C64.1325 13.437 63.4739 15.2036 62.1444 16.6193C60.8271 18.035 59.1098 18.9337 56.9924 19.3153V19.6108C59.7746 19.9678 61.892 20.9342 63.3447 22.5099C64.8096 24.0734 65.5359 26.0308 65.5236 28.3821C65.5359 30.5365 64.9143 32.4508 63.6586 34.125C62.4152 35.7992 60.6979 37.1165 58.5066 38.0767C56.3153 39.0369 53.8039 39.517 50.9725 39.517Z" fill="#268334"/>
</svg>
