<svg width="66" height="40" viewBox="0 0 66 40" fill="none" xmlns="http://www.w3.org/2000/svg">
<path opacity="0.1" d="M16.0212 39.5683C12.845 39.556 10.1121 38.7742 7.82229 37.2231C5.54483 35.672 3.79056 33.4253 2.5595 30.483C1.34075 27.5408 0.737534 24.0015 0.749845 19.8651C0.749845 15.7411 1.35922 12.2264 2.57797 9.32111C3.80903 6.41581 5.56329 4.20605 7.84075 2.69185C10.1305 1.16533 12.8573 0.402076 16.0212 0.402076C19.185 0.402076 21.9056 1.16533 24.1831 2.69185C26.4729 4.21836 28.2333 6.43427 29.4643 9.33958C30.6954 12.2326 31.3048 15.7411 31.2925 19.8651C31.2925 24.0138 30.6769 27.5593 29.4459 30.5015C28.2271 33.4437 26.479 35.6904 24.2016 37.2416C21.9241 38.7927 19.1973 39.5683 16.0212 39.5683ZM16.0212 32.939C18.1878 32.939 19.9175 31.8495 21.2101 29.6705C22.5027 27.4916 23.1428 24.2231 23.1305 19.8651C23.1305 16.9968 22.8351 14.6085 22.2442 12.7004C21.6656 10.7922 20.8408 9.35804 19.7697 8.39781C18.711 7.43759 17.4615 6.95748 16.0212 6.95748C13.8668 6.95748 12.1433 8.03465 10.8507 10.189C9.55808 12.3434 8.90562 15.5687 8.89331 19.8651C8.89331 22.7704 9.18261 25.1956 9.76121 27.1407C10.3521 29.0735 11.1831 30.5261 12.2541 31.4987C13.3251 32.4589 14.5808 32.939 16.0212 32.939ZM50.9725 39.2544C48.2149 39.2544 45.759 38.7804 43.6046 37.8325C41.4626 36.8722 39.7698 35.555 38.5265 33.8808C37.2954 32.1942 36.6614 30.2491 36.6245 28.0455H44.6756C44.7249 28.9688 45.0265 29.7813 45.5805 30.483C46.1467 31.1724 46.8977 31.7079 47.8333 32.0896C48.7689 32.4712 49.8215 32.662 50.991 32.662C52.2097 32.662 53.2869 32.4466 54.2225 32.0157C55.1581 31.5848 55.8906 30.9878 56.4199 30.2245C56.9493 29.4613 57.214 28.5811 57.214 27.5839C57.214 26.5744 56.9308 25.6819 56.3645 24.9063C55.8106 24.1185 55.0104 23.5029 53.964 23.0597C52.9299 22.6166 51.6988 22.395 50.2708 22.395H46.7438V16.5228H50.2708C51.4772 16.5228 52.5421 16.3135 53.4654 15.895C54.401 15.4764 55.1273 14.8978 55.6444 14.1592C56.1614 13.4082 56.4199 12.5342 56.4199 11.537C56.4199 10.5891 56.1922 9.75814 55.7367 9.04412C55.2935 8.3178 54.6657 7.75151 53.8532 7.34526C53.053 6.93901 52.1174 6.73588 51.0464 6.73588C49.963 6.73588 48.972 6.93285 48.0734 7.32679C47.1747 7.70842 46.4545 8.25624 45.9128 8.97026C45.3712 9.68427 45.0819 10.5214 45.0449 11.4816H37.3816C37.4185 9.30264 38.0402 7.38219 39.2466 5.72026C40.4531 4.05833 42.0781 2.75956 44.1216 1.82395C46.1775 0.876034 48.4981 0.402076 51.0833 0.402076C53.6931 0.402076 55.9768 0.876034 57.9341 1.82395C59.8915 2.77187 61.4119 4.05217 62.4952 5.66486C63.5909 7.26524 64.1325 9.06259 64.1202 11.0569C64.1325 13.1743 63.4739 14.9409 62.1444 16.3566C60.8271 17.7723 59.1098 18.671 56.9924 19.0526V19.3481C59.7746 19.7051 61.892 20.6715 63.3447 22.2472C64.8096 23.8107 65.5359 25.7681 65.5236 28.1194C65.5359 30.2738 64.9143 32.1881 63.6586 33.8623C62.4152 35.5365 60.6979 36.8538 58.5066 37.814C56.3153 38.7742 53.8039 39.2544 50.9725 39.2544Z" fill="#7797C9"/>
</svg>
