<svg width="64" height="64" viewBox="0 0 64 64" fill="none" xmlns="http://www.w3.org/2000/svg">
<path d="M32 6C26.8577 6 21.8309 7.52487 17.5552 10.3818C13.2795 13.2387 9.94702 17.2994 7.97914 22.0502C6.01127 26.8011 5.49638 32.0288 6.49959 37.0723C7.50281 42.1159 9.97907 46.7486 13.6152 50.3848C17.2514 54.0209 21.8842 56.4972 26.9277 57.5004C31.9712 58.5036 37.1989 57.9887 41.9498 56.0209C46.7007 54.053 50.7613 50.7205 53.6182 46.4448C56.4751 42.1691 58 37.1423 58 32C57.9868 25.1084 55.2433 18.5029 50.3702 13.6298C45.4971 8.75674 38.8916 6.01321 32 6ZM44.375 27.45L29.725 41.45C29.3463 41.8063 28.845 42.0032 28.325 42C28.0709 42.0036 27.8185 41.9569 27.5825 41.8625C27.3465 41.7681 27.1315 41.6279 26.95 41.45L19.625 34.45C19.4218 34.2727 19.2566 34.0562 19.1393 33.8135C19.0219 33.5708 18.9548 33.3068 18.9421 33.0375C18.9293 32.7681 18.9712 32.499 19.0651 32.2463C19.159 31.9935 19.3031 31.7624 19.4886 31.5668C19.6741 31.3711 19.8973 31.215 20.1447 31.1078C20.3921 31.0006 20.6586 30.9445 20.9282 30.943C21.1979 30.9414 21.465 30.9944 21.7136 31.0987C21.9623 31.203 22.1872 31.3565 22.375 31.55L28.325 37.225L41.625 24.55C42.0139 24.2107 42.5189 24.0349 43.0344 24.0593C43.5499 24.0837 44.036 24.3064 44.3911 24.6809C44.7462 25.0553 44.9428 25.5526 44.9398 26.0687C44.9368 26.5847 44.7344 27.0797 44.375 27.45Z" fill="#268334"/>
</svg>
