<svg width="166" height="156" viewBox="0 0 166 156" fill="none" xmlns="http://www.w3.org/2000/svg">
<g opacity="0.5" filter="url(#filter0_f_1897_98231)">
<path d="M136 68.7497C136 69.6134 135.978 70.4752 135.936 71.339C135.893 72.2008 135.831 73.0609 135.745 73.921C135.66 74.7792 135.554 75.6357 135.429 76.4903C135.302 77.3449 135.154 78.194 134.985 79.0414C134.816 79.8869 134.627 80.7306 134.418 81.567C134.207 82.4053 133.978 83.2363 133.727 84.0618C133.476 84.8891 133.205 85.7074 132.914 86.5202C132.623 87.333 132.312 88.1385 131.981 88.9367C131.65 89.735 131.301 90.5223 130.932 91.3042C130.561 92.0842 130.174 92.8552 129.767 93.6153C129.359 94.3772 128.934 95.1281 128.49 95.8682C128.045 96.6101 127.583 97.3392 127.103 98.0556C126.623 98.7739 126.126 99.4794 125.612 100.172C125.097 100.867 124.566 101.547 124.017 102.214C123.47 102.881 122.906 103.534 122.326 104.174C121.746 104.814 121.15 105.44 120.539 106.049C119.928 106.66 119.302 107.255 118.662 107.835C118.022 108.415 117.369 108.978 116.7 109.526C116.033 110.075 115.353 110.606 114.658 111.118C113.963 111.633 113.258 112.129 112.54 112.61C111.821 113.09 111.092 113.551 110.35 113.995C109.61 114.439 108.859 114.864 108.098 115.272C107.336 115.679 106.563 116.066 105.783 116.435C105.001 116.804 104.212 117.154 103.414 117.484C102.615 117.815 101.81 118.126 100.997 118.415C100.182 118.706 99.3641 118.977 98.5368 119.228C97.7095 119.479 96.8767 119.71 96.0402 119.919C95.202 120.128 94.3583 120.317 93.5109 120.487C92.6636 120.656 91.8126 120.803 90.9598 120.928C90.1052 121.056 89.247 121.161 88.3869 121.247C87.5286 121.33 86.6668 121.394 85.8031 121.436C84.9412 121.479 84.0775 121.499 83.2138 121.499C82.3501 121.499 81.4863 121.479 80.6245 121.436C79.7608 121.394 78.8989 121.33 78.0406 121.247C77.1806 121.161 76.3223 121.056 75.4677 120.928C74.6131 120.803 73.7639 120.656 72.9166 120.487C72.0692 120.317 71.2255 120.128 70.3873 119.919C69.549 119.71 68.7181 119.479 67.8907 119.228C67.0634 118.977 66.2433 118.706 65.4305 118.415C64.6177 118.126 63.8122 117.815 63.014 117.484C62.2157 117.154 61.4266 116.804 60.6447 116.435C59.8646 116.066 59.0918 115.679 58.33 115.272C57.5681 114.864 56.8171 114.439 56.0771 113.995C55.3352 113.551 54.606 113.09 53.8878 112.61C53.1695 112.129 52.464 111.633 51.7694 111.118C51.0748 110.606 50.3948 110.075 49.7275 109.526C49.0583 108.978 48.4055 108.415 47.7655 107.835C47.1254 107.255 46.4999 106.66 45.889 106.049C45.278 105.44 44.6816 104.814 44.1016 104.174C43.5215 103.534 42.9578 102.881 42.4105 102.214C41.8614 101.547 41.3304 100.867 40.8158 100.174C40.3012 99.4794 39.8048 98.7739 39.3248 98.0556C38.8448 97.3392 38.3829 96.6101 37.9374 95.8682C37.4938 95.1281 37.0683 94.3772 36.661 93.6153C36.2537 92.8552 35.8645 92.0842 35.4954 91.3042C35.1263 90.5223 34.7772 89.735 34.4462 88.9367C34.1153 88.1385 33.8044 87.333 33.5134 86.5202C33.2225 85.7074 32.9516 84.8891 32.7006 84.0618C32.4497 83.2363 32.2206 82.4053 32.0097 81.567C31.8006 80.7306 31.6115 79.8869 31.4424 79.0414C31.2733 78.194 31.126 77.3449 30.9987 76.4903C30.8732 75.6357 30.7678 74.7792 30.6823 73.921C30.5968 73.0609 30.5332 72.2008 30.4914 71.339C30.4496 70.4752 30.4277 69.6134 30.4277 68.7497C30.4277 67.886 30.4496 67.0241 30.4914 66.1622C30.5332 65.3003 30.5968 64.4384 30.6823 63.5802C30.7678 62.7201 30.8732 61.8637 30.9987 61.0109C31.126 60.1562 31.2733 59.3053 31.4424 58.4597C31.6115 57.6124 31.8006 56.7705 32.0097 55.9323C32.2206 55.0958 32.4497 54.263 32.7006 53.4375C32.9516 52.612 33.2225 51.7919 33.5134 50.9791C33.8044 50.1664 34.1153 49.3608 34.4462 48.5644C34.7772 47.7662 35.1263 46.977 35.4954 46.197C35.8645 45.4169 36.2537 44.6459 36.661 43.884C37.0683 43.1222 37.4938 42.3712 37.9374 41.6311C38.3829 40.8911 38.8448 40.1619 39.3248 39.4437C39.8048 38.7254 40.3012 38.0199 40.8158 37.3272C41.3304 36.6344 41.8614 35.9525 42.4105 35.2852C42.9578 34.6178 43.5215 33.9651 44.1016 33.325C44.6816 32.685 45.278 32.0613 45.889 31.4503C46.4999 30.8394 47.1254 30.2448 47.7655 29.6647C48.4055 29.0847 49.0583 28.521 49.7275 27.9737C50.3948 27.4264 51.0748 26.8954 51.7694 26.3808C52.464 25.8662 53.1695 25.3698 53.8878 24.8898C54.606 24.4098 55.3352 23.9479 56.0771 23.5042C56.8171 23.0606 57.5681 22.6351 58.33 22.2296C59.0918 21.8223 59.8646 21.4332 60.6447 21.064C61.4266 20.6949 62.2157 20.3458 63.014 20.0149C63.8122 19.6857 64.6177 19.3748 65.4305 19.0839C66.2433 18.7929 67.0634 18.522 67.8907 18.2711C68.7181 18.0202 69.549 17.7911 70.3873 17.5801C71.2255 17.371 72.0692 17.1819 72.9166 17.0146C73.7639 16.8455 74.6131 16.6982 75.4677 16.571C76.3223 16.4437 77.1806 16.3382 78.0406 16.2546C78.8989 16.1691 79.7608 16.1055 80.6245 16.0636C81.4863 16.0218 82.3501 16 83.2138 16C84.0775 16 84.9412 16.0218 85.8031 16.0636C86.6668 16.1055 87.5286 16.1691 88.3869 16.2546C89.247 16.3382 90.1052 16.4437 90.9598 16.571C91.8126 16.6982 92.6636 16.8455 93.5109 17.0146C94.3583 17.1819 95.202 17.371 96.0402 17.5801C96.8767 17.7911 97.7095 18.0202 98.5368 18.2711C99.3641 18.522 100.182 18.7929 100.997 19.0839C101.81 19.3748 102.615 19.6857 103.414 20.0149C104.212 20.3458 105.001 20.6949 105.783 21.064C106.563 21.4332 107.336 21.8223 108.098 22.2296C108.859 22.6351 109.61 23.0606 110.35 23.5042C111.092 23.9479 111.821 24.4098 112.54 24.8898C113.258 25.3698 113.963 25.8662 114.658 26.3808C115.353 26.8954 116.033 27.4264 116.7 27.9737C117.369 28.521 118.022 29.0847 118.662 29.6647C119.302 30.2448 119.928 30.8394 120.539 31.4503C121.15 32.0613 121.746 32.685 122.326 33.325C122.906 33.9651 123.47 34.6178 124.017 35.2852C124.566 35.9525 125.097 36.6344 125.612 37.3272C126.126 38.0199 126.623 38.7254 127.103 39.4437C127.583 40.1619 128.045 40.8911 128.49 41.6311C128.934 42.3712 129.359 43.1222 129.767 43.884C130.174 44.6459 130.561 45.4169 130.932 46.197C131.301 46.977 131.65 47.7662 131.981 48.5644C132.312 49.3608 132.623 50.1664 132.914 50.9791C133.205 51.7919 133.476 52.612 133.727 53.4375C133.978 54.263 134.207 55.0958 134.418 55.9323C134.627 56.7705 134.816 57.6124 134.985 58.4597C135.154 59.3053 135.302 60.1562 135.429 61.0109C135.554 61.8637 135.66 62.7201 135.745 63.5802C135.831 64.4384 135.893 65.3003 135.936 66.1622C135.978 67.0241 136 67.886 136 68.7497Z" fill="#FEC71F"/>
</g>
<path d="M105.474 153.172L82.3566 104.305L123.319 84.9746L146.438 133.843C148.352 137.919 144.856 142.439 140.415 141.607L127.454 139.111C125.096 138.667 122.737 139.777 121.571 141.885L115.271 153.478C113.134 157.416 107.416 157.25 105.474 153.172ZM60.2648 153.172L83.3826 104.305L42.3925 84.9746L19.2747 133.843C17.359 137.919 20.8565 142.439 25.2963 141.607L38.257 139.111C40.6166 138.667 42.9746 139.777 44.1404 141.885L50.4399 153.478C52.6055 157.416 58.3229 157.25 60.2648 153.172Z" fill="#8F61F9"/>
<path d="M102.949 94.5989L123.347 84.9746L146.465 133.843C148.38 137.919 144.883 142.439 140.443 141.607L127.482 139.111C126.344 138.889 125.206 139.055 124.18 139.499L102.949 94.5989ZM62.7906 94.5989L42.3925 84.9746L19.2747 133.843C17.359 137.919 20.8565 142.439 25.2963 141.607L38.257 139.111C39.3949 138.889 40.5327 139.055 41.5588 139.499L62.7906 94.5989Z" fill="#9B74FF"/>
<path d="M130.951 68.7492C130.951 69.5303 130.931 70.3097 130.893 71.0908C130.854 71.8702 130.798 72.648 130.721 73.4257C130.643 74.2019 130.548 74.9764 130.435 75.7492C130.32 76.522 130.186 77.2899 130.033 78.0562C129.88 78.8208 129.709 79.5838 129.52 80.3402C129.33 81.0982 129.122 81.8497 128.896 82.5962C128.669 83.3444 128.424 84.0844 128.161 84.8194C127.897 85.5544 127.616 86.2828 127.317 87.0047C127.018 87.7266 126.702 88.4386 126.368 89.1456C126.033 89.8511 125.682 90.5483 125.314 91.2356C124.946 91.9246 124.561 92.6037 124.16 93.2729C123.757 93.9438 123.339 94.6032 122.905 95.2511C122.471 95.9006 122.022 96.5386 121.557 97.1651C121.091 97.7932 120.611 98.4082 120.115 99.0117C119.62 99.6152 119.11 100.205 118.586 100.784C118.061 101.363 117.522 101.929 116.969 102.48C116.417 103.032 115.851 103.57 115.272 104.094C114.693 104.619 114.103 105.129 113.498 105.624C112.894 106.12 112.279 106.6 111.651 107.064C111.023 107.529 110.385 107.978 109.736 108.412C109.086 108.847 108.427 109.264 107.756 109.665C107.087 110.067 106.408 110.451 105.719 110.82C105.03 111.188 104.331 111.538 103.625 111.872C102.918 112.206 102.205 112.522 101.483 112.821C100.761 113.12 100.032 113.401 99.2974 113.663C98.5607 113.926 97.8208 114.171 97.0726 114.398C96.3244 114.625 95.5713 114.834 94.8149 115.023C94.0569 115.212 93.2939 115.383 92.5276 115.536C91.7614 115.689 90.9918 115.822 90.2206 115.935C89.4478 116.05 88.6716 116.146 87.8939 116.223C87.1177 116.299 86.3383 116.356 85.5573 116.394C84.7778 116.433 83.9968 116.452 83.2157 116.452C82.4347 116.452 81.6536 116.433 80.8742 116.394C80.0931 116.356 79.3137 116.299 78.5376 116.223C77.7598 116.146 76.9837 116.05 76.2108 115.935C75.438 115.822 74.6701 115.689 73.9038 115.536C73.1375 115.383 72.3746 115.212 71.6165 115.023C70.8585 114.834 70.107 114.625 69.3588 114.398C68.6107 114.171 67.8691 113.926 67.134 113.663C66.399 113.401 65.6706 113.12 64.9487 112.821C64.2269 112.522 63.5132 112.206 62.8061 111.872C62.1007 111.538 61.4019 111.188 60.7129 110.82C60.0239 110.451 59.3448 110.067 58.6756 109.665C58.0047 109.264 57.3453 108.847 56.6958 108.412C56.0463 107.978 55.4082 107.529 54.7801 107.064C54.152 106.6 53.537 106.12 52.9335 105.624C52.3284 105.129 51.7381 104.619 51.1593 104.094C50.5805 103.57 50.0148 103.032 49.4623 102.48C48.9098 101.929 48.3705 101.363 47.8459 100.784C47.3214 100.205 46.8116 99.6152 46.3167 99.0117C45.8201 98.4082 45.3399 97.7932 44.8746 97.1667C44.4092 96.5386 43.9603 95.9006 43.5262 95.2511C43.0921 94.6032 42.6745 93.9438 42.2716 93.2729C41.8704 92.6037 41.4856 91.9246 41.1173 91.2356C40.7489 90.5483 40.3971 89.8511 40.0632 89.1456C39.7294 88.4386 39.4137 87.7266 39.1145 87.0047C38.8152 86.2828 38.534 85.5544 38.2709 84.8194C38.0078 84.0844 37.7628 83.3444 37.5359 82.5962C37.309 81.8497 37.1018 81.0982 36.911 80.3402C36.7219 79.5838 36.5509 78.8208 36.398 78.0562C36.2451 77.2899 36.1119 76.522 35.9968 75.7492C35.8833 74.9764 35.788 74.2019 35.7107 73.4257C35.6334 72.648 35.5758 71.8702 35.538 71.0908C35.5002 70.3097 35.4805 69.5303 35.4805 68.7492C35.4805 67.9682 35.5002 67.1887 35.538 66.4093C35.5758 65.6299 35.6334 64.8505 35.7107 64.0744C35.788 63.2966 35.8833 62.5221 35.9968 61.7509C36.1119 60.9781 36.2451 60.2085 36.398 59.4439C36.5509 58.6776 36.7219 57.9163 36.911 57.1583C37.1018 56.4019 37.309 55.6488 37.5359 54.9022C37.7628 54.1557 38.0078 53.4141 38.2709 52.6791C38.534 51.9441 38.8152 51.2156 39.1145 50.4954C39.4137 49.7735 39.7294 49.0599 40.0632 48.3545C40.3971 47.649 40.7489 46.9518 41.1173 46.2629C41.4856 45.5739 41.8704 44.8948 42.2716 44.2255C42.6745 43.5563 43.0921 42.8969 43.5262 42.2474C43.9603 41.5979 44.4092 40.9599 44.8746 40.3334C45.3399 39.7069 45.8201 39.0902 46.3167 38.4868C46.8116 37.8833 47.3214 37.293 47.8459 36.7142C48.3705 36.1354 48.9098 35.5713 49.4623 35.0188C50.0148 34.4663 50.5805 33.9286 51.1593 33.4041C51.7381 32.8796 52.3284 32.3698 52.9335 31.8749C53.537 31.3799 54.152 30.8998 54.7801 30.4344C55.4082 29.9691 56.0463 29.5202 56.6958 29.0861C57.3453 28.652 58.0047 28.2343 58.6756 27.8331C59.3448 27.4319 60.0239 27.0471 60.7129 26.6804C61.4019 26.3121 62.1007 25.9602 62.8061 25.6264C63.5132 25.2926 64.2269 24.9769 64.9487 24.6776C65.6706 24.38 66.399 24.0988 67.134 23.8357C67.8691 23.5726 68.6107 23.3276 69.3588 23.1007C70.107 22.8737 70.8585 22.6666 71.6165 22.4758C72.3746 22.2867 73.1375 22.1157 73.9038 21.9644C74.6701 21.8115 75.438 21.6783 76.2108 21.5632C76.9837 21.4481 77.7598 21.3527 78.5376 21.2771C79.3137 21.1998 80.0931 21.1422 80.8742 21.1044C81.6536 21.0666 82.4347 21.0469 83.2157 21.0469C83.9968 21.0469 84.7778 21.0666 85.5573 21.1044C86.3383 21.1422 87.1177 21.1998 87.8939 21.2771C88.6716 21.3527 89.4478 21.4481 90.2206 21.5632C90.9918 21.6783 91.7614 21.8115 92.5276 21.9644C93.2939 22.1157 94.0569 22.2867 94.8149 22.4758C95.5713 22.6666 96.3244 22.8737 97.0726 23.1007C97.8208 23.3276 98.5607 23.5726 99.2974 23.8357C100.032 24.0988 100.761 24.38 101.483 24.6776C102.205 24.9769 102.918 25.2926 103.625 25.6264C104.331 25.9602 105.03 26.3121 105.719 26.6804C106.408 27.0471 107.087 27.4319 107.756 27.8331C108.427 28.2343 109.086 28.652 109.736 29.0861C110.385 29.5202 111.023 29.9691 111.651 30.4344C112.279 30.8998 112.894 31.3799 113.498 31.8749C114.103 32.3698 114.693 32.8796 115.272 33.4041C115.851 33.9286 116.417 34.4663 116.969 35.0188C117.522 35.5713 118.061 36.1354 118.586 36.7142C119.11 37.293 119.62 37.8833 120.115 38.4868C120.611 39.0902 121.091 39.7069 121.557 40.3334C122.022 40.9599 122.471 41.5979 122.905 42.2474C123.339 42.8969 123.757 43.5563 124.16 44.2255C124.561 44.8948 124.946 45.5739 125.314 46.2629C125.682 46.9518 126.033 47.649 126.368 48.3545C126.702 49.0599 127.018 49.7735 127.317 50.4954C127.616 51.2156 127.897 51.9441 128.161 52.6791C128.424 53.4141 128.669 54.1557 128.896 54.9022C129.122 55.6488 129.33 56.4019 129.52 57.1583C129.709 57.9163 129.88 58.6776 130.033 59.4439C130.186 60.2085 130.32 60.9781 130.435 61.7509C130.548 62.5221 130.643 63.2966 130.721 64.0744C130.798 64.8505 130.854 65.6299 130.893 66.4093C130.931 67.1887 130.951 67.9682 130.951 68.7492Z" fill="#FEE37C"/>
<path d="M83.2157 21.0469C109.581 21.0469 130.951 42.4019 130.951 68.7492C130.951 95.0965 109.581 116.452 83.2157 116.452C56.8503 116.452 35.4805 95.0965 35.4805 68.7492H83.2157V21.0469Z" fill="#FEBE01" fill-opacity="0.7569"/>
<path d="M119.239 68.7479C119.239 69.3366 119.225 69.9269 119.196 70.514C119.166 71.1026 119.123 71.6897 119.066 72.2767C119.008 72.8637 118.936 73.4475 118.849 74.0312C118.763 74.6133 118.661 75.1937 118.546 75.7709C118.431 76.3497 118.303 76.9236 118.16 77.4958C118.017 78.0664 117.859 78.6337 117.688 79.1977C117.517 79.7617 117.331 80.3208 117.134 80.8766C116.935 81.4307 116.723 81.9799 116.497 82.5242C116.272 83.0685 116.032 83.6078 115.781 84.139C115.529 84.6717 115.264 85.1979 114.986 85.7175C114.708 86.2371 114.417 86.7502 114.115 87.255C113.811 87.7615 113.495 88.258 113.168 88.7481C112.84 89.2381 112.502 89.7199 112.15 90.1934C111.8 90.6654 111.436 91.1307 111.063 91.5862C110.688 92.0417 110.303 92.4873 109.907 92.923C109.511 93.3604 109.104 93.7863 108.688 94.204C108.271 94.62 107.845 95.0262 107.408 95.4208C106.97 95.8171 106.525 96.2019 106.069 96.5751C105.614 96.95 105.148 97.3118 104.675 97.662C104.201 98.0139 103.719 98.3527 103.229 98.6799C102.739 99.0071 102.241 99.3228 101.736 99.6254C101.23 99.9279 100.717 100.219 100.197 100.497C99.6775 100.775 99.1513 101.04 98.6185 101.291C98.0841 101.543 97.5464 101.781 97.0021 102.006C96.4562 102.232 95.907 102.444 95.3512 102.643C94.7971 102.842 94.2363 103.026 93.6723 103.197C93.1083 103.368 92.541 103.526 91.9688 103.669C91.3966 103.812 90.8227 103.94 90.2439 104.055C89.6651 104.17 89.0846 104.271 88.5009 104.358C87.9188 104.443 87.3334 104.516 86.7464 104.573C86.1593 104.631 85.5723 104.675 84.9836 104.703C84.3949 104.733 83.8063 104.748 83.216 104.748C82.6256 104.748 82.037 104.733 81.4483 104.703C80.8596 104.675 80.2709 104.631 79.6856 104.573C79.0985 104.516 78.5131 104.443 77.9294 104.358C77.3473 104.271 76.7668 104.17 76.188 104.055C75.6092 103.94 75.0354 103.812 74.4631 103.669C73.8909 103.526 73.3236 103.368 72.7596 103.197C72.1956 103.026 71.6349 102.842 71.0807 102.643C70.5249 102.444 69.9757 102.232 69.4298 102.006C68.8855 101.781 68.3462 101.543 67.8134 101.291C67.2806 101.04 66.7545 100.775 66.2348 100.497C65.7152 100.219 65.2022 99.9279 64.6957 99.6254C64.1909 99.3228 63.6927 99.0071 63.2027 98.6799C62.7127 98.3527 62.2309 98.0139 61.7573 97.662C61.2837 97.3118 60.8184 96.95 60.3629 96.5751C59.9074 96.2019 59.4618 95.8171 59.0244 95.4208C58.587 95.0262 58.1611 94.62 57.7435 94.204C57.3274 93.7863 56.9196 93.3604 56.525 92.923C56.1287 92.4873 55.7439 92.0417 55.369 91.5862C54.9958 91.1307 54.6324 90.6654 54.2821 90.1934C53.9302 89.7199 53.5915 89.2381 53.2643 88.7481C52.9354 88.258 52.6213 87.7615 52.3171 87.255C52.0146 86.7502 51.7235 86.2371 51.4456 85.7175C51.1677 85.1979 50.903 84.6717 50.6514 84.139C50.3998 83.6078 50.1598 83.0685 49.9345 82.5242C49.7092 81.9799 49.4971 81.4307 49.2981 80.8766C49.0992 80.3208 48.915 79.7617 48.744 79.1977C48.573 78.6337 48.4151 78.0664 48.272 77.4958C48.129 76.9236 48.0007 76.3497 47.8856 75.7709C47.7705 75.1937 47.6686 74.6133 47.5831 74.0312C47.4959 73.4475 47.4236 72.8637 47.366 72.2767C47.3085 71.6897 47.2657 71.1026 47.2361 70.514C47.2065 69.9269 47.1934 69.3366 47.1934 68.7479C47.1934 68.1593 47.2065 67.5706 47.2361 66.9819C47.2657 66.3932 47.3085 65.8062 47.366 65.2192C47.4236 64.6338 47.4959 64.0484 47.5831 63.4663C47.6686 62.8826 47.7705 62.3038 47.8856 61.7249C48.0007 61.1478 48.129 60.5723 48.272 60.0017C48.4151 59.4294 48.573 58.8621 48.744 58.2981C48.915 57.7341 49.0992 57.1751 49.2981 56.6209C49.4971 56.0651 49.7092 55.5159 49.9345 54.9716C50.1598 54.4274 50.3998 53.8897 50.6514 53.3569C50.903 52.8241 51.1677 52.2979 51.4456 51.7783C51.7235 51.2587 52.0146 50.7473 52.3171 50.2409C52.6213 49.7361 52.9354 49.2378 53.2643 48.7478C53.5915 48.2578 53.9302 47.7776 54.2821 47.3041C54.6324 46.8305 54.9958 46.3668 55.369 45.9113C55.7439 45.4558 56.1287 45.0102 56.525 44.5728C56.9196 44.1371 57.3274 43.7095 57.7435 43.2935C58.1611 42.8775 58.587 42.4713 59.0244 42.0751C59.4618 41.6788 59.9074 41.294 60.3629 40.9207C60.8184 40.5475 61.2837 40.1841 61.7573 39.8338C62.2309 39.4836 62.7127 39.1432 63.2027 38.816C63.6927 38.4888 64.1909 38.1747 64.6957 37.8705C65.2022 37.5679 65.7152 37.2785 66.2348 37.0006C66.7545 36.7227 67.2806 36.458 67.8134 36.2064C68.3462 35.9532 68.8855 35.7147 69.4298 35.4895C69.9757 35.2642 70.5249 35.0521 71.0807 34.8531C71.6349 34.6558 72.1956 34.47 72.7596 34.299C73.3236 34.128 73.8909 33.9717 74.4631 33.8287C75.0354 33.6856 75.6092 33.5557 76.188 33.4406C76.7668 33.3255 77.3473 33.2252 77.9294 33.1397C78.5131 33.0526 79.0985 32.9802 79.6856 32.9227C80.2709 32.8651 80.8596 32.8224 81.4483 32.7928C82.037 32.7632 82.6256 32.75 83.216 32.75C83.8063 32.75 84.3949 32.7632 84.9836 32.7928C85.5723 32.8224 86.1593 32.8651 86.7464 32.9227C87.3334 32.9802 87.9188 33.0526 88.5009 33.1397C89.0846 33.2252 89.6651 33.3255 90.2439 33.4406C90.8227 33.5557 91.3966 33.6856 91.9688 33.8287C92.541 33.9717 93.1083 34.128 93.6723 34.299C94.2363 34.47 94.7971 34.6558 95.3512 34.8531C95.907 35.0521 96.4562 35.2642 97.0021 35.4895C97.5464 35.7147 98.0841 35.9532 98.6185 36.2064C99.1513 36.458 99.6775 36.7227 100.197 37.0006C100.717 37.2785 101.23 37.5679 101.736 37.8705C102.241 38.1747 102.739 38.4888 103.229 38.816C103.719 39.1432 104.201 39.4836 104.675 39.8338C105.148 40.1841 105.614 40.5475 106.069 40.9207C106.525 41.294 106.97 41.6788 107.408 42.0751C107.845 42.4713 108.271 42.8775 108.688 43.2935C109.104 43.7095 109.511 44.1371 109.907 44.5728C110.303 45.0102 110.688 45.4558 111.063 45.9113C111.436 46.3668 111.8 46.8305 112.15 47.3041C112.502 47.7776 112.84 48.2578 113.168 48.7478C113.495 49.2378 113.811 49.7361 114.115 50.2409C114.417 50.7473 114.708 51.2587 114.986 51.7783C115.264 52.2979 115.529 52.8241 115.781 53.3569C116.032 53.8897 116.272 54.4274 116.497 54.9716C116.723 55.5159 116.935 56.0651 117.134 56.6209C117.331 57.1751 117.517 57.7341 117.688 58.2981C117.859 58.8621 118.017 59.4294 118.16 60.0017C118.303 60.5723 118.431 61.1478 118.546 61.7249C118.661 62.3038 118.763 62.8826 118.849 63.4663C118.936 64.0484 119.008 64.6338 119.066 65.2192C119.123 65.8062 119.166 66.3932 119.196 66.9819C119.225 67.5706 119.239 68.1593 119.239 68.7479Z" fill="#FE8B00"/>
<path d="M86.3525 48.9774L90.6541 57.6579C91.154 58.684 92.1537 59.4042 93.2916 59.5703L102.893 60.9581C105.78 61.3741 106.918 64.9243 104.837 66.9484L97.8974 73.7149C97.0654 74.519 96.7053 75.6848 96.8993 76.8211L98.5371 86.3615C99.0353 89.2194 96.0113 91.4097 93.4297 90.0514L84.8545 85.5295C83.8268 85.0033 82.6067 85.0033 81.579 85.5295L73.0037 90.0514C70.4221 91.4097 67.4261 89.2194 67.8964 86.3615L69.5341 76.8211C69.7282 75.6848 69.3401 74.519 68.536 73.7149L61.5969 66.9484C59.5152 64.9243 60.6531 61.3741 63.5405 60.9581L73.1418 59.5703C74.2797 59.4042 75.2795 58.684 75.7794 57.6579L80.081 48.9774C81.357 46.3695 85.0765 46.3695 86.3525 48.9774Z" fill="#FEE37C"/>
<path d="M102.892 60.9836L93.2905 59.5957C92.1527 59.4297 91.1529 58.7094 90.653 57.6834L89.1271 54.6035L68.2012 88.523C69.0332 90.1871 71.1149 91.075 73.0027 90.0753L81.5779 85.555C82.6056 85.0288 83.8257 85.0288 84.8534 85.555L93.4287 90.0753C96.0103 91.4351 99.0063 89.2432 98.536 86.387L96.8982 76.8465C96.7042 75.7103 97.0923 74.5445 97.8963 73.7404L104.835 66.9739C106.917 64.9497 105.779 61.3996 102.892 60.9836Z" fill="#FEBE01"/>
<path d="M64.9275 42.623L66.4255 46.7273L70.5331 48.2253L66.4255 49.7233L64.9275 53.8276L63.4279 49.7233L59.3203 48.2253L63.4279 46.7273L64.9275 42.623ZM109.193 77.2068L105.89 78.4286L109.193 79.6487L110.413 82.9489L111.635 79.6487L114.937 78.4286L111.635 77.2068L110.413 73.9067L109.193 77.2068Z" fill="white"/>
<defs>
<filter id="filter0_f_1897_98231" x="0.427734" y="-14" width="165.572" height="165.5" filterUnits="userSpaceOnUse" color-interpolation-filters="sRGB">
<feFlood flood-opacity="0" result="BackgroundImageFix"/>
<feBlend mode="normal" in="SourceGraphic" in2="BackgroundImageFix" result="shape"/>
<feGaussianBlur stdDeviation="15" result="effect1_foregroundBlur_1897_98231"/>
</filter>
</defs>
</svg>
