<svg width="16" height="15" viewBox="0 0 16 15" fill="none" xmlns="http://www.w3.org/2000/svg">
<path d="M13.1481 3.125V14.375C13.1481 14.5408 13.0823 14.6997 12.9651 14.8169C12.8479 14.9342 12.6889 15 12.5231 15H1.27313C1.10737 15 0.948401 14.9342 0.831191 14.8169C0.71398 14.6997 0.648132 14.5408 0.648132 14.375V3.125C0.648132 2.95924 0.71398 2.80027 0.831191 2.68306C0.948401 2.56585 1.10737 2.5 1.27313 2.5H12.5231C12.6889 2.5 12.8479 2.56585 12.9651 2.68306C13.0823 2.80027 13.1481 2.95924 13.1481 3.125ZM15.0231 0H3.77313C3.60737 0 3.4484 0.0658481 3.33119 0.183058C3.21398 0.300269 3.14813 0.45924 3.14813 0.625C3.14813 0.79076 3.21398 0.949731 3.33119 1.06694C3.4484 1.18415 3.60737 1.25 3.77313 1.25H14.3981V11.875C14.3981 12.0408 14.464 12.1997 14.5812 12.3169C14.6984 12.4342 14.8574 12.5 15.0231 12.5C15.1889 12.5 15.3479 12.4342 15.4651 12.3169C15.5823 12.1997 15.6481 12.0408 15.6481 11.875V0.625C15.6481 0.45924 15.5823 0.300269 15.4651 0.183058C15.3479 0.0658481 15.1889 0 15.0231 0Z" fill="black"/>
</svg>
