<svg width="33" height="33" viewBox="0 0 33 33" fill="none" xmlns="http://www.w3.org/2000/svg">
<mask id="mask0_1833_56014" style="mask-type:luminance" maskUnits="userSpaceOnUse" x="0" y="0" width="33" height="33">
<rect x="0.462769" y="0.3125" width="31.8382" height="31.8382" rx="5.30636" fill="white"/>
</mask>
<g mask="url(#mask0_1833_56014)">
<path fill-rule="evenodd" clip-rule="evenodd" d="M28.3212 0.3125H4.44254C2.2477 0.3125 0.462769 2.09743 0.462769 4.29227V28.1709C0.462769 30.3657 2.2477 32.1507 4.44254 32.1507H16.3819V21.2063H12.4021V16.2316H16.3819V12.2518C16.3819 8.95457 19.0543 6.28216 22.3515 6.28216H26.3313V11.2569H24.3414C23.243 11.2569 22.3515 11.1534 22.3515 12.2518V16.2316H27.3262L25.3363 21.2063H22.3515V32.1507H28.3212C30.516 32.1507 32.3009 30.3657 32.3009 28.1709V4.29227C32.3009 2.09743 30.516 0.3125 28.3212 0.3125Z" fill="#014A93"/>
</g>
</svg>
