<svg width="16" height="22" viewBox="0 0 16 22" fill="none" xmlns="http://www.w3.org/2000/svg">
<path d="M15.3774 10.6802L5.75238 20.9927C5.65038 21.1015 5.51574 21.1742 5.36879 21.1999C5.22183 21.2255 5.07053 21.2026 4.93771 21.1347C4.8049 21.0668 4.69777 20.9575 4.6325 20.8234C4.56723 20.6893 4.54737 20.5375 4.57589 20.3911L5.83574 14.0893L0.883158 12.2296C0.776795 12.1898 0.681943 12.1243 0.607078 12.0389C0.532212 11.9535 0.479665 11.8509 0.454129 11.7403C0.428594 11.6296 0.430867 11.5144 0.460744 11.4048C0.490621 11.2953 0.547172 11.1948 0.625346 11.1124L10.2503 0.799935C10.3523 0.691083 10.487 0.618359 10.6339 0.592737C10.7809 0.567116 10.9322 0.589987 11.065 0.657899C11.1978 0.725811 11.305 0.83508 11.3702 0.969216C11.4355 1.10335 11.4554 1.25508 11.4268 1.4015L10.1635 7.71017L15.1161 9.56728C15.2217 9.60733 15.3158 9.67278 15.3901 9.75782C15.4644 9.84287 15.5166 9.94491 15.542 10.0549C15.5675 10.1649 15.5655 10.2795 15.5362 10.3886C15.5069 10.4976 15.4512 10.5978 15.3739 10.6802H15.3774Z" fill="#28BA59"/>
</svg>
