<?xml version="1.0" encoding="utf-8"?>
<svg width="24px" height="19px" viewBox="0 0 24 19" version="1.1" xmlns:xlink="http://www.w3.org/1999/xlink" xmlns="http://www.w3.org/2000/svg">
    <defs>
        <path d="M0 0L14.7857 0L14.7857 14.7857L0 14.7857L0 0Z" id="path_1" />
        <clipPath id="mask_1">
            <use xlink:href="#path_1" />
        </clipPath>
    </defs>
    <g id="Group-10" transform="translate(0.4500122 0.44995117)">
        <path d="M20.6838 18.0714C21.3302 18.0714 21.8778 17.8506 22.3267 17.409C22.7756 16.9674 23 16.4286 23 15.7926L23 4.50461C23 3.86866 22.7756 3.32988 22.3267 2.88825C21.8778 2.44662 21.3302 2.22581 20.6838 2.22581L11.5269 2.22581L9.21077 0L2.31616 0C1.81343 0 1.40047 0.105991 1.07728 0.317972L0.377049 1.00691C0.125683 1.32488 0 1.73118 0 2.22581L0 15.7926C0 16.2873 0.125683 16.7112 0.377049 17.0645C0.520687 17.2058 0.592506 17.3118 0.592506 17.3825C1.16706 17.8418 1.74161 18.0714 2.31616 18.0714L20.6838 18.0714Z" transform="matrix(1 0 0 1 0 -2.2777337E-13)" id="󱑾" fill="#072245" fill-rule="evenodd" stroke="none" />
    </g>
</svg>
