<?xml version="1.0" encoding="utf-8"?>
<svg width="24px" height="19px" viewBox="0 0 24 19" version="1.1" xmlns:xlink="http://www.w3.org/1999/xlink" xmlns="http://www.w3.org/2000/svg">
    <defs>
        <path d="M0 0L14.7857 0L14.7857 14.7857L0 14.7857L0 0Z" id="path_1" />
        <clipPath id="mask_1">
            <use xlink:href="#path_1" />
        </clipPath>
    </defs>
    <g id="Group-10" transform="translate(0.4500122 0.44995117)">
        <path d="M20.6838 18.0714C21.3302 18.0714 21.8778 17.8506 22.3267 17.409C22.7756 16.9674 23 16.4286 23 15.7926L23 4.50461C23 3.86866 22.7756 3.32988 22.3267 2.88825C21.8778 2.44662 21.3302 2.22581 20.6838 2.22581L11.5269 2.22581L9.21077 0L2.31616 0C1.81343 0 1.40047 0.105991 1.07728 0.317972L0.377049 1.00691C0.125683 1.32488 0 1.73118 0 2.22581L0 15.7926C0 16.2873 0.125683 16.7112 0.377049 17.0645C0.520687 17.2058 0.592506 17.3118 0.592506 17.3825C1.16706 17.8418 1.74161 18.0714 2.31616 18.0714L20.6838 18.0714Z" transform="matrix(1 0 0 1 0 -2.2777337E-13)" id="󱑾" fill="#072245" fill-rule="evenodd" stroke="none" />
        <g id="󰀏" transform="translate(3.7785714 3.2857144)">
            <path d="M0 0L14.7857 0L14.7857 14.7857L0 14.7857L0 0Z" id="Mask" fill="none" fill-rule="evenodd" stroke="none" />
            <g clip-path="url(#mask_1)">
                <g id="Group" transform="translate(1.15 3.45)">
                    <path d="M6.31062 2.92054C6.31062 3.05203 6.21755 3.15531 6.09907 3.15531L0.211554 3.15531C0.0951887 3.15531 0 3.05203 0 2.92054C0 1.34566 1.14051 0 2.63384 0L3.67678 0C5.13642 0 6.31062 1.31289 6.31062 2.92054Z" transform="translate(3.155311 4.4174356)" id="Path" fill="none" stroke="#FFFFFF" stroke-width="0.9" />
                    <path d="M3.31308 1.39905C3.31308 2.1945 2.57397 3.15531 1.65754 3.15531C0.739103 3.15531 0 2.1945 0 1.39905C0 0.628406 0.743092 0 1.65754 0C2.56999 -2.93762e-16 3.31308 0.628406 3.31308 1.39905Z" transform="translate(4.654084 0)" id="Path" fill="none" stroke="#FFFFFF" stroke-width="0.9" />
                    <path d="M2.20872 0.986914C2.20872 1.54085 1.71525 2.20872 1.10436 2.20872C0.493469 2.20872 0 1.54085 0 0.986914C0 0.441746 0.495463 0 1.10436 0C1.71326 0 2.20872 0.441746 2.20872 0.986914Z" transform="translate(1.2621245 1.5776556)" id="Path" fill="none" stroke="#FFFFFF" stroke-width="0.7" />
                    <path d="M2.20872 0.986914C2.20872 1.54085 1.71723 2.20872 1.10433 2.20872C0.493482 2.20872 0 1.54085 0 0.986914C0 0.441746 0.495426 0 1.10433 0C1.71324 0 2.20872 0.441746 2.20872 0.986914Z" transform="translate(9.150402 1.5776556)" id="Path" fill="none" stroke="#FFFFFF" stroke-width="0.7" />
                    <path d="M1.70905 0L2.29996 0C1.78697 0.695673 1.68647 1.13763 1.63432 1.89319L0.23116 1.89319C0.10401 1.89319 0 1.79968 0 1.68537C0 0.756446 0.673457 0 1.70905 0Z" transform="translate(1.701105E-13 5.048498)" id="Path" fill="none" stroke="#FFFFFF" stroke-width="0.7" />
                    <path d="M1.70905 0L2.29996 0C1.78697 0.695673 1.68647 1.13763 1.63432 1.89319L0.23116 1.89319C0.10401 1.89319 0 1.79968 0 1.68537C0 0.756446 0.673457 0 1.70905 0Z" transform="matrix(-1 0 0 1 12.586278 5.048498)" id="Path-Copy" fill="none" stroke="#FFFFFF" stroke-width="0.7" />
                </g>
            </g>
        </g>
    </g>
</svg>
