<svg width="366" height="156" viewBox="0 0 366 156" fill="none" xmlns="http://www.w3.org/2000/svg">
<g opacity="0.5" filter="url(#filter0_f_1873_107219)">
<path d="M251 110C251 110.246 250.972 110.491 250.917 110.736C250.861 110.981 250.781 111.226 250.67 111.471C250.559 111.715 250.422 111.958 250.259 112.201C250.094 112.444 249.903 112.686 249.683 112.927C249.464 113.167 249.218 113.407 248.947 113.645C248.673 113.883 248.376 114.119 248.05 114.354C247.725 114.589 247.373 114.822 246.996 115.053C246.618 115.284 246.215 115.513 245.785 115.74C245.356 115.967 244.903 116.191 244.424 116.414C243.942 116.635 243.44 116.855 242.911 117.071C242.383 117.287 241.83 117.501 241.255 117.711C240.677 117.922 240.077 118.13 239.454 118.334C238.831 118.538 238.187 118.738 237.519 118.935C236.852 119.133 236.163 119.326 235.45 119.516C234.74 119.706 234.008 119.891 233.256 120.073C232.503 120.255 231.729 120.433 230.936 120.607C230.143 120.78 229.332 120.949 228.501 121.114C227.67 121.279 226.823 121.44 225.955 121.595C225.089 121.751 224.206 121.902 223.305 122.048C222.404 122.194 221.488 122.336 220.556 122.472C219.624 122.609 218.678 122.74 217.715 122.866C216.755 122.992 215.78 123.113 214.792 123.229C213.803 123.345 212.8 123.455 211.788 123.56C210.773 123.665 209.749 123.764 208.713 123.858C207.677 123.952 206.632 124.041 205.577 124.123C204.52 124.206 203.458 124.283 202.385 124.354C201.311 124.426 200.23 124.491 199.145 124.551C198.057 124.61 196.962 124.664 195.863 124.712C194.763 124.76 193.659 124.802 192.552 124.838C191.443 124.874 190.329 124.904 189.213 124.928C188.099 124.952 186.981 124.97 185.86 124.982C184.742 124.994 183.621 125 182.5 125C181.379 125 180.258 124.994 179.14 124.982C178.019 124.97 176.901 124.952 175.787 124.928C174.671 124.904 173.557 124.874 172.448 124.838C171.339 124.802 170.237 124.76 169.137 124.712C168.038 124.664 166.943 124.61 165.855 124.551C164.767 124.491 163.689 124.426 162.615 124.354C161.542 124.283 160.478 124.206 159.423 124.123C158.368 124.041 157.323 123.952 156.287 123.858C155.251 123.764 154.227 123.665 153.212 123.56C152.2 123.455 151.197 123.345 150.208 123.229C149.22 123.113 148.245 122.992 147.285 122.866C146.322 122.74 145.376 122.609 144.444 122.472C143.512 122.336 142.596 122.194 141.695 122.048C140.794 121.902 139.911 121.751 139.045 121.595C138.177 121.44 137.33 121.279 136.499 121.114C135.668 120.949 134.857 120.78 134.064 120.607C133.271 120.433 132.497 120.255 131.744 120.073C130.992 119.891 130.26 119.706 129.55 119.516C128.837 119.326 128.148 119.133 127.481 118.936C126.813 118.738 126.169 118.538 125.546 118.334C124.923 118.13 124.323 117.922 123.745 117.711C123.17 117.501 122.617 117.287 122.089 117.071C121.56 116.855 121.055 116.635 120.576 116.414C120.097 116.191 119.644 115.967 119.215 115.74C118.785 115.513 118.382 115.284 118.004 115.053C117.627 114.822 117.275 114.589 116.95 114.354C116.624 114.119 116.327 113.883 116.053 113.645C115.782 113.407 115.536 113.167 115.317 112.927C115.097 112.686 114.906 112.444 114.741 112.201C114.578 111.958 114.441 111.715 114.33 111.471C114.219 111.226 114.137 110.981 114.083 110.736C114.028 110.491 114 110.246 114 110C114 109.754 114.028 109.509 114.083 109.264C114.137 109.019 114.219 108.774 114.33 108.53C114.441 108.285 114.578 108.042 114.741 107.799C114.906 107.556 115.097 107.314 115.317 107.074C115.536 106.833 115.782 106.594 116.053 106.355C116.327 106.117 116.624 105.881 116.95 105.646C117.275 105.411 117.627 105.178 118.004 104.947C118.382 104.716 118.785 104.487 119.215 104.26C119.644 104.033 120.097 103.809 120.576 103.587C121.055 103.365 121.56 103.146 122.089 102.929C122.617 102.713 123.17 102.499 123.745 102.289C124.323 102.078 124.923 101.871 125.546 101.666C126.169 101.462 126.813 101.262 127.481 101.065C128.148 100.868 128.837 100.674 129.55 100.484C130.26 100.294 130.992 100.109 131.744 99.9266C132.497 99.7446 133.271 99.5672 134.064 99.3935C134.857 99.2198 135.668 99.0507 136.499 98.8857C137.33 98.7208 138.177 98.5605 139.045 98.4049C139.911 98.2492 140.794 98.0982 141.695 97.9519C142.596 97.8056 143.512 97.6644 144.444 97.5279C145.376 97.3914 146.322 97.2601 147.285 97.1339C148.245 97.0078 149.22 96.8868 150.208 96.7715C151.197 96.6556 152.2 96.545 153.212 96.44C154.227 96.3351 155.251 96.2358 156.287 96.1417C157.323 96.0481 158.368 95.9597 159.423 95.8769C160.478 95.7942 161.542 95.7172 162.615 95.6458C163.689 95.5745 164.767 95.5093 165.855 95.4493C166.943 95.3899 168.038 95.3361 169.137 95.2885C170.237 95.2404 171.339 95.1986 172.448 95.1624C173.557 95.1262 174.671 95.0962 175.787 95.0724C176.901 95.0481 178.019 95.03 179.14 95.0181C180.258 95.0062 181.379 95 182.5 95C183.621 95 184.742 95.0062 185.86 95.0181C186.981 95.03 188.099 95.0481 189.213 95.0724C190.329 95.0962 191.443 95.1262 192.552 95.1624C193.659 95.1986 194.763 95.2404 195.863 95.2885C196.962 95.3361 198.057 95.3899 199.145 95.4493C200.23 95.5093 201.311 95.5745 202.385 95.6458C203.458 95.7172 204.52 95.7942 205.577 95.8769C206.632 95.9597 207.677 96.0481 208.713 96.1417C209.749 96.2358 210.773 96.3351 211.788 96.44C212.8 96.545 213.803 96.6556 214.792 96.7715C215.78 96.8868 216.755 97.0078 217.715 97.1339C218.678 97.2601 219.624 97.3914 220.556 97.5279C221.488 97.6644 222.404 97.8056 223.305 97.9519C224.206 98.0982 225.089 98.2492 225.955 98.4049C226.823 98.5605 227.67 98.7208 228.501 98.8857C229.332 99.0507 230.143 99.2198 230.936 99.3935C231.729 99.5672 232.503 99.7446 233.256 99.9266C234.008 100.109 234.74 100.294 235.45 100.484C236.163 100.674 236.852 100.868 237.519 101.065C238.187 101.262 238.831 101.462 239.454 101.666C240.077 101.871 240.677 102.078 241.255 102.289C241.83 102.499 242.383 102.713 242.911 102.929C243.44 103.146 243.942 103.365 244.424 103.587C244.903 103.809 245.356 104.033 245.785 104.26C246.215 104.487 246.618 104.716 246.996 104.947C247.373 105.178 247.725 105.411 248.05 105.646C248.376 105.881 248.673 106.117 248.947 106.355C249.218 106.594 249.464 106.833 249.683 107.074C249.903 107.314 250.094 107.556 250.259 107.799C250.422 108.042 250.559 108.285 250.67 108.53C250.781 108.774 250.861 109.019 250.917 109.264C250.972 109.509 251 109.754 251 110Z" fill="#F7A141"/>
<path d="M251 110C251 110.246 250.972 110.491 250.917 110.736C250.861 110.981 250.781 111.226 250.67 111.471C250.559 111.715 250.422 111.958 250.259 112.201C250.094 112.444 249.903 112.686 249.683 112.927C249.464 113.167 249.218 113.407 248.947 113.645C248.673 113.883 248.376 114.119 248.05 114.354C247.725 114.589 247.373 114.822 246.996 115.053C246.618 115.284 246.215 115.513 245.785 115.74C245.356 115.967 244.903 116.191 244.424 116.414C243.942 116.635 243.44 116.855 242.911 117.071C242.383 117.287 241.83 117.501 241.255 117.711C240.677 117.922 240.077 118.13 239.454 118.334C238.831 118.538 238.187 118.738 237.519 118.935C236.852 119.133 236.163 119.326 235.45 119.516C234.74 119.706 234.008 119.891 233.256 120.073C232.503 120.255 231.729 120.433 230.936 120.607C230.143 120.78 229.332 120.949 228.501 121.114C227.67 121.279 226.823 121.44 225.955 121.595C225.089 121.751 224.206 121.902 223.305 122.048C222.404 122.194 221.488 122.336 220.556 122.472C219.624 122.609 218.678 122.74 217.715 122.866C216.755 122.992 215.78 123.113 214.792 123.229C213.803 123.345 212.8 123.455 211.788 123.56C210.773 123.665 209.749 123.764 208.713 123.858C207.677 123.952 206.632 124.041 205.577 124.123C204.52 124.206 203.458 124.283 202.385 124.354C201.311 124.426 200.23 124.491 199.145 124.551C198.057 124.61 196.962 124.664 195.863 124.712C194.763 124.76 193.659 124.802 192.552 124.838C191.443 124.874 190.329 124.904 189.213 124.928C188.099 124.952 186.981 124.97 185.86 124.982C184.742 124.994 183.621 125 182.5 125C181.379 125 180.258 124.994 179.14 124.982C178.019 124.97 176.901 124.952 175.787 124.928C174.671 124.904 173.557 124.874 172.448 124.838C171.339 124.802 170.237 124.76 169.137 124.712C168.038 124.664 166.943 124.61 165.855 124.551C164.767 124.491 163.689 124.426 162.615 124.354C161.542 124.283 160.478 124.206 159.423 124.123C158.368 124.041 157.323 123.952 156.287 123.858C155.251 123.764 154.227 123.665 153.212 123.56C152.2 123.455 151.197 123.345 150.208 123.229C149.22 123.113 148.245 122.992 147.285 122.866C146.322 122.74 145.376 122.609 144.444 122.472C143.512 122.336 142.596 122.194 141.695 122.048C140.794 121.902 139.911 121.751 139.045 121.595C138.177 121.44 137.33 121.279 136.499 121.114C135.668 120.949 134.857 120.78 134.064 120.607C133.271 120.433 132.497 120.255 131.744 120.073C130.992 119.891 130.26 119.706 129.55 119.516C128.837 119.326 128.148 119.133 127.481 118.936C126.813 118.738 126.169 118.538 125.546 118.334C124.923 118.13 124.323 117.922 123.745 117.711C123.17 117.501 122.617 117.287 122.089 117.071C121.56 116.855 121.055 116.635 120.576 116.414C120.097 116.191 119.644 115.967 119.215 115.74C118.785 115.513 118.382 115.284 118.004 115.053C117.627 114.822 117.275 114.589 116.95 114.354C116.624 114.119 116.327 113.883 116.053 113.645C115.782 113.407 115.536 113.167 115.317 112.927C115.097 112.686 114.906 112.444 114.741 112.201C114.578 111.958 114.441 111.715 114.33 111.471C114.219 111.226 114.137 110.981 114.083 110.736C114.028 110.491 114 110.246 114 110C114 109.754 114.028 109.509 114.083 109.264C114.137 109.019 114.219 108.774 114.33 108.53C114.441 108.285 114.578 108.042 114.741 107.799C114.906 107.556 115.097 107.314 115.317 107.074C115.536 106.833 115.782 106.594 116.053 106.355C116.327 106.117 116.624 105.881 116.95 105.646C117.275 105.411 117.627 105.178 118.004 104.947C118.382 104.716 118.785 104.487 119.215 104.26C119.644 104.033 120.097 103.809 120.576 103.587C121.055 103.365 121.56 103.146 122.089 102.929C122.617 102.713 123.17 102.499 123.745 102.289C124.323 102.078 124.923 101.871 125.546 101.666C126.169 101.462 126.813 101.262 127.481 101.065C128.148 100.868 128.837 100.674 129.55 100.484C130.26 100.294 130.992 100.109 131.744 99.9266C132.497 99.7446 133.271 99.5672 134.064 99.3935C134.857 99.2198 135.668 99.0507 136.499 98.8857C137.33 98.7208 138.177 98.5605 139.045 98.4049C139.911 98.2492 140.794 98.0982 141.695 97.9519C142.596 97.8056 143.512 97.6644 144.444 97.5279C145.376 97.3914 146.322 97.2601 147.285 97.1339C148.245 97.0078 149.22 96.8868 150.208 96.7715C151.197 96.6556 152.2 96.545 153.212 96.44C154.227 96.3351 155.251 96.2358 156.287 96.1417C157.323 96.0481 158.368 95.9597 159.423 95.8769C160.478 95.7942 161.542 95.7172 162.615 95.6458C163.689 95.5745 164.767 95.5093 165.855 95.4493C166.943 95.3899 168.038 95.3361 169.137 95.2885C170.237 95.2404 171.339 95.1986 172.448 95.1624C173.557 95.1262 174.671 95.0962 175.787 95.0724C176.901 95.0481 178.019 95.03 179.14 95.0181C180.258 95.0062 181.379 95 182.5 95C183.621 95 184.742 95.0062 185.86 95.0181C186.981 95.03 188.099 95.0481 189.213 95.0724C190.329 95.0962 191.443 95.1262 192.552 95.1624C193.659 95.1986 194.763 95.2404 195.863 95.2885C196.962 95.3361 198.057 95.3899 199.145 95.4493C200.23 95.5093 201.311 95.5745 202.385 95.6458C203.458 95.7172 204.52 95.7942 205.577 95.8769C206.632 95.9597 207.677 96.0481 208.713 96.1417C209.749 96.2358 210.773 96.3351 211.788 96.44C212.8 96.545 213.803 96.6556 214.792 96.7715C215.78 96.8868 216.755 97.0078 217.715 97.1339C218.678 97.2601 219.624 97.3914 220.556 97.5279C221.488 97.6644 222.404 97.8056 223.305 97.9519C224.206 98.0982 225.089 98.2492 225.955 98.4049C226.823 98.5605 227.67 98.7208 228.501 98.8857C229.332 99.0507 230.143 99.2198 230.936 99.3935C231.729 99.5672 232.503 99.7446 233.256 99.9266C234.008 100.109 234.74 100.294 235.45 100.484C236.163 100.674 236.852 100.868 237.519 101.065C238.187 101.262 238.831 101.462 239.454 101.666C240.077 101.871 240.677 102.078 241.255 102.289C241.83 102.499 242.383 102.713 242.911 102.929C243.44 103.146 243.942 103.365 244.424 103.587C244.903 103.809 245.356 104.033 245.785 104.26C246.215 104.487 246.618 104.716 246.996 104.947C247.373 105.178 247.725 105.411 248.05 105.646C248.376 105.881 248.673 106.117 248.947 106.355C249.218 106.594 249.464 106.833 249.683 107.074C249.903 107.314 250.094 107.556 250.259 107.799C250.422 108.042 250.559 108.285 250.67 108.53C250.781 108.774 250.861 109.019 250.917 109.264C250.972 109.509 251 109.754 251 110Z" fill="white" fill-opacity="0.2"/>
</g>
<path d="M221.75 54.8906V109.719C221.75 114.916 207.526 119.231 188.815 120.093C186.579 120.196 184.28 120.25 181.934 120.25C179.588 120.25 177.288 120.196 175.053 120.093C156.342 119.231 142.117 114.914 142.117 109.719V54.8906H221.75Z" fill="url(#paint0_linear_1873_107219)"/>
<path d="M188.815 54.8906V120.093C186.579 120.196 184.28 120.25 181.934 120.25C179.587 120.25 177.288 120.196 175.053 120.093V54.8906H188.815Z" fill="#D6D7D9"/>
<path fill-rule="evenodd" clip-rule="evenodd" d="M204.075 22.9109L198.991 25.697C198.403 15.7933 191.777 20.5272 191.777 20.5272L191.471 15.3749C199.68 9.36688 204.075 22.9109 204.075 22.9109ZM212.913 43.5885C212.913 43.5885 218.044 28.4322 226.519 36.9014L224.511 43.5885C224.511 43.5885 221.167 37.3479 216.927 45.1487L212.913 43.5885ZM221.75 54.892C221.75 55.0645 221.734 55.2369 221.702 55.408C221.67 55.5805 221.622 55.753 221.558 55.9241C221.495 56.0952 221.415 56.2663 221.32 56.4375C221.224 56.6072 221.113 56.777 220.986 56.9468C220.857 57.1153 220.716 57.2837 220.557 57.4508C220.399 57.6179 220.225 57.7837 220.035 57.9481C219.847 58.1139 219.642 58.277 219.423 58.4401C219.204 58.6019 218.968 58.7623 218.72 58.9214C218.47 59.0805 218.206 59.2382 217.927 59.3946C217.649 59.5497 217.356 59.7035 217.049 59.8559C216.741 60.0083 216.42 60.158 216.086 60.3051C215.75 60.4535 215.401 60.5992 215.041 60.7422C214.678 60.8853 214.303 61.027 213.915 61.1647C213.526 61.3037 213.126 61.4388 212.712 61.5724C212.299 61.7061 211.873 61.8358 211.436 61.9642C210.998 62.0912 210.549 62.2168 210.089 62.3385C209.627 62.4601 209.156 62.5791 208.673 62.6941C208.19 62.8104 207.697 62.9227 207.193 63.0323C206.689 63.142 206.176 63.2476 205.653 63.3505C205.129 63.4534 204.597 63.5524 204.054 63.6473C203.513 63.7436 202.962 63.8358 202.403 63.924C201.844 64.0136 201.277 64.0978 200.702 64.1794C200.129 64.2609 199.546 64.3385 198.958 64.412C198.368 64.4855 197.773 64.555 197.17 64.6206C196.569 64.6874 195.96 64.7489 195.347 64.8077C194.734 64.8652 194.116 64.9187 193.491 64.9695C192.868 65.0189 192.24 65.0657 191.609 65.1072C190.976 65.1486 190.34 65.1861 189.701 65.2208C189.062 65.2542 188.42 65.2836 187.776 65.3091C187.132 65.3344 186.485 65.3545 185.836 65.3719C185.188 65.3893 184.538 65.4013 183.887 65.4107C183.236 65.4187 182.585 65.4227 181.934 65.4227C181.281 65.4227 180.63 65.4187 179.981 65.4107C179.33 65.4013 178.68 65.3893 178.031 65.3719C177.383 65.3545 176.736 65.3344 176.092 65.3091C175.447 65.2836 174.805 65.2542 174.166 65.2208C173.526 65.1861 172.891 65.1486 172.259 65.1072C171.626 65.0657 170.999 65.0189 170.375 64.9695C169.752 64.9187 169.133 64.8652 168.519 64.8077C167.906 64.7489 167.299 64.6874 166.696 64.6206C166.094 64.555 165.499 64.4855 164.91 64.412C164.32 64.3385 163.739 64.2609 163.164 64.1794C162.589 64.0978 162.022 64.0136 161.463 63.924C160.904 63.8358 160.355 63.7436 159.812 63.6473C159.271 63.5524 158.739 63.4534 158.215 63.3505C157.692 63.2476 157.179 63.142 156.675 63.0323C156.171 62.9227 155.677 62.8104 155.195 62.6941C154.712 62.5791 154.24 62.4601 153.779 62.3385C153.318 62.2168 152.868 62.0912 152.431 61.9642C151.994 61.8358 151.569 61.7061 151.155 61.5724C150.741 61.4388 150.34 61.3037 149.953 61.1647C149.565 61.027 149.189 60.8853 148.827 60.7422C148.465 60.5992 148.117 60.4535 147.782 60.3051C147.447 60.158 147.125 60.0083 146.819 59.8559C146.512 59.7035 146.219 59.5497 145.939 59.3946C145.661 59.2382 145.398 59.0805 145.148 58.9214C144.898 58.7623 144.664 58.6019 144.445 58.4401C144.225 58.277 144.021 58.1139 143.831 57.9481C143.643 57.7837 143.469 57.6179 143.31 57.4508C143.152 57.2837 143.009 57.1153 142.882 56.9468C142.755 56.777 142.644 56.6072 142.548 56.4375C142.453 56.2663 142.373 56.0952 142.308 55.9241C142.246 55.753 142.197 55.5805 142.165 55.408C142.133 55.2369 142.117 55.0645 142.117 54.892C142.117 54.7195 142.133 54.5471 142.165 54.3746C142.197 54.2022 142.246 54.0311 142.308 53.8599C142.373 53.6875 142.453 53.5163 142.548 53.3466C142.644 53.1754 142.755 53.0057 142.882 52.8372C143.009 52.6688 143.152 52.5003 143.31 52.3332C143.469 52.1661 143.643 51.999 143.831 51.8345C144.021 51.6701 144.225 51.5057 144.445 51.3439C144.664 51.1821 144.898 51.0204 145.148 50.8613C145.398 50.7022 145.661 50.5444 145.939 50.3894C146.219 50.2329 146.512 50.0792 146.819 49.9268C147.125 49.7757 147.447 49.626 147.782 49.4776C148.117 49.3292 148.465 49.1848 148.827 49.0404C149.189 48.8974 149.565 48.757 149.953 48.618C150.34 48.4803 150.741 48.3439 151.155 48.2102C151.569 48.0779 151.994 47.9469 152.431 47.8199C152.868 47.6915 153.318 47.5672 153.779 47.4455C154.24 47.3239 154.712 47.2049 155.195 47.0886C155.677 46.9736 156.171 46.86 156.675 46.7517C157.179 46.6421 157.692 46.5351 158.215 46.4335C158.739 46.3306 159.271 46.2316 159.812 46.1354C160.355 46.0391 160.904 45.9482 161.463 45.8586C162.022 45.7704 162.589 45.6848 163.164 45.6046C163.739 45.5231 164.32 45.4455 164.91 45.372C165.499 45.2985 166.094 45.2276 166.696 45.1621C167.299 45.0966 167.906 45.0338 168.519 44.9763C169.133 44.9188 169.752 44.864 170.375 44.8145C170.999 44.7637 171.626 44.7183 172.259 44.6768C172.891 44.6341 173.526 44.5966 174.166 44.5632C174.805 44.5298 175.447 44.5004 176.092 44.475C176.736 44.4496 177.383 44.4282 178.031 44.4108C178.68 44.3948 179.33 44.3814 179.981 44.3734C180.63 44.3653 181.281 44.3613 181.934 44.3613C182.585 44.3613 183.236 44.3653 183.887 44.3734C184.538 44.3814 185.188 44.3948 185.836 44.4108C186.485 44.4282 187.132 44.4496 187.776 44.475C188.42 44.5004 189.062 44.5298 189.701 44.5632C190.34 44.5966 190.976 44.6341 191.609 44.6768C192.24 44.7183 192.868 44.7637 193.491 44.8145C194.116 44.864 194.734 44.9188 195.347 44.9763C195.96 45.0338 196.569 45.0966 197.17 45.1621C197.773 45.2276 198.368 45.2985 198.958 45.372C199.546 45.4455 200.129 45.5231 200.702 45.6046C201.277 45.6848 201.844 45.7704 202.403 45.8586C202.962 45.9482 203.513 46.0391 204.054 46.1354C204.597 46.2316 205.129 46.3306 205.653 46.4335C206.176 46.5351 206.689 46.6421 207.193 46.7517C207.697 46.86 208.19 46.9736 208.673 47.0886C209.156 47.2049 209.627 47.3239 210.089 47.4455C210.549 47.5672 210.998 47.6915 211.436 47.8199C211.873 47.9469 212.299 48.0779 212.712 48.2102C213.126 48.3439 213.526 48.4803 213.915 48.618C214.303 48.757 214.678 48.8974 215.041 49.0404C215.401 49.1848 215.75 49.3292 216.086 49.4776C216.42 49.626 216.741 49.7757 217.049 49.9268C217.356 50.0792 217.649 50.2329 217.927 50.3894C218.206 50.5444 218.47 50.7022 218.72 50.8613C218.968 51.0204 219.204 51.1821 219.423 51.3439C219.642 51.5057 219.847 51.6701 220.035 51.8345C220.225 51.999 220.399 52.1661 220.557 52.3332C220.716 52.5003 220.857 52.6688 220.986 52.8372C221.113 53.0057 221.224 53.1754 221.32 53.3466C221.415 53.5163 221.495 53.6875 221.558 53.8599C221.622 54.0311 221.67 54.2022 221.702 54.3746C221.734 54.5471 221.75 54.7195 221.75 54.892Z" fill="#79F1C0"/>
<path d="M217.214 30.1077C217.214 30.1077 217.042 26.4955 219.258 25.3524C219.258 25.3524 222.932 24.3992 224.102 25.938C224.102 25.938 222.713 28.2588 222.251 29.7989C222.251 29.7989 219.626 28.8417 217.214 30.1077Z" fill="#012248"/>
<path d="M175.676 23.7697C175.676 23.7697 179.85 22.3901 181.911 24.608C181.911 24.608 184.225 28.5932 182.804 30.4636C182.804 30.4636 179.634 29.5959 177.681 29.5571C177.681 29.5571 177.944 26.1761 175.676 23.7697Z" fill="#012248"/>
<path d="M217.138 13.0654C217.138 13.0654 220.268 16.786 218.832 19.81C218.832 19.81 215.684 23.818 213.178 23.1269C213.178 23.1269 212.77 19.5159 212.01 17.4959C212.01 17.4959 215.594 16.3809 217.138 13.0654Z" fill="#B33263"/>
<path d="M208.511 53.4939C208.511 53.6396 208.497 53.784 208.469 53.9271C208.441 54.0688 208.398 54.2078 208.342 54.3428C208.287 54.4765 208.219 54.6049 208.137 54.7252C208.057 54.8468 207.965 54.9578 207.862 55.0607C207.759 55.1637 207.646 55.2559 207.525 55.3375C207.404 55.4177 207.276 55.4859 207.142 55.542C207.007 55.5968 206.868 55.6396 206.725 55.6677C206.582 55.6958 206.439 55.7105 206.293 55.7105C206.148 55.7105 206.003 55.6958 205.86 55.6677C205.717 55.6396 205.578 55.5968 205.445 55.542C205.31 55.4859 205.181 55.4177 205.061 55.3375C204.939 55.2559 204.827 55.1637 204.724 55.0607C204.621 54.9578 204.53 54.8468 204.449 54.7252C204.367 54.6049 204.299 54.4765 204.244 54.3428C204.188 54.2078 204.146 54.0688 204.117 53.9271C204.089 53.784 204.074 53.6396 204.074 53.4939C204.074 53.3482 204.089 53.2038 204.117 53.0621C204.146 52.919 204.188 52.78 204.244 52.6463C204.299 52.5113 204.367 52.3843 204.449 52.2626C204.53 52.1423 204.621 52.03 204.724 51.9271C204.827 51.8241 204.939 51.7319 205.061 51.6517C205.181 51.5701 205.31 51.5019 205.445 51.4471C205.578 51.391 205.717 51.3482 205.86 51.3201C206.003 51.292 206.148 51.2773 206.293 51.2773C206.439 51.2773 206.582 51.292 206.725 51.3201C206.868 51.3482 207.007 51.391 207.142 51.4471C207.276 51.5019 207.404 51.5701 207.525 51.6517C207.646 51.7319 207.759 51.8241 207.862 51.9271C207.965 52.03 208.057 52.1423 208.137 52.2626C208.219 52.3843 208.287 52.5113 208.342 52.6463C208.398 52.78 208.441 52.919 208.469 53.0621C208.497 53.2051 208.511 53.3482 208.511 53.4939Z" fill="#012248"/>
<path d="M208.896 15.7472C208.896 15.8582 208.885 15.9678 208.862 16.0761C208.841 16.1844 208.809 16.2887 208.767 16.3916C208.724 16.4932 208.672 16.5895 208.611 16.6817C208.551 16.774 208.48 16.8582 208.402 16.9371C208.323 17.0146 208.239 17.0841 208.147 17.1456C208.055 17.2071 207.958 17.2593 207.855 17.3007C207.754 17.3435 207.648 17.3756 207.54 17.397C207.432 17.4183 207.322 17.429 207.212 17.429C207.101 17.429 206.992 17.4183 206.884 17.397C206.775 17.3756 206.67 17.3435 206.568 17.3007C206.465 17.2593 206.369 17.2071 206.277 17.1456C206.184 17.0841 206.1 17.0146 206.021 16.9371C205.944 16.8582 205.874 16.774 205.813 16.6817C205.751 16.5895 205.699 16.4932 205.658 16.3916C205.615 16.2887 205.583 16.1844 205.561 16.0761C205.54 15.9678 205.529 15.8582 205.529 15.7472C205.529 15.6376 205.54 15.528 205.561 15.4197C205.583 15.3114 205.615 15.2058 205.658 15.1042C205.699 15.0026 205.751 14.905 205.813 14.8128C205.874 14.7218 205.944 14.6363 206.021 14.5587C206.1 14.4799 206.184 14.4103 206.277 14.3489C206.369 14.2874 206.465 14.2366 206.568 14.1938C206.67 14.151 206.775 14.1202 206.884 14.0975C206.992 14.0761 207.101 14.0654 207.212 14.0654C207.322 14.0654 207.432 14.0761 207.54 14.0975C207.648 14.1202 207.754 14.151 207.855 14.1938C207.958 14.2366 208.055 14.2874 208.147 14.3489C208.239 14.4103 208.323 14.4799 208.402 14.5587C208.48 14.6363 208.551 14.7218 208.611 14.8128C208.672 14.905 208.724 15.0026 208.767 15.1042C208.809 15.2058 208.841 15.3114 208.862 15.4197C208.885 15.528 208.896 15.6376 208.896 15.7472Z" fill="#012248"/>
<path d="M209.02 34.3285C209.02 34.4729 209.007 34.6146 208.979 34.7563C208.951 34.8967 208.909 35.0344 208.855 35.1667C208.798 35.2991 208.732 35.4261 208.651 35.5451C208.571 35.6654 208.48 35.775 208.379 35.878C208.277 35.9796 208.166 36.0691 208.047 36.1493C207.927 36.2296 207.801 36.2964 207.667 36.3525C207.535 36.4074 207.397 36.4488 207.257 36.4769C207.115 36.505 206.972 36.5183 206.829 36.5183C206.685 36.5183 206.543 36.505 206.401 36.4769C206.26 36.4488 206.123 36.4074 205.99 36.3525C205.857 36.2964 205.73 36.2296 205.611 36.1493C205.491 36.0691 205.381 35.9796 205.278 35.878C205.177 35.775 205.086 35.6654 205.007 35.5451C204.927 35.4261 204.859 35.2991 204.804 35.1667C204.749 35.0344 204.708 34.8967 204.679 34.7563C204.651 34.6146 204.637 34.4729 204.637 34.3285C204.637 34.1854 204.651 34.0424 204.679 33.9007C204.708 33.7603 204.749 33.624 204.804 33.4903C204.859 33.3579 204.927 33.2309 205.007 33.1119C205.086 32.9916 205.177 32.882 205.278 32.7804C205.381 32.6788 205.491 32.5879 205.611 32.5077C205.73 32.4274 205.857 32.3606 205.99 32.3058C206.123 32.2496 206.26 32.2082 206.401 32.1801C206.543 32.152 206.685 32.1387 206.829 32.1387C206.972 32.1387 207.115 32.152 207.257 32.1801C207.397 32.2082 207.535 32.2496 207.667 32.3058C207.801 32.3606 207.927 32.4274 208.047 32.5077C208.166 32.5879 208.277 32.6788 208.379 32.7804C208.48 32.882 208.571 32.9916 208.651 33.1119C208.732 33.2309 208.798 33.3579 208.855 33.4903C208.909 33.624 208.951 33.7603 208.979 33.9007C209.007 34.0424 209.02 34.1854 209.02 34.3285Z" fill="url(#paint1_linear_1873_107219)"/>
<path d="M197.771 44.0113C197.771 44.1985 197.754 44.3843 197.717 44.5688C197.681 44.7533 197.626 44.9325 197.554 45.1062C197.481 45.2787 197.393 45.4445 197.289 45.6009C197.185 45.756 197.066 45.9004 196.933 46.034C196.801 46.1664 196.655 46.2854 196.5 46.3897C196.344 46.4939 196.178 46.5822 196.004 46.6544C195.83 46.7252 195.652 46.78 195.468 46.8161C195.283 46.8536 195.096 46.8723 194.909 46.8723C194.721 46.8723 194.535 46.8536 194.35 46.8161C194.166 46.78 193.987 46.7252 193.813 46.6544C193.64 46.5822 193.475 46.4939 193.318 46.3897C193.162 46.2854 193.017 46.1664 192.885 46.034C192.751 45.9004 192.634 45.756 192.528 45.6009C192.424 45.4445 192.336 45.2787 192.265 45.1062C192.193 44.9325 192.138 44.7533 192.102 44.5688C192.064 44.3843 192.047 44.1985 192.047 44.0113C192.047 43.8228 192.064 43.637 192.102 43.4525C192.138 43.2694 192.193 43.0902 192.265 42.9164C192.336 42.7426 192.424 42.5782 192.528 42.4218C192.634 42.2654 192.751 42.121 192.885 41.9886C193.017 41.8563 193.162 41.7373 193.318 41.633C193.475 41.5287 193.64 41.4405 193.813 41.3683C193.987 41.2961 194.166 41.2426 194.35 41.2052C194.535 41.1691 194.721 41.1504 194.909 41.1504C195.096 41.1504 195.283 41.1691 195.468 41.2052C195.652 41.2426 195.83 41.2961 196.004 41.3683C196.178 41.4405 196.344 41.5287 196.5 41.633C196.655 41.7373 196.801 41.8563 196.933 41.9886C197.066 42.121 197.185 42.2654 197.289 42.4218C197.393 42.5782 197.481 42.7426 197.554 42.9164C197.626 43.0902 197.681 43.2694 197.717 43.4525C197.754 43.637 197.771 43.8228 197.771 44.0113Z" fill="#B33263"/>
<path d="M229.295 52.4075C228.871 52.0559 228.392 51.7899 227.861 51.6335C227.65 51.572 227.431 51.5305 227.212 51.5051C227.185 51.4583 227.158 51.4115 227.129 51.3647C226.875 50.9623 226.557 50.6 226.181 50.3059C225.979 50.1482 225.771 49.9998 225.543 49.8768C225.32 49.7565 225.083 49.6549 224.841 49.5733C224.595 49.4904 224.345 49.4423 224.09 49.4062C223.878 49.3754 223.661 49.3661 223.446 49.3781C222.928 49.4102 222.436 49.5412 221.971 49.7725C221.737 49.8875 221.527 50.0332 221.319 50.1896C221.146 50.3206 220.986 50.4637 220.839 50.6214C220.165 51.3393 219.733 52.2792 219.684 53.2658C219.67 53.5145 219.692 53.7618 219.726 54.0078C219.745 54.1388 219.87 54.2805 219.979 54.3447C220.091 54.4115 220.256 54.4409 220.383 54.4035C220.521 54.3634 220.653 54.2805 220.721 54.1522C220.739 54.1094 220.757 54.0666 220.776 54.0238C220.801 53.9329 220.803 53.8407 220.78 53.7471C220.779 53.7391 220.779 53.731 220.777 53.723C220.757 53.4971 220.761 53.2711 220.789 53.0465C220.831 52.7992 220.9 52.5572 220.994 52.3233C221.109 52.0679 221.251 51.8273 221.418 51.6027C221.597 51.3821 221.799 51.1816 222.023 51.0051C222.23 50.8567 222.452 50.7311 222.686 50.6321C222.898 50.5546 223.117 50.4998 223.339 50.469C223.565 50.449 223.791 50.4543 224.015 50.4811C224.264 50.5238 224.509 50.5934 224.744 50.6883C224.999 50.8019 225.241 50.945 225.467 51.1121C225.642 51.2538 225.804 51.4102 225.951 51.58C225.482 51.695 225.041 51.9222 224.669 52.231C224.202 52.6214 223.896 53.1949 223.87 53.8046C223.863 53.957 223.88 54.1107 223.904 54.2604C223.93 54.4195 223.984 54.5653 224.046 54.7136C224.156 54.9757 224.34 55.2003 224.563 55.3741C225.019 55.727 225.658 55.8099 226.198 55.6107C226.491 55.5024 226.752 55.358 226.98 55.1415C227.174 54.9556 227.335 54.723 227.442 54.477C227.507 54.326 227.569 54.1735 227.606 54.0118C227.644 53.8567 227.668 53.6963 227.681 53.5358C227.706 53.2578 227.684 52.9744 227.64 52.699C227.717 52.723 227.795 52.7511 227.871 52.7805C228.093 52.8808 228.303 53.0038 228.498 53.1482C228.673 53.2912 228.835 53.453 228.975 53.6308C229.095 53.7992 229.196 53.9797 229.279 54.1682C229.355 54.3781 229.408 54.596 229.438 54.8166C229.459 55.0559 229.454 55.2979 229.424 55.5358C229.384 55.7738 229.319 56.0064 229.23 56.2297C229.138 56.4316 229.027 56.6227 228.898 56.8005C228.787 56.9369 228.666 57.0626 228.534 57.1775C228.435 57.2631 228.375 57.4249 228.373 57.5532C228.371 57.6869 228.43 57.8513 228.53 57.9436C228.63 58.0372 228.764 58.108 228.906 58.104C229.057 58.1 229.181 58.0465 229.296 57.9476C229.503 57.7698 229.678 57.5612 229.84 57.3406C229.975 57.1548 230.09 56.9529 230.181 56.7417C230.291 56.4917 230.384 56.239 230.442 55.9703C230.496 55.7096 230.533 55.4423 230.537 55.1762C230.55 54.1254 230.11 53.084 229.295 52.4075ZM226.478 53.9917C226.432 54.0866 226.379 54.1776 226.317 54.2645C226.264 54.3273 226.205 54.3848 226.141 54.4382C226.065 54.4891 225.984 54.5345 225.902 54.5719C225.823 54.5987 225.742 54.6187 225.661 54.6321C225.599 54.6348 225.538 54.6334 225.476 54.6281C225.43 54.6187 225.384 54.6054 225.339 54.5893C225.299 54.5693 225.259 54.5465 225.221 54.5211C225.184 54.4877 225.148 54.4503 225.114 54.4115C225.077 54.3567 225.045 54.2992 225.018 54.2391C224.99 54.1588 224.97 54.0773 224.956 53.9944C224.951 53.9075 224.952 53.8206 224.962 53.735C224.976 53.6615 224.997 53.5907 225.022 53.5198C225.066 53.4289 225.117 53.3433 225.176 53.2604C225.265 53.1535 225.367 53.0572 225.476 52.969C225.617 52.8728 225.767 52.7899 225.923 52.723C226.11 52.6548 226.304 52.6054 226.501 52.5773C226.543 52.7244 226.577 52.8741 226.597 53.0265C226.613 53.2096 226.611 53.3928 226.591 53.576C226.566 53.7177 226.529 53.8567 226.478 53.9917Z" fill="url(#paint2_linear_1873_107219)"/>
<path d="M183.253 54.894C182.693 54.7416 182.098 54.6801 181.519 54.7108C181.042 54.7349 180.562 54.8231 180.103 54.9728C179.472 54.4421 178.728 54.0531 177.926 53.8271C176.752 53.4956 175.45 53.5598 174.329 54.0517C174.017 54.1894 173.713 54.3405 173.428 54.5303C173.149 54.7148 172.886 54.9274 172.64 55.1547C172.18 55.5798 171.789 56.0945 171.498 56.648C171.344 56.9394 171.224 57.2496 171.122 57.5624C171.074 57.7108 171.125 57.922 171.204 58.049C171.288 58.1867 171.454 58.3151 171.617 58.3445C171.781 58.3739 171.962 58.3592 172.104 58.2629C172.149 58.2268 172.194 58.1894 172.24 58.152C172.32 58.0651 172.374 57.9648 172.399 57.8498C172.411 57.8151 172.423 57.779 172.435 57.7442C172.569 57.402 172.743 57.0758 172.95 56.771C173.186 56.4501 173.46 56.1573 173.765 55.898C174.074 55.6547 174.408 55.4461 174.765 55.279C175.087 55.1426 175.423 55.041 175.767 54.9769C176.112 54.9274 176.462 54.9167 176.811 54.9421C177.193 54.9849 177.569 55.0704 177.932 55.1961C178.235 55.3111 178.523 55.4555 178.797 55.6239C178.562 55.791 178.344 55.9809 178.146 56.1921C177.911 56.4461 177.7 56.7389 177.553 57.0517C177.387 57.406 177.293 57.7723 177.273 58.1613C177.259 58.4528 177.309 58.7589 177.403 59.0343C177.46 59.2001 177.533 59.3632 177.62 59.5156C177.706 59.6707 177.817 59.807 177.934 59.9407C178.337 60.414 179.01 60.7041 179.634 60.6239C179.976 60.5811 180.301 60.4755 180.591 60.2856C180.867 60.1038 181.093 59.8779 181.283 59.6105C181.661 59.0771 181.823 58.4153 181.738 57.7643C181.696 57.4394 181.622 57.1252 181.493 56.8231C181.379 56.5584 181.249 56.3044 181.091 56.0664C181.099 56.0637 181.107 56.0637 181.114 56.0611C181.474 56.0089 181.837 55.9982 182.2 56.0236C182.567 56.0651 182.93 56.1453 183.28 56.2656C183.606 56.3926 183.919 56.5544 184.209 56.7509C184.47 56.9461 184.709 57.168 184.922 57.4153C185.142 57.6961 185.328 58.0009 185.48 58.3244C185.626 58.6667 185.733 59.0236 185.8 59.3899C185.852 59.7455 185.865 60.1052 185.839 60.4621C185.803 60.787 185.732 61.1078 185.628 61.4167C185.61 61.4608 185.594 61.5049 185.575 61.5477C185.509 61.7068 185.478 61.8672 185.529 62.0383C185.575 62.1934 185.704 62.3605 185.853 62.43C186.005 62.5009 186.182 62.533 186.344 62.4768C186.503 62.422 186.669 62.3137 186.736 62.1533C186.86 61.8578 186.966 61.5517 187.035 61.2375C187.105 60.926 187.141 60.6052 187.156 60.2856C187.184 59.7041 187.105 59.1078 186.947 58.5477C186.789 57.9875 186.538 57.4394 186.208 56.9595C186.025 56.6948 185.816 56.4434 185.589 56.2148C185.364 55.9889 185.115 55.799 184.855 55.6186C184.372 55.2843 183.819 55.0477 183.253 54.894ZM180.444 58.2536C180.431 58.3592 180.408 58.4635 180.376 58.5651C180.332 58.6707 180.279 58.7709 180.217 58.8672C180.146 58.9568 180.067 59.041 179.983 59.1172C179.908 59.172 179.828 59.2215 179.745 59.2643C179.681 59.2883 179.617 59.307 179.551 59.3217C179.495 59.3271 179.44 59.3298 179.384 59.3284C179.328 59.3191 179.275 59.307 179.221 59.291C179.161 59.2656 179.105 59.2348 179.05 59.2014C178.983 59.148 178.92 59.0891 178.863 59.0263C178.797 58.9381 178.741 58.8458 178.69 58.7469C178.649 58.6413 178.617 58.533 178.593 58.4207C178.582 58.3244 178.578 58.2282 178.582 58.1319C178.598 58.0116 178.626 57.8939 178.664 57.7776C178.73 57.6145 178.813 57.4595 178.912 57.3124C179.049 57.1346 179.205 56.9715 179.375 56.8244C179.514 56.7161 179.661 56.6159 179.815 56.5263C179.979 56.7416 180.125 56.9728 180.244 57.2175C180.325 57.4113 180.388 57.6105 180.428 57.8164C180.447 57.9621 180.454 58.1079 180.444 58.2536Z" fill="#012248"/>
<path d="M187.317 14.877C187.317 14.877 191.797 22.2352 192.796 23.8742C195.498 28.3114 185.591 39.3888 170.057 49.8433C168.201 51.092 166.264 52.3326 164.26 53.5505C162.255 54.7697 160.263 55.9181 158.3 56.9903C141.867 65.9729 127.469 69.6734 124.767 65.2349C123.768 63.5959 119.287 56.2376 119.287 56.2376C119.287 56.2376 135.004 46.6829 147.425 39.1321L159.181 31.9838C171.601 24.4317 187.317 14.877 187.317 14.877Z" fill="#F9AB21"/>
<path d="M187.317 14.8779C190.019 19.3163 180.113 30.3925 164.577 40.8469C162.723 42.0956 160.785 43.3362 158.781 44.5555C156.776 45.7734 154.784 46.9218 152.82 47.9953C136.388 56.9765 121.99 60.677 119.287 56.2386C116.585 51.8001 126.491 40.724 142.026 30.2695C143.882 29.0208 145.819 27.7802 147.824 26.5623C149.828 25.343 151.82 24.1946 153.783 23.1225C170.216 14.1399 184.614 10.4394 187.317 14.8779Z" fill="url(#paint3_linear_1873_107219)"/>
<path d="M161.96 36.5508L170.096 49.9117C168.214 51.1175 166.263 52.3341 164.258 53.552C162.254 54.7713 160.275 55.9424 158.339 57.06L150.203 43.6991C152.085 42.4933 154.036 41.2767 156.041 40.0574C158.045 38.8395 160.024 37.6671 161.96 36.5508Z" fill="#C59DA5"/>
<path d="M153.782 23.1221L164.576 40.8466C162.722 42.0952 160.785 43.3358 158.781 44.5551C156.775 45.773 154.783 46.9214 152.819 47.9949L142.025 30.2691C143.881 29.0204 145.818 27.7798 147.823 26.5619C149.827 25.3426 151.819 24.1943 153.782 23.1221Z" fill="#D6D7D9"/>
<defs>
<filter id="filter0_f_1873_107219" x="84" y="65" width="197" height="90" filterUnits="userSpaceOnUse" color-interpolation-filters="sRGB">
<feFlood flood-opacity="0" result="BackgroundImageFix"/>
<feBlend mode="normal" in="SourceGraphic" in2="BackgroundImageFix" result="shape"/>
<feGaussianBlur stdDeviation="15" result="effect1_foregroundBlur_1873_107219"/>
</filter>
<linearGradient id="paint0_linear_1873_107219" x1="142.117" y1="87.8815" x2="221.385" y2="87.8815" gradientUnits="userSpaceOnUse">
<stop stop-color="#FFA53A"/>
<stop offset="1" stop-color="#FF3E3E"/>
</linearGradient>
<linearGradient id="paint1_linear_1873_107219" x1="204.637" y1="34.3494" x2="209" y2="34.3494" gradientUnits="userSpaceOnUse">
<stop stop-color="#FFA53A"/>
<stop offset="1" stop-color="#FF3E3E"/>
</linearGradient>
<linearGradient id="paint2_linear_1873_107219" x1="219.68" y1="53.7802" x2="230.487" y2="53.7802" gradientUnits="userSpaceOnUse">
<stop stop-color="#FFA53A"/>
<stop offset="1" stop-color="#FF3E3E"/>
</linearGradient>
<linearGradient id="paint3_linear_1873_107219" x1="118.844" y1="35.7731" x2="187.444" y2="35.7731" gradientUnits="userSpaceOnUse">
<stop stop-color="#FFA53A"/>
<stop offset="1" stop-color="#FF3E3E"/>
</linearGradient>
</defs>
</svg>
