<svg width="18" height="18" viewBox="0 0 18 18" fill="none" xmlns="http://www.w3.org/2000/svg">
<path d="M8.16699 14H9.83366V12.3333H8.16699V14ZM9.00033 0.666656C4.40033 0.666656 0.666992 4.39999 0.666992 8.99999C0.666992 13.6 4.40033 17.3333 9.00033 17.3333C13.6003 17.3333 17.3337 13.6 17.3337 8.99999C17.3337 4.39999 13.6003 0.666656 9.00033 0.666656ZM9.00033 15.6667C5.32533 15.6667 2.33366 12.675 2.33366 8.99999C2.33366 5.32499 5.32533 2.33332 9.00033 2.33332C12.6753 2.33332 15.667 5.32499 15.667 8.99999C15.667 12.675 12.6753 15.6667 9.00033 15.6667ZM9.00033 3.99999C7.15866 3.99999 5.66699 5.49166 5.66699 7.33332H7.33366C7.33366 6.41666 8.08366 5.66666 9.00033 5.66666C9.91699 5.66666 10.667 6.41666 10.667 7.33332C10.667 8.99999 8.16699 8.79166 8.16699 11.5H9.83366C9.83366 9.62499 12.3337 9.41666 12.3337 7.33332C12.3337 5.49166 10.842 3.99999 9.00033 3.99999Z" fill="white"/>
</svg>
