<svg width="53" height="52" viewBox="0 0 53 52" fill="none" xmlns="http://www.w3.org/2000/svg">
<rect x="0.5" width="52" height="52" rx="12" fill="#FF9800"/>
<path d="M37.2125 20.2875L30.2125 13.2875C30.022 13.1018 29.766 12.9985 29.5 13H17.5C16.9696 13 16.4609 13.2107 16.0858 13.5858C15.7107 13.9609 15.5 14.4696 15.5 15V26C15.5 26.2652 15.6054 26.5196 15.7929 26.7071C15.9804 26.8947 16.2348 27 16.5 27C16.7652 27 17.0196 26.8947 17.2071 26.7071C17.3946 26.5196 17.5 26.2652 17.5 26V15H28.5V21C28.5 21.2652 28.6054 21.5196 28.7929 21.7071C28.9804 21.8947 29.2348 22 29.5 22H35.5V37H31.5C31.2348 37 30.9804 37.1054 30.7929 37.2929C30.6054 37.4804 30.5 37.7348 30.5 38C30.5 38.2652 30.6054 38.5196 30.7929 38.7071C30.9804 38.8947 31.2348 39 31.5 39H35.5C36.0304 39 36.5391 38.7893 36.9142 38.4142C37.2893 38.0392 37.5 37.5304 37.5 37V21C37.5015 20.734 37.3982 20.478 37.2125 20.2875ZM30.5 16.4125L34.0875 20H30.5V16.4125ZM26.5 31.5H25.5V31C25.5 30.0718 25.1313 29.1815 24.4749 28.5251C23.8185 27.8688 22.9283 27.5 22 27.5C21.0717 27.5 20.1815 27.8688 19.5251 28.5251C18.8687 29.1815 18.5 30.0718 18.5 31V31.5H17.5C17.2348 31.5 16.9804 31.6054 16.7929 31.7929C16.6054 31.9804 16.5 32.2348 16.5 32.5V38C16.5 38.2652 16.6054 38.5196 16.7929 38.7071C16.9804 38.8947 17.2348 39 17.5 39H26.5C26.7652 39 27.0196 38.8947 27.2071 38.7071C27.3946 38.5196 27.5 38.2652 27.5 38V32.5C27.5 32.2348 27.3946 31.9804 27.2071 31.7929C27.0196 31.6054 26.7652 31.5 26.5 31.5ZM23.5 31.5H20.5V31C20.5 30.6022 20.658 30.2207 20.9393 29.9394C21.2206 29.6581 21.6022 29.5 22 29.5C22.3978 29.5 22.7794 29.6581 23.0607 29.9394C23.342 30.2207 23.5 30.6022 23.5 31V31.5Z" fill="white"/>
</svg>
