<svg width="40" height="40" viewBox="0 0 40 40" fill="none" xmlns="http://www.w3.org/2000/svg">
<rect width="40" height="40" rx="8" fill="#FF9800"/>
<rect width="40" height="40" rx="8" fill="url(#paint0_linear_2722_17709)" fill-opacity="0.4"/>
<path d="M25.2499 31.3741C25.2499 31.6062 25.1578 31.8287 24.9937 31.9928C24.8296 32.1569 24.607 32.2491 24.3749 32.2491H15.6249C15.3929 32.2491 15.1703 32.1569 15.0062 31.9928C14.8421 31.8287 14.7499 31.6062 14.7499 31.3741C14.7499 31.142 14.8421 30.9195 15.0062 30.7554C15.1703 30.5913 15.3929 30.4991 15.6249 30.4991H24.3749C24.607 30.4991 24.8296 30.5913 24.9937 30.7554C25.1578 30.9195 25.2499 31.142 25.2499 31.3741ZM29.6249 17.3741C29.6279 18.832 29.2984 20.2714 28.6616 21.5829C28.0248 22.8944 27.0974 24.0435 25.9499 24.9429C25.7332 25.1064 25.5573 25.3179 25.4358 25.5608C25.3144 25.8037 25.2508 26.0713 25.2499 26.3429V26.9991C25.2499 27.4632 25.0656 27.9084 24.7374 28.2365C24.4092 28.5647 23.9641 28.7491 23.4999 28.7491H16.4999C16.0358 28.7491 15.5907 28.5647 15.2625 28.2365C14.9343 27.9084 14.7499 27.4632 14.7499 26.9991V26.3429C14.7492 26.0751 14.6878 25.8111 14.5703 25.5705C14.4529 25.3299 14.2825 25.1191 14.0718 24.9538C12.9267 24.0607 11.9991 22.9194 11.3588 21.616C10.7185 20.3126 10.3821 18.881 10.3749 17.4288C10.3421 12.2116 14.564 7.86942 19.7703 7.74911C21.0538 7.71697 22.3308 7.94226 23.5259 8.41169C24.721 8.88112 25.8099 9.58518 26.7284 10.4823C27.647 11.3794 28.3765 12.4515 28.874 13.6351C29.3715 14.8188 29.6268 16.0901 29.6249 17.3741ZM26.0374 16.346C25.8253 15.0956 25.2289 13.9424 24.3312 13.0466C23.4334 12.1508 22.2789 11.557 21.0281 11.3475C20.9146 11.3289 20.7986 11.3327 20.6866 11.3589C20.5746 11.3851 20.4689 11.433 20.3754 11.5001C20.282 11.5671 20.2027 11.6519 20.142 11.7496C20.0813 11.8473 20.0405 11.9559 20.0218 12.0694C20.0031 12.1829 20.007 12.2989 20.0332 12.4109C20.0594 12.5229 20.1073 12.6286 20.1744 12.722C20.2414 12.8155 20.3262 12.8948 20.4239 12.9555C20.5215 13.0162 20.6302 13.057 20.7437 13.0757C21.6352 13.2249 22.4579 13.6487 23.0971 14.2879C23.7363 14.927 24.1601 15.7498 24.3093 16.6413C24.3454 16.8441 24.4518 17.0276 24.6098 17.1597C24.7679 17.2917 24.9674 17.3638 25.1734 17.3632H25.3265C25.4408 17.3448 25.5502 17.3036 25.6483 17.2421C25.7463 17.1806 25.831 17.1 25.8973 17.0051C25.9637 16.9102 26.0102 16.803 26.0343 16.6898C26.0584 16.5765 26.0594 16.4596 26.0374 16.346Z" fill="white"/>
<defs>
<linearGradient id="paint0_linear_2722_17709" x1="20" y1="-24.5" x2="20" y2="15.5" gradientUnits="userSpaceOnUse">
<stop stop-color="white"/>
<stop offset="1" stop-color="white" stop-opacity="0"/>
</linearGradient>
</defs>
</svg>
