<svg width="40" height="40" viewBox="0 0 40 40" fill="none" xmlns="http://www.w3.org/2000/svg">
<rect width="40" height="40" rx="8" fill="#585A5E"/>
<rect width="40" height="40" rx="8" fill="url(#paint0_linear_2722_17672)" fill-opacity="0.2"/>
<path d="M23.25 8.625C21.9675 8.62655 20.7035 8.9313 19.5612 9.51438C18.4189 10.0975 17.4307 10.9424 16.6771 11.9801C15.9235 13.0179 15.426 14.2191 15.2251 15.4858C15.0242 16.7525 15.1256 18.0487 15.5211 19.2688L9.67111 25.1086C9.52021 25.2634 9.43629 25.4713 9.43751 25.6875V29.75C9.43751 29.9655 9.52312 30.1722 9.67549 30.3245C9.82786 30.4769 10.0345 30.5625 10.25 30.5625H14.3125C14.528 30.5625 14.7347 30.4769 14.887 30.3245C15.0394 30.1722 15.125 29.9655 15.125 29.75V28.125H16.75C16.9655 28.125 17.1722 28.0394 17.3245 27.887C17.4769 27.7347 17.5625 27.528 17.5625 27.3125V25.6875H19.1875C19.4037 25.6887 19.6116 25.6048 19.7664 25.4539L20.7313 24.4789C21.8478 24.8409 23.0295 24.9567 24.195 24.8183C25.3605 24.68 26.4823 24.2907 27.483 23.6774C28.4837 23.064 29.3397 22.2411 29.9919 21.2653C30.6442 20.2896 31.0774 19.184 31.2615 18.0248C31.4457 16.8657 31.3765 15.6803 31.0588 14.5504C30.741 13.4205 30.1822 12.3729 29.4209 11.4796C28.6595 10.5863 27.7137 9.86856 26.6484 9.37578C25.5831 8.88299 24.4237 8.62686 23.25 8.625ZM25.2813 16.3438C24.9599 16.3438 24.6457 16.2484 24.3785 16.0699C24.1112 15.8913 23.903 15.6375 23.78 15.3406C23.657 15.0437 23.6248 14.7169 23.6875 14.4017C23.7502 14.0865 23.905 13.797 24.1322 13.5697C24.3595 13.3424 24.649 13.1877 24.9642 13.125C25.2795 13.0623 25.6062 13.0945 25.9031 13.2174C26.2001 13.3404 26.4538 13.5487 26.6324 13.8159C26.811 14.0832 26.9063 14.3974 26.9063 14.7188C26.9063 15.1497 26.7351 15.5631 26.4303 15.8678C26.1256 16.1725 25.7122 16.3438 25.2813 16.3438Z" fill="white"/>
<defs>
<linearGradient id="paint0_linear_2722_17672" x1="20" y1="40" x2="20" y2="20" gradientUnits="userSpaceOnUse">
<stop/>
<stop offset="1" stop-opacity="0"/>
</linearGradient>
</defs>
</svg>
