<svg width="40" height="40" viewBox="0 0 40 40" fill="none" xmlns="http://www.w3.org/2000/svg">
<rect width="40" height="40" rx="8" fill="#3DB249"/>
<rect width="40" height="40" rx="8" fill="url(#paint0_linear_2722_17663)" fill-opacity="0.2"/>
<path d="M19.15 23.7374C20.4917 22.8462 21.5108 21.5466 22.0565 20.0311C22.6022 18.5157 22.6455 16.8648 22.18 15.3227C21.7145 13.7807 20.7649 12.4296 19.4718 11.4692C18.1787 10.5088 16.6108 9.99023 15 9.99023C13.3893 9.99023 11.8213 10.5088 10.5282 11.4692C9.23511 12.4296 8.28554 13.7807 7.82004 15.3227C7.35454 16.8648 7.39784 18.5157 7.94354 20.0311C8.48924 21.5466 9.50833 22.8462 10.85 23.7374C8.56123 24.5791 6.58511 26.1015 5.18751 28.0999C5.07835 28.2482 5.01337 28.4242 5.0001 28.6078C4.98682 28.7914 5.0258 28.9751 5.11251 29.1374C5.1982 29.2987 5.32594 29.4339 5.48218 29.5285C5.63842 29.6231 5.81735 29.6737 6.00001 29.6749H24C24.1827 29.6737 24.3616 29.6231 24.5178 29.5285C24.6741 29.4339 24.8018 29.2987 24.8875 29.1374C24.9742 28.9751 25.0132 28.7914 24.9999 28.6078C24.9867 28.4242 24.9217 28.2482 24.8125 28.0999C23.4149 26.1015 21.4388 24.5791 19.15 23.7374Z" fill="white"/>
<path d="M35.0126 28.1C33.6071 26.1041 31.6279 24.5826 29.3376 23.7375C30.6835 22.8497 31.7069 21.551 32.2554 20.0348C32.804 18.5185 32.8484 16.8657 32.3821 15.3222C31.9159 13.7787 30.9638 12.4269 29.6675 11.468C28.3712 10.5091 26.8 9.99425 25.1876 10C24.4994 10.0037 23.8146 10.0961 23.1501 10.275C22.994 10.3219 22.8514 10.4054 22.734 10.5184C22.6166 10.6314 22.5278 10.7708 22.4751 10.925C22.4248 11.078 22.4122 11.2408 22.4383 11.3997C22.4644 11.5585 22.5285 11.7088 22.6251 11.8375C23.7556 13.3565 24.4051 15.1794 24.4898 17.071C24.5744 18.9626 24.0904 20.8362 23.1001 22.45C22.9731 22.6645 22.9297 22.9182 22.9781 23.1627C23.0265 23.4072 23.1634 23.6252 23.3626 23.775C23.7376 24.0667 24.1001 24.3667 24.4501 24.675L24.5126 24.7375C25.8469 25.9722 26.9293 27.4537 27.7001 29.1C27.7792 29.2721 27.9061 29.4178 28.0657 29.5197C28.2252 29.6217 28.4108 29.6756 28.6001 29.675H34.1876C34.3703 29.6738 34.5492 29.6232 34.7054 29.5286C34.8617 29.434 34.9894 29.2989 35.0751 29.1375C35.1608 28.9755 35.2003 28.793 35.1892 28.61C35.1782 28.4271 35.1171 28.2506 35.0126 28.1Z" fill="white"/>
<defs>
<linearGradient id="paint0_linear_2722_17663" x1="20" y1="40" x2="20" y2="9" gradientUnits="userSpaceOnUse">
<stop/>
<stop offset="1" stop-opacity="0"/>
</linearGradient>
</defs>
</svg>
