<svg width="40" height="40" viewBox="0 0 40 40" fill="none" xmlns="http://www.w3.org/2000/svg">
<rect width="40" height="40" rx="8" fill="url(#paint0_linear_2722_17681)"/>
<mask id="mask0_2722_17681" style="mask-type:alpha" maskUnits="userSpaceOnUse" x="0" y="0" width="40" height="40">
<rect width="40" height="40" rx="8" fill="white"/>
</mask>
<g mask="url(#mask0_2722_17681)">
</g>
<path d="M13.0527 17.9791H14.8843C15.4317 16.5685 16.5685 15.4527 17.9791 14.8843V13.0527C15.6212 13.7475 13.7475 15.6212 13.0527 17.9791Z" fill="#48FF90"/>
<path d="M26.9473 22.0215H25.1157C24.5683 23.432 23.4315 24.5478 22.042 25.0952V26.9478C24.3788 26.2531 26.2525 24.3794 26.9473 22.0215Z" fill="#48FF90"/>
<path d="M14.8843 22.0215H13.0527C13.7475 24.4004 15.6212 26.2531 17.9791 26.9478V25.1162C16.5685 24.5478 15.4527 23.432 14.8843 22.0215Z" fill="#48FF90"/>
<path d="M25.1157 17.9791H26.9473C26.2526 15.6212 24.3999 13.7475 22.021 13.0527V14.8843C23.4315 15.4527 24.5473 16.5685 25.1157 17.9791Z" fill="#48FF90"/>
<path d="M29.1368 19.1368H22.9474C22.6526 18.1263 21.8737 17.3474 20.8632 17.0526V10.8632C20.8632 10.3789 20.4842 10 20 10C19.5158 10 19.1368 10.3789 19.1368 10.8632V17.0526C18.1263 17.3474 17.3474 18.1263 17.0526 19.1368H10.8632C10.3789 19.1368 10 19.5158 10 20C10 20.4842 10.3789 20.8632 10.8632 20.8632H17.0526C17.3474 21.8737 18.1263 22.6526 19.1368 22.9474V29.1368C19.1368 29.6211 19.5158 30 20 30C20.4842 30 20.8632 29.6211 20.8632 29.1368V22.9474C21.8737 22.6526 22.6526 21.8737 22.9474 20.8632H29.1368C29.6211 20.8632 30 20.4842 30 20C30 19.5158 29.6211 19.1368 29.1368 19.1368Z" fill="#48FF90"/>
<path d="M10.8632 16.7368C11.3474 16.7368 11.7263 16.3579 11.7263 15.8737V13.1789C11.7263 12.3789 12.3789 11.7263 13.1789 11.7263H15.8526C16.3368 11.7263 16.7158 11.3474 16.7158 10.8632C16.7158 10.3789 16.3368 10 15.8526 10H13.1789C11.4316 10 10 11.4316 10 13.1789V15.8526C10 16.3368 10.3789 16.7368 10.8632 16.7368Z" fill="#48FF90"/>
<path d="M29.1369 23.2637C28.6527 23.2637 28.2737 23.6426 28.2737 24.1268V26.8005C28.2737 27.6005 27.6211 28.2531 26.8211 28.2531H24.1263C23.6421 28.2531 23.2632 28.6321 23.2632 29.1163C23.2632 29.6005 23.6421 29.9795 24.1263 29.9795H26.8C28.5474 29.9795 29.979 28.5479 29.979 26.8005V24.1268C30 23.6637 29.6211 23.2637 29.1369 23.2637Z" fill="#48FF90"/>
<path d="M26.8211 10H24.1263C23.6421 10 23.2632 10.3789 23.2632 10.8632C23.2632 11.3474 23.6421 11.7263 24.1263 11.7263H26.8C27.6 11.7263 28.2527 12.3789 28.2527 13.1789V15.8526C28.2527 16.3368 28.6316 16.7158 29.1158 16.7158C29.6 16.7158 29.979 16.3368 29.979 15.8526V13.1789C30 11.4316 28.5684 10 26.8211 10Z" fill="#48FF90"/>
<path d="M15.8737 28.2531H13.1789C12.3789 28.2531 11.7263 27.6005 11.7263 26.8005V24.1268C11.7263 23.6426 11.3474 23.2637 10.8632 23.2637C10.3789 23.2637 10 23.6426 10 24.1268V26.8005C10 28.5479 11.4316 29.9795 13.1789 29.9795H15.8526C16.3368 29.9795 16.7158 29.6005 16.7158 29.1163C16.7158 28.6321 16.3368 28.2531 15.8737 28.2531Z" fill="#48FF90"/>
<defs>
<linearGradient id="paint0_linear_2722_17681" x1="-16.1851" y1="18.0925" x2="20" y2="58.0925" gradientUnits="userSpaceOnUse">
<stop stop-color="#377D84"/>
<stop offset="1" stop-color="#324067"/>
</linearGradient>
</defs>
</svg>
