<svg width="40" height="40" viewBox="0 0 40 40" fill="none" xmlns="http://www.w3.org/2000/svg">
<rect width="40" height="40" rx="8" fill="#3DB249"/>
<rect width="40" height="40" rx="8" fill="url(#paint0_linear_2722_17700)" fill-opacity="0.2"/>
<path d="M20 7C17.7423 6.99983 15.5234 7.58766 13.5619 8.70562C11.6003 9.82357 9.9638 11.4331 8.81335 13.3758C7.6629 15.3184 7.03822 17.5272 7.00081 19.7846C6.9634 22.042 7.51456 24.2703 8.60001 26.25L7.53751 29.9875C7.43758 30.3314 7.43124 30.6958 7.51913 31.0429C7.60703 31.3901 7.78598 31.7076 8.03751 31.9625C8.28903 32.2152 8.60427 32.3952 8.9498 32.4832C9.29532 32.5712 9.65822 32.5641 10 32.4625L13.75 31.4C15.4879 32.3525 17.4205 32.8951 19.4002 32.9862C21.3798 33.0774 23.3541 32.7148 25.1722 31.926C26.9902 31.1373 28.6039 29.9433 29.8898 28.4354C31.1757 26.9275 32.0999 25.1456 32.5916 23.2258C33.0834 21.306 33.1297 19.2992 32.7271 17.3588C32.3244 15.4183 31.4835 13.5956 30.2685 12.03C29.0535 10.4643 27.4967 9.19721 25.717 8.32542C23.9373 7.45363 21.9818 7.00027 20 7ZM24 23H16C15.7348 23 15.4804 22.8946 15.2929 22.7071C15.1054 22.5196 15 22.2652 15 22C15 21.7348 15.1054 21.4804 15.2929 21.2929C15.4804 21.1054 15.7348 21 16 21H24C24.2652 21 24.5196 21.1054 24.7071 21.2929C24.8947 21.4804 25 21.7348 25 22C25 22.2652 24.8947 22.5196 24.7071 22.7071C24.5196 22.8946 24.2652 23 24 23ZM24 19H16C15.7348 19 15.4804 18.8946 15.2929 18.7071C15.1054 18.5196 15 18.2652 15 18C15 17.7348 15.1054 17.4804 15.2929 17.2929C15.4804 17.1054 15.7348 17 16 17H24C24.2652 17 24.5196 17.1054 24.7071 17.2929C24.8947 17.4804 25 17.7348 25 18C25 18.2652 24.8947 18.5196 24.7071 18.7071C24.5196 18.8946 24.2652 19 24 19Z" fill="white"/>
<defs>
<linearGradient id="paint0_linear_2722_17700" x1="20" y1="40" x2="20" y2="9" gradientUnits="userSpaceOnUse">
<stop/>
<stop offset="1" stop-opacity="0"/>
</linearGradient>
</defs>
</svg>
