<svg width="36" height="36" viewBox="0 0 36 36" fill="none" xmlns="http://www.w3.org/2000/svg">
<rect width="36" height="36" rx="18" fill="#69A757"/>
<rect width="36" height="36" rx="18" fill="white" fill-opacity="0.8"/>
<path d="M25.5 14.25H10.5C10.0858 14.25 9.75 14.5858 9.75 15V25.5C9.75 25.9142 10.0858 26.25 10.5 26.25H25.5C25.9142 26.25 26.25 25.9142 26.25 25.5V15C26.25 14.5858 25.9142 14.25 25.5 14.25Z" stroke="#69A757" stroke-width="1.5" stroke-linecap="round" stroke-linejoin="round"/>
<path d="M14.625 14.25V10.875C14.625 9.97989 14.9806 9.12145 15.6135 8.48851C16.2465 7.85558 17.1049 7.5 18 7.5C18.8951 7.5 19.7535 7.85558 20.3865 8.48851C21.0194 9.12145 21.375 9.97989 21.375 10.875" stroke="#69A757" stroke-width="1.5" stroke-linecap="round" stroke-linejoin="round"/>
</svg>
