<svg width="36" height="36" viewBox="0 0 36 36" fill="none" xmlns="http://www.w3.org/2000/svg">
<rect width="36" height="36" rx="18" fill="#69A757"/>
<rect width="36" height="36" rx="18" fill="white" fill-opacity="0.8"/>
<path d="M10.5 11.25V24.75C10.5 24.9489 10.421 25.1397 10.2803 25.2803C10.1397 25.421 9.94891 25.5 9.75 25.5C9.55109 25.5 9.36032 25.421 9.21967 25.2803C9.07902 25.1397 9 24.9489 9 24.75V11.25C9 11.0511 9.07902 10.8603 9.21967 10.7197C9.36032 10.579 9.55109 10.5 9.75 10.5C9.94891 10.5 10.1397 10.579 10.2803 10.7197C10.421 10.8603 10.5 11.0511 10.5 11.25ZM18.375 16.3594L16.5 16.9688V15C16.5 14.8011 16.421 14.6103 16.2803 14.4697C16.1397 14.329 15.9489 14.25 15.75 14.25C15.5511 14.25 15.3603 14.329 15.2197 14.4697C15.079 14.6103 15 14.8011 15 15V16.9688L13.125 16.3594C13.0321 16.3274 12.9338 16.3145 12.8358 16.3213C12.7378 16.3282 12.6422 16.3547 12.5547 16.3994C12.4672 16.444 12.3896 16.5058 12.3265 16.5811C12.2634 16.6563 12.2161 16.7436 12.1875 16.8375C12.1554 16.931 12.1424 17.03 12.1491 17.1286C12.1559 17.2272 12.1823 17.3235 12.2269 17.4118C12.2715 17.5 12.3332 17.5784 12.4086 17.6424C12.4839 17.7064 12.5713 17.7547 12.6656 17.7844L14.5406 18.3937L13.3781 19.9875C13.32 20.0674 13.2783 20.1581 13.2553 20.2542C13.2323 20.3503 13.2285 20.45 13.2442 20.5476C13.2599 20.6452 13.2947 20.7387 13.3467 20.8227C13.3986 20.9068 13.4666 20.9798 13.5469 21.0375C13.7091 21.1525 13.91 21.1992 14.1063 21.1676C14.3027 21.1361 14.4788 21.0288 14.5969 20.8688L15.75 19.275L16.9031 20.8688C17.0212 21.0288 17.1973 21.1361 17.3937 21.1676C17.59 21.1992 17.7909 21.1525 17.9531 21.0375C18.0334 20.9798 18.1014 20.9068 18.1533 20.8227C18.2053 20.7387 18.2401 20.6452 18.2558 20.5476C18.2715 20.45 18.2677 20.3503 18.2447 20.2542C18.2217 20.1581 18.18 20.0674 18.1219 19.9875L16.9594 18.3937L18.8344 17.7844C18.9287 17.7547 19.0161 17.7064 19.0914 17.6424C19.1668 17.5784 19.2285 17.5 19.2731 17.4118C19.3177 17.3235 19.3441 17.2272 19.3509 17.1286C19.3576 17.03 19.3446 16.931 19.3125 16.8375C19.2839 16.7436 19.2366 16.6563 19.1735 16.5811C19.1104 16.5058 19.0328 16.444 18.9453 16.3994C18.8578 16.3547 18.7622 16.3282 18.6642 16.3213C18.5662 16.3145 18.4679 16.3274 18.375 16.3594ZM28.3125 16.8375C28.2839 16.7436 28.2366 16.6563 28.1735 16.5811C28.1104 16.5058 28.0328 16.444 27.9453 16.3994C27.8578 16.3547 27.7622 16.3282 27.6642 16.3213C27.5662 16.3145 27.4679 16.3274 27.375 16.3594L25.5 16.9688V15C25.5 14.8011 25.421 14.6103 25.2803 14.4697C25.1397 14.329 24.9489 14.25 24.75 14.25C24.5511 14.25 24.3603 14.329 24.2197 14.4697C24.079 14.6103 24 14.8011 24 15V16.9688L22.125 16.3594C22.0321 16.3274 21.9338 16.3145 21.8358 16.3213C21.7378 16.3282 21.6422 16.3547 21.5547 16.3994C21.4672 16.444 21.3896 16.5058 21.3265 16.5811C21.2634 16.6563 21.2161 16.7436 21.1875 16.8375C21.1554 16.931 21.1424 17.03 21.1491 17.1286C21.1559 17.2272 21.1823 17.3235 21.2269 17.4118C21.2715 17.5 21.3332 17.5784 21.4086 17.6424C21.4839 17.7064 21.5713 17.7547 21.6656 17.7844L23.5406 18.3937L22.3781 19.9875C22.32 20.0674 22.2783 20.1581 22.2553 20.2542C22.2323 20.3503 22.2285 20.45 22.2442 20.5476C22.2599 20.6452 22.2947 20.7387 22.3467 20.8227C22.3986 20.9068 22.4666 20.9798 22.5469 21.0375C22.7091 21.1525 22.91 21.1992 23.1063 21.1676C23.3027 21.1361 23.4788 21.0288 23.5969 20.8688L24.75 19.275L25.9031 20.8688C26.0212 21.0288 26.1973 21.1361 26.3937 21.1676C26.59 21.1992 26.7909 21.1525 26.9531 21.0375C27.0334 20.9798 27.1014 20.9068 27.1533 20.8227C27.2053 20.7387 27.2401 20.6452 27.2558 20.5476C27.2715 20.45 27.2677 20.3503 27.2447 20.2542C27.2217 20.1581 27.18 20.0674 27.1219 19.9875L25.9594 18.3937L27.8344 17.7844C27.9287 17.7547 28.0161 17.7064 28.0914 17.6424C28.1668 17.5784 28.2285 17.5 28.2731 17.4118C28.3177 17.3235 28.3441 17.2272 28.3509 17.1286C28.3576 17.03 28.3446 16.931 28.3125 16.8375Z" fill="#69A757"/>
</svg>
