<svg width="14" height="13" viewBox="0 0 14 13" fill="none" xmlns="http://www.w3.org/2000/svg">
<path d="M6.25 6V1C6.25 0.801088 6.32902 0.610322 6.46967 0.46967C6.61032 0.329018 6.80109 0.25 7 0.25C7.19891 0.25 7.38968 0.329018 7.53033 0.46967C7.67098 0.610322 7.75 0.801088 7.75 1V6C7.75 6.19891 7.67098 6.38968 7.53033 6.53033C7.38968 6.67098 7.19891 6.75 7 6.75C6.80109 6.75 6.61032 6.67098 6.46967 6.53033C6.32902 6.38968 6.25 6.19891 6.25 6ZM10.4094 0.875C10.2428 0.772456 10.0428 0.739022 9.852 0.781826C9.66116 0.824629 9.49459 0.940284 9.38781 1.10413C9.28102 1.26798 9.24246 1.46706 9.28035 1.65894C9.31823 1.85081 9.42957 2.02029 9.59062 2.13125C10.9631 3.02312 11.75 4.4375 11.75 6C11.75 7.25978 11.2496 8.46796 10.3588 9.35876C9.46796 10.2496 8.25978 10.75 7 10.75C5.74022 10.75 4.53204 10.2496 3.64124 9.35876C2.75045 8.46796 2.25 7.25978 2.25 6C2.25 4.4375 3.03688 3.02313 4.40938 2.12813C4.56186 2.01384 4.66512 1.84581 4.69819 1.65815C4.73127 1.47048 4.69167 1.27727 4.58744 1.11775C4.48322 0.958225 4.32218 0.844356 4.13703 0.799269C3.95189 0.754183 3.75653 0.78126 3.59062 0.875C1.785 2.04875 0.75 3.91812 0.75 6C0.75 7.6576 1.40848 9.24732 2.58058 10.4194C3.75269 11.5915 5.3424 12.25 7 12.25C8.6576 12.25 10.2473 11.5915 11.4194 10.4194C12.5915 9.24732 13.25 7.6576 13.25 6C13.25 3.91812 12.215 2.04875 10.4094 0.875Z" fill="#A5ABB3"/>
</svg>
