<svg width="32" height="32" viewBox="0 0 32 32" fill="none" xmlns="http://www.w3.org/2000/svg">
<path fill-rule="evenodd" clip-rule="evenodd" d="M3 7C3 6.44772 3.44772 6 4 6H28C28.5523 6 29 6.44772 29 7V24C29 24.5304 28.7893 25.0391 28.4142 25.4142C28.0391 25.7893 27.5304 26 27 26H5C4.46957 26 3.96086 25.7893 3.58579 25.4142C3.21071 25.0391 3 24.5304 3 24V7ZM5 8V24H27V8H5Z" fill="white"/>
<path fill-rule="evenodd" clip-rule="evenodd" d="M12.6666 20.9888C13.6533 21.6481 14.8133 22 16 22C17.5907 21.9982 19.1158 21.3655 20.2406 20.2406C21.3655 19.1158 21.9982 17.5907 22 16C22 14.8133 21.6481 13.6533 20.9888 12.6666C20.3295 11.6799 19.3925 10.9109 18.2961 10.4567C17.1997 10.0026 15.9933 9.88378 14.8295 10.1153C13.6656 10.3468 12.5965 10.9182 11.7574 11.7574C10.9182 12.5965 10.3468 13.6656 10.1153 14.8295C9.88378 15.9933 10.0026 17.1997 10.4567 18.2961C10.9109 19.3925 11.6799 20.3295 12.6666 20.9888ZM18.1068 18.4068L17.2545 16.4227C17.6171 16.1688 17.8938 15.8106 18.048 15.3957C18.2022 14.9807 18.2265 14.5287 18.1178 14.0997C18.009 13.6706 17.7723 13.2847 17.4391 12.9933C17.1059 12.702 16.692 12.5188 16.2523 12.4682C15.9463 12.4342 15.6366 12.4646 15.3431 12.5574C15.0495 12.6501 14.7786 12.8032 14.5477 13.0068C14.3019 13.2257 14.1087 13.4973 13.9827 13.8013C13.8568 14.1054 13.8012 14.434 13.8202 14.7626C13.8392 15.0912 13.9323 15.4112 14.0926 15.6987C14.2528 15.9862 14.476 16.2337 14.7455 16.4227L13.8932 18.4068C13.8403 18.531 13.819 18.6664 13.8311 18.8008C13.8433 18.9353 13.8885 19.0646 13.9627 19.1773C14.037 19.2901 14.138 19.3827 14.2567 19.4469C14.3754 19.5111 14.5082 19.545 14.6432 19.5455H17.3568C17.4918 19.545 17.6246 19.5111 17.7433 19.4469C17.862 19.3827 17.963 19.2901 18.0373 19.1773C18.1115 19.0646 18.1567 18.9353 18.1689 18.8008C18.181 18.6664 18.1597 18.531 18.1068 18.4068Z" fill="white"/>
<path fill-rule="evenodd" clip-rule="evenodd" d="M17.7407 16.8492L26.7407 6.34918L28.2592 7.65076L19.2592 18.1508L17.7407 16.8492Z" fill="white"/>
<path fill-rule="evenodd" clip-rule="evenodd" d="M13.726 15.8123L4.72595 6.31226L3.27405 7.68775L12.274 17.1877L13.726 15.8123Z" fill="white"/>
</svg>
