<svg width="16" height="13" viewBox="0 0 16 13" fill="none" xmlns="http://www.w3.org/2000/svg">
<path d="M10.2738 9.31852C10.7351 8.86678 11.0515 8.28784 11.1825 7.65555C11.3134 7.02327 11.2531 6.3663 11.0091 5.76845C10.7652 5.1706 10.3487 4.65897 9.81273 4.29883C9.27679 3.93868 8.64572 3.74634 8.00001 3.74634C7.35431 3.74634 6.72323 3.93868 6.1873 4.29883C5.65136 4.65897 5.23485 5.1706 4.99089 5.76845C4.74694 6.3663 4.6866 7.02327 4.81757 7.65555C4.94855 8.28784 5.26489 8.86678 5.72626 9.31852C4.94511 9.73376 4.29564 10.3592 3.85126 11.1241C3.7561 11.2961 3.73224 11.4986 3.78482 11.6879C3.8374 11.8773 3.96221 12.0385 4.13242 12.1368C4.30262 12.2351 4.5046 12.2626 4.69491 12.2135C4.88522 12.1644 5.04864 12.0425 5.15001 11.8741C5.44308 11.379 5.86008 10.9687 6.35993 10.6837C6.85978 10.3987 7.42525 10.2488 8.00064 10.2488C8.57603 10.2488 9.1415 10.3987 9.64135 10.6837C10.1412 10.9687 10.5582 11.379 10.8513 11.8741C10.8995 11.9613 10.9646 12.038 11.0429 12.0998C11.1211 12.1615 11.2108 12.207 11.3068 12.2337C11.4028 12.2603 11.5032 12.2676 11.6021 12.255C11.7009 12.2424 11.7963 12.2103 11.8825 12.1605C11.9688 12.1106 12.0443 12.0441 12.1046 11.9648C12.1649 11.8855 12.2088 11.7949 12.2337 11.6984C12.2586 11.6019 12.264 11.5015 12.2496 11.4029C12.2353 11.3043 12.2014 11.2095 12.15 11.1241C11.7053 10.359 11.0554 9.73358 10.2738 9.31852ZM6.25001 6.99977C6.25001 6.65366 6.35265 6.31531 6.54494 6.02753C6.73723 5.73974 7.01055 5.51544 7.33032 5.38298C7.65009 5.25053 8.00195 5.21588 8.34142 5.2834C8.68089 5.35092 8.99271 5.5176 9.23745 5.76234C9.48219 6.00708 9.64886 6.3189 9.71639 6.65837C9.78391 6.99783 9.74926 7.3497 9.6168 7.66947C9.48435 7.98924 9.26005 8.26255 8.97226 8.45485C8.68447 8.64714 8.34613 8.74977 8.00001 8.74977C7.53588 8.74977 7.09076 8.5654 6.76258 8.23721C6.43439 7.90902 6.25001 7.4639 6.25001 6.99977ZM15.4506 7.59915C15.3719 7.65837 15.2822 7.70149 15.1867 7.72604C15.0913 7.75059 14.9919 7.75608 14.8944 7.74221C14.7968 7.72833 14.7029 7.69537 14.6181 7.64519C14.5333 7.59501 14.4592 7.52861 14.4 7.44977C13.8794 6.75665 13.1594 6.2254 12.5669 6.09727C12.4093 6.0632 12.267 5.97927 12.1609 5.85794C12.0547 5.7366 11.9906 5.5843 11.9778 5.42362C11.965 5.26293 12.0044 5.10241 12.09 4.96584C12.1756 4.82927 12.3029 4.72392 12.4531 4.6654C12.6401 4.59241 12.8068 4.47545 12.939 4.32443C13.0713 4.17341 13.1652 3.99276 13.2129 3.79777C13.2605 3.60277 13.2605 3.39917 13.2129 3.20417C13.1652 3.00918 13.0713 2.82853 12.939 2.67751C12.8068 2.52649 12.6401 2.40954 12.4531 2.33654C12.2661 2.26355 12.0643 2.23666 11.8647 2.25816C11.6652 2.27965 11.4737 2.3489 11.3065 2.46004C11.1394 2.57117 11.0014 2.72093 10.9044 2.89665C10.8584 2.9857 10.795 3.06461 10.7179 3.12874C10.6409 3.19286 10.5518 3.24089 10.4558 3.26999C10.3599 3.29909 10.2591 3.30867 10.1595 3.29816C10.0598 3.28765 9.96322 3.25726 9.87548 3.20879C9.78774 3.16033 9.7106 3.09477 9.64863 3.01598C9.58666 2.9372 9.54111 2.84679 9.51467 2.75011C9.48824 2.65342 9.48145 2.55241 9.49471 2.45306C9.50797 2.3537 9.54102 2.25802 9.59189 2.17165C9.77747 1.84349 10.0286 1.557 10.3295 1.32996C10.6305 1.10293 10.9749 0.940205 11.3415 0.851897C11.708 0.76359 12.0887 0.751585 12.4601 0.81663C12.8314 0.881674 13.1854 1.02238 13.5001 1.23C13.8148 1.43763 14.0834 1.70773 14.2893 2.02355C14.4952 2.33936 14.6339 2.69414 14.6969 3.06584C14.7599 3.43754 14.7458 3.81822 14.6555 4.18424C14.5652 4.55026 14.4006 4.8938 14.1719 5.19352C14.7222 5.5601 15.2053 6.01867 15.6 6.54915C15.7194 6.7082 15.7708 6.90817 15.7428 7.10508C15.7148 7.30199 15.6097 7.47971 15.4506 7.59915ZM3.43314 6.09915C2.84064 6.22727 2.12064 6.75852 1.60001 7.45227C1.48025 7.61132 1.30221 7.71628 1.10507 7.74406C0.907918 7.77184 0.70781 7.72016 0.548763 7.6004C0.389716 7.48064 0.284759 7.3026 0.25698 7.10545C0.229201 6.9083 0.280876 6.7082 0.400638 6.54915C0.795537 6.01883 1.2786 5.56028 1.82876 5.19352C1.60008 4.8938 1.43546 4.55026 1.34514 4.18424C1.25481 3.81822 1.24071 3.43754 1.30372 3.06584C1.36672 2.69414 1.50547 2.33936 1.71136 2.02355C1.91725 1.70773 2.18587 1.43763 2.50055 1.23C2.81523 1.02238 3.16924 0.881674 3.54058 0.81663C3.91193 0.751585 4.29269 0.76359 4.6592 0.851897C5.02571 0.940205 5.37015 1.10293 5.67113 1.32996C5.9721 1.557 6.22318 1.84349 6.40876 2.17165C6.45964 2.25802 6.49268 2.3537 6.50594 2.45306C6.5192 2.55241 6.51242 2.65342 6.48598 2.75011C6.45954 2.84679 6.41399 2.9372 6.35202 3.01598C6.29005 3.09477 6.21291 3.16033 6.12517 3.20879C6.03743 3.25726 5.94087 3.28765 5.84119 3.29816C5.7415 3.30867 5.64072 3.29909 5.5448 3.26999C5.44888 3.24089 5.35977 3.19286 5.28273 3.12874C5.20569 3.06461 5.14229 2.9857 5.09626 2.89665C4.99922 2.72093 4.86128 2.57117 4.69412 2.46004C4.52696 2.3489 4.33549 2.27965 4.13591 2.25816C3.93633 2.23666 3.73451 2.26355 3.54751 2.33654C3.36052 2.40954 3.19386 2.52649 3.06162 2.67751C2.92938 2.82853 2.83546 3.00918 2.7878 3.20417C2.74014 3.39917 2.74014 3.60277 2.7878 3.79777C2.83546 3.99276 2.92938 4.17341 3.06162 4.32443C3.19386 4.47545 3.36052 4.59241 3.54751 4.6654C3.6977 4.72392 3.82505 4.82927 3.91067 4.96584C3.99628 5.10241 4.03563 5.26293 4.02286 5.42362C4.0101 5.5843 3.9459 5.7366 3.8398 5.85794C3.73369 5.97927 3.59131 6.0632 3.43376 6.09727L3.43314 6.09915Z" fill="#072245"/>
</svg>
