<svg width="262" height="136" viewBox="0 0 262 136" fill="none" xmlns="http://www.w3.org/2000/svg">
<path fill-rule="evenodd" clip-rule="evenodd" d="M55.7963 92.6379H166.176C166.8 92.6379 167.409 92.5705 167.995 92.4425C168.582 92.5705 169.19 92.6379 169.815 92.6379H232.889C237.578 92.6379 241.38 88.8364 241.38 84.1471C241.38 79.4578 237.578 75.6564 232.889 75.6564H225.611C220.922 75.6564 217.12 71.855 217.12 67.1657C217.12 62.4763 220.922 58.6749 225.611 58.6749H248.657C253.347 58.6749 257.148 54.8735 257.148 50.1842C257.148 45.4949 253.347 41.6934 248.657 41.6934H221.972C226.662 41.6934 230.463 37.892 230.463 33.2027C230.463 28.5134 226.662 24.712 221.972 24.712H144.343C149.032 24.712 152.833 20.9105 152.833 16.2212C152.833 11.5319 149.032 7.73047 144.343 7.73047H75.2037C70.5144 7.73047 66.713 11.5319 66.713 16.2212C66.713 20.9105 70.5144 24.712 75.2037 24.712H26.6852C21.9959 24.712 18.1944 28.5134 18.1944 33.2027C18.1944 37.892 21.9959 41.6934 26.6852 41.6934H57.0093C61.6986 41.6934 65.5 45.4949 65.5 50.1842C65.5 54.8735 61.6986 58.6749 57.0093 58.6749H8.49074C3.80143 58.6749 0 62.4763 0 67.1657C0 71.855 3.80143 75.6564 8.49074 75.6564H55.7963C51.107 75.6564 47.3056 79.4578 47.3056 84.1471C47.3056 88.8364 51.107 92.6379 55.7963 92.6379ZM253.509 92.6385C258.199 92.6385 262 88.8371 262 84.1477C262 79.4584 258.199 75.657 253.509 75.657C248.82 75.657 245.019 79.4584 245.019 84.1477C245.019 88.8371 248.82 92.6385 253.509 92.6385Z" fill="#F4F5F7"/>
<path d="M153.736 132.123L130.618 83.2567L171.58 63.9258L194.7 112.794C196.614 116.87 193.118 121.391 188.677 120.559L175.716 118.062C173.358 117.618 170.998 118.728 169.833 120.836L163.533 132.429C161.395 136.367 155.678 136.201 153.736 132.123ZM108.527 132.123L131.644 83.2567L90.6542 63.9258L67.5364 112.794C65.6208 116.87 69.1183 121.391 73.558 120.559L86.5187 118.062C88.8783 117.618 91.2363 118.728 92.4021 120.836L98.7016 132.429C100.867 136.367 106.585 136.201 108.527 132.123Z" fill="#858C94"/>
<path d="M151.21 73.5501L171.608 63.9258L194.726 112.794C196.642 116.87 193.144 121.391 188.705 120.559L175.744 118.062C174.606 117.84 173.468 118.007 172.442 118.451L151.21 73.5501ZM111.052 73.5501L90.6542 63.9258L67.5364 112.794C65.6208 116.87 69.1183 121.391 73.558 120.559L86.5187 118.062C87.6566 117.84 88.7945 118.007 89.8205 118.451L111.052 73.5501Z" fill="#A5ABB3"/>
<path d="M179.213 47.7024C179.213 48.4834 179.193 49.2628 179.155 50.0439C179.116 50.8233 179.06 51.6011 178.982 52.3789C178.905 53.155 178.81 53.9295 178.696 54.7023C178.581 55.4752 178.448 56.2431 178.295 57.0093C178.142 57.7739 177.971 58.5369 177.782 59.2933C177.591 60.0514 177.384 60.8028 177.157 61.5494C176.93 62.2975 176.685 63.0375 176.422 63.7725C176.159 64.5075 175.878 65.236 175.579 65.9578C175.279 66.6797 174.964 67.3917 174.63 68.0988C174.294 68.8042 173.944 69.5014 173.576 70.1887C173.208 70.8777 172.823 71.5568 172.422 72.2261C172.019 72.897 171.601 73.5563 171.167 74.2042C170.733 74.8537 170.284 75.4917 169.819 76.1182C169.353 76.7464 168.873 77.3613 168.376 77.9648C167.882 78.5683 167.372 79.1586 166.847 79.7374C166.323 80.3162 165.783 80.8819 165.231 81.4327C164.678 81.9852 164.113 82.5229 163.534 83.0475C162.955 83.572 162.365 84.0818 161.76 84.5767C161.156 85.0733 160.541 85.5535 159.913 86.0172C159.285 86.4825 158.647 86.9314 157.997 87.3655C157.348 87.7996 156.688 88.2173 156.018 88.6185C155.348 89.0197 154.669 89.4045 153.98 89.7728C153.291 90.1412 152.592 90.4914 151.887 90.8252C151.18 91.159 150.466 91.4747 149.744 91.774C149.023 92.0733 148.294 92.3545 147.559 92.6159C146.822 92.879 146.082 93.124 145.334 93.3509C144.586 93.5778 143.833 93.7867 143.077 93.9758C142.319 94.1649 141.556 94.3359 140.789 94.4888C140.023 94.6417 139.254 94.7749 138.482 94.8884C137.709 95.0035 136.933 95.0989 136.156 95.1761C135.379 95.2518 134.6 95.3093 133.819 95.3472C133.04 95.3866 132.258 95.4047 131.477 95.4047C130.696 95.4047 129.915 95.3866 129.136 95.3472C128.355 95.3093 127.575 95.2518 126.799 95.1761C126.022 95.0989 125.245 95.0035 124.473 94.8884C123.7 94.7749 122.932 94.6417 122.166 94.4888C121.399 94.3359 120.636 94.1649 119.878 93.9758C119.12 93.7867 118.369 93.5778 117.621 93.3509C116.872 93.124 116.131 92.879 115.396 92.6159C114.661 92.3545 113.932 92.0733 113.21 91.774C112.489 91.4747 111.775 91.159 111.068 90.8252C110.362 90.4914 109.664 90.1412 108.975 89.7728C108.286 89.4045 107.607 89.0197 106.937 88.6185C106.266 88.2173 105.607 87.7996 104.957 87.3655C104.308 86.9314 103.67 86.4825 103.042 86.0172C102.414 85.5535 101.799 85.0733 101.195 84.5767C100.59 84.0818 99.9998 83.572 99.421 83.0475C98.8422 82.5229 98.2765 81.9852 97.724 81.4327C97.1715 80.8819 96.6322 80.3162 96.1076 79.7374C95.5831 79.1586 95.0733 78.5683 94.5784 77.9648C94.0818 77.3613 93.6017 76.7464 93.1363 76.1199C92.671 75.4917 92.2221 74.8537 91.788 74.2042C91.3538 73.5563 90.9362 72.897 90.5333 72.2261C90.1321 71.5568 89.7473 70.8777 89.379 70.1887C89.0107 69.5014 88.6588 68.8042 88.325 68.0988C87.9912 67.3917 87.6755 66.6797 87.3762 65.9578C87.0769 65.236 86.7957 64.5075 86.5326 63.7725C86.2695 63.0375 86.0245 62.2975 85.7976 61.5494C85.5707 60.8028 85.3635 60.0514 85.1728 59.2933C84.9837 58.5369 84.8127 57.7739 84.6597 57.0093C84.5068 56.2431 84.3736 55.4752 84.2585 54.7023C84.1451 53.9295 84.0497 53.155 83.9724 52.3789C83.8951 51.6011 83.8376 50.8233 83.7997 50.0439C83.7619 49.2628 83.7422 48.4834 83.7422 47.7024C83.7422 46.9213 83.7619 46.1419 83.7997 45.3625C83.8376 44.583 83.8951 43.8036 83.9724 43.0275C84.0497 42.2497 84.1451 41.4752 84.2585 40.704C84.3736 39.9312 84.5068 39.1616 84.6597 38.397C84.8127 37.6308 84.9837 36.8694 85.1728 36.1114C85.3635 35.355 85.5707 34.6019 85.7976 33.8554C86.0245 33.1088 86.2695 32.3672 86.5326 31.6322C86.7957 30.8972 87.0769 30.1687 87.3762 29.4485C87.6755 28.7267 87.9912 28.013 88.325 27.3076C88.6588 26.6022 89.0107 25.905 89.379 25.216C89.7473 24.527 90.1321 23.8479 90.5333 23.1786C90.9362 22.5094 91.3538 21.85 91.788 21.2005C92.2221 20.551 92.671 19.913 93.1363 19.2865C93.6017 18.66 94.0818 18.0434 94.5784 17.4399C95.0733 16.8364 95.5831 16.2461 96.1076 15.6673C96.6322 15.0885 97.1715 14.5245 97.724 13.972C98.2765 13.4195 98.8422 12.8818 99.421 12.3572C99.9998 11.8327 100.59 11.3229 101.195 10.828C101.799 10.333 102.414 9.8529 103.042 9.38755C103.67 8.9222 104.308 8.47329 104.957 8.03919C105.607 7.60508 106.266 7.18742 106.937 6.7862C107.607 6.38498 108.286 6.0002 108.975 5.63351C109.664 5.26518 110.362 4.91329 111.068 4.57949C111.775 4.24569 112.489 3.92998 113.21 3.63071C113.932 3.33308 114.661 3.0519 115.396 2.7888C116.131 2.52571 116.872 2.2807 117.621 2.05378C118.369 1.82686 119.12 1.61968 119.878 1.42893C120.636 1.23983 121.399 1.06882 122.166 0.917543C122.932 0.764619 123.7 0.631427 124.473 0.516323C125.245 0.401219 126.022 0.305848 126.799 0.230208C127.575 0.152924 128.355 0.0953719 129.136 0.057552C129.915 0.019732 130.696 0 131.477 0C132.258 0 133.04 0.019732 133.819 0.057552C134.6 0.0953719 135.379 0.152924 136.156 0.230208C136.933 0.305848 137.709 0.401219 138.482 0.516323C139.254 0.631427 140.023 0.764619 140.789 0.917543C141.556 1.06882 142.319 1.23983 143.077 1.42893C143.833 1.61968 144.586 1.82686 145.334 2.05378C146.082 2.2807 146.822 2.52571 147.559 2.7888C148.294 3.0519 149.023 3.33308 149.744 3.63071C150.466 3.92998 151.18 4.24569 151.887 4.57949C152.592 4.91329 153.291 5.26518 153.98 5.63351C154.669 6.0002 155.348 6.38498 156.018 6.7862C156.688 7.18742 157.348 7.60508 157.997 8.03919C158.647 8.47329 159.285 8.9222 159.913 9.38755C160.541 9.8529 161.156 10.333 161.76 10.828C162.365 11.3229 162.955 11.8327 163.534 12.3572C164.113 12.8818 164.678 13.4195 165.231 13.972C165.783 14.5245 166.323 15.0885 166.847 15.6673C167.372 16.2461 167.882 16.8364 168.376 17.4399C168.873 18.0434 169.353 18.66 169.819 19.2865C170.284 19.913 170.733 20.551 171.167 21.2005C171.601 21.85 172.019 22.5094 172.422 23.1786C172.823 23.8479 173.208 24.527 173.576 25.216C173.944 25.905 174.294 26.6022 174.63 27.3076C174.964 28.013 175.279 28.7267 175.579 29.4485C175.878 30.1687 176.159 30.8972 176.422 31.6322C176.685 32.3672 176.93 33.1088 177.157 33.8554C177.384 34.6019 177.591 35.355 177.782 36.1114C177.971 36.8694 178.142 37.6308 178.295 38.397C178.448 39.1616 178.581 39.9312 178.696 40.704C178.81 41.4752 178.905 42.2497 178.982 43.0275C179.06 43.8036 179.116 44.583 179.155 45.3625C179.193 46.1419 179.213 46.9213 179.213 47.7024Z" fill="#A5ABB3"/>
<path d="M131.477 0C157.843 0 179.213 21.3551 179.213 47.7024C179.213 74.0496 157.843 95.4047 131.477 95.4047C105.112 95.4047 83.7422 74.0496 83.7422 47.7024H131.477V0Z" fill="#DADEE3"/>
<path d="M167.5 47.7011C167.5 48.2897 167.487 48.88 167.458 49.4671C167.428 50.0558 167.385 50.6428 167.328 51.2298C167.27 51.8168 167.198 52.4006 167.111 52.9843C167.025 53.5664 166.923 54.1469 166.808 54.724C166.693 55.3028 166.565 55.8767 166.422 56.449C166.279 57.0195 166.121 57.5868 165.95 58.1508C165.779 58.7149 165.593 59.2739 165.396 59.8297C165.197 60.3839 164.984 60.9331 164.759 61.4773C164.534 62.0216 164.294 62.561 164.042 63.0921C163.791 63.6249 163.526 64.1511 163.248 64.6707C162.97 65.1903 162.679 65.7033 162.377 66.2081C162.072 66.7146 161.757 67.2112 161.429 67.7012C161.102 68.1912 160.763 68.673 160.412 69.1466C160.061 69.6185 159.698 70.0838 159.325 70.5393C158.95 70.9948 158.565 71.4404 158.169 71.8762C157.772 72.3136 157.366 72.7394 156.95 73.1571C156.533 73.5731 156.107 73.9793 155.669 74.3739C155.232 74.7702 154.786 75.155 154.331 75.5282C153.875 75.9032 153.41 76.2649 152.936 76.6152C152.463 76.967 151.981 77.3058 151.491 77.633C151.001 77.9602 150.503 78.2759 149.998 78.5785C149.491 78.8811 148.978 79.1721 148.459 79.45C147.939 79.7279 147.413 79.9926 146.88 80.2442C146.346 80.4958 145.808 80.7342 145.264 80.9595C144.718 81.1848 144.169 81.3969 143.613 81.5959C143.059 81.7948 142.498 81.979 141.934 82.15C141.37 82.321 140.803 82.4789 140.231 82.6219C139.658 82.765 139.084 82.8933 138.506 83.0084C137.927 83.1235 137.346 83.2238 136.763 83.3109C136.18 83.3964 135.595 83.4688 135.008 83.5263C134.421 83.5839 133.834 83.6283 133.245 83.6562C132.657 83.6858 132.068 83.7006 131.478 83.7006C130.887 83.7006 130.299 83.6858 129.71 83.6562C129.121 83.6283 128.533 83.5839 127.947 83.5263C127.36 83.4688 126.775 83.3964 126.191 83.3109C125.609 83.2238 125.029 83.1235 124.45 83.0084C123.871 82.8933 123.297 82.765 122.725 82.6219C122.153 82.4789 121.585 82.321 121.021 82.15C120.457 81.979 119.897 81.7948 119.342 81.5959C118.787 81.3969 118.237 81.1848 117.692 80.9595C117.147 80.7342 116.608 80.4958 116.075 80.2442C115.542 79.9926 115.016 79.7279 114.497 79.45C113.977 79.1721 113.464 78.8811 112.957 78.5785C112.453 78.2759 111.954 77.9602 111.464 77.633C110.974 77.3058 110.493 76.967 110.019 76.6152C109.545 76.2649 109.08 75.9032 108.625 75.5282C108.169 75.155 107.724 74.7702 107.286 74.3739C106.849 73.9793 106.423 73.5731 106.005 73.1571C105.589 72.7394 105.181 72.3136 104.787 71.8762C104.39 71.4404 104.006 70.9948 103.631 70.5393C103.257 70.0838 102.894 69.6185 102.544 69.1466C102.192 68.673 101.853 68.1912 101.526 67.7012C101.197 67.2112 100.883 66.7146 100.579 66.2081C100.276 65.7033 99.9852 65.1903 99.7073 64.6707C99.4295 64.1511 99.1647 63.6249 98.9131 63.0921C98.6615 62.561 98.4215 62.0216 98.1962 61.4773C97.9709 60.9331 97.7588 60.3839 97.5598 59.8297C97.3609 59.2739 97.1767 58.7149 97.0057 58.1508C96.8347 57.5868 96.6768 57.0195 96.5338 56.449C96.3907 55.8767 96.2625 55.3028 96.1473 54.724C96.0322 54.1469 95.9303 53.5664 95.8448 52.9843C95.7576 52.4006 95.6853 51.8168 95.6277 51.2298C95.5702 50.6428 95.5274 50.0558 95.4978 49.4671C95.4682 48.88 95.4551 48.2897 95.4551 47.7011C95.4551 47.1124 95.4682 46.5237 95.4978 45.935C95.5274 45.3464 95.5702 44.7593 95.6277 44.1723C95.6853 43.5869 95.7576 43.0015 95.8448 42.4194C95.9303 41.8357 96.0322 41.2569 96.1473 40.6781C96.2625 40.1009 96.3907 39.5254 96.5338 38.9548C96.6768 38.3826 96.8347 37.8153 97.0057 37.2513C97.1767 36.6873 97.3609 36.1282 97.5598 35.574C97.7588 35.0182 97.9709 34.469 98.1962 33.9248C98.4215 33.3805 98.6615 32.8428 98.9131 32.31C99.1647 31.7772 99.4295 31.2511 99.7073 30.7314C99.9852 30.2118 100.276 29.7004 100.579 29.194C100.883 28.6892 101.197 28.1909 101.526 27.7009C101.853 27.2109 102.192 26.7308 102.544 26.2572C102.894 25.7836 103.257 25.3199 103.631 24.8644C104.006 24.409 104.39 23.9633 104.787 23.5259C105.181 23.0902 105.589 22.6627 106.005 22.2466C106.423 21.8306 106.849 21.4245 107.286 21.0282C107.724 20.6319 108.169 20.2471 108.625 19.8739C109.08 19.5006 109.545 19.1372 110.019 18.7869C110.493 18.4367 110.974 18.0963 111.464 17.7691C111.954 17.4419 112.453 17.1278 112.957 16.8236C113.464 16.521 113.977 16.2316 114.497 15.9537C115.016 15.6759 115.542 15.4111 116.075 15.1595C116.608 14.9063 117.147 14.6679 117.692 14.4426C118.237 14.2173 118.787 14.0052 119.342 13.8062C119.897 13.6089 120.457 13.4231 121.021 13.2521C121.585 13.0811 122.153 12.9249 122.725 12.7818C123.297 12.6388 123.871 12.5089 124.45 12.3937C125.029 12.2786 125.609 12.1783 126.191 12.0928C126.775 12.0057 127.36 11.9333 127.947 11.8758C128.533 11.8182 129.121 11.7755 129.71 11.7459C130.299 11.7163 130.887 11.7031 131.478 11.7031C132.068 11.7031 132.657 11.7163 133.245 11.7459C133.834 11.7755 134.421 11.8182 135.008 11.8758C135.595 11.9333 136.18 12.0057 136.763 12.0928C137.346 12.1783 137.927 12.2786 138.506 12.3937C139.084 12.5089 139.658 12.6388 140.231 12.7818C140.803 12.9249 141.37 13.0811 141.934 13.2521C142.498 13.4231 143.059 13.6089 143.613 13.8062C144.169 14.0052 144.718 14.2173 145.264 14.4426C145.808 14.6679 146.346 14.9063 146.88 15.1595C147.413 15.4111 147.939 15.6759 148.459 15.9537C148.978 16.2316 149.491 16.521 149.998 16.8236C150.503 17.1278 151.001 17.4419 151.491 17.7691C151.981 18.0963 152.463 18.4367 152.936 18.7869C153.41 19.1372 153.875 19.5006 154.331 19.8739C154.786 20.2471 155.232 20.6319 155.669 21.0282C156.107 21.4245 156.533 21.8306 156.95 22.2466C157.366 22.6627 157.772 23.0902 158.169 23.5259C158.565 23.9633 158.95 24.409 159.325 24.8644C159.698 25.3199 160.061 25.7836 160.412 26.2572C160.763 26.7308 161.102 27.2109 161.429 27.7009C161.757 28.1909 162.072 28.6892 162.377 29.194C162.679 29.7004 162.97 30.2118 163.248 30.7314C163.526 31.2511 163.791 31.7772 164.042 32.31C164.294 32.8428 164.534 33.3805 164.759 33.9248C164.984 34.469 165.197 35.0182 165.396 35.574C165.593 36.1282 165.779 36.6873 165.95 37.2513C166.121 37.8153 166.279 38.3826 166.422 38.9548C166.565 39.5254 166.693 40.1009 166.808 40.6781C166.923 41.2569 167.025 41.8357 167.111 42.4194C167.198 43.0015 167.27 43.5869 167.328 44.1723C167.385 44.7593 167.428 45.3464 167.458 45.935C167.487 46.5237 167.5 47.1124 167.5 47.7011Z" fill="#858C94"/>
<path fill-rule="evenodd" clip-rule="evenodd" d="M138.916 36.611L134.614 27.9306C133.338 25.3226 129.619 25.3226 128.343 27.9306L124.041 36.611C123.541 37.6371 122.541 38.3573 121.404 38.5234L111.802 39.9112C108.915 40.3272 107.777 43.8774 109.859 45.9016L116.798 52.668C117.602 53.4721 117.99 54.638 117.796 55.7742L116.158 65.3147C116.029 66.0996 116.161 66.8343 116.475 67.4588L116.464 67.4761C117.296 69.1402 119.378 70.0281 121.265 69.0284L129.841 64.5081C130.868 63.9819 132.089 63.9819 133.116 64.5081L141.692 69.0284C143.584 70.0252 145.699 69.1135 146.508 67.4306C146.811 66.8122 146.934 66.0878 146.799 65.3147L145.161 55.7742C145.138 55.6366 145.122 55.4987 145.115 55.3609C145.074 54.3697 145.458 53.3942 146.159 52.6935L153.098 45.927C153.836 45.2096 154.17 44.3005 154.164 43.4071C154.165 41.771 153.028 40.1812 151.155 39.9112L141.553 38.5234C140.415 38.3573 139.416 37.6371 138.916 36.611Z" fill="#DADEE3"/>
<path d="M113.189 21.5762L114.687 25.6804L118.795 27.1784L114.687 28.6764L113.189 32.7807L111.69 28.6764L107.582 27.1784L111.69 25.6804L113.189 21.5762ZM157.455 56.16L154.151 57.3817L157.455 58.6018L158.675 61.902L159.897 58.6018L163.199 57.3817L159.897 56.16L158.675 52.8598L157.455 56.16Z" fill="#EBEEF2"/>
</svg>
