<svg width="20" height="14" viewBox="0 0 20 14" fill="none" xmlns="http://www.w3.org/2000/svg">
<path d="M18.5241 4.87719C18.8347 4.814 19.114 4.64544 19.3146 4.40005C19.5152 4.15466 19.6248 3.8475 19.625 3.53055V1.39844C19.625 1.03376 19.4801 0.684028 19.2223 0.426166C18.9644 0.168303 18.6147 0.0234375 18.25 0.0234375H1.75C1.38533 0.0234375 1.03559 0.168303 0.777731 0.426166C0.519868 0.684028 0.375003 1.03376 0.375003 1.39844V3.53055C0.375176 3.8475 0.484844 4.15466 0.685448 4.40005C0.886052 4.64544 1.16527 4.814 1.47586 4.87719C1.94027 4.9735 2.3573 5.22692 2.65669 5.59478C2.95609 5.96263 3.11955 6.42243 3.11955 6.89672C3.11955 7.37101 2.95609 7.83081 2.65669 8.19866C2.3573 8.56652 1.94027 8.81994 1.47586 8.91625C1.16469 8.97956 0.88503 9.14862 0.684359 9.39472C0.483689 9.64082 0.374383 9.94879 0.375003 10.2663V12.3984C0.375003 12.7631 0.519868 13.1128 0.777731 13.3707C1.03559 13.6286 1.38533 13.7734 1.75 13.7734H18.25C18.6147 13.7734 18.9644 13.6286 19.2223 13.3707C19.4801 13.1128 19.625 12.7631 19.625 12.3984V10.2663C19.6248 9.94938 19.5152 9.64221 19.3146 9.39682C19.114 9.15143 18.8347 8.98288 18.5241 8.91969C18.0597 8.82338 17.6427 8.56995 17.3433 8.2021C17.0439 7.83425 16.8805 7.37445 16.8805 6.90016C16.8805 6.42586 17.0439 5.96607 17.3433 5.59821C17.6427 5.23036 18.0597 4.97693 18.5241 4.88062V4.87719ZM1.75 10.2672C2.52661 10.109 3.2247 9.68728 3.72608 9.07346C4.22746 8.45964 4.50134 7.69143 4.50134 6.89887C4.50134 6.10631 4.22746 5.33809 3.72608 4.72427C3.2247 4.11046 2.52661 3.68875 1.75 3.53055V1.39844H6.5625V12.3984H1.75V10.2672ZM18.25 10.2672V12.3984H7.9375V1.39844H18.25V3.52969C17.4734 3.68789 16.7753 4.1096 16.2739 4.72341C15.7725 5.33723 15.4987 6.10545 15.4987 6.89801C15.4987 7.69057 15.7725 8.45878 16.2739 9.0726C16.7753 9.68642 17.4734 10.1081 18.25 10.2663V10.2672Z" fill="white"/>
</svg>
