<svg width="18" height="18" viewBox="0 0 18 18" fill="none" xmlns="http://www.w3.org/2000/svg">
<path d="M15.192 9.81675C15.2254 9.55008 15.2504 9.28342 15.2504 9.00008C15.2504 8.71675 15.2254 8.45008 15.192 8.18342L16.9504 6.80842C17.1087 6.68342 17.1504 6.45842 17.0504 6.27508L15.3837 3.39175C15.3087 3.25841 15.167 3.18342 15.017 3.18342C14.967 3.18342 14.917 3.19175 14.8754 3.20842L12.8004 4.04175C12.367 3.70842 11.9004 3.43342 11.392 3.22508L11.0754 1.01675C11.0504 0.816748 10.8754 0.666748 10.667 0.666748H7.33369C7.12535 0.666748 6.95036 0.816748 6.92535 1.01675L6.60869 3.22508C6.10035 3.43342 5.63369 3.71675 5.20035 4.04175L3.12535 3.20842C3.07535 3.19175 3.02535 3.18342 2.97535 3.18342C2.83369 3.18342 2.69202 3.25841 2.61702 3.39175L0.950354 6.27508C0.842021 6.45842 0.892021 6.68342 1.05035 6.80842L2.80869 8.18342C2.77535 8.45008 2.75035 8.72508 2.75035 9.00008C2.75035 9.27508 2.77535 9.55008 2.80869 9.81675L1.05035 11.1917C0.892021 11.3167 0.850354 11.5417 0.950354 11.7251L2.61702 14.6084C2.69202 14.7417 2.83369 14.8167 2.98369 14.8167C3.03369 14.8167 3.08369 14.8084 3.12535 14.7917L5.20035 13.9584C5.63369 14.2917 6.10035 14.5667 6.60869 14.7751L6.92535 16.9834C6.95036 17.1834 7.12535 17.3334 7.33369 17.3334H10.667C10.8754 17.3334 11.0504 17.1834 11.0754 16.9834L11.392 14.7751C11.9004 14.5667 12.367 14.2834 12.8004 13.9584L14.8754 14.7917C14.9254 14.8084 14.9754 14.8167 15.0254 14.8167C15.167 14.8167 15.3087 14.7417 15.3837 14.6084L17.0504 11.7251C17.1504 11.5417 17.1087 11.3167 16.9504 11.1917L15.192 9.81675ZM13.542 8.39175C13.5754 8.65008 13.5837 8.82508 13.5837 9.00008C13.5837 9.17508 13.567 9.35842 13.542 9.60842L13.4254 10.5501L14.167 11.1334L15.067 11.8334L14.4837 12.8418L13.4254 12.4167L12.5587 12.0667L11.8087 12.6334C11.4504 12.9001 11.1087 13.1001 10.767 13.2417L9.88369 13.6001L9.75035 14.5417L9.58369 15.6667H8.41702L8.25869 14.5417L8.12535 13.6001L7.24202 13.2417C6.88369 13.0917 6.55035 12.9001 6.21702 12.6501L5.45869 12.0667L4.57535 12.4251L3.51702 12.8501L2.93369 11.8418L3.83369 11.1417L4.57535 10.5584L4.45869 9.61675C4.43369 9.35842 4.41702 9.16675 4.41702 9.00008C4.41702 8.83342 4.43369 8.64175 4.45869 8.39175L4.57535 7.45008L3.83369 6.86675L2.93369 6.16675L3.51702 5.15841L4.57535 5.58342L5.44202 5.93341L6.19202 5.36675C6.55035 5.10008 6.89202 4.90008 7.23369 4.75842L8.11702 4.40008L8.25035 3.45842L8.41702 2.33341H9.57535L9.73369 3.45842L9.86702 4.40008L10.7504 4.75842C11.1087 4.90842 11.442 5.10008 11.7754 5.35008L12.5337 5.93341L13.417 5.57508L14.4754 5.15008L15.0587 6.15842L14.167 6.86675L13.4254 7.45008L13.542 8.39175ZM9.00035 5.66675C7.15869 5.66675 5.66702 7.15842 5.66702 9.00008C5.66702 10.8417 7.15869 12.3334 9.00035 12.3334C10.842 12.3334 12.3337 10.8417 12.3337 9.00008C12.3337 7.15842 10.842 5.66675 9.00035 5.66675ZM9.00035 10.6667C8.08369 10.6667 7.33369 9.91675 7.33369 9.00008C7.33369 8.08342 8.08369 7.33342 9.00035 7.33342C9.91702 7.33342 10.667 8.08342 10.667 9.00008C10.667 9.91675 9.91702 10.6667 9.00035 10.6667Z" fill="white"/>
</svg>
