<svg width="10" height="10" viewBox="0 0 10 10" fill="none" xmlns="http://www.w3.org/2000/svg">
<path d="M5 0.125C4.03582 0.125 3.09329 0.410914 2.2916 0.946586C1.48991 1.48226 0.865067 2.24363 0.496089 3.13442C0.127112 4.02521 0.030571 5.00541 0.218674 5.95107C0.406777 6.89672 0.871076 7.76536 1.55286 8.44715C2.23464 9.12893 3.10328 9.59323 4.04894 9.78133C4.99459 9.96943 5.97479 9.87289 6.86558 9.50391C7.75637 9.13494 8.51775 8.51009 9.05342 7.7084C9.58909 6.90671 9.875 5.96418 9.875 5C9.87364 3.70749 9.35958 2.46831 8.44564 1.55436C7.5317 0.640418 6.29251 0.126365 5 0.125ZM7.14032 4.14031L4.51532 6.76531C4.48049 6.80018 4.43913 6.82784 4.3936 6.84671C4.34808 6.86558 4.29928 6.87529 4.25 6.87529C4.20072 6.87529 4.15192 6.86558 4.1064 6.84671C4.06088 6.82784 4.01952 6.80018 3.98469 6.76531L2.85969 5.64031C2.78932 5.56995 2.74979 5.47451 2.74979 5.375C2.74979 5.27549 2.78932 5.18005 2.85969 5.10969C2.93005 5.03932 3.02549 4.99979 3.125 4.99979C3.22451 4.99979 3.31995 5.03932 3.39031 5.10969L4.25 5.96984L6.60969 3.60969C6.64453 3.57485 6.68589 3.54721 6.73142 3.52835C6.77694 3.5095 6.82573 3.49979 6.875 3.49979C6.92428 3.49979 6.97307 3.5095 7.01859 3.52835C7.06411 3.54721 7.10547 3.57485 7.14032 3.60969C7.17516 3.64453 7.20279 3.68589 7.22165 3.73141C7.24051 3.77694 7.25021 3.82573 7.25021 3.875C7.25021 3.92427 7.24051 3.97306 7.22165 4.01859C7.20279 4.06411 7.17516 4.10547 7.14032 4.14031Z" fill="#268334"/>
</svg>
