<svg width="12" height="11" viewBox="0 0 12 11" fill="none" xmlns="http://www.w3.org/2000/svg">
<path d="M6.00002 0.354492C4.98236 0.354492 3.98755 0.656265 3.14139 1.22165C2.29523 1.78703 1.63573 2.59064 1.24629 3.53084C0.856844 4.47104 0.754947 5.50561 0.953484 6.50372C1.15202 7.50183 1.64207 8.41866 2.36167 9.13825C3.08127 9.85785 3.99809 10.3479 4.99621 10.5464C5.99432 10.745 7.02889 10.6431 7.96909 10.2536C8.90929 9.86419 9.71289 9.20469 10.2783 8.35854C10.8437 7.51238 11.1454 6.51757 11.1454 5.4999C11.144 4.1357 10.6014 2.82778 9.63679 1.86314C8.67215 0.898499 7.36423 0.355933 6.00002 0.354492ZM7.46746 5.77993L5.48845 7.75893C5.45168 7.79571 5.40802 7.82488 5.35997 7.84478C5.31193 7.86468 5.26043 7.87492 5.20842 7.87492C5.15642 7.87492 5.10492 7.86468 5.05687 7.84478C5.00883 7.82488 4.96517 7.79571 4.92839 7.75893C4.89162 7.72216 4.86245 7.6785 4.84255 7.63045C4.82265 7.58241 4.8124 7.53091 4.8124 7.4789C4.8124 7.4269 4.82265 7.3754 4.84255 7.32735C4.86245 7.27931 4.89162 7.23565 4.92839 7.19887L6.62786 5.4999L4.92839 3.80093C4.85413 3.72666 4.8124 3.62593 4.8124 3.5209C4.8124 3.41587 4.85413 3.31514 4.92839 3.24087C5.00266 3.1666 5.10339 3.12488 5.20842 3.12488C5.31345 3.12488 5.41418 3.1666 5.48845 3.24087L7.46746 5.21987C7.50426 5.25663 7.53345 5.30028 7.55337 5.34833C7.57329 5.39638 7.58354 5.44789 7.58354 5.4999C7.58354 5.55191 7.57329 5.60342 7.55337 5.65147C7.53345 5.69952 7.50426 5.74317 7.46746 5.77993Z" fill="#268334"/>
</svg>
