<svg width="12" height="11" viewBox="0 0 12 11" fill="none" xmlns="http://www.w3.org/2000/svg">
<path d="M6.00002 0.591797C4.98236 0.591797 3.98755 0.89357 3.14139 1.45895C2.29523 2.02434 1.63573 2.82794 1.24629 3.76814C0.856844 4.70834 0.754947 5.74291 0.953484 6.74102C1.15202 7.73914 1.64207 8.65596 2.36167 9.37556C3.08127 10.0952 3.99809 10.5852 4.99621 10.7837C5.99432 10.9823 7.02889 10.8804 7.96909 10.4909C8.90929 10.1015 9.71289 9.442 10.2783 8.59584C10.8437 7.74968 11.1454 6.75487 11.1454 5.73721C11.144 4.373 10.6014 3.06508 9.63679 2.10044C8.67215 1.1358 7.36423 0.593237 6.00002 0.591797ZM7.46746 6.01723L5.48845 7.99624C5.45168 8.03301 5.40802 8.06218 5.35997 8.08208C5.31193 8.10198 5.26043 8.11223 5.20842 8.11223C5.15642 8.11223 5.10492 8.10198 5.05687 8.08208C5.00883 8.06218 4.96517 8.03301 4.92839 7.99624C4.89162 7.95946 4.86245 7.91581 4.84255 7.86776C4.82265 7.81971 4.8124 7.76821 4.8124 7.71621C4.8124 7.6642 4.82265 7.6127 4.84255 7.56466C4.86245 7.51661 4.89162 7.47295 4.92839 7.43618L6.62786 5.73721L4.92839 4.03823C4.85413 3.96396 4.8124 3.86323 4.8124 3.7582C4.8124 3.65317 4.85413 3.55244 4.92839 3.47817C5.00266 3.4039 5.10339 3.36218 5.20842 3.36218C5.31345 3.36218 5.41418 3.4039 5.48845 3.47817L7.46746 5.45718C7.50426 5.49394 7.53345 5.53759 7.55337 5.58564C7.57329 5.63369 7.58354 5.68519 7.58354 5.73721C7.58354 5.78922 7.57329 5.84072 7.55337 5.88877C7.53345 5.93682 7.50426 5.98047 7.46746 6.01723Z" fill="black"/>
</svg>
