<svg width="60" height="60" viewBox="0 0 60 60" fill="none" xmlns="http://www.w3.org/2000/svg">
    <g clip-path="url(#clip0_3201_7191)">
        <path d="M30 0C13.458 0 0 13.458 0 30C0 46.542 13.458 60 30 60C46.542 60 60 46.542 60 30C60 13.458 46.542 0 30 0ZM30 54.5455C16.4655 54.5455 5.45455 43.5344 5.45455 30C5.45455 16.4656 16.4655 5.45455 30 5.45455C43.5345 5.45455 54.5455 16.4656 54.5455 30C54.5455 43.5344 43.5344 54.5455 30 54.5455Z" fill="#2BC86A"/>
        <path d="M41.2495 19.3935L25.8215 34.8213L18.7506 27.7502C17.6857 26.6853 15.9588 26.6851 14.8937 27.75C13.8286 28.8151 13.8286 30.5418 14.8937 31.6069L23.8929 40.6065C24.4044 41.118 25.098 41.4055 25.8213 41.4055C25.8215 41.4055 25.8213 41.4055 25.8215 41.4055C26.5448 41.4055 27.2384 41.118 27.7498 40.6067L45.1064 23.2505C46.1715 22.1855 46.1715 20.4587 45.1064 19.3936C44.0413 18.3285 42.3146 18.3284 41.2495 19.3935Z" fill="#2BC86A"/>
    </g>
    <defs>
        <clipPath id="clip0_3201_7191">
            <rect width="60" height="60" fill="white"/>
        </clipPath>
    </defs>
</svg>
