<svg width="32" height="32" viewBox="0 0 32 32" fill="none" xmlns="http://www.w3.org/2000/svg">
<path fill-rule="evenodd" clip-rule="evenodd" d="M25.9529 0.0830078C27.5972 0.0830078 29.0035 0.666873 30.1707 1.83439C31.3381 3.0019 31.922 4.40835 31.9221 6.05271V25.9518C31.9221 27.5961 31.3382 29.0024 30.1705 30.1701C29.0032 31.3378 27.5969 31.9217 25.9527 31.9217H6.0536C4.4093 31.9217 3.003 31.3378 1.83527 30.1701C0.667758 29.0024 0.0838928 27.596 0.0838928 25.9518V6.05271C0.0838928 4.40835 0.667758 3.00212 1.83527 1.83439C3.003 0.666873 4.4093 0.0830078 6.0536 0.0830078H25.9529ZM24.548 6.07783L5.35862 14.371C4.20438 14.8698 4.43035 16.5698 5.67482 16.7498L10.2176 17.4068C11.4401 17.5836 12.6846 17.3006 13.7104 16.6124L19.7549 12.5575C19.9901 12.3997 20.2646 12.6939 20.0908 12.9176L17.0506 16.8303C16.2959 17.8016 16.3621 19.1781 17.2065 20.0725L21.5122 24.6334C22.2229 25.3862 23.4885 24.9951 23.6506 23.9725L26.2743 7.41768C26.4281 6.44673 25.4504 5.68784 24.548 6.07783Z" fill="#008FD7"/>
</svg>
