<svg width="33" height="33" viewBox="0 0 33 33" fill="none" xmlns="http://www.w3.org/2000/svg">
<path fill-rule="evenodd" clip-rule="evenodd" d="M26.7561 0.3125C28.4004 0.3125 29.8067 0.896365 30.9739 2.06388C32.1414 3.23139 32.7252 4.63784 32.7253 6.2822V26.1813C32.7253 27.8255 32.1414 29.2318 30.9737 30.3996C29.8065 31.5673 28.4002 32.1512 26.7559 32.1512H6.85685C5.21256 32.1512 3.80626 31.5673 2.63852 30.3996C1.47101 29.2318 0.887146 27.8255 0.887146 26.1813V6.2822C0.887146 4.63784 1.47101 3.23161 2.63852 2.06388C3.80626 0.896365 5.21256 0.3125 6.85685 0.3125H26.7561ZM25.262 13.1227C25.262 12.8735 25.255 12.6873 25.2411 12.5629C26.1117 11.9408 26.8374 11.1877 27.4177 10.3034C26.644 10.6488 25.8082 10.8836 24.9103 11.0082C25.8495 10.4554 26.4925 9.64689 26.8379 8.58312C25.9399 9.10804 25.0137 9.46059 24.0601 9.64021C23.2173 8.72811 22.1599 8.27195 20.8883 8.27195C19.6862 8.27195 18.66 8.69703 17.8104 9.54691C16.9604 10.3969 16.5355 11.4227 16.5355 12.6252C16.5355 13.0258 16.5701 13.3576 16.6391 13.6201C14.8566 13.5235 13.1843 13.0741 11.6229 12.2728C10.0616 11.4713 8.73468 10.4005 7.64311 9.05997C7.24235 9.75093 7.04211 10.4833 7.04211 11.2572C7.04211 12.8325 7.67084 14.0415 8.92838 14.8846C8.27881 14.8706 7.58786 14.691 6.85567 14.3458V14.3872C6.85567 15.4235 7.20111 16.3459 7.89221 17.1544C8.58316 17.9628 9.43289 18.4632 10.4416 18.657C10.041 18.7673 9.68853 18.8225 9.38454 18.8225C9.20492 18.8225 8.9355 18.7951 8.57633 18.7399C8.8666 19.6106 9.3812 20.329 10.1207 20.8956C10.8599 21.4627 11.6995 21.7527 12.6391 21.7661C11.036 23.0102 9.23266 23.632 7.22884 23.632C6.86975 23.632 6.52409 23.6112 6.19245 23.5699C8.23772 24.8683 10.4625 25.5183 12.8668 25.5183C14.4144 25.5183 15.8657 25.2728 17.2195 24.7819C18.5741 24.2917 19.7347 23.635 20.7021 22.8131C21.6693 21.991 22.5019 21.0441 23.1993 19.9733C23.8975 18.9024 24.4158 17.7831 24.7542 16.6152C25.0926 15.4478 25.262 14.2835 25.262 13.1227Z" fill="#43B4FF"/>
</svg>
