<svg width="14" height="14" viewBox="0 0 14 14" fill="none" xmlns="http://www.w3.org/2000/svg">
<path d="M13.25 2V12C13.25 12.3315 13.1183 12.6495 12.8839 12.8839C12.6494 13.1183 12.3315 13.25 12 13.25H7.74997C7.55106 13.25 7.3603 13.171 7.21964 13.0303C7.07899 12.8897 6.99997 12.6989 6.99997 12.5C6.99997 12.3011 7.07899 12.1103 7.21964 11.9697C7.3603 11.829 7.55106 11.75 7.74997 11.75H11.75V2.25H2.24997V7.75C2.24997 7.94891 2.17096 8.13968 2.0303 8.28033C1.88965 8.42098 1.69889 8.5 1.49997 8.5C1.30106 8.5 1.1103 8.42098 0.969643 8.28033C0.82899 8.13968 0.749973 7.94891 0.749973 7.75V2C0.749973 1.66848 0.881669 1.35054 1.11609 1.11612C1.35051 0.881696 1.66845 0.75 1.99997 0.75H12C12.3315 0.75 12.6494 0.881696 12.8839 1.11612C13.1183 1.35054 13.25 1.66848 13.25 2ZM7.0306 8.46937C6.96092 8.39945 6.87813 8.34398 6.78696 8.30612C6.6958 8.26827 6.59806 8.24878 6.49935 8.24878C6.40064 8.24878 6.3029 8.26827 6.21173 8.30612C6.12057 8.34398 6.03778 8.39945 5.9681 8.46937L2.99997 11.4375L2.0306 10.4694C1.96083 10.3996 1.87801 10.3443 1.78686 10.3065C1.69571 10.2688 1.59801 10.2493 1.49935 10.2493C1.40069 10.2493 1.30299 10.2688 1.21184 10.3065C1.12069 10.3443 1.03786 10.3996 0.968098 10.4694C0.898333 10.5391 0.842993 10.622 0.805236 10.7131C0.76748 10.8043 0.748047 10.902 0.748047 11.0006C0.748047 11.0993 0.76748 11.197 0.805236 11.2881C0.842993 11.3793 0.898333 11.4621 0.968098 11.5319L2.4681 13.0319C2.53778 13.1018 2.62057 13.1573 2.71173 13.1951C2.8029 13.233 2.90064 13.2525 2.99935 13.2525C3.09806 13.2525 3.1958 13.233 3.28696 13.1951C3.37813 13.1573 3.46092 13.1018 3.5306 13.0319L7.0306 9.53187C7.10052 9.4622 7.15599 9.3794 7.19385 9.28824C7.2317 9.19707 7.25119 9.09933 7.25119 9.00062C7.25119 8.90191 7.2317 8.80417 7.19385 8.71301C7.15599 8.62185 7.10052 8.53905 7.0306 8.46937Z" fill="#FA9F34"/>
</svg>
