<svg width="114" height="114" viewBox="0 0 114 114" fill="none" xmlns="http://www.w3.org/2000/svg">
<g clip-path="url(#clip0_1894_10981)">
<rect x="12" y="12" width="90" height="90" rx="45" fill="white"/>
<path fill-rule="evenodd" clip-rule="evenodd" d="M59.5799 58.7328C61.508 57.8408 62.8457 55.8891 62.8457 53.625C62.8457 50.5184 60.3273 48 57.2207 48C54.1141 48 51.5957 50.5184 51.5957 53.625C51.5957 55.8891 52.9333 57.8408 54.8615 58.7328L51.375 66.2812H63.0663L59.5799 58.7328Z" fill="#165C23"/>
<path fill-rule="evenodd" clip-rule="evenodd" d="M49.3358 17.3834L48.3093 15.916L48.2731 15.9221L49.1426 21.2964L47.5062 21.556L46.2139 13.5671L48.1161 13.2591L50.9059 16.6829L51.9384 18.1684L51.9747 18.1624L51.1051 12.7821L52.7355 12.5164L54.0278 20.5053L52.1317 20.8133L49.3358 17.3834ZM41.3758 23.7177C41.8543 23.7147 42.3389 23.612 42.831 23.4097C43.3262 23.2044 43.7429 22.9372 44.081 22.6066C44.4222 22.2775 44.6683 21.891 44.8177 21.4472C44.9702 21.0049 45.026 20.5097 44.9868 19.9617C44.9506 19.4153 44.8011 18.8235 44.5399 18.1864C44.2818 17.5509 43.9738 17.024 43.616 16.6043C43.2568 16.1862 42.8688 15.8722 42.4506 15.6623C42.0355 15.454 41.5901 15.3513 41.1161 15.3544C40.6406 15.3589 40.156 15.4631 39.6608 15.6684C39.1687 15.8707 38.7535 16.1363 38.4109 16.4654C38.0697 16.7961 37.8221 17.1825 37.6681 17.6248C37.5156 18.0687 37.4613 18.5638 37.5051 19.1103C37.5458 19.6583 37.6953 20.2501 37.9519 20.8856C38.2146 21.5227 38.5226 22.0496 38.8758 22.4677C39.2291 22.8874 39.6155 23.2014 40.0352 23.4097C40.4534 23.6196 40.9002 23.7222 41.3758 23.7177ZM43.1934 21.0064C43.0514 21.4412 42.7344 21.7612 42.2393 21.9665C41.7471 22.1688 41.2973 22.1643 40.8866 21.9545C40.479 21.7416 40.153 21.3355 39.9084 20.7347L39.4495 19.6175C39.2034 19.0182 39.1536 18.5004 39.2985 18.0657C39.4434 17.6309 39.7605 17.3139 40.2526 17.1116C40.7478 16.9063 41.1976 16.9093 41.6052 17.1176C42.0113 17.3274 42.3374 17.732 42.5835 18.3313L43.0424 19.4485C43.2869 20.0493 43.3383 20.5686 43.1934 21.0064ZM35.1472 27.4764L34.3863 26.2989L35.2619 25.7313L32.3816 21.2929L31.506 21.8606L30.7451 20.6891L33.9697 18.5937L34.7305 19.7652L33.861 20.3328L36.7414 24.7711L37.6109 24.2035L38.3718 25.381L35.1472 27.4764ZM32.5712 29.5849L28.157 24.7783L29.7632 23.2988L28.7005 22.1455L24.1776 26.3L25.2404 27.4533L26.8587 25.9678L31.2729 30.7745L32.5712 29.5849ZM28.0954 34.1917L26.1933 33.5396L24.6172 35.7316L25.843 37.3257L24.7984 38.775L19.7864 31.885L21.0605 30.1157L29.1702 32.7002L28.0954 34.1917ZM21.7127 31.9515L21.6764 31.9998L23.645 34.5239L24.7319 33.0203L21.7127 31.9515ZM21.9085 45.3763L22.603 43.758L19.8736 42.5805L20.3748 41.4211L23.6597 41.3004L24.4387 39.4948L20.8941 39.7001C20.9182 39.1733 20.7899 38.7189 20.5076 38.3354C20.2268 37.949 19.8343 37.6471 19.3301 37.4297C18.9768 37.2772 18.6326 37.1911 18.2975 37.17C17.9594 37.1504 17.6438 37.1942 17.3495 37.3029C17.0521 37.4085 16.7879 37.5731 16.5584 37.798C16.3259 38.0245 16.1357 38.3098 15.9908 38.6555L14.4751 42.1759L21.9085 45.3763ZM19.312 39.6458C19.3724 39.839 19.3512 40.0564 19.2456 40.298L18.5149 42.0008L16.5765 41.1615L17.3072 39.4586C17.4129 39.2171 17.5578 39.054 17.742 38.9695C17.9231 38.8849 18.1375 38.8955 18.382 38.9997L18.847 39.1989C19.0931 39.3046 19.2486 39.4526 19.312 39.6458ZM20.331 52.3296L12.4024 50.7173L13.5014 45.3189L15.0352 45.6329L14.2925 49.3043L15.9168 49.6304L16.5569 46.4843L18.0786 46.7983L17.4385 49.9444L19.1535 50.2886L19.8962 46.6171L21.43 46.9311L20.331 52.3296ZM14.7053 59.1514L16.3115 58.3544L20.1158 56.0899L20.0916 54.1697L12 54.2663L12.0181 55.9208L17.4649 55.8544V55.8907L15.8526 56.6938L12.0543 58.9461L12.0785 60.8724L20.1701 60.7758L20.152 59.1213L14.7053 59.1877V59.1514ZM21.6319 67.7267L13.7456 69.5322L12.5138 64.1639L14.0355 63.8137L14.8748 67.461L16.4931 67.0926L15.7746 63.9647L17.2902 63.6205L18.0088 66.7484L19.7177 66.3559L18.8783 62.7087L20.4001 62.3584L21.6319 67.7267ZM21.6328 71.3787L21.6087 71.3304L22.7741 70.7869L22.1461 69.4403L18.058 71.3485L19.4107 74.2349L20.7452 73.613L20.1051 72.2483L20.4734 72.0792C20.6546 71.9946 20.8297 71.9584 20.9988 71.9705C21.1648 71.9826 21.3279 72.0339 21.4879 72.1214C21.6449 72.2105 21.7883 72.3313 21.9166 72.4838C22.0419 72.6377 22.1491 72.8098 22.2367 73.0031C22.4707 73.5028 22.5114 73.9677 22.3575 74.398C22.2004 74.8297 21.8185 75.186 21.2101 75.4668L20.0326 76.0223C19.4167 76.3076 18.8974 76.3726 18.4747 76.2156C18.052 76.0555 17.7244 75.7249 17.4904 75.2252C17.2942 74.7995 17.2398 74.4206 17.3274 74.09C17.4164 73.7564 17.575 73.4665 17.8044 73.2205L16.4578 72.2724C16.0155 72.8129 15.7634 73.3865 15.703 73.9934C15.6426 74.5972 15.7664 75.2283 16.0714 75.8834C16.3054 76.3816 16.6012 76.7952 16.959 77.1213C17.3183 77.4474 17.7259 77.6799 18.1848 77.8218C18.6438 77.9622 19.1495 78.003 19.7005 77.9426C20.2485 77.8822 20.8327 77.7071 21.4517 77.4172C22.0676 77.1304 22.5748 76.8013 22.9734 76.4269C23.3689 76.057 23.6603 75.663 23.849 75.2434C24.0346 74.8207 24.1237 74.3904 24.1147 73.9511C24.1026 73.5088 23.9999 73.0785 23.8067 72.6589C23.5455 72.1033 23.2179 71.7229 22.8224 71.5176C22.4284 71.3123 22.0314 71.267 21.6328 71.3787ZM25.7346 81.1991L24.3759 82.1713L22.3712 79.3694L23.7298 78.3972L25.7346 81.1991ZM30.1664 82.1662L25.5469 86.7796L24.0071 85.2337L22.9021 86.3388L27.2377 90.6805L28.3428 89.5754L26.7969 88.0235L31.4164 83.4101L30.1664 82.1662ZM33.3995 85.4023L35.0963 86.5255L34.9152 89.9734L34.9454 89.9916L38.0069 88.4457L39.595 89.4964L35.1205 91.5555L35.0359 96.175L33.321 95.0458L33.5082 91.8937L33.478 91.8756L30.6399 93.2765L29.0578 92.2318L33.3029 90.3116L33.3995 85.4023ZM42.5918 99.3955L45.5749 91.8775L40.4602 89.8486L39.8805 91.3039L43.3587 92.6867L42.7126 94.3111L39.7296 93.1215L39.162 94.5647L42.145 95.7543L41.5291 97.3001L38.0509 95.9173L37.4772 97.3666L42.5918 99.3955ZM51.3011 98.63L50.7999 96.903L49.242 92.7606L47.3459 92.4466L46.0174 100.429L47.6478 100.701L48.5415 95.327L48.5778 95.333L49.079 97.06L50.6309 101.196L52.533 101.516L53.8615 93.5335L52.2311 93.2618L51.3374 98.6361L51.3011 98.63ZM61.6855 15.3974L62.1927 17.1184L63.7688 21.2488L65.6649 21.5567L66.9571 13.5678L65.3267 13.3021L64.4572 18.6824L64.4209 18.6763L63.9077 16.9493L62.3377 12.825L60.4355 12.5171L59.1433 20.506L60.7797 20.7657L61.6493 15.3914L61.6855 15.3974ZM67.4338 22.1164L70.3866 14.5803L75.5133 16.5851L74.9397 18.0404L71.4554 16.6757L70.8516 18.2215L73.8406 19.393L73.273 20.8423L70.284 19.6708L69.6439 21.3012L73.1281 22.6659L72.5605 24.1212L67.4338 22.1164ZM77.9325 27.4187L79.6414 28.5358L79.7078 23.6265L83.9469 21.6821L82.3587 20.6434L79.5267 22.0685L79.4965 22.0444L79.6716 18.8862L77.9567 17.7631L77.8842 22.3886L73.4217 24.4719L75.0159 25.5105L78.0714 23.9525L78.1016 23.9707L77.9325 27.4187ZM87.4862 27.1218L82.8908 31.7594L81.6409 30.5154L86.2362 25.8779L84.6782 24.338L85.7833 23.233L90.1431 27.5566L89.0381 28.6616L87.4862 27.1218ZM88.6829 31.7253L87.3242 32.7035L89.335 35.4933L90.6937 34.5151L88.6829 31.7253ZM91.5005 42.5524L91.4763 42.5041C91.0733 42.6203 90.6747 42.5765 90.2807 42.3712C89.8852 42.1659 89.5576 41.787 89.2964 41.236C89.0987 40.8163 88.9945 40.3861 88.9824 39.9438C88.9703 39.5045 89.0564 39.0742 89.2421 38.6515C89.4263 38.2318 89.7161 37.8363 90.1116 37.4619C90.5056 37.0875 91.0114 36.7554 91.6273 36.4656C92.2432 36.1757 92.8259 35.9991 93.3785 35.9342C93.9295 35.8663 94.4352 35.9025 94.8941 36.0429C95.3531 36.1803 95.7607 36.4112 96.1199 36.7373C96.4777 37.0634 96.7751 37.474 97.0136 37.9692C97.3231 38.6243 97.4499 39.2569 97.3941 39.8653C97.3367 40.4721 97.0891 41.0488 96.6513 41.5923L95.2927 40.6442C95.5221 40.3936 95.6806 40.1038 95.7697 39.7747C95.8573 39.4441 95.8014 39.0652 95.6006 38.6394C95.3621 38.1443 95.03 37.8152 94.6043 37.6552C94.1816 37.4982 93.6623 37.5646 93.0463 37.8544L91.8749 38.41C91.2665 38.6998 90.8861 39.0591 90.7336 39.4909C90.5796 39.9211 90.6219 40.3846 90.8604 40.8797C90.948 41.073 91.0566 41.2451 91.1865 41.399C91.3193 41.5515 91.4642 41.6723 91.6213 41.7613C91.7783 41.8489 91.9383 41.9002 92.1043 41.9123C92.2734 41.9244 92.4485 41.8851 92.6297 41.7976L92.998 41.6285L92.3519 40.2638L93.6804 39.6298L95.0451 42.5101L90.9691 44.4424L90.3351 43.1019L91.5005 42.5524ZM99.3707 44.3156L91.4904 46.1573L92.7464 51.5195L94.2681 51.1632L93.4107 47.516L95.1196 47.1174L95.8563 50.2454L97.3659 49.8891L96.6292 46.7612L98.2475 46.3868L99.105 50.034L100.627 49.6778L99.3707 44.3156ZM96.8512 55.5038L98.4574 54.7007V54.6644L93.0107 54.755L92.9865 53.1005L101.078 52.9616L101.108 54.8879L97.3222 57.1644L95.7099 57.9735V58.0098L101.157 57.9132L101.187 59.5677L93.0952 59.7066L93.065 57.7863L96.8512 55.5038ZM100.792 63.1228L92.8579 61.5468L91.789 66.9512L93.3228 67.2531L94.0474 63.5817L95.7624 63.9259L95.1404 67.072L96.6682 67.3739L97.2901 64.2279L98.9145 64.5479L98.1899 68.2193L99.7236 68.5273L100.792 63.1228ZM90.632 70.1312L91.3204 68.5069L98.7659 71.6711L97.2683 75.2036C97.1189 75.5448 96.9302 75.8286 96.7007 76.055C96.4712 76.2845 96.2086 76.4536 95.9157 76.5622C95.6213 76.6709 95.3058 76.7147 94.9676 76.6951C94.6325 76.674 94.2868 76.5894 93.929 76.4415C93.4248 76.2241 93.0308 75.9237 92.7455 75.5417C92.4632 75.1628 92.3349 74.7099 92.359 74.1831L88.8204 74.4005L89.5873 72.5949L92.8723 72.45L93.3674 71.2906L90.632 70.1312ZM94.0015 73.5792C93.8958 73.8162 93.8762 74.0291 93.9411 74.2193C94.009 74.4125 94.166 74.5605 94.4121 74.6662L94.8771 74.8654C95.1216 74.9696 95.336 74.9771 95.5172 74.8896C95.6983 74.805 95.8402 74.6435 95.9459 74.4065L96.6705 72.6976L94.7261 71.8703L94.0015 73.5792ZM87.0884 80.3637L85.1862 79.7236L84.1174 81.2151L92.2392 83.7634L93.5073 81.988L88.4591 75.1222L87.4205 76.5775L88.6584 78.1657L87.0884 80.3637ZM91.6173 81.8793L91.581 81.9276L88.5557 80.883L89.6306 79.3673L91.6173 81.8793ZM85.1778 89.1352L80.7395 84.3527L82.0318 83.151L86.4701 87.9335L88.0763 86.442L89.1391 87.5893L84.6343 91.768L83.5716 90.6207L85.1778 89.1352ZM78.9376 87.6458L78.1707 86.4743L74.9522 88.5818L75.7191 89.7532L76.5886 89.1796L79.4871 93.6058L78.6176 94.1795L79.3845 95.3509L82.603 93.2435L81.8361 92.072L80.9605 92.6396L78.062 88.2134L78.9376 87.6458ZM70.499 90.5728C70.9911 90.3705 71.4742 90.2663 71.9482 90.2588C72.4238 90.2542 72.8721 90.3554 73.2948 90.5607C73.7175 90.769 74.107 91.0815 74.4602 91.4967C74.8135 91.9148 75.1245 92.4417 75.3902 93.0788C75.6513 93.7143 75.8038 94.3046 75.8491 94.848C75.8929 95.3945 75.8385 95.8897 75.6861 96.3335C75.5321 96.7804 75.2875 97.1683 74.9494 97.4989C74.6112 97.8326 74.1976 98.0998 73.7054 98.3021C73.2103 98.5074 72.7257 98.6115 72.2501 98.6161C71.7761 98.6236 71.3293 98.5225 70.9096 98.3141C70.4914 98.1088 70.1035 97.7963 69.7442 97.3782C69.3864 96.963 69.0769 96.4377 68.8142 95.8021C68.5485 95.1651 68.3961 94.5733 68.3553 94.0268C68.3161 93.4833 68.3704 92.9882 68.5183 92.5413C68.6678 92.0975 68.9109 91.7095 69.249 91.3759C69.5872 91.0453 70.0038 90.7781 70.499 90.5728ZM71.0968 92.016C70.6016 92.2213 70.2861 92.5413 70.1487 92.9761C70.0084 93.4139 70.0612 93.9332 70.3057 94.534L70.7707 95.6451C71.0213 96.2444 71.3489 96.6475 71.755 96.8528C72.1626 97.0611 72.6125 97.0642 73.1076 96.8589C73.5998 96.6566 73.9168 96.3365 74.0617 95.8987C74.2036 95.464 74.1493 94.9462 73.8987 94.3468L73.4337 93.2358C73.1891 92.6349 72.86 92.2303 72.4494 92.022C72.0388 91.8167 71.5889 91.8137 71.0968 92.016ZM65.0635 98.0963L64.0309 96.6229L61.217 93.2171L59.3209 93.5311L60.6494 101.514L62.2798 101.242L61.3861 95.868L61.4223 95.862L62.4549 97.3354L65.2628 100.747L67.1649 100.427L65.8364 92.4442L64.206 92.716L65.0997 98.0902L65.0635 98.0963Z" fill="#165C23"/>
</g>
<rect x="6" y="6" width="102" height="102" rx="51" stroke="white" stroke-width="12"/>
<defs>
<clipPath id="clip0_1894_10981">
<rect x="12" y="12" width="90" height="90" rx="45" fill="white"/>
</clipPath>
</defs>
</svg>
