<svg width="192" height="187" viewBox="0 0 192 187" fill="none" xmlns="http://www.w3.org/2000/svg">
<path d="M87.1394 184.34L8.0942 138.69C3.23833 135.895 3.85676 130.994 9.44559 127.764L85.7652 83.6949C91.3769 80.4652 99.8517 80.0988 104.685 82.9161L183.73 128.566C188.586 131.36 187.967 136.262 182.379 139.491L106.059 183.561C100.447 186.79 91.9724 187.157 87.1394 184.34Z" fill="#CDE6D0"/>
<g style="mix-blend-mode:soft-light">
<path d="M95.4088 165.763C91.5379 165.763 87.8273 164.939 84.8954 163.244L5.8502 117.594C2.34573 115.579 0.330078 112.418 0.330078 108.959C0.330078 105.088 2.82673 101.423 7.20159 98.8808L83.5211 54.8115C90.5759 50.7344 100.654 50.3908 106.93 54.0327L185.975 99.6824C189.48 101.698 191.495 104.859 191.495 108.318C191.495 112.189 188.999 115.876 184.624 118.396L108.304 162.465C104.525 164.664 99.8524 165.763 95.3859 165.763H95.4088ZM89.3848 155.479C92.8664 157.495 99.6233 157.128 103.815 154.7L180.135 110.631C182.059 109.532 182.517 108.524 182.517 108.341C182.494 108.295 182.242 107.928 181.486 107.493L102.441 61.8434C98.9591 59.8277 92.225 60.1942 88.0105 62.6221L11.691 106.691C9.76693 107.791 9.30884 108.799 9.30884 108.982C9.33175 109.028 9.5837 109.417 10.3396 109.829L89.3848 155.479Z" fill="white"/>
</g>
<path d="M187.006 80.3505V53.0707H125.849L104.708 40.8394C99.852 38.045 91.3771 38.3886 85.7883 41.6182L66.0671 53.002H4.84195V81.0148C4.70452 82.9159 5.75815 84.7483 8.09446 86.0768L87.1397 131.727C91.9956 134.521 100.47 134.177 106.059 130.948L182.379 86.8785C185.608 85.0232 187.166 82.5952 186.983 80.3505H187.006Z" fill="#95D99F"/>
<path d="M95.9352 38.9614C92.385 39.053 88.6972 39.9464 85.7883 41.6184L66.0671 53.0022H4.84195V81.015C4.70452 82.9161 5.75815 84.7485 8.09446 86.077L87.1397 131.727C89.476 133.078 92.6369 133.674 95.9352 133.605V38.9614Z" fill="#95D99F"/>
<path d="M11.7593 52.9795H4.84195V81.0381C4.70452 82.9393 5.75815 84.7716 8.09446 86.1001L11.7822 88.2303V52.9795H11.7593Z" fill="#BEE1C3"/>
<path d="M88.3535 132.345C92.5451 134.132 98.5921 134.04 103.494 132.162V100.301H88.3535V132.322V132.345Z" fill="#BEE1C3"/>
<path d="M87.1394 103.806L8.0942 58.1559C3.23833 55.3615 3.85676 50.4598 9.44559 47.2302L85.7652 3.16092C91.3769 -0.068687 99.8517 -0.435159 104.685 2.38216L183.73 48.0319C188.586 50.8263 187.967 55.7279 182.379 58.9575L106.059 103.027C100.447 106.256 91.9724 106.623 87.1394 103.806Z" fill="#C1F1C7"/>
<path d="M89.9323 85.8061L36.8865 55.194C33.6348 53.3218 34.0289 50.0372 37.8062 47.8694L89.0126 18.3083C92.757 16.1405 98.4721 15.9106 101.724 17.7828L154.77 48.395C158.021 50.2672 157.627 53.5517 153.85 55.7195L102.644 85.2805C98.8991 87.4484 93.184 87.6783 89.9323 85.8061Z" fill="#268334"/>
<path fill-rule="evenodd" clip-rule="evenodd" d="M74.1818 54.3017C72.4249 57.0549 72.8591 58.8732 74.3364 59.7261C75.8137 60.579 78.963 60.8297 83.7317 59.8154C88.3226 58.8389 93.6975 56.8151 98.6789 53.9391C103.66 51.0631 107.166 47.9599 108.857 45.3093C110.614 42.5561 110.18 40.7379 108.702 39.885C107.225 39.0321 104.076 38.7813 99.307 39.7957C94.7161 40.7722 89.3411 42.796 84.3598 45.672C79.3784 48.5479 75.8731 51.6512 74.1818 54.3017ZM70.3814 53.4934C72.3178 50.4589 76.1966 47.0781 81.496 44.0185C86.7953 40.959 92.6511 38.7195 97.9069 37.6015C102.985 36.5214 108.298 36.3449 111.566 38.2315C114.834 40.1181 114.528 43.1859 112.657 46.1177C110.721 49.1521 106.842 52.533 101.543 55.5925C96.2434 58.6521 90.3876 60.8916 85.1318 62.0095C80.0538 63.0897 74.7402 63.2661 71.4726 61.3795C68.2049 59.4929 68.5106 56.4252 70.3814 53.4934Z" fill="white"/>
<path fill-rule="evenodd" clip-rule="evenodd" d="M98.6789 53.9391C99.4697 53.4825 100.752 53.4825 101.543 53.9391L110.134 58.8994C110.925 59.356 110.925 60.0962 110.134 60.5528C109.343 61.0094 108.061 61.0094 107.27 60.5528L98.6789 55.5925C97.8881 55.1359 97.8881 54.3957 98.6789 53.9391Z" fill="white"/>
<path fill-rule="evenodd" clip-rule="evenodd" d="M71.4726 59.7261C72.2634 59.2695 73.5456 59.2695 74.3364 59.7261L82.9279 64.6864C84.2426 65.4455 87.1728 65.8061 91.7739 64.9206C96.2373 64.0617 101.705 62.1125 107.27 58.8994C112.836 55.6863 116.212 52.5294 117.699 49.9525C119.233 47.296 118.609 45.6043 117.294 44.8452L108.702 39.885C107.911 39.4284 107.911 38.6881 108.702 38.2315C109.493 37.775 110.775 37.7749 111.566 38.2315L120.158 43.1918C123.139 44.9129 123.23 47.7681 121.542 50.6919C119.808 53.6954 116.024 57.1522 110.134 60.5528C104.244 63.9534 98.2567 66.1378 93.0547 67.1389C87.9904 68.1136 83.045 68.0609 80.0641 66.3398L71.4726 61.3795C70.6818 60.9229 70.6818 60.1827 71.4726 59.7261Z" fill="white"/>
<path fill-rule="evenodd" clip-rule="evenodd" d="M108.363 46.3028C109.154 45.8462 110.436 45.8462 111.227 46.3028L119.818 51.263C120.609 51.7196 120.609 52.4599 119.818 52.9165C119.027 53.3731 117.745 53.3731 116.954 52.9165L108.363 47.9562C107.572 47.4996 107.572 46.7593 108.363 46.3028Z" fill="white"/>
<path fill-rule="evenodd" clip-rule="evenodd" d="M85.4524 59.5302C86.2432 59.0736 87.5254 59.0736 88.3162 59.5302L96.9077 64.4905C97.6985 64.947 97.6985 65.6873 96.9077 66.1439C96.1168 66.6005 94.8347 66.6005 94.0438 66.1439L85.4524 61.1836C84.6615 60.727 84.6615 59.9868 85.4524 59.5302Z" fill="white"/>
<path d="M36.7485 55.2166L36.9127 55.3151C37.1755 55.1509 37.3726 54.9538 37.6682 54.7896L88.8745 25.2285C92.619 23.0607 98.3341 22.8308 101.586 24.703L154.467 55.2494C157.456 53.1144 157.62 50.1912 154.632 48.4504L101.586 17.8382C98.3341 15.966 92.6518 16.1959 88.8745 18.3638L37.6682 47.9248C33.9238 50.0926 33.4968 53.3772 36.7485 55.2494V55.2166Z" fill="#165C23"/>
<path d="M182.402 53.5752L106.082 97.6445C100.47 100.874 91.9954 101.241 87.1624 98.4233L8.11716 52.7736C7.04062 52.1551 6.23895 51.4222 5.68923 50.6205C4.01717 53.3004 4.77303 56.2093 8.11716 58.1333L87.1624 103.783C92.0183 106.577 100.493 106.234 106.082 103.004L182.402 58.935C186.753 56.4155 188.082 52.911 186.181 50.1624C185.425 51.3763 184.165 52.5674 182.402 53.5752Z" fill="white"/>
<path d="M157.94 87.566C157.94 89.6046 156.52 92.0783 154.756 93.0862C152.992 94.094 151.572 93.2694 151.572 91.2537C151.572 89.2381 152.992 86.7414 154.756 85.7336C156.52 84.7258 157.94 85.5504 157.94 87.566Z" fill="#F6FFED"/>
<path d="M168.202 81.6339C168.202 83.6725 166.781 86.1461 165.018 87.154C163.254 88.1618 161.834 87.3372 161.834 85.3216C161.834 83.3059 163.254 80.8093 165.018 79.8015C166.781 78.7936 168.202 79.6183 168.202 81.6339Z" fill="#F6FFED"/>
<path d="M178.485 75.7012C178.485 77.7398 177.065 80.2135 175.301 81.2214C173.537 82.2292 172.117 81.4046 172.117 79.389C172.117 77.3733 173.537 74.8767 175.301 73.8689C177.065 72.861 178.485 73.6856 178.485 75.7012Z" fill="#F6FFED"/>
</svg>
