<svg width="192" height="187" viewBox="0 0 192 187" fill="none" xmlns="http://www.w3.org/2000/svg">
<path d="M86.8094 184.34L7.76412 138.69C2.90826 135.895 3.52668 130.994 9.11551 127.764L85.4351 83.6949C91.0468 80.4652 99.5217 80.0988 104.355 82.9161L183.4 128.566C188.256 131.36 187.637 136.262 182.048 139.491L105.729 183.561C100.117 186.79 91.6423 187.157 86.8094 184.34Z" fill="#CDE6D0"/>
<g style="mix-blend-mode:soft-light">
<path d="M95.0788 165.763C91.2078 165.763 87.4972 164.939 84.5654 163.244L5.52012 117.594C2.01565 115.579 0 112.418 0 108.959C0 105.088 2.49665 101.423 6.87151 98.8808L83.191 54.8115C90.2458 50.7344 100.324 50.3908 106.6 54.0327L185.645 99.6824C189.15 101.698 191.165 104.859 191.165 108.318C191.165 112.189 188.669 115.876 184.294 118.396L107.974 162.465C104.195 164.664 99.5223 165.763 95.0559 165.763H95.0788ZM89.0547 155.479C92.5363 157.495 99.2933 157.128 103.485 154.7L179.804 110.631C181.728 109.532 182.187 108.524 182.187 108.341C182.164 108.295 181.912 107.928 181.156 107.493L102.111 61.8434C98.629 59.8277 91.895 60.1942 87.6804 62.6221L11.3609 106.691C9.43685 107.791 8.97877 108.799 8.97877 108.982C9.00167 109.028 9.25362 109.417 10.0095 109.829L89.0547 155.479Z" fill="white"/>
</g>
<path d="M186.676 80.3505V53.0707H125.519L104.378 40.8394C99.5219 38.045 91.0471 38.3886 85.4582 41.6182L65.737 53.002H4.51188V81.0148C4.37445 82.9159 5.42807 84.7483 7.76438 86.0768L86.8096 131.727C91.6655 134.521 100.14 134.177 105.729 130.948L182.049 86.8785C185.278 85.0232 186.836 82.5952 186.653 80.3505H186.676Z" fill="#95D99F"/>
<path d="M95.6052 38.9614C92.0549 39.053 88.3672 39.9464 85.4582 41.6184L65.737 53.0022H4.51188V81.015C4.37445 82.9161 5.42807 84.7485 7.76438 86.077L86.8096 131.727C89.1459 133.078 92.3068 133.674 95.6052 133.605V38.9614Z" fill="#95D99F"/>
<path d="M11.4292 52.9795H4.51188V81.0381C4.37445 82.9393 5.42807 84.7716 7.76438 86.1001L11.4521 88.2303V52.9795H11.4292Z" fill="#BEE1C3"/>
<path d="M88.0234 132.345C92.2151 134.132 98.262 134.04 103.164 132.162V100.301H88.0234V132.322V132.345Z" fill="#BEE1C3"/>
<path d="M86.8094 103.806L7.76412 58.1559C2.90826 55.3615 3.52668 50.4598 9.11551 47.2302L85.4351 3.16092C91.0468 -0.068687 99.5217 -0.435159 104.355 2.38216L183.4 48.0319C188.256 50.8263 187.637 55.7279 182.048 58.9575L105.729 103.027C100.117 106.256 91.6423 106.623 86.8094 103.806Z" fill="#C1F1C7"/>
<path d="M89.6022 85.8061L36.5564 55.194C33.3047 53.3218 33.6989 50.0372 37.4761 47.8694L88.6825 18.3083C92.4269 16.1405 98.142 15.9106 101.394 17.7828L154.439 48.395C157.691 50.2672 157.297 53.5517 153.52 55.7195L102.313 85.2805C98.569 87.4484 92.8539 87.6783 89.6022 85.8061Z" fill="#268334"/>
<path fill-rule="evenodd" clip-rule="evenodd" d="M140.553 55.3466C140.55 56.5411 139.802 57.569 138.31 58.4303L101.264 79.8191C99.7721 80.6804 97.9918 81.1119 95.9229 81.1137C93.854 81.1154 92.0759 80.687 90.5885 79.8282L53.652 58.5029C52.1647 57.6442 51.4225 56.6176 51.4256 55.4231C51.4287 54.2287 52.1761 53.2008 53.6679 52.3395L90.7144 30.9507C92.2062 30.0894 93.9865 29.6579 96.0554 29.6561C98.1243 29.6543 99.9024 30.0828 101.39 30.9415L138.326 52.2668C139.814 53.1256 140.556 54.1522 140.553 55.3466ZM95.9342 76.7419L132.981 55.3531L96.0442 34.0278L58.9977 55.4166L95.9342 76.7419ZM96.6068 55.7443C98.2644 54.7873 99.0949 53.6399 99.0983 52.3021C99.1018 50.9643 98.2772 49.8184 96.6245 48.8642C94.9719 47.9101 92.987 47.434 90.6698 47.436C88.3527 47.438 86.3654 47.9174 84.7078 48.8744C83.0502 49.8314 82.2197 50.9788 82.2163 52.3166C82.2128 53.6544 83.0374 54.8004 84.6901 55.7546C86.3427 56.7087 88.3276 57.1848 90.6448 57.1828C92.9619 57.1808 94.9492 56.7013 96.6068 55.7443ZM119.201 55.0085L121.184 56.1535L97.3151 69.9342L95.3319 68.7892C93.514 67.7397 93.5184 66.0196 95.3452 63.6291C96.84 61.6212 98.8305 59.8994 101.317 58.4639C103.803 57.0284 106.785 55.8792 110.263 55.0162C114.404 53.9615 117.383 53.959 119.201 55.0085Z" fill="white"/>
<path d="M36.4184 55.2166L36.5827 55.3151C36.8454 55.1509 37.0425 54.9538 37.3381 54.7896L88.5445 25.2285C92.2889 23.0607 98.004 22.8308 101.256 24.703L154.137 55.2494C157.126 53.1144 157.29 50.1912 154.301 48.4504L101.256 17.8382C98.004 15.966 92.3217 16.1959 88.5445 18.3638L37.3381 47.9248C33.5937 50.0926 33.1667 53.3772 36.4184 55.2494V55.2166Z" fill="#165C23"/>
<path d="M182.071 53.5752L105.752 97.6445C100.14 100.874 91.6653 101.241 86.8323 98.4233L7.78708 52.7736C6.71055 52.1551 5.90888 51.4222 5.35916 50.6205C3.68709 53.3004 4.44295 56.2093 7.78708 58.1333L86.8323 103.783C91.6882 106.577 100.163 106.234 105.752 103.004L182.071 58.935C186.423 56.4155 187.752 52.911 185.851 50.1624C185.095 51.3763 183.835 52.5674 182.071 53.5752Z" fill="white"/>
<path d="M157.61 87.566C157.61 89.6046 156.19 92.0783 154.426 93.0862C152.662 94.094 151.242 93.2694 151.242 91.2537C151.242 89.2381 152.662 86.7414 154.426 85.7336C156.19 84.7258 157.61 85.5504 157.61 87.566Z" fill="#F6FFED"/>
<path d="M167.872 81.6339C167.872 83.6725 166.451 86.1461 164.688 87.154C162.924 88.1618 161.504 87.3372 161.504 85.3216C161.504 83.3059 162.924 80.8093 164.688 79.8015C166.451 78.7936 167.872 79.6183 167.872 81.6339Z" fill="#F6FFED"/>
<path d="M178.155 75.7012C178.155 77.7398 176.735 80.2135 174.971 81.2214C173.207 82.2292 171.787 81.4046 171.787 79.389C171.787 77.3733 173.207 74.8767 174.971 73.8689C176.735 72.861 178.155 73.6856 178.155 75.7012Z" fill="#F6FFED"/>
</svg>
