<svg width="192" height="187" viewBox="0 0 192 187" fill="none" xmlns="http://www.w3.org/2000/svg">
<path d="M87.6355 184.34L8.59029 138.69C3.73443 135.895 4.35286 130.994 9.94168 127.764L86.2613 83.6949C91.873 80.4652 100.348 80.0988 105.181 82.9161L184.226 128.566C189.082 131.36 188.463 136.262 182.875 139.491L106.555 183.561C100.943 186.79 92.4685 187.157 87.6355 184.34Z" fill="#CDE6D0"/>
<g style="mix-blend-mode:soft-light">
<path d="M95.9049 165.763C92.034 165.763 88.3234 164.939 85.3915 163.244L6.34629 117.594C2.84182 115.579 0.826172 112.418 0.826172 108.959C0.826172 105.088 3.32282 101.423 7.69768 98.8808L84.0172 54.8115C91.072 50.7344 101.15 50.3908 107.426 54.0327L186.471 99.6824C189.976 101.698 191.992 104.859 191.992 108.318C191.992 112.189 189.495 115.876 185.12 118.396L108.8 162.465C105.021 164.664 100.349 165.763 95.882 165.763H95.9049ZM89.8809 155.479C93.3625 157.495 100.119 157.128 104.311 154.7L180.631 110.631C182.555 109.532 183.013 108.524 183.013 108.341C182.99 108.295 182.738 107.928 181.982 107.493L102.937 61.8434C99.4552 59.8277 92.7211 60.1942 88.5066 62.6221L12.187 106.691C10.263 107.791 9.80494 108.799 9.80494 108.982C9.82784 109.028 10.0798 109.417 10.8357 109.829L89.8809 155.479Z" fill="white"/>
</g>
<path d="M187.502 80.3505V53.0707H126.345L105.204 40.8394C100.348 38.045 91.8732 38.3886 86.2844 41.6182L66.5632 53.002H5.33805V81.0148C5.20062 82.9159 6.25424 84.7483 8.59056 86.0768L87.6358 131.727C92.4917 134.521 100.967 134.177 106.555 130.948L182.875 86.8785C186.105 85.0232 187.662 82.5952 187.479 80.3505H187.502Z" fill="#95D99F"/>
<path d="M96.4313 38.9614C92.8811 39.053 89.1933 39.9464 86.2844 41.6184L66.5632 53.0022H5.33805V81.015C5.20062 82.9161 6.25424 84.7485 8.59056 86.077L87.6358 131.727C89.9721 133.078 93.133 133.674 96.4313 133.605V38.9614Z" fill="#95D99F"/>
<path d="M12.2554 52.9795H5.33805V81.0381C5.20062 82.9393 6.25424 84.7716 8.59056 86.1001L12.2783 88.2303V52.9795H12.2554Z" fill="#BEE1C3"/>
<path d="M88.8496 132.345C93.0412 134.132 99.0882 134.04 103.99 132.162V100.301H88.8496V132.322V132.345Z" fill="#BEE1C3"/>
<path d="M87.6355 103.806L8.59029 58.1559C3.73443 55.3615 4.35286 50.4598 9.94168 47.2302L86.2613 3.16092C91.873 -0.068687 100.348 -0.435159 105.181 2.38216L184.226 48.0319C189.082 50.8263 188.463 55.7279 182.875 58.9575L106.555 103.027C100.943 106.256 92.4685 106.623 87.6355 103.806Z" fill="#C1F1C7"/>
<path d="M90.4284 85.8061L37.3826 55.194C34.1309 53.3218 34.525 50.0372 38.3023 47.8694L89.5087 18.3083C93.2531 16.1405 98.9682 15.9106 102.22 17.7828L155.266 48.395C158.517 50.2672 158.123 53.5517 154.346 55.7195L103.14 85.2805C99.3952 87.4484 93.6801 87.6783 90.4284 85.8061Z" fill="#268334"/>
<path fill-rule="evenodd" clip-rule="evenodd" d="M125.684 51.9428C126.65 51.3848 127.132 50.6946 127.13 49.8725C127.128 49.0504 126.613 48.3429 125.586 47.7499L103.677 35.1006C102.65 34.5077 101.424 34.2105 100 34.2091C98.5762 34.2077 97.3809 34.4861 96.4143 35.0442L67.2444 51.8854C66.2777 52.4435 65.7956 53.1336 65.798 53.9557C65.8005 54.7778 66.3152 55.4854 67.3422 56.0783L89.2514 68.7276C90.2784 69.3205 91.5039 69.6177 92.9279 69.6191C94.3518 69.6205 95.5471 69.3422 96.5138 68.7841L125.684 51.9428ZM103.775 39.293L74.6053 56.1342L70.9252 54.0096L100.095 37.1683L103.775 39.293ZM92.8332 66.6582L122.003 49.817L111.048 43.4924L81.8786 60.3336L92.8332 66.6582Z" fill="white"/>
<path d="M37.2446 55.2166L37.4088 55.3151C37.6716 55.1509 37.8687 54.9538 38.1643 54.7896L89.3706 25.2285C93.115 23.0607 98.8302 22.8308 102.082 24.703L154.963 55.2494C157.952 53.1144 158.117 50.1912 155.128 48.4504L102.082 17.8382C98.8302 15.966 93.1479 16.1959 89.3706 18.3638L38.1643 47.9248C34.4199 50.0926 33.9929 53.3772 37.2446 55.2494V55.2166Z" fill="#165C23"/>
<path d="M182.898 53.5752L106.578 97.6445C100.966 100.874 92.4915 101.241 87.6585 98.4233L8.61325 52.7736C7.53672 52.1551 6.73505 51.4222 6.18533 50.6205C4.51326 53.3004 5.26912 56.2093 8.61325 58.1333L87.6585 103.783C92.5144 106.577 100.989 106.234 106.578 103.004L182.898 58.935C187.25 56.4155 188.578 52.911 186.677 50.1624C185.921 51.3763 184.661 52.5674 182.898 53.5752Z" fill="white"/>
<path d="M158.436 87.566C158.436 89.6046 157.016 92.0783 155.252 93.0862C153.488 94.094 152.068 93.2694 152.068 91.2537C152.068 89.2381 153.488 86.7414 155.252 85.7336C157.016 84.7258 158.436 85.5504 158.436 87.566Z" fill="#F6FFED"/>
<path d="M168.698 81.6339C168.698 83.6725 167.278 86.1461 165.514 87.154C163.75 88.1618 162.33 87.3372 162.33 85.3216C162.33 83.3059 163.75 80.8093 165.514 79.8015C167.278 78.7936 168.698 79.6183 168.698 81.6339Z" fill="#F6FFED"/>
<path d="M178.981 75.7012C178.981 77.7398 177.561 80.2135 175.797 81.2214C174.033 82.2292 172.613 81.4046 172.613 79.389C172.613 77.3733 174.033 74.8767 175.797 73.8689C177.561 72.861 178.981 73.6856 178.981 75.7012Z" fill="#F6FFED"/>
</svg>
