<svg width="192" height="187" viewBox="0 0 192 187" fill="none" xmlns="http://www.w3.org/2000/svg">
<path d="M86.9754 184.34L7.93014 138.69C3.07427 135.895 3.6927 130.994 9.28153 127.764L85.6011 83.6949C91.2128 80.4652 99.6877 80.0988 104.521 82.9161L183.566 128.566C188.422 131.36 187.803 136.262 182.214 139.491L105.895 183.561C100.283 186.79 91.8083 187.157 86.9754 184.34Z" fill="#CDE6D0"/>
<g style="mix-blend-mode:soft-light">
<path d="M95.2448 165.763C91.3738 165.763 87.6632 164.939 84.7314 163.244L5.68614 117.594C2.18167 115.579 0.166016 112.418 0.166016 108.959C0.166016 105.088 2.66266 101.423 7.03752 98.8808L83.357 54.8115C90.4118 50.7344 100.49 50.3908 106.766 54.0327L185.811 99.6824C189.316 101.698 191.331 104.859 191.331 108.318C191.331 112.189 188.835 115.876 184.46 118.396L108.14 162.465C104.361 164.664 99.6884 165.763 95.2219 165.763H95.2448ZM89.2208 155.479C92.7023 157.495 99.4593 157.128 103.651 154.7L179.97 110.631C181.894 109.532 182.353 108.524 182.353 108.341C182.33 108.295 182.078 107.928 181.322 107.493L102.277 61.8434C98.7951 59.8277 92.061 60.1942 87.8465 62.6221L11.5269 106.691C9.60287 107.791 9.14478 108.799 9.14478 108.982C9.16769 109.028 9.41963 109.417 10.1755 109.829L89.2208 155.479Z" fill="white"/>
</g>
<path d="M186.842 80.3505V53.0707H125.685L104.544 40.8394C99.6879 38.045 91.2131 38.3886 85.6242 41.6182L65.903 53.002H4.67789V81.0148C4.54046 82.9159 5.59409 84.7483 7.9304 86.0768L86.9756 131.727C91.8315 134.521 100.306 134.177 105.895 130.948L182.215 86.8785C185.444 85.0232 187.002 82.5952 186.819 80.3505H186.842Z" fill="#95D99F"/>
<path d="M95.7712 38.9614C92.2209 39.053 88.5332 39.9464 85.6242 41.6184L65.903 53.0022H4.67789V81.015C4.54046 82.9161 5.59409 84.7485 7.9304 86.077L86.9756 131.727C89.3119 133.078 92.4729 133.674 95.7712 133.605V38.9614Z" fill="#95D99F"/>
<path d="M11.5952 52.9795H4.67789V81.0381C4.54046 82.9393 5.59409 84.7716 7.9304 86.1001L11.6181 88.2303V52.9795H11.5952Z" fill="#BEE1C3"/>
<path d="M88.1895 132.345C92.3811 134.132 98.428 134.04 103.33 132.162V100.301H88.1895V132.322V132.345Z" fill="#BEE1C3"/>
<path d="M86.9754 103.806L7.93014 58.1559C3.07427 55.3615 3.6927 50.4598 9.28153 47.2302L85.6011 3.16092C91.2128 -0.068687 99.6877 -0.435159 104.521 2.38216L183.566 48.0319C188.422 50.8263 187.803 55.7279 182.214 58.9575L105.895 103.027C100.283 106.256 91.8083 106.623 86.9754 103.806Z" fill="#C1F1C7"/>
<path d="M89.7682 85.8061L36.7225 55.194C33.4707 53.3218 33.8649 50.0372 37.6421 47.8694L88.8485 18.3083C92.5929 16.1405 98.3081 15.9106 101.56 17.7828L154.605 48.395C157.857 50.2672 157.463 53.5517 153.686 55.7195L102.479 85.2805C98.735 87.4484 93.0199 87.6783 89.7682 85.8061Z" fill="#268334"/>
<path fill-rule="evenodd" clip-rule="evenodd" d="M117.038 61.0293C117.584 60.7143 117.98 60.2811 118.225 59.7299C118.471 59.1786 118.375 58.777 117.939 58.525C118.375 58.777 119.084 58.8242 120.067 58.6667C121.049 58.5092 121.785 58.2887 122.276 58.0052L126.696 55.4537L123.258 53.4691L119.739 55.5009C119.248 55.7844 118.662 55.9183 117.98 55.9025C117.298 55.8868 116.711 55.7372 116.22 55.4537L112.783 53.4691L121.458 48.4606L103.944 38.3489L95.2688 43.3575L91.8315 41.3729C91.3404 41.0894 91.0813 40.7508 91.054 40.3571C91.0267 39.9633 91.2586 39.6247 91.7496 39.3412L95.2688 37.3094L91.8315 35.3248L87.4121 37.8764C86.921 38.1599 86.5391 38.5851 86.2663 39.1522C85.9935 39.7192 86.0753 40.1287 86.5118 40.3807C86.0753 40.1287 85.3797 40.0735 84.4249 40.2153C83.4701 40.3571 82.7199 40.5854 82.1743 40.9004L77.8367 43.4047L81.274 45.3893L84.7932 43.3575C85.2842 43.074 85.8707 42.9401 86.5527 42.9558C87.2347 42.9716 87.8213 43.1212 88.3123 43.4047L112.701 57.4854C113.192 57.769 113.451 58.1076 113.478 58.5013C113.506 58.8951 113.274 59.2337 112.783 59.5172L109.264 61.549L112.701 63.5335L117.038 61.0293ZM105.74 57.5325L102.22 55.5008L86.507 64.5729L76.0313 58.5248L91.7448 49.4527L88.2256 47.4209L69.0749 58.4776L86.5888 68.5892L105.74 57.5325ZM109.263 51.4388L114.501 48.4148L104.026 42.3667L98.7879 45.3907L109.263 51.4388ZM97.8403 55.0084C98.5223 54.6146 98.8906 54.15 98.9452 53.6145L95.0168 51.3465C94.0347 51.3465 93.2027 51.5748 92.5207 52.0316C91.8387 52.4883 91.5113 53.0081 91.5386 53.5909C91.5659 54.1736 91.9751 54.6619 92.7662 55.0556C93.5573 55.4494 94.4303 55.6384 95.3851 55.6226C96.3399 55.6069 97.1583 55.4021 97.8403 55.0084ZM90.2316 58.5038C90.2589 59.0866 89.9043 59.5906 89.1677 60.0159C88.4311 60.4411 87.5445 60.6537 86.5079 60.6537C85.4712 60.6537 84.5983 60.449 83.889 60.0395C83.1797 59.63 82.825 59.126 82.825 58.5275C82.825 57.929 83.1933 57.4171 83.9299 56.9918C84.6665 56.5666 85.5394 56.3618 86.5488 56.3776C87.5582 56.3933 88.4175 56.6059 89.1268 57.0154C89.8361 57.4249 90.2043 57.9211 90.2316 58.5038Z" fill="white"/>
<path d="M36.5845 55.2166L36.7487 55.3151C37.0114 55.1509 37.2085 54.9538 37.5041 54.7896L88.7105 25.2285C92.4549 23.0607 98.17 22.8308 101.422 24.703L154.303 55.2494C157.292 53.1144 157.456 50.1912 154.467 48.4504L101.422 17.8382C98.17 15.966 92.4877 16.1959 88.7105 18.3638L37.5041 47.9248C33.7597 50.0926 33.3327 53.3772 36.5845 55.2494V55.2166Z" fill="#165C23"/>
<path d="M182.237 53.5752L105.918 97.6445C100.306 100.874 91.8313 101.241 86.9984 98.4233L7.9531 52.7736C6.87656 52.1551 6.07489 51.4222 5.52517 50.6205C3.8531 53.3004 4.60896 56.2093 7.9531 58.1333L86.9984 103.783C91.8542 106.577 100.329 106.234 105.918 103.004L182.237 58.935C186.589 56.4155 187.918 52.911 186.017 50.1624C185.261 51.3763 184.001 52.5674 182.237 53.5752Z" fill="white"/>
<path d="M157.776 87.566C157.776 89.6046 156.356 92.0783 154.592 93.0862C152.828 94.094 151.408 93.2694 151.408 91.2537C151.408 89.2381 152.828 86.7414 154.592 85.7336C156.356 84.7258 157.776 85.5504 157.776 87.566Z" fill="#F6FFED"/>
<path d="M168.038 81.6339C168.038 83.6725 166.617 86.1461 164.854 87.154C163.09 88.1618 161.67 87.3372 161.67 85.3216C161.67 83.3059 163.09 80.8093 164.854 79.8015C166.617 78.7936 168.038 79.6183 168.038 81.6339Z" fill="#F6FFED"/>
<path d="M178.321 75.7012C178.321 77.7398 176.901 80.2135 175.137 81.2214C173.373 82.2292 171.953 81.4046 171.953 79.389C171.953 77.3733 173.373 74.8767 175.137 73.8689C176.901 72.861 178.321 73.6856 178.321 75.7012Z" fill="#F6FFED"/>
</svg>
