<svg width="192" height="187" viewBox="0 0 192 187" fill="none" xmlns="http://www.w3.org/2000/svg">
<path d="M87.3055 184.34L8.26022 138.69C3.40435 135.895 4.02278 130.994 9.6116 127.764L85.9312 83.6949C91.5429 80.4652 100.018 80.0988 104.851 82.9161L183.896 128.566C188.752 131.36 188.133 136.262 182.545 139.491L106.225 183.561C100.613 186.79 92.1384 187.157 87.3055 184.34Z" fill="#CDE6D0"/>
<g style="mix-blend-mode:soft-light">
<path d="M95.5748 165.763C91.7039 165.763 87.9933 164.939 85.0614 163.244L6.01621 117.594C2.51174 115.579 0.496094 112.418 0.496094 108.959C0.496094 105.088 2.99274 101.423 7.3676 98.8808L83.6871 54.8115C90.7419 50.7344 100.82 50.3908 107.096 54.0327L186.141 99.6824C189.646 101.698 191.661 104.859 191.661 108.318C191.661 112.189 189.165 115.876 184.79 118.396L108.47 162.465C104.691 164.664 100.018 165.763 95.5519 165.763H95.5748ZM89.5508 155.479C93.0324 157.495 99.7894 157.128 103.981 154.7L180.301 110.631C182.225 109.532 182.683 108.524 182.683 108.341C182.66 108.295 182.408 107.928 181.652 107.493L102.607 61.8434C99.1251 59.8277 92.3911 60.1942 88.1765 62.6221L11.857 106.691C9.93294 107.791 9.47486 108.799 9.47486 108.982C9.49776 109.028 9.74971 109.417 10.5056 109.829L89.5508 155.479Z" fill="white"/>
</g>
<path d="M187.172 80.3505V53.0707H126.015L104.874 40.8394C100.018 38.045 91.5431 38.3886 85.9543 41.6182L66.2331 53.002H5.00797V81.0148C4.87054 82.9159 5.92417 84.7483 8.26048 86.0768L87.3057 131.727C92.1616 134.521 100.636 134.177 106.225 130.948L182.545 86.8785C185.774 85.0232 187.332 82.5952 187.149 80.3505H187.172Z" fill="#95D99F"/>
<path d="M96.1013 38.9614C92.551 39.053 88.8633 39.9464 85.9543 41.6184L66.2331 53.0022H5.00797V81.015C4.87054 82.9161 5.92417 84.7485 8.26048 86.077L87.3057 131.727C89.642 133.078 92.8029 133.674 96.1013 133.605V38.9614Z" fill="#95D99F"/>
<path d="M11.9253 52.9795H5.00797V81.0381C4.87054 82.9393 5.92417 84.7716 8.26048 86.1001L11.9482 88.2303V52.9795H11.9253Z" fill="#BEE1C3"/>
<path d="M88.5195 132.345C92.7112 134.132 98.7581 134.04 103.66 132.162V100.301H88.5195V132.322V132.345Z" fill="#BEE1C3"/>
<path d="M87.3055 103.806L8.26022 58.1559C3.40435 55.3615 4.02278 50.4598 9.6116 47.2302L85.9312 3.16092C91.5429 -0.068687 100.018 -0.435159 104.851 2.38216L183.896 48.0319C188.752 50.8263 188.133 55.7279 182.545 58.9575L106.225 103.027C100.613 106.256 92.1384 106.623 87.3055 103.806Z" fill="#C1F1C7"/>
<path d="M90.0983 85.8061L37.0525 55.194C33.8008 53.3218 34.195 50.0372 37.9722 47.8694L89.1786 18.3083C92.923 16.1405 98.6381 15.9106 101.89 17.7828L154.936 48.395C158.187 50.2672 157.793 53.5517 154.016 55.7195L102.81 85.2805C99.0651 87.4484 93.35 87.6783 90.0983 85.8061Z" fill="#268334"/>
<path d="M36.9145 55.2166L37.0788 55.3151C37.3415 55.1509 37.5386 54.9538 37.8342 54.7896L89.0406 25.2285C92.785 23.0607 98.5001 22.8308 101.752 24.703L154.633 55.2494C157.622 53.1144 157.786 50.1912 154.798 48.4504L101.752 17.8382C98.5001 15.966 92.8178 16.1959 89.0406 18.3638L37.8342 47.9248C34.0898 50.0926 33.6628 53.3772 36.9145 55.2494V55.2166Z" fill="#165C23"/>
<path d="M110.559 60.6854C102.647 65.253 88.2886 65.2803 80.3771 60.7126C72.4657 56.145 72.513 47.855 80.4244 43.2874C88.3358 38.7197 102.647 38.7197 110.559 43.2874C118.47 47.855 118.494 56.1041 110.559 60.6854ZM78.2517 42.033C68.7108 47.5414 68.7108 56.4586 78.2517 61.967C87.7926 67.4755 103.238 67.4755 112.779 61.967C122.319 56.4586 122.319 47.5414 112.779 42.033C103.238 36.5245 87.7926 36.5245 78.2517 42.033Z" fill="white"/>
<path d="M101.655 54.5088L104.773 49.4367L106.733 57.4403L101.632 54.4952L101.655 54.5088ZM99.8841 55.5314L104.985 58.4765L91.1225 57.3448L99.9077 55.5451L99.8841 55.5314ZM97.8295 54.3452L86.7535 56.6222L84.2738 46.5188L97.8295 54.3452ZM86.045 45.4962L103.545 46.9279L99.6007 53.3226L86.045 45.4962ZM105.434 45.5917L82.5971 43.7237C82.5971 43.7237 82.2192 43.7237 82.0303 43.7509C81.8414 43.7782 81.676 43.8464 81.558 43.9146C81.4399 43.9827 81.3218 44.0782 81.2746 44.1873C81.2273 44.2963 81.1801 44.4054 81.2273 44.5145L84.4628 57.6993C84.51 57.863 84.6517 58.0266 84.8406 58.1357C85.0295 58.2447 85.3129 58.3265 85.5963 58.3538L108.433 60.2218C108.433 60.2218 108.811 60.2218 109 60.1945C109.189 60.1672 109.354 60.0991 109.472 60.0309C109.59 59.9627 109.708 59.8673 109.756 59.7582C109.803 59.6491 109.85 59.54 109.803 59.431L106.567 46.2461C106.52 46.0825 106.379 45.9189 106.19 45.8098C106.001 45.7007 105.717 45.6189 105.434 45.5917Z" fill="white"/>
<path d="M182.568 53.5752L106.248 97.6445C100.636 100.874 92.1614 101.241 87.3284 98.4233L8.28318 52.7736C7.20664 52.1551 6.40497 51.4222 5.85525 50.6205C4.18318 53.3004 4.93904 56.2093 8.28318 58.1333L87.3284 103.783C92.1843 106.577 100.659 106.234 106.248 103.004L182.568 58.935C186.92 56.4155 188.248 52.911 186.347 50.1624C185.591 51.3763 184.331 52.5674 182.568 53.5752Z" fill="white"/>
<path d="M158.106 87.566C158.106 89.6046 156.686 92.0783 154.922 93.0862C153.158 94.094 151.738 93.2694 151.738 91.2537C151.738 89.2381 153.158 86.7414 154.922 85.7336C156.686 84.7258 158.106 85.5504 158.106 87.566Z" fill="#F6FFED"/>
<path d="M168.368 81.6339C168.368 83.6725 166.947 86.1461 165.184 87.154C163.42 88.1618 162 87.3372 162 85.3216C162 83.3059 163.42 80.8093 165.184 79.8015C166.947 78.7936 168.368 79.6183 168.368 81.6339Z" fill="#F6FFED"/>
<path d="M178.651 75.7012C178.651 77.7398 177.231 80.2135 175.467 81.2214C173.703 82.2292 172.283 81.4046 172.283 79.389C172.283 77.3733 173.703 74.8767 175.467 73.8689C177.231 72.861 178.651 73.6856 178.651 75.7012Z" fill="#F6FFED"/>
</svg>
