<svg width="192" height="187" viewBox="0 0 192 187" fill="none" xmlns="http://www.w3.org/2000/svg">
<path d="M87.4715 184.34L8.42623 138.69C3.57037 135.895 4.18879 130.994 9.77762 127.764L86.0972 83.6949C91.7089 80.4652 100.184 80.0988 105.017 82.9161L184.062 128.566C188.918 131.36 188.299 136.262 182.711 139.491L106.391 183.561C100.779 186.79 92.3044 187.157 87.4715 184.34Z" fill="#CDE6D0"/>
<g style="mix-blend-mode:soft-light">
<path d="M95.7409 165.763C91.8699 165.763 88.1593 164.939 85.2275 163.244L6.18223 117.594C2.67776 115.579 0.662109 112.418 0.662109 108.959C0.662109 105.088 3.15876 101.423 7.53362 98.8808L83.8531 54.8115C90.9079 50.7344 100.986 50.3908 107.262 54.0327L186.307 99.6824C189.812 101.698 191.827 104.859 191.827 108.318C191.827 112.189 189.331 115.876 184.956 118.396L108.636 162.465C104.857 164.664 100.184 165.763 95.718 165.763H95.7409ZM89.7169 155.479C93.1984 157.495 99.9554 157.128 104.147 154.7L180.467 110.631C182.391 109.532 182.849 108.524 182.849 108.341C182.826 108.295 182.574 107.928 181.818 107.493L102.773 61.8434C99.2912 59.8277 92.5571 60.1942 88.3425 62.6221L12.023 106.691C10.099 107.791 9.64087 108.799 9.64087 108.982C9.66378 109.028 9.91573 109.417 10.6716 109.829L89.7169 155.479Z" fill="white"/>
</g>
<path d="M187.338 80.3505V53.0707H126.181L105.04 40.8394C100.184 38.045 91.7092 38.3886 86.1203 41.6182L66.3991 53.002H5.17398V81.0148C5.03655 82.9159 6.09018 84.7483 8.42649 86.0768L87.4717 131.727C92.3276 134.521 100.802 134.177 106.391 130.948L182.711 86.8785C185.94 85.0232 187.498 82.5952 187.315 80.3505H187.338Z" fill="#95D99F"/>
<path d="M96.2673 38.9614C92.717 39.053 89.0293 39.9464 86.1203 41.6184L66.3991 53.0022H5.17398V81.015C5.03655 82.9161 6.09018 84.7485 8.42649 86.077L87.4717 131.727C89.808 133.078 92.969 133.674 96.2673 133.605V38.9614Z" fill="#95D99F"/>
<path d="M12.0913 52.9795H5.17398V81.0381C5.03655 82.9393 6.09018 84.7716 8.42649 86.1001L12.1142 88.2303V52.9795H12.0913Z" fill="#BEE1C3"/>
<path d="M88.6855 132.345C92.8772 134.132 98.9241 134.04 103.826 132.162V100.301H88.6855V132.322V132.345Z" fill="#BEE1C3"/>
<path d="M87.4715 103.806L8.42623 58.1559C3.57037 55.3615 4.18879 50.4598 9.77762 47.2302L86.0972 3.16092C91.7089 -0.068687 100.184 -0.435159 105.017 2.38216L184.062 48.0319C188.918 50.8263 188.299 55.7279 182.711 58.9575L106.391 103.027C100.779 106.256 92.3044 106.623 87.4715 103.806Z" fill="#C1F1C7"/>
<path d="M90.2643 85.8061L37.2186 55.194C33.9668 53.3218 34.361 50.0372 38.1382 47.8694L89.3446 18.3083C93.089 16.1405 98.8042 15.9106 102.056 17.7828L155.102 48.395C158.353 50.2672 157.959 53.5517 154.182 55.7195L102.976 85.2805C99.2311 87.4484 93.516 87.6783 90.2643 85.8061Z" fill="#268334"/>
<path d="M103.589 43.2154L103.589 46.0432H88.2399L88.2399 43.2154C88.2399 42.0287 89.027 40.9178 90.4701 40.0846C91.9132 39.2514 93.8374 38.797 95.8928 38.797C97.9481 38.797 99.8723 39.2514 101.315 40.0846C102.759 40.9178 103.546 42.0287 103.546 43.2154L103.589 43.2154ZM97.6639 32.7501L94.1654 32.7501C94.1654 32.7501 93.9249 32.7879 93.8374 32.8384C93.7499 32.8889 93.7062 32.9647 93.6844 33.0278L93.6844 36.6383C91.4103 36.8907 89.3113 37.5219 87.6714 38.494C85.5723 39.7059 84.2822 41.3849 84.2603 43.2406L84.2603 48.063C84.2603 48.063 84.3259 48.2019 84.4134 48.2524C84.5009 48.3029 84.6321 48.3281 84.7414 48.3407L107.044 48.3407C107.044 48.3407 107.285 48.3029 107.372 48.2524C107.46 48.2019 107.503 48.1261 107.525 48.063L107.525 43.2406C107.503 39.971 103.48 37.2442 98.123 36.6509L98.123 33.0404C98.123 32.8889 97.9044 32.7627 97.6639 32.7753L97.6639 32.7501ZM103.589 58.7429C103.589 59.3236 103.393 59.8917 103.021 60.4345C102.627 60.9647 102.081 61.4571 101.359 61.8737C99.916 62.7069 97.9918 63.1613 95.9365 63.1613C93.8811 63.1613 91.957 62.7069 90.5139 61.8737C89.0707 61.0405 88.2836 59.9296 88.2836 58.7429L88.2836 55.9151L103.633 55.9151L103.633 58.7429L103.589 58.7429ZM100.091 50.2091C100.091 50.2091 99.8504 50.247 99.7629 50.2974C99.6755 50.3479 99.6317 50.4237 99.6099 50.4868L99.6099 53.6428L92.1756 53.6428L92.1756 50.4868C92.1756 50.3353 91.9788 50.2217 91.7165 50.2217L88.7428 50.2217C88.7428 50.2217 88.5022 50.2596 88.4148 50.3101C88.3273 50.3606 88.2836 50.4363 88.2617 50.4994L88.2617 53.6554H84.7195C84.7195 53.6554 84.5883 53.6554 84.5446 53.6807C84.5009 53.7059 84.4353 53.7186 84.3915 53.7438C84.3041 53.7943 84.2603 53.87 84.2385 53.9332L84.2385 58.7555C84.2385 60.5229 85.4411 62.2271 87.6058 63.4769C89.2238 64.4111 91.301 65.0802 93.6406 65.3453L93.6406 68.9557C93.6406 68.9557 93.7062 69.0946 93.7937 69.1451C93.8811 69.1956 94.0123 69.2208 94.1217 69.2335L97.6201 69.2335C97.6201 69.2335 97.8606 69.1956 97.9481 69.1451C98.0356 69.0946 98.0793 69.0189 98.1012 68.9557L98.1012 65.3453C100.419 65.0928 102.496 64.4237 104.114 63.4895C106.213 62.2776 107.503 60.5986 107.525 58.7429L107.525 53.9205C107.525 53.7691 107.328 53.6554 107.066 53.6554L103.524 53.6554L103.524 50.4994C103.524 50.3479 103.327 50.2343 103.065 50.2343L100.069 50.247L100.091 50.2091Z" fill="white"/>
<path d="M37.0805 55.2166L37.2448 55.3151C37.5075 55.1509 37.7046 54.9538 38.0002 54.7896L89.2066 25.2285C92.951 23.0607 98.6661 22.8308 101.918 24.703L154.799 55.2494C157.788 53.1144 157.953 50.1912 154.964 48.4504L101.918 17.8382C98.6661 15.966 92.9838 16.1959 89.2066 18.3638L38.0002 47.9248C34.2558 50.0926 33.8288 53.3772 37.0805 55.2494V55.2166Z" fill="#165C23"/>
<path d="M182.734 53.5752L106.414 97.6445C100.802 100.874 92.3274 101.241 87.4945 98.4233L8.44919 52.7736C7.37266 52.1551 6.57099 51.4222 6.02127 50.6205C4.3492 53.3004 5.10506 56.2093 8.44919 58.1333L87.4945 103.783C92.3503 106.577 100.825 106.234 106.414 103.004L182.734 58.935C187.086 56.4155 188.414 52.911 186.513 50.1624C185.757 51.3763 184.497 52.5674 182.734 53.5752Z" fill="white"/>
<path d="M158.272 87.566C158.272 89.6046 156.852 92.0783 155.088 93.0862C153.324 94.094 151.904 93.2694 151.904 91.2537C151.904 89.2381 153.324 86.7414 155.088 85.7336C156.852 84.7258 158.272 85.5504 158.272 87.566Z" fill="#F6FFED"/>
<path d="M168.534 81.6339C168.534 83.6725 167.114 86.1461 165.35 87.154C163.586 88.1618 162.166 87.3372 162.166 85.3216C162.166 83.3059 163.586 80.8093 165.35 79.8015C167.114 78.7936 168.534 79.6183 168.534 81.6339Z" fill="#F6FFED"/>
<path d="M178.817 75.7012C178.817 77.7398 177.397 80.2135 175.633 81.2214C173.869 82.2292 172.449 81.4046 172.449 79.389C172.449 77.3733 173.869 74.8767 175.633 73.8689C177.397 72.861 178.817 73.6856 178.817 75.7012Z" fill="#F6FFED"/>
</svg>
