<svg width="534" height="344" viewBox="0 0 534 344" fill="none" xmlns="http://www.w3.org/2000/svg">
<path fill-rule="evenodd" clip-rule="evenodd" d="M56.6859 167.513C56.1232 165.738 54.4737 164.533 52.6106 164.533H46.5664C44.7033 164.533 43.0538 165.738 42.4911 167.513L40.2613 174.545C39.8412 175.87 38.7951 176.891 37.4729 177.326C35.6389 177.931 33.8656 178.67 32.164 179.53C30.9188 180.16 29.4527 180.179 28.2137 179.537L21.6529 176.137C19.9986 175.279 17.9788 175.591 16.6608 176.907L12.3876 181.177C11.0696 182.493 10.7575 184.511 11.616 186.164L15.0296 192.737C15.6713 193.973 15.6531 195.435 15.0253 196.678C14.1712 198.37 13.4378 200.133 12.8368 201.956C12.4015 203.278 11.3798 204.325 10.0515 204.745L2.98382 206.981C1.20749 207.544 0 209.191 0 211.053V217.091C0 218.953 1.20749 220.6 2.98382 221.163L10.0813 223.409C11.4065 223.828 12.427 224.871 12.8641 226.189C13.4645 227.997 14.1942 229.745 15.043 231.423C15.6725 232.667 15.6925 234.131 15.0496 235.368L11.616 241.981C10.7575 243.633 11.0696 245.651 12.3876 246.967L16.6608 251.237C17.9788 252.553 19.9986 252.865 21.6529 252.008L28.2901 248.567C29.5274 247.926 30.9899 247.945 32.235 248.571C33.9063 249.412 35.6474 250.135 37.4468 250.73C38.7678 251.166 39.8132 252.187 40.2339 253.512L42.4911 260.631C43.0538 262.406 44.7033 263.612 46.5664 263.612H52.6106C54.4737 263.612 56.1232 262.406 56.6859 260.631L58.9431 253.512C59.3638 252.187 60.4092 251.166 61.7302 250.73C63.5302 250.135 65.2707 249.412 66.9426 248.571C68.1872 247.945 69.6502 247.927 70.8869 248.567L77.5241 252.008C79.1784 252.865 81.1982 252.553 82.5162 251.237L86.7894 246.967C88.1074 245.651 88.4195 243.633 87.5611 241.981L84.1274 235.368C83.4845 234.131 83.5045 232.667 84.1341 231.423C84.9828 229.745 85.7125 227.997 86.3123 226.189C86.75 224.871 87.7705 223.828 89.0958 223.409L96.1932 221.163C97.9695 220.6 99.177 218.953 99.177 217.091V211.053C99.177 209.191 97.9695 207.544 96.1932 206.981L89.1261 204.745C87.7972 204.325 86.7755 203.278 86.3402 201.955C85.7392 200.132 85.0058 198.369 84.1523 196.676C83.5251 195.433 83.5063 193.971 84.148 192.736L87.5611 186.164C88.4195 184.511 88.1074 182.493 86.7894 181.177L82.5162 176.907C81.1982 175.591 79.1784 175.279 77.5241 176.137L70.9652 179.536C69.7267 180.178 68.2612 180.159 67.0161 179.529C65.3138 178.669 63.5393 177.931 61.7047 177.326C60.3819 176.891 59.3359 175.87 58.9151 174.545L56.6859 167.513ZM26.3123 215.083C26.3123 201.682 37.1866 190.819 50.6005 190.819C64.0145 190.819 74.8888 201.682 74.8888 215.083C74.8888 228.484 64.0145 239.347 50.6005 239.347C37.1866 239.347 26.3123 228.484 26.3123 215.083Z" fill="#C69FFF"/>
<path fill-rule="evenodd" clip-rule="evenodd" d="M102.526 249.325C102.223 248.37 101.336 247.722 100.334 247.722H97.0841C96.0822 247.722 95.1953 248.37 94.8927 249.325L93.6936 253.106C93.4677 253.818 92.9052 254.367 92.1942 254.601C91.208 254.927 90.2544 255.324 89.3394 255.787C88.6698 256.125 87.8815 256.136 87.2152 255.79L83.6872 253.962C82.7976 253.5 81.7115 253.668 81.0028 254.376L78.7049 256.672C77.9962 257.38 77.8284 258.465 78.29 259.354L80.1256 262.888C80.4707 263.553 80.4609 264.339 80.1233 265.008C79.664 265.917 79.2697 266.865 78.9465 267.846C78.7124 268.557 78.163 269.119 77.4487 269.345L73.6482 270.548C72.693 270.851 72.0437 271.736 72.0437 272.738V275.984C72.0437 276.985 72.693 277.871 73.6482 278.174L77.4647 279.381C78.1774 279.607 78.7261 280.168 78.9612 280.877C79.284 281.849 79.6764 282.789 80.1328 283.691C80.4713 284.36 80.4821 285.147 80.1364 285.812L78.29 289.368C77.8284 290.257 77.9962 291.342 78.7049 292.05L81.0028 294.346C81.7115 295.053 82.7976 295.221 83.6872 294.76L87.2563 292.91C87.9216 292.565 88.708 292.575 89.3776 292.912C90.2763 293.364 91.2126 293.753 92.1802 294.073C92.8905 294.308 93.4527 294.856 93.6789 295.569L94.8927 299.397C95.1953 300.352 96.0822 301 97.0841 301H100.334C101.336 301 102.223 300.352 102.526 299.397L103.739 295.569C103.966 294.856 104.528 294.308 105.238 294.073C106.206 293.753 107.142 293.364 108.041 292.912C108.71 292.576 109.497 292.566 110.162 292.91L113.731 294.76C114.621 295.221 115.707 295.053 116.416 294.346L118.713 292.05C119.422 291.342 119.59 290.257 119.128 289.368L117.282 285.812C116.936 285.147 116.947 284.36 117.286 283.691C117.742 282.789 118.134 281.849 118.457 280.877C118.692 280.168 119.241 279.607 119.954 279.381L123.77 278.174C124.725 277.871 125.375 276.985 125.375 275.984V272.738C125.375 271.736 124.725 270.851 123.77 270.548L119.97 269.345C119.255 269.119 118.706 268.557 118.472 267.845C118.149 266.865 117.754 265.917 117.295 265.006C116.958 264.338 116.948 263.552 117.293 262.887L119.128 259.353C119.59 258.465 119.422 257.38 118.713 256.672L116.416 254.376C115.707 253.668 114.621 253.5 113.731 253.962L110.204 255.79C109.538 256.135 108.75 256.124 108.081 255.786C107.165 255.323 106.211 254.927 105.225 254.601C104.513 254.367 103.951 253.818 103.724 253.105L102.526 249.325ZM86.0782 275.296C86.0782 267.81 92.1522 261.742 99.6448 261.742C107.137 261.742 113.211 267.81 113.211 275.296C113.211 282.781 107.137 288.849 99.6448 288.849C92.1522 288.849 86.0782 282.781 86.0782 275.296Z" fill="#C69FFF"/>
<g opacity="0.377069">
<path d="M193.486 89.3385L178.402 89.398L178 48.5733L193.082 48.5146L193.486 89.3385Z" fill="#D5E4FF"/>
<path d="M222.571 89.1845L207.489 89.2512L207.014 35.1032L222.098 35.0364L222.571 89.1845Z" fill="#D5E4FF"/>
<path d="M249.505 89.0432L234.421 89.1148L233.858 18.9748L248.939 18.9021L249.505 89.0432Z" fill="#D5E4FF"/>
<path d="M276.686 89.0306L261.602 89.1148L261.039 6.54492L276.12 6.45935L276.686 89.0306Z" fill="#D5E4FF"/>
</g>
<mask id="mask0" mask-type="alpha" maskUnits="userSpaceOnUse" x="178" y="0" width="211" height="91">
<path fill-rule="evenodd" clip-rule="evenodd" d="M178 0H389V90.5513H178V0Z" fill="white"/>
</mask>
<g mask="url(#mask0)">
<path d="M168.868 84.8398L237.776 44.3064L253.428 64.4488L349.575 14.1253L343.699 6.02118L379.826 3.77295L362.318 29L355.58 20.7206L250.18 75.6392L234.784 56.2487L169.951 94.5379C169.951 94.5379 168.572 88.5698 168.868 84.8398L304.932 109.416" fill="#D5E4FF"/>
</g>
<path d="M391.473 209.245C390.721 209.245 390.109 209.854 390.109 210.605C390.109 211.355 390.721 211.962 391.473 211.962C392.223 211.962 392.838 211.355 392.838 210.605C392.838 209.854 392.223 209.245 391.473 209.245" fill="#00FAE3"/>
<path d="M393.042 330.367H108.84V155.405C108.84 150.487 112.841 146.5 117.776 146.5H384.106C389.041 146.5 393.042 150.487 393.042 155.405V330.367Z" fill="#78A8FF"/>
<path d="M120.133 307.852H381.122V160.884H120.133V307.852Z" fill="white"/>
<path d="M120.133 307.852H381.122V160.884H120.133V307.852Z" fill="#D0E7FF"/>
<path d="M154.011 330.992H349.125V325.989H154.011V330.992Z" fill="#AAFF00"/>
<path d="M154.011 330.992H349.125V325.989H154.011V330.992Z" fill="#EBF2FF"/>
<path d="M85.6274 336.621C85.6274 336.621 88.8324 340.405 98.45 343.5H404.043C404.043 343.5 411.167 341.78 414.373 336.965L85.6274 336.621Z" fill="#3771DA"/>
<path d="M412.697 337.246H87.3043C86.0322 337.246 85 336.211 85 334.936V332.051C85 330.775 86.0322 329.741 87.3043 329.741H412.697C413.969 329.741 415 330.775 415 332.051V334.936C415 336.211 413.969 337.246 412.697 337.246" fill="#4F89F2"/>
<path d="M253.137 152.129C253.137 150.747 252.013 149.627 250.628 149.627C249.241 149.627 248.118 150.747 248.118 152.129C248.118 153.51 249.241 154.63 250.628 154.63C252.013 154.63 253.137 153.51 253.137 152.129" fill="#1A2E35"/>
<path d="M217.388 150.252H155.253C154.567 150.252 154.011 149.693 154.011 149.002C154.011 148.31 154.567 147.751 155.253 147.751H217.388C218.074 147.751 218.631 148.31 218.631 149.002C218.631 149.693 218.074 150.252 217.388 150.252Z" fill="#90B7DD"/>
<path d="M344.746 150.252H282.612C281.925 150.252 281.369 149.693 281.369 149.002C281.369 148.31 281.925 147.751 282.612 147.751H344.746C345.433 147.751 345.989 148.31 345.989 149.002C345.989 149.693 345.433 150.252 344.746 150.252Z" fill="#90B7DD"/>
<rect x="169" y="160.5" width="212" height="19" fill="#C3E0FE"/>
<rect x="119" y="159.5" width="51" height="148" fill="#C3E0FE"/>
<ellipse cx="130.875" cy="167.5" rx="1.875" ry="2" fill="#DDEEFF"/>
<ellipse cx="139" cy="167.5" rx="1.875" ry="2" fill="#DDEEFF"/>
<ellipse cx="147.125" cy="167.5" rx="1.875" ry="2" fill="#DDEEFF"/>
<rect opacity="0.33896" x="349" y="214.5" width="20" height="20" rx="8" fill="#AED7FF"/>
<rect opacity="0.33896" x="349" y="267.5" width="20" height="20" rx="8" fill="#AED7FF"/>
<rect opacity="0.33896" x="349" y="188.5" width="20" height="20" rx="8" fill="#AED7FF"/>
<rect opacity="0.33896" x="349" y="240.5" width="20" height="20" rx="8" fill="#AED7FF"/>
<rect x="125" y="134" width="250" height="155" rx="6.21" fill="black"/>
<rect x="125" y="134" width="250" height="155" rx="6.21" fill="white"/>
<circle cx="134.134" cy="147.134" r="3.13375" fill="#FF947F"/>
<circle cx="145.415" cy="147.134" r="3.13375" fill="#FFE373"/>
<circle cx="156.697" cy="147.134" r="3.13375" fill="#00B8D9"/>
<path d="M125 153H375V286C375 287.657 373.657 289 372 289H128C126.343 289 125 287.657 125 286V153V153Z" fill="white"/>
<g opacity="0.615862">
<rect x="137" y="171" width="68" height="103" rx="3" fill="#FFDCDC"/>
<rect x="216" y="171" width="68" height="103" rx="3" fill="#FFDCDC"/>
<rect x="295" y="171" width="68" height="103" rx="3" fill="#FFDCDC"/>
</g>
<path d="M514.465 148.306C513.943 135.349 503.334 125 490.285 125C479.477 125 470.33 132.096 467.206 141.892C464.974 140.935 462.517 140.402 459.936 140.402C451.02 140.402 443.58 146.724 441.821 155.141C440.488 154.797 439.099 154.594 437.659 154.594C428.459 154.594 421 162.073 421 171.298C421 180.462 428.362 187.893 437.48 187.992V188H514.198C525.135 188 534 179.113 534 168.147C534 157.271 525.278 148.449 514.465 148.306" fill="#8EF1DE"/>
<path opacity="0.235491" d="M463.643 95.8182C437.045 95.8182 416.668 88.6983 399.437 73C382.208 88.6983 361.832 95.8182 335.236 95.8182C335.236 136.7 326.207 195.262 399.436 219.046C472.671 195.263 463.643 136.7 463.643 95.8182Z" fill="#1756C6"/>
<path d="M391.882 129.891L406.996 144.965" stroke="#979797" stroke-width="1.76923" stroke-linecap="square"/>
<path d="M455.741 101.924C432.416 101.924 414.547 95.6703 399.437 81.8812C384.329 95.6703 366.461 101.924 343.138 101.924C343.138 137.834 335.221 189.274 399.437 210.165C463.658 189.274 455.741 137.834 455.741 101.924Z" fill="black"/>
<path fill-rule="evenodd" clip-rule="evenodd" d="M455.741 101.924C432.416 101.924 414.547 95.6703 399.437 81.8812C384.329 95.6703 366.461 101.924 343.138 101.924C343.138 137.834 335.221 189.274 399.437 210.165C463.658 189.274 455.741 137.834 455.741 101.924Z" fill="#1756C6"/>
<path opacity="0.189848" fill-rule="evenodd" clip-rule="evenodd" d="M445.863 109.387C426.631 109.387 411.897 104.191 399.438 92.736C386.98 104.191 372.246 109.387 353.015 109.387C353.015 139.22 346.487 181.954 399.437 199.31C452.391 181.955 445.863 139.22 445.863 109.387Z" stroke="white" stroke-width="0.884615"/>
<ellipse opacity="0.142415" cx="399.439" cy="145.948" rx="30.8759" ry="30.8454" fill="white"/>
<path d="M399.439 128.189C405.004 128.189 409.515 132.688 409.515 138.238C409.515 141.958 407.489 145.205 404.478 146.943L404.477 163.362H394.401L394.401 146.943C391.39 145.206 389.363 141.958 389.363 138.238C389.363 132.688 393.874 128.189 399.439 128.189Z" fill="white"/>
<path fill-rule="evenodd" clip-rule="evenodd" d="M240.278 170.667L175.502 170.911H305.278V247.089H175.278V170.911L207.777 145.061L236.774 121.928C238.823 120.293 241.733 120.293 243.782 121.928L272.779 145.059L305.278 170.911L240.278 170.667Z" fill="#F5B520"/>
<path d="M190.878 234.97H287.945V129.359H190.878V234.97Z" fill="#FFF1D2"/>
<path fill-rule="evenodd" clip-rule="evenodd" d="M275.932 144.941H202.889C201.999 144.941 201.277 144.166 201.277 143.208C201.277 142.252 201.999 141.478 202.887 141.478H275.932C276.823 141.478 277.542 142.252 277.542 143.21C277.542 144.164 276.823 144.941 275.932 144.941ZM275.932 158.79H202.889C201.999 158.79 201.277 158.016 201.277 157.06C201.277 156.102 201.999 155.327 202.887 155.327H275.932C276.823 155.327 277.542 156.102 277.542 157.06C277.542 158.016 276.823 158.792 275.932 158.792V158.79ZM202.889 170.909H275.932V170.911C276.823 170.911 277.542 170.135 277.542 169.179C277.542 168.221 276.823 167.447 275.932 167.447H202.887C201.999 167.447 201.277 168.221 201.277 169.179C201.277 170.135 201.999 170.909 202.889 170.909Z" fill="white"/>
<path d="M175.278 172.642V250.55H305.278V176.747L240.278 211.596L175.278 172.642Z" fill="#FFC84A"/>
<path d="M175.278 172.642V246.848C175.278 248.34 175.985 249.671 177.092 250.55L241.144 212.14L175.278 172.642" fill="#FFD678"/>
<path d="M305.054 172.642L239.412 212.075L303.464 250.55C304.571 249.671 305.278 248.336 305.278 246.842V173.092C305.278 172.909 305.19 172.75 305.054 172.642" fill="#FFD678"/>
<path d="M158.615 255.737L153.062 250.185L149.293 253.954L154.846 259.506L158.615 255.737Z" fill="#0C3989"/>
<path d="M156.104 259.257L149.542 252.695L134.48 267.758C132.668 269.57 132.668 272.508 134.48 274.32C136.292 276.132 139.23 276.131 141.042 274.32L156.104 259.257Z" fill="black"/>
<path d="M156.104 259.257L149.542 252.695L134.48 267.758C132.668 269.57 132.668 272.508 134.48 274.32C136.292 276.132 139.23 276.131 141.042 274.32L156.104 259.257Z" fill="#327BFC"/>
<ellipse opacity="0.676" rx="18.381" ry="18.123" transform="matrix(-0.707107 -0.707107 -0.707107 0.707107 169.703 239.583)" fill="#F6F6FF"/>
<path fill-rule="evenodd" clip-rule="evenodd" d="M154.643 224.377C162.901 216.119 176.318 216.149 184.611 224.442C192.904 232.735 192.933 246.152 184.676 254.409C176.42 262.665 163.001 262.637 154.709 254.344C146.416 246.051 146.387 232.634 154.643 224.377ZM182.278 251.76C189.217 244.821 189.192 233.546 182.223 226.577C175.254 219.608 163.979 219.583 157.041 226.522C150.102 233.461 150.126 244.736 157.095 251.704C164.064 258.674 175.339 258.698 182.278 251.76Z" fill="black"/>
<path fill-rule="evenodd" clip-rule="evenodd" d="M154.643 224.377C162.901 216.119 176.318 216.149 184.611 224.442C192.904 232.735 192.933 246.152 184.676 254.409C176.42 262.665 163.001 262.637 154.709 254.344C146.416 246.051 146.387 232.634 154.643 224.377ZM182.278 251.76C189.217 244.821 189.192 233.546 182.223 226.577C175.254 219.608 163.979 219.583 157.041 226.522C150.102 233.461 150.126 244.736 157.095 251.704C164.064 258.674 175.339 258.698 182.278 251.76Z" fill="#327BFC"/>
</svg>
