<svg width="40" height="40" viewBox="0 0 40 40" fill="none" xmlns="http://www.w3.org/2000/svg">
<rect width="40" height="40" rx="3" fill="#006DAE"/>
<path d="M28.5956 28.6001V28.5994H28.6V22.1597C28.6 19.0093 27.9188 16.5825 24.2199 16.5825C22.4417 16.5825 21.2484 17.5541 20.7612 18.4752H20.7098V16.8766H17.2026V28.5994H20.8546V22.7947C20.8546 21.2664 21.1455 19.7885 23.0464 19.7885C24.9194 19.7885 24.9473 21.5327 24.9473 22.8928V28.6001H28.5956Z" fill="white"/>
<path d="M11.3101 16.8149H14.9541V28.6H11.3101V16.8149Z" fill="white"/>
<path d="M13.1322 11C11.9551 11 11 11.9507 11 13.1222C11 14.2938 11.9551 15.2643 13.1322 15.2643C14.3092 15.2643 15.2643 14.2938 15.2643 13.1222C15.2636 11.9507 14.3085 11 13.1322 11Z" fill="white"/>
</svg>
