<svg width="71" height="84" viewBox="0 0 71 84" fill="none" xmlns="http://www.w3.org/2000/svg">
<path d="M70.4909 32.5246C70.4631 32.3476 70.4113 32.1751 70.3371 32.0119C70.2057 31.6899 69.9792 31.4157 69.6878 31.2259L60.9982 25.373L60.6394 29.5427L67.2014 34.0113L40.6031 51.0486L55.4445 68.0431L48.6774 61.5751L65.1166 77.4675L3.39274 67.7868L3.3073 68.4276C3.26866 68.7455 3.26866 69.0668 3.3073 69.3846C3.35017 69.6805 3.43654 69.9684 3.56363 70.239C3.67109 70.4728 3.82519 70.6821 4.01647 70.8542C4.1858 71.0133 4.3957 71.1227 4.62312 71.1704L63.4419 82.3975C63.6462 82.4222 63.8528 82.4222 64.0571 82.3975L63.7922 82.9614L65.1508 82.0387L65.3216 81.919H65.3729L65.484 81.8336C65.7643 81.5951 65.9964 81.3051 66.1675 80.9792C66.3477 80.6036 66.4578 80.1982 66.4922 79.783L66.5691 78.9286L70.5251 33.1569C70.5417 32.9455 70.5302 32.7329 70.4909 32.5246Z" fill="#0042D4"/>
<path d="M11.8087 62.0279L26.0605 50.0659L9.63844 33.9343L14.5685 30.3371L14.9786 26.9878L8.51914 31.7555C8.41795 31.8295 8.32614 31.9156 8.24573 32.0118C8.15913 32.1189 8.08195 32.2332 8.01503 32.3536C7.9507 32.4802 7.89642 32.6116 7.85269 32.7466C7.80829 32.8858 7.77682 33.0289 7.7587 33.1738L3.39258 67.8465L11.86 62.0022L11.8087 62.0279Z" fill="url(#paint0_linear)"/>
<path fill-rule="evenodd" clip-rule="evenodd" d="M59.0414 28.5942L59.4344 24.322L59.46 24.2964L68.329 30.2774C68.4829 30.3759 68.6235 30.4936 68.7477 30.6277C68.8613 30.7686 68.9561 30.9237 69.0296 31.0891C69.0998 31.2596 69.1514 31.4372 69.1834 31.6188C69.2049 31.8119 69.2049 32.0068 69.1834 32.1998L65.0993 79.7487L46.8658 61.8057L53.8037 68.5215L38.1165 51.2023L65.7657 33.1995L59.0414 28.5942ZM5.95581 30.5935L12.4922 25.6207L12.065 29.1154L7.04093 32.8663L24.2491 50.177L9.28807 62.139L0.649812 68.231L65.0907 79.7829L65.0138 80.6373C64.982 81.0694 64.872 81.492 64.6891 81.8848C64.5193 82.2384 64.2812 82.5549 63.9885 82.8161C63.7148 83.0663 63.3875 83.2504 63.0316 83.3544C62.6668 83.4445 62.2856 83.4445 61.9208 83.3544L1.90582 71.7086C1.67124 71.6619 1.45484 71.5493 1.28209 71.3839C1.0904 71.2003 0.934013 70.9831 0.820697 70.7431C0.696755 70.4712 0.610515 70.1838 0.564369 69.8886C0.521512 69.5596 0.521512 69.2265 0.564369 68.8975L5.17828 32.0717C5.20253 31.9215 5.23678 31.773 5.28081 31.6274C5.32454 31.4868 5.37881 31.3497 5.44315 31.2172C5.50797 31.093 5.58527 30.9756 5.67384 30.8669C5.7547 30.7632 5.84959 30.6711 5.95581 30.5935Z" fill="#3385EA"/>
<path fill-rule="evenodd" clip-rule="evenodd" d="M59.0576 28.5794L59.0586 28.5684H59.0415L59.0576 28.5794ZM58.2052 38.1263L59.0576 28.5794L65.7658 33.1994L58.2052 38.1263ZM58.2052 38.1263L58.2041 38.1379L38.6377 50.8775L58.2052 38.1263ZM7.04102 32.8661L12.065 29.1152L11.1252 36.9759L23.7878 49.7325L7.04102 32.8661Z" fill="#0042D4"/>
<path fill-rule="evenodd" clip-rule="evenodd" d="M17.9688 6.1056L57.8022 1.35498L61.1345 5.28535L62.6468 6.09705L60.938 25.0653L60.5535 29.3375L59.6734 38.9498L40.0643 51.6893L38.3555 52.8171L37.4412 51.9627C37.094 51.6164 36.7166 51.3019 36.3134 51.0228C35.9373 50.7551 35.5368 50.5234 35.1172 50.3308C34.7165 50.141 34.2988 49.9894 33.8697 49.8779C33.4505 49.7653 33.0212 49.6938 32.5881 49.6643C32.156 49.6259 31.7214 49.6259 31.2894 49.6643C30.8553 49.7156 30.4265 49.8042 30.0077 49.9292C29.5735 50.0563 29.1505 50.2192 28.7432 50.4162C28.3212 50.6278 27.9157 50.8705 27.5299 51.1425L26.5644 51.8175L25.2998 50.5444L12.6372 37.7878L13.5771 29.9185L13.9957 26.4239L16.1745 8.41255C16.2074 8.11951 16.2793 7.83216 16.3881 7.55812C16.4921 7.30423 16.63 7.06565 16.7983 6.84895C16.9523 6.65265 17.1369 6.48243 17.3451 6.34484C17.532 6.21854 17.7454 6.1367 17.9688 6.1056ZM24.9068 7.89135C24.9493 7.78731 24.978 7.67815 24.9922 7.56667C25.0061 7.47605 25.0061 7.38386 24.9922 7.29325C24.9792 7.20601 24.9439 7.12361 24.8897 7.05401C24.8482 6.9878 24.789 6.93453 24.7188 6.90021C24.6446 6.86402 24.5617 6.84922 24.4796 6.85749C24.392 6.87355 24.308 6.90539 24.2318 6.95148C24.1525 7.00766 24.0808 7.0737 24.0182 7.148C23.9523 7.23162 23.8977 7.32355 23.8558 7.42141C23.8145 7.52288 23.7858 7.62906 23.7704 7.73755C23.7529 7.83933 23.7529 7.94337 23.7704 8.04515C23.7851 8.13452 23.8202 8.21931 23.8729 8.29293C23.9144 8.35914 23.9736 8.41241 24.0438 8.44673C24.1221 8.4686 24.2048 8.4686 24.2831 8.44673C24.3699 8.43247 24.4537 8.40358 24.5308 8.36128C24.6101 8.30511 24.6819 8.23907 24.7444 8.16477C24.8103 8.08114 24.8649 7.98922 24.9068 7.89135Z" fill="url(#paint1_linear)"/>
<path d="M62.8519 2.27769C62.7726 2.00233 62.6324 1.74829 62.4418 1.53434C62.2992 1.37585 62.1282 1.24544 61.9377 1.14985L60.545 0.415039L60.656 1.03023L57.8022 1.36345L61.1601 5.35363L62.6725 6.16534L62.9374 3.25174C62.9716 2.92458 62.9426 2.59388 62.8519 2.27769Z" fill="#0010BD"/>
<path fill-rule="evenodd" clip-rule="evenodd" d="M14.3736 9.97579L14.6623 7.57502L14.3718 9.97597L14.3736 9.97579ZM14.3736 9.97579L12.4921 25.6205L12.0649 29.1151L11.125 36.9759L23.7876 49.7325L25.0607 51.0056L26.0604 50.3049C26.4589 50.0295 26.8789 49.7866 27.3164 49.5787C27.72 49.3776 28.1402 49.2118 28.5724 49.0831C28.9924 48.9651 29.4209 48.8794 29.854 48.8268C30.2863 48.7927 30.7205 48.7927 31.1528 48.8268C32.0411 48.8882 32.9103 49.1142 33.7161 49.4932C34.5812 49.8955 35.368 50.448 36.0401 51.1252L36.9629 52.0309L38.6717 50.8945L58.1698 38.1379L59.0242 28.5683L59.4172 24.2962L61.1261 5.31934L14.3736 9.97579ZM33.6306 19.3661L30.7341 25.9196L25.3768 26.6629C25.3085 26.6767 25.2424 26.6997 25.1803 26.7313C25.1228 26.7663 25.0684 26.8063 25.018 26.8509C24.9678 26.904 24.9221 26.9612 24.8813 27.0218C24.837 27.0846 24.8025 27.1538 24.7787 27.2269C24.747 27.3008 24.724 27.3782 24.7104 27.4576C24.7019 27.5399 24.7019 27.623 24.7104 27.7053C24.7122 27.784 24.7266 27.8619 24.7531 27.936C24.7786 28.0084 24.8131 28.0773 24.8556 28.1411L28.3332 32.7294L26.3936 39.5648C26.3711 39.6515 26.3568 39.7402 26.3509 39.8297C26.3421 39.9092 26.3421 39.9894 26.3509 40.0689C26.3642 40.1428 26.3872 40.2146 26.4192 40.2825C26.4512 40.3426 26.4884 40.3998 26.5303 40.4534L26.6072 40.5303C26.6367 40.5506 26.6682 40.5678 26.7012 40.5816H26.7952H26.9063H26.9917H27.0772H27.1626L27.248 40.5303L32.3746 37.0271L36.9287 40.9319L37.0141 40.9917L37.0996 41.0344H37.1936H37.3986C37.4381 41.043 37.4788 41.043 37.5183 41.0344C37.5596 41.021 37.5996 41.0038 37.6379 40.9831L37.7404 40.9062L33.1771 29.7873L33.1607 29.7474L33.1771 29.7873L37.7575 40.8977C37.8174 40.8492 37.8693 40.7915 37.9113 40.7268C37.9612 40.6617 38.0015 40.5898 38.0309 40.5132C38.0661 40.4345 38.0891 40.351 38.0993 40.2654C38.1122 40.1747 38.1122 40.0827 38.0993 39.992L37.5695 32.755L42.5252 27.8506C42.594 27.7864 42.6517 27.7114 42.6961 27.6284C42.7565 27.5598 42.8056 27.4819 42.8413 27.3977C42.8495 27.3125 42.8495 27.2267 42.8413 27.1414C42.8543 27.0593 42.8543 26.9757 42.8413 26.8936L42.8062 26.904C42.795 26.8478 42.7782 26.7928 42.7559 26.7398C42.7231 26.6729 42.683 26.6099 42.6363 26.5519C42.5849 26.5022 42.5275 26.4591 42.4654 26.4237C42.4004 26.386 42.3269 26.3654 42.2518 26.3639L36.4502 25.8085L34.8866 19.3319C34.8701 19.2538 34.8413 19.1788 34.8012 19.1098C34.7671 19.0494 34.7205 18.9969 34.6645 18.956C34.6155 18.9166 34.5607 18.8849 34.5021 18.862C34.4402 18.8489 34.3761 18.8489 34.3142 18.862C34.2521 18.8502 34.1883 18.8502 34.1262 18.862C34.0592 18.8876 33.996 18.9221 33.9382 18.9645C33.875 19.0149 33.8177 19.0722 33.7673 19.1354C33.7149 19.2081 33.6692 19.2853 33.6306 19.3661Z" fill="url(#paint2_linear)"/>
<path fill-rule="evenodd" clip-rule="evenodd" d="M16.4481 5.26817L59.4087 0.141602V0.167234C59.6969 0.131835 59.9895 0.164013 60.2631 0.261221C60.5174 0.362436 60.7453 0.520221 60.9296 0.722612C61.1162 0.938035 61.2533 1.19179 61.3312 1.46596C61.4237 1.77888 61.4556 2.10658 61.4251 2.43147L61.1517 5.33652L14.3633 9.96752L14.6538 7.56658C14.6863 7.27346 14.7581 6.98606 14.8674 6.71215C14.9733 6.46186 15.1111 6.22636 15.2775 6.01152C15.4314 5.81267 15.616 5.63961 15.8244 5.49886C16.0118 5.37504 16.2252 5.2961 16.4481 5.26817ZM22.7623 7.64347C22.6802 7.65087 22.5976 7.63612 22.5231 7.60075C22.4529 7.56644 22.3937 7.51316 22.3522 7.44696C22.298 7.37736 22.2627 7.29495 22.2496 7.20772C22.2323 7.10592 22.2323 7.00192 22.2496 6.90012C22.2643 6.68307 22.3481 6.47643 22.4889 6.31057C22.5477 6.22959 22.6235 6.16251 22.711 6.11405C22.7848 6.06318 22.8699 6.03094 22.9588 6.02006C23.0341 5.99799 23.1142 5.99799 23.1895 6.02006C23.2605 6.05665 23.3219 6.10932 23.3689 6.17386C23.4148 6.25113 23.4493 6.33457 23.4715 6.42164C23.4888 6.52344 23.4888 6.62744 23.4715 6.72924C23.4602 6.84127 23.4313 6.95083 23.386 7.05392C23.3435 7.15144 23.2889 7.24329 23.2237 7.32734C23.1654 7.40331 23.0929 7.46717 23.0101 7.51531C22.9363 7.56617 22.8513 7.59842 22.7623 7.6093V7.64347ZM20.3186 7.83999C20.394 7.86207 20.474 7.86207 20.5493 7.83999L20.5408 7.87417C20.6265 7.86658 20.7089 7.83716 20.78 7.78873C20.8631 7.73737 20.9356 7.67068 20.9936 7.59221C21.0606 7.51245 21.1153 7.42318 21.156 7.32734C21.1973 7.22587 21.226 7.11969 21.2414 7.0112C21.2547 6.90909 21.2547 6.80571 21.2414 6.7036C21.2193 6.61653 21.1847 6.53309 21.1389 6.45582C21.0972 6.39183 21.0379 6.34136 20.968 6.31057C20.8967 6.27463 20.8167 6.25981 20.7373 6.26785C20.6546 6.28239 20.5759 6.31443 20.5066 6.36183C20.4265 6.41034 20.3568 6.47423 20.3016 6.54981C20.2345 6.63262 20.1798 6.72472 20.1392 6.82322C20.0978 6.92469 20.0691 7.03087 20.0538 7.13936C20.0362 7.24114 20.0362 7.34517 20.0538 7.44696C20.0693 7.53204 20.1012 7.6133 20.1478 7.68619C20.1916 7.75036 20.2502 7.8031 20.3186 7.83999ZM17.9775 7.91689C18.0602 8.05135 18.214 8.1249 18.3705 8.10486V8.07069C18.4553 8.05892 18.5367 8.02984 18.6098 7.98524C18.6889 7.93223 18.7607 7.86903 18.8234 7.79727C18.8847 7.71214 18.9363 7.62043 18.9772 7.52385C19.0196 7.42275 19.0484 7.31643 19.0626 7.20772C19.0755 7.10845 19.0755 7.00793 19.0626 6.90867C19.0443 6.82302 19.0095 6.74177 18.9601 6.66943C18.9186 6.60322 18.8594 6.54994 18.7892 6.51563C18.7169 6.49325 18.6394 6.49325 18.5671 6.51563C18.4826 6.52871 18.4014 6.55771 18.3278 6.60107C18.1673 6.71818 18.043 6.87806 17.969 7.06246C17.9227 7.16221 17.8938 7.26913 17.8835 7.3786C17.8659 7.47751 17.8659 7.57874 17.8835 7.67765C17.899 7.76274 17.931 7.844 17.9775 7.91689Z" fill="url(#paint3_linear)"/>
<path d="M18.5585 6.51562C18.4741 6.52871 18.3929 6.5577 18.3193 6.60107C18.1588 6.71817 18.0344 6.87805 17.9604 7.06246C17.9142 7.1622 17.8853 7.26912 17.875 7.3786C17.8574 7.4775 17.8574 7.57874 17.875 7.67765C17.8905 7.76274 17.9224 7.84399 17.969 7.91689C18.0517 8.05134 18.2055 8.12489 18.362 8.10486C18.4468 8.09309 18.5282 8.06401 18.6013 8.01942C18.6804 7.96641 18.7522 7.90321 18.8149 7.83144C18.8761 7.74631 18.9277 7.6546 18.9687 7.55803C19.0111 7.45692 19.0398 7.3506 19.0541 7.24189C19.067 7.14262 19.067 7.04211 19.0541 6.94284C19.0358 6.8572 19.001 6.77594 18.9516 6.7036C18.9101 6.63739 18.8509 6.58412 18.7807 6.5498C18.7083 6.52742 18.6309 6.52742 18.5585 6.5498" fill="white"/>
<path d="M20.7372 6.26789C20.6486 6.28001 20.5638 6.31215 20.4894 6.36188C20.4093 6.41038 20.3396 6.47427 20.2844 6.54985C20.2173 6.63266 20.1626 6.72476 20.122 6.82327C20.0807 6.92473 20.052 7.03091 20.0366 7.1394C20.0191 7.24119 20.0191 7.34522 20.0366 7.447C20.0521 7.53209 20.084 7.61335 20.1306 7.68624C20.1745 7.75041 20.233 7.80314 20.3015 7.84003C20.3768 7.86211 20.4568 7.86211 20.5322 7.84003C20.6179 7.83244 20.7003 7.80303 20.7714 7.75459C20.8544 7.70324 20.9269 7.63654 20.985 7.55807C21.0519 7.47831 21.1067 7.38905 21.1473 7.2932C21.1887 7.19173 21.2174 7.08555 21.2328 6.97706C21.246 6.87496 21.246 6.77157 21.2328 6.66947C21.2106 6.5824 21.1761 6.49895 21.1303 6.42168C21.0886 6.3577 21.0292 6.30723 20.9594 6.27643C20.8874 6.25362 20.8107 6.25066 20.7372 6.26789Z" fill="white"/>
<path d="M22.959 6.02002C22.8701 6.03089 22.785 6.06314 22.7112 6.11401C22.6237 6.16246 22.5479 6.22955 22.4891 6.31052C22.3483 6.47639 22.2645 6.68303 22.2498 6.90008C22.2325 7.00188 22.2325 7.10588 22.2498 7.20767C22.2629 7.29491 22.2982 7.37732 22.3524 7.44691C22.3939 7.51312 22.4531 7.56639 22.5233 7.60071C22.5978 7.63607 22.6804 7.65083 22.7625 7.64343C22.8633 7.6383 22.9608 7.60581 23.0445 7.54944C23.1272 7.5013 23.1998 7.43745 23.2581 7.36147C23.3233 7.27742 23.3779 7.18558 23.4204 7.08805C23.4657 6.98496 23.4945 6.8754 23.5059 6.76337C23.5232 6.66158 23.5232 6.55757 23.5059 6.45578C23.4837 6.36871 23.4492 6.28526 23.4033 6.20799C23.3563 6.14345 23.2949 6.09079 23.2239 6.0542C23.1486 6.03212 23.0685 6.03212 22.9932 6.0542" fill="white"/>
<path d="M59.8875 36.8052L58.2299 37.4716L36.9803 50.3991C35.4448 49.3877 33.6409 48.8608 31.8024 48.8868C29.8202 48.8868 32.8192 52.6633 32.8192 52.6633L36.8948 52.0054L58.1615 38.1466L59.8704 37.0359" fill="#0042D4"/>
<path d="M25.095 51.0397L6.67357 63.9928L6.45996 64.1296L24.215 50.1597" fill="#0042D4"/>
<path d="M38.1164 51.2021L36.8945 52.0053L46.8657 61.8056L60.135 74.7074L38.1505 51.2449" fill="#0042D4"/>
<path fill-rule="evenodd" clip-rule="evenodd" d="M29.8799 48.8354C30.3121 48.8014 30.7464 48.8014 31.1786 48.8354L31.0846 48.8013C31.9729 48.8627 32.8421 49.0887 33.6479 49.4677C34.513 49.87 35.2999 50.4225 35.9719 51.0997L36.8947 52.0054L46.8659 61.8057L65.0994 79.7486L0.649902 68.2309L9.28816 62.1389L25.1634 50.9886L26.1204 50.3136C26.5079 50.0397 26.9165 49.7969 27.3422 49.5873C27.7458 49.3863 28.1661 49.2205 28.5982 49.0918C29.0183 48.9737 29.4467 48.888 29.8799 48.8354ZM28.8973 70.6661C28.2001 70.5386 27.5437 70.2456 26.9834 69.8116C26.4116 69.3647 25.9327 68.8103 25.5735 68.1797C25.1708 67.4992 24.8822 66.7575 24.7191 65.9838C24.559 65.139 24.5273 64.2748 24.6251 63.4205C24.7133 62.5772 24.9324 61.7527 25.2745 60.9769C25.5808 60.2764 26.0025 59.6324 26.522 59.0715C26.9996 58.5552 27.5823 58.1473 28.2308 57.8753C28.8483 57.6051 29.5261 57.5019 30.196 57.5762C30.8649 57.6534 31.506 57.8877 32.0672 58.2598C32.6523 58.6442 33.1524 59.1443 33.5368 59.7294C33.9417 60.3565 34.2311 61.051 34.3912 61.78C34.5839 62.5678 34.6388 63.383 34.5536 64.1895C34.5011 64.7735 34.3718 65.3481 34.1691 65.8984C34.0135 66.3125 33.7881 66.6968 33.5026 67.0347C33.2682 67.2979 32.9757 67.5027 32.6482 67.6328C32.3778 67.7433 32.0826 67.7787 31.7938 67.7354C31.628 67.7107 31.4668 67.6617 31.3153 67.5901C31.1671 67.5246 31.029 67.4383 30.9052 67.3338C30.7816 67.2226 30.6725 67.0963 30.5805 66.9579C30.4834 66.815 30.4058 66.6598 30.3498 66.4965C30.2353 66.6133 30.1125 66.7218 29.9824 66.8211C29.8494 66.9214 29.7062 67.0074 29.5552 67.0775C29.398 67.1516 29.2312 67.2034 29.0596 67.2313C28.8757 67.2616 28.6881 67.2616 28.5042 67.2313C28.1946 67.1877 27.9009 67.0673 27.6498 66.881C27.3998 66.6877 27.1906 66.4466 27.0346 66.1718C26.864 65.8699 26.7482 65.5401 26.6928 65.1977C26.6224 64.8174 26.608 64.4288 26.6501 64.0443C26.7031 63.5183 26.8416 63.0046 27.0603 62.5234C27.2507 62.1039 27.5107 61.7197 27.8292 61.387C28.105 61.1024 28.4327 60.8732 28.7947 60.712C29.1364 60.5652 29.5134 60.5207 29.8799 60.5838C30.0174 60.5969 30.1524 60.6285 30.2814 60.6778C30.409 60.7202 30.5299 60.7806 30.6403 60.8572C30.7568 60.9313 30.8631 61.0204 30.9564 61.1221C31.0588 61.2266 31.1504 61.3411 31.2299 61.4639C31.252 61.3768 31.2865 61.2934 31.3324 61.2161C31.3694 61.1479 31.4186 61.0871 31.4776 61.0367C31.5811 60.946 31.7163 60.8999 31.8536 60.9085H31.9732L32.0757 60.9683C32.1092 60.9975 32.1406 61.0289 32.1697 61.0623L32.2466 61.1819C32.2702 61.2317 32.2902 61.2831 32.3064 61.3357V61.4981V61.6689C32.3105 61.7287 32.3105 61.7886 32.3064 61.8484L31.6485 64.5398C31.6485 64.6489 31.6177 64.7465 31.5896 64.835L31.5896 64.8351C31.5759 64.8782 31.5629 64.9193 31.5545 64.9585C31.5453 65.0017 31.5427 65.0405 31.5404 65.0756C31.5363 65.1376 31.5329 65.1883 31.4947 65.2319C31.453 65.2796 31.4695 65.3231 31.4833 65.3595C31.4892 65.3754 31.4947 65.3899 31.4947 65.4028C31.4921 65.4284 31.4921 65.4541 31.4947 65.4797C31.4776 65.6073 31.4776 65.7366 31.4947 65.8642C31.5025 65.9671 31.5347 66.0667 31.5887 66.1547C31.6355 66.2314 31.6999 66.2959 31.7767 66.3427C31.8705 66.3904 31.9715 66.4221 32.0757 66.4366C32.2403 66.4626 32.4088 66.4325 32.5542 66.3512C32.7372 66.2552 32.8953 66.1177 33.0156 65.9496C33.1749 65.7156 33.2987 65.4594 33.383 65.1892C33.502 64.8231 33.5794 64.4448 33.6137 64.0613C33.6872 63.3935 33.6321 62.7177 33.4514 62.0705C33.2847 61.4866 33.0157 60.9369 32.6568 60.4471C32.3327 59.9991 31.9269 59.6164 31.4606 59.3193C31.0451 59.0436 30.5712 58.8681 30.0764 58.8066C29.5335 58.7416 28.9831 58.8182 28.4786 59.0288C27.9587 59.2485 27.4924 59.5778 27.1115 59.9943C26.6907 60.4493 26.3499 60.9722 26.1033 61.5408C25.8308 62.1835 25.6551 62.863 25.5821 63.5572C25.4834 64.2665 25.492 64.9866 25.6077 65.6933C25.7252 66.32 25.9445 66.9233 26.2571 67.4791C26.55 67.9878 26.9423 68.4324 27.4106 68.7863C27.8719 69.1271 28.408 69.3527 28.9742 69.4442C29.1946 69.4803 29.4173 69.5003 29.6406 69.504C29.8524 69.5039 30.0639 69.4868 30.2729 69.4528C30.4821 69.4118 30.6877 69.3546 30.8881 69.2819C31.1269 69.195 31.3608 69.0951 31.5887 68.9828H31.6571H31.8365C31.8995 68.9921 31.9587 69.0187 32.0074 69.0597C32.0591 69.1028 32.1025 69.1549 32.1356 69.2135C32.1714 69.2776 32.1973 69.3468 32.2125 69.4186C32.221 69.4953 32.221 69.5726 32.2125 69.6493C32.2164 69.7005 32.2164 69.7519 32.2125 69.8031C32.203 69.8512 32.1857 69.8974 32.1612 69.9398L32.0843 70.0509L31.9818 70.1363C31.7424 70.2782 31.4907 70.3984 31.2299 70.4952C30.9852 70.586 30.7338 70.6575 30.478 70.7088C30.2236 70.7513 29.9667 70.777 29.709 70.7857C29.4484 70.7842 29.1883 70.7613 28.9314 70.7173L28.8973 70.6661ZM29.7432 62.0278C29.5382 62.008 29.3317 62.0434 29.1451 62.1303C28.9286 62.231 28.7341 62.3733 28.5726 62.549C28.3852 62.7537 28.2322 62.9874 28.1197 63.2411C27.9881 63.5394 27.9045 63.8566 27.872 64.181C27.8417 64.3906 27.8417 64.6036 27.872 64.8132C27.8935 64.9901 27.9486 65.1612 28.0343 65.3174C28.1118 65.4566 28.2199 65.5764 28.3504 65.6677C28.4894 65.7587 28.6471 65.8171 28.8118 65.8386C29.0232 65.8593 29.2362 65.8209 29.427 65.7275C29.6455 65.6152 29.8399 65.4614 29.9995 65.2746C30.1863 65.0712 30.3366 64.8371 30.4438 64.5825C30.5676 64.3119 30.6483 64.0237 30.683 63.7281C30.7091 63.5153 30.7091 63.3001 30.683 63.0873C30.6492 62.9029 30.5888 62.7245 30.5036 62.5576C30.4236 62.4128 30.3128 62.2873 30.1789 62.1901C30.0543 62.0946 29.9071 62.0328 29.7517 62.0107L29.7432 62.0278Z" fill="#3385EA"/>
<path d="M42.8414 26.8935C42.8316 26.8171 42.8115 26.7424 42.7816 26.6714C42.7488 26.6045 42.7087 26.5414 42.662 26.4834C42.6106 26.4337 42.5532 26.3906 42.4911 26.3552C42.4261 26.3176 42.3526 26.297 42.2775 26.2954L36.4759 25.74L34.9123 19.2635C34.8958 19.1854 34.867 19.1104 34.8269 19.0413C34.7928 18.9809 34.7462 18.9285 34.6902 18.8875C34.6412 18.8481 34.5865 18.8164 34.5279 18.7936C34.4659 18.7804 34.4018 18.7804 34.3399 18.7936C34.2778 18.7818 34.214 18.7818 34.1519 18.7936C34.085 18.8192 34.0217 18.8537 33.9639 18.8961C33.9007 18.9465 33.8434 19.0038 33.793 19.067C33.7407 19.1396 33.6949 19.2168 33.6563 19.2977L30.7342 25.9195L25.3257 26.697C25.2574 26.7108 25.1913 26.7338 25.1292 26.7654C25.0716 26.8003 25.0173 26.8404 24.9668 26.885C24.9166 26.9381 24.8709 26.9953 24.8301 27.0559C24.7859 27.1187 24.7513 27.1878 24.7276 27.2609C24.6958 27.3349 24.6729 27.4123 24.6592 27.4916C24.6507 27.574 24.6507 27.657 24.6592 27.7394C24.661 27.8181 24.6754 27.896 24.7019 27.9701C24.7275 28.0425 24.7619 28.1113 24.8045 28.1752L28.2991 32.7549L26.3595 39.5903C26.337 39.6771 26.3227 39.7657 26.3168 39.8552C26.308 39.9347 26.308 40.0149 26.3168 40.0944C26.3301 40.1683 26.3531 40.2401 26.3852 40.308C26.4171 40.3681 26.4543 40.4253 26.4962 40.4789L26.5731 40.5558C26.6026 40.5761 26.6341 40.5933 26.6671 40.6071H26.7611H26.8722H26.9576H27.0431H27.1285L27.214 40.5558L32.3405 37.0527L36.8946 40.9318L36.9801 40.9916L37.0655 41.0343H37.1595H37.3646C37.404 41.0429 37.4448 41.0429 37.4842 41.0343C37.5255 41.0209 37.5656 41.0037 37.6038 40.983L37.7063 40.9061C37.7662 40.8576 37.8181 40.7999 37.8601 40.7352C37.91 40.6702 37.9503 40.5982 37.9797 40.5216C38.0149 40.443 38.0379 40.3594 38.0481 40.2739C38.0611 40.1832 38.0611 40.0911 38.0481 40.0004L37.5696 32.7549L42.5338 27.8505C42.5996 27.7857 42.6544 27.7107 42.6962 27.6283C42.7454 27.5548 42.7828 27.4741 42.8073 27.3891C42.8154 27.3038 42.8154 27.218 42.8073 27.1328C42.8308 27.0552 42.8423 26.9745 42.8414 26.8935Z" fill="#F9B233"/>
<path fill-rule="evenodd" clip-rule="evenodd" d="M28.2134 57.9353C28.8309 57.6651 29.5086 57.5619 30.1786 57.6362L30.2213 57.6021C30.8902 57.6793 31.5314 57.9135 32.0925 58.2856C32.6776 58.67 33.1777 59.1701 33.5621 59.7552C33.967 60.3823 34.2564 61.0768 34.4166 61.8058C34.6321 62.5896 34.7102 63.4049 34.6472 64.2153C34.5947 64.7994 34.4654 65.3739 34.2628 65.9242C34.1072 66.3383 33.8818 66.7226 33.5963 67.0606C33.3619 67.3237 33.0693 67.5285 32.7419 67.6587C32.4715 67.7691 32.1763 67.8045 31.8874 67.7612C31.7217 67.7365 31.5605 67.6876 31.409 67.6159C31.2608 67.5504 31.1227 67.4641 30.9988 67.3596C30.8753 67.2484 30.7662 67.1221 30.6742 66.9837C30.5771 66.8408 30.4995 66.6857 30.4435 66.5223C30.3289 66.6392 30.2061 66.7477 30.0761 66.847C29.9431 66.9472 29.7999 67.0332 29.6488 67.1033C29.4916 67.1774 29.3248 67.2292 29.1533 67.2571C28.9694 67.2874 28.7818 67.2874 28.5979 67.2571C28.2883 67.2135 27.9945 67.0931 27.7435 66.9068C27.4934 66.7135 27.2843 66.4724 27.1283 66.1976C26.9576 65.8957 26.8419 65.5659 26.7865 65.2235C26.721 64.8599 26.7066 64.4889 26.7438 64.1213C26.7968 63.5954 26.9353 63.0817 27.1539 62.6005C27.3443 62.181 27.6043 61.7968 27.9229 61.4641C28.1987 61.1794 28.5264 60.9503 28.8884 60.7891C29.2037 60.645 29.5521 60.589 29.8966 60.6267C30.0341 60.6398 30.1692 60.6714 30.2982 60.7207C30.4258 60.7631 30.5466 60.8235 30.6571 60.9001C30.7736 60.9742 30.8799 61.0633 30.9732 61.165C31.0756 61.2695 31.1672 61.384 31.2466 61.5068C31.2688 61.4197 31.3033 61.3363 31.3492 61.259C31.3862 61.1908 31.4354 61.13 31.4944 61.0796C31.5979 60.9889 31.733 60.9428 31.8704 60.9514H31.99L32.0498 61.0027C32.0832 61.0318 32.1146 61.0632 32.1438 61.0967L32.2207 61.2163C32.2443 61.266 32.2643 61.3174 32.2805 61.3701V61.5324V61.7033C32.2845 61.763 32.2845 61.823 32.2805 61.8827L31.6226 64.5742C31.6114 64.6275 31.6038 64.6789 31.5966 64.7279C31.582 64.8282 31.5688 64.9182 31.5286 64.9928C31.4688 65.1039 31.4688 65.1894 31.4688 65.2663V65.4371C31.4661 65.4627 31.4661 65.4885 31.4688 65.514C31.4516 65.6416 31.4516 65.7709 31.4688 65.8985C31.4766 66.0015 31.5088 66.1011 31.5628 66.189C31.6095 66.2658 31.674 66.3302 31.7507 66.377C31.8445 66.4247 31.9456 66.4565 32.0498 66.471C32.2143 66.4969 32.3829 66.4669 32.5283 66.3856C32.7113 66.2895 32.8693 66.152 32.9897 65.984C33.1489 65.75 33.2728 65.4937 33.3571 65.2235C33.4674 64.8564 33.5361 64.4781 33.5621 64.0957C33.6356 63.4278 33.5805 62.752 33.3998 62.1049C33.2331 61.521 32.9641 60.9713 32.6052 60.4815C32.2811 60.0334 31.8753 59.6508 31.409 59.3536C30.9935 59.0779 30.5196 58.9024 30.0248 58.841C29.482 58.776 28.9315 58.8525 28.427 59.0631C27.9072 59.2828 27.4408 59.6122 27.0599 60.0286C26.6392 60.4837 26.2983 61.0065 26.0517 61.5751C25.7792 62.2178 25.6036 62.8974 25.5305 63.5916C25.4522 64.2922 25.4781 65.0005 25.6074 65.6935C25.7266 66.3237 25.9489 66.9299 26.2653 67.4878C26.5582 67.9965 26.9505 68.4411 27.4188 68.795C27.8801 69.1359 28.4162 69.3614 28.9824 69.453C29.2028 69.4891 29.4255 69.509 29.6488 69.5128C29.8606 69.5127 30.0721 69.4955 30.2811 69.4615C30.4903 69.4205 30.696 69.3633 30.8963 69.2906C31.1148 69.2018 31.3287 69.102 31.5371 68.9916H31.6055H31.7849C31.8479 69.0008 31.9071 69.0274 31.9558 69.0685C32.0075 69.1115 32.0509 69.1637 32.084 69.2223C32.1198 69.2863 32.1457 69.3555 32.1609 69.4273C32.1694 69.504 32.1694 69.5814 32.1609 69.658C32.1648 69.7092 32.1648 69.7606 32.1609 69.8118C32.1514 69.8599 32.1341 69.9061 32.1096 69.9485L32.0327 70.0596L31.9302 70.145C31.6908 70.287 31.4392 70.4071 31.1783 70.5039C30.9336 70.5948 30.6822 70.6662 30.4264 70.7175C30.172 70.76 29.9151 70.7857 29.6574 70.7944C29.3968 70.7929 29.1367 70.77 28.8799 70.7261C28.1827 70.5986 27.5263 70.3056 26.9659 69.8716C26.3942 69.4247 25.9153 68.8703 25.5561 68.2397C25.1534 67.5592 24.8648 66.8175 24.7017 66.0438C24.5416 65.199 24.5099 64.3348 24.6077 63.4805C24.6959 62.6372 24.915 61.8127 25.2571 61.0368C25.5634 60.3364 25.9851 59.6924 26.5046 59.1315C26.9822 58.6152 27.5649 58.2073 28.2134 57.9353ZM28.3587 65.6678C28.4976 65.7588 28.6553 65.8173 28.8201 65.8387L28.8115 65.8558C29.0229 65.8766 29.2359 65.8381 29.4267 65.7447C29.6452 65.6325 29.8396 65.4786 29.9992 65.2919C30.186 65.0885 30.3363 64.8543 30.4435 64.5998C30.5673 64.3292 30.648 64.0409 30.6827 63.7454C30.7088 63.5326 30.7088 63.3174 30.6827 63.1046C30.6489 62.9202 30.5885 62.7418 30.5033 62.5748C30.4233 62.43 30.3125 62.3046 30.1786 62.2074C30.054 62.1119 29.9068 62.0501 29.7514 62.028C29.5464 62.0082 29.3399 62.0436 29.1533 62.1305C28.9368 62.2312 28.7423 62.3734 28.5808 62.5492C28.3934 62.7538 28.2405 62.9876 28.128 63.2413C27.9964 63.5395 27.9127 63.8568 27.8802 64.1811C27.8499 64.3908 27.8499 64.6037 27.8802 64.8134C27.9018 64.9902 27.9569 65.1613 28.0425 65.3175C28.12 65.4568 28.2281 65.5765 28.3587 65.6678Z" fill="#96C8FF"/>
<path d="M25.0607 51.0055L11.0908 36.9502L11.1079 36.6597L25.9579 50.3732L25.0607 51.0055Z" fill="#0042D4"/>
<defs>
<linearGradient id="paint0_linear" x1="3.37549" y1="67.8619" x2="26.0605" y2="67.8619" gradientUnits="userSpaceOnUse">
<stop stop-color="#96C8FF"/>
<stop offset="0.27" stop-color="#93C6FF"/>
<stop offset="0.46" stop-color="#8ABFFD"/>
<stop offset="0.64" stop-color="#7AB4FB"/>
<stop offset="0.8" stop-color="#63A4F7"/>
<stop offset="0.95" stop-color="#4690F3"/>
<stop offset="1" stop-color="#3B88F1"/>
</linearGradient>
<linearGradient id="paint1_linear" x1="22.1187" y1="3.80598" x2="18.9173" y2="38.7188" gradientUnits="userSpaceOnUse">
<stop stop-color="#96C8FF"/>
<stop offset="0.27" stop-color="#93C6FF"/>
<stop offset="0.46" stop-color="#8ABFFD"/>
<stop offset="0.64" stop-color="#7AB4FB"/>
<stop offset="0.8" stop-color="#63A4F7"/>
<stop offset="0.95" stop-color="#4690F3"/>
<stop offset="1" stop-color="#3B88F1"/>
</linearGradient>
<linearGradient id="paint2_linear" x1="46.7265" y1="57.5918" x2="49.6021" y2="30.6844" gradientUnits="userSpaceOnUse">
<stop stop-color="#CAE3FF"/>
<stop offset="0.25" stop-color="#DBECFF"/>
<stop offset="0.72" stop-color="#F5FAFF"/>
<stop offset="1" stop-color="white"/>
</linearGradient>
<linearGradient id="paint3_linear" x1="14.3718" y1="9.98433" x2="61.4422" y2="9.98433" gradientUnits="userSpaceOnUse">
<stop stop-color="#0066E5"/>
<stop offset="0.34" stop-color="#0062E3"/>
<stop offset="0.66" stop-color="#0057DE"/>
<stop offset="0.98" stop-color="#0044D5"/>
<stop offset="1" stop-color="#0042D4"/>
</linearGradient>
</defs>
</svg>
