<svg width="40" height="40" viewBox="0 0 40 40" fill="none" xmlns="http://www.w3.org/2000/svg">
<rect width="40" height="40" rx="3" fill="#009FFF"/>
<path d="M30.6222 13.9975C29.8553 14.3362 29.0382 14.5608 28.1862 14.6698C29.0627 14.1428 29.7316 13.3148 30.0461 12.3167C29.2289 12.8073 28.3267 13.1538 27.3652 13.3472C26.5893 12.5153 25.4834 12 24.277 12C21.9364 12 20.052 13.9131 20.052 16.2584C20.052 16.5959 20.0804 16.9203 20.15 17.2292C16.6352 17.0566 13.5251 15.3603 11.4358 12.7761C11.0711 13.4134 10.8571 14.1428 10.8571 14.9281C10.8571 16.4025 11.6111 17.7095 12.735 18.4661C12.0558 18.4532 11.3894 18.2546 10.8249 17.9418C10.8249 17.9548 10.8249 17.9716 10.8249 17.9885C10.8249 20.0574 12.2904 21.7758 14.2121 22.1717C13.868 22.2664 13.4929 22.3118 13.1036 22.3118C12.833 22.3118 12.5597 22.2963 12.3032 22.2391C12.851 23.9251 14.4054 25.1646 16.2537 25.2049C14.8153 26.3379 12.9889 27.0206 11.0118 27.0206C10.6651 27.0206 10.3325 27.005 10 26.9622C11.8728 28.1784 14.0922 28.8727 16.4857 28.8727C24.2654 28.8727 28.5188 22.3832 28.5188 16.7581C28.5188 16.5699 28.5123 16.3882 28.5033 16.2078C29.3424 15.6082 30.0474 14.8593 30.6222 13.9975Z" fill="white"/>
</svg>
